<svg width="41" height="31" viewBox="0 0 41 31" fill="none" xmlns="http://www.w3.org/2000/svg">
<path d="M34.7996 9.79999C34.7996 10.2 34.7996 10.5 34.7996 10.9C24.9996 10.9 15.2996 10.9 5.59961 10.9C5.59961 10.5 5.59961 10.2 5.59961 9.79999C15.2996 9.79999 24.9996 9.79999 34.7996 9.79999Z" fill="#323232"/>
<path d="M34.9004 24.1H5.40039V25.1H34.9004V24.1Z" fill="#323232"/>
<path d="M36.5008 25.8H3.80078V26.8H36.5008V25.8Z" fill="#323232"/>
<path d="M38.5004 27.5H1.90039V28.5H38.5004V27.5Z" fill="#323232"/>
<path d="M40.3 29.2H0V30.2H40.3V29.2Z" fill="#323232"/>
<path d="M20.0996 2.59998L10.5996 8.99998H29.8996L20.0996 2.59998Z" fill="#323232"/>
<path d="M8.90039 8.99998L20.1004 1.49998L31.5004 8.99998H33.6004L20.1004 0.0999756L6.90039 8.99998H8.90039Z" fill="#323232"/>
<path d="M12.6236 16.8408C12.6236 18.0402 12.2985 18.7771 11.6481 19.0516C12.442 19.3176 12.839 20.1939 12.839 21.6804V21.9655C12.8306 23.0846 12.6342 23.8912 12.2499 24.3853C11.8698 24.8794 11.2469 25.1264 10.3812 25.1264H7.91708V13.9776H10.3305C11.1625 13.9776 11.7516 14.1719 12.0979 14.5604C12.4442 14.9447 12.6194 15.5908 12.6236 16.4988V16.8408ZM9.61473 23.8088H10.2165C10.5544 23.8088 10.7908 23.6927 10.926 23.4604C11.0611 23.2282 11.1287 22.8122 11.1287 22.2125V21.313C11.1287 20.7471 11.0738 20.3481 10.964 20.1158C10.8542 19.8793 10.643 19.7611 10.3305 19.7611H9.61473V23.8088ZM9.61473 18.4878H10.2418C10.5332 18.4878 10.7233 18.3949 10.812 18.2091C10.9049 18.0233 10.9513 17.6411 10.9513 17.0626V16.3911C10.9471 15.9604 10.888 15.6732 10.7739 15.5296C10.6599 15.3818 10.4636 15.3079 10.1848 15.3079H9.61473V18.4878ZM17.1528 21.7754L16.4053 16.1757H16.38L15.6959 21.7754H17.1528ZM13.6562 25.1264L15.2461 13.9776H17.4885L19.1799 25.1264H17.5962L17.3302 23.1374H15.5312L15.2905 25.1264H13.6562ZM20.3454 25.1264V13.9776H21.6757L24.0384 20.6669L23.9181 17.6263V13.9776H25.4447V25.1264H24.2411L21.815 18.2028L21.91 21.1293V25.1264H20.3454ZM27.1233 25.1264V13.9776H28.821V19.1086L30.5187 13.9776H32.2733L30.4236 19.476L32.419 25.1264H30.6263L28.8337 19.9194V25.1264H27.1233Z" fill="#323232"/>
</svg>
