<svg width="19" height="17" viewBox="0 0 19 17" fill="none" xmlns="http://www.w3.org/2000/svg">
<path d="M9.5 12.9902C7.83991 12.9902 6.49414 11.6445 6.49414 9.98438C6.49414 8.32428 7.83991 6.97852 9.5 6.97852C11.1601 6.97852 12.5059 8.32428 12.5059 9.98438C12.5059 11.6445 11.1601 12.9902 9.5 12.9902Z" fill="#C4C4C4"/>
<path d="M5.11077 2.37695L5.30288 1.41645C5.40657 0.897885 5.86568 0.521484 6.39453 0.521484H12.6069C13.1357 0.521484 13.5948 0.897885 13.6985 1.41645L13.8906 2.37695H5.11077Z" fill="#C4C4C4"/>
<path d="M1.66992 3.49023C2.97703 3.49023 16.7184 3.49023 17.3301 3.49023C18.2509 3.49023 19 4.23936 19 5.16016V14.8086C19 15.7294 18.2509 16.4785 17.3301 16.4785H1.66992C0.749126 16.4785 0 15.7294 0 14.8086V5.16016C0 4.23936 0.749126 3.49023 1.66992 3.49023ZM14.25 6.97852H16.0312C16.3387 6.97852 16.5879 6.72929 16.5879 6.42188C16.5879 6.11446 16.3387 5.86523 16.0312 5.86523H14.25C13.9426 5.86523 13.6934 6.11446 13.6934 6.42188C13.6934 6.72929 13.9426 6.97852 14.25 6.97852ZM9.5 14.1035C11.7713 14.1035 13.6191 12.2557 13.6191 9.98438C13.6191 7.71306 11.7713 5.86523 9.5 5.86523C7.22868 5.86523 5.38086 7.71306 5.38086 9.98438C5.38086 12.2557 7.22868 14.1035 9.5 14.1035Z" fill="#C4C4C4"/>
</svg>
