<svg width="37" height="25" viewBox="0 0 37 25" fill="none" xmlns="http://www.w3.org/2000/svg">
<rect x="0.721094" y="0.56875" width="35.8566" height="23.8625" rx="3.9" fill="white" stroke="#323232" stroke-width="0.2"/>
<mask id="path-2-outside-1" maskUnits="userSpaceOnUse" x="-0.378906" y="-0.355225" width="38" height="25" fill="black">
<rect fill="white" x="-0.378906" y="-0.355225" width="38" height="25"/>
<path d="M32.7729 0.644775H4.52584C2.37031 0.646981 0.623365 2.34273 0.621094 4.4351V20.5641C0.623365 22.6565 2.37031 24.3522 4.52584 24.3545H32.7729C34.9285 24.3522 36.6754 22.6565 36.6777 20.5641V4.4351C36.6754 2.34273 34.9285 0.646981 32.7729 0.644775ZM1.78421 6.81098H35.5146V9.15599H1.78421V6.81098ZM4.52584 1.77381H32.7729C34.2862 1.77538 35.513 2.96616 35.5146 4.4351V5.68195H1.78421V4.4351C1.78583 2.96616 3.01256 1.77538 4.52584 1.77381ZM32.7729 23.2254H4.52584C3.01256 23.2238 1.78583 22.0331 1.78421 20.5641V10.285H35.5146V20.5641C35.513 22.0331 34.2862 23.2238 32.7729 23.2254Z"/>
</mask>
<path d="M32.7729 0.644775H4.52584C2.37031 0.646981 0.623365 2.34273 0.621094 4.4351V20.5641C0.623365 22.6565 2.37031 24.3522 4.52584 24.3545H32.7729C34.9285 24.3522 36.6754 22.6565 36.6777 20.5641V4.4351C36.6754 2.34273 34.9285 0.646981 32.7729 0.644775ZM1.78421 6.81098H35.5146V9.15599H1.78421V6.81098ZM4.52584 1.77381H32.7729C34.2862 1.77538 35.513 2.96616 35.5146 4.4351V5.68195H1.78421V4.4351C1.78583 2.96616 3.01256 1.77538 4.52584 1.77381ZM32.7729 23.2254H4.52584C3.01256 23.2238 1.78583 22.0331 1.78421 20.5641V10.285H35.5146V20.5641C35.513 22.0331 34.2862 23.2238 32.7729 23.2254Z" fill="#323232"/>
<path d="M32.7729 0.644775H4.52584C2.37031 0.646981 0.623365 2.34273 0.621094 4.4351V20.5641C0.623365 22.6565 2.37031 24.3522 4.52584 24.3545H32.7729C34.9285 24.3522 36.6754 22.6565 36.6777 20.5641V4.4351C36.6754 2.34273 34.9285 0.646981 32.7729 0.644775ZM1.78421 6.81098H35.5146V9.15599H1.78421V6.81098ZM4.52584 1.77381H32.7729C34.2862 1.77538 35.513 2.96616 35.5146 4.4351V5.68195H1.78421V4.4351C1.78583 2.96616 3.01256 1.77538 4.52584 1.77381ZM32.7729 23.2254H4.52584C3.01256 23.2238 1.78583 22.0331 1.78421 20.5641V10.285H35.5146V20.5641C35.513 22.0331 34.2862 23.2238 32.7729 23.2254Z" stroke="#323232" stroke-width="0.4" mask="url(#path-2-outside-1)"/>
<mask id="path-3-outside-2" maskUnits="userSpaceOnUse" x="21.0039" y="12.4985" width="13" height="9" fill="black">
<rect fill="white" x="21.0039" y="12.4985" width="13" height="9"/>
<path d="M29.2961 13.4989C28.6892 13.4982 28.0908 13.6397 27.5514 13.9106C25.9518 13.1082 23.9917 13.5052 22.8558 14.8616C21.7199 16.2178 21.7199 18.1618 22.8558 19.518C23.9917 20.8744 25.9518 21.2714 27.5514 20.469C28.9524 21.1715 30.6549 20.9617 31.8304 19.9417C33.0061 18.9216 33.4112 17.3031 32.8487 15.8732C32.2863 14.4433 30.873 13.4985 29.2961 13.4989ZM23.1677 17.1896C23.1677 15.7749 24.3493 14.6282 25.8068 14.6282C27.2642 14.6282 28.4458 15.7752 28.4458 17.19C28.4458 18.6047 27.2642 19.7517 25.8068 19.7517C24.3499 19.7501 23.1693 18.6041 23.1677 17.1896ZM29.2961 19.7517C29.0699 19.7514 28.8447 19.7227 28.626 19.6667C29.9371 18.2607 29.9371 16.1189 28.626 14.713C29.6164 14.4603 30.6679 14.7867 31.3235 15.5503C31.979 16.3139 32.1205 17.3768 31.6863 18.2768C31.2517 19.1771 30.3203 19.752 29.2961 19.7517Z"/>
</mask>
<path d="M29.2961 13.4989C28.6892 13.4982 28.0908 13.6397 27.5514 13.9106C25.9518 13.1082 23.9917 13.5052 22.8558 14.8616C21.7199 16.2178 21.7199 18.1618 22.8558 19.518C23.9917 20.8744 25.9518 21.2714 27.5514 20.469C28.9524 21.1715 30.6549 20.9617 31.8304 19.9417C33.0061 18.9216 33.4112 17.3031 32.8487 15.8732C32.2863 14.4433 30.873 13.4985 29.2961 13.4989ZM23.1677 17.1896C23.1677 15.7749 24.3493 14.6282 25.8068 14.6282C27.2642 14.6282 28.4458 15.7752 28.4458 17.19C28.4458 18.6047 27.2642 19.7517 25.8068 19.7517C24.3499 19.7501 23.1693 18.6041 23.1677 17.1896ZM29.2961 19.7517C29.0699 19.7514 28.8447 19.7227 28.626 19.6667C29.9371 18.2607 29.9371 16.1189 28.626 14.713C29.6164 14.4603 30.6679 14.7867 31.3235 15.5503C31.979 16.3139 32.1205 17.3768 31.6863 18.2768C31.2517 19.1771 30.3203 19.752 29.2961 19.7517Z" fill="#323232"/>
<path d="M29.2961 13.4989C28.6892 13.4982 28.0908 13.6397 27.5514 13.9106C25.9518 13.1082 23.9917 13.5052 22.8558 14.8616C21.7199 16.2178 21.7199 18.1618 22.8558 19.518C23.9917 20.8744 25.9518 21.2714 27.5514 20.469C28.9524 21.1715 30.6549 20.9617 31.8304 19.9417C33.0061 18.9216 33.4112 17.3031 32.8487 15.8732C32.2863 14.4433 30.873 13.4985 29.2961 13.4989ZM23.1677 17.1896C23.1677 15.7749 24.3493 14.6282 25.8068 14.6282C27.2642 14.6282 28.4458 15.7752 28.4458 17.19C28.4458 18.6047 27.2642 19.7517 25.8068 19.7517C24.3499 19.7501 23.1693 18.6041 23.1677 17.1896ZM29.2961 19.7517C29.0699 19.7514 28.8447 19.7227 28.626 19.6667C29.9371 18.2607 29.9371 16.1189 28.626 14.713C29.6164 14.4603 30.6679 14.7867 31.3235 15.5503C31.979 16.3139 32.1205 17.3768 31.6863 18.2768C31.2517 19.1771 30.3203 19.752 29.2961 19.7517Z" stroke="#323232" stroke-width="0.4" mask="url(#path-3-outside-2)"/>
</svg>
