<svg width="39" height="29" viewBox="0 0 39 29" fill="none" xmlns="http://www.w3.org/2000/svg">
<path d="M1.10742 13.6551C1.10742 13.6551 8.67991 11.6437 13.1297 8.58618C17.6576 5.60917 22.4197 0.942505 22.4197 0.942505C22.4197 0.942505 25.6204 3.91952 27.5721 6.73561C29.6018 9.63216 30.6167 12.046 30.6167 12.046C30.6167 12.046 26.8695 16.2299 20.5461 19.1264C11.6465 23.1494 6.33791 23.3908 6.33791 23.3908L1.10742 13.6551Z" fill="white" stroke="#323232" stroke-width="1.0911" stroke-miterlimit="10"/>
<path d="M5.40039 13.8161C5.40039 13.8161 13.2071 13.0919 18.1253 10.839C23.0435 8.58618 28.5082 4.80457 28.5082 4.80457C28.5082 4.80457 31.1625 8.26433 32.6457 11.3218C34.2071 14.5402 34.8316 17.0344 34.8316 17.0344C34.8316 17.0344 30.4599 20.5747 23.7461 22.3448C14.3781 24.839 9.06954 24.1954 9.06954 24.1954L5.40039 13.8161Z" fill="white" stroke="#323232" stroke-width="1.0911" stroke-miterlimit="10"/>
<path d="M10.0859 14.4597C10.0859 14.4597 17.8926 15.1839 23.1231 13.8965C28.3536 12.6092 34.3647 9.95398 34.3647 9.95398C34.3647 9.95398 36.3945 13.8965 37.3313 17.1954C38.2681 20.6551 38.4242 23.2298 38.4242 23.2298C38.4242 23.2298 33.506 25.885 26.5581 26.3678C16.8778 27.0114 11.8034 25.4023 11.8034 25.4023L10.0859 14.4597Z" fill="white" stroke="#323232" stroke-width="1.0911" stroke-miterlimit="10"/>
<path d="M15.5488 16.5516L16.7198 24.6781" stroke="#323232" stroke-width="0.7274" stroke-miterlimit="10"/>
<path d="M30.6172 12.6897C30.6172 12.6897 32.9592 16.7127 33.9741 23.3104" stroke="#323232" stroke-width="0.7274" stroke-miterlimit="10"/>
<path d="M17.8916 18.7241L17.4232 18.8045L17.189 17.1149C17.0329 17.2758 16.8767 17.4367 16.6425 17.5172L16.5645 17.1149C16.6425 17.0344 16.7987 16.954 16.8767 16.8735C17.0329 16.7126 17.0329 16.6321 17.1109 16.4712L17.5013 16.3907L17.8916 18.7241Z" fill="#323232"/>
<path d="M18.5164 16.2299C18.7506 16.2299 18.9067 16.2299 19.0628 16.3908C19.219 16.5517 19.3751 16.8735 19.4532 17.3563C19.5312 17.8391 19.4532 18.1609 19.3751 18.3218C19.297 18.4827 19.1409 18.6437 18.9067 18.6437C18.6725 18.6437 18.5164 18.6437 18.3602 18.4827C18.2041 18.3218 18.048 18 18.048 17.5977C17.9699 17.1149 18.048 16.7931 18.126 16.6322C18.126 16.3908 18.3602 16.3103 18.5164 16.2299ZM18.5944 16.6322C18.5164 16.6322 18.5164 16.6322 18.4383 16.7126C18.4383 16.7931 18.3602 16.7931 18.3602 16.954C18.3602 17.1149 18.3602 17.2758 18.4383 17.5172C18.5164 17.7586 18.5164 18 18.5944 18.0804C18.6725 18.1609 18.6725 18.2414 18.7506 18.2414C18.8286 18.2414 18.8286 18.2414 18.9067 18.2414C18.9848 18.2414 18.9848 18.2414 19.0628 18.1609C19.0628 18.0804 19.1409 18.0804 19.1409 17.9195C19.1409 17.7586 19.1409 17.5977 19.0628 17.3563C18.9848 17.1149 18.9848 16.8735 18.9067 16.7931C18.8286 16.7126 18.8286 16.6322 18.7506 16.6322C18.6725 16.6322 18.6725 16.6322 18.5944 16.6322Z" fill="#323232"/>
<path d="M20.2332 16.0688C20.4674 16.0688 20.6235 16.0688 20.7796 16.2298C20.9358 16.3907 21.0919 16.7125 21.17 17.1953C21.248 17.678 21.17 17.9999 21.0919 18.1608C21.0138 18.3217 20.8577 18.4826 20.6235 18.4826C20.3893 18.4826 20.2332 18.4826 20.077 18.3217C19.9209 18.1608 19.7648 17.839 19.7648 17.4367C19.6867 16.9539 19.7648 16.6321 19.8428 16.4711C19.8428 16.1493 19.999 16.0688 20.2332 16.0688ZM20.3112 16.3907C20.2332 16.3907 20.2332 16.3907 20.1551 16.4711C20.1551 16.5516 20.077 16.5516 20.077 16.7125C20.077 16.8734 20.077 17.0344 20.1551 17.2757C20.2332 17.5171 20.2332 17.7585 20.3112 17.839C20.3893 17.9194 20.3893 17.9999 20.4674 17.9999C20.5454 17.9999 20.5454 17.9999 20.6235 17.9999C20.7016 17.9999 20.7016 17.9999 20.7796 17.9194C20.7796 17.839 20.8577 17.839 20.8577 17.678C20.8577 17.5171 20.8577 17.3562 20.7796 17.1148C20.7016 16.8734 20.7016 16.6321 20.6235 16.5516C20.5454 16.4711 20.5454 16.3907 20.4674 16.3907C20.3893 16.3907 20.3112 16.3907 20.3112 16.3907Z" fill="#323232"/>
<path d="M21.9519 15.7471C22.1861 15.7471 22.3422 15.7471 22.4984 15.908C22.6545 16.0689 22.8106 16.3907 22.8887 16.8735C22.9668 17.3563 22.8887 17.6781 22.8106 17.839C22.7326 17.9999 22.5764 18.1609 22.3422 18.1609C22.108 18.1609 21.9519 18.1609 21.7958 17.9999C21.6396 17.839 21.4835 17.5172 21.4835 17.1149C21.4054 16.6321 21.4835 16.3103 21.5616 16.1494C21.5616 15.908 21.7177 15.8275 21.9519 15.7471ZM21.9519 16.1494C21.8738 16.1494 21.8738 16.1494 21.7958 16.2298C21.7958 16.3103 21.7177 16.3103 21.7177 16.4712C21.7177 16.6321 21.7177 16.793 21.7958 17.0344C21.8738 17.2758 21.8738 17.5172 21.9519 17.5976C22.03 17.6781 22.03 17.7586 22.108 17.7586C22.1861 17.7586 22.1861 17.7586 22.2642 17.7586C22.3422 17.7586 22.3422 17.7586 22.4203 17.6781C22.4203 17.5976 22.4984 17.5976 22.4984 17.4367C22.4984 17.2758 22.4984 17.1149 22.4203 16.8735C22.3422 16.6321 22.3422 16.3907 22.2642 16.3103C22.1861 16.2298 22.1861 16.1494 22.108 16.1494C22.108 16.1494 22.03 16.1494 21.9519 16.1494Z" fill="#323232"/>
<path d="M25.543 8.10339C26.4798 9.47121 27.5727 11.4022 27.5727 11.4022" stroke="#323232" stroke-width="0.7274" stroke-miterlimit="10"/>
<path d="M19.5312 4.96545C19.5312 4.96545 21.0926 6.09189 22.1855 7.45971" stroke="#323232" stroke-width="0.7274" stroke-miterlimit="10"/>
</svg>
