<svg width="26" height="26" viewBox="0 0 26 26" fill="none" xmlns="http://www.w3.org/2000/svg">
<path d="M25.2008 11.0001L15.0008 0.80011C14.6008 0.40011 14.0008 0.100098 13.4008 0.100098C12.8008 0.100098 12.2008 0.30011 11.8008 0.80011L1.60078 11.0001C0.700781 11.9001 0.700781 13.4001 1.60078 14.3001C2.00078 14.7001 2.60078 14.9001 3.10078 15.0001H3.20082H3.60078V22.5001C3.60078 24.0001 4.80079 25.2001 6.30079 25.2001H10.3008C10.7008 25.2001 11.0008 24.9001 11.0008 24.5001V18.6001C11.0008 17.9001 11.5008 17.4001 12.2008 17.4001H14.5008C15.2008 17.4001 15.7008 18.0001 15.7008 18.6001V24.5001C15.7008 24.9001 16.0008 25.2001 16.4008 25.2001H20.4008C21.9008 25.2001 23.1008 24.0001 23.1008 22.5001V15.0001H23.5008C24.1008 15.0001 24.7008 14.8001 25.1008 14.3001C26.1008 13.4001 26.1008 11.9001 25.2008 11.0001ZM24.2008 13.2001C24.0008 13.4001 23.8008 13.4001 23.6008 13.4001H22.5008C22.1008 13.4001 21.8008 13.7001 21.8008 14.1001V22.3001C21.8008 23.0001 21.2008 23.5001 20.6008 23.5001H17.3008V18.3001C17.3008 16.8001 16.1008 15.6001 14.6008 15.6001H12.3008C10.8008 15.6001 9.60078 16.8001 9.60078 18.3001V23.5001H6.30079C5.60079 23.5001 5.10078 22.9001 5.10078 22.3001V14.2001C5.10078 13.8001 4.80083 13.5001 4.40083 13.5001H3.30079C3.10079 13.5001 2.90082 13.4001 2.70082 13.3001C2.40082 13.0001 2.40082 12.4001 2.70082 12.1001L12.9008 1.9001C13.1008 1.7001 13.3008 1.7001 13.5008 1.7001C13.7008 1.7001 13.9008 1.8001 14.1008 1.9001L24.3008 12.1001C24.5008 12.4001 24.5008 12.9001 24.2008 13.2001Z" fill="#323232"/>
</svg>
