<svg width="26" height="32" viewBox="0 0 26 32" fill="none" xmlns="http://www.w3.org/2000/svg">
<path d="M13.0188 4.61545C13.5286 4.61545 13.9419 4.20217 13.9419 3.69237C13.9419 3.18256 13.5286 2.76929 13.0188 2.76929C12.509 2.76929 12.0957 3.18256 12.0957 3.69237C12.0957 4.20217 12.509 4.61545 13.0188 4.61545Z" fill="#F76600"/>
<path d="M25.3088 7.38457C25.3088 6.02511 24.2068 4.92302 22.8473 4.92302H19.4301C18.9742 4.41664 18.3887 4.02917 17.7159 3.83563C17.1492 3.67271 16.7131 3.23655 16.5501 2.66986C16.1066 1.12793 14.6856 0 13.001 0C11.3166 0 9.89563 1.12793 9.45225 2.66971C9.28902 3.23709 8.85178 3.67271 8.2844 3.83617C7.61239 4.02987 7.02739 4.41694 6.57193 4.92302H3.15491C1.79536 4.92302 0.693359 6.02511 0.693359 7.38457V29.5385C0.693359 30.8979 1.79536 32 3.15491 32C8.80617 32 15.7517 32 22.8473 32C24.2069 32 25.3089 30.8979 25.3089 29.5385C25.3089 22.5477 25.3088 15.8536 25.3088 7.38457ZM6.84731 7.3648C6.85577 6.2828 7.58685 5.31818 8.62517 5.01895C9.60286 4.73725 10.3542 3.98617 10.6349 3.01001C10.9363 1.96232 11.9093 1.23078 13.001 1.23078C14.0929 1.23078 15.0658 1.96232 15.367 3.01001C15.648 3.98679 16.3988 4.73764 17.3756 5.01849C18.4231 5.3198 19.1548 6.2928 19.1548 7.3845V8.61527H6.84731V7.3648ZM22.8473 30.7692C16.2738 30.7692 9.7111 30.7692 3.15491 30.7692C2.47621 30.7692 1.92413 30.2171 1.92413 29.5385V7.38457C1.92413 6.70596 2.47621 6.1538 3.15491 6.1538H5.82738C5.69431 6.53011 5.61984 6.93403 5.61661 7.35511V9.84612H20.3858V7.38457C20.3858 6.95265 20.3095 6.53911 20.1731 6.1538H22.8473C23.5259 6.1538 24.078 6.70596 24.078 7.38457C24.078 10.9033 24.0779 27.4042 24.0782 29.5385C24.0781 30.2171 23.526 30.7692 22.8473 30.7692Z" fill="#323232"/>
<path d="M18.1163 14.9622L10.7188 22.3596L7.45813 19.0989L6.58789 19.9693L10.7188 24.1002L18.9865 15.8325L18.1163 14.9622Z" fill="#F76600"/>
</svg>
