<svg width="14" height="24" viewBox="0 0 14 24" fill="none" xmlns="http://www.w3.org/2000/svg">
<path d="M11.0774 0H2.96954C1.59113 0 0.419922 1.12393 0.419922 2.50197V21.5009C0.419922 22.8789 1.56635 24 2.94476 24L11.066 23.9912C12.4442 23.9912 13.5718 22.87 13.5718 21.4917L13.5836 2.50063C13.5834 1.11764 12.4614 0 11.0774 0ZM5.85219 1.50004H8.20451C8.41115 1.50004 8.57947 1.66779 8.57947 1.875C8.57947 2.08221 8.41115 2.24996 8.20451 2.24996H5.85219C5.64498 2.24996 5.47723 2.08221 5.47723 1.875C5.47723 1.66779 5.64498 1.50004 5.85219 1.50004ZM4.4387 1.61937C4.57766 1.48059 4.83063 1.47869 4.9694 1.61937C5.03898 1.68876 5.08015 1.78617 5.08015 1.88567C5.08015 1.98327 5.03898 2.08049 4.9694 2.15007C4.9002 2.21965 4.80241 2.26063 4.705 2.26063C4.60569 2.26063 4.51018 2.21965 4.4387 2.15007C4.3695 2.08068 4.33004 1.98327 4.33004 1.88567C4.32985 1.78617 4.3695 1.68876 4.4387 1.61937ZM6.95267 23.2567C6.3339 23.2567 5.83065 22.7531 5.83065 22.1345C5.83065 21.5158 6.3339 21.0123 6.95267 21.0123C7.57144 21.0123 8.0747 21.5158 8.0747 22.1345C8.0747 22.7531 7.57125 23.2567 6.95267 23.2567ZM12.4196 20.2496H1.73238V3.56261H12.4196V20.2496Z" fill="#C4C4C4"/>
</svg>
