<svg width="14" height="18" viewBox="0 0 14 18" fill="none" xmlns="http://www.w3.org/2000/svg">
<path d="M12.3301 3.08241C11.2377 1.19719 9.29733 0.0454395 7.13962 0.00142383C7.04751 -0.000474609 6.9548 -0.000474609 6.86266 0.00142383C4.70498 0.0454395 2.76464 1.19719 1.67219 3.08241C0.555557 5.0094 0.525007 7.32408 1.59045 9.27424L6.054 17.4441C6.056 17.4477 6.058 17.4513 6.06008 17.4549C6.25646 17.7963 6.60827 18 7.00121 18C7.39412 18 7.74592 17.7962 7.94227 17.4549C7.94435 17.4513 7.94635 17.4477 7.94835 17.4441L12.4119 9.27424C13.4773 7.32408 13.4467 5.0094 12.3301 3.08241ZM7.00114 8.15627C5.6054 8.15627 4.46989 7.02076 4.46989 5.62502C4.46989 4.22928 5.6054 3.09377 7.00114 3.09377C8.39688 3.09377 9.53239 4.22928 9.53239 5.62502C9.53239 7.02076 8.39691 8.15627 7.00114 8.15627Z" fill="#C4C4C4"/>
</svg>
