<svg width="24" height="23" viewBox="0 0 24 23" fill="none" xmlns="http://www.w3.org/2000/svg">
<path d="M10.5005 1.8L1.00051 18.3C0.500514 19.3 1.10051 20.4 2.20051 20.4H21.2005C22.3005 20.4 23.0005 19.2 22.4005 18.3L13.0005 1.8C12.5005 0.9 11.1005 0.9 10.5005 1.8Z" stroke="#F76600" stroke-width="1.4278" stroke-miterlimit="10"/>
<path d="M12.7707 14.3844H10.8145L10.4056 6.55158H13.1796L12.7707 14.3844ZM10.3736 17.1262C10.3736 16.6773 10.4938 16.3379 10.7343 16.1081C10.9748 15.8782 11.3249 15.7633 11.7846 15.7633C12.2282 15.7633 12.5703 15.8809 12.8108 16.1161C13.0566 16.3513 13.1796 16.688 13.1796 17.1262C13.1796 17.5485 13.0566 17.8825 12.8108 18.1284C12.5649 18.3689 12.2229 18.4892 11.7846 18.4892C11.3356 18.4892 10.9882 18.3716 10.7423 18.1364C10.4965 17.8959 10.3736 17.5592 10.3736 17.1262Z" fill="#F76600"/>
</svg>
