<svg width="29" height="29" viewBox="0 0 29 29" fill="none" xmlns="http://www.w3.org/2000/svg">
<path d="M11.8154 11.6631V11.5131H11.6654H8.82848C8.38893 11.5131 8.03281 11.157 8.03281 10.7174C8.03281 10.2778 8.38893 9.92173 8.82848 9.92173H12.6111C13.0507 9.92173 13.4068 10.2778 13.4068 10.7174V14.5C13.4068 14.9396 13.0507 15.2957 12.6111 15.2957H9.77416H9.62416V15.4457V17.337V17.487H9.77416H12.6111C13.0507 17.487 13.4068 17.8431 13.4068 18.2827C13.4068 18.7222 13.0507 19.0783 12.6111 19.0783H8.82848C8.38893 19.0783 8.03281 18.7222 8.03281 18.2827V14.5C8.03281 14.0605 8.38893 13.7044 8.82848 13.7044H11.6654H11.8154V13.5544V11.6631Z" fill="#323232" stroke="white" stroke-width="0.3"/>
<path d="M5.839 14.5001C5.839 14.9395 5.48277 15.2958 5.04333 15.2958C4.60389 15.2958 4.24766 14.9395 4.24766 14.5001C4.24766 14.0607 4.60389 13.7044 5.04333 13.7044C5.48277 13.7044 5.839 14.0607 5.839 14.5001Z" fill="#323232" stroke="white" stroke-width="0.3"/>
<path d="M24.7531 14.5001C24.7531 14.9395 24.3968 15.2958 23.9574 15.2958C23.518 15.2958 23.1617 14.9395 23.1617 14.5001C23.1617 14.0607 23.518 13.7044 23.9574 13.7044C24.3968 13.7044 24.7531 14.0607 24.7531 14.5001Z" fill="#323232" stroke="white" stroke-width="0.3"/>
<path d="M15.296 23.9567C15.296 24.3961 14.9398 24.7523 14.5004 24.7523C14.0609 24.7523 13.7047 24.3961 13.7047 23.9567C13.7047 23.5172 14.0609 23.161 14.5004 23.161C14.9398 23.161 15.296 23.5172 15.296 23.9567Z" fill="#323232" stroke="white" stroke-width="0.3"/>
<path d="M15.296 5.04357C15.296 5.48301 14.9398 5.83924 14.5004 5.83924C14.0609 5.83924 13.7047 5.48301 13.7047 5.04357C13.7047 4.60413 14.0609 4.2479 14.5004 4.2479C14.9398 4.2479 15.296 4.60413 15.296 5.04357Z" fill="#323232" stroke="white" stroke-width="0.3"/>
<path d="M19.2279 13.7044H19.3779V13.5544V10.7174C19.3779 10.2778 19.7341 9.92173 20.1736 9.92173C20.6132 9.92173 20.9693 10.2779 20.9693 10.7173V18.2826C20.9693 18.7222 20.6132 19.0783 20.1736 19.0783C19.7341 19.0783 19.3779 18.7222 19.3779 18.2826V15.4456V15.2956H19.2279H16.391C15.9514 15.2956 15.5953 14.9395 15.5953 14.5V10.7174C15.5953 10.2778 15.9514 9.92173 16.391 9.92173C16.8305 9.92173 17.1867 10.2778 17.1867 10.7174V13.5544V13.7044H17.3367H19.2279Z" fill="#323232" stroke="white" stroke-width="0.3"/>
<path d="M25.5348 7.56503V7.41503C25.5318 7.41503 25.529 7.41512 25.5265 7.41526H19.8587C19.4192 7.41526 19.063 7.05914 19.063 6.61959C19.063 6.18004 19.4192 5.82392 19.8587 5.82392H23.4953H23.8533L23.6023 5.56873C21.2203 3.14714 17.9418 1.74129 14.5 1.74129C7.46486 1.74129 1.74129 7.46486 1.74129 14.5C1.74129 21.5351 7.4648 27.2587 14.4999 27.2587C21.5351 27.2587 27.2587 21.5351 27.2587 14.5C27.2587 14.0605 27.6151 13.7043 28.0543 13.7043C28.4936 13.7043 28.85 14.0605 28.85 14.5C28.85 22.4124 22.4124 28.85 14.5 28.85C6.58762 28.85 0.15 22.4124 0.15 14.5C0.15 6.58762 6.58762 0.15 14.5 0.15C18.2474 0.15 21.8272 1.62807 24.4827 4.19426L24.737 4.43995V4.08639V0.945672C24.737 0.506118 25.0931 0.15 25.5326 0.15C25.9719 0.15 26.3283 0.506142 26.3283 0.945672V6.61965C26.3283 7.04135 25.9807 7.41361 25.5343 7.41504L25.5348 7.56503ZM25.5348 7.56503C26.0668 7.56334 26.4783 7.12109 26.4783 6.61965V0.945672C26.4782 0.423275 26.0547 0 25.5326 0C25.0102 0 24.587 0.423275 24.587 0.945672V3.87879M25.5348 7.56503L25.5326 7.56526H19.8587C19.3363 7.56526 18.913 7.14199 18.913 6.61959C18.913 6.09719 19.3363 5.67392 19.8587 5.67392H23.2837C23.3188 5.70876 23.3537 5.74382 23.3884 5.77911L23.4953 5.67392V5.52392H23.3453C21.0044 3.22257 17.8292 1.89129 14.5 1.89129C7.5477 1.89129 1.89129 7.5477 1.89129 14.5C1.89129 21.4523 7.54765 27.1087 14.4999 27.1087C21.4522 27.1087 27.1087 21.4523 27.1087 14.5C27.1087 13.9776 27.5323 13.5543 28.0543 13.5543C28.5764 13.5543 29 13.9776 29 14.5C29 22.4952 22.4952 29 14.5 29C6.50478 29 0 22.4952 0 14.5C0 6.50478 6.50478 0 14.5 0C18.2168 0 21.7699 1.43876 24.437 3.9435L24.587 3.87879M24.587 3.87879C24.6219 3.91185 24.6566 3.9451 24.6912 3.97853L24.587 4.08639V3.87879Z" fill="#323232" stroke="white" stroke-width="0.3"/>
</svg>
