<svg width="33" height="23" viewBox="0 0 33 23" fill="none" xmlns="http://www.w3.org/2000/svg">
<rect x="1.05664" y="0.84375" width="31.6415" height="21.3125" rx="4" fill="white"/>
<mask id="path-2-outside-1" maskUnits="userSpaceOnUse" x="0.0566406" y="0" width="33" height="23" fill="black">
<rect fill="white" x="0.0566406" width="33" height="23"/>
<path d="M29.2715 1H4.48326C2.59167 1.00195 1.05863 2.50391 1.05664 4.35714V18.6429C1.05863 20.4961 2.59167 21.998 4.48326 22H29.2715C31.1631 21.998 32.6962 20.4961 32.6981 18.6429V4.35714C32.6962 2.50391 31.1631 1.00195 29.2715 1ZM2.07733 6.4615H31.6775V8.5385H2.07733V6.4615ZM4.48326 2H29.2715C30.5995 2.0014 31.676 3.05608 31.6775 4.35714V5.4615H2.07733V4.35714C2.07876 3.05608 3.15527 2.0014 4.48326 2ZM29.2715 21H4.48326C3.15527 20.9986 2.07876 19.9439 2.07733 18.6429V9.5385H31.6775V18.6429C31.676 19.9439 30.5995 20.9986 29.2715 21Z"/>
</mask>
<path d="M29.2715 1H4.48326C2.59167 1.00195 1.05863 2.50391 1.05664 4.35714V18.6429C1.05863 20.4961 2.59167 21.998 4.48326 22H29.2715C31.1631 21.998 32.6962 20.4961 32.6981 18.6429V4.35714C32.6962 2.50391 31.1631 1.00195 29.2715 1ZM2.07733 6.4615H31.6775V8.5385H2.07733V6.4615ZM4.48326 2H29.2715C30.5995 2.0014 31.676 3.05608 31.6775 4.35714V5.4615H2.07733V4.35714C2.07876 3.05608 3.15527 2.0014 4.48326 2ZM29.2715 21H4.48326C3.15527 20.9986 2.07876 19.9439 2.07733 18.6429V9.5385H31.6775V18.6429C31.676 19.9439 30.5995 20.9986 29.2715 21Z" fill="#323232"/>
<path d="M29.2715 1H4.48326C2.59167 1.00195 1.05863 2.50391 1.05664 4.35714V18.6429C1.05863 20.4961 2.59167 21.998 4.48326 22H29.2715C31.1631 21.998 32.6962 20.4961 32.6981 18.6429V4.35714C32.6962 2.50391 31.1631 1.00195 29.2715 1ZM2.07733 6.4615H31.6775V8.5385H2.07733V6.4615ZM4.48326 2H29.2715C30.5995 2.0014 31.676 3.05608 31.6775 4.35714V5.4615H2.07733V4.35714C2.07876 3.05608 3.15527 2.0014 4.48326 2ZM29.2715 21H4.48326C3.15527 20.9986 2.07876 19.9439 2.07733 18.6429V9.5385H31.6775V18.6429C31.676 19.9439 30.5995 20.9986 29.2715 21Z" stroke="#323232" stroke-width="0.4" mask="url(#path-2-outside-1)"/>
<mask id="path-3-outside-2" maskUnits="userSpaceOnUse" x="18.8223" y="11.3848" width="11" height="8" fill="black">
<rect fill="white" x="18.8223" y="11.3848" width="11" height="8"/>
<path d="M26.2215 12.3851C25.689 12.3845 25.1638 12.5098 24.6905 12.7497C23.2868 12.0391 21.5666 12.3906 20.5698 13.5921C19.5731 14.7933 19.5731 16.5151 20.5698 17.7163C21.5666 18.9177 23.2868 19.2693 24.6905 18.5586C25.92 19.1808 27.414 18.995 28.4455 18.0915C29.4773 17.1881 29.8327 15.7545 29.3392 14.488C28.8456 13.2216 27.6054 12.3848 26.2215 12.3851ZM20.8435 15.654C20.8435 14.401 21.8805 13.3853 23.1595 13.3853C24.4385 13.3853 25.4754 14.4012 25.4754 15.6543C25.4754 16.9074 24.4385 17.9233 23.1595 17.9233C21.881 17.9219 20.845 16.9068 20.8435 15.654ZM26.2215 17.9233C26.023 17.923 25.8254 17.8976 25.6335 17.848C26.784 16.6027 26.784 14.7056 25.6335 13.4604C26.5026 13.2366 27.4254 13.5257 28.0006 14.202C28.5759 14.8784 28.7001 15.8198 28.319 16.6169C27.9377 17.4144 27.1204 17.9236 26.2215 17.9233Z"/>
</mask>
<path d="M26.2215 12.3851C25.689 12.3845 25.1638 12.5098 24.6905 12.7497C23.2868 12.0391 21.5666 12.3906 20.5698 13.5921C19.5731 14.7933 19.5731 16.5151 20.5698 17.7163C21.5666 18.9177 23.2868 19.2693 24.6905 18.5586C25.92 19.1808 27.414 18.995 28.4455 18.0915C29.4773 17.1881 29.8327 15.7545 29.3392 14.488C28.8456 13.2216 27.6054 12.3848 26.2215 12.3851ZM20.8435 15.654C20.8435 14.401 21.8805 13.3853 23.1595 13.3853C24.4385 13.3853 25.4754 14.4012 25.4754 15.6543C25.4754 16.9074 24.4385 17.9233 23.1595 17.9233C21.881 17.9219 20.845 16.9068 20.8435 15.654ZM26.2215 17.9233C26.023 17.923 25.8254 17.8976 25.6335 17.848C26.784 16.6027 26.784 14.7056 25.6335 13.4604C26.5026 13.2366 27.4254 13.5257 28.0006 14.202C28.5759 14.8784 28.7001 15.8198 28.319 16.6169C27.9377 17.4144 27.1204 17.9236 26.2215 17.9233Z" fill="#323232"/>
<path d="M26.2215 12.3851C25.689 12.3845 25.1638 12.5098 24.6905 12.7497C23.2868 12.0391 21.5666 12.3906 20.5698 13.5921C19.5731 14.7933 19.5731 16.5151 20.5698 17.7163C21.5666 18.9177 23.2868 19.2693 24.6905 18.5586C25.92 19.1808 27.414 18.995 28.4455 18.0915C29.4773 17.1881 29.8327 15.7545 29.3392 14.488C28.8456 13.2216 27.6054 12.3848 26.2215 12.3851ZM20.8435 15.654C20.8435 14.401 21.8805 13.3853 23.1595 13.3853C24.4385 13.3853 25.4754 14.4012 25.4754 15.6543C25.4754 16.9074 24.4385 17.9233 23.1595 17.9233C21.881 17.9219 20.845 16.9068 20.8435 15.654ZM26.2215 17.9233C26.023 17.923 25.8254 17.8976 25.6335 17.848C26.784 16.6027 26.784 14.7056 25.6335 13.4604C26.5026 13.2366 27.4254 13.5257 28.0006 14.202C28.5759 14.8784 28.7001 15.8198 28.319 16.6169C27.9377 17.4144 27.1204 17.9236 26.2215 17.9233Z" stroke="#323232" stroke-width="0.4" mask="url(#path-3-outside-2)"/>
</svg>
