<svg width="37" height="34" viewBox="0 0 37 34" fill="none" xmlns="http://www.w3.org/2000/svg">
<mask id="path-1-outside-1" maskUnits="userSpaceOnUse" x="-0.394531" y="-0.399902" width="19" height="23" fill="black">
<rect fill="white" x="-0.394531" y="-0.399902" width="19" height="23"/>
<path d="M15.8796 16.0401L12.322 14.3208C11.9864 14.1584 11.7779 13.8323 11.7779 13.4694V12.2522C11.8632 12.1514 11.9529 12.0366 12.0456 11.9099C12.5071 11.2799 12.8769 10.5786 13.1458 9.82222C13.6712 9.5893 14.0124 9.0871 14.0124 8.5201V7.0801C14.0124 6.73342 13.8783 6.39754 13.6399 6.1351V4.22026C13.6608 4.02226 13.7427 2.84362 12.8609 1.87126C12.0959 1.02778 10.8547 0.600098 9.17099 0.600098C7.4873 0.600098 6.24605 1.02778 5.48111 1.8709C4.59923 2.84326 4.68116 4.02226 4.70202 4.22026V6.1351C4.46368 6.39754 4.32961 6.73342 4.32961 7.0801V8.5201C4.32961 8.95822 4.53555 9.36682 4.88711 9.63934C5.22824 10.9451 5.94216 11.9289 6.19168 12.2447V13.4359C6.19168 13.7844 5.99504 14.1041 5.67886 14.2711L2.35656 16.0229C1.27619 16.5927 0.605469 17.685 0.605469 18.8744V20.0401C0.605469 21.7487 6.20843 22.2001 9.17099 22.2001C12.1335 22.2001 17.7365 21.7487 17.7365 20.0401V18.9446C17.7365 17.7069 17.0248 16.5938 15.8796 16.0401ZM16.9917 20.0401C16.9917 20.5286 14.2313 21.4801 9.17099 21.4801C4.11063 21.4801 1.3503 20.5286 1.3503 20.0401V18.8744C1.3503 17.9489 1.87242 17.0982 2.71296 16.6554L6.03526 14.9036C6.59128 14.6102 6.9365 14.0475 6.9365 13.4359V11.9891L6.84973 11.889C6.84079 11.8785 5.92801 10.8111 5.5798 9.34558L5.54591 9.20302L5.41892 9.12382C5.20329 8.98918 5.07443 8.76346 5.07443 8.5201V7.0801C5.07443 6.87814 5.16307 6.68986 5.32395 6.5491L5.44685 6.44218V4.2001L5.4435 4.15294C5.44238 4.14322 5.31576 3.1453 6.04122 2.34538C6.65831 1.66498 7.7115 1.3201 9.17099 1.3201C10.6253 1.3201 11.6762 1.66246 12.294 2.33818C13.0191 3.13054 12.8992 4.1443 12.8985 4.15294L12.8951 6.44218L13.018 6.54946C13.1789 6.68986 13.2675 6.87814 13.2675 7.0801V8.5201C13.2675 8.83438 13.0545 9.10942 12.738 9.20374L12.5525 9.25882L12.4929 9.43702C12.2438 10.1862 11.8889 10.8781 11.4375 11.4937C11.3269 11.6453 11.2193 11.7795 11.1258 11.8821L11.0331 11.9844V13.4694C11.0331 14.1066 11.3991 14.6793 11.9887 14.9645L15.5463 16.6838C16.4379 17.1147 16.9917 17.9809 16.9917 18.9446V20.0401Z"/>
</mask>
<path d="M15.8796 16.0401L12.322 14.3208C11.9864 14.1584 11.7779 13.8323 11.7779 13.4694V12.2522C11.8632 12.1514 11.9529 12.0366 12.0456 11.9099C12.5071 11.2799 12.8769 10.5786 13.1458 9.82222C13.6712 9.5893 14.0124 9.0871 14.0124 8.5201V7.0801C14.0124 6.73342 13.8783 6.39754 13.6399 6.1351V4.22026C13.6608 4.02226 13.7427 2.84362 12.8609 1.87126C12.0959 1.02778 10.8547 0.600098 9.17099 0.600098C7.4873 0.600098 6.24605 1.02778 5.48111 1.8709C4.59923 2.84326 4.68116 4.02226 4.70202 4.22026V6.1351C4.46368 6.39754 4.32961 6.73342 4.32961 7.0801V8.5201C4.32961 8.95822 4.53555 9.36682 4.88711 9.63934C5.22824 10.9451 5.94216 11.9289 6.19168 12.2447V13.4359C6.19168 13.7844 5.99504 14.1041 5.67886 14.2711L2.35656 16.0229C1.27619 16.5927 0.605469 17.685 0.605469 18.8744V20.0401C0.605469 21.7487 6.20843 22.2001 9.17099 22.2001C12.1335 22.2001 17.7365 21.7487 17.7365 20.0401V18.9446C17.7365 17.7069 17.0248 16.5938 15.8796 16.0401ZM16.9917 20.0401C16.9917 20.5286 14.2313 21.4801 9.17099 21.4801C4.11063 21.4801 1.3503 20.5286 1.3503 20.0401V18.8744C1.3503 17.9489 1.87242 17.0982 2.71296 16.6554L6.03526 14.9036C6.59128 14.6102 6.9365 14.0475 6.9365 13.4359V11.9891L6.84973 11.889C6.84079 11.8785 5.92801 10.8111 5.5798 9.34558L5.54591 9.20302L5.41892 9.12382C5.20329 8.98918 5.07443 8.76346 5.07443 8.5201V7.0801C5.07443 6.87814 5.16307 6.68986 5.32395 6.5491L5.44685 6.44218V4.2001L5.4435 4.15294C5.44238 4.14322 5.31576 3.1453 6.04122 2.34538C6.65831 1.66498 7.7115 1.3201 9.17099 1.3201C10.6253 1.3201 11.6762 1.66246 12.294 2.33818C13.0191 3.13054 12.8992 4.1443 12.8985 4.15294L12.8951 6.44218L13.018 6.54946C13.1789 6.68986 13.2675 6.87814 13.2675 7.0801V8.5201C13.2675 8.83438 13.0545 9.10942 12.738 9.20374L12.5525 9.25882L12.4929 9.43702C12.2438 10.1862 11.8889 10.8781 11.4375 11.4937C11.3269 11.6453 11.2193 11.7795 11.1258 11.8821L11.0331 11.9844V13.4694C11.0331 14.1066 11.3991 14.6793 11.9887 14.9645L15.5463 16.6838C16.4379 17.1147 16.9917 17.9809 16.9917 18.9446V20.0401Z" fill="#323232"/>
<path d="M15.8796 16.0401L12.322 14.3208C11.9864 14.1584 11.7779 13.8323 11.7779 13.4694V12.2522C11.8632 12.1514 11.9529 12.0366 12.0456 11.9099C12.5071 11.2799 12.8769 10.5786 13.1458 9.82222C13.6712 9.5893 14.0124 9.0871 14.0124 8.5201V7.0801C14.0124 6.73342 13.8783 6.39754 13.6399 6.1351V4.22026C13.6608 4.02226 13.7427 2.84362 12.8609 1.87126C12.0959 1.02778 10.8547 0.600098 9.17099 0.600098C7.4873 0.600098 6.24605 1.02778 5.48111 1.8709C4.59923 2.84326 4.68116 4.02226 4.70202 4.22026V6.1351C4.46368 6.39754 4.32961 6.73342 4.32961 7.0801V8.5201C4.32961 8.95822 4.53555 9.36682 4.88711 9.63934C5.22824 10.9451 5.94216 11.9289 6.19168 12.2447V13.4359C6.19168 13.7844 5.99504 14.1041 5.67886 14.2711L2.35656 16.0229C1.27619 16.5927 0.605469 17.685 0.605469 18.8744V20.0401C0.605469 21.7487 6.20843 22.2001 9.17099 22.2001C12.1335 22.2001 17.7365 21.7487 17.7365 20.0401V18.9446C17.7365 17.7069 17.0248 16.5938 15.8796 16.0401ZM16.9917 20.0401C16.9917 20.5286 14.2313 21.4801 9.17099 21.4801C4.11063 21.4801 1.3503 20.5286 1.3503 20.0401V18.8744C1.3503 17.9489 1.87242 17.0982 2.71296 16.6554L6.03526 14.9036C6.59128 14.6102 6.9365 14.0475 6.9365 13.4359V11.9891L6.84973 11.889C6.84079 11.8785 5.92801 10.8111 5.5798 9.34558L5.54591 9.20302L5.41892 9.12382C5.20329 8.98918 5.07443 8.76346 5.07443 8.5201V7.0801C5.07443 6.87814 5.16307 6.68986 5.32395 6.5491L5.44685 6.44218V4.2001L5.4435 4.15294C5.44238 4.14322 5.31576 3.1453 6.04122 2.34538C6.65831 1.66498 7.7115 1.3201 9.17099 1.3201C10.6253 1.3201 11.6762 1.66246 12.294 2.33818C13.0191 3.13054 12.8992 4.1443 12.8985 4.15294L12.8951 6.44218L13.018 6.54946C13.1789 6.68986 13.2675 6.87814 13.2675 7.0801V8.5201C13.2675 8.83438 13.0545 9.10942 12.738 9.20374L12.5525 9.25882L12.4929 9.43702C12.2438 10.1862 11.8889 10.8781 11.4375 11.4937C11.3269 11.6453 11.2193 11.7795 11.1258 11.8821L11.0331 11.9844V13.4694C11.0331 14.1066 11.3991 14.6793 11.9887 14.9645L15.5463 16.6838C16.4379 17.1147 16.9917 17.9809 16.9917 18.9446V20.0401Z" stroke="#323232" stroke-width="0.6" mask="url(#path-1-outside-1)"/>
<g clip-path="url(#clip0)">
<rect x="14" y="14.5938" width="23" height="15.8125" rx="4" fill="white"/>
<mask id="path-3-outside-2" maskUnits="userSpaceOnUse" x="13" y="13.7095" width="25" height="17" fill="black">
<rect fill="white" x="13" y="13.7095" width="25" height="17"/>
<path d="M34.5092 14.7095H16.4908C15.1158 14.7109 14.0014 15.8253 14 17.2003V27.7993C14.0014 29.1743 15.1158 30.2887 16.4908 30.2901H34.5092C35.8842 30.2887 36.9986 29.1743 37 27.7993V17.2003C36.9986 15.8253 35.8842 14.7109 34.5092 14.7095ZM14.7419 18.7616H36.2581V20.3026H14.7419V18.7616ZM16.4908 15.4514H34.5092C35.4745 15.4524 36.257 16.235 36.2581 17.2003V18.0196H14.7419V17.2003C14.743 16.235 15.5255 15.4524 16.4908 15.4514ZM34.5092 29.5482H16.4908C15.5255 29.5472 14.743 28.7646 14.7419 27.7993V21.0445H36.2581V27.7993C36.257 28.7646 35.4745 29.5472 34.5092 29.5482Z"/>
</mask>
<path d="M34.5092 14.7095H16.4908C15.1158 14.7109 14.0014 15.8253 14 17.2003V27.7993C14.0014 29.1743 15.1158 30.2887 16.4908 30.2901H34.5092C35.8842 30.2887 36.9986 29.1743 37 27.7993V17.2003C36.9986 15.8253 35.8842 14.7109 34.5092 14.7095ZM14.7419 18.7616H36.2581V20.3026H14.7419V18.7616ZM16.4908 15.4514H34.5092C35.4745 15.4524 36.257 16.235 36.2581 17.2003V18.0196H14.7419V17.2003C14.743 16.235 15.5255 15.4524 16.4908 15.4514ZM34.5092 29.5482H16.4908C15.5255 29.5472 14.743 28.7646 14.7419 27.7993V21.0445H36.2581V27.7993C36.257 28.7646 35.4745 29.5472 34.5092 29.5482Z" fill="#323232"/>
<path d="M34.5092 14.7095H16.4908C15.1158 14.7109 14.0014 15.8253 14 17.2003V27.7993C14.0014 29.1743 15.1158 30.2887 16.4908 30.2901H34.5092C35.8842 30.2887 36.9986 29.1743 37 27.7993V17.2003C36.9986 15.8253 35.8842 14.7109 34.5092 14.7095ZM14.7419 18.7616H36.2581V20.3026H14.7419V18.7616ZM16.4908 15.4514H34.5092C35.4745 15.4524 36.257 16.235 36.2581 17.2003V18.0196H14.7419V17.2003C14.743 16.235 15.5255 15.4524 16.4908 15.4514ZM34.5092 29.5482H16.4908C15.5255 29.5472 14.743 28.7646 14.7419 27.7993V21.0445H36.2581V27.7993C36.257 28.7646 35.4745 29.5472 34.5092 29.5482Z" stroke="#323232" stroke-width="0.6" mask="url(#path-3-outside-2)"/>
<mask id="path-4-outside-3" maskUnits="userSpaceOnUse" x="26.6406" y="22.1562" width="9" height="7" fill="black">
<rect fill="white" x="26.6406" y="22.1562" width="9" height="7"/>
<path d="M32.2922 23.1565C31.9051 23.1561 31.5234 23.249 31.1793 23.427C30.1589 22.8998 28.9086 23.1606 28.184 24.052C27.4595 24.9432 27.4595 26.2207 28.184 27.1119C28.9086 28.0033 30.1589 28.2641 31.1793 27.7368C32.073 28.1985 33.159 28.0606 33.9088 27.3903C34.6588 26.72 34.9172 25.6564 34.5584 24.7167C34.1996 23.7771 33.2981 23.1563 32.2922 23.1565ZM28.383 25.5818C28.383 24.6521 29.1367 23.8986 30.0664 23.8986C30.9961 23.8986 31.7498 24.6523 31.7498 25.582C31.7498 26.5117 30.9961 27.2655 30.0664 27.2655C29.1371 27.2644 28.384 26.5113 28.383 25.5818ZM32.2922 27.2655C32.1479 27.2653 32.0043 27.2464 31.8647 27.2096C32.7011 26.2857 32.7011 24.8782 31.8647 23.9543C32.4965 23.7883 33.1673 24.0027 33.5854 24.5045C34.0036 25.0063 34.0939 25.7048 33.8169 26.2962C33.5397 26.8879 32.9456 27.2657 32.2922 27.2655Z"/>
</mask>
<path d="M32.2922 23.1565C31.9051 23.1561 31.5234 23.249 31.1793 23.427C30.1589 22.8998 28.9086 23.1606 28.184 24.052C27.4595 24.9432 27.4595 26.2207 28.184 27.1119C28.9086 28.0033 30.1589 28.2641 31.1793 27.7368C32.073 28.1985 33.159 28.0606 33.9088 27.3903C34.6588 26.72 34.9172 25.6564 34.5584 24.7167C34.1996 23.7771 33.2981 23.1563 32.2922 23.1565ZM28.383 25.5818C28.383 24.6521 29.1367 23.8986 30.0664 23.8986C30.9961 23.8986 31.7498 24.6523 31.7498 25.582C31.7498 26.5117 30.9961 27.2655 30.0664 27.2655C29.1371 27.2644 28.384 26.5113 28.383 25.5818ZM32.2922 27.2655C32.1479 27.2653 32.0043 27.2464 31.8647 27.2096C32.7011 26.2857 32.7011 24.8782 31.8647 23.9543C32.4965 23.7883 33.1673 24.0027 33.5854 24.5045C34.0036 25.0063 34.0939 25.7048 33.8169 26.2962C33.5397 26.8879 32.9456 27.2657 32.2922 27.2655Z" fill="#323232"/>
<path d="M32.2922 23.1565C31.9051 23.1561 31.5234 23.249 31.1793 23.427C30.1589 22.8998 28.9086 23.1606 28.184 24.052C27.4595 24.9432 27.4595 26.2207 28.184 27.1119C28.9086 28.0033 30.1589 28.2641 31.1793 27.7368C32.073 28.1985 33.159 28.0606 33.9088 27.3903C34.6588 26.72 34.9172 25.6564 34.5584 24.7167C34.1996 23.7771 33.2981 23.1563 32.2922 23.1565ZM28.383 25.5818C28.383 24.6521 29.1367 23.8986 30.0664 23.8986C30.9961 23.8986 31.7498 24.6523 31.7498 25.582C31.7498 26.5117 30.9961 27.2655 30.0664 27.2655C29.1371 27.2644 28.384 26.5113 28.383 25.5818ZM32.2922 27.2655C32.1479 27.2653 32.0043 27.2464 31.8647 27.2096C32.7011 26.2857 32.7011 24.8782 31.8647 23.9543C32.4965 23.7883 33.1673 24.0027 33.5854 24.5045C34.0036 25.0063 34.0939 25.7048 33.8169 26.2962C33.5397 26.8879 32.9456 27.2657 32.2922 27.2655Z" stroke="#323232" stroke-width="0.6" mask="url(#path-4-outside-3)"/>
</g>
<defs>
<clipPath id="clip0">
<rect width="23" height="23" fill="white" transform="translate(14 11)"/>
</clipPath>
</defs>
</svg>
