<svg width="32" height="22" viewBox="0 0 32 22" fill="none" xmlns="http://www.w3.org/2000/svg">
<path d="M28.6667 0.333252H3.33331C1.496 0.333252 0 1.82925 0 3.66663V18.3333C0 20.1706 1.496 21.6666 3.33331 21.6666H28.6666C30.5039 21.6666 31.9999 20.1706 31.9999 18.3333V3.66663C32 1.82925 30.504 0.333252 28.6667 0.333252ZM30.6667 18.3333C30.6667 19.4359 29.7694 20.3333 28.6667 20.3333H3.33331C2.23063 20.3333 1.33331 19.4359 1.33331 18.3333V3.66663C1.33331 2.56394 2.23063 1.66663 3.33331 1.66663H28.6666C29.7693 1.66663 30.6666 2.56394 30.6666 3.66663V18.3333H30.6667Z" fill="#323232"/>
<path d="M31.3333 4.33325H0.666687C0.298687 4.33325 0 4.63194 0 4.99994V8.99994C0 9.36794 0.298687 9.66663 0.666687 9.66663H31.3334C31.7014 9.66663 32.0001 9.36794 32.0001 8.99994V4.99994C32 4.63194 31.7013 4.33325 31.3333 4.33325ZM30.6667 8.33325H1.33331V5.66656H30.6666V8.33325H30.6667Z" fill="#323232"/>
<path d="M12.6667 13.6667H4.66669C4.29869 13.6667 4 13.9654 4 14.3334C4 14.7014 4.29869 15.0001 4.66669 15.0001H12.6667C13.0347 15.0001 13.3334 14.7014 13.3334 14.3334C13.3334 13.9654 13.0347 13.6667 12.6667 13.6667Z" fill="#323232"/>
<path d="M12.6667 16.3333H4.66669C4.29869 16.3333 4 16.6319 4 16.9999C4 17.3679 4.29869 17.6666 4.66669 17.6666H12.6667C13.0347 17.6666 13.3334 17.3679 13.3334 16.9999C13.3333 16.6319 13.0347 16.3333 12.6667 16.3333Z" fill="#323232"/>
<path d="M26.0013 12.3333H24.668C23.5653 12.3333 22.668 13.2306 22.668 14.3333V15.6666C22.668 16.7693 23.5653 17.6666 24.668 17.6666H26.0013C27.104 17.6666 28.0013 16.7693 28.0013 15.6666V14.3333C28.0013 13.2306 27.104 12.3333 26.0013 12.3333ZM26.668 15.6666C26.668 16.0346 26.3693 16.3333 26.0013 16.3333H24.668C24.3 16.3333 24.0013 16.0346 24.0013 15.6666V14.3333C24.0013 13.9653 24.3 13.6666 24.668 13.6666H26.0013C26.3693 13.6666 26.668 13.9653 26.668 14.3333V15.6666Z" fill="#323232"/>
</svg>
