<svg width="33" height="23" viewBox="0 0 33 23" fill="none" xmlns="http://www.w3.org/2000/svg">
<mask id="path-1-inside-1" fill="white">
<path fill-rule="evenodd" clip-rule="evenodd" d="M32.7805 11.4169L30.841 8.919L30.8424 8.91831L27.7227 2.71354C27.5459 2.36239 27.1864 2.14087 26.7933 2.14087H22.357V1.10092C22.357 0.526515 21.8915 0.0610352 21.3172 0.0610352H3.9852C3.41079 0.0610352 2.94531 0.52658 2.94531 1.10092C2.94531 1.67526 3.41086 2.14081 3.9852 2.14081H20.2772V9.42021C20.2772 9.99462 20.7428 10.4601 21.3171 10.4601H29.4045L30.919 12.411V17.7742H28.9583C28.5076 15.9645 26.8686 14.6196 24.9214 14.6196C22.9742 14.6196 21.3352 15.9645 20.8845 17.7742H14.7474C14.2967 15.9645 12.6577 14.6196 10.7105 14.6196C8.76322 14.6196 7.12424 15.9645 6.67354 17.7742H3.9852C3.41079 17.7742 2.94531 18.2397 2.94531 18.8141C2.94531 19.3885 3.41086 19.8539 3.9852 19.8539H6.6915C7.1664 21.6285 8.78823 22.939 10.7105 22.939C12.6327 22.939 14.2545 21.6285 14.7294 19.854H20.9025C21.3774 21.6285 22.9992 22.939 24.9214 22.939C26.8439 22.939 28.4656 21.6285 28.9404 19.8539H31.9589C32.5333 19.8539 32.9988 19.3884 32.9988 18.8141V12.0547C32.9988 11.8239 32.9219 11.5992 32.7805 11.4169ZM26.152 4.22071L28.2433 8.38032H22.357V4.22071H26.152ZM10.7105 20.8591C9.56345 20.8591 8.63062 19.9263 8.63062 18.7793C8.63062 17.6323 9.56345 16.6995 10.7105 16.6995C11.8571 16.6995 12.7903 17.6323 12.7903 18.7793C12.7903 19.9264 11.8575 20.8591 10.7105 20.8591ZM24.9214 20.8591C23.7744 20.8591 22.8416 19.9263 22.8416 18.7793C22.8416 17.6323 23.7744 16.6995 24.9214 16.6995C26.0684 16.6995 27.0012 17.6323 27.0012 18.7793C27.0012 19.9264 26.0684 20.8591 24.9214 20.8591ZM2.73911 12.5054H7.52275C8.09709 12.5054 8.56264 12.9709 8.56257 13.5453C8.56257 14.1196 8.09709 14.5851 7.52269 14.5851H2.73911C2.16476 14.5851 1.69922 14.1197 1.69922 13.5453C1.69922 12.9709 2.1647 12.5054 2.73911 12.5054ZM9.91386 8.41479H1.03989C0.465545 8.41479 0 8.88034 0 9.45475C0 10.0292 0.465545 10.4946 1.03989 10.4946H9.91386C10.4883 10.4946 10.9537 10.0291 10.9537 9.45475C10.9537 8.8804 10.4883 8.41479 9.91386 8.41479ZM2.73911 4.32471H11.6131C12.1875 4.32471 12.653 4.79025 12.653 5.36459C12.653 5.93894 12.1875 6.40448 11.6131 6.40448H2.73911C2.16476 6.40448 1.69922 5.939 1.69922 5.36459C1.69922 4.79025 2.1647 4.32471 2.73911 4.32471Z"/>
</mask>
<path fill-rule="evenodd" clip-rule="evenodd" d="M32.7805 11.4169L30.841 8.919L30.8424 8.91831L27.7227 2.71354C27.5459 2.36239 27.1864 2.14087 26.7933 2.14087H22.357V1.10092C22.357 0.526515 21.8915 0.0610352 21.3172 0.0610352H3.9852C3.41079 0.0610352 2.94531 0.52658 2.94531 1.10092C2.94531 1.67526 3.41086 2.14081 3.9852 2.14081H20.2772V9.42021C20.2772 9.99462 20.7428 10.4601 21.3171 10.4601H29.4045L30.919 12.411V17.7742H28.9583C28.5076 15.9645 26.8686 14.6196 24.9214 14.6196C22.9742 14.6196 21.3352 15.9645 20.8845 17.7742H14.7474C14.2967 15.9645 12.6577 14.6196 10.7105 14.6196C8.76322 14.6196 7.12424 15.9645 6.67354 17.7742H3.9852C3.41079 17.7742 2.94531 18.2397 2.94531 18.8141C2.94531 19.3885 3.41086 19.8539 3.9852 19.8539H6.6915C7.1664 21.6285 8.78823 22.939 10.7105 22.939C12.6327 22.939 14.2545 21.6285 14.7294 19.854H20.9025C21.3774 21.6285 22.9992 22.939 24.9214 22.939C26.8439 22.939 28.4656 21.6285 28.9404 19.8539H31.9589C32.5333 19.8539 32.9988 19.3884 32.9988 18.8141V12.0547C32.9988 11.8239 32.9219 11.5992 32.7805 11.4169ZM26.152 4.22071L28.2433 8.38032H22.357V4.22071H26.152ZM10.7105 20.8591C9.56345 20.8591 8.63062 19.9263 8.63062 18.7793C8.63062 17.6323 9.56345 16.6995 10.7105 16.6995C11.8571 16.6995 12.7903 17.6323 12.7903 18.7793C12.7903 19.9264 11.8575 20.8591 10.7105 20.8591ZM24.9214 20.8591C23.7744 20.8591 22.8416 19.9263 22.8416 18.7793C22.8416 17.6323 23.7744 16.6995 24.9214 16.6995C26.0684 16.6995 27.0012 17.6323 27.0012 18.7793C27.0012 19.9264 26.0684 20.8591 24.9214 20.8591ZM2.73911 12.5054H7.52275C8.09709 12.5054 8.56264 12.9709 8.56257 13.5453C8.56257 14.1196 8.09709 14.5851 7.52269 14.5851H2.73911C2.16476 14.5851 1.69922 14.1197 1.69922 13.5453C1.69922 12.9709 2.1647 12.5054 2.73911 12.5054ZM9.91386 8.41479H1.03989C0.465545 8.41479 0 8.88034 0 9.45475C0 10.0292 0.465545 10.4946 1.03989 10.4946H9.91386C10.4883 10.4946 10.9537 10.0291 10.9537 9.45475C10.9537 8.8804 10.4883 8.41479 9.91386 8.41479ZM2.73911 4.32471H11.6131C12.1875 4.32471 12.653 4.79025 12.653 5.36459C12.653 5.93894 12.1875 6.40448 11.6131 6.40448H2.73911C2.16476 6.40448 1.69922 5.939 1.69922 5.36459C1.69922 4.79025 2.1647 4.32471 2.73911 4.32471Z" fill="#323232"/>
<path d="M30.841 8.919L30.7063 8.65097L30.3803 8.81484L30.6041 9.10299L30.841 8.919ZM32.7805 11.4169L33.0175 11.2331L33.0174 11.2329L32.7805 11.4169ZM30.8424 8.91831L30.9771 9.18634L31.2452 9.05158L31.1104 8.78355L30.8424 8.91831ZM27.7227 2.71354L27.9907 2.57877L27.9906 2.57863L27.7227 2.71354ZM22.357 2.14087H22.057V2.44087H22.357V2.14087ZM20.2772 2.14081H20.5772V1.84081H20.2772V2.14081ZM29.4045 10.4601L29.6415 10.2761L29.5514 10.1601H29.4045V10.4601ZM30.919 12.411H31.219V12.3082L31.156 12.227L30.919 12.411ZM30.919 17.7742V18.0742H31.219V17.7742H30.919ZM28.9583 17.7742L28.6672 17.8467L28.7239 18.0742H28.9583V17.7742ZM20.8845 17.7742V18.0742H21.1189L21.1756 17.8467L20.8845 17.7742ZM14.7474 17.7742L14.4563 17.8467L14.5129 18.0742H14.7474V17.7742ZM6.67354 17.7742V18.0742H6.90799L6.96465 17.8467L6.67354 17.7742ZM6.6915 19.8539L6.9813 19.7764L6.92177 19.5539H6.6915V19.8539ZM14.7294 19.854V19.554H14.4991L14.4396 19.7764L14.7294 19.854ZM20.9025 19.854L21.1923 19.7764L21.1327 19.554H20.9025V19.854ZM28.9404 19.8539V19.5539H28.7101L28.6506 19.7764L28.9404 19.8539ZM32.9988 18.8141L33.2988 18.8141V18.8141H32.9988ZM28.2433 8.38032V8.68032H28.7299L28.5114 8.24556L28.2433 8.38032ZM26.152 4.22071L26.42 4.08595L26.337 3.92071H26.152V4.22071ZM22.357 8.38032H22.057V8.68032H22.357V8.38032ZM22.357 4.22071V3.92071H22.057V4.22071H22.357ZM8.56257 13.5453L8.26257 13.5452V13.5453H8.56257ZM12.653 5.36459L12.353 5.36456V5.36459H12.653ZM30.6041 9.10299L32.5435 11.6009L33.0174 11.2329L31.078 8.73502L30.6041 9.10299ZM30.7076 8.65028L30.7063 8.65097L30.9758 9.18703L30.9771 9.18634L30.7076 8.65028ZM27.4546 2.8483L30.5744 9.05308L31.1104 8.78355L27.9907 2.57877L27.4546 2.8483ZM26.7933 2.44087C27.073 2.44087 27.3289 2.5985 27.4547 2.84845L27.9906 2.57863C27.7629 2.12629 27.2998 1.84087 26.7933 1.84087V2.44087ZM22.357 2.44087H26.7933V1.84087H22.357V2.44087ZM22.057 1.10092V2.14087H22.657V1.10092H22.057ZM21.3172 0.361035C21.7258 0.361035 22.057 0.692213 22.057 1.10092H22.657C22.657 0.360818 22.0572 -0.238965 21.3172 -0.238965V0.361035ZM3.9852 0.361035H21.3172V-0.238965H3.9852V0.361035ZM3.24531 1.10092C3.24531 0.692253 3.57649 0.361035 3.9852 0.361035V-0.238965C3.2451 -0.238965 2.64531 0.360906 2.64531 1.10092H3.24531ZM3.9852 1.84081C3.57654 1.84081 3.24531 1.50958 3.24531 1.10092H2.64531C2.64531 1.84095 3.24517 2.44081 3.9852 2.44081V1.84081ZM20.2772 1.84081H3.9852V2.44081H20.2772V1.84081ZM20.5772 9.42021V2.14081H19.9772V9.42021H20.5772ZM21.3171 10.1601C20.9084 10.1601 20.5772 9.82892 20.5772 9.42021H19.9772C19.9772 10.1603 20.5771 10.7601 21.3171 10.7601V10.1601ZM29.4045 10.1601H21.3171V10.7601H29.4045V10.1601ZM31.156 12.227L29.6415 10.2761L29.1676 10.6441L30.682 12.5949L31.156 12.227ZM31.219 17.7742V12.411H30.619V17.7742H31.219ZM28.9583 18.0742H30.919V17.4742H28.9583V18.0742ZM24.9214 14.9196C26.7274 14.9196 28.2489 16.1672 28.6672 17.8467L29.2494 17.7017C28.7663 15.7617 27.0099 14.3196 24.9214 14.3196V14.9196ZM21.1756 17.8467C21.5938 16.1672 23.1154 14.9196 24.9214 14.9196V14.3196C22.8329 14.3196 21.0765 15.7617 20.5934 17.7017L21.1756 17.8467ZM14.7474 18.0742H20.8845V17.4742H14.7474V18.0742ZM10.7105 14.9196C12.5164 14.9196 14.038 16.1672 14.4563 17.8467L15.0385 17.7017C14.5553 15.7617 12.799 14.3196 10.7105 14.3196V14.9196ZM6.96465 17.8467C7.38291 16.1672 8.90448 14.9196 10.7105 14.9196V14.3196C8.62196 14.3196 6.86557 15.7617 6.38244 17.7017L6.96465 17.8467ZM3.9852 18.0742H6.67354V17.4742H3.9852V18.0742ZM3.24531 18.8141C3.24531 18.4054 3.57649 18.0742 3.9852 18.0742V17.4742C3.2451 17.4742 2.64531 18.074 2.64531 18.8141H3.24531ZM3.9852 19.5539C3.57653 19.5539 3.24531 19.2228 3.24531 18.8141H2.64531C2.64531 19.5542 3.24518 20.1539 3.9852 20.1539V19.5539ZM6.6915 19.5539H3.9852V20.1539H6.6915V19.5539ZM10.7105 22.639C8.92771 22.639 7.42204 21.4233 6.9813 19.7764L6.4017 19.9315C6.91075 21.8336 8.64875 23.239 10.7105 23.239V22.639ZM14.4396 19.7764C13.9988 21.4233 12.4932 22.639 10.7105 22.639V23.239C12.7721 23.239 14.5101 21.8337 15.0192 19.9316L14.4396 19.7764ZM20.9025 19.554H14.7294V20.154H20.9025V19.554ZM24.9214 22.639C23.1387 22.639 21.633 21.4233 21.1923 19.7764L20.6126 19.9316C21.1217 21.8337 22.8597 23.239 24.9214 23.239V22.639ZM28.6506 19.7764C28.2099 21.4233 26.7045 22.639 24.9214 22.639V23.239C26.9834 23.239 28.7212 21.8336 29.2302 19.9315L28.6506 19.7764ZM31.9589 19.5539H28.9404V20.1539H31.9589V19.5539ZM32.6988 18.814C32.6988 19.2227 32.3676 19.5539 31.9589 19.5539V20.1539C32.699 20.1539 33.2988 19.5541 33.2988 18.8141L32.6988 18.814ZM32.6988 12.0547V18.8141H33.2988V12.0547H32.6988ZM32.5434 11.6008C32.644 11.7305 32.6988 11.8905 32.6988 12.0547H33.2988C33.2988 11.7573 33.1997 11.468 33.0175 11.2331L32.5434 11.6008ZM28.5114 8.24556L26.42 4.08595L25.884 4.35547L27.9753 8.51508L28.5114 8.24556ZM22.357 8.68032H28.2433V8.08032H22.357V8.68032ZM22.057 4.22071V8.38032H22.657V4.22071H22.057ZM26.152 3.92071H22.357V4.52071H26.152V3.92071ZM8.33062 18.7793C8.33062 20.092 9.39776 21.1591 10.7105 21.1591V20.5591C9.72913 20.5591 8.93062 19.7606 8.93062 18.7793H8.33062ZM10.7105 16.3995C9.39776 16.3995 8.33062 17.4666 8.33062 18.7793H8.93062C8.93062 17.798 9.72913 16.9995 10.7105 16.9995V16.3995ZM13.0903 18.7793C13.0903 17.4666 12.0228 16.3995 10.7105 16.3995V16.9995C11.6915 16.9995 12.4903 17.798 12.4903 18.7793H13.0903ZM10.7105 21.1591C12.0231 21.1591 13.0903 20.0921 13.0903 18.7793H12.4903C12.4903 19.7607 11.6918 20.5591 10.7105 20.5591V21.1591ZM22.5416 18.7793C22.5416 20.092 23.6087 21.1591 24.9214 21.1591V20.5591C23.9401 20.5591 23.1416 19.7606 23.1416 18.7793H22.5416ZM24.9214 16.3995C23.6087 16.3995 22.5416 17.4666 22.5416 18.7793H23.1416C23.1416 17.798 23.9401 16.9995 24.9214 16.9995V16.3995ZM27.3012 18.7793C27.3012 17.4666 26.2341 16.3995 24.9214 16.3995V16.9995C25.9027 16.9995 26.7012 17.798 26.7012 18.7793H27.3012ZM24.9214 21.1591C26.2341 21.1591 27.3012 20.0921 27.3012 18.7793H26.7012C26.7012 19.7607 25.9027 20.5591 24.9214 20.5591V21.1591ZM7.52275 12.2054H2.73911V12.8054H7.52275V12.2054ZM8.86257 13.5453C8.86266 12.8052 8.26277 12.2054 7.52275 12.2054V12.8054C7.93141 12.8054 8.26262 13.1366 8.26257 13.5452L8.86257 13.5453ZM7.52269 14.8851C8.26279 14.8851 8.86257 14.2853 8.86257 13.5453H8.26257C8.26257 13.9539 7.9314 14.2851 7.52269 14.2851V14.8851ZM2.73911 14.8851H7.52269V14.2851H2.73911V14.8851ZM1.39922 13.5453C1.39922 14.2854 1.99909 14.8851 2.73911 14.8851V14.2851C2.33044 14.2851 1.99922 13.954 1.99922 13.5453H1.39922ZM2.73911 12.2054C1.999 12.2054 1.39922 12.8052 1.39922 13.5453H1.99922C1.99922 13.1366 2.3304 12.8054 2.73911 12.8054V12.2054ZM1.03989 8.7148H9.91386V8.11479H1.03989V8.7148ZM0.3 9.45475C0.3 9.04601 0.631243 8.7148 1.03989 8.7148V8.11479C0.299847 8.11479 -0.3 8.71467 -0.3 9.45475H0.3ZM1.03989 10.1946C0.631219 10.1946 0.3 9.86346 0.3 9.45475H-0.3C-0.3 10.1949 0.299871 10.7946 1.03989 10.7946V10.1946ZM9.91386 10.1946H1.03989V10.7946H9.91386V10.1946ZM10.6537 9.45475C10.6537 9.86342 10.3226 10.1946 9.91386 10.1946V10.7946C10.654 10.7946 11.2537 10.1948 11.2537 9.45475H10.6537ZM9.91386 8.7148C10.3225 8.7148 10.6537 9.04605 10.6537 9.45475H11.2537C11.2537 8.71476 10.654 8.11479 9.91386 8.11479V8.7148ZM11.6131 4.02471H2.73911V4.62471H11.6131V4.02471ZM12.953 5.36463C12.953 4.62456 12.3531 4.02471 11.6131 4.02471V4.62471C12.0218 4.62471 12.353 4.95595 12.353 5.36456L12.953 5.36463ZM11.6131 6.70448C12.3532 6.70448 12.953 6.10461 12.953 5.36459H12.353C12.353 5.77326 12.0218 6.10448 11.6131 6.10448V6.70448ZM2.73911 6.70448H11.6131V6.10448H2.73911V6.70448ZM1.39922 5.36459C1.39922 6.1047 1.99909 6.70448 2.73911 6.70448V6.10448C2.33044 6.10448 1.99922 5.7733 1.99922 5.36459H1.39922ZM2.73911 4.02471C1.999 4.02471 1.39922 4.62458 1.39922 5.36459H1.99922C1.99922 4.95592 2.3304 4.62471 2.73911 4.62471V4.02471Z" fill="white" mask="url(#path-1-inside-1)"/>
</svg>
