<svg width="31" height="39" viewBox="0 0 31 39" fill="none" xmlns="http://www.w3.org/2000/svg">
<path d="M0.539062 4.54767V38.3307C0.539062 38.6895 0.829949 38.9804 1.18881 38.9804H25.8764C26.235 38.9804 26.5259 38.6895 26.5259 38.3307V11.0446C26.5259 11.0301 26.519 11.0178 26.5176 11.0036C26.5144 10.9466 26.5032 10.8904 26.4844 10.8367C26.4772 10.8158 26.4721 10.7957 26.463 10.7754C26.4315 10.7047 26.3876 10.6402 26.333 10.5851L19.8363 4.08846C19.7812 4.0336 19.7164 3.98971 19.6453 3.9584C19.6257 3.95011 19.6059 3.94315 19.5856 3.937C19.5313 3.91826 19.4748 3.90702 19.4173 3.90328C19.4063 3.90515 19.3934 3.89819 19.3798 3.89819H1.18881C0.829949 3.89819 0.539062 4.18881 0.539062 4.54767ZM24.308 10.3948H20.0293V6.1161L24.308 10.3948ZM1.83828 5.19742H18.73V11.0446C18.73 11.4032 19.0209 11.6941 19.3795 11.6941H25.2267V37.6812H1.83828V5.19742Z" fill="#323232"/>
<path d="M27.8259 33.783V35.0822H29.7749C30.1337 35.0822 30.4246 34.7916 30.4246 34.4327V0.649745C30.4246 0.290887 30.1337 0 29.7749 0H5.08724C4.72839 0 4.4375 0.290887 4.4375 0.649745V2.59871H5.73699V1.29922H29.1251V33.783H27.8259Z" fill="#323232"/>
<path d="M5.73828 12.9935H21.3303V14.2927H5.73828V12.9935Z" fill="#323232"/>
<path d="M5.73828 9.09534H10.9357V10.3948H5.73828V9.09534Z" fill="#323232"/>
<path d="M5.73828 16.8915H16.1331V18.191H5.73828V16.8915Z" fill="#323232"/>
<path d="M17.4297 16.8915H21.3276V18.191H17.4297V16.8915Z" fill="#323232"/>
<path d="M5.73828 20.7894H21.3303V22.0889H5.73828V20.7894Z" fill="#323232"/>
<path d="M5.73828 28.5856H21.3303V29.8851H5.73828V28.5856Z" fill="#323232"/>
<path d="M11.582 24.6876H21.3271V25.9868H11.582V24.6876Z" fill="#323232"/>
<path d="M5.73828 24.6876H10.286V25.9868H5.73828V24.6876Z" fill="#323232"/>
<path d="M5.73828 32.4838H8.33699V33.783H5.73828V32.4838Z" fill="#323232"/>
<path d="M9.63672 32.4838H21.3308V33.783H9.63672V32.4838Z" fill="#323232"/>
</svg>
