<svg width="26" height="26" viewBox="0 0 26 26" fill="none" xmlns="http://www.w3.org/2000/svg">
<path d="M22.3382 12.7068C22.4087 12.1923 22.4545 11.6986 22.4545 11.2273C22.4545 5.0366 17.418 0 11.2273 0C5.0366 0 0 5.0366 0 11.2273C0 17.418 5.0366 22.4546 11.2273 22.4546C11.7013 22.4546 12.1947 22.409 12.7068 22.3382C13.9175 24.5193 16.2425 26.0001 18.9091 26.0001C22.8193 26.0001 26.0001 22.8193 26.0001 18.9091C26 16.2426 24.5193 13.9175 22.3382 12.7068ZM12.2101 21.2135C11.8728 21.2495 11.5444 21.2727 11.2273 21.2727C5.68869 21.2727 1.18186 16.7665 1.18186 11.2273C1.18186 5.68813 5.68863 1.1818 11.2273 1.1818C16.766 1.1818 21.2727 5.68808 21.2727 11.2273C21.2727 11.5428 21.2491 11.8715 21.2129 12.2099C20.4894 11.9604 19.7163 11.8182 18.9091 11.8182C14.9989 11.8182 11.8182 14.9989 11.8182 18.9091C11.8182 19.7166 11.9604 20.4898 12.2101 21.2135ZM18.9091 24.8182C15.651 24.8182 13 22.1672 13 18.9091C13 15.651 15.651 13 18.9091 13C22.1672 13 24.8182 15.651 24.8182 18.9091C24.8182 22.1671 22.1672 24.8182 18.9091 24.8182Z" fill="#323232"/>
<path d="M18.6131 16.5454H20.6813C21.0079 16.5454 21.2722 16.2811 21.2722 15.9544C21.2722 15.6278 21.0079 15.3635 20.6813 15.3635H19.4995V14.7726C19.4995 14.4459 19.2352 14.1816 18.9086 14.1816C18.582 14.1816 18.3177 14.4459 18.3177 14.7726V15.3934C17.3179 15.5382 16.5449 16.3925 16.5449 17.4317C16.545 18.572 17.4729 19.4999 18.6131 19.4999H19.2041C19.6923 19.4999 20.0904 19.8975 20.0904 20.3862C20.0904 20.875 19.6922 21.2726 19.2041 21.2726H17.1359C16.8093 21.2726 16.545 21.5369 16.545 21.8635C16.545 22.1902 16.8093 22.4545 17.1359 22.4545H18.3177V23.0453C18.3177 23.372 18.582 23.6363 18.9086 23.6363C19.2353 23.6363 19.4995 23.372 19.4995 23.0453V22.4246C20.4992 22.2797 21.2722 21.4254 21.2722 20.3862C21.2722 19.246 20.3443 18.3181 19.2041 18.3181H18.6131C18.1249 18.3181 17.7268 17.9205 17.7268 17.4317C17.7268 16.9429 18.125 16.5454 18.6131 16.5454Z" fill="#323232"/>
<path d="M11.2262 3.54541C10.8996 3.54541 10.6353 3.80971 10.6353 4.13634V10.9826L7.26298 14.3549C7.03213 14.5857 7.03213 14.9597 7.26298 15.1905C7.37837 15.3059 7.52961 15.3636 7.68079 15.3636C7.83197 15.3636 7.98315 15.3059 8.09859 15.1905L11.644 11.645C11.7548 11.5342 11.8172 11.3842 11.8172 11.2272V4.13628C11.8171 3.80971 11.5528 3.54541 11.2262 3.54541Z" fill="#323232"/>
</svg>
