<svg width="28" height="24" viewBox="0 0 28 24" fill="none" xmlns="http://www.w3.org/2000/svg">
<path d="M26.4323 10.4373H25.7662V6.44014C25.7662 4.80574 24.434 3.481 22.8031 3.481H22.1887L22.1944 1.9957C22.1944 0.894624 21.2986 0 20.1961 0H2.42904C1.10254 0 0.0172272 1.06667 0 2.3914C0 2.40287 0 2.41434 0 2.42581V22.0043C0 23.1054 0.895816 24 1.99836 24H22.8089C24.4454 24 25.7719 22.6695 25.7719 21.0409V17.038H26.4381C27.2994 17.038 28 16.3384 28 15.4781V11.9971C27.9943 11.1369 27.2937 10.4373 26.4323 10.4373ZM2.42904 1.37634H20.1961C20.5349 1.37634 20.8162 1.65161 20.8162 1.98996L20.8105 3.481H2.42904C1.84906 3.481 1.37818 3.01075 1.37818 2.43154C1.37818 1.85233 1.84906 1.37634 2.42904 1.37634ZM24.388 21.0351C24.388 21.9068 23.676 22.6179 22.8031 22.6179H1.99262C1.65381 22.6179 1.37244 22.3427 1.37244 21.9986V4.61649C1.69401 4.77133 2.05004 4.85735 2.42904 4.85735H22.8031C23.676 4.85735 24.388 5.56846 24.388 6.44014V10.4373H19.685C18.8236 10.4373 18.1231 11.1369 18.1231 11.9971V15.4781C18.1231 16.3384 18.8236 17.038 19.685 17.038H24.388V21.0351ZM26.6161 15.4781C26.6161 15.5814 26.5357 15.6616 26.4323 15.6616H19.6907C19.5874 15.6616 19.507 15.5814 19.507 15.4781V11.9971C19.507 11.8996 19.5874 11.8136 19.6907 11.8136H26.4323C26.5299 11.8136 26.6161 11.8939 26.6161 11.9971V15.4781Z" fill="#323232"/>
</svg>
