<svg width="13" height="13" viewBox="0 0 13 13" fill="none" xmlns="http://www.w3.org/2000/svg">
<g clip-path="url(#clip0)">
<path d="M11.5104 13.0001H1.48962C0.667892 13.0001 0 12.3322 0 11.5105V2.57301C0 1.75129 0.667892 1.0835 1.48962 1.0835H11.5104C12.3321 1.0835 13 1.75129 13 2.57301V11.5105C13 12.3322 12.3321 13.0001 11.5104 13.0001ZM1.48962 1.896C1.11639 1.896 0.8125 2.19979 0.8125 2.57301V11.5105C0.8125 11.8837 1.11639 12.1876 1.48962 12.1876H11.5104C11.8836 12.1876 12.1875 11.8837 12.1875 11.5105V2.57301C12.1875 2.19979 11.8836 1.896 11.5104 1.896H1.48962Z" fill="#F66507"/>
<path d="M12.5938 5.146H0.40625C0.181999 5.146 0 4.964 0 4.73975C0 4.5155 0.181999 4.3335 0.40625 4.3335H12.5938C12.818 4.3335 13 4.5155 13 4.73975C13 4.964 12.818 5.146 12.5938 5.146Z" fill="#F66507"/>
<path d="M3.11523 3.25C2.89098 3.25 2.70898 3.068 2.70898 2.84375V0.40625C2.70898 0.181999 2.89098 0 3.11523 0C3.33949 0 3.52148 0.181999 3.52148 0.40625V2.84375C3.52148 3.068 3.33949 3.25 3.11523 3.25Z" fill="#F66507"/>
<path d="M9.88477 3.25C9.66051 3.25 9.47852 3.068 9.47852 2.84375V0.40625C9.47852 0.181999 9.66051 0 9.88477 0C10.109 0 10.291 0.181999 10.291 0.40625V2.84375C10.291 3.068 10.109 3.25 9.88477 3.25Z" fill="#F66507"/>
</g>
<defs>
<clipPath id="clip0">
<rect width="13" height="13" fill="white"/>
</clipPath>
</defs>
</svg>
