<svg xmlns="http://www.w3.org/2000/svg" viewBox="0 0 178.47 77.5"><defs><style>.cls-1{fill:#f26722;}</style></defs><g id="Слой_2" data-name="Слой 2"><g id="Layer_1" data-name="Layer 1"><path class="cls-1" d="M38.87,77.5c-.29-6.45-.36-12.91-.45-19.37s0-12.92.1-19.38L38.87,0H39l.35,38.75c.06,6.46.17,12.92.1,19.38S39.27,71.05,39,77.5Z"/><polygon class="cls-1" points="178.47 49.78 89.23 50.13 66.92 50.23 44.62 50.23 22.31 50.05 11.15 49.96 0 49.78 0 49.67 11.15 49.49 22.31 49.4 44.62 49.22 66.92 49.22 89.23 49.32 178.47 49.67 178.47 49.78"/><path class="cls-1" d="M89.23,49.32l-22.31-.1H44.62l-5.19,0h0c0-3.5-.07-7-.1-10.5L39,0h-.1l-.35,38.75c0,3.51-.08,7-.11,10.51h0l-16.1.13-11.16.09L0,49.67v.11L11.15,50l11.16.09,16.09.13h1l5.18,0h22.3l22.31-.1,89.24-.35v-.11Z"/></g></g></svg>