<svg width="181" height="51" viewBox="0 0 181 51" fill="none" xmlns="http://www.w3.org/2000/svg">
<path fill-rule="evenodd" clip-rule="evenodd" d="M40.892 50.7617L38.9348 50.7383C38.9348 50.7355 38.9348 50.7326 38.9348 50.7297C18.8242 50.4431 0.927246 49.9041 0.927246 49.9041C0.927246 49.9041 18.8314 49.3648 38.947 49.0783C39.1214 27.4591 39.9133 0.109619 39.9133 0.109619C39.9133 0.109619 40.7046 27.4346 40.8794 49.0517C47.5555 48.9627 54.4177 48.9041 60.9029 48.9041C107.751 48.9041 180.854 49.9041 180.854 49.9041C180.854 49.9041 107.758 50.9041 60.9029 50.9041C54.4217 50.9041 47.5641 50.8455 40.892 50.7567C40.892 50.7583 40.892 50.76 40.892 50.7617Z" fill="#F56C40"/>
</svg>
