<svg xmlns="http://www.w3.org/2000/svg" viewBox="0 0 433.12 77.5"><defs><style>.cls-1{fill:#f26722;}</style></defs><g id="Слой_2" data-name="Слой 2"><g id="Layer_1" data-name="Layer 1"><path class="cls-1" d="M38.87,77.5c-.29-6.45-.36-12.91-.45-19.37s0-12.92.1-19.38L38.87,0H39l.35,38.75c.06,6.46.17,12.92.1,19.38S39.27,71.05,39,77.5Z"/><polygon class="cls-1" points="178.47 49.78 89.23 50.13 66.92 50.23 44.62 50.23 22.31 50.05 11.15 49.96 0 49.78 0 49.67 11.15 49.49 22.31 49.4 44.62 49.22 66.92 49.22 89.23 49.32 178.47 49.67 178.47 49.78"/><path class="cls-1" d="M421.57,49.49,410,49.4l-15.32-.12h0c0-3.5-.07-7-.1-10.52L394.24,0h-.1l-.35,38.75c0,3.51-.08,7-.1,10.52l-6.78-.05h-23.1l-23.11.1-92.42.35v.11l92.42.35,23.11.1h23.1l6.77,0h1L410,50.05,421.57,50l11.55-.18v-.11Z"/><path class="cls-1" d="M89.23,49.32l-22.31-.1H44.62l-5.19,0h0c0-3.5-.07-7-.1-10.5L39,0h-.1l-.35,38.75c0,3.51-.08,7-.11,10.51h0l-16.1.13-11.16.09L0,49.67v.11L11.15,50l11.16.09,16.09.13h1l5.18,0h22.3l22.31-.1,89.24-.35v-.11Z"/><path class="cls-1" d="M394.15,77.5c-.29-6.45-.37-12.91-.46-19.37s.05-12.92.1-19.38L394.15,0h.1l.35,38.75c.06,6.46.17,12.92.11,19.38s-.17,12.92-.46,19.37Z"/><polygon class="cls-1" points="248.28 49.67 340.7 49.32 363.81 49.22 386.91 49.22 410.02 49.4 421.57 49.49 433.12 49.67 433.12 49.78 421.57 49.96 410.02 50.05 386.91 50.23 363.81 50.23 340.7 50.13 248.28 49.78 248.28 49.67"/></g></g></svg>