<svg xmlns="http://www.w3.org/2000/svg" viewBox="0 0 356.31 50.23"><defs><style>.cls-1{fill:#f26722;}</style></defs><g id="Слой_2" data-name="Слой 2"><g id="Layer_1" data-name="Layer 1"><path class="cls-1" d="M50.83,49.32l-22.31-.1H6.21L1,49.25c0-3.5-.07-7-.1-10.5L.57,0H.47L.12,38.75c0,3.51-.08,7-.11,10.51,0,.31,0,.61,0,.92H1l5.17,0H28.52l22.31-.1,89.23-.36v-.1Z"/><path class="cls-1" d="M356.3,49.27c0-3.5-.07-7-.1-10.52L355.84,0h-.1l-.35,38.75c0,3.51-.08,7-.1,10.52l-6.78-.06H325.4l-23.1.1-92.43.35v.1l92.43.36,23.1.1h23.11l6.77,0h1C356.31,49.87,356.3,49.57,356.3,49.27Z"/></g></g></svg>