<svg xmlns="http://www.w3.org/2000/svg" viewBox="0 0 433.12 50.23"><defs><style>.cls-1{fill:#f26722;}</style></defs><g id="Слой_2" data-name="Слой 2"><g id="Layer_1" data-name="Layer 1"><path class="cls-1" d="M421.57,49.49,410,49.4l-15.32-.12h0c0-3.5-.07-7-.1-10.52L394.24,0h-.1l-.35,38.75c0,3.51-.08,7-.1,10.52l-6.78-.06h-23.1l-23.11.1-92.42.35v.1l92.42.36,23.11.1h23.1l6.77,0h1L410,50.05l11.55-.1,11.55-.18v-.1Z"/><path class="cls-1" d="M89.23,49.32l-22.31-.1H44.62l-5.19,0h0c0-3.5-.07-7-.1-10.5L39,0h-.1l-.35,38.75c0,3.51-.08,7-.11,10.51h0l-16.1.13-11.16.09L0,49.67v.1L11.15,50l11.16.1,16.09.13h1l5.18,0h22.3l22.31-.1,89.24-.36v-.1Z"/></g></g></svg>