<svg xmlns="http://www.w3.org/2000/svg" viewBox="0 0 184.85 77.5"><defs><style>.cls-1{fill:#f26722;}</style></defs><g id="Слой_2" data-name="Слой 2"><g id="Layer_1" data-name="Layer 1"><path class="cls-1" d="M173.29,49.49l-11.55-.09-15.31-.12h0c0-3.5-.07-7-.1-10.52L146,0h-.1l-.35,38.75c0,3.51-.08,7-.1,10.52l-6.78-.05H115.53l-23.11.1L0,49.67v.11l92.42.35,23.11.1h23.11l6.77,0h1l15.3-.12L173.29,50l11.56-.18v-.11Z"/><path class="cls-1" d="M145.87,77.5c-.29-6.45-.36-12.91-.46-19.37s.05-12.92.11-19.38L145.87,0h.1l.36,38.75c0,6.46.17,12.92.1,19.38s-.17,12.92-.46,19.37Z"/><polygon class="cls-1" points="0 49.67 92.42 49.32 115.53 49.22 138.63 49.22 161.74 49.4 173.29 49.49 184.85 49.67 184.85 49.78 173.29 49.96 161.74 50.05 138.63 50.23 115.53 50.23 92.42 50.13 0 49.78 0 49.67"/></g></g></svg>