<svg xmlns="http://www.w3.org/2000/svg" viewBox="0 0 178.47 185.23"><defs><style>.cls-1{fill:#f26722;}</style></defs><g id="Слой_2" data-name="Слой 2"><g id="Layer_1" data-name="Layer 1"><path class="cls-1" d="M38.87,185.23c-.29-6.46-.36-12.92-.45-19.38s0-12.91.1-19.37l.35-38.76H39l.35,38.76c.06,6.46.17,12.91.1,19.37s-.16,12.92-.45,19.38Z"/><polygon class="cls-1" points="178.47 157.5 89.23 157.86 66.92 157.95 44.62 157.96 22.31 157.78 11.15 157.68 0 157.5 0 157.4 11.15 157.22 22.31 157.12 44.62 156.94 66.92 156.95 89.23 157.04 178.47 157.4 178.47 157.5"/><path class="cls-1" d="M39,0c.29,6.71.36,13.42.45,20.13s0,13.41-.1,20.12L39,80.51h-.11l-.35-40.26c-.06-6.71-.17-13.41-.1-20.12S38.58,6.71,38.87,0Z"/><polygon class="cls-1" points="178.47 30.29 89.23 30.64 66.92 30.74 44.62 30.74 22.31 30.56 11.15 30.47 0 30.29 0 30.18 11.15 30 22.31 29.91 44.62 29.73 66.92 29.73 89.23 29.83 178.47 30.18 178.47 30.29"/><path class="cls-1" d="M89.23,157,66.92,157H44.62l-5.19,0h0c0-3.5-.07-7-.1-10.5L39,107.73h-.1l-.35,38.75c0,3.51-.08,7-.11,10.51h0l-16.1.13-11.16.1L0,157.4v.1l11.15.18,11.16.09,16.09.14h1l5.18,0h22.3l22.31-.09,89.24-.36v-.1Z"/></g></g></svg>