<svg xmlns="http://www.w3.org/2000/svg" viewBox="0 0 184.85 157.96"><defs><style>.cls-1{fill:#f26722;}</style></defs><g id="Слой_2" data-name="Слой 2"><g id="Layer_1" data-name="Layer 1"><path class="cls-1" d="M173.29,157.22l-11.55-.1L146.43,157h0c0-3.5-.07-7-.1-10.52L146,107.73h-.1l-.35,38.75c0,3.51-.08,7-.1,10.52l-6.78-.06H115.53L92.42,157,0,157.4v.1l92.42.36,23.11.09h23.11l6.77-.06h1l15.3-.13,11.55-.09,11.56-.18v-.1Z"/><path class="cls-1" d="M146,0c.29,6.71.37,13.42.46,20.13s-.05,13.41-.1,20.12L146,80.51h-.1l-.35-40.26c-.06-6.71-.17-13.41-.11-20.12s.17-13.42.46-20.13Z"/><polygon class="cls-1" points="0 30.18 92.42 29.83 115.53 29.73 138.63 29.73 161.74 29.91 173.29 30 184.85 30.18 184.85 30.29 173.29 30.47 161.74 30.56 138.63 30.74 115.53 30.74 92.42 30.64 0 30.29 0 30.18"/></g></g></svg>