<svg xmlns="http://www.w3.org/2000/svg" viewBox="0 0 184.85 185.23"><defs><style>.cls-1{fill:#f26722;}</style></defs><g id="Слой_2" data-name="Слой 2"><g id="Layer_1" data-name="Layer 1"><path class="cls-1" d="M145.87,185.23c-.29-6.46-.36-12.92-.46-19.38s.05-12.91.11-19.37l.35-38.76h.1l.36,38.76c0,6.46.17,12.91.1,19.37s-.17,12.92-.46,19.38Z"/><polygon class="cls-1" points="0 157.4 92.42 157.04 115.53 156.95 138.63 156.94 161.74 157.12 173.29 157.22 184.85 157.4 184.85 157.5 173.29 157.68 161.74 157.78 138.63 157.96 115.53 157.95 92.42 157.86 0 157.5 0 157.4"/><path class="cls-1" d="M146,0c.29,6.71.37,13.42.46,20.13s-.05,13.41-.1,20.12L146,80.51h-.1l-.35-40.26c-.06-6.71-.17-13.41-.11-20.12s.17-13.42.46-20.13Z"/><polygon class="cls-1" points="0 30.18 92.42 29.83 115.53 29.73 138.63 29.73 161.74 29.91 173.29 30 184.85 30.18 184.85 30.29 173.29 30.47 161.74 30.56 138.63 30.74 115.53 30.74 92.42 30.64 0 30.29 0 30.18"/></g></g></svg>