<svg xmlns="http://www.w3.org/2000/svg" viewBox="0 0 433.12 80.51"><defs><style>.cls-1{fill:#f26722;}</style></defs><g id="Слой_2" data-name="Слой 2"><g id="Layer_1" data-name="Layer 1"><path class="cls-1" d="M39,0c.29,6.71.36,13.42.45,20.13s0,13.41-.1,20.12L39,80.51h-.11l-.35-40.26c-.06-6.71-.17-13.41-.1-20.12S38.58,6.71,38.87,0Z"/><polygon class="cls-1" points="178.47 30.29 89.23 30.64 66.92 30.74 44.62 30.74 22.31 30.56 11.15 30.47 0 30.29 0 30.18 11.15 30 22.31 29.91 44.62 29.73 66.92 29.73 89.23 29.83 178.47 30.18 178.47 30.29"/><path class="cls-1" d="M394.25,0c.29,6.71.36,13.42.46,20.13s0,13.41-.11,20.12l-.35,40.26h-.1l-.36-40.26c-.05-6.71-.17-13.41-.1-20.12s.17-13.42.46-20.13Z"/><polygon class="cls-1" points="248.28 30.18 340.7 29.83 363.81 29.73 386.91 29.73 410.02 29.91 421.57 30 433.12 30.18 433.12 30.29 421.57 30.47 410.02 30.56 386.91 30.74 363.81 30.74 340.7 30.64 248.28 30.29 248.28 30.18"/></g></g></svg>