<svg width="39" height="31" viewBox="0 0 39 31" fill="none" xmlns="http://www.w3.org/2000/svg">
<path d="M38.7993 9.90562C38.7993 15.1281 38.7993 20.4473 38.7993 25.6697C38.7993 25.7664 38.7993 25.7664 38.7993 25.8631C38.6993 26.8302 38.2992 27.7974 37.6992 28.5711C36.7992 29.7316 35.5992 30.4086 34.0992 30.4086C33.3992 30.4086 32.6993 30.4086 31.9993 30.4086C27.5993 30.4086 23.0992 30.4086 18.6992 30.4086C14.2992 30.4086 9.89927 30.4086 5.49927 30.4086C4.39927 30.4086 3.39924 30.0218 2.59924 29.3448C1.29924 28.281 0.699219 26.8303 0.699219 25.1862C0.699219 20.2538 0.699219 15.3215 0.699219 10.3892C0.699219 9.7122 0.799268 8.93855 0.999268 8.26157C1.49927 6.9076 2.49927 5.9405 3.99927 5.74708C4.29927 5.74708 4.59927 5.7471 4.99927 5.65039C4.99927 4.97341 4.99927 4.39311 4.99927 3.81284C4.99927 3.42599 5.09927 3.32928 5.49927 3.32928C7.39927 3.32928 9.19924 3.32928 11.0992 3.32928C11.2992 3.32928 11.3992 3.2325 11.5992 3.13579C11.7992 2.74894 12.0993 2.45883 12.3993 2.07198C12.9993 1.395 13.6992 0.911461 14.5992 1.00817C18.0992 1.00817 21.5992 1.00817 25.1992 1.00817C25.3992 1.00817 25.5993 1.00817 25.7993 1.00817C26.4993 1.10488 26.9993 1.58842 27.2993 2.07198C28.0993 3.23252 28.9993 4.29635 29.7993 5.4569C29.8993 5.65032 29.9992 5.65039 30.1992 5.65039C31.7992 5.65039 33.4992 5.65039 35.0992 5.65039C35.7992 5.65039 36.3993 5.84379 36.9993 6.23064C38.0993 6.90762 38.4992 7.97145 38.6992 9.132C38.7992 9.42213 38.7993 9.61549 38.7993 9.90562ZM19.6992 28.7644C24.4992 28.7644 29.1993 28.7644 33.9993 28.7644C34.4993 28.7644 34.8993 28.6678 35.2993 28.4744C36.4993 27.7974 37.0992 26.7335 37.0992 25.3795C37.0992 20.4472 37.0992 15.515 37.0992 10.6794C37.0992 10.1958 37.0993 9.71222 36.9993 9.32537C36.8993 8.64839 36.5993 7.97148 35.8993 7.58463C35.4993 7.39121 34.9993 7.29445 34.4993 7.29445C32.9993 7.29445 31.3993 7.29445 29.8993 7.29445C29.1993 7.29445 28.7993 7.00426 28.3993 6.5207C27.9993 5.94043 27.5992 5.45692 27.1992 4.87665C26.6992 4.19967 26.1992 3.52271 25.6992 2.84572C25.4992 2.55559 25.1993 2.45885 24.8993 2.45885C21.3993 2.45885 17.8993 2.45885 14.3993 2.45885C14.0993 2.45885 13.7992 2.55559 13.5992 2.84572C13.4992 2.94243 13.4993 3.03908 13.3993 3.13579C12.5993 4.29633 11.6993 5.36016 10.8993 6.5207C10.4993 7.00426 9.99932 7.29445 9.29932 7.29445C7.69932 7.29445 6.19924 7.29445 4.59924 7.29445C3.69924 7.29445 2.99927 7.58456 2.49927 8.35825C2.19927 8.84181 2.09924 9.51884 2.09924 10.0991C2.09924 15.1281 2.09924 20.1571 2.09924 25.1862C2.09924 25.7664 2.19929 26.3467 2.39929 26.927C2.79929 27.9908 3.89927 28.9579 5.49927 28.9579C10.3993 28.7645 14.9992 28.7644 19.6992 28.7644ZM6.59924 5.74708C7.49924 5.74708 8.39922 5.74708 9.19922 5.74708C9.49922 5.74708 9.69932 5.65032 9.79932 5.4569C9.89932 5.26347 10.0992 5.07007 10.1992 4.87665C8.99922 4.87665 7.79924 4.87665 6.59924 4.87665C6.59924 5.16678 6.59924 5.36023 6.59924 5.74708Z" fill="#323232"/>
<path d="M19.2997 27.0237C13.9997 27.0237 9.59961 22.865 9.59961 17.6425C9.59961 12.3234 14.0997 8.26154 19.3997 8.26154C24.6997 8.35825 29.0996 12.5169 28.9996 17.7394C28.9996 23.0585 24.4997 27.0237 19.2997 27.0237ZM19.2997 9.8089C14.9997 9.8089 11.2996 13.0972 11.1996 17.3525C10.9996 21.8979 14.8997 25.4763 19.3997 25.4763C23.7997 25.4763 27.5996 21.9946 27.4996 17.4492C27.3996 13.1938 23.6997 9.8089 19.2997 9.8089Z" fill="#323232"/>
<path d="M32.3984 9.13196C33.1984 9.13196 33.7985 9.71223 33.7985 10.5826C33.7985 11.3563 33.1984 11.9366 32.3984 11.9366C31.5984 11.9366 30.8984 11.2596 30.8984 10.5826C30.8984 9.80894 31.5984 9.13196 32.3984 9.13196Z" fill="#323232"/>
<path d="M13.1992 17.5458C13.1992 14.2576 15.9993 11.5497 19.4993 11.5497C22.8993 11.5497 25.6992 14.2576 25.6992 17.6425C25.6992 21.0274 22.7993 23.7354 19.2993 23.6387C15.9993 23.4453 13.1992 20.834 13.1992 17.5458ZM14.1992 17.5458C14.1992 20.4472 16.4992 22.6716 19.5992 22.5749C22.3992 22.5749 24.6992 20.2538 24.6992 17.4491C24.6992 14.6445 22.2993 12.4202 19.3993 12.4202C16.4993 12.5169 14.1992 14.8379 14.1992 17.5458Z" fill="#323232"/>
</svg>
