<svg width="39" height="31" viewBox="0 0 39 31" fill="none" xmlns="http://www.w3.org/2000/svg">
<path d="M38.7993 9.60569C38.7993 14.8281 38.7993 20.1472 38.7993 25.3697C38.7993 25.4664 38.7993 25.4664 38.7993 25.5632C38.6993 26.5303 38.2992 27.4973 37.6992 28.271C36.7992 29.4316 35.5992 30.1086 34.0992 30.1086C33.3992 30.1086 32.6993 30.1086 31.9993 30.1086C27.5993 30.1086 23.0992 30.1086 18.6992 30.1086C14.2992 30.1086 9.89927 30.1086 5.49927 30.1086C4.39927 30.1086 3.39924 29.7217 2.59924 29.0448C1.29924 27.9809 0.699219 26.5302 0.699219 24.8861C0.699219 19.9538 0.699219 15.0216 0.699219 10.0892C0.699219 9.41226 0.799268 8.6385 0.999268 7.96151C1.49927 6.60755 2.49927 5.64045 3.99927 5.44703C4.29927 5.44703 4.59927 5.35034 4.99927 5.35034C4.99927 4.67336 4.99927 4.09306 4.99927 3.51279C4.99927 3.12594 5.09927 3.02923 5.49927 3.02923C7.39927 3.02923 9.19924 3.02923 11.0992 3.02923C11.2992 3.02923 11.3992 2.93257 11.5992 2.83585C11.7992 2.44901 12.0993 2.15889 12.3993 1.77205C12.9993 1.09506 13.6992 0.61141 14.5992 0.708122C18.0992 0.708122 21.5992 0.708122 25.1992 0.708122C25.3992 0.708122 25.5993 0.708122 25.7993 0.708122C26.4993 0.804833 26.9993 1.28849 27.2993 1.77205C28.0993 2.93259 28.9993 3.99642 29.7993 5.15696C29.8993 5.35039 29.9992 5.35034 30.1992 5.35034C31.7992 5.35034 33.4992 5.35034 35.0992 5.35034C35.7992 5.35034 36.3993 5.54374 36.9993 5.93059C38.0993 6.60757 38.4992 7.6714 38.6992 8.83195C38.7992 9.12208 38.7993 9.31555 38.7993 9.60569ZM19.6992 28.5612C24.4992 28.5612 29.1993 28.5612 33.9993 28.5612C34.4993 28.5612 34.8993 28.4644 35.2993 28.271C36.4993 27.594 37.0992 26.5302 37.0992 25.1763C37.0992 20.244 37.0992 15.3117 37.0992 10.4761C37.0992 9.99256 37.0993 9.50898 36.9993 9.12213C36.8993 8.44515 36.5993 7.76811 35.8993 7.38127C35.4993 7.18784 34.9993 7.0912 34.4993 7.0912C32.9993 7.0912 31.3993 7.0912 29.8993 7.0912C29.1993 7.0912 28.7993 6.80102 28.3993 6.31746C27.9993 5.73719 27.5992 5.25368 27.1992 4.6734C26.6992 3.99642 26.1992 3.31934 25.6992 2.64236C25.4992 2.35222 25.1993 2.25561 24.8993 2.25561C21.3993 2.25561 17.8993 2.25561 14.3993 2.25561C14.0993 2.25561 13.7992 2.35222 13.5992 2.64236C13.4992 2.73907 13.4993 2.83583 13.3993 2.93254C12.5993 4.09309 11.6993 5.15692 10.8993 6.31746C10.4993 6.80102 9.99932 7.0912 9.29932 7.0912C7.69932 7.0912 6.19924 7.0912 4.59924 7.0912C3.69924 7.0912 2.99927 7.38131 2.49927 8.15501C2.19927 8.63857 2.09924 9.31548 2.09924 9.89575C2.09924 14.9248 2.09924 19.9539 2.09924 24.9829C2.09924 25.5632 2.19929 26.1434 2.39929 26.7236C2.79929 27.7875 3.89927 28.7546 5.49927 28.7546C10.3993 28.4644 14.9992 28.5612 19.6992 28.5612ZM6.59924 5.44703C7.49924 5.44703 8.39922 5.44703 9.19922 5.44703C9.49922 5.44703 9.69932 5.35039 9.79932 5.15696C9.89932 4.96354 10.0992 4.77002 10.1992 4.5766C8.99922 4.5766 7.79924 4.5766 6.59924 4.5766C6.59924 4.86673 6.59924 5.15689 6.59924 5.44703Z" fill="#F76600"/>
<path d="M19.2997 26.7236C13.9997 26.7236 9.59961 22.5651 9.59961 17.3426C9.59961 12.0235 14.0997 7.96149 19.3997 7.96149C24.6997 8.0582 29.0996 12.2169 28.9996 17.4393C28.9996 22.7585 24.4997 26.8203 19.2997 26.7236ZM19.2997 9.50897C14.9997 9.50897 11.2996 12.7971 11.1996 17.0524C10.9996 21.5979 14.8997 25.1763 19.3997 25.1763C23.7997 25.1763 27.5996 21.6946 27.4996 17.1491C27.3996 12.8938 23.6997 9.50897 19.2997 9.50897Z" fill="#F76600"/>
<path d="M32.3984 8.92859C33.1984 8.92859 33.7985 9.50886 33.7985 10.3793C33.7985 11.153 33.1984 11.7333 32.3984 11.7333C31.5984 11.7333 30.8984 11.0562 30.8984 10.3793C30.8984 9.50886 31.5984 8.83187 32.3984 8.92859Z" fill="#F76600"/>
<path d="M13.1992 17.2459C13.1992 13.9577 15.9993 11.2497 19.4993 11.2497C22.8993 11.2497 25.6992 13.9577 25.6992 17.3426C25.6992 20.7275 22.7993 23.4354 19.2993 23.3387C15.9993 23.1453 13.1992 20.6308 13.1992 17.2459ZM14.1992 17.2459C14.1992 20.1473 16.4992 22.3716 19.5992 22.2749C22.3992 22.2749 24.6992 19.9537 24.6992 17.1491C24.6992 14.3445 22.2993 12.1201 19.3993 12.1201C16.4993 12.2168 14.1992 14.538 14.1992 17.2459Z" fill="#F76600"/>
</svg>
