<svg width="14" height="26" viewBox="0 0 14 26" fill="none" xmlns="http://www.w3.org/2000/svg">
<path d="M11.1987 24.9086H3.29883C2.19883 24.9086 1.29883 24.0447 1.29883 22.9889V2.92822C1.29883 1.8724 2.19883 1.00854 3.29883 1.00854H11.1987C12.2987 1.00854 13.1987 1.8724 13.1987 2.92822V22.9889C13.0987 24.0447 12.2987 24.9086 11.1987 24.9086Z" stroke="#323232" stroke-miterlimit="10"/>
<path d="M13.0992 4.36798H1.19922V2.92822C1.19922 1.8724 2.09922 1.00854 3.19922 1.00854H11.0992C12.1992 1.00854 13.0992 1.8724 13.0992 2.92822V4.36798Z" fill="#323232"/>
<path d="M11.1987 24.9086H3.29883C2.19883 24.9086 1.29883 24.0448 1.29883 22.9889V21.7411H13.1987V22.9889C13.0987 24.0448 12.2987 24.9086 11.1987 24.9086Z" fill="#323232"/>
<path d="M9.59839 2.16028H4.89844V2.73628H9.59839V2.16028Z" fill="white"/>
<path d="M7.19922 24.7166C7.7515 24.7166 8.19922 24.2868 8.19922 23.7567C8.19922 23.2266 7.7515 22.7969 7.19922 22.7969C6.64693 22.7969 6.19922 23.2266 6.19922 23.7567C6.19922 24.2868 6.64693 24.7166 7.19922 24.7166Z" fill="white"/>
</svg>
