<svg width="14" height="14" viewBox="0 0 14 14" fill="none" xmlns="http://www.w3.org/2000/svg">
<path d="M0 3.73524L0.000328064 3.71905C0.037488 2.77783 0.823566 1.92271 2.21375 1.31122C3.50503 0.743233 5.20483 0.43042 7 0.43042C8.81666 0.43042 10.531 0.749713 11.8272 1.32948C13.2283 1.9562 14 2.82937 14 3.78812V6.12484H12.309L13.772 10.7213V13.5686H0.227993V10.7213L1.69096 6.12484H0V3.73524ZM1.04831 10.8487V12.7483H12.9517V10.8487L11.4482 6.12481H9.3438V4.24865C8.60899 4.10507 7.82912 4.03239 7.02056 4.03239C6.19601 4.03239 5.40228 4.10772 4.6562 4.25658V6.12481H2.5518L1.04831 10.8487ZM0.820312 5.3045H3.83589V3.59959L4.15332 3.52592C5.05094 3.31765 6.0156 3.21205 7.02054 3.21205C8.00838 3.21205 8.95869 3.31439 9.84501 3.51624L10.1641 3.58892V5.30447H13.1797V3.78807C13.1797 3.18112 12.5646 2.55793 11.4922 2.07826C10.2991 1.54465 8.70376 1.25073 7 1.25073C5.31601 1.25073 3.73352 1.53888 2.54403 2.06208C1.47656 2.53165 0.848914 3.14432 0.820312 3.7441V5.3045Z" fill="#F76600"/>
<path d="M6.99904 6.11499C8.47716 6.11499 9.67969 7.31754 9.67969 8.79566C9.67969 10.2738 8.47714 11.4763 6.99904 11.4763C5.52095 11.4763 4.3184 10.2738 4.3184 8.79566C4.3184 7.31754 5.52092 6.11499 6.99904 6.11499ZM6.99904 10.656C8.02484 10.656 8.85938 9.82144 8.85938 8.79564C8.85938 7.76983 8.02482 6.93528 6.99904 6.93528C5.97327 6.93528 5.13871 7.76983 5.13871 8.79564C5.13871 9.82144 5.97324 10.656 6.99904 10.656Z" fill="#F76600"/>
</svg>
