<svg width="10" height="14" viewBox="0 0 10 14" fill="none" xmlns="http://www.w3.org/2000/svg">
<path d="M5 0C2.28608 0 0.078125 2.20795 0.078125 4.92188C0.078125 5.83882 0.332121 6.73367 0.812824 7.51002L4.71984 13.8061C4.79468 13.9267 4.92653 14 5.06833 14C5.06943 14 5.07049 14 5.07159 14C5.21462 13.9989 5.34675 13.9233 5.42022 13.8006L9.22764 7.44352C9.68182 6.68358 9.92188 5.81161 9.92188 4.92188C9.92188 2.20795 7.71392 0 5 0ZM8.52368 7.02237L5.06213 12.802L1.51004 7.07782C1.10991 6.43163 0.892969 5.68613 0.892969 4.92188C0.892969 2.66027 2.7384 0.814844 5 0.814844C7.2616 0.814844 9.1043 2.66027 9.1043 4.92188C9.1043 5.66347 8.90165 6.38991 8.52368 7.02237Z" fill="#F76600"/>
<path d="M5 2.46094C3.64304 2.46094 2.53906 3.56491 2.53906 4.92188C2.53906 6.27017 3.62507 7.38281 5 7.38281C6.39188 7.38281 7.46094 6.25535 7.46094 4.92188C7.46094 3.56491 6.35696 2.46094 5 2.46094ZM5 6.56797C4.09063 6.56797 3.35391 5.82879 3.35391 4.92188C3.35391 4.01723 4.09536 3.27578 5 3.27578C5.90464 3.27578 6.64336 4.01723 6.64336 4.92188C6.64336 5.81555 5.92378 6.56797 5 6.56797Z" fill="#F76600"/>
</svg>
