<svg width="19" height="25" viewBox="0 0 19 25" fill="none" xmlns="http://www.w3.org/2000/svg">
<path d="M9.30035 0.161011C4.40035 0.161011 0.400391 4.04882 0.400391 8.81151C0.400391 10.3667 0.900378 12.0191 1.70038 13.3799L8.80035 24.4604C9.00035 24.6548 9.20035 24.8491 9.30035 24.8491C9.50035 24.8491 9.80035 24.6548 9.80035 24.4604L16.7004 13.1854C17.6004 11.7274 18.0004 10.3667 18.0004 8.81151C18.2004 4.04882 14.2004 0.161011 9.30035 0.161011ZM15.7004 12.5051L9.40039 22.7108L2.90039 12.6994C2.20039 11.6302 1.80035 10.2695 1.80035 8.81151C1.80035 4.72921 5.10038 1.61898 9.20038 1.61898C13.3004 1.61898 16.6003 4.8264 16.6003 8.81151C16.8003 10.2695 16.4004 11.4359 15.7004 12.5051Z" fill="#323232" stroke="white" stroke-width="0.3" stroke-miterlimit="10"/>
<path d="M9.30078 4.63208C6.80078 4.63208 4.80078 6.57603 4.80078 9.00598C4.80078 11.3387 6.80078 13.3799 9.30078 13.3799C11.8008 13.3799 13.8008 11.4359 13.8008 9.00598C13.8008 6.57603 11.9008 4.63208 9.30078 4.63208ZM9.30078 11.8247C7.70078 11.8247 6.40082 10.5611 6.40082 9.00598C6.40082 7.45081 7.70078 6.18722 9.30078 6.18722C10.9008 6.18722 12.2008 7.45081 12.2008 9.00598C12.2008 10.3667 11.0008 11.8247 9.30078 11.8247Z" fill="#323232" stroke="white" stroke-width="0.3" stroke-miterlimit="10"/>
</svg>
