<svg width="13" height="13" viewBox="0 0 13 13" fill="none" xmlns="http://www.w3.org/2000/svg">
<g clip-path="url(#clip0)">
<path d="M11.0962 1.9038C9.86852 0.676125 8.23628 0 6.5001 0H6.4999C4.76372 0 3.13148 0.676125 1.9038 1.9038C0.676125 3.13148 0 4.76382 0 6.5C0 8.23618 0.676125 9.86852 1.9038 11.0962C3.13148 12.3239 4.76382 13 6.5 13C8.23618 13 9.86852 12.3239 11.0962 11.0962C12.3239 9.86852 13 8.23618 13 6.5C13 4.76382 12.3239 3.13148 11.0962 1.9038ZM11.5208 9.27561H9.61839C9.87328 8.52877 10.0268 7.72014 10.0626 6.88086H12.2253C12.1685 7.74493 11.9195 8.55724 11.5208 9.27561ZM6.5 12.1819C5.68929 11.6995 5.01693 10.9518 4.53332 10.0373H8.46668C7.98307 10.9518 7.31071 11.6995 6.5 12.1819ZM4.18906 9.27561C3.90897 8.54077 3.73917 7.72936 3.69989 6.88086H9.30011C9.26083 7.72936 9.09093 8.54077 8.81084 9.27561H4.18906ZM0.774712 6.88086H2.93738C2.97318 7.72014 3.12672 8.52877 3.38161 9.27561H1.4792C1.08049 8.55724 0.831543 7.74493 0.774712 6.88086ZM1.4792 3.72439H3.38161C3.12672 4.47123 2.97318 5.27986 2.93738 6.11914H0.774712C0.831543 5.25507 1.08049 4.44276 1.4792 3.72439ZM6.5 0.818054C7.31071 1.30048 7.98307 2.04821 8.46668 2.96267H4.53332C5.01693 2.04821 5.68929 1.30048 6.5 0.818054ZM8.81094 3.72439C9.09103 4.45923 9.26083 5.27064 9.30011 6.11914H3.69989C3.73917 5.27064 3.90907 4.45923 4.18916 3.72439H8.81094ZM12.2253 6.11914H10.0626C10.0268 5.27986 9.87328 4.47123 9.61839 3.72439H11.5208C11.9195 4.44276 12.1685 5.25507 12.2253 6.11914ZM9.3134 2.96267C8.95139 2.18072 8.46976 1.48972 7.89153 0.932709C9.14658 1.24652 10.2395 1.97442 11.0154 2.96267H9.3134ZM5.10847 0.932709C4.53024 1.48972 4.04861 2.18072 3.6866 2.96267H1.98463C2.76054 1.97442 3.85342 1.24652 5.10847 0.932709ZM3.6866 10.0373C4.04861 10.8193 4.53024 11.5103 5.10847 12.0673C3.85342 11.7535 2.76054 11.0256 1.98463 10.0373H3.6866ZM7.89153 12.0673C8.46976 11.5103 8.95139 10.8192 9.3134 10.0373H11.0154C10.2395 11.0256 9.14658 11.7535 7.89153 12.0673Z" fill="#F76600"/>
</g>
<defs>
<clipPath id="clip0">
<rect width="13" height="13" fill="white"/>
</clipPath>
</defs>
</svg>
