<svg width="28" height="22" viewBox="0 0 28 22" fill="none" xmlns="http://www.w3.org/2000/svg">
<mask id="path-1-inside-1" fill="white">
<path d="M22.1682 17.6712C21.297 16.3643 20.8364 14.8433 20.8364 13.2725V8.8125C20.8364 6.98211 20.1224 5.26246 18.8258 3.97036C17.7256 2.87398 16.319 2.19854 14.7995 2.02283V0.335938H13.1589V2.02906C9.78688 2.44983 7.16456 5.36478 7.16456 8.8778V13.2726C7.16456 14.8433 6.70404 16.3644 5.83276 17.6712L4.26465 20.0234H11.6807C12.0193 20.9782 12.9311 21.6641 14.0005 21.6641C15.0699 21.6641 15.9817 20.9782 16.3203 20.0234H23.7364L22.1682 17.6712ZM7.32666 18.3828C8.29468 16.851 8.80519 15.0893 8.80519 13.2725V8.87774C8.80519 5.98691 11.1275 3.62703 13.9821 3.61719C13.9882 3.61719 13.9944 3.61719 14.0006 3.61719C15.385 3.61719 16.6868 4.15493 17.6678 5.13247C18.6531 6.11444 19.1958 7.42136 19.1958 8.8125V13.2726C19.1958 15.0894 19.7062 16.851 20.6743 18.3828H7.32666Z"/>
</mask>
<path d="M22.1682 17.6712C21.297 16.3643 20.8364 14.8433 20.8364 13.2725V8.8125C20.8364 6.98211 20.1224 5.26246 18.8258 3.97036C17.7256 2.87398 16.319 2.19854 14.7995 2.02283V0.335938H13.1589V2.02906C9.78688 2.44983 7.16456 5.36478 7.16456 8.8778V13.2726C7.16456 14.8433 6.70404 16.3644 5.83276 17.6712L4.26465 20.0234H11.6807C12.0193 20.9782 12.9311 21.6641 14.0005 21.6641C15.0699 21.6641 15.9817 20.9782 16.3203 20.0234H23.7364L22.1682 17.6712ZM7.32666 18.3828C8.29468 16.851 8.80519 15.0893 8.80519 13.2725V8.87774C8.80519 5.98691 11.1275 3.62703 13.9821 3.61719C13.9882 3.61719 13.9944 3.61719 14.0006 3.61719C15.385 3.61719 16.6868 4.15493 17.6678 5.13247C18.6531 6.11444 19.1958 7.42136 19.1958 8.8125V13.2726C19.1958 15.0894 19.7062 16.851 20.6743 18.3828H7.32666Z" fill="#333333" stroke="white" stroke-width="0.2" mask="url(#path-1-inside-1)"/>
<mask id="path-2-inside-2" fill="white">
<path d="M25.6767 5.39453L24.5166 6.55462C25.7045 7.74249 26.3586 9.32181 26.3586 11.0017C26.3586 12.6447 25.729 14.1991 24.5857 15.3786L25.7638 16.5205C27.2053 15.0333 27.9993 13.0733 27.9993 11.0017C27.9993 8.88359 27.1744 6.89226 25.6767 5.39453Z"/>
</mask>
<path d="M25.6767 5.39453L24.5166 6.55462C25.7045 7.74249 26.3586 9.32181 26.3586 11.0017C26.3586 12.6447 25.729 14.1991 24.5857 15.3786L25.7638 16.5205C27.2053 15.0333 27.9993 13.0733 27.9993 11.0017C27.9993 8.88359 27.1744 6.89226 25.6767 5.39453Z" fill="#333333" stroke="white" stroke-width="0.2" mask="url(#path-2-inside-2)"/>
<mask id="path-3-inside-3" fill="white">
<path d="M23.3574 7.71484L22.1973 8.87498C22.7654 9.44302 23.0782 10.1983 23.0782 11.0018C23.0782 11.7927 22.7737 12.5396 22.2207 13.1048L23.3935 14.2521C24.2482 13.3784 24.7189 12.2241 24.7189 11.0018C24.7189 9.7601 24.2353 8.5928 23.3574 7.71484Z"/>
</mask>
<path d="M23.3574 7.71484L22.1973 8.87498C22.7654 9.44302 23.0782 10.1983 23.0782 11.0018C23.0782 11.7927 22.7737 12.5396 22.2207 13.1048L23.3935 14.2521C24.2482 13.3784 24.7189 12.2241 24.7189 11.0018C24.7189 9.7601 24.2353 8.5928 23.3574 7.71484Z" fill="#333333" stroke="white" stroke-width="0.2" mask="url(#path-3-inside-3)"/>
<mask id="path-4-inside-4" fill="white">
<path d="M3.48266 6.55462L2.32258 5.39453C0.824852 6.89226 0 8.88359 0 11.0017C0 13.0733 0.793953 15.0333 2.23552 16.5205L3.41354 15.3786C2.2703 14.1991 1.64063 12.6447 1.64063 11.0017C1.64063 9.32181 2.2948 7.74249 3.48266 6.55462Z"/>
</mask>
<path d="M3.48266 6.55462L2.32258 5.39453C0.824852 6.89226 0 8.88359 0 11.0017C0 13.0733 0.793953 15.0333 2.23552 16.5205L3.41354 15.3786C2.2703 14.1991 1.64063 12.6447 1.64063 11.0017C1.64063 9.32181 2.2948 7.74249 3.48266 6.55462Z" fill="#333333" stroke="white" stroke-width="0.2" mask="url(#path-4-inside-4)"/>
<mask id="path-5-inside-5" fill="white">
<path d="M5.80284 8.87108L4.64275 7.71094C3.7648 8.58889 3.28125 9.75625 3.28125 10.9979C3.28125 12.2203 3.75189 13.3746 4.60655 14.2483L5.77932 13.101C5.22638 12.5357 4.92188 11.7889 4.92188 10.9979C4.92188 10.1945 5.23474 9.43917 5.80284 8.87108Z"/>
</mask>
<path d="M5.80284 8.87108L4.64275 7.71094C3.7648 8.58889 3.28125 9.75625 3.28125 10.9979C3.28125 12.2203 3.75189 13.3746 4.60655 14.2483L5.77932 13.101C5.22638 12.5357 4.92188 11.7889 4.92188 10.9979C4.92188 10.1945 5.23474 9.43917 5.80284 8.87108Z" fill="#333333" stroke="white" stroke-width="0.2" mask="url(#path-5-inside-5)"/>
</svg>
