<svg width="366" height="146" viewBox="0 0 366 146" fill="none" xmlns="http://www.w3.org/2000/svg">
<path d="M158.507 144.664C157.643 144.358 156.696 144.811 156.39 145.674C156.085 146.538 156.537 147.486 157.401 147.791C158.265 148.096 159.212 147.644 159.518 146.78C159.823 145.917 159.371 144.969 158.507 144.664Z" fill="#E2E2E2"/>
<path d="M172.689 143.646C172.073 143.428 171.396 143.751 171.178 144.368C170.959 144.985 171.283 145.662 171.9 145.88C172.517 146.098 173.193 145.775 173.412 145.158C173.63 144.541 173.306 143.864 172.689 143.646Z" fill="#E2E2E2"/>
<path d="M187.082 143.457C186.465 143.239 185.788 143.562 185.57 144.179C185.352 144.796 185.675 145.473 186.292 145.691C186.909 145.909 187.586 145.586 187.804 144.969C188.022 144.352 187.699 143.675 187.082 143.457Z" fill="#E2E2E2"/>
<path d="M201.381 144.24C200.887 144.066 200.346 144.325 200.171 144.818C199.997 145.312 200.256 145.853 200.749 146.028C201.243 146.202 201.784 145.943 201.959 145.45C202.133 144.956 201.874 144.415 201.381 144.24Z" fill="#E2E2E2"/>
<path d="M215.509 146.22C215.139 146.089 214.733 146.283 214.602 146.653C214.471 147.023 214.665 147.429 215.035 147.56C215.405 147.691 215.811 147.497 215.942 147.127C216.073 146.757 215.879 146.351 215.509 146.22Z" fill="#E2E2E2"/>
<path d="M98.0205 145.142C97.527 144.968 96.9855 145.227 96.811 145.72C96.6365 146.214 96.8951 146.755 97.3886 146.93C97.8822 147.104 98.4237 146.846 98.5982 146.352C98.7727 145.858 98.514 145.317 98.0205 145.142Z" fill="#E2E2E2"/>
<path d="M111.299 140.287C110.929 140.156 110.523 140.35 110.392 140.72C110.261 141.09 110.455 141.497 110.825 141.627C111.195 141.758 111.601 141.564 111.732 141.194C111.863 140.824 111.669 140.418 111.299 140.287Z" fill="#E2E2E2"/>
<path d="M125.022 135.589C124.406 135.371 123.729 135.694 123.511 136.311C123.292 136.928 123.616 137.605 124.233 137.823C124.85 138.041 125.526 137.718 125.745 137.101C125.963 136.484 125.639 135.807 125.022 135.589Z" fill="#E2E2E2"/>
<path d="M139.18 131.799C138.316 131.493 137.368 131.946 137.063 132.81C136.758 133.673 137.21 134.621 138.074 134.926C138.938 135.232 139.885 134.779 140.191 133.915C140.496 133.052 140.043 132.104 139.18 131.799Z" fill="#E2E2E2"/>
<path d="M153.548 128.836C152.438 128.444 151.219 129.026 150.827 130.136C150.434 131.246 151.016 132.465 152.126 132.857C153.237 133.25 154.455 132.668 154.848 131.558C155.24 130.447 154.658 129.229 153.548 128.836Z" fill="#E2E2E2"/>
<path d="M167.507 127.74C166.643 127.435 165.696 127.887 165.39 128.751C165.085 129.614 165.537 130.562 166.401 130.867C167.265 131.173 168.212 130.72 168.518 129.857C168.823 128.993 168.371 128.045 167.507 127.74Z" fill="#E2E2E2"/>
<path d="M182.07 126.355C180.837 125.919 179.483 126.565 179.047 127.799C178.61 129.033 179.257 130.386 180.491 130.823C181.724 131.259 183.078 130.612 183.514 129.379C183.951 128.145 183.304 126.791 182.07 126.355Z" fill="#E2E2E2"/>
<path d="M196.527 126.691C195.294 126.255 193.94 126.902 193.504 128.135C193.067 129.369 193.714 130.723 194.948 131.159C196.181 131.595 197.535 130.949 197.971 129.715C198.408 128.481 197.761 127.128 196.527 126.691Z" fill="#E2E2E2"/>
<path d="M210.433 128.592C209.692 128.33 208.88 128.718 208.618 129.458C208.357 130.198 208.745 131.011 209.485 131.272C210.225 131.534 211.037 131.146 211.299 130.406C211.561 129.666 211.173 128.853 210.433 128.592Z" fill="#E2E2E2"/>
<path d="M224.705 130.873C223.965 130.612 223.153 131 222.891 131.74C222.629 132.48 223.017 133.292 223.757 133.554C224.498 133.816 225.31 133.428 225.572 132.688C225.833 131.947 225.445 131.135 224.705 130.873Z" fill="#E2E2E2"/>
<path d="M238.818 133.602C237.955 133.297 237.007 133.749 236.702 134.613C236.396 135.476 236.849 136.424 237.713 136.729C238.576 137.035 239.524 136.582 239.829 135.719C240.135 134.855 239.682 133.907 238.818 133.602Z" fill="#E2E2E2"/>
<path d="M252.381 137.894C251.764 137.676 251.087 137.999 250.869 138.616C250.651 139.233 250.974 139.91 251.591 140.128C252.208 140.346 252.885 140.023 253.103 139.406C253.321 138.789 252.998 138.112 252.381 137.894Z" fill="#E2E2E2"/>
<path d="M266.166 142.265C265.302 141.96 264.355 142.413 264.049 143.276C263.744 144.14 264.197 145.088 265.06 145.393C265.924 145.698 266.872 145.246 267.177 144.382C267.482 143.518 267.03 142.571 266.166 142.265Z" fill="#E2E2E2"/>
<path d="M66.9648 142.707C66.5947 142.576 66.1886 142.77 66.0577 143.14C65.9268 143.51 66.1208 143.917 66.4909 144.047C66.8611 144.178 67.2672 143.984 67.3981 143.614C67.529 143.244 67.335 142.838 66.9648 142.707Z" fill="#E2E2E2"/>
<path d="M79.5996 136.116C79.2295 135.985 78.8233 136.179 78.6925 136.549C78.5616 136.919 78.7556 137.326 79.1257 137.456C79.4958 137.587 79.902 137.393 80.0329 137.023C80.1637 136.653 79.9698 136.247 79.5996 136.116Z" fill="#E2E2E2"/>
<path d="M92.7598 129.46C92.0196 129.198 91.2073 129.586 90.9455 130.326C90.6838 131.066 91.0718 131.879 91.812 132.14C92.5523 132.402 93.3645 132.014 93.6262 131.274C93.888 130.534 93.5001 129.721 92.7598 129.46Z" fill="#E2E2E2"/>
<path d="M106.339 124.46C105.599 124.198 104.786 124.586 104.525 125.326C104.263 126.066 104.651 126.879 105.391 127.14C106.131 127.402 106.944 127.014 107.205 126.274C107.467 125.534 107.079 124.721 106.339 124.46Z" fill="#E2E2E2"/>
<path d="M120.142 119.538C119.031 119.146 117.813 119.728 117.42 120.838C117.028 121.949 117.61 123.167 118.72 123.56C119.83 123.952 121.049 123.37 121.441 122.26C121.834 121.149 121.252 119.931 120.142 119.538Z" fill="#E2E2E2"/>
<path d="M134.221 115.971C133.11 115.579 131.892 116.161 131.499 117.271C131.107 118.381 131.689 119.6 132.799 119.992C133.909 120.385 135.128 119.803 135.52 118.693C135.913 117.582 135.331 116.364 134.221 115.971Z" fill="#E2E2E2"/>
<path d="M148.523 112.483C146.919 111.916 145.159 112.757 144.592 114.361C144.025 115.964 144.865 117.724 146.469 118.291C148.073 118.859 149.833 118.018 150.4 116.414C150.967 114.81 150.126 113.05 148.523 112.483Z" fill="#E2E2E2"/>
<path d="M162.561 111.164C161.203 110.684 159.714 111.395 159.234 112.752C158.755 114.109 159.466 115.598 160.823 116.078C162.18 116.558 163.669 115.847 164.149 114.49C164.629 113.133 163.918 111.643 162.561 111.164Z" fill="#E2E2E2"/>
<path d="M176.887 110.448C175.653 110.012 174.299 110.659 173.863 111.893C173.427 113.126 174.073 114.48 175.307 114.916C176.541 115.353 177.895 114.706 178.331 113.472C178.767 112.238 178.121 110.885 176.887 110.448Z" fill="#E2E2E2"/>
<path d="M191.2 110.483C189.966 110.047 188.613 110.693 188.176 111.927C187.74 113.161 188.387 114.514 189.621 114.951C190.854 115.387 192.208 114.74 192.644 113.507C193.081 112.273 192.434 110.919 191.2 110.483Z" fill="#E2E2E2"/>
<path d="M205.5 111.266C204.266 110.83 202.912 111.476 202.476 112.71C202.04 113.944 202.687 115.298 203.92 115.734C205.154 116.17 206.508 115.524 206.944 114.29C207.38 113.056 206.734 111.702 205.5 111.266Z" fill="#E2E2E2"/>
<path d="M219.628 113.246C218.641 112.897 217.558 113.414 217.209 114.401C216.86 115.388 217.377 116.471 218.364 116.82C219.351 117.169 220.434 116.652 220.783 115.665C221.132 114.678 220.615 113.595 219.628 113.246Z" fill="#E2E2E2"/>
<path d="M233.664 116.197C232.8 115.892 231.853 116.344 231.547 117.208C231.242 118.072 231.695 119.019 232.558 119.325C233.422 119.63 234.37 119.177 234.675 118.314C234.98 117.45 234.528 116.503 233.664 116.197Z" fill="#E2E2E2"/>
<path d="M247.699 119.149C246.712 118.8 245.629 119.317 245.28 120.304C244.931 121.291 245.448 122.374 246.436 122.723C247.423 123.072 248.506 122.555 248.855 121.568C249.204 120.581 248.686 119.498 247.699 119.149Z" fill="#E2E2E2"/>
<path d="M261.419 122.995C260.309 122.602 259.09 123.184 258.698 124.295C258.305 125.405 258.887 126.623 259.997 127.016C261.108 127.409 262.326 126.827 262.719 125.716C263.111 124.606 262.529 123.387 261.419 122.995Z" fill="#E2E2E2"/>
<path d="M275.125 127.589C273.768 127.109 272.279 127.821 271.799 129.178C271.319 130.535 272.03 132.024 273.387 132.504C274.745 132.984 276.234 132.273 276.714 130.915C277.193 129.558 276.482 128.069 275.125 127.589Z" fill="#E2E2E2"/>
<path d="M288.133 133.445C286.776 132.966 285.287 133.677 284.807 135.034C284.327 136.391 285.038 137.88 286.395 138.36C287.752 138.84 289.242 138.129 289.721 136.772C290.201 135.414 289.49 133.925 288.133 133.445Z" fill="#E2E2E2"/>
<path d="M301.063 139.525C299.459 138.958 297.699 139.798 297.132 141.402C296.565 143.006 297.405 144.766 299.009 145.333C300.613 145.9 302.373 145.06 302.94 143.456C303.507 141.852 302.666 140.092 301.063 139.525Z" fill="#E2E2E2"/>
<path d="M313.597 146.721C311.87 146.11 309.974 147.016 309.363 148.743C308.753 150.47 309.658 152.365 311.385 152.976C313.112 153.587 315.008 152.682 315.618 150.954C316.229 149.227 315.324 147.332 313.597 146.721Z" fill="#E2E2E2"/>
<path d="M37.3007 142.02C36.5605 141.758 35.7482 142.146 35.4864 142.887C35.2247 143.627 35.6127 144.439 36.353 144.701C37.0932 144.963 37.9055 144.575 38.1673 143.834C38.429 143.094 38.041 142.282 37.3007 142.02Z" fill="#E2E2E2"/>
<path d="M49.2783 134.443C48.7848 134.269 48.2433 134.527 48.0688 135.021C47.8943 135.514 48.1529 136.056 48.6464 136.23C49.14 136.405 49.6815 136.146 49.856 135.653C50.0305 135.159 49.7718 134.618 49.2783 134.443Z" fill="#E2E2E2"/>
<path d="M61.7813 126.801C61.0411 126.539 60.2288 126.927 59.967 127.667C59.7053 128.407 60.0932 129.22 60.8335 129.481C61.5738 129.743 62.386 129.355 62.6477 128.615C62.9095 127.875 62.5216 127.062 61.7813 126.801Z" fill="#E2E2E2"/>
<path d="M74.4952 119.986C73.6316 119.681 72.6839 120.134 72.3786 120.997C72.0732 121.861 72.5258 122.809 73.3894 123.114C74.253 123.419 75.2007 122.967 75.506 122.103C75.8114 121.239 75.3588 120.292 74.4952 119.986Z" fill="#E2E2E2"/>
<path d="M87.5626 114.302C86.8223 114.041 86.0101 114.429 85.7483 115.169C85.4866 115.909 85.8745 116.721 86.6148 116.983C87.355 117.245 88.1672 116.857 88.429 116.117C88.6907 115.376 88.3028 114.564 87.5626 114.302Z" fill="#E2E2E2"/>
<path d="M101.537 108.186C100.18 107.706 98.6909 108.417 98.211 109.774C97.7312 111.131 98.4424 112.62 99.7995 113.1C101.157 113.58 102.646 112.869 103.126 111.512C103.605 110.155 102.894 108.665 101.537 108.186Z" fill="#E2E2E2"/>
<path d="M115.104 103.935C113.746 103.455 112.257 104.166 111.777 105.523C111.298 106.88 112.009 108.369 113.366 108.849C114.723 109.329 116.212 108.618 116.692 107.261C117.172 105.904 116.461 104.414 115.104 103.935Z" fill="#E2E2E2"/>
<path d="M128.96 100.288C127.603 99.8084 126.114 100.52 125.634 101.877C125.154 103.234 125.865 104.723 127.222 105.203C128.58 105.683 130.069 104.972 130.549 103.614C131.028 102.257 130.317 100.768 128.96 100.288Z" fill="#E2E2E2"/>
<path d="M143.103 97.2472C141.499 96.6801 139.739 97.5205 139.172 99.1244C138.605 100.728 139.445 102.488 141.049 103.055C142.653 103.622 144.413 102.782 144.98 101.178C145.547 99.5741 144.706 97.8142 143.103 97.2472Z" fill="#E2E2E2"/>
<path d="M157.614 94.587C155.64 93.889 153.474 94.9235 152.776 96.8976C152.078 98.8716 153.113 101.038 155.087 101.736C157.061 102.434 159.227 101.399 159.925 99.4251C160.623 97.451 159.588 95.2849 157.614 94.587Z" fill="#E2E2E2"/>
<path d="M171.639 94.0165C170.035 93.4495 168.275 94.29 167.708 95.8939C167.141 97.4978 167.981 99.2577 169.585 99.8248C171.189 100.392 172.949 99.5514 173.516 97.9475C174.083 96.3436 173.243 94.5836 171.639 94.0165Z" fill="#E2E2E2"/>
<path d="M186.031 93.8271C184.551 93.3036 182.926 94.0795 182.403 95.56C181.879 97.0405 182.655 98.6651 184.136 99.1885C185.616 99.712 187.241 98.9361 187.764 97.4556C188.288 95.9751 187.512 94.3506 186.031 93.8271Z" fill="#E2E2E2"/>
<path d="M200.488 94.1639C198.884 93.5968 197.125 94.4373 196.557 96.0412C195.99 97.6451 196.831 99.405 198.435 99.9721C200.039 100.539 201.799 99.6987 202.366 98.0948C202.933 96.4909 202.092 94.731 200.488 94.1639Z" fill="#E2E2E2"/>
<path d="M214.709 95.1706C212.982 94.5599 211.086 95.4651 210.476 97.1923C209.865 98.9196 210.77 100.815 212.498 101.426C214.225 102.036 216.12 101.131 216.731 99.4039C217.341 97.6766 216.436 95.7813 214.709 95.1706Z" fill="#E2E2E2"/>
<path d="M228.981 97.4522C227.378 96.8851 225.618 97.7256 225.051 99.3295C224.483 100.933 225.324 102.693 226.928 103.26C228.532 103.828 230.292 102.987 230.859 101.383C231.426 99.7792 230.585 98.0193 228.981 97.4522Z" fill="#E2E2E2"/>
<path d="M243.017 100.404C241.413 99.8371 239.653 100.678 239.086 102.281C238.519 103.885 239.359 105.645 240.963 106.212C242.567 106.779 244.327 105.939 244.894 104.335C245.461 102.731 244.621 100.971 243.017 100.404Z" fill="#E2E2E2"/>
<path d="M256.974 103.579C255.123 102.925 253.092 103.895 252.438 105.746C251.784 107.596 252.754 109.627 254.604 110.281C256.455 110.936 258.486 109.966 259.14 108.115C259.794 106.264 258.824 104.234 256.974 103.579Z" fill="#E2E2E2"/>
<path d="M270.535 107.872C268.685 107.217 266.654 108.187 266 110.038C265.345 111.889 266.315 113.919 268.166 114.574C270.016 115.228 272.047 114.258 272.701 112.407C273.356 110.557 272.386 108.526 270.535 107.872Z" fill="#E2E2E2"/>
<path d="M284.083 112.913C282.109 112.215 279.943 113.25 279.245 115.224C278.547 117.198 279.582 119.364 281.556 120.062C283.53 120.76 285.696 119.725 286.394 117.751C287.092 115.777 286.057 113.611 284.083 112.913Z" fill="#E2E2E2"/>
<path d="M297.014 118.993C295.163 118.338 293.132 119.308 292.478 121.159C291.824 123.009 292.794 125.04 294.644 125.694C296.495 126.349 298.526 125.379 299.18 123.528C299.834 121.678 298.864 119.647 297.014 118.993Z" fill="#E2E2E2"/>
<path d="M310.022 124.849C307.801 124.063 305.364 125.227 304.579 127.448C303.794 129.669 304.957 132.106 307.178 132.891C309.399 133.676 311.836 132.512 312.621 130.291C313.406 128.071 312.242 125.634 310.022 124.849Z" fill="#E2E2E2"/>
<path d="M322.32 132.715C320.346 132.017 318.18 133.052 317.482 135.026C316.784 137 317.819 139.166 319.793 139.864C321.767 140.562 323.933 139.527 324.631 137.553C325.329 135.579 324.294 133.413 322.32 132.715Z" fill="#E2E2E2"/>
<path d="M334.17 140.424C332.073 139.682 329.771 140.781 329.03 142.879C328.288 144.976 329.387 147.278 331.485 148.019C333.582 148.761 335.883 147.662 336.625 145.564C337.367 143.467 336.267 141.165 334.17 140.424Z" fill="#E2E2E2"/>
<path d="M9.41021 142.715C8.17645 142.278 6.82266 142.925 6.38644 144.159C5.95023 145.392 6.59676 146.746 7.83053 147.182C9.06429 147.619 10.4181 146.972 10.8543 145.738C11.2905 144.505 10.644 143.151 9.41021 142.715Z" fill="#E2E2E2"/>
<path d="M20.5869 133.849C19.3531 133.413 17.9993 134.059 17.5631 135.293C17.1269 136.527 17.7734 137.88 19.0072 138.317C20.241 138.753 21.5948 138.106 22.031 136.873C22.4673 135.639 21.8207 134.285 20.5869 133.849Z" fill="#E2E2E2"/>
<path d="M31.8155 126.258C31.0752 125.997 30.263 126.385 30.0012 127.125C29.7395 127.865 30.1274 128.677 30.8677 128.939C31.6079 129.201 32.4202 128.813 32.6819 128.073C32.9437 127.332 32.5557 126.52 31.8155 126.258Z" fill="#E2E2E2"/>
<path d="M44.1095 117.788C42.9991 117.395 41.7807 117.977 41.3881 119.087C40.9955 120.198 41.5774 121.416 42.6877 121.809C43.7981 122.201 45.0165 121.62 45.4091 120.509C45.8017 119.399 45.2198 118.18 44.1095 117.788Z" fill="#E2E2E2"/>
<path d="M56.5997 110.894C55.4893 110.502 54.2709 111.084 53.8783 112.194C53.4857 113.304 54.0676 114.523 55.178 114.915C56.2883 115.308 57.5067 114.726 57.8993 113.616C58.2919 112.505 57.7101 111.287 56.5997 110.894Z" fill="#E2E2E2"/>
<path d="M69.4571 104.383C68.3467 103.99 67.1283 104.572 66.7357 105.682C66.3431 106.793 66.925 108.011 68.0354 108.404C69.1458 108.796 70.3642 108.214 70.7568 107.104C71.1493 105.993 70.5675 104.775 69.4571 104.383Z" fill="#E2E2E2"/>
<path d="M82.6826 98.2515C81.3254 97.7717 79.8363 98.4829 79.3564 99.84C78.8766 101.197 79.5878 102.686 80.945 103.166C82.3021 103.646 83.7913 102.935 84.2712 101.578C84.751 100.221 84.0398 98.7314 82.6826 98.2515Z" fill="#E2E2E2"/>
<path d="M96.5782 92.358C94.7276 91.7036 92.6969 92.6735 92.0425 94.5241C91.3882 96.3747 92.358 98.4054 94.2087 99.0597C96.0593 99.7141 98.09 98.7443 98.7443 96.8936C99.3987 95.043 98.4288 93.0123 96.5782 92.358Z" fill="#E2E2E2"/>
<path d="M110.224 87.8837C108.373 87.2294 106.342 88.1992 105.688 90.0499C105.034 91.9005 106.004 93.9312 107.854 94.5855C109.705 95.2398 111.736 94.27 112.39 92.4194C113.044 90.5687 112.074 88.538 110.224 87.8837Z" fill="#E2E2E2"/>
<path d="M124.158 84.0143C122.184 83.3164 120.018 84.3508 119.32 86.3249C118.622 88.2989 119.657 90.4649 121.631 91.1629C123.605 91.8608 125.771 90.8264 126.469 88.8524C127.167 86.8783 126.132 84.7123 124.158 84.0143Z" fill="#E2E2E2"/>
<path d="M138.302 80.9727C136.204 80.2311 133.903 81.3302 133.161 83.4276C132.42 85.525 133.519 87.8265 135.616 88.568C137.714 89.3096 140.015 88.2105 140.757 86.1131C141.498 84.0157 140.399 81.7143 138.302 80.9727Z" fill="#E2E2E2"/>
<path d="M152.432 78.6805C150.211 77.8953 147.774 79.0591 146.989 81.2799C146.204 83.5007 147.367 85.9375 149.588 86.7227C151.809 87.5079 154.246 86.3441 155.031 84.1233C155.816 81.9025 154.653 79.4657 152.432 78.6805Z" fill="#E2E2E2"/>
<path d="M166.772 77.2164C164.551 76.4312 162.114 77.595 161.329 79.8158C160.544 82.0366 161.707 84.4734 163.928 85.2586C166.149 86.0438 168.586 84.88 169.371 82.6592C170.156 80.4384 168.992 78.0016 166.772 77.2164Z" fill="#E2E2E2"/>
<path d="M181.02 76.7248C178.799 75.9397 176.362 77.1034 175.577 79.3242C174.792 81.545 175.955 83.9818 178.176 84.767C180.397 85.5522 182.834 84.3884 183.619 82.1676C184.404 79.9468 183.24 77.51 181.02 76.7248Z" fill="#E2E2E2"/>
<path d="M195.714 76.3912C193.246 75.5188 190.539 76.8119 189.666 79.2794C188.794 81.7469 190.087 84.4545 192.555 85.3269C195.022 86.1994 197.73 84.9063 198.602 82.4388C199.475 79.9712 198.181 77.2637 195.714 76.3912Z" fill="#E2E2E2"/>
<path d="M209.936 77.3981C207.592 76.5693 205.019 77.7977 204.19 80.1419C203.362 82.4861 204.59 85.0583 206.934 85.8871C209.278 86.7159 211.851 85.4875 212.679 83.1433C213.508 80.7991 212.28 78.2269 209.936 77.3981Z" fill="#E2E2E2"/>
<path d="M224.064 79.3776C221.843 78.5924 219.406 79.7562 218.621 81.977C217.836 84.1978 218.999 86.6346 221.22 87.4198C223.441 88.205 225.878 87.0412 226.663 84.8204C227.448 82.5996 226.284 80.1628 224.064 79.3776Z" fill="#E2E2E2"/>
<path d="M238.099 82.3296C236.125 81.6316 233.959 82.6661 233.261 84.6401C232.563 86.6141 233.597 88.7801 235.571 89.4781C237.545 90.176 239.711 89.1416 240.409 87.1676C241.107 85.1936 240.073 83.0275 238.099 82.3296Z" fill="#E2E2E2"/>
<path d="M252.292 84.8345C250.071 84.0493 247.635 85.2132 246.849 87.434C246.064 89.6548 247.228 92.0916 249.449 92.8768C251.669 93.6619 254.106 92.4982 254.891 90.2774C255.677 88.0566 254.513 85.6197 252.292 84.8345Z" fill="#E2E2E2"/>
<path d="M266.012 88.6799C263.791 87.8947 261.354 89.0585 260.569 91.2793C259.784 93.5001 260.948 95.9369 263.168 96.7221C265.389 97.5073 267.826 96.3435 268.611 94.1227C269.396 91.9019 268.233 89.4651 266.012 88.6799Z" fill="#E2E2E2"/>
<path d="M279.639 93.4979C277.418 92.7127 274.981 93.8765 274.196 96.0973C273.411 98.3181 274.575 100.755 276.795 101.54C279.016 102.325 281.453 101.161 282.238 98.9407C283.023 96.7199 281.86 94.2831 279.639 93.4979Z" fill="#E2E2E2"/>
<path d="M293.042 98.2369C290.575 97.3645 287.867 98.6576 286.994 101.125C286.122 103.593 287.415 106.3 289.883 107.173C292.35 108.045 295.058 106.752 295.93 104.284C296.803 101.817 295.51 99.1094 293.042 98.2369Z" fill="#E2E2E2"/>
<path d="M305.734 104.986C303.637 104.245 301.336 105.344 300.594 107.441C299.852 109.539 300.952 111.84 303.049 112.582C305.146 113.323 307.448 112.224 308.189 110.127C308.931 108.029 307.832 105.728 305.734 104.986Z" fill="#E2E2E2"/>
<path d="M318.507 111.513C316.41 110.771 314.108 111.87 313.366 113.968C312.625 116.065 313.724 118.367 315.821 119.108C317.919 119.85 320.22 118.751 320.962 116.653C321.703 114.556 320.604 112.254 318.507 111.513Z" fill="#E2E2E2"/>
<path d="M331.12 118.486C328.776 117.657 326.204 118.885 325.375 121.229C324.546 123.574 325.775 126.146 328.119 126.975C330.463 127.803 333.035 126.575 333.864 124.231C334.693 121.887 333.464 119.315 331.12 118.486Z" fill="#E2E2E2"/>
<path d="M343.051 125.971C340.46 125.055 337.617 126.413 336.701 129.004C335.785 131.595 337.143 134.438 339.734 135.354C342.324 136.27 345.167 134.912 346.083 132.321C347 129.73 345.642 126.887 343.051 125.971Z" fill="#E2E2E2"/>
<path d="M354.506 134.796C352.038 133.924 349.331 135.217 348.458 137.685C347.586 140.152 348.879 142.86 351.347 143.732C353.814 144.605 356.522 143.311 357.394 140.844C358.267 138.376 356.973 135.669 354.506 134.796Z" fill="#E2E2E2"/>
<path d="M365.502 144.213C363.158 143.385 360.586 144.613 359.757 146.957C358.928 149.301 360.156 151.873 362.501 152.702C364.845 153.531 367.417 152.303 368.246 149.958C369.075 147.614 367.846 145.042 365.502 144.213Z" fill="#E2E2E2"/>
<path d="M3.2402 127.465C2.37655 127.159 1.42894 127.612 1.12359 128.476C0.818241 129.339 1.27079 130.287 2.13444 130.592C2.99809 130.898 3.94577 130.445 4.25112 129.581C4.55647 128.718 4.10385 127.77 3.2402 127.465Z" fill="#E2E2E2"/>
<path d="M14.3252 119.572C13.955 119.441 13.5489 119.635 13.4181 120.005C13.2872 120.375 13.4812 120.781 13.8513 120.912C14.2214 121.043 14.6276 120.849 14.7584 120.479C14.8893 120.109 14.6953 119.703 14.3252 119.572Z" fill="#E2E2E2"/>
<path d="M26.9483 109.458C25.4678 108.935 23.8432 109.711 23.3197 111.191C22.7963 112.672 23.5721 114.296 25.0527 114.82C26.5332 115.343 28.1577 114.567 28.6812 113.087C29.2047 111.606 28.4288 109.982 26.9483 109.458Z" fill="#E2E2E2"/>
<path d="M38.6895 102.552C37.5791 102.159 36.3607 102.741 35.9681 103.851C35.5755 104.962 36.1574 106.18 37.2678 106.573C38.3782 106.965 39.5966 106.383 39.9892 105.273C40.3818 104.163 39.7999 102.944 38.6895 102.552Z" fill="#E2E2E2"/>
<path d="M51.4952 94.7647C50.0147 94.2413 48.3901 95.0171 47.8667 96.4977C47.3432 97.9782 48.1191 99.6027 49.5996 100.126C51.0801 100.65 52.7046 99.8738 53.2281 98.3933C53.7515 96.9127 52.9757 95.2882 51.4952 94.7647Z" fill="#E2E2E2"/>
<path d="M64.5762 88.3318C62.9724 87.7647 61.2125 88.6052 60.6454 90.2091C60.0783 91.813 60.9188 93.5729 62.5227 94.14C64.1265 94.707 65.8865 93.8665 66.4535 92.2626C67.0206 90.6588 66.1801 88.8989 64.5762 88.3318Z" fill="#E2E2E2"/>
<path d="M77.8018 82.2009C75.9512 81.5465 73.9205 82.5164 73.2662 84.367C72.6119 86.2176 73.5817 88.2483 75.4323 88.9026C77.283 89.557 79.3136 88.5872 79.968 86.7365C80.6223 84.8859 79.6525 82.8552 77.8018 82.2009Z" fill="#E2E2E2"/>
<path d="M91.0011 77.5687C89.3972 77.0016 87.6373 77.8421 87.0702 79.446C86.5031 81.0499 87.3436 82.8098 88.9475 83.3769C90.5514 83.944 92.3113 83.1035 92.8784 81.4996C93.4454 79.8957 92.6049 78.1358 91.0011 77.5687Z" fill="#E2E2E2"/>
<path d="M105.264 72.0565C103.043 71.2714 100.606 72.4351 99.821 74.6559C99.0358 76.8767 100.2 79.3135 102.42 80.0987C104.641 80.8839 107.078 79.7201 107.863 77.4993C108.648 75.2786 107.485 72.8417 105.264 72.0565Z" fill="#E2E2E2"/>
<path d="M118.882 69.0806C117.031 68.4262 115.001 69.396 114.346 71.2466C113.692 73.0973 114.662 75.1279 116.512 75.7823C118.363 76.4366 120.394 75.4668 121.048 73.6162C121.702 71.7656 120.733 69.7349 118.882 69.0806Z" fill="#E2E2E2"/>
<path d="M132.961 65.5131C130.74 64.728 128.303 65.8917 127.518 68.1125C126.733 70.3333 127.897 72.7701 130.118 73.5553C132.338 74.3405 134.775 73.1767 135.56 70.956C136.346 68.7352 135.182 66.2983 132.961 65.5131Z" fill="#E2E2E2"/>
<path d="M147.315 63.2999C145.095 62.5147 142.658 63.6785 141.873 65.8993C141.088 68.1201 142.251 70.5569 144.472 71.3421C146.693 72.1273 149.13 70.9635 149.915 68.7427C150.7 66.5219 149.536 64.0851 147.315 63.2999Z" fill="#E2E2E2"/>
<path d="M161.511 61.5334C159.29 60.7482 156.853 61.912 156.068 64.1328C155.283 66.3536 156.447 68.7904 158.667 69.5756C160.888 70.3608 163.325 69.197 164.11 66.9762C164.895 64.7554 163.732 62.3186 161.511 61.5334Z" fill="#E2E2E2"/>
<path d="M175.916 60.5951C173.572 59.7663 171 60.9948 170.171 63.339C169.342 65.6831 170.571 68.2553 172.915 69.0841C175.259 69.9129 177.831 68.6845 178.66 66.3404C179.489 63.9962 178.26 61.424 175.916 60.5951Z" fill="#E2E2E2"/>
<path d="M190.388 60.1828C187.92 59.3104 185.213 60.6034 184.34 63.0709C183.468 65.5384 184.761 68.246 187.228 69.1184C189.696 69.9909 192.404 68.6978 193.276 66.2303C194.148 63.7628 192.855 61.0552 190.388 60.1828Z" fill="#E2E2E2"/>
<path d="M204.845 60.519C202.254 59.603 199.411 60.9607 198.495 63.5516C197.579 66.1426 198.937 68.9856 201.527 69.9016C204.118 70.8177 206.961 69.4599 207.877 66.869C208.794 64.2781 207.436 61.4351 204.845 60.519Z" fill="#E2E2E2"/>
<path d="M219.066 61.526C216.351 60.5663 213.373 61.9887 212.413 64.703C211.454 67.4173 212.876 70.3957 215.59 71.3554C218.305 72.315 221.283 70.8926 222.243 68.1783C223.202 65.464 221.78 62.4857 219.066 61.526Z" fill="#E2E2E2"/>
<path d="M233.259 64.0312C230.791 63.1588 228.084 64.4519 227.211 66.9194C226.339 69.3869 227.632 72.0945 230.1 72.9669C232.567 73.8394 235.275 72.5463 236.147 70.0788C237.019 67.6113 235.726 64.9037 233.259 64.0312Z" fill="#E2E2E2"/>
<path d="M247.15 66.6806C244.682 65.8082 241.974 67.1013 241.102 69.5688C240.23 72.0363 241.523 74.7439 243.99 75.6164C246.458 76.4888 249.165 75.1957 250.038 72.7282C250.91 70.2606 249.617 67.553 247.15 66.6806Z" fill="#E2E2E2"/>
<path d="M261.251 70.1584C258.784 69.286 256.076 70.5791 255.204 73.0466C254.331 75.5141 255.624 78.2217 258.092 79.0941C260.559 79.9666 263.267 78.6735 264.139 76.206C265.012 73.7384 263.719 71.0309 261.251 70.1584Z" fill="#E2E2E2"/>
<path d="M274.813 74.4505C272.468 73.6217 269.896 74.8501 269.067 77.1943C268.239 79.5385 269.467 82.1107 271.811 82.9395C274.155 83.7683 276.728 82.5398 277.556 80.1957C278.385 77.8515 277.157 75.2793 274.813 74.4505Z" fill="#E2E2E2"/>
<path d="M288.597 78.8218C286.006 77.9058 283.163 79.2635 282.247 81.8544C281.331 84.4453 282.689 87.2883 285.279 88.2044C287.87 89.1204 290.713 87.7627 291.629 85.1718C292.545 82.5808 291.188 79.7379 288.597 78.8218Z" fill="#E2E2E2"/>
<path d="M301.685 84.4545C299.217 83.582 296.51 84.8751 295.637 87.3426C294.765 89.8102 296.058 92.5177 298.525 93.3902C300.993 94.2626 303.7 92.9695 304.573 90.502C305.445 88.0345 304.152 85.3269 301.685 84.4545Z" fill="#E2E2E2"/>
<path d="M314.614 90.5338C312.147 89.6614 309.439 90.9545 308.567 93.422C307.694 95.8895 308.987 98.5971 311.455 99.4695C313.923 100.342 316.63 99.0489 317.503 96.5813C318.375 94.1138 317.082 91.4062 314.614 90.5338Z" fill="#E2E2E2"/>
<path d="M327.229 97.5067C324.884 96.6779 322.312 97.9063 321.483 100.25C320.655 102.595 321.883 105.167 324.227 105.996C326.571 106.824 329.144 105.596 329.972 103.252C330.801 100.908 329.573 98.3355 327.229 97.5067Z" fill="#E2E2E2"/>
<path d="M339.842 104.48C337.251 103.564 334.408 104.922 333.492 107.513C332.576 110.104 333.934 112.947 336.525 113.863C339.115 114.779 341.958 113.421 342.874 110.83C343.791 108.239 342.433 105.396 339.842 104.48Z" fill="#E2E2E2"/>
<path d="M351.614 112.412C349.023 111.496 346.181 112.853 345.264 115.444C344.348 118.035 345.706 120.878 348.297 121.794C350.888 122.71 353.731 121.353 354.647 118.762C355.563 116.171 354.205 113.328 351.614 112.412Z" fill="#E2E2E2"/>
<path d="M363.149 121.014C360.558 120.098 357.715 121.456 356.799 124.046C355.883 126.637 357.24 129.48 359.831 130.396C362.422 131.312 365.265 129.955 366.181 127.364C367.097 124.773 365.739 121.93 363.149 121.014Z" fill="#E2E2E2"/>
<path d="M8.76073 104.033C8.3906 103.902 7.98448 104.096 7.85361 104.466C7.72274 104.836 7.91668 105.243 8.28681 105.374C8.65694 105.504 9.06312 105.31 9.19399 104.94C9.32486 104.57 9.13086 104.164 8.76073 104.033Z" fill="#E2E2E2"/>
<path d="M20.5939 96.1548C20.3474 96.0677 20.077 96.1969 19.9898 96.4434C19.9027 96.6898 20.0318 96.9603 20.2783 97.0474C20.5248 97.1345 20.7953 97.0054 20.8824 96.7589C20.9695 96.5125 20.8404 96.242 20.5939 96.1548Z" fill="#E2E2E2"/>
<path d="M32.9531 88.2091C32.4596 88.0346 31.9181 88.2932 31.7436 88.7867C31.5691 89.2802 31.8277 89.8217 32.3212 89.9962C32.8147 90.1707 33.3563 89.9121 33.5308 89.4186C33.7053 88.9251 33.4466 88.3835 32.9531 88.2091Z" fill="#E2E2E2"/>
<path d="M45.668 81.3945C45.1744 81.22 44.6329 81.4786 44.4584 81.9721C44.2839 82.4656 44.5426 83.0071 45.0361 83.1816C45.5296 83.3561 46.0711 83.0975 46.2456 82.604C46.4201 82.1105 46.1615 81.569 45.668 81.3945Z" fill="#E2E2E2"/>
<path d="M58.7617 74.2123C57.7747 73.8634 56.6917 74.3806 56.3427 75.3676C55.9937 76.3546 56.511 77.4376 57.498 77.7866C58.485 78.1356 59.568 77.6184 59.917 76.6313C60.266 75.6443 59.7487 74.5613 58.7617 74.2123Z" fill="#E2E2E2"/>
<path d="M72.2901 67.9374C70.933 67.4576 69.4438 68.1688 68.964 69.526C68.4841 70.8831 69.1953 72.3723 70.5525 72.8521C71.9096 73.332 73.3988 72.6208 73.8786 71.2636C74.3584 69.9065 73.6472 68.4173 72.2901 67.9374Z" fill="#E2E2E2"/>
<path d="M85.6465 62.8585C84.2894 62.3787 82.8002 63.0899 82.3203 64.447C81.8405 65.8041 82.5517 67.2933 83.9089 67.7731C85.266 68.253 86.7552 67.5418 87.235 66.1847C87.7149 64.8275 87.0037 63.3384 85.6465 62.8585Z" fill="#E2E2E2"/>
<path d="M99.752 57.7927C97.9014 57.1383 95.8707 58.1081 95.2164 59.9588C94.5621 61.8094 95.5319 63.8401 97.3825 64.4944C99.2332 65.1488 101.264 64.179 101.918 62.3283C102.572 60.4777 101.603 58.447 99.752 57.7927Z" fill="#E2E2E2"/>
<path d="M113.687 53.9234C111.836 53.269 109.805 54.2389 109.151 56.0895C108.497 57.9402 109.466 59.9709 111.317 60.6252C113.168 61.2795 115.198 60.3097 115.853 58.459C116.507 56.6084 115.537 54.5777 113.687 53.9234Z" fill="#E2E2E2"/>
<path d="M127.527 51.0263C125.8 50.4155 123.905 51.3207 123.294 53.048C122.683 54.7753 123.589 56.6706 125.316 57.2813C127.043 57.892 128.938 56.9869 129.549 55.2596C130.16 53.5323 129.255 51.637 127.527 51.0263Z" fill="#E2E2E2"/>
<path d="M141.658 48.7341C139.931 48.1234 138.036 49.0285 137.425 50.7558C136.814 52.483 137.719 54.3784 139.447 54.9891C141.174 55.5998 143.069 54.6946 143.68 52.9674C144.291 51.2401 143.385 49.3448 141.658 48.7341Z" fill="#E2E2E2"/>
<path d="M156.012 46.5207C154.038 45.8228 151.872 46.8572 151.174 48.8312C150.476 50.8052 151.51 52.9713 153.484 53.6692C155.458 54.3672 157.624 53.3327 158.322 51.3587C159.02 49.3847 157.986 47.2187 156.012 46.5207Z" fill="#E2E2E2"/>
<path d="M170.417 45.5823C168.443 44.8843 166.277 45.9188 165.579 47.8929C164.881 49.8669 165.916 52.0329 167.89 52.7309C169.864 53.4288 172.03 52.3944 172.728 50.4203C173.426 48.4463 172.391 46.2802 170.417 45.5823Z" fill="#E2E2E2"/>
<path d="M184.902 44.4208C182.558 43.592 179.986 44.8204 179.157 47.1646C178.328 49.5087 179.557 52.0809 181.901 52.9097C184.245 53.7385 186.817 52.5101 187.646 50.166C188.475 47.8218 187.247 45.2496 184.902 44.4208Z" fill="#E2E2E2"/>
<path d="M199.359 44.7571C197.015 43.9283 194.443 45.1567 193.614 47.5009C192.785 49.8451 194.014 52.4173 196.358 53.2461C198.702 54.0749 201.274 52.8465 202.103 50.5023C202.932 48.1581 201.704 45.586 199.359 44.7571Z" fill="#E2E2E2"/>
<path d="M213.579 45.764C211.235 44.9352 208.663 46.1637 207.834 48.5078C207.005 50.852 208.234 53.4242 210.578 54.253C212.922 55.0818 215.494 53.8534 216.323 51.5092C217.152 49.1651 215.923 46.5928 213.579 45.764Z" fill="#E2E2E2"/>
<path d="M227.866 47.2965C225.522 46.4677 222.95 47.6961 222.121 50.0403C221.292 52.3844 222.521 54.9566 224.865 55.7854C227.209 56.6143 229.781 55.3858 230.61 53.0416C231.439 50.6975 230.21 48.1253 227.866 47.2965Z" fill="#E2E2E2"/>
<path d="M241.915 49.4994C239.448 48.627 236.74 49.9201 235.868 52.3876C234.995 54.8552 236.288 57.5628 238.756 58.4352C241.223 59.3076 243.931 58.0145 244.803 55.547C245.676 53.0794 244.383 50.3718 241.915 49.4994Z" fill="#E2E2E2"/>
<path d="M256.029 52.2279C253.438 51.3118 250.596 52.6695 249.679 55.2604C248.763 57.8513 250.121 60.6943 252.712 61.6104C255.303 62.5264 258.146 61.1687 259.062 58.5778C259.978 55.9869 258.62 53.1439 256.029 52.2279Z" fill="#E2E2E2"/>
<path d="M270.21 55.482C267.372 54.4787 264.259 55.9657 263.255 58.8034C262.252 61.6411 263.739 64.7548 266.577 65.7581C269.414 66.7614 272.528 65.2743 273.531 62.4367C274.535 59.599 273.048 56.4853 270.21 55.482Z" fill="#E2E2E2"/>
<path d="M283.772 59.7746C280.934 58.7713 277.82 60.2584 276.817 63.096C275.814 65.9337 277.301 69.0474 280.138 70.0507C282.976 71.054 286.09 69.5669 287.093 66.7293C288.096 63.8917 286.609 60.7779 283.772 59.7746Z" fill="#E2E2E2"/>
<path d="M297.319 64.816C294.605 63.8564 291.627 65.2787 290.667 67.993C289.707 70.7073 291.13 73.6856 293.844 74.6453C296.558 75.605 299.537 74.1826 300.496 71.4683C301.456 68.754 300.034 65.7757 297.319 64.816Z" fill="#E2E2E2"/>
<path d="M309.933 71.7887C307.959 71.0908 305.793 72.1252 305.095 74.0993C304.397 76.0733 305.431 78.2394 307.405 78.9373C309.379 79.6353 311.545 78.6008 312.243 76.6268C312.941 74.6527 311.907 72.4867 309.933 71.7887Z" fill="#E2E2E2"/>
<path d="M323.021 77.4214C320.8 76.6362 318.363 77.8 317.578 80.0208C316.793 82.2415 317.956 84.6784 320.177 85.4636C322.398 86.2487 324.835 85.085 325.62 82.8642C326.405 80.6434 325.241 78.2066 323.021 77.4214Z" fill="#E2E2E2"/>
<path d="M335.95 83.5008C333.236 82.5412 330.258 83.9635 329.298 86.6778C328.338 89.3921 329.761 92.3704 332.475 93.3301C335.189 94.2898 338.168 92.8674 339.127 90.1531C340.087 87.4388 338.665 84.4605 335.95 83.5008Z" fill="#E2E2E2"/>
<path d="M348.406 90.9205C345.692 89.9609 342.714 91.3832 341.754 94.0975C340.794 96.8118 342.217 99.7902 344.931 100.75C347.645 101.71 350.624 100.287 351.583 97.5728C352.543 94.8585 351.121 91.8802 348.406 90.9205Z" fill="#E2E2E2"/>
<path d="M360.256 98.6291C357.418 97.6258 354.305 99.1129 353.301 101.951C352.298 104.788 353.785 107.902 356.623 108.905C359.46 109.908 362.574 108.421 363.577 105.584C364.581 102.746 363.094 99.6324 360.256 98.6291Z" fill="#E2E2E2"/>
<path d="M371.713 107.455C369.122 106.539 366.279 107.897 365.363 110.487C364.447 113.078 365.805 115.921 368.396 116.837C370.987 117.753 373.83 116.396 374.746 113.805C375.662 111.214 374.304 108.371 371.713 107.455Z" fill="#E2E2E2"/>
<path d="M40.089 66.6062C39.8425 66.5191 39.572 66.6483 39.4849 66.8947C39.3977 67.1412 39.5269 67.4117 39.7734 67.4988C40.0199 67.586 40.2904 67.4568 40.3775 67.2103C40.4647 66.9639 40.3355 66.6934 40.089 66.6062Z" fill="#E2E2E2"/>
<path d="M66.5401 54.3438C66.0466 54.1694 65.505 54.4279 65.3305 54.9214C65.1561 55.4149 65.4147 55.9565 65.9082 56.131C66.4017 56.3055 66.9432 56.0468 67.1177 55.5533C67.2922 55.0598 67.0336 54.5183 66.5401 54.3438Z" fill="#E2E2E2"/>
<path d="M80.0547 48.818C79.3144 48.5563 78.5022 48.9443 78.2405 49.6845C77.9787 50.4248 78.3666 51.237 79.1069 51.4987C79.8472 51.7605 80.6594 51.3726 80.9212 50.6323C81.1829 49.8921 80.795 49.0798 80.0547 48.818Z" fill="#E2E2E2"/>
<path d="M93.5285 45.5409C93.282 45.4537 93.0115 45.5829 92.9244 45.8294C92.8372 46.0759 92.9664 46.3464 93.2129 46.4335C93.4594 46.5207 93.7298 46.3915 93.817 46.145C93.9041 45.8985 93.775 45.628 93.5285 45.5409Z" fill="#E2E2E2"/>
<path d="M107.793 40.0275C106.683 39.6349 105.464 40.2167 105.072 41.3271C104.679 42.4375 105.261 43.6559 106.371 44.0485C107.482 44.4411 108.7 43.8592 109.093 42.7488C109.485 41.6385 108.903 40.4201 107.793 40.0275Z" fill="#E2E2E2"/>
<path d="M122.252 36.0924C120.648 35.5253 118.888 36.3659 118.321 37.9698C117.754 39.5737 118.595 41.3336 120.198 41.9007C121.802 42.4678 123.562 41.6273 124.129 40.0233C124.696 38.4194 123.856 36.6595 122.252 36.0924Z" fill="#E2E2E2"/>
<path d="M136.159 33.7213C134.679 33.1978 133.054 33.9737 132.531 35.4542C132.007 36.9347 132.783 38.5593 134.264 39.0827C135.744 39.6062 137.369 38.8303 137.892 37.3498C138.416 35.8693 137.64 34.2448 136.159 33.7213Z" fill="#E2E2E2"/>
<path d="M150.671 31.0611C148.697 30.3632 146.531 31.3977 145.833 33.3717C145.135 35.3457 146.169 37.5118 148.143 38.2098C150.117 38.9077 152.284 37.8733 152.982 35.8992C153.679 33.9252 152.645 31.7591 150.671 31.0611Z" fill="#E2E2E2"/>
<path d="M164.774 30.2673C163.047 29.6566 161.152 30.5618 160.541 32.2891C159.93 34.0164 160.836 35.9117 162.563 36.5224C164.29 37.1331 166.186 36.2279 166.796 34.5007C167.407 32.7734 166.502 30.878 164.774 30.2673Z" fill="#E2E2E2"/>
<path d="M179.259 29.1056C177.285 28.4077 175.119 29.4421 174.421 31.4162C173.723 33.3902 174.757 35.5563 176.731 36.2542C178.705 36.9522 180.871 35.9177 181.569 33.9436C182.267 31.9696 181.233 29.8035 179.259 29.1056Z" fill="#E2E2E2"/>
<path d="M193.874 28.9953C191.777 28.2538 189.475 29.3529 188.734 31.4503C187.992 33.5477 189.091 35.8492 191.189 36.5907C193.286 37.3323 195.587 36.2332 196.329 34.1358C197.071 32.0384 195.971 29.7369 193.874 28.9953Z" fill="#E2E2E2"/>
<path d="M208.174 29.7788C206.077 29.0372 203.775 30.1364 203.034 32.2338C202.292 34.3312 203.391 36.6326 205.488 37.3742C207.586 38.1158 209.887 37.0166 210.629 34.9192C211.37 32.8218 210.271 30.5204 208.174 29.7788Z" fill="#E2E2E2"/>
<path d="M222.395 30.7856C220.174 30.0004 217.737 31.1642 216.952 33.385C216.167 35.6058 217.33 38.0426 219.551 38.8278C221.772 39.613 224.209 38.4492 224.994 36.2284C225.779 34.0077 224.615 31.5708 222.395 30.7856Z" fill="#E2E2E2"/>
<path d="M236.588 33.2908C234.614 32.5928 232.448 33.6273 231.75 35.6013C231.052 37.5754 232.086 39.7414 234.06 40.4394C236.034 41.1373 238.201 40.1029 238.899 38.1288C239.596 36.1548 238.562 33.9887 236.588 33.2908Z" fill="#E2E2E2"/>
<path d="M250.795 35.0467C248.451 34.2179 245.879 35.4463 245.05 37.7904C244.221 40.1346 245.449 42.7067 247.794 43.5355C250.138 44.3644 252.71 43.136 253.539 40.7918C254.368 38.4477 253.139 35.8755 250.795 35.0467Z" fill="#E2E2E2"/>
<path d="M264.896 38.5242C262.551 37.6954 259.979 38.9238 259.15 41.268C258.322 43.6121 259.55 46.1843 261.894 47.0131C264.238 47.8419 266.811 46.6135 267.639 44.2694C268.468 41.9252 267.24 39.353 264.896 38.5242Z" fill="#E2E2E2"/>
<path d="M278.774 41.923C276.306 41.0505 273.598 42.3436 272.726 44.8111C271.854 47.2787 273.147 49.9862 275.614 50.8587C278.082 51.7311 280.789 50.438 281.662 47.9705C282.534 45.503 281.241 42.7954 278.774 41.923Z" fill="#E2E2E2"/>
<path d="M292.255 46.4387C289.787 45.5663 287.08 46.8594 286.207 49.3269C285.335 51.7945 286.628 54.5021 289.096 55.3745C291.563 56.247 294.271 54.9539 295.143 52.4863C296.016 50.0188 294.723 47.3112 292.255 46.4387Z" fill="#E2E2E2"/>
<path d="M305.646 51.9269C303.425 51.1417 300.988 52.3055 300.203 54.5263C299.418 56.747 300.581 59.1839 302.802 59.969C305.023 60.7542 307.46 59.5904 308.245 57.3697C309.03 55.1489 307.866 52.7121 305.646 51.9269Z" fill="#E2E2E2"/>
<path d="M318.892 57.1127C316.301 56.1966 313.458 57.5544 312.542 60.1453C311.626 62.7362 312.983 65.5792 315.574 66.4953C318.165 67.4113 321.008 66.0536 321.924 63.4626C322.84 60.8717 321.483 58.0287 318.892 57.1127Z" fill="#E2E2E2"/>
<path d="M331.584 63.8623C329.363 63.0771 326.926 64.2409 326.141 66.4617C325.356 68.6825 326.52 71.1193 328.741 71.9045C330.961 72.6897 333.398 71.5259 334.183 69.3051C334.969 67.0843 333.805 64.6475 331.584 63.8623Z" fill="#E2E2E2"/>
<path d="M344.514 69.9417C341.799 68.982 338.821 70.4044 337.861 73.1187C336.902 75.833 338.324 78.8113 341.038 79.771C343.753 80.7307 346.731 79.3083 347.691 76.594C348.65 73.8797 347.228 70.9014 344.514 69.9417Z" fill="#E2E2E2"/>
<path d="M357.206 76.691C354.122 75.6005 350.737 77.2169 349.647 80.3013C348.556 83.3857 350.173 86.7702 353.257 87.8607C356.341 88.9513 359.726 87.3349 360.816 84.2505C361.907 81.1661 360.291 77.7816 357.206 76.691Z" fill="#E2E2E2"/>
<path d="M368.9 84.8466C365.938 83.7997 362.689 85.3514 361.642 88.3124C360.596 91.2735 362.147 94.5225 365.108 95.5695C368.069 96.6164 371.318 95.0647 372.365 92.1037C373.412 89.1426 371.861 85.8935 368.9 84.8466Z" fill="#E2E2E2"/>
<path d="M88.1086 30.3047C87.8621 30.2176 87.5917 30.3467 87.5046 30.5932C87.4174 30.8397 87.5465 31.1102 87.793 31.1973C88.0395 31.2845 88.3099 31.1553 88.3971 30.9088C88.4842 30.6623 88.3551 30.3918 88.1086 30.3047Z" fill="#E2E2E2"/>
<path d="M102.201 25.9873C101.708 25.8128 101.166 26.0715 100.992 26.565C100.817 27.0585 101.076 27.6 101.569 27.7745C102.063 27.949 102.604 27.6904 102.779 27.1968C102.953 26.7033 102.695 26.1618 102.201 25.9873Z" fill="#E2E2E2"/>
<path d="M116.122 22.8668C115.629 22.6923 115.087 22.951 114.913 23.4445C114.738 23.938 114.997 24.4796 115.49 24.654C115.984 24.8285 116.525 24.5699 116.7 24.0763C116.874 23.5828 116.616 23.0413 116.122 22.8668Z" fill="#E2E2E2"/>
<path d="M130.331 20.3513C129.838 20.1768 129.296 20.4355 129.122 20.929C128.947 21.4225 129.206 21.9641 129.699 22.1385C130.193 22.313 130.734 22.0544 130.909 21.5608C131.083 21.0673 130.825 20.5258 130.331 20.3513Z" fill="#E2E2E2"/>
<path d="M144.856 16.942C143.622 16.5058 142.268 17.1523 141.832 18.3861C141.396 19.6199 142.042 20.9737 143.276 21.4099C144.51 21.8461 145.863 21.1995 146.3 19.9658C146.736 18.732 146.089 17.3782 144.856 16.942Z" fill="#E2E2E2"/>
<path d="M158.644 17.0417C158.273 16.9109 157.867 17.1048 157.736 17.4749C157.606 17.8451 157.8 18.2512 158.17 18.3821C158.54 18.5129 158.946 18.319 159.077 17.9489C159.208 17.5787 159.014 17.1726 158.644 17.0417Z" fill="#E2E2E2"/>
<path d="M173.602 14.5396C172.245 14.0598 170.755 14.771 170.276 16.1281C169.796 17.4853 170.507 18.9745 171.864 19.4543C173.221 19.9341 174.71 19.2229 175.19 17.8658C175.67 16.5086 174.959 15.0195 173.602 14.5396Z" fill="#E2E2E2"/>
<path d="M187.995 14.3505C186.638 13.8706 185.149 14.5818 184.669 15.9389C184.189 17.2961 184.9 18.7852 186.258 19.2651C187.615 19.7449 189.104 19.0337 189.584 17.6766C190.064 16.3194 189.352 14.8303 187.995 14.3505Z" fill="#E2E2E2"/>
<path d="M201.439 16.8425C201.315 16.7989 201.18 16.8635 201.137 16.9867C201.093 17.11 201.158 17.2452 201.281 17.2888C201.404 17.3324 201.539 17.2678 201.583 17.1445C201.626 17.0213 201.562 16.886 201.439 16.8425Z" fill="#E2E2E2"/>
<path d="M216.277 16.8107C215.537 16.5489 214.725 16.9369 214.463 17.6771C214.201 18.4174 214.589 19.2297 215.33 19.4914C216.07 19.7532 216.882 19.3652 217.144 18.6249C217.406 17.8847 217.018 17.0724 216.277 16.8107Z" fill="#E2E2E2"/>
<path d="M230.879 17.4498C229.522 16.97 228.033 17.6812 227.553 19.0383C227.073 20.3955 227.784 21.8846 229.141 22.3644C230.498 22.8443 231.988 22.1331 232.467 20.776C232.947 19.4188 232.236 17.9297 230.879 17.4498Z" fill="#E2E2E2"/>
<path d="M245.323 18.5356C243.349 17.8377 241.183 18.8722 240.485 20.8462C239.787 22.8202 240.822 24.9863 242.796 25.6842C244.77 26.3822 246.936 25.3477 247.634 23.3737C248.332 21.3997 247.297 19.2336 245.323 18.5356Z" fill="#E2E2E2"/>
<path d="M259.753 20.3704C257.285 19.498 254.578 20.7911 253.705 23.2586C252.833 25.7262 254.126 28.4337 256.594 29.3062C259.061 30.1786 261.769 28.8855 262.641 26.418C263.514 23.9504 262.221 21.2429 259.753 20.3704Z" fill="#E2E2E2"/>
<path d="M273.775 24.0716C271.308 23.1991 268.6 24.4922 267.728 26.9597C266.855 29.4272 268.149 32.1348 270.616 33.0072C273.084 33.8797 275.791 32.5866 276.664 30.1191C277.536 27.6516 276.243 24.944 273.775 24.0716Z" fill="#E2E2E2"/>
<path d="M287.416 28.1402C285.072 27.3114 282.5 28.5398 281.671 30.884C280.842 33.2282 282.071 35.8004 284.415 36.6292C286.759 37.458 289.331 36.2295 290.16 33.8854C290.989 31.5412 289.76 28.969 287.416 28.1402Z" fill="#E2E2E2"/>
<path d="M301.043 32.9584C298.699 32.1296 296.127 33.358 295.298 35.7022C294.469 38.0464 295.697 40.6186 298.042 41.4474C300.386 42.2762 302.958 41.0478 303.787 38.7036C304.616 36.3594 303.387 33.7872 301.043 32.9584Z" fill="#E2E2E2"/>
<path d="M314.446 37.6975C311.856 36.7814 309.013 38.1391 308.097 40.73C307.18 43.321 308.538 46.1639 311.129 47.08C313.72 47.996 316.563 46.6383 317.479 44.0474C318.395 41.4564 317.037 38.6135 314.446 37.6975Z" fill="#E2E2E2"/>
<path d="M327.613 43.1067C324.899 42.147 321.921 43.5694 320.961 46.2836C320.001 48.9979 321.424 51.9763 324.138 52.9359C326.852 53.8956 329.831 52.4732 330.79 49.759C331.75 47.0447 330.328 44.0664 327.613 43.1067Z" fill="#E2E2E2"/>
<path d="M340.608 49.712C338.018 48.796 335.175 50.1537 334.259 52.7446C333.342 55.3355 334.7 58.1784 337.291 59.0945C339.882 60.0106 342.725 58.6528 343.641 56.0619C344.557 53.471 343.199 50.6281 340.608 49.712Z" fill="#E2E2E2"/>
<path d="M352.998 56.6057C350.407 55.6897 347.564 57.0474 346.648 59.6383C345.732 62.2292 347.09 65.0721 349.681 65.9882C352.272 66.9042 355.115 65.5465 356.031 62.9556C356.947 60.3647 355.589 57.5218 352.998 56.6057Z" fill="#E2E2E2"/>
<path d="M365.612 63.5787C362.775 62.5754 359.661 64.0625 358.658 66.9001C357.654 69.7378 359.141 72.8516 361.979 73.8549C364.817 74.8582 367.931 73.3711 368.934 70.5334C369.937 67.6957 368.45 64.582 365.612 63.5787Z" fill="#E2E2E2"/>
<path d="M196.111 0.633855C195.988 0.590281 195.853 0.654879 195.809 0.778127C195.766 0.901375 195.83 1.03659 195.954 1.08017C196.077 1.12374 196.212 1.05917 196.256 0.935918C196.299 0.81267 196.235 0.677428 196.111 0.633855Z" fill="#E2E2E2"/>
<path d="M253.097 7.21099C252.973 7.16742 252.838 7.23197 252.795 7.35519C252.751 7.4784 252.816 7.61362 252.939 7.65719C253.062 7.70076 253.197 7.63618 253.241 7.51297C253.285 7.38975 253.22 7.25456 253.097 7.21099Z" fill="#E2E2E2"/>
<path d="M267.055 10.3863C266.931 10.3427 266.796 10.4072 266.753 10.5305C266.709 10.6537 266.774 10.7889 266.897 10.8325C267.02 10.876 267.155 10.8115 267.199 10.6883C267.243 10.565 267.178 10.4298 267.055 10.3863Z" fill="#E2E2E2"/>
<path d="M281.154 13.8644C280.908 13.7773 280.637 13.9064 280.55 14.1529C280.463 14.3994 280.592 14.6698 280.839 14.757C281.085 14.8441 281.356 14.715 281.443 14.4685C281.53 14.222 281.401 13.9516 281.154 13.8644Z" fill="#E2E2E2"/>
<path d="M295.111 17.0385C294.248 16.7331 293.3 17.1857 292.995 18.0494C292.689 18.913 293.142 19.8606 294.006 20.166C294.869 20.4713 295.817 20.0188 296.122 19.1551C296.428 18.2915 295.975 17.3438 295.111 17.0385Z" fill="#E2E2E2"/>
<path d="M308.738 21.8565C307.875 21.5512 306.927 22.0038 306.622 22.8674C306.316 23.7311 306.769 24.6787 307.633 24.9841C308.496 25.2895 309.444 24.8369 309.749 23.9732C310.055 23.1096 309.602 22.1619 308.738 21.8565Z" fill="#E2E2E2"/>
<path d="M321.905 27.2658C321.165 27.004 320.353 27.3919 320.091 28.1322C319.829 28.8725 320.217 29.6848 320.958 29.9465C321.698 30.2082 322.51 29.8203 322.772 29.08C323.034 28.3397 322.646 27.5275 321.905 27.2658Z" fill="#E2E2E2"/>
<path d="M335.137 33.2008C334.396 32.9391 333.584 33.327 333.322 34.0672C333.061 34.8074 333.449 35.6197 334.189 35.8814C334.929 36.1432 335.741 35.7552 336.003 35.015C336.265 34.2748 335.877 33.4625 335.137 33.2008Z" fill="#E2E2E2"/>
<path d="M347.987 39.5037C347.247 39.2419 346.435 39.6298 346.173 40.3701C345.911 41.1104 346.299 41.9227 347.04 42.1844C347.78 42.4461 348.592 42.0582 348.854 41.3179C349.116 40.5777 348.728 39.7654 347.987 39.5037Z" fill="#E2E2E2"/>
<path d="M360.536 45.951C359.549 45.602 358.466 46.1192 358.117 47.1062C357.768 48.0932 358.285 49.1763 359.272 49.5252C360.259 49.8742 361.342 49.357 361.691 48.37C362.04 47.383 361.523 46.3 360.536 45.951Z" fill="#E2E2E2"/>
</svg>
