<svg width="31" height="31" viewBox="0 0 31 31" fill="none" xmlns="http://www.w3.org/2000/svg">
<g clip-path="url(#clip0)">
<path d="M30.8108 29.8976L21.3784 20.4651C23.3376 18.2899 24.5417 15.4218 24.5417 12.2708C24.5416 5.50474 19.037 0 12.2709 0C5.50474 0 0 5.50474 0 12.2709C0 19.037 5.50474 24.5417 12.2709 24.5417C15.4219 24.5417 18.2899 23.3376 20.4652 21.3784L29.8976 30.8108C30.0237 30.9369 30.189 31 30.3542 31C30.5194 31 30.6847 30.9369 30.8109 30.8108C31.0631 30.5585 31.0631 30.1498 30.8108 29.8976ZM12.2709 23.25C6.21744 23.25 1.29171 18.3249 1.29171 12.2709C1.29171 6.21683 6.21744 1.29165 12.2709 1.29165C18.3243 1.29165 23.25 6.21677 23.25 12.2709C23.25 18.3249 18.3243 23.25 12.2709 23.25Z" fill="#323232"/>
</g>
<defs>
<clipPath id="clip0">
<rect width="31" height="31" fill="white"/>
</clipPath>
</defs>
</svg>
