<?xml version="1.0" encoding="utf-8"?>
<!-- Generator: Adobe Illustrator 22.0.1, SVG Export Plug-In . SVG Version: 6.00 Build 0)  -->
<svg version="1.1" id="Layer_1" xmlns="http://www.w3.org/2000/svg" xmlns:xlink="http://www.w3.org/1999/xlink" x="0px" y="0px"
	 viewBox="0 0 38 33.1" style="enable-background:new 0 0 38 33.1;" xml:space="preserve">
<style type="text/css">
	.st0{fill:#323232;}
</style>
<g>
	<path class="st0" d="M12.3,26.3c-1.7,0-3.2-1.4-3.2-3.1c0-1.3,0.7-2.4,1.9-2.9l0.2-0.1L7.1,1.9h-6C0.6,1.9,0.2,1.5,0.2,1
		s0.4-0.9,0.9-0.9h6.7c0.4,0,0.8,0.3,0.9,0.7l0.8,3.7h27.6c0.3,0,0.6,0.1,0.7,0.4C38,5,38,5.3,37.9,5.6l-4.4,15.6
		C33.4,21.6,33,22,32.6,22H12.3c-0.7,0-1.3,0.6-1.3,1.3c0,0.7,0.6,1.3,1.3,1.3h20.3c0.5,0,0.9,0.4,0.9,0.9s-0.4,0.9-0.9,0.9
		C32.6,26.4,12.3,26.4,12.3,26.3z M13,20h18.9l4-13.8h-26L13,20z"/>
	<path class="st0" d="M14.5,33c-1.7,0-3.1-1.4-3.1-3.1c0-1.7,1.4-3.1,3.1-3.1s3.1,1.4,3.1,3.1C17.6,31.7,16.2,33,14.5,33z
		 M14.5,28.5c-0.8,0-1.4,0.6-1.4,1.4c0,0.8,0.6,1.4,1.4,1.4s1.4-0.6,1.4-1.4C15.9,29.2,15.3,28.5,14.5,28.5z"/>
	<path class="st0" d="M30.3,33c-1.7,0-3.1-1.4-3.1-3.1c0-1.7,1.4-3.1,3.1-3.1s3.1,1.4,3.1,3.1C33.5,31.7,32.1,33,30.3,33z
		 M30.3,28.5c-0.8,0-1.4,0.6-1.4,1.4c0,0.8,0.6,1.4,1.4,1.4c0.8,0,1.4-0.6,1.4-1.4C31.7,29.2,31.1,28.5,30.3,28.5z"/>
</g>
</svg>
