<svg width="18" height="16" viewBox="0 0 18 16" fill="none" xmlns="http://www.w3.org/2000/svg">
<path d="M5.79941 10.6895H5.80023C5.80092 10.6895 5.80161 10.6894 5.80229 10.6894H15.3633C15.5987 10.6894 15.8056 10.5331 15.8703 10.3065L17.9797 2.91517C18.0251 2.75582 17.9933 2.58452 17.8937 2.45225C17.794 2.31999 17.6381 2.24217 17.4727 2.24217H4.58322L4.20625 0.543795C4.15256 0.30223 3.9386 0.130371 3.69141 0.130371H0.527344C0.236069 0.130371 0 0.366711 0 0.658321C0 0.949932 0.236069 1.18627 0.527344 1.18627H3.26843C3.33518 1.48723 5.07239 9.31382 5.17236 9.76409C4.61192 10.008 4.21875 10.5674 4.21875 11.2173C4.21875 12.0906 4.92847 12.8012 5.80078 12.8012H15.3633C15.6546 12.8012 15.8906 12.5648 15.8906 12.2732C15.8906 11.9816 15.6546 11.7453 15.3633 11.7453H5.80078C5.51006 11.7453 5.27344 11.5084 5.27344 11.2173C5.27344 10.9267 5.50923 10.6902 5.79941 10.6895ZM16.7735 3.29807L14.9654 9.63348H6.22376L4.81751 3.29807H16.7735Z" fill="white"/>
<path d="M5.27344 14.3851C5.27344 15.2584 5.98315 15.969 6.85547 15.969C7.72778 15.969 8.4375 15.2584 8.4375 14.3851C8.4375 13.5118 7.72778 12.8013 6.85547 12.8013C5.98315 12.8013 5.27344 13.5118 5.27344 14.3851ZM6.85547 13.8572C7.14619 13.8572 7.38281 14.0941 7.38281 14.3851C7.38281 14.6762 7.14619 14.9131 6.85547 14.9131C6.56474 14.9131 6.32812 14.6762 6.32812 14.3851C6.32812 14.0941 6.56474 13.8572 6.85547 13.8572Z" fill="white"/>
<path d="M12.7266 14.3851C12.7266 15.2584 13.4363 15.969 14.3086 15.969C15.1809 15.969 15.8906 15.2584 15.8906 14.3851C15.8906 13.5118 15.1809 12.8013 14.3086 12.8013C13.4363 12.8013 12.7266 13.5118 12.7266 14.3851ZM14.3086 13.8572C14.5993 13.8572 14.8359 14.0941 14.8359 14.3851C14.8359 14.6762 14.5993 14.9131 14.3086 14.9131C14.0179 14.9131 13.7812 14.6762 13.7812 14.3851C13.7812 14.0941 14.0179 13.8572 14.3086 13.8572Z" fill="white"/>
</svg>
