<svg width="12" height="8" viewBox="0 0 12 8" fill="none" xmlns="http://www.w3.org/2000/svg">
<path d="M1.70711 2.29289C1.31658 1.90237 0.683417 1.90237 0.292893 2.29289C-0.0976311 2.68342 -0.0976311 3.31658 0.292893 3.70711L1.70711 2.29289ZM5 7L4.29289 7.70711C4.68342 8.09763 5.31658 8.09763 5.70711 7.70711L5 7ZM11.7071 1.70711C12.0976 1.31658 12.0976 0.683417 11.7071 0.292893C11.3166 -0.0976311 10.6834 -0.0976311 10.2929 0.292893L11.7071 1.70711ZM0.292893 3.70711L4.29289 7.70711L5.70711 6.29289L1.70711 2.29289L0.292893 3.70711ZM5.70711 7.70711L11.7071 1.70711L10.2929 0.292893L4.29289 6.29289L5.70711 7.70711Z" fill="#323232"/>
</svg>
