<svg width="32" height="32" viewBox="0 0 32 32" fill="none" xmlns="http://www.w3.org/2000/svg">
<path d="M16.2999 31.1C24.4737 31.1 31.1 24.4738 31.1 16.3C31.1 8.12617 24.4737 1.5 16.2999 1.5C8.12611 1.5 1.5 8.12617 1.5 16.3C1.5 24.4738 8.12611 31.1 16.2999 31.1Z" fill="white" stroke="#333333" stroke-width="1.0189"/>
<path d="M8.80039 8.29996C9.00039 8.09996 9.30046 8.09996 9.50046 8.29996L23.8004 22.6C24.0004 22.8 24.0004 23.1 23.8004 23.3C23.6004 23.5 23.3004 23.5 23.1004 23.3L8.80039 8.99998C8.60039 8.79998 8.60039 8.49996 8.80039 8.29996Z" fill="#323232"/>
<path d="M23.8004 8.29996C23.6004 8.09996 23.3004 8.09996 23.1004 8.29996L8.80039 22.6C8.60039 22.8 8.60039 23.1 8.80039 23.3C9.00039 23.5 9.30046 23.5 9.50046 23.3L23.8004 8.99998C24.0004 8.79998 24.0004 8.49996 23.8004 8.29996Z" fill="#323232"/>
</svg>
