<svg width="22" height="24" viewBox="0 0 22 24" fill="none" xmlns="http://www.w3.org/2000/svg">
<mask id="path-1-inside-1" fill="white">
<path d="M15.4437 10.7602C15.3423 10.7602 15.2417 10.7631 15.142 10.7678V4.31634C15.142 2.06772 11.3478 0.891235 7.60005 0.891235C3.85225 0.891235 0.0581055 2.06772 0.0581055 4.31634V15.9763H0.0645183C0.203855 18.143 3.9225 19.2761 7.60005 19.2761C8.23114 19.2761 8.86195 19.2396 9.4773 19.1729C10.3425 21.6352 12.689 23.4057 15.4434 23.4057C18.9294 23.4057 21.7657 20.5694 21.7657 17.0828C21.766 13.5968 18.9297 10.7602 15.4437 10.7602ZM7.60005 2.64023C11.3627 2.64023 13.393 3.82983 13.393 4.31634C13.393 4.80286 11.3627 5.99246 7.60005 5.99246C3.83709 5.99246 1.8071 4.80286 1.8071 4.31634C1.8071 3.82983 3.83709 2.64023 7.60005 2.64023ZM1.8071 6.58625C3.26255 7.3491 5.4383 7.74145 7.60005 7.74145C9.7618 7.74145 11.937 7.3491 13.393 6.58625V8.22447C13.393 8.71098 11.3627 9.90058 7.60005 9.90058C3.83709 9.90058 1.8071 8.71098 1.8071 8.22447V6.58625ZM9.13246 17.4536C8.6579 17.4988 8.15069 17.5271 7.60005 17.5271C3.83709 17.5271 1.8071 16.3375 1.8071 15.8509V14.2183C3.26255 14.9808 5.4383 15.3732 7.60005 15.3732C8.19966 15.3732 8.79811 15.3397 9.38402 15.2796C9.2135 15.8515 9.1208 16.4564 9.1208 17.0831C9.1208 17.2073 9.12517 17.3309 9.13246 17.4536ZM7.60005 13.6242C3.83709 13.6242 1.8071 12.4346 1.8071 11.9484V10.4944C3.26255 11.2572 5.4383 11.6496 7.60005 11.6496C9.7618 11.6496 11.937 11.2572 13.393 10.4944V11.1036C12.1468 11.5324 11.0756 12.3393 10.3177 13.3881C9.54784 13.5309 8.64332 13.6242 7.60005 13.6242ZM15.4437 21.657C12.9216 21.657 10.8698 19.6052 10.8698 17.0831C10.8698 14.5614 12.9216 12.5095 15.4437 12.5095C17.9652 12.5095 20.017 14.5614 20.017 17.0831C20.017 19.6052 17.9652 21.657 15.4437 21.657Z"/>
</mask>
<path d="M15.4437 10.7602C15.3423 10.7602 15.2417 10.7631 15.142 10.7678V4.31634C15.142 2.06772 11.3478 0.891235 7.60005 0.891235C3.85225 0.891235 0.0581055 2.06772 0.0581055 4.31634V15.9763H0.0645183C0.203855 18.143 3.9225 19.2761 7.60005 19.2761C8.23114 19.2761 8.86195 19.2396 9.4773 19.1729C10.3425 21.6352 12.689 23.4057 15.4434 23.4057C18.9294 23.4057 21.7657 20.5694 21.7657 17.0828C21.766 13.5968 18.9297 10.7602 15.4437 10.7602ZM7.60005 2.64023C11.3627 2.64023 13.393 3.82983 13.393 4.31634C13.393 4.80286 11.3627 5.99246 7.60005 5.99246C3.83709 5.99246 1.8071 4.80286 1.8071 4.31634C1.8071 3.82983 3.83709 2.64023 7.60005 2.64023ZM1.8071 6.58625C3.26255 7.3491 5.4383 7.74145 7.60005 7.74145C9.7618 7.74145 11.937 7.3491 13.393 6.58625V8.22447C13.393 8.71098 11.3627 9.90058 7.60005 9.90058C3.83709 9.90058 1.8071 8.71098 1.8071 8.22447V6.58625ZM9.13246 17.4536C8.6579 17.4988 8.15069 17.5271 7.60005 17.5271C3.83709 17.5271 1.8071 16.3375 1.8071 15.8509V14.2183C3.26255 14.9808 5.4383 15.3732 7.60005 15.3732C8.19966 15.3732 8.79811 15.3397 9.38402 15.2796C9.2135 15.8515 9.1208 16.4564 9.1208 17.0831C9.1208 17.2073 9.12517 17.3309 9.13246 17.4536ZM7.60005 13.6242C3.83709 13.6242 1.8071 12.4346 1.8071 11.9484V10.4944C3.26255 11.2572 5.4383 11.6496 7.60005 11.6496C9.7618 11.6496 11.937 11.2572 13.393 10.4944V11.1036C12.1468 11.5324 11.0756 12.3393 10.3177 13.3881C9.54784 13.5309 8.64332 13.6242 7.60005 13.6242ZM15.4437 21.657C12.9216 21.657 10.8698 19.6052 10.8698 17.0831C10.8698 14.5614 12.9216 12.5095 15.4437 12.5095C17.9652 12.5095 20.017 14.5614 20.017 17.0831C20.017 19.6052 17.9652 21.657 15.4437 21.657Z" fill="#333333" stroke="white" stroke-width="0.4" mask="url(#path-1-inside-1)"/>
<mask id="path-2-inside-2" fill="white">
<path d="M15.3357 16.3369C14.5997 16.2495 14.226 16.1445 14.226 15.8131C14.226 15.3187 14.8915 15.245 15.2879 15.245C15.7581 15.245 16.2784 15.4723 16.4478 15.7519L16.5148 15.8635L17.5893 15.3665L17.5237 15.2327C17.1456 14.4606 16.4755 14.2274 15.9581 14.1323V13.4493H14.702V14.1285C13.5952 14.3008 12.9393 14.924 12.9393 15.8131C12.9393 17.2761 14.3108 17.4292 15.2177 17.5303C16.042 17.6283 16.4262 17.8262 16.4262 18.1533C16.4262 18.7861 15.5319 18.8354 15.2573 18.8354C14.6425 18.8354 14.0502 18.5307 13.88 18.1267L13.8231 17.9921L12.6577 18.4859L12.7151 18.6202C13.0431 19.3886 13.7456 19.8725 14.7014 19.9932V20.7298H15.9575V19.9562C16.8745 19.8431 17.7584 19.2569 17.7584 18.153C17.7587 16.6351 16.3006 16.4556 15.3357 16.3369Z"/>
</mask>
<path d="M15.3357 16.3369C14.5997 16.2495 14.226 16.1445 14.226 15.8131C14.226 15.3187 14.8915 15.245 15.2879 15.245C15.7581 15.245 16.2784 15.4723 16.4478 15.7519L16.5148 15.8635L17.5893 15.3665L17.5237 15.2327C17.1456 14.4606 16.4755 14.2274 15.9581 14.1323V13.4493H14.702V14.1285C13.5952 14.3008 12.9393 14.924 12.9393 15.8131C12.9393 17.2761 14.3108 17.4292 15.2177 17.5303C16.042 17.6283 16.4262 17.8262 16.4262 18.1533C16.4262 18.7861 15.5319 18.8354 15.2573 18.8354C14.6425 18.8354 14.0502 18.5307 13.88 18.1267L13.8231 17.9921L12.6577 18.4859L12.7151 18.6202C13.0431 19.3886 13.7456 19.8725 14.7014 19.9932V20.7298H15.9575V19.9562C16.8745 19.8431 17.7584 19.2569 17.7584 18.153C17.7587 16.6351 16.3006 16.4556 15.3357 16.3369Z" fill="#333333" stroke="white" stroke-width="0.4" mask="url(#path-2-inside-2)"/>
</svg>
