<svg width="20" height="20" viewBox="0 0 20 20" fill="none" xmlns="http://www.w3.org/2000/svg">
<path d="M17.0711 2.92891C15.1823 1.04016 12.6711 0 10 0C7.32891 0 4.81766 1.04016 2.92891 2.92891C1.0402 4.81766 0 7.32891 0 10C0 12.6711 1.0402 15.1823 2.92891 17.0711C4.81766 18.9598 7.32891 20 10 20C12.6711 20 15.1823 18.9598 17.0711 17.0711C18.9598 15.1823 20 12.6711 20 10C20 7.32891 18.9598 4.81766 17.0711 2.92891ZM10 18.8281C5.13215 18.8281 1.17188 14.8679 1.17188 10C1.17188 5.13215 5.13215 1.17188 10 1.17188C14.8679 1.17188 18.8281 5.13215 18.8281 10C18.8281 14.8679 14.8679 18.8281 10 18.8281Z" fill="#323232"/>
<path d="M10.6282 9.41402H9.37301C8.65789 9.41402 8.07613 8.83227 8.07613 8.11719C8.07613 7.40207 8.65793 6.82031 9.37301 6.82031H11.8834C12.207 6.82031 12.4694 6.55797 12.4694 6.23438C12.4694 5.91078 12.207 5.64844 11.8834 5.64844H10.5866V4.35156C10.5866 4.02797 10.3242 3.76562 10.0006 3.76562C9.67703 3.76562 9.41469 4.02797 9.41469 4.35156V5.64844H9.37305C8.01176 5.64844 6.9043 6.75594 6.9043 8.11719C6.9043 9.47844 8.0118 10.5859 9.37305 10.5859H10.6283C11.3434 10.5859 11.9251 11.1677 11.9251 11.8828C11.9251 12.5979 11.3434 13.1796 10.6283 13.1796H8.11785C7.79426 13.1796 7.53191 13.442 7.53191 13.7656C7.53191 14.0892 7.79426 14.3515 8.11785 14.3515H9.41469V15.6484C9.41469 15.972 9.67703 16.2344 10.0006 16.2344C10.3242 16.2344 10.5866 15.972 10.5866 15.6484V14.3515H10.6282C11.9895 14.3515 13.097 13.244 13.097 11.8828C13.097 10.5215 11.9895 9.41402 10.6282 9.41402Z" fill="#323232"/>
</svg>
