<svg width="35" height="35" viewBox="0 0 35 35" fill="none" xmlns="http://www.w3.org/2000/svg">
<path d="M34.5 17.5C34.5 8.11116 26.8888 0.5 17.5 0.5C8.11116 0.5 0.5 8.11116 0.5 17.5C0.5 26.8888 8.11116 34.5 17.5 34.5C26.8888 34.5 34.5 26.8888 34.5 17.5Z" fill="#F66507" stroke=""/>
<path d="M5.86108 21.2444L9.77539 12.1108L13.9345 21.2444C13.9345 21.2444 12.249 23.1745 9.77539 23.1745C7.30174 23.1745 5.86108 21.2444 5.86108 21.2444Z" fill="none"/>
<circle cx="17.1599" cy="12.7988" r="1.31201" fill="none"/>
<path d="M20.0657 23.516L24.078 14.1108L28.3413 23.516C28.3413 23.516 26.6137 25.5035 24.078 25.5035C21.5424 25.5035 20.0657 23.516 20.0657 23.516Z" fill="none"/>
<mask id="mask0" mask-type="alpha" maskUnits="userSpaceOnUse" x="5" y="7" width="24" height="20">
<path fill-rule="evenodd" clip-rule="evenodd" d="M16.3853 8.2953C16.3853 7.88784 16.7155 7.55762 17.123 7.55762C17.5304 7.55762 17.8606 7.88788 17.8606 8.2953V10.5838C18.62 10.8494 19.1937 11.5134 19.3302 12.3239L24.2386 13.047C24.5081 13.0866 24.7218 13.2674 24.8162 13.5032L28.9407 23.1514C29.059 23.4288 28.997 23.7502 28.7838 23.9631L28.1691 24.5778C27.0904 25.6568 25.6608 26.2509 24.1436 26.2509C22.6264 26.2509 21.1971 25.6568 20.1181 24.5778L19.5033 23.9631C19.2907 23.7504 19.2284 23.4298 19.346 23.1531L23.0794 14.3675L19.0819 13.7785C18.6999 14.4671 17.9651 14.9343 17.1234 14.9343C16.0615 14.9343 15.17 14.1906 14.9422 13.1968L11.0729 12.6346L14.6762 20.9351C14.8011 21.2228 14.7303 21.5579 14.4998 21.7706L13.8708 22.3512C12.7938 23.4235 11.3689 24.0139 9.85668 24.0139C8.33953 24.0139 6.90991 23.4196 5.83093 22.3406L5.21619 21.7259C5.0018 21.5117 4.9403 21.1879 5.06128 20.91L9.19234 11.4186C9.30962 11.1494 9.57516 10.9753 9.86877 10.9753H9.869C9.91961 10.9753 9.96939 10.9805 10.0177 10.9904L15.1058 11.7297C15.3619 11.1974 15.8226 10.7814 16.3853 10.5842V8.2953ZM17.1234 13.459C16.7032 13.459 16.3612 13.1169 16.3612 12.6967C16.3612 12.2765 16.7032 11.9345 17.1234 11.9345C17.5439 11.9345 17.886 12.2762 17.886 12.6967C17.886 13.1169 17.5439 13.459 17.1234 13.459ZM12.8659 20.4688H6.86279L9.86825 13.5632L12.8659 20.4688ZM12.0119 21.9441H7.70157C8.34815 22.3317 9.08741 22.5386 9.85668 22.5386C10.6259 22.5386 11.3653 22.3317 12.0119 21.9441ZM26.2988 24.1812C25.6521 24.5687 24.9127 24.7755 24.1433 24.7755C23.3742 24.7755 22.6348 24.5687 21.9881 24.1812H26.2988ZM27.1452 22.7059H21.1389L24.1332 15.6596L27.1452 22.7059Z" fill="white"/>
</mask>
<g mask="url(#mask0)">
<path fill-rule="evenodd" clip-rule="evenodd" d="M16.3853 8.2953C16.3853 7.88784 16.7155 7.55762 17.123 7.55762C17.5304 7.55762 17.8606 7.88788 17.8606 8.2953V10.5838C18.62 10.8494 19.1937 11.5134 19.3302 12.3239L24.2386 13.047C24.5081 13.0866 24.7218 13.2674 24.8162 13.5032L28.9407 23.1514C29.059 23.4288 28.997 23.7502 28.7838 23.9631L28.1691 24.5778C27.0904 25.6568 25.6608 26.2509 24.1436 26.2509C22.6264 26.2509 21.1971 25.6568 20.1181 24.5778L19.5033 23.9631C19.2907 23.7504 19.2284 23.4298 19.346 23.1531L23.0794 14.3675L19.0819 13.7785C18.6999 14.4671 17.9651 14.9343 17.1234 14.9343C16.0615 14.9343 15.17 14.1906 14.9422 13.1968L11.0729 12.6346L14.6762 20.9351C14.8011 21.2228 14.7303 21.5579 14.4998 21.7706L13.8708 22.3512C12.7938 23.4235 11.3689 24.0139 9.85668 24.0139C8.33953 24.0139 6.90991 23.4196 5.83093 22.3406L5.21619 21.7259C5.0018 21.5117 4.9403 21.1879 5.06128 20.91L9.19234 11.4186C9.30962 11.1494 9.57516 10.9753 9.86877 10.9753H9.869C9.91961 10.9753 9.96939 10.9805 10.0177 10.9904L15.1058 11.7297C15.3619 11.1974 15.8226 10.7814 16.3853 10.5842V8.2953ZM17.1234 13.459C16.7032 13.459 16.3612 13.1169 16.3612 12.6967C16.3612 12.2765 16.7032 11.9345 17.1234 11.9345C17.5439 11.9345 17.886 12.2762 17.886 12.6967C17.886 13.1169 17.5439 13.459 17.1234 13.459ZM12.8659 20.4688H6.86279L9.86825 13.5632L12.8659 20.4688ZM12.0119 21.9441H7.70157C8.34815 22.3317 9.08741 22.5386 9.85668 22.5386C10.6259 22.5386 11.3653 22.3317 12.0119 21.9441ZM26.2988 24.1812C25.6521 24.5687 24.9127 24.7755 24.1433 24.7755C23.3742 24.7755 22.6348 24.5687 21.9881 24.1812H26.2988ZM27.1452 22.7059H21.1389L24.1332 15.6596L27.1452 22.7059Z" fill="white"/>
<path d="M17.8606 10.5837H17.5606V10.7966L17.7616 10.8669L17.8606 10.5837ZM19.3302 12.3238L19.0344 12.3736L19.0706 12.5888L19.2865 12.6206L19.3302 12.3238ZM24.2386 13.0469L24.1949 13.3437H24.195L24.2386 13.0469ZM24.8162 13.5031L24.5375 13.6146L24.5403 13.621L24.8162 13.5031ZM28.9407 23.1513L29.2166 23.0336L29.2165 23.0334L28.9407 23.1513ZM28.7838 23.963L28.5719 23.7507L28.5717 23.7509L28.7838 23.963ZM28.1691 24.5777L27.957 24.3656L28.1691 24.5777ZM20.1181 24.5777L20.3302 24.3656L20.1181 24.5777ZM19.5033 23.963L19.2912 24.1751L19.5033 23.963ZM19.346 23.153L19.6221 23.2704L19.346 23.153ZM23.0794 14.3674L23.3555 14.4847L23.5074 14.1272L23.1231 14.0706L23.0794 14.3674ZM19.0819 13.7784L19.1256 13.4817L18.9202 13.4514L18.8195 13.6329L19.0819 13.7784ZM14.9422 13.1967L15.2346 13.1297L15.1887 12.9294L14.9853 12.8998L14.9422 13.1967ZM11.0729 12.6345L11.116 12.3376L10.5833 12.2602L10.7977 12.754L11.0729 12.6345ZM14.6762 20.935L14.401 21.0545L14.6762 20.935ZM14.4998 21.7705L14.2964 21.55L14.4998 21.7705ZM13.8708 22.3511L13.6672 22.1304L13.6592 22.1385L13.8708 22.3511ZM5.83089 22.3405L6.04303 22.1284L5.83089 22.3405ZM5.21615 21.7258L5.42829 21.5136L5.42817 21.5135L5.21615 21.7258ZM5.06124 20.9099L5.3363 21.0296H5.33631L5.06124 20.9099ZM9.1923 11.4185L8.91726 11.2987L8.91723 11.2988L9.1923 11.4185ZM10.0177 10.9903L9.95717 11.2842L9.96582 11.2859L9.97456 11.2872L10.0177 10.9903ZM15.1058 11.7296L15.0626 12.0265L15.2806 12.0582L15.3761 11.8597L15.1058 11.7296ZM16.3853 10.5841L16.4845 10.8672L16.6853 10.7968V10.5841H16.3853ZM6.86275 20.4687L6.58767 20.349L6.405 20.7687H6.86275V20.4687ZM12.8659 20.4687V20.7687H13.3232L13.1411 20.3493L12.8659 20.4687ZM9.86821 13.5631L10.1434 13.4437L9.86857 12.8106L9.59314 13.4434L9.86821 13.5631ZM7.70153 21.944V21.644H6.61741L7.5473 22.2014L7.70153 21.944ZM12.0119 21.944L12.1661 22.2014L13.096 21.644H12.0119V21.944ZM26.2988 24.1811L26.453 24.4385L27.3831 23.8811H26.2988V24.1811ZM21.9881 24.1811V23.8811H20.9036L21.8339 24.4385L21.9881 24.1811ZM21.1389 22.7058L20.8628 22.5885L20.6854 23.0058H21.1389V22.7058ZM27.1452 22.7058V23.0058H27.5997L27.4211 22.5879L27.1452 22.7058ZM24.1332 15.6595L24.409 15.5416L24.1324 14.8943L23.8571 15.5421L24.1332 15.6595ZM17.123 7.25757C16.5499 7.25757 16.0853 7.72209 16.0853 8.29525H16.6853C16.6853 8.05349 16.8812 7.85757 17.123 7.85757V7.25757ZM18.1606 8.29525C18.1606 7.72216 17.6961 7.25757 17.123 7.25757V7.85757C17.3647 7.85757 17.5606 8.05351 17.5606 8.29525H18.1606ZM18.1606 10.5837V8.29525H17.5606V10.5837H18.1606ZM19.6261 12.2739C19.4711 11.3539 18.8205 10.6017 17.9597 10.3005L17.7616 10.8669C18.4194 11.097 18.9164 11.6728 19.0344 12.3736L19.6261 12.2739ZM24.2824 12.7501L19.374 12.027L19.2865 12.6206L24.1949 13.3437L24.2824 12.7501ZM25.0947 13.3917C24.9623 13.0608 24.6618 12.8059 24.2823 12.7501L24.195 13.3437C24.3543 13.3671 24.4813 13.4737 24.5376 13.6145L25.0947 13.3917ZM29.2165 23.0334L25.092 13.3852L24.5403 13.621L28.6648 23.2693L29.2165 23.0334ZM28.9958 24.1753C29.296 23.8755 29.3829 23.4234 29.2166 23.0336L28.6647 23.269C28.7351 23.434 28.6981 23.6247 28.5719 23.7507L28.9958 24.1753ZM28.3812 24.7899L28.996 24.1751L28.5717 23.7509L27.957 24.3656L28.3812 24.7899ZM24.1436 26.5508C25.7408 26.5508 27.2466 25.9247 28.3813 24.7898L27.957 24.3656C26.9341 25.3887 25.5807 25.9508 24.1436 25.9508V26.5508ZM19.906 24.7899C21.0408 25.9247 22.5463 26.5508 24.1436 26.5508V25.9508C22.7065 25.9508 21.3533 25.3887 20.3302 24.3656L19.906 24.7899ZM19.2912 24.1751L19.906 24.7899L20.3302 24.3656L19.7155 23.7509L19.2912 24.1751ZM19.0699 23.0357C18.9045 23.425 18.9921 23.8759 19.2912 24.1751L19.7155 23.7509C19.5893 23.6246 19.5524 23.4344 19.6221 23.2704L19.0699 23.0357ZM22.8033 14.25L19.0699 23.0357L19.6221 23.2704L23.3555 14.4847L22.8033 14.25ZM19.0382 14.0752L23.0356 14.6642L23.1231 14.0706L19.1256 13.4817L19.0382 14.0752ZM17.1234 15.2342C18.0789 15.2342 18.9116 14.7037 19.3442 13.924L18.8195 13.6329C18.4881 14.2304 17.8514 14.6342 17.1234 14.6342V15.2342ZM14.6498 13.2638C14.908 14.3906 15.9183 15.2342 17.1234 15.2342V14.6342C16.2047 14.6342 15.4319 13.9904 15.2346 13.1297L14.6498 13.2638ZM11.0297 12.9314L14.899 13.4936L14.9853 12.8998L11.116 12.3376L11.0297 12.9314ZM14.9514 20.8156L11.348 12.5151L10.7977 12.754L14.401 21.0545L14.9514 20.8156ZM14.7033 21.9909C15.0274 21.6918 15.1271 21.2203 14.9513 20.8155L14.401 21.0545C14.475 21.225 14.4331 21.4238 14.2964 21.55L14.7033 21.9909ZM14.0743 22.5715L14.7033 21.9909L14.2964 21.55L13.6674 22.1306L14.0743 22.5715ZM9.85664 24.3138C11.4487 24.3138 12.9496 23.6916 14.0825 22.5636L13.6592 22.1385C12.638 23.1552 11.2891 23.7138 9.85664 23.7138V24.3138ZM5.61876 22.5526C6.75362 23.6875 8.2594 24.3138 9.85664 24.3138V23.7138C8.41959 23.7138 7.06612 23.1515 6.04303 22.1284L5.61876 22.5526ZM5.00402 21.9379L5.61876 22.5526L6.04303 22.1284L5.42829 21.5136L5.00402 21.9379ZM4.78618 20.7901C4.61596 21.1811 4.70246 21.6367 5.00414 21.938L5.42817 21.5135C5.30105 21.3865 5.26456 21.1944 5.3363 21.0296L4.78618 20.7901ZM8.91723 11.2988L4.78616 20.7902L5.33631 21.0296L9.46738 11.5382L8.91723 11.2988ZM9.86873 10.6752C9.45565 10.6752 9.08217 10.9201 8.91726 11.2987L9.46734 11.5383C9.53699 11.3784 9.69458 11.2752 9.86873 11.2752V10.6752ZM9.86896 10.6752H9.86873V11.2752H9.86896V10.6752ZM10.0783 10.6965C10.0102 10.6825 9.94007 10.6752 9.86896 10.6752V11.2752C9.89907 11.2752 9.92858 11.2783 9.95717 11.2842L10.0783 10.6965ZM15.1489 11.4327L10.0609 10.6934L9.97456 11.2872L15.0626 12.0265L15.1489 11.4327ZM16.286 10.301C15.6476 10.5247 15.1257 10.9962 14.8354 11.5995L15.3761 11.8597C15.598 11.3985 15.9976 11.0378 16.4845 10.8672L16.286 10.301ZM16.0853 8.29525V10.5841H16.6853V8.29525H16.0853ZM16.0612 12.6966C16.0612 13.2825 16.5375 13.7589 17.1234 13.7589V13.1589C16.8689 13.1589 16.6612 12.9511 16.6612 12.6966H16.0612ZM17.1234 11.6344C16.5375 11.6344 16.0612 12.1107 16.0612 12.6966H16.6612C16.6612 12.4421 16.8689 12.2344 17.1234 12.2344V11.6344ZM18.186 12.6966C18.186 12.1103 17.7095 11.6344 17.1234 11.6344V12.2344C17.3784 12.2344 17.586 12.442 17.586 12.6966H18.186ZM17.1234 13.7589C17.7096 13.7589 18.186 13.2826 18.186 12.6966H17.586C17.586 12.9511 17.3783 13.1589 17.1234 13.1589V13.7589ZM6.86275 20.7687H12.8659V20.1687H6.86275V20.7687ZM9.59314 13.4434L6.58767 20.349L7.13782 20.5884L10.1433 13.6829L9.59314 13.4434ZM13.1411 20.3493L10.1434 13.4437L9.59302 13.6826L12.5908 20.5882L13.1411 20.3493ZM7.70153 22.244H12.0119V21.644H7.70153V22.244ZM9.85664 22.2385C9.14174 22.2385 8.45578 22.0463 7.85575 21.6867L7.5473 22.2014C8.24044 22.6168 9.033 22.8385 9.85664 22.8385V22.2385ZM11.8577 21.6867C11.2576 22.0463 10.5716 22.2385 9.85664 22.2385V22.8385C10.6803 22.8385 11.473 22.6168 12.1661 22.2014L11.8577 21.6867ZM24.1433 25.0754C24.967 25.0754 25.7597 24.8539 26.453 24.4385L26.1446 23.9238C25.5444 24.2834 24.8583 24.4754 24.1433 24.4754V25.0754ZM21.8339 24.4385C22.5272 24.8539 23.3198 25.0754 24.1433 25.0754V24.4754C23.4285 24.4754 22.7424 24.2834 22.1422 23.9238L21.8339 24.4385ZM26.2988 23.8811H21.9881V24.4811H26.2988V23.8811ZM21.1389 23.0058H27.1452V22.4058H21.1389V23.0058ZM23.8571 15.5421L20.8628 22.5885L21.415 22.8231L24.4093 15.7768L23.8571 15.5421ZM27.4211 22.5879L24.409 15.5416L23.8573 15.7774L26.8694 22.8237L27.4211 22.5879Z" fill="white"/>
</g>
</svg>
