<?xml version="1.0" encoding="utf-8"?>
<!-- Generator: Adobe Illustrator 22.0.1, SVG Export Plug-In . SVG Version: 6.00 Build 0)  -->
<svg version="1.1" id="Layer_1" xmlns="http://www.w3.org/2000/svg" xmlns:xlink="http://www.w3.org/1999/xlink" x="0px" y="0px"
	 viewBox="0 0 41.4 32.2" style="enable-background:new 0 0 41.4 32.2;" xml:space="preserve">
<style type="text/css">
	.st0{fill:#323232;}
</style>
<path class="st0" d="M33.3,32.1c-2.6,0-5-1-6.8-2.8l-1.1-1.1c-0.3-0.3-0.4-0.7-0.2-1l6.7-15.8l-7.7-1.1l-0.1,0.2
	c-0.6,1.1-1.8,1.8-3.1,1.8c-1.7,0-3.1-1.2-3.5-2.8l-0.1-0.2L9.8,8.1l6.6,15.1c0.2,0.4,0.1,0.8-0.2,1.1l-1.1,1
	c-1.8,1.8-4.2,2.8-6.8,2.8s-5-1-6.8-2.8l-1.1-1.1c-0.3-0.3-0.4-0.7-0.2-1L7.4,6.6C7.5,6.2,7.9,6,8.3,6h0.1l9.3,1.3l0.1-0.2
	c0.4-0.9,1.2-1.5,2-1.8L20,5.2V1c0-0.5,0.4-0.9,0.9-0.9s0.9,0.4,0.9,0.9v4.3L22,5.4c1.2,0.4,2.1,1.5,2.4,2.8v0.3l8.8,1.3
	c0.3,0,0.6,0.3,0.8,0.6l7.2,17c0.2,0.4,0.1,0.8-0.2,1l-1.1,1.1C38.3,31.1,35.9,32.1,33.3,32.1z M29.3,29.1c1.2,0.7,2.6,1.1,4,1.1
	c1.4,0,2.8-0.4,4-1.1l1.1-0.6H28.3L29.3,29.1z M27.5,26.6h11.6L33.3,13L27.5,26.6z M4.3,25.2c1.2,0.7,2.6,1.1,4,1.1s2.8-0.4,4-1.1
	l1.1-0.6H3.2L4.3,25.2z M2.5,22.7h11.6L8.3,9.4L2.5,22.7z M21,7c-0.9,0-1.7,0.8-1.7,1.7s0.8,1.7,1.7,1.7c0.9,0,1.7-0.8,1.7-1.7
	S21.9,7,21,7z"/>
</svg>
