<svg width="35" height="35" viewBox="0 0 35 35" fill="none" xmlns="http://www.w3.org/2000/svg">
<rect x="0.5" y="0.5" width="34" height="34" rx="17" stroke="#F66507"/>
<mask id="path-2-inside-1" fill="white">
<path fill-rule="evenodd" clip-rule="evenodd" d="M16.3853 8.2953C16.3853 7.88784 16.7155 7.55762 17.123 7.55762C17.5304 7.55762 17.8606 7.88788 17.8606 8.2953V10.5838C18.62 10.8494 19.1937 11.5134 19.3302 12.3239L24.2386 13.047C24.5081 13.0866 24.7218 13.2674 24.8162 13.5032L28.9407 23.1514C29.059 23.4288 28.997 23.7502 28.7838 23.9631L28.1691 24.5778C27.0904 25.6568 25.6608 26.2509 24.1436 26.2509C22.6264 26.2509 21.1971 25.6568 20.1181 24.5778L19.5033 23.9631C19.2907 23.7504 19.2284 23.4298 19.346 23.1531L23.0794 14.3675L19.0819 13.7785C18.6999 14.4671 17.9651 14.9343 17.1234 14.9343C16.0615 14.9343 15.17 14.1906 14.9422 13.1968L11.0729 12.6346L14.6762 20.9351C14.8011 21.2228 14.7303 21.5579 14.4998 21.7706L13.8708 22.3512C12.7938 23.4235 11.3689 24.0139 9.85668 24.0139C8.33953 24.0139 6.90991 23.4196 5.83093 22.3406L5.21619 21.7259C5.0018 21.5117 4.9403 21.1879 5.06128 20.91L9.19234 11.4186C9.30962 11.1494 9.57516 10.9753 9.86877 10.9753H9.869C9.91961 10.9753 9.96939 10.9805 10.0177 10.9904L15.1058 11.7297C15.3619 11.1974 15.8226 10.7814 16.3853 10.5842V8.2953ZM17.1234 13.459C16.7032 13.459 16.3612 13.1169 16.3612 12.6967C16.3612 12.2765 16.7032 11.9345 17.1234 11.9345C17.5439 11.9345 17.886 12.2762 17.886 12.6967C17.886 13.1169 17.5439 13.459 17.1234 13.459ZM12.8659 20.4688H6.86279L9.86825 13.5632L12.8659 20.4688ZM12.0119 21.9441H7.70157C8.34815 22.3317 9.08741 22.5386 9.85668 22.5386C10.6259 22.5386 11.3653 22.3317 12.0119 21.9441ZM26.2988 24.1812C25.6521 24.5687 24.9127 24.7755 24.1433 24.7755C23.3742 24.7755 22.6348 24.5687 21.9881 24.1812H26.2988ZM27.1452 22.7059H21.1389L24.1332 15.6596L27.1452 22.7059Z"/>
</mask>
<path fill-rule="evenodd" clip-rule="evenodd" d="M16.3853 8.2953C16.3853 7.88784 16.7155 7.55762 17.123 7.55762C17.5304 7.55762 17.8606 7.88788 17.8606 8.2953V10.5838C18.62 10.8494 19.1937 11.5134 19.3302 12.3239L24.2386 13.047C24.5081 13.0866 24.7218 13.2674 24.8162 13.5032L28.9407 23.1514C29.059 23.4288 28.997 23.7502 28.7838 23.9631L28.1691 24.5778C27.0904 25.6568 25.6608 26.2509 24.1436 26.2509C22.6264 26.2509 21.1971 25.6568 20.1181 24.5778L19.5033 23.9631C19.2907 23.7504 19.2284 23.4298 19.346 23.1531L23.0794 14.3675L19.0819 13.7785C18.6999 14.4671 17.9651 14.9343 17.1234 14.9343C16.0615 14.9343 15.17 14.1906 14.9422 13.1968L11.0729 12.6346L14.6762 20.9351C14.8011 21.2228 14.7303 21.5579 14.4998 21.7706L13.8708 22.3512C12.7938 23.4235 11.3689 24.0139 9.85668 24.0139C8.33953 24.0139 6.90991 23.4196 5.83093 22.3406L5.21619 21.7259C5.0018 21.5117 4.9403 21.1879 5.06128 20.91L9.19234 11.4186C9.30962 11.1494 9.57516 10.9753 9.86877 10.9753H9.869C9.91961 10.9753 9.96939 10.9805 10.0177 10.9904L15.1058 11.7297C15.3619 11.1974 15.8226 10.7814 16.3853 10.5842V8.2953ZM17.1234 13.459C16.7032 13.459 16.3612 13.1169 16.3612 12.6967C16.3612 12.2765 16.7032 11.9345 17.1234 11.9345C17.5439 11.9345 17.886 12.2762 17.886 12.6967C17.886 13.1169 17.5439 13.459 17.1234 13.459ZM12.8659 20.4688H6.86279L9.86825 13.5632L12.8659 20.4688ZM12.0119 21.9441H7.70157C8.34815 22.3317 9.08741 22.5386 9.85668 22.5386C10.6259 22.5386 11.3653 22.3317 12.0119 21.9441ZM26.2988 24.1812C25.6521 24.5687 24.9127 24.7755 24.1433 24.7755C23.3742 24.7755 22.6348 24.5687 21.9881 24.1812H26.2988ZM27.1452 22.7059H21.1389L24.1332 15.6596L27.1452 22.7059Z" fill="#F66507"/>
<path d="M17.8606 10.5838H17.5606V10.7967L17.7616 10.867L17.8606 10.5838ZM19.3302 12.3239L19.0344 12.3737L19.0706 12.5889L19.2865 12.6207L19.3302 12.3239ZM24.2386 13.047L24.1949 13.3438L24.195 13.3438L24.2386 13.047ZM24.8162 13.5032L24.5375 13.6147L24.5403 13.6211L24.8162 13.5032ZM28.9407 23.1514L29.2166 23.0337L29.2165 23.0335L28.9407 23.1514ZM28.7838 23.9631L28.5719 23.7508L28.5717 23.751L28.7838 23.9631ZM28.1691 24.5778L27.957 24.3657L27.957 24.3657L28.1691 24.5778ZM20.1181 24.5778L20.3302 24.3657H20.3302L20.1181 24.5778ZM19.5033 23.9631L19.2912 24.1752L19.2912 24.1752L19.5033 23.9631ZM19.346 23.1531L19.6221 23.2705L19.346 23.1531ZM23.0794 14.3675L23.3555 14.4848L23.5074 14.1273L23.1231 14.0707L23.0794 14.3675ZM19.0819 13.7785L19.1256 13.4818L18.9202 13.4515L18.8195 13.633L19.0819 13.7785ZM14.9422 13.1968L15.2346 13.1298L15.1887 12.9295L14.9853 12.8999L14.9422 13.1968ZM11.0729 12.6346L11.116 12.3377L10.5833 12.2603L10.7977 12.7541L11.0729 12.6346ZM14.6762 20.9351L14.401 21.0546L14.401 21.0546L14.6762 20.9351ZM14.4998 21.7706L14.2964 21.5501L14.2964 21.5501L14.4998 21.7706ZM13.8708 22.3512L13.6672 22.1305L13.6592 22.1386L13.8708 22.3512ZM5.83093 22.3406L6.04307 22.1285L5.83093 22.3406ZM5.21619 21.7259L5.42833 21.5137L5.42821 21.5136L5.21619 21.7259ZM5.06128 20.91L5.33634 21.0297L5.33635 21.0297L5.06128 20.91ZM9.19234 11.4186L8.9173 11.2988L8.91727 11.2989L9.19234 11.4186ZM10.0177 10.9904L9.95721 11.2843L9.96586 11.286L9.9746 11.2873L10.0177 10.9904ZM15.1058 11.7297L15.0626 12.0266L15.2806 12.0583L15.3761 11.8598L15.1058 11.7297ZM16.3853 10.5842L16.4845 10.8673L16.6853 10.7969V10.5842H16.3853ZM6.86279 20.4688L6.58771 20.3491L6.40504 20.7688H6.86279V20.4688ZM12.8659 20.4688V20.7688H13.3232L13.1411 20.3494L12.8659 20.4688ZM9.86825 13.5632L10.1434 13.4438L9.86861 12.8107L9.59318 13.4435L9.86825 13.5632ZM7.70157 21.9441V21.6441H6.61745L7.54734 22.2015L7.70157 21.9441ZM12.0119 21.9441L12.1661 22.2015L13.096 21.6441H12.0119V21.9441ZM26.2988 24.1812L26.453 24.4386L27.3831 23.8812H26.2988V24.1812ZM21.9881 24.1812V23.8812H20.9036L21.8339 24.4386L21.9881 24.1812ZM21.1389 22.7059L20.8628 22.5886L20.6854 23.0059H21.1389V22.7059ZM27.1452 22.7059V23.0059H27.5997L27.4211 22.588L27.1452 22.7059ZM24.1332 15.6596L24.409 15.5417L24.1324 14.8944L23.8571 15.5422L24.1332 15.6596ZM17.123 7.25762C16.5499 7.25762 16.0853 7.72214 16.0853 8.2953H16.6853C16.6853 8.05354 16.8812 7.85762 17.123 7.85762V7.25762ZM18.1606 8.2953C18.1606 7.72221 17.6961 7.25762 17.123 7.25762V7.85762C17.3647 7.85762 17.5606 8.05356 17.5606 8.2953H18.1606ZM18.1606 10.5838V8.2953H17.5606V10.5838H18.1606ZM19.6261 12.274C19.4711 11.354 18.8205 10.6018 17.9597 10.3006L17.7616 10.867C18.4194 11.0971 18.9164 11.6729 19.0344 12.3737L19.6261 12.274ZM24.2824 12.7502L19.374 12.0271L19.2865 12.6207L24.1949 13.3438L24.2824 12.7502ZM25.0947 13.3918C24.9623 13.0609 24.6618 12.806 24.2823 12.7502L24.195 13.3438C24.3543 13.3672 24.4813 13.4738 24.5376 13.6146L25.0947 13.3918ZM29.2165 23.0335L25.092 13.3853L24.5403 13.6211L28.6648 23.2694L29.2165 23.0335ZM28.9958 24.1754C29.296 23.8756 29.3829 23.4235 29.2166 23.0337L28.6647 23.2691C28.7351 23.4341 28.6981 23.6248 28.5719 23.7508L28.9958 24.1754ZM28.3812 24.79L28.996 24.1752L28.5717 23.751L27.957 24.3657L28.3812 24.79ZM24.1436 26.5509C25.7408 26.5509 27.2466 25.9248 28.3813 24.7899L27.957 24.3657C26.9341 25.3888 25.5807 25.9509 24.1436 25.9509V26.5509ZM19.906 24.79C21.0408 25.9248 22.5463 26.5509 24.1436 26.5509V25.9509C22.7065 25.9509 21.3533 25.3888 20.3302 24.3657L19.906 24.79ZM19.2912 24.1752L19.906 24.79L20.3302 24.3657L19.7155 23.751L19.2912 24.1752ZM19.0699 23.0358C18.9045 23.4251 18.9921 23.876 19.2912 24.1752L19.7155 23.751C19.5893 23.6247 19.5524 23.4345 19.6221 23.2705L19.0699 23.0358ZM22.8033 14.2501L19.0699 23.0358L19.6221 23.2705L23.3555 14.4848L22.8033 14.2501ZM19.0382 14.0753L23.0356 14.6643L23.1231 14.0707L19.1256 13.4818L19.0382 14.0753ZM17.1234 15.2343C18.0789 15.2343 18.9116 14.7038 19.3442 13.9241L18.8195 13.633C18.4881 14.2305 17.8514 14.6343 17.1234 14.6343V15.2343ZM14.6498 13.2639C14.908 14.3907 15.9183 15.2343 17.1234 15.2343V14.6343C16.2047 14.6343 15.4319 13.9905 15.2346 13.1298L14.6498 13.2639ZM11.0297 12.9315L14.899 13.4937L14.9853 12.8999L11.116 12.3377L11.0297 12.9315ZM14.9514 20.8157L11.348 12.5152L10.7977 12.7541L14.401 21.0546L14.9514 20.8157ZM14.7033 21.991C15.0274 21.6919 15.1271 21.2204 14.9513 20.8156L14.401 21.0546C14.475 21.2251 14.4331 21.4239 14.2964 21.5501L14.7033 21.991ZM14.0743 22.5716L14.7033 21.991L14.2964 21.5501L13.6674 22.1307L14.0743 22.5716ZM9.85668 24.3139C11.4487 24.3139 12.9496 23.6917 14.0825 22.5637L13.6592 22.1386C12.638 23.1553 11.2891 23.7139 9.85668 23.7139V24.3139ZM5.6188 22.5527C6.75366 23.6876 8.25944 24.3139 9.85668 24.3139V23.7139C8.41963 23.7139 7.06616 23.1516 6.04307 22.1285L5.6188 22.5527ZM5.00406 21.938L5.6188 22.5527L6.04307 22.1285L5.42833 21.5137L5.00406 21.938ZM4.78622 20.7902C4.616 21.1812 4.7025 21.6368 5.00418 21.9381L5.42821 21.5136C5.30109 21.3866 5.2646 21.1945 5.33634 21.0297L4.78622 20.7902ZM8.91727 11.2989L4.7862 20.7903L5.33635 21.0297L9.46742 11.5383L8.91727 11.2989ZM9.86877 10.6753C9.45569 10.6753 9.08221 10.9202 8.9173 11.2988L9.46738 11.5384C9.53703 11.3785 9.69462 11.2753 9.86877 11.2753V10.6753ZM9.869 10.6753H9.86877V11.2753H9.869V10.6753ZM10.0783 10.6966C10.0102 10.6826 9.94011 10.6753 9.869 10.6753V11.2753C9.89911 11.2753 9.92862 11.2784 9.95721 11.2843L10.0783 10.6966ZM15.1489 11.4328L10.0609 10.6935L9.9746 11.2873L15.0626 12.0266L15.1489 11.4328ZM16.286 10.3011C15.6476 10.5248 15.1257 10.9963 14.8354 11.5996L15.3761 11.8598C15.598 11.3986 15.9976 11.0379 16.4845 10.8673L16.286 10.3011ZM16.0853 8.2953V10.5842H16.6853V8.2953H16.0853ZM16.0612 12.6967C16.0612 13.2826 16.5375 13.759 17.1234 13.759V13.159C16.8689 13.159 16.6612 12.9512 16.6612 12.6967H16.0612ZM17.1234 11.6345C16.5375 11.6345 16.0612 12.1108 16.0612 12.6967H16.6612C16.6612 12.4422 16.8689 12.2345 17.1234 12.2345V11.6345ZM18.186 12.6967C18.186 12.1104 17.7095 11.6345 17.1234 11.6345V12.2345C17.3784 12.2345 17.586 12.4421 17.586 12.6967H18.186ZM17.1234 13.759C17.7096 13.759 18.186 13.2827 18.186 12.6967H17.586C17.586 12.9512 17.3783 13.159 17.1234 13.159V13.759ZM6.86279 20.7688H12.8659V20.1688H6.86279V20.7688ZM9.59318 13.4435L6.58771 20.3491L7.13786 20.5885L10.1433 13.683L9.59318 13.4435ZM13.1411 20.3494L10.1434 13.4438L9.59306 13.6827L12.5908 20.5883L13.1411 20.3494ZM7.70157 22.2441H12.0119V21.6441H7.70157V22.2441ZM9.85668 22.2386C9.14178 22.2386 8.45582 22.0464 7.85579 21.6868L7.54734 22.2015C8.24048 22.6169 9.03304 22.8386 9.85668 22.8386V22.2386ZM11.8577 21.6868C11.2576 22.0464 10.5716 22.2386 9.85668 22.2386V22.8386C10.6803 22.8386 11.473 22.6169 12.1661 22.2015L11.8577 21.6868ZM24.1433 25.0755C24.967 25.0755 25.7597 24.854 26.453 24.4386L26.1446 23.9239C25.5444 24.2835 24.8583 24.4755 24.1433 24.4755V25.0755ZM21.8339 24.4386C22.5272 24.854 23.3198 25.0755 24.1433 25.0755V24.4755C23.4285 24.4755 22.7424 24.2835 22.1422 23.9239L21.8339 24.4386ZM26.2988 23.8812H21.9881V24.4812H26.2988V23.8812ZM21.1389 23.0059H27.1452V22.4059H21.1389V23.0059ZM23.8571 15.5422L20.8628 22.5886L21.415 22.8232L24.4093 15.7769L23.8571 15.5422ZM27.4211 22.588L24.409 15.5417L23.8573 15.7775L26.8694 22.8238L27.4211 22.588Z" fill="white" mask="url(#path-2-inside-1)"/>
</svg>
