<svg xmlns="http://www.w3.org/2000/svg" viewBox="0 0 148.23 98.16"><defs><style>.cls-1{fill:#aaa;}.cls-2{fill:#fff;}</style></defs><g id="Слой_2" data-name="Слой 2"><g id="Layer_1" data-name="Layer 1"><path class="cls-1" d="M80.11,91.21a5,5,0,0,1-3.67-1.61L1.33,8.39A5,5,0,0,1,8.67,1.6L83.78,82.81a5,5,0,0,1-3.67,8.4Z"/><path class="cls-1" d="M79.43,90.69a5,5,0,0,1-2.94-9L140.3,35.33a5,5,0,0,1,5.87,8.09L82.36,89.74A5,5,0,0,1,79.43,90.69Z"/><path class="cls-1" d="M79.43,97.16A11.47,11.47,0,1,1,90.89,85.69,11.49,11.49,0,0,1,79.43,97.16Z"/><path class="cls-2" d="M79.43,75.23A10.47,10.47,0,1,1,69,85.69,10.47,10.47,0,0,1,79.43,75.23m0-2A12.47,12.47,0,1,0,91.89,85.69,12.46,12.46,0,0,0,79.43,73.23Z"/></g></g></svg>