<svg width="74" height="47" viewBox="0 0 74 47" fill="none" xmlns="http://www.w3.org/2000/svg">
<path d="M68.2643 20.1678L68.3046 20.3293L68.4692 20.3544C71.2434 20.7777 73.3766 23.1856 73.3764 26.0832V38.3265C73.3764 38.8229 72.975 39.2243 72.4813 39.2243H68.7384H68.4856L68.4885 39.4772C68.4885 39.4823 68.4886 39.4874 68.4887 39.4924C68.489 39.5035 68.4894 39.5137 68.4897 39.5216C68.49 39.5287 68.4902 39.5345 68.4903 39.5397C68.4904 39.5437 68.4904 39.5473 68.4904 39.5508C68.4904 43.4217 65.3483 46.5702 61.4881 46.5702C57.6279 46.5702 54.4858 43.4217 54.4858 39.5508C54.4858 39.543 54.4861 39.5344 54.4866 39.5216C54.487 39.5102 54.4876 39.4938 54.4878 39.4771L54.4907 39.2243H54.2378H28.4308H28.178L28.1808 39.4771C28.181 39.4921 28.1815 39.5068 28.182 39.5179L28.1821 39.5216C28.1826 39.5343 28.1828 39.5429 28.1828 39.5508C28.1828 43.4217 25.0407 46.5702 21.1805 46.5702C17.3203 46.5702 14.1782 43.4217 14.1782 39.5508C14.1782 39.543 14.1785 39.5344 14.1789 39.5216L14.1791 39.518C14.1795 39.5069 14.18 39.4921 14.1802 39.4771L14.183 39.2243H13.9302H7.74464C6.57827 39.2243 5.62805 38.2727 5.62805 37.1022V34.5769V34.3269H5.37805H1.63734C1.14347 34.3269 0.742188 33.9256 0.742188 33.4291C0.742188 32.9326 1.14359 32.5312 1.63734 32.5312H12.6304C13.1242 32.5312 13.5255 32.9326 13.5255 33.4291C13.5255 33.9255 13.1241 34.3269 12.6304 34.3269H7.66822H7.41822V34.5769V37.1022C7.41822 37.2819 7.56372 37.4286 7.74449 37.4286H14.3267H14.5049L14.563 37.2602C15.513 34.5104 18.1207 32.5312 21.1805 32.5312C24.2403 32.5312 26.8479 34.5104 27.798 37.2603L27.8562 37.4286H28.0343H51.7927H52.0427V37.1786V28.532C52.0427 28.0355 52.4441 27.6341 52.9378 27.6341C53.4317 27.6341 53.833 28.0356 53.833 28.532V37.1789V37.4289H54.083H54.6344H54.8125L54.8707 37.2605C55.8206 34.5107 58.4283 32.5315 61.4881 32.5315C64.5479 32.5315 67.1555 34.5107 68.1056 37.2605L68.1638 37.4289H68.3419H71.3361H71.5861V37.1789V32.1286V31.8786H71.3361H70.0383C68.1984 31.8786 66.7003 30.3778 66.7003 28.5321V26.0835C66.7003 25.587 67.1017 25.1856 67.5954 25.1856H71.1562H71.4992L71.3941 24.8591C70.8775 23.2531 69.3736 22.0861 67.5999 22.084C67.5973 22.0839 67.5945 22.0838 67.5916 22.0838H54.0833H53.8333V22.3338V23.635C53.8333 24.1315 53.4319 24.5329 52.9381 24.5329C52.4443 24.5329 52.043 24.1314 52.043 23.635V2.82102C52.043 2.64125 51.8974 2.49456 51.7167 2.49456H7.74449C7.56373 2.49456 7.41822 2.64126 7.41822 2.82102V23.6347C7.41822 24.1312 7.01681 24.5326 6.52306 24.5326C6.02921 24.5326 5.62791 24.1311 5.62791 23.6347V2.82102C5.62791 1.65046 6.57813 0.698853 7.74449 0.698853H51.7168C52.8832 0.698853 53.8334 1.65046 53.8334 2.82102V5.34638V5.59638H54.0834H62.7099C65.2231 5.59638 67.2693 7.64646 67.2693 10.1672V11.3915C67.2693 11.8229 66.9655 12.1832 66.5609 12.2693L66.3078 12.3232L66.3704 12.5744L68.2643 20.1678ZM54.0834 7.39195H53.8334V7.64195V10.2436V10.4936H54.0834H65.2291H65.4791V10.2436V10.1672C65.4791 8.63725 64.2376 7.39195 62.7099 7.39195H54.0834ZM53.8334 20.0383V20.2883H54.0834H66.129H66.449L66.3716 19.9778L64.5012 12.4787L64.454 12.2892H64.2587H54.0834H53.8334V12.5392V20.0383ZM68.7407 26.9811H68.4907V27.2311V28.532C68.4907 29.3868 69.1843 30.0829 70.0386 30.0829H71.0863H71.3363H71.3364V29.8329H71.5863V27.2311V26.9811H71.3363H68.7407ZM15.9684 39.5511C15.9684 42.4313 18.3058 44.7749 21.1805 44.7749C24.0552 44.7749 26.3927 42.4313 26.3927 39.5511C26.3927 36.6708 24.0552 34.3272 21.1805 34.3272C18.3058 34.3272 15.9684 36.6708 15.9684 39.5511ZM56.2763 39.5511C56.2763 42.4313 58.6137 44.7749 61.4884 44.7749C64.3632 44.7749 66.7006 42.4313 66.7006 39.5511C66.7006 36.6708 64.3632 34.3272 61.4884 34.3272C58.6137 34.3272 56.2763 36.6708 56.2763 39.5511Z" fill="#F66507" stroke="#FBFBFB" stroke-width="0.5"/>
<path d="M19.0625 39.551C19.0625 38.3804 20.0127 37.4288 21.1791 37.4288C22.3455 37.4288 23.2957 38.3804 23.2957 39.551C23.2957 40.7216 22.3455 41.6732 21.1791 41.6732C20.0127 41.6732 19.0625 40.7216 19.0625 39.551Z" fill="#F66507" stroke="#F7F7F7" stroke-width="0.5"/>
<path d="M59.3672 39.551C59.3672 38.3804 60.3174 37.4288 61.4838 37.4288C62.6501 37.4288 63.6004 38.3804 63.6004 39.551C63.6004 40.7216 62.6501 41.6732 61.4838 41.6732C60.3174 41.6732 59.3672 40.7216 59.3672 39.551Z" fill="#F66507" stroke="#F7F7F7" stroke-width="0.5"/>
<path d="M30.9498 32.5315H48.0501C48.544 32.5315 48.9453 32.9329 48.9453 33.4293C48.9453 33.9258 48.5439 34.3272 48.0501 34.3272H30.9498C30.456 34.3272 30.0547 33.9258 30.0547 33.4293C30.0547 32.9329 30.4561 32.5315 30.9498 32.5315Z" fill="#F66507" stroke="#F7F7F7" stroke-width="0.5"/>
<path d="M4.07777 27.6342H18.7352C19.229 27.6342 19.6304 28.0356 19.6304 28.532C19.6304 29.0285 19.229 29.4299 18.7352 29.4299H4.07777C3.5839 29.4299 3.18262 29.0285 3.18262 28.532C3.18262 28.0356 3.58402 27.6342 4.07777 27.6342Z" fill="#F66507" stroke="#F7F7F7" stroke-width="0.5"/>
<path d="M38.8676 11.9805L38.8676 11.9804C39.217 11.6301 39.7836 11.6301 40.133 11.9803C40.4827 12.331 40.4828 12.8997 40.1328 13.2505L29.1399 24.2694L29.1397 24.2696C28.9652 24.4448 28.7365 24.5322 28.5072 24.5322C28.278 24.5322 28.0494 24.4448 27.8746 24.2695L27.8746 24.2694L21.7673 18.1478C21.4174 17.797 21.4174 17.2284 21.7673 16.8777L21.7673 16.8777C22.1167 16.5273 22.6831 16.5273 23.0327 16.8777L28.3302 22.1877L28.5072 22.3651L28.6842 22.1877L38.8676 11.9805Z" fill="#F66507" stroke="#F7F7F7" stroke-width="0.5"/>
</svg>
