<svg width="34" height="24" viewBox="0 0 34 24" fill="none" xmlns="http://www.w3.org/2000/svg">
<path d="M33.5937 11.9785V20.4096H29.5365V18.4272H31.5613H31.6113V18.3772V12.3048V12.2967L31.6087 12.289L29.8227 6.92342L29.8113 6.88921H29.7753H22.1981H22.1481V6.93921V18.3772V18.4272H22.1981H23.1893V20.4096H20.1733V4.90681H31.2364L33.5937 11.9785Z" fill="#333333" stroke="white" stroke-width="0.1"/>
<path d="M26.363 23.5314C24.0955 23.5314 22.2482 21.6842 22.2482 19.4166C22.2482 17.149 24.0955 15.3018 26.363 15.3018C28.6306 15.3018 30.4778 17.149 30.4778 19.4165C30.4703 21.6843 28.6305 23.5314 26.363 23.5314ZM26.363 17.2842C25.1878 17.2842 24.2306 18.2414 24.2306 19.4166C24.2306 20.5918 25.1878 21.549 26.363 21.549C27.5383 21.549 28.4954 20.5918 28.4954 19.4166C28.4954 18.2414 27.5383 17.2842 26.363 17.2842Z" fill="#333333" stroke="white" stroke-width="0.1"/>
<path d="M4.51376 18.4274H6.54616V20.4098H2.48896V13.229H4.46376V18.3774V18.4274H4.51376Z" fill="#333333" stroke="white" stroke-width="0.1"/>
<path d="M20.1236 2.72344H0.405957V0.74104H22.1484V20.4086H12.8852V18.4262H20.1236H20.1736V18.3762V2.77344V2.72344H20.1236Z" fill="#333333" stroke="white" stroke-width="0.1"/>
<path d="M9.719 23.5314C7.45141 23.5314 5.6042 21.6842 5.6042 19.4166C5.6042 17.149 7.45141 15.3018 9.719 15.3018C11.9865 15.3018 13.8337 17.149 13.8338 19.4165C13.8263 21.6843 11.9864 23.5314 9.719 23.5314ZM9.719 17.2842C8.54378 17.2842 7.5866 18.2414 7.5866 19.4166C7.5866 20.5918 8.54378 21.549 9.719 21.549C10.8942 21.549 11.8514 20.5918 11.8514 19.4166C11.8514 18.2414 10.8942 17.2842 9.719 17.2842Z" fill="#333333" stroke="white" stroke-width="0.1"/>
<path d="M1.44746 6.88921V4.90681H10.7107V6.88921H1.44746Z" fill="#333333" stroke="white" stroke-width="0.1"/>
<path d="M2.48823 11.0453V9.06294H8.62783V11.0453H2.48823Z" fill="#333333" stroke="white" stroke-width="0.1"/>
</svg>
