<svg width="23" height="22" viewBox="0 0 23 22" fill="none" xmlns="http://www.w3.org/2000/svg">
<path d="M5.55811 12.775C6.91857 13.525 8.20345 14.35 9.48834 15.25L9.71508 15.4C9.79066 15.475 9.86624 15.55 9.94183 15.55C10.0174 15.625 10.1686 15.7 10.1686 15.775C10.2442 15.85 10.3197 15.85 10.3953 15.925C10.5465 16.075 10.6976 16.15 10.8488 16.3L11.2267 16.675C11.3023 16.75 11.3023 16.75 11.3779 16.825C11.4535 16.9 11.4535 16.975 11.529 17.05L11.7558 17.575C11.8314 17.65 11.8314 17.725 11.9069 17.8C11.9069 17.8 11.9069 17.875 11.9825 17.875V17.95V18.025C12.0581 18.175 12.1337 18.4 12.2093 18.55C12.3604 18.925 12.436 19.3 12.5116 19.675C12.5872 20.05 12.6628 20.425 12.7383 20.8C12.7383 20.875 12.8139 21.1 12.8895 21.25C12.9651 21.4 13.1162 21.475 13.2674 21.55C13.4186 21.625 13.5697 21.625 13.6453 21.7C13.7965 21.7 13.8721 21.7 14.0232 21.775C14.25 21.775 14.4767 21.775 14.7035 21.7C14.779 21.7 14.9302 21.7 15.0058 21.625C15.1569 21.625 15.2325 21.55 15.3081 21.55C15.4593 21.475 15.6104 21.4 15.686 21.325L15.9128 21.1C15.9883 21.025 16.0639 20.875 16.1395 20.8C16.2151 20.725 16.2151 20.725 16.2151 20.65L16.2907 20.5C16.3662 20.35 16.5174 20.05 16.593 19.9C16.593 19.825 16.6686 19.675 16.6686 19.6C16.6686 19.525 16.6686 19.45 16.7441 19.375C16.7441 19.3 16.7441 19.3 16.7441 19.3C16.7441 19.225 16.8197 19.075 16.8197 18.925V18.625C16.8197 18.55 16.8197 18.4 16.8197 18.325C16.8197 18.175 16.8197 18.025 16.8197 17.95V17.65C16.8197 17.575 16.8197 17.425 16.7441 17.35L16.8953 17.125C16.8953 16.975 16.8953 16.9 16.8197 16.75C16.7442 16.3 16.593 15.925 16.4418 15.55V15.475C16.4418 15.475 16.3662 15.4 16.3662 15.325L16.2907 15.25C16.2907 15.175 16.2151 15.175 16.2151 15.025C16.2151 14.95 16.1395 14.875 16.0639 14.725C15.9883 14.65 15.9883 14.575 15.9883 14.5C15.9128 14.35 15.8372 14.2 15.7616 13.975L15.6104 13.525C15.6104 13.525 15.6104 13.525 15.686 13.375V13.3C15.686 13.3 15.6104 13.375 15.686 13.3L15.9128 13.15C16.2151 12.925 16.5174 12.7 16.8197 12.55C17.1221 12.4 17.4244 12.175 17.8023 12.1C18.1802 11.95 18.4825 11.8 18.8604 11.65C19.2383 11.5 19.5407 11.275 19.9186 11.05C20.0697 10.975 20.2965 10.825 20.4476 10.675L20.6744 10.525C20.75 10.45 20.75 10.45 20.9011 10.375C20.9767 10.3 21.1279 10.3 21.2035 10.15C21.279 10.075 21.3546 10 21.5058 9.925C21.6569 9.775 21.8081 9.55 21.9593 9.4C22.186 8.95 22.3372 8.5 22.3372 7.975C22.3372 7.75 22.2616 7.45 22.1104 7.225C22.0348 7.075 22.0348 7 21.9593 6.925L21.8837 6.775V6.7C21.8837 6.625 21.8081 6.625 21.8081 6.625C21.7325 6.55 21.7325 6.55 21.7325 6.55L21.6569 6.475C21.5814 6.4 21.5814 6.4 21.5058 6.325C21.4302 6.25 21.3546 6.175 21.279 6.1L21.0523 5.875C20.9011 5.8 20.8255 5.725 20.75 5.725L20.6744 5.65C20.6744 5.65 20.6744 5.65 20.75 5.65C20.75 5.65 20.8255 5.725 20.9011 5.8C20.9767 5.95 20.9011 5.95 20.9011 5.95V5.65V5.5C20.9011 5.425 20.9011 5.35 20.9011 5.275V5.125V4.975C20.9011 4.825 20.8255 4.825 20.8255 4.75L20.75 4.6V4.525C20.75 4.525 20.75 4.45 20.6744 4.45V4.375L20.5988 4.225C20.4476 4.075 20.2965 3.925 20.1453 3.775C19.9941 3.625 19.7674 3.475 19.5407 3.4C19.4651 3.325 19.3139 3.325 19.2383 3.25C19.1628 3.25 19.0116 3.175 19.0116 3.175L19.3139 3.625V3.4C19.3139 3.325 19.3139 3.175 19.3139 3.1C19.3139 2.95 19.2383 2.875 19.1628 2.725L19.0872 2.65V2.575C19.0872 2.575 19.0872 2.575 19.0116 2.5C19.0116 2.5 18.936 2.425 18.936 2.35C18.936 2.275 18.8604 2.2 18.7848 2.2L18.5581 2.05L18.3314 1.9C18.2558 1.825 18.1802 1.75 18.1046 1.75C17.9535 1.675 17.8023 1.6 17.5755 1.525C17.4244 1.45 17.1976 1.45 17.0465 1.375C16.9709 1.375 16.8197 1.375 16.7441 1.3C16.7441 1.3 16.8197 1.3 16.8197 1.375C16.8953 1.45 16.8953 1.525 16.8953 1.525C16.8953 1.525 16.8953 1.525 16.8953 1.45V1.375C16.8953 1.3 16.8953 1.3 16.8953 1.3C16.8197 1.225 16.8197 1.075 16.7441 1C16.6686 0.85 16.4418 0.7 16.2907 0.55C16.2151 0.475 16.1395 0.475 15.9883 0.4C15.9128 0.325 15.7616 0.325 15.686 0.325C15.4593 0.325 15.3081 0.25 15.1569 0.25C15.0058 0.25 14.779 0.25 14.6279 0.325C13.9476 0.475 13.4186 0.775 12.8139 1C11.6046 1.45 10.4709 1.975 9.33717 2.5C8.73252 2.725 8.20345 3.025 7.5988 3.25C7.29648 3.4 6.99415 3.475 6.69183 3.625C6.3895 3.7 6.08718 3.775 5.78485 3.85C6.08718 3.775 6.3895 3.775 6.69183 3.7C6.99415 3.625 7.29648 3.55 7.5988 3.475C8.20345 3.325 8.80811 3.1 9.41276 2.875C10.6221 2.425 11.7558 2.05 12.9651 1.675C13.5697 1.525 14.1744 1.225 14.7035 1.15C14.8546 1.15 14.9302 1.15 15.0814 1.15C15.2325 1.15 15.3837 1.15 15.4593 1.225C15.686 1.3 15.8372 1.375 15.9883 1.6C15.9883 1.675 16.0639 1.675 16.0639 1.75C16.0639 1.75 16.0639 1.825 16.0639 1.9C16.0639 1.975 16.1395 2.125 16.2907 2.2C16.3662 2.275 16.4418 2.275 16.5174 2.275H16.593C16.6686 2.275 16.6686 2.275 16.7441 2.275C16.8953 2.35 17.0465 2.35 17.1221 2.425C17.1976 2.5 17.3488 2.575 17.5 2.575C17.5755 2.575 17.5755 2.65 17.6511 2.65L17.8023 2.8L17.9535 2.95L18.029 3.025C18.1802 3.25 18.1802 3.25 18.1802 3.325C18.1802 3.4 18.1802 3.4 18.1802 3.475V3.7V4L18.4825 4.15C18.6337 4.225 18.7093 4.225 18.7848 4.225C18.8604 4.225 18.936 4.3 19.0116 4.3C19.1628 4.375 19.2383 4.45 19.3895 4.525C19.5407 4.6 19.6162 4.75 19.6918 4.9L19.7674 4.975V4.9V4.975L19.843 5.125C19.843 5.2 19.843 5.2 19.843 5.2C19.843 5.2 19.843 5.2 19.843 5.125V5.2V5.275V5.425C19.843 5.425 19.843 5.425 19.843 5.5V5.65V5.95C19.843 6.025 19.843 6.025 19.843 6.25C19.843 6.325 19.9942 6.475 19.9942 6.475C20.0697 6.55 20.0697 6.55 20.0697 6.55C20.1453 6.625 20.2209 6.625 20.2209 6.625C20.2965 6.7 20.3721 6.7 20.3721 6.7L20.5988 6.85C20.6744 6.925 20.75 6.925 20.75 7L20.8255 7.075C20.8255 7.15 20.9011 7.15 20.9011 7.225L20.9767 7.375C20.9767 7.45 21.0523 7.525 21.1279 7.6C21.2035 7.675 21.2035 7.825 21.2035 7.975C21.2035 8.2 21.1279 8.5 20.9767 8.725C20.9011 8.875 20.8255 8.95 20.6744 9.025C20.5988 9.1 20.5988 9.1 20.5232 9.175C20.4476 9.175 20.4476 9.25 20.2965 9.325C20.2209 9.4 20.0697 9.475 19.9942 9.55C19.9186 9.625 19.843 9.625 19.7674 9.7C19.6162 9.775 19.4651 9.85 19.3139 10C19.0116 10.15 18.6337 10.375 18.3314 10.525C18.029 10.675 17.6511 10.825 17.2732 10.975C16.8953 11.125 16.5174 11.35 16.1395 11.5C15.7616 11.725 15.4593 11.95 15.1569 12.175L14.9302 12.4C14.9302 12.4 14.779 12.55 14.779 12.625C14.7035 12.7 14.7035 12.775 14.7035 12.775C14.6279 12.925 14.4011 13.3 14.5523 13.675C14.6279 13.9 14.6279 13.9 14.7035 14.05L14.779 14.35C14.8546 14.5 14.9302 14.725 15.0058 14.95L15.1569 15.25C15.1569 15.325 15.2325 15.4 15.2325 15.475C15.3081 15.55 15.3081 15.7 15.3837 15.775L15.4593 15.85C15.4593 15.85 15.5348 15.925 15.4593 15.925V16C15.6104 16.375 15.7616 16.675 15.8372 16.975C15.8372 17.05 15.8372 17.125 15.9128 17.2L15.9883 17.5C15.9883 17.575 15.9883 17.65 16.0639 17.8V18.1C16.0639 18.175 16.0639 18.25 16.0639 18.325C16.0639 18.4 16.0639 18.475 16.0639 18.55V18.85C16.0639 18.925 16.0639 18.925 15.9883 19.075C15.9883 19.15 15.9883 19.225 15.9883 19.3V19.375C15.9883 19.45 15.9128 19.525 15.9128 19.6C15.8372 19.825 15.8372 19.9 15.686 20.05L15.6104 20.2C15.6104 20.275 15.5348 20.275 15.5348 20.275C15.4593 20.35 15.4593 20.35 15.3837 20.425L15.2325 20.575L15.1569 20.65C15.0814 20.65 15.0058 20.725 14.9302 20.725C14.8546 20.725 14.779 20.8 14.7035 20.8C14.4767 20.875 14.3255 20.875 14.25 20.875C14.1744 20.875 14.0988 20.875 14.0232 20.875C13.9476 20.875 13.8721 20.875 13.8721 20.875C13.7965 20.8 13.7965 20.875 13.7209 20.725C13.6453 20.35 13.5697 19.9 13.4186 19.6C13.2674 19.225 13.1918 18.85 13.0407 18.475C12.9651 18.325 12.8895 18.1 12.8139 17.95V17.875V17.8C12.8139 17.725 12.7383 17.725 12.7383 17.65C12.436 17.5 12.3604 17.425 12.3604 17.275L12.0581 16.75C11.9825 16.675 11.9825 16.6 11.9069 16.45C11.8314 16.375 11.7558 16.225 11.6802 16.225L11.2267 15.85C11.0755 15.7 10.9244 15.625 10.7732 15.475C10.6976 15.4 10.6221 15.325 10.5465 15.325C10.3953 15.25 10.3953 15.25 10.3197 15.175C10.1686 15.1 10.1686 15.025 10.0174 15.025L9.79066 14.875C8.35462 14.125 6.99415 13.375 5.55811 12.775Z" fill="#939598"/>
<path d="M0.0405273 14.875C0.494016 14.95 0.947504 14.95 1.40099 15.025L2.76146 15.1L4.12192 15.175H5.48239H5.93588V14.725C6.01146 12.7 6.01146 10.75 6.01146 8.72502C6.01146 7.75002 6.01146 6.70002 5.93588 5.72502C5.93588 4.75002 5.8603 3.70002 5.78471 2.72502V2.27502H5.40681C5.0289 2.27502 4.72657 2.35002 4.34867 2.35002C3.97076 2.42502 3.59285 2.50002 3.29053 2.57502C2.6103 2.65002 1.85448 2.80002 1.17425 2.87502C1.85448 2.95002 2.6103 3.02502 3.29053 3.02502C3.66843 3.02502 3.97076 3.10002 4.34867 3.10002C4.72657 3.10002 5.0289 3.10002 5.40681 3.17502L4.95332 2.80002C4.87774 3.77502 4.87774 4.82502 4.87774 5.80002C4.87774 6.77502 4.87774 7.82502 4.87774 8.80002C4.87774 10.825 4.95332 12.775 5.0289 14.8L5.48239 14.35L4.12192 14.5H2.76146L1.40099 14.65C0.947504 14.725 0.494016 14.8 0.0405273 14.875Z" fill="#939598"/>
<path d="M2.53474 4.29999C2.45915 3.92499 2.00567 3.69999 1.40101 3.77499C0.796364 3.84999 0.418457 4.22499 0.418457 4.52499C0.494038 4.89999 0.947527 5.12499 1.55218 5.04999C2.08125 5.04999 2.53474 4.67499 2.53474 4.29999Z" fill="#939598"/>
</svg>
