<svg width="20" height="20" viewBox="0 0 20 20" fill="none" xmlns="http://www.w3.org/2000/svg">
<path d="M3.52926 16.1605C3.55293 16.1605 3.57652 16.1578 3.59958 16.1525L6.47219 15.4896C6.52926 15.4764 6.58148 15.4475 6.6229 15.4061L16.4092 5.6198C16.5543 5.47471 16.6694 5.30246 16.7479 5.11288C16.8264 4.92331 16.8668 4.72013 16.8668 4.51494C16.8668 4.30974 16.8264 4.10656 16.7479 3.91699C16.6694 3.72741 16.5543 3.55516 16.4092 3.41007L15.9672 2.96816C15.674 2.67556 15.2766 2.51123 14.8624 2.51123C14.4481 2.51123 14.0508 2.67556 13.7575 2.96816L3.97118 12.7544C3.92979 12.7959 3.90087 12.8481 3.8877 12.9051L3.22481 15.7778C3.21423 15.8236 3.21413 15.8712 3.22451 15.9171C3.2349 15.963 3.2555 16.0059 3.28479 16.0427C3.31408 16.0795 3.35129 16.1092 3.39366 16.1296C3.43604 16.15 3.48247 16.1606 3.5295 16.1606L3.52926 16.1605ZM13.5365 4.073L15.3043 5.84078L6.84383 14.3012L5.0761 12.5335L13.5365 4.073ZM15.5253 3.41007L15.9672 3.85203C16.143 4.02784 16.2418 4.2663 16.2418 4.51494C16.2418 4.76357 16.143 5.00203 15.9672 5.17785L15.7463 5.39882L13.9785 3.63105L14.1995 3.41007C14.3754 3.23454 14.6138 3.13596 14.8624 3.13596C15.1109 3.13596 15.3493 3.23454 15.5253 3.41007ZM4.47653 13.133L4.63411 12.9754L6.40188 14.7431L6.2443 14.9007L3.94622 15.431L4.47653 13.133Z" fill="#323232"/>
<path d="M8.08595 11.6016C8.127 11.6016 8.16765 11.5936 8.20557 11.5779C8.24349 11.5622 8.27794 11.5391 8.30693 11.5101L13.3134 6.50355C13.3428 6.47459 13.366 6.44013 13.382 6.40214C13.3979 6.36415 13.4062 6.32338 13.4063 6.28218C13.4064 6.24099 13.3984 6.20017 13.3827 6.16209C13.367 6.124 13.3439 6.0894 13.3148 6.06027C13.2856 6.03114 13.251 6.00806 13.213 5.99235C13.1749 5.97665 13.134 5.96862 13.0929 5.96875C13.0517 5.96888 13.0109 5.97715 12.9729 5.99309C12.9349 6.00903 12.9004 6.03233 12.8715 6.06163L7.86497 11.0681C7.82127 11.1118 7.7915 11.1675 7.77944 11.2281C7.76738 11.2887 7.77357 11.3516 7.79723 11.4087C7.82088 11.4658 7.86093 11.5146 7.91233 11.5489C7.96372 11.5833 8.02414 11.6016 8.08595 11.6016Z" fill="#323232"/>
<path d="M7.06446 12.6248C7.1055 12.6249 7.14615 12.6168 7.18407 12.6011C7.22198 12.5854 7.25642 12.5623 7.2854 12.5333L7.50638 12.3123C7.53593 12.2834 7.55946 12.249 7.5756 12.2109C7.59174 12.1728 7.60017 12.132 7.60041 12.0906C7.60064 12.0493 7.59268 12.0083 7.57697 11.9701C7.56126 11.9319 7.53813 11.8971 7.5089 11.8679C7.47968 11.8387 7.44495 11.8155 7.40672 11.7998C7.36849 11.7841 7.32752 11.7761 7.28619 11.7764C7.24486 11.7766 7.20399 11.785 7.16593 11.8012C7.12788 11.8173 7.0934 11.8408 7.0645 11.8704L6.84349 12.0913C6.79978 12.135 6.77002 12.1907 6.75796 12.2513C6.7459 12.312 6.75209 12.3748 6.77574 12.4319C6.79939 12.489 6.83945 12.5378 6.89084 12.5722C6.94224 12.6065 7.00266 12.6248 7.06446 12.6248Z" fill="#323232"/>
<path d="M18.125 16.5625H0.625C0.54212 16.5625 0.462634 16.5954 0.404029 16.654C0.345424 16.7126 0.3125 16.7921 0.3125 16.875C0.3125 16.9579 0.345424 17.0374 0.404029 17.096C0.462634 17.1546 0.54212 17.1875 0.625 17.1875H18.125C18.2079 17.1875 18.2874 17.1546 18.346 17.096C18.4046 17.0374 18.4375 16.9579 18.4375 16.875C18.4375 16.7921 18.4046 16.7126 18.346 16.654C18.2874 16.5954 18.2079 16.5625 18.125 16.5625Z" fill="#323232"/>
<path d="M19.375 16.5625H19.0625C18.9796 16.5625 18.9001 16.5954 18.8415 16.654C18.7829 16.7126 18.75 16.7921 18.75 16.875C18.75 16.9579 18.7829 17.0374 18.8415 17.096C18.9001 17.1546 18.9796 17.1875 19.0625 17.1875H19.375C19.4579 17.1875 19.5374 17.1546 19.596 17.096C19.6546 17.0374 19.6875 16.9579 19.6875 16.875C19.6875 16.7921 19.6546 16.7126 19.596 16.654C19.5374 16.5954 19.4579 16.5625 19.375 16.5625Z" fill="#323232"/>
</svg>
