<svg width="30" height="18" viewBox="0 0 30 18" fill="none" xmlns="http://www.w3.org/2000/svg">
<path d="M15 17.163C11.6265 17.163 7.9957 15.8436 4.50027 13.3475C1.88725 11.4815 0.274455 9.63291 0.207063 9.555C-0.0690209 9.23622 -0.0690209 8.76305 0.207063 8.44421C0.274455 8.36644 1.88718 6.51767 4.50027 4.65173C7.99577 2.15578 11.6265 0.836304 15 0.836304C18.3735 0.836304 22.0044 2.15571 25.4997 4.65173C28.1127 6.51767 29.7255 8.36637 29.7929 8.44421C30.069 8.76299 30.069 9.23616 29.7929 9.555C29.7255 9.63277 28.1128 11.4815 25.4997 13.3475C22.0044 15.8436 18.3736 17.163 15 17.163ZM2.01145 8.99971C2.66365 9.66474 3.89456 10.8342 5.51977 11.9907C7.74785 13.5761 11.2012 15.4663 15 15.4663C18.7988 15.4663 22.2522 13.5761 24.4802 11.9907C26.1052 10.8344 27.3362 9.6648 27.9886 8.99971C27.3364 8.33468 26.1054 7.16526 24.4802 6.00873C22.2522 4.42322 18.7988 2.53312 15 2.53312C11.2012 2.53312 7.74785 4.42322 5.51977 6.00873C3.89476 7.16505 2.66379 8.33447 2.01145 8.99971Z" fill="#F76600"/>
<path d="M15.0004 14.2592C12.1002 14.2592 9.74072 11.8996 9.74072 8.99945C9.74072 6.09928 12.1002 3.73975 15.0004 3.73975C16.2759 3.73975 17.5063 4.20219 18.4649 5.04198C18.8173 5.35071 18.8528 5.88666 18.544 6.23909C18.2353 6.59152 17.6993 6.62688 17.3469 6.31822C16.6978 5.74956 15.8644 5.43642 15.0004 5.43642C13.0357 5.43642 11.4373 7.03483 11.4373 8.99945C11.4373 10.9641 13.0357 12.5625 15.0004 12.5625C16.9651 12.5625 18.5634 10.9641 18.5634 8.99945C18.5634 8.53096 18.9432 8.15111 19.4117 8.15111C19.8802 8.15111 20.2601 8.53096 20.2601 8.99945C20.2602 11.8996 17.9007 14.2592 15.0004 14.2592Z" fill="#F76600"/>
<path d="M15.002 10.6963C14.0664 10.6963 13.3053 9.93521 13.3053 8.99966C13.3053 8.06411 14.0664 7.30298 15.002 7.30298C15.9376 7.30298 16.6987 8.06411 16.6987 8.99966C16.6987 9.93521 15.9376 10.6963 15.002 10.6963Z" fill="#F76600"/>
</svg>
