<svg width="35" height="35" viewBox="0 0 35 35" fill="none" xmlns="http://www.w3.org/2000/svg">
<path d="M34.5 17.5C34.5 8.11116 26.8888 0.5 17.5 0.5C8.11116 0.5 0.5 8.11116 0.5 17.5C0.5 26.8888 8.11116 34.5 17.5 34.5C26.8888 34.5 34.5 26.8888 34.5 17.5Z" fill="#F66507" stroke="black"/>
<mask id="mask0" mask-type="alpha" maskUnits="userSpaceOnUse" x="7" y="8" width="20" height="19">
<path d="M17.9492 8.60289L20.366 14.3231L26.5533 14.8546C26.9825 14.8917 27.1571 15.4271 26.8313 15.709L22.1381 19.7751L23.5445 25.8239C23.642 26.2443 23.1866 26.5749 22.8179 26.3516L17.5005 23.1447L12.1831 26.3516C11.8135 26.5739 11.359 26.2433 11.4565 25.8239L12.8629 19.7751L8.16876 15.708C7.84301 15.4262 8.01661 14.8907 8.44672 14.8536L14.6341 14.3221L17.0509 8.60289C17.2187 8.20496 17.7814 8.20496 17.9492 8.60289Z" fill="white"/>
</mask>
<g mask="url(#mask0)">
<path d="M17.9492 8.60289L20.366 14.3231L26.5533 14.8546C26.9825 14.8917 27.1571 15.4271 26.8313 15.709L22.1381 19.7751L23.5445 25.8239C23.642 26.2443 23.1866 26.5749 22.8179 26.3516L17.5005 23.1447L12.1831 26.3516C11.8135 26.5739 11.359 26.2433 11.4565 25.8239L12.8629 19.7751L8.16876 15.708C7.84301 15.4262 8.01661 14.8907 8.44672 14.8536L14.6341 14.3221L17.0509 8.60289C17.2187 8.20496 17.7814 8.20496 17.9492 8.60289Z" fill="white" stroke="black" stroke-width="2"/>
</g>
</svg>
