<svg width="35" height="35" viewBox="0 0 35 35" fill="none" xmlns="http://www.w3.org/2000/svg">
<rect x="0.5" y="0.500488" width="34" height="34" rx="17" stroke="#F66507"/>
<g clip-path="url(#clip0)">
<path d="M17.9492 8.60338L20.366 14.3236L26.5533 14.8551C26.9825 14.8922 27.1571 15.4276 26.8313 15.7095L22.1381 19.7755L23.5445 25.8244C23.642 26.2448 23.1866 26.5754 22.8179 26.3521L17.5005 23.1452L12.1831 26.3521C11.8135 26.5744 11.359 26.2438 11.4565 25.8244L12.8629 19.7755L8.16876 15.7085C7.84301 15.4266 8.01661 14.8912 8.44672 14.8541L14.6341 14.3226L17.0509 8.60338C17.2187 8.20545 17.7814 8.20545 17.9492 8.60338Z" stroke="#F66507"/>
</g>
<defs>
<clipPath id="clip0">
<rect x="8" y="7.00049" width="19" height="21" fill="white"/>
</clipPath>
</defs>
</svg>
