<svg width="52" height="52" viewBox="0 0 52 52" fill="none" xmlns="http://www.w3.org/2000/svg">
<g clip-path="url(#clip0)">
<mask id="path-2-inside-1" fill="white">
<path d="M39.8459 22.9602C39.8459 21.314 38.5067 19.9749 36.8605 19.9749H31.3739C32.7069 18.4765 33.5781 16.7704 33.7464 15.2397C33.8492 14.3049 33.5603 13.3769 32.9537 12.6937C32.3993 12.0692 31.6411 11.7211 30.8189 11.7135C30.8093 11.7134 30.7998 11.7134 30.7903 11.7134C29.995 11.7134 29.2485 12.0197 28.6851 12.5779C28.1217 13.1362 27.8099 13.8799 27.8062 14.6736C27.7773 14.8474 27.4716 15.4465 26.7236 16.1579C26.1111 16.7404 25.0533 17.5412 23.4913 18.0483C22.8789 18.2472 22.3192 18.6133 21.8278 19.1366C21.57 19.411 21.1838 19.79 20.7058 20.1705C20.4712 20.0462 20.2044 19.9751 19.9209 19.9751H14.71C13.7822 19.9751 13.0273 20.7299 13.0273 21.6578V35.5534C13.0273 36.4812 13.7822 37.2361 14.71 37.2361H19.9209C20.5534 37.2361 21.105 36.8849 21.3924 36.3676H34.6893C36.0961 36.3676 37.2405 35.2232 37.2405 33.8164C37.2405 33.3435 37.1112 32.9002 36.8859 32.52C37.6189 32.0713 38.1089 31.2631 38.1089 30.3425C38.1089 29.8695 37.9796 29.4263 37.7544 29.0461C38.4873 28.5973 38.9774 27.7891 38.9774 26.8686C38.9774 26.3362 38.8135 25.8413 38.5335 25.4318C39.3249 24.8943 39.8459 23.9869 39.8459 22.9602ZM36.8605 24.3172H36.4262C35.9766 24.3172 35.612 24.6817 35.612 25.1314C35.612 25.581 35.9765 25.9457 36.4262 25.9457C36.9351 25.9457 37.349 26.3596 37.349 26.8684C37.349 27.3773 36.9351 27.7912 36.4262 27.7912H35.5578C35.1082 27.7912 34.7435 28.1558 34.7435 28.6055C34.7435 29.0551 35.1081 29.4197 35.5578 29.4197C36.0666 29.4197 36.4806 29.8337 36.4806 30.3425C36.4806 30.8513 36.0666 31.2653 35.5578 31.2653H34.6893C34.2397 31.2653 33.8751 31.6298 33.8751 32.0795C33.8751 32.5291 34.2396 32.8937 34.6893 32.8937C35.1981 32.8937 35.6121 33.3077 35.6121 33.8165C35.6121 34.3254 35.1981 34.7393 34.6893 34.7393H21.6036V26.8688C21.6036 26.4191 21.2391 26.0545 20.7894 26.0545C20.3396 26.0545 19.9751 26.419 19.9751 26.8688V35.5535C19.9751 35.5834 19.9509 35.6077 19.9209 35.6077H14.71C14.6801 35.6077 14.6558 35.5834 14.6558 35.5535V21.6575C14.6558 21.6275 14.6801 21.6032 14.71 21.6032H19.9209C19.9509 21.6032 19.9751 21.6275 19.9751 21.6575V23.3945C19.9751 23.8441 20.3396 24.2087 20.7894 24.2087C21.2391 24.2087 21.6036 23.8442 21.6036 23.3945V21.6575C21.6036 21.618 21.6003 21.5793 21.5976 21.5405C22.2081 21.0679 22.6963 20.5902 23.0148 20.2511C23.3161 19.9301 23.6456 19.7101 23.9941 19.5971C25.9105 18.9749 27.2003 17.9731 27.9446 17.2422C28.8776 16.3262 29.4345 15.3714 29.4345 14.6877C29.4345 14.3266 29.5753 13.9881 29.8312 13.7346C30.0902 13.4779 30.4331 13.3423 30.8037 13.3418C31.2602 13.3461 31.5624 13.5796 31.7358 13.7748C32.0329 14.1094 32.1792 14.5906 32.1275 15.0618C31.9497 16.6796 30.6559 18.6794 28.8314 20.1563C28.5634 20.3733 28.4611 20.7357 28.5762 21.0608C28.6912 21.3859 28.9988 21.6032 29.3437 21.6032H36.8603C37.6086 21.6032 38.2173 22.2119 38.2173 22.9602C38.2173 23.7085 37.6087 24.3172 36.8605 24.3172Z"/>
</mask>
<path d="M39.8459 22.9602C39.8459 21.314 38.5067 19.9749 36.8605 19.9749H31.3739C32.7069 18.4765 33.5781 16.7704 33.7464 15.2397C33.8492 14.3049 33.5603 13.3769 32.9537 12.6937C32.3993 12.0692 31.6411 11.7211 30.8189 11.7135C30.8093 11.7134 30.7998 11.7134 30.7903 11.7134C29.995 11.7134 29.2485 12.0197 28.6851 12.5779C28.1217 13.1362 27.8099 13.8799 27.8062 14.6736C27.7773 14.8474 27.4716 15.4465 26.7236 16.1579C26.1111 16.7404 25.0533 17.5412 23.4913 18.0483C22.8789 18.2472 22.3192 18.6133 21.8278 19.1366C21.57 19.411 21.1838 19.79 20.7058 20.1705C20.4712 20.0462 20.2044 19.9751 19.9209 19.9751H14.71C13.7822 19.9751 13.0273 20.7299 13.0273 21.6578V35.5534C13.0273 36.4812 13.7822 37.2361 14.71 37.2361H19.9209C20.5534 37.2361 21.105 36.8849 21.3924 36.3676H34.6893C36.0961 36.3676 37.2405 35.2232 37.2405 33.8164C37.2405 33.3435 37.1112 32.9002 36.8859 32.52C37.6189 32.0713 38.1089 31.2631 38.1089 30.3425C38.1089 29.8695 37.9796 29.4263 37.7544 29.0461C38.4873 28.5973 38.9774 27.7891 38.9774 26.8686C38.9774 26.3362 38.8135 25.8413 38.5335 25.4318C39.3249 24.8943 39.8459 23.9869 39.8459 22.9602ZM36.8605 24.3172H36.4262C35.9766 24.3172 35.612 24.6817 35.612 25.1314C35.612 25.581 35.9765 25.9457 36.4262 25.9457C36.9351 25.9457 37.349 26.3596 37.349 26.8684C37.349 27.3773 36.9351 27.7912 36.4262 27.7912H35.5578C35.1082 27.7912 34.7435 28.1558 34.7435 28.6055C34.7435 29.0551 35.1081 29.4197 35.5578 29.4197C36.0666 29.4197 36.4806 29.8337 36.4806 30.3425C36.4806 30.8513 36.0666 31.2653 35.5578 31.2653H34.6893C34.2397 31.2653 33.8751 31.6298 33.8751 32.0795C33.8751 32.5291 34.2396 32.8937 34.6893 32.8937C35.1981 32.8937 35.6121 33.3077 35.6121 33.8165C35.6121 34.3254 35.1981 34.7393 34.6893 34.7393H21.6036V26.8688C21.6036 26.4191 21.2391 26.0545 20.7894 26.0545C20.3396 26.0545 19.9751 26.419 19.9751 26.8688V35.5535C19.9751 35.5834 19.9509 35.6077 19.9209 35.6077H14.71C14.6801 35.6077 14.6558 35.5834 14.6558 35.5535V21.6575C14.6558 21.6275 14.6801 21.6032 14.71 21.6032H19.9209C19.9509 21.6032 19.9751 21.6275 19.9751 21.6575V23.3945C19.9751 23.8441 20.3396 24.2087 20.7894 24.2087C21.2391 24.2087 21.6036 23.8442 21.6036 23.3945V21.6575C21.6036 21.618 21.6003 21.5793 21.5976 21.5405C22.2081 21.0679 22.6963 20.5902 23.0148 20.2511C23.3161 19.9301 23.6456 19.7101 23.9941 19.5971C25.9105 18.9749 27.2003 17.9731 27.9446 17.2422C28.8776 16.3262 29.4345 15.3714 29.4345 14.6877C29.4345 14.3266 29.5753 13.9881 29.8312 13.7346C30.0902 13.4779 30.4331 13.3423 30.8037 13.3418C31.2602 13.3461 31.5624 13.5796 31.7358 13.7748C32.0329 14.1094 32.1792 14.5906 32.1275 15.0618C31.9497 16.6796 30.6559 18.6794 28.8314 20.1563C28.5634 20.3733 28.4611 20.7357 28.5762 21.0608C28.6912 21.3859 28.9988 21.6032 29.3437 21.6032H36.8603C37.6086 21.6032 38.2173 22.2119 38.2173 22.9602C38.2173 23.7085 37.6087 24.3172 36.8605 24.3172Z" fill="black" stroke="#F7F7F7" stroke-width="0.6" mask="url(#path-2-inside-1)"/>
<mask id="path-3-inside-2" fill="white">
<path d="M17.3146 32.125C16.865 32.125 16.4961 32.4939 16.4961 32.9435C16.4961 33.3931 16.865 33.762 17.3146 33.762C17.7642 33.762 18.1331 33.3931 18.1331 32.9435C18.1332 32.494 17.7643 32.125 17.3146 32.125Z"/>
</mask>
<path d="M17.3146 32.125C16.865 32.125 16.4961 32.4939 16.4961 32.9435C16.4961 33.3931 16.865 33.762 17.3146 33.762C17.7642 33.762 18.1331 33.3931 18.1331 32.9435C18.1332 32.494 17.7643 32.125 17.3146 32.125Z" fill="black" stroke="#F7F7F7" stroke-width="0.6" mask="url(#path-3-inside-2)"/>
<mask id="path-4-inside-3" fill="white">
<path d="M50.5485 26.0003L51.9472 22.2991C52.049 22.0298 52.001 21.7269 51.8209 21.5021L49.347 18.4142L49.5334 14.4619C49.5471 14.1745 49.4077 13.901 49.1672 13.7431L45.8601 11.5707L44.8163 7.75422C44.7403 7.47655 44.5234 7.25961 44.2458 7.18374L40.4293 6.13988L38.257 2.83291C38.0989 2.5923 37.8255 2.45357 37.5381 2.46667L33.5858 2.65314L30.4979 0.17918C30.2732 -0.00078896 29.9703 -0.048828 29.7009 0.0529376L25.9997 1.45166L22.2986 0.0530391C22.0292 -0.048828 21.7263 -0.000788972 21.5017 0.179281L18.4138 2.65324L14.4615 2.46677C14.1726 2.45316 13.9005 2.59251 13.7426 2.83301L11.5704 6.14008L7.75388 7.18394C7.47621 7.25991 7.25927 7.47685 7.1834 7.75442L6.13954 11.5709L2.83247 13.7432C2.59186 13.9012 2.45262 14.1746 2.46623 14.462L2.6527 18.4143L0.17874 21.5022C-0.00122873 21.7269 -0.0492678 22.0298 0.0524978 22.2992L1.45111 26.0003L0.0523963 29.7015C-0.0494709 29.9707 -0.00143186 30.2737 0.178638 30.4984L2.6526 33.5863L2.46613 37.5386C2.45252 37.8261 2.59186 38.0996 2.83236 38.2575L6.13944 40.4298L7.1833 44.2463C7.25927 44.524 7.47621 44.7409 7.75378 44.8168L11.5703 45.8607L13.7425 49.1677C13.9005 49.4083 14.1745 49.5467 14.4614 49.534L18.4137 49.3475L21.5016 51.8215C21.7262 52.0015 22.0293 52.0496 22.2985 51.9477L25.9998 50.549L29.701 51.9477C29.7945 51.9829 29.8919 52.0002 29.9888 52.0002C30.1712 52.0002 30.3512 51.939 30.4979 51.8215L33.5858 49.3475L37.5381 49.534C37.8264 49.5468 38.0989 49.4082 38.257 49.1677L40.4293 45.8607L44.2458 44.8168C44.5235 44.7408 44.7404 44.5239 44.8163 44.2463L45.8601 40.4298L49.1672 38.2575C49.4078 38.0995 49.5471 37.8261 49.5334 37.5386L49.347 33.5863L51.8209 30.4984C52.0009 30.2738 52.0489 29.9708 51.9472 29.7015L50.5485 26.0003ZM48.9164 26.2882L50.2597 29.8427L47.8838 32.8083C47.7598 32.9629 47.6965 33.1576 47.7058 33.3557L47.885 37.1514L44.709 39.2376C44.5434 39.3463 44.4229 39.512 44.3706 39.7033L43.3681 43.3686L39.7028 44.3711C39.5116 44.4235 39.346 44.5438 39.237 44.7096L37.1508 47.8855L33.3551 47.7064C33.157 47.6972 32.9624 47.7603 32.8077 47.8843L29.8422 50.2602L26.2876 48.917C26.1949 48.8819 26.0973 48.8645 25.9998 48.8645C25.9023 48.8645 25.8047 48.882 25.712 48.917L22.1574 50.2602L19.1918 47.8843C19.0372 47.7603 18.8422 47.6972 18.6444 47.7064L14.8487 47.8855L12.7625 44.7096C12.6538 44.5439 12.4881 44.4235 12.2968 44.3711L8.63148 43.3686L7.62896 39.7033C7.57665 39.5121 7.4563 39.3465 7.29055 39.2376L4.11459 37.1514L4.29375 33.3557C4.30309 33.1575 4.23982 32.9629 4.11581 32.8083L1.73986 29.8427L3.08322 26.2882C3.1533 26.1027 3.1533 25.8979 3.08322 25.7125L1.73986 22.1579L4.11581 19.1924C4.23982 19.0377 4.30309 18.843 4.29375 18.645L4.11459 14.8493L7.29055 12.7631C7.4562 12.6543 7.57665 12.4887 7.62896 12.2973L8.63148 8.63202L12.2968 7.6295C12.488 7.57719 12.6536 7.45684 12.7625 7.29109L14.8487 4.11513L18.6444 4.29429C18.8423 4.30353 19.0372 4.24036 19.1918 4.11635L22.1574 1.7404L25.712 3.08377C25.8975 3.15384 26.1022 3.15384 26.2876 3.08377L29.8422 1.7404L32.8077 4.11635C32.9624 4.24046 33.1572 4.30363 33.3551 4.29429L37.1508 4.11513L39.237 7.29109C39.3458 7.45674 39.5115 7.57719 39.7028 7.6295L43.3681 8.63202L44.3706 12.2973C44.4229 12.4886 44.5433 12.6541 44.709 12.7631L47.885 14.8493L47.7058 18.645C47.6965 18.8431 47.7598 19.0377 47.8838 19.1924L50.2597 22.1579L48.9163 25.7125C48.8464 25.898 48.8464 26.1027 48.9164 26.2882Z"/>
</mask>
<path d="M50.5485 26.0003L51.9472 22.2991C52.049 22.0298 52.001 21.7269 51.8209 21.5021L49.347 18.4142L49.5334 14.4619C49.5471 14.1745 49.4077 13.901 49.1672 13.7431L45.8601 11.5707L44.8163 7.75422C44.7403 7.47655 44.5234 7.25961 44.2458 7.18374L40.4293 6.13988L38.257 2.83291C38.0989 2.5923 37.8255 2.45357 37.5381 2.46667L33.5858 2.65314L30.4979 0.17918C30.2732 -0.00078896 29.9703 -0.048828 29.7009 0.0529376L25.9997 1.45166L22.2986 0.0530391C22.0292 -0.048828 21.7263 -0.000788972 21.5017 0.179281L18.4138 2.65324L14.4615 2.46677C14.1726 2.45316 13.9005 2.59251 13.7426 2.83301L11.5704 6.14008L7.75388 7.18394C7.47621 7.25991 7.25927 7.47685 7.1834 7.75442L6.13954 11.5709L2.83247 13.7432C2.59186 13.9012 2.45262 14.1746 2.46623 14.462L2.6527 18.4143L0.17874 21.5022C-0.00122873 21.7269 -0.0492678 22.0298 0.0524978 22.2992L1.45111 26.0003L0.0523963 29.7015C-0.0494709 29.9707 -0.00143186 30.2737 0.178638 30.4984L2.6526 33.5863L2.46613 37.5386C2.45252 37.8261 2.59186 38.0996 2.83236 38.2575L6.13944 40.4298L7.1833 44.2463C7.25927 44.524 7.47621 44.7409 7.75378 44.8168L11.5703 45.8607L13.7425 49.1677C13.9005 49.4083 14.1745 49.5467 14.4614 49.534L18.4137 49.3475L21.5016 51.8215C21.7262 52.0015 22.0293 52.0496 22.2985 51.9477L25.9998 50.549L29.701 51.9477C29.7945 51.9829 29.8919 52.0002 29.9888 52.0002C30.1712 52.0002 30.3512 51.939 30.4979 51.8215L33.5858 49.3475L37.5381 49.534C37.8264 49.5468 38.0989 49.4082 38.257 49.1677L40.4293 45.8607L44.2458 44.8168C44.5235 44.7408 44.7404 44.5239 44.8163 44.2463L45.8601 40.4298L49.1672 38.2575C49.4078 38.0995 49.5471 37.8261 49.5334 37.5386L49.347 33.5863L51.8209 30.4984C52.0009 30.2738 52.0489 29.9708 51.9472 29.7015L50.5485 26.0003ZM48.9164 26.2882L50.2597 29.8427L47.8838 32.8083C47.7598 32.9629 47.6965 33.1576 47.7058 33.3557L47.885 37.1514L44.709 39.2376C44.5434 39.3463 44.4229 39.512 44.3706 39.7033L43.3681 43.3686L39.7028 44.3711C39.5116 44.4235 39.346 44.5438 39.237 44.7096L37.1508 47.8855L33.3551 47.7064C33.157 47.6972 32.9624 47.7603 32.8077 47.8843L29.8422 50.2602L26.2876 48.917C26.1949 48.8819 26.0973 48.8645 25.9998 48.8645C25.9023 48.8645 25.8047 48.882 25.712 48.917L22.1574 50.2602L19.1918 47.8843C19.0372 47.7603 18.8422 47.6972 18.6444 47.7064L14.8487 47.8855L12.7625 44.7096C12.6538 44.5439 12.4881 44.4235 12.2968 44.3711L8.63148 43.3686L7.62896 39.7033C7.57665 39.5121 7.4563 39.3465 7.29055 39.2376L4.11459 37.1514L4.29375 33.3557C4.30309 33.1575 4.23982 32.9629 4.11581 32.8083L1.73986 29.8427L3.08322 26.2882C3.1533 26.1027 3.1533 25.8979 3.08322 25.7125L1.73986 22.1579L4.11581 19.1924C4.23982 19.0377 4.30309 18.843 4.29375 18.645L4.11459 14.8493L7.29055 12.7631C7.4562 12.6543 7.57665 12.4887 7.62896 12.2973L8.63148 8.63202L12.2968 7.6295C12.488 7.57719 12.6536 7.45684 12.7625 7.29109L14.8487 4.11513L18.6444 4.29429C18.8423 4.30353 19.0372 4.24036 19.1918 4.11635L22.1574 1.7404L25.712 3.08377C25.8975 3.15384 26.1022 3.15384 26.2876 3.08377L29.8422 1.7404L32.8077 4.11635C32.9624 4.24046 33.1572 4.30363 33.3551 4.29429L37.1508 4.11513L39.237 7.29109C39.3458 7.45674 39.5115 7.57719 39.7028 7.6295L43.3681 8.63202L44.3706 12.2973C44.4229 12.4886 44.5433 12.6541 44.709 12.7631L47.885 14.8493L47.7058 18.645C47.6965 18.8431 47.7598 19.0377 47.8838 19.1924L50.2597 22.1579L48.9163 25.7125C48.8464 25.898 48.8464 26.1027 48.9164 26.2882Z" fill="black" stroke="#F7F7F7" stroke-width="0.6" mask="url(#path-4-inside-3)"/>
<mask id="path-5-inside-4" fill="white">
<path d="M41.2988 11.9411C41.0961 11.7205 40.886 11.5011 40.6738 11.2891C40.4617 11.077 40.2424 10.8668 40.0218 10.6641C39.6906 10.3601 39.1756 10.382 38.8714 10.7133C38.5673 11.0445 38.5893 11.5596 38.9206 11.8637C39.124 12.0506 39.3265 12.2446 39.5223 12.4404C39.718 12.6361 39.9121 12.8387 40.0991 13.0422C40.2597 13.2171 40.479 13.3058 40.6991 13.3058C40.8959 13.3058 41.0932 13.2349 41.2495 13.0914C41.5808 12.7874 41.6028 12.2723 41.2988 11.9411Z"/>
</mask>
<path d="M41.2988 11.9411C41.0961 11.7205 40.886 11.5011 40.6738 11.2891C40.4617 11.077 40.2424 10.8668 40.0218 10.6641C39.6906 10.3601 39.1756 10.382 38.8714 10.7133C38.5673 11.0445 38.5893 11.5596 38.9206 11.8637C39.124 12.0506 39.3265 12.2446 39.5223 12.4404C39.718 12.6361 39.9121 12.8387 40.0991 13.0422C40.2597 13.2171 40.479 13.3058 40.6991 13.3058C40.8959 13.3058 41.0932 13.2349 41.2495 13.0914C41.5808 12.7874 41.6028 12.2723 41.2988 11.9411Z" fill="black" stroke="#F7F7F7" stroke-width="0.6" mask="url(#path-5-inside-4)"/>
<mask id="path-6-inside-5" fill="white">
<path d="M37.1296 8.44234C33.2032 5.94085 28.4758 4.82915 23.8189 5.31127C19.0937 5.8008 14.6381 7.92366 11.2728 11.2889C7.56908 14.9926 5.41271 19.9127 5.20085 25.1429C4.99031 30.3423 6.7124 35.3903 10.0501 39.3569C10.211 39.5483 10.4414 39.6469 10.6735 39.6469C10.8586 39.6469 11.0447 39.5841 11.1973 39.4558C11.5413 39.1662 11.5856 38.6526 11.2961 38.3086C8.22071 34.6535 6.63389 30.0013 6.82788 25.2089C7.02308 20.3885 9.01046 15.854 12.4241 12.4404C15.5258 9.33862 19.6322 7.38202 23.9866 6.93098C28.2801 6.48614 32.6367 7.5108 36.2545 9.81566C36.6338 10.0573 37.137 9.94577 37.3786 9.56653C37.6203 9.1872 37.5087 8.68395 37.1296 8.44234Z"/>
</mask>
<path d="M37.1296 8.44234C33.2032 5.94085 28.4758 4.82915 23.8189 5.31127C19.0937 5.8008 14.6381 7.92366 11.2728 11.2889C7.56908 14.9926 5.41271 19.9127 5.20085 25.1429C4.99031 30.3423 6.7124 35.3903 10.0501 39.3569C10.211 39.5483 10.4414 39.6469 10.6735 39.6469C10.8586 39.6469 11.0447 39.5841 11.1973 39.4558C11.5413 39.1662 11.5856 38.6526 11.2961 38.3086C8.22071 34.6535 6.63389 30.0013 6.82788 25.2089C7.02308 20.3885 9.01046 15.854 12.4241 12.4404C15.5258 9.33862 19.6322 7.38202 23.9866 6.93098C28.2801 6.48614 32.6367 7.5108 36.2545 9.81566C36.6338 10.0573 37.137 9.94577 37.3786 9.56653C37.6203 9.1872 37.5087 8.68395 37.1296 8.44234Z" fill="black" stroke="#F7F7F7" stroke-width="0.6" mask="url(#path-6-inside-5)"/>
<mask id="path-7-inside-6" fill="white">
<path d="M43.5212 14.8326C43.2796 14.4532 42.7761 14.3417 42.397 14.5833C42.0177 14.8249 41.9063 15.3283 42.1479 15.7074C44.4528 19.3253 45.4772 23.6821 45.0326 27.9754C44.5815 32.3298 42.6249 36.436 39.5232 39.5379C36.1096 42.9515 31.575 44.9389 26.7548 45.1341C21.9632 45.3289 17.3101 43.7414 13.655 40.6661C13.311 40.3765 12.7974 40.4208 12.5079 40.7649C12.2183 41.1089 12.2626 41.6225 12.6067 41.9121C16.3565 45.0671 21.072 46.7786 25.9689 46.7785C26.2521 46.7785 26.5365 46.7728 26.8209 46.7613C32.0511 46.5495 36.971 44.3931 40.6748 40.6895C44.0402 37.3241 46.1632 32.8684 46.6525 28.1432C47.1347 23.486 46.0227 18.7589 43.5212 14.8326Z"/>
</mask>
<path d="M43.5212 14.8326C43.2796 14.4532 42.7761 14.3417 42.397 14.5833C42.0177 14.8249 41.9063 15.3283 42.1479 15.7074C44.4528 19.3253 45.4772 23.6821 45.0326 27.9754C44.5815 32.3298 42.6249 36.436 39.5232 39.5379C36.1096 42.9515 31.575 44.9389 26.7548 45.1341C21.9632 45.3289 17.3101 43.7414 13.655 40.6661C13.311 40.3765 12.7974 40.4208 12.5079 40.7649C12.2183 41.1089 12.2626 41.6225 12.6067 41.9121C16.3565 45.0671 21.072 46.7786 25.9689 46.7785C26.2521 46.7785 26.5365 46.7728 26.8209 46.7613C32.0511 46.5495 36.971 44.3931 40.6748 40.6895C44.0402 37.3241 46.1632 32.8684 46.6525 28.1432C47.1347 23.486 46.0227 18.7589 43.5212 14.8326Z" fill="black" stroke="#F7F7F7" stroke-width="0.6" mask="url(#path-7-inside-6)"/>
</g>
<defs>
<clipPath id="clip0">
<rect width="52" height="52" fill="white"/>
</clipPath>
</defs>
</svg>
