<svg width="47" height="47" viewBox="0 0 47 47" fill="none" xmlns="http://www.w3.org/2000/svg">
<mask id="path-2-inside-1" fill="white">
<path d="M44.8398 41.2079H44.0566V20.7828C45.8252 19.6448 47 17.6604 47 15.4055C47 15.2857 46.9687 15.1679 46.9093 15.0639L41.4462 5.50347C41.0625 4.83216 40.3438 4.41504 39.5706 4.41504H7.4294C6.65619 4.41504 5.93751 4.83207 5.5538 5.50347L0.0906953 15.0639C0.0313027 15.1679 0 15.2858 0 15.4055C0 17.6604 1.17482 19.6448 2.94337 20.7828V41.2079H2.16016C1.77994 41.2079 1.47169 41.5161 1.47169 41.8963C1.47169 42.2766 1.77994 42.5848 2.16016 42.5848H44.8398C45.2201 42.5848 45.5283 42.2766 45.5283 41.8963C45.5283 41.5161 45.2201 41.2079 44.8398 41.2079ZM1.42441 16.094H3.63158C4.0118 16.094 4.32005 15.7857 4.32005 15.4055C4.32005 15.0253 4.0118 14.717 3.63158 14.717H1.87486L6.74937 6.18663C6.88853 5.94318 7.14905 5.79199 7.4294 5.79199H39.5706C39.8509 5.79199 40.1116 5.94318 40.2506 6.18663L45.125 14.717H43.368C42.9876 14.717 42.6795 15.0253 42.6795 15.4055C42.6795 15.7857 42.9876 16.094 43.368 16.094H45.5755C45.2389 18.5343 43.1399 20.4199 40.6086 20.4199C38.0773 20.4199 35.9793 18.5341 35.6426 16.094H40.4249C40.8052 16.094 41.1133 15.7857 41.1133 15.4055C41.1133 15.0253 40.8052 14.717 40.4249 14.717H6.5755C6.19528 14.717 5.88702 15.0253 5.88702 15.4055C5.88702 15.7857 6.19528 16.094 6.5755 16.094H11.3573C11.0206 18.5341 8.92256 20.4199 6.39136 20.4199C3.85997 20.4199 1.76103 18.5343 1.42441 16.094ZM34.1688 16.094C33.8321 18.5341 31.7341 20.4199 29.2029 20.4199C26.6716 20.4199 24.5737 18.5341 24.2369 16.094H34.1688ZM22.7631 16.094C22.4263 18.5341 20.3283 20.4199 17.7971 20.4199C15.2659 20.4199 13.1679 18.5341 12.8312 16.094H22.7631ZM39.0003 41.208H31.547V38.9056H39.0003V41.208ZM39.0003 37.5286H31.547V24.9243H39.0003V37.5286ZM42.6797 41.208H40.3773V24.2358C40.3773 23.8556 40.0692 23.5473 39.6888 23.5473H30.8586C30.4783 23.5473 30.1701 23.8556 30.1701 24.2358V41.2079H4.32033V21.4505C4.97034 21.6739 5.66653 21.7969 6.39136 21.7969C8.87859 21.7969 11.0385 20.3689 12.0942 18.2896C13.15 20.3688 15.3099 21.7969 17.7971 21.7969C20.2844 21.7969 22.4442 20.3689 23.5 18.2896C24.5558 20.3688 26.7156 21.7969 29.2029 21.7969C31.6901 21.7969 33.85 20.3689 34.9058 18.2896C35.9615 20.3688 38.1214 21.7969 40.6086 21.7969C41.3335 21.7969 42.0297 21.6739 42.6797 21.4506V41.208Z"/>
</mask>
<path d="M44.8398 41.2079H44.0566V20.7828C45.8252 19.6448 47 17.6604 47 15.4055C47 15.2857 46.9687 15.1679 46.9093 15.0639L41.4462 5.50347C41.0625 4.83216 40.3438 4.41504 39.5706 4.41504H7.4294C6.65619 4.41504 5.93751 4.83207 5.5538 5.50347L0.0906953 15.0639C0.0313027 15.1679 0 15.2858 0 15.4055C0 17.6604 1.17482 19.6448 2.94337 20.7828V41.2079H2.16016C1.77994 41.2079 1.47169 41.5161 1.47169 41.8963C1.47169 42.2766 1.77994 42.5848 2.16016 42.5848H44.8398C45.2201 42.5848 45.5283 42.2766 45.5283 41.8963C45.5283 41.5161 45.2201 41.2079 44.8398 41.2079ZM1.42441 16.094H3.63158C4.0118 16.094 4.32005 15.7857 4.32005 15.4055C4.32005 15.0253 4.0118 14.717 3.63158 14.717H1.87486L6.74937 6.18663C6.88853 5.94318 7.14905 5.79199 7.4294 5.79199H39.5706C39.8509 5.79199 40.1116 5.94318 40.2506 6.18663L45.125 14.717H43.368C42.9876 14.717 42.6795 15.0253 42.6795 15.4055C42.6795 15.7857 42.9876 16.094 43.368 16.094H45.5755C45.2389 18.5343 43.1399 20.4199 40.6086 20.4199C38.0773 20.4199 35.9793 18.5341 35.6426 16.094H40.4249C40.8052 16.094 41.1133 15.7857 41.1133 15.4055C41.1133 15.0253 40.8052 14.717 40.4249 14.717H6.5755C6.19528 14.717 5.88702 15.0253 5.88702 15.4055C5.88702 15.7857 6.19528 16.094 6.5755 16.094H11.3573C11.0206 18.5341 8.92256 20.4199 6.39136 20.4199C3.85997 20.4199 1.76103 18.5343 1.42441 16.094ZM34.1688 16.094C33.8321 18.5341 31.7341 20.4199 29.2029 20.4199C26.6716 20.4199 24.5737 18.5341 24.2369 16.094H34.1688ZM22.7631 16.094C22.4263 18.5341 20.3283 20.4199 17.7971 20.4199C15.2659 20.4199 13.1679 18.5341 12.8312 16.094H22.7631ZM39.0003 41.208H31.547V38.9056H39.0003V41.208ZM39.0003 37.5286H31.547V24.9243H39.0003V37.5286ZM42.6797 41.208H40.3773V24.2358C40.3773 23.8556 40.0692 23.5473 39.6888 23.5473H30.8586C30.4783 23.5473 30.1701 23.8556 30.1701 24.2358V41.2079H4.32033V21.4505C4.97034 21.6739 5.66653 21.7969 6.39136 21.7969C8.87859 21.7969 11.0385 20.3689 12.0942 18.2896C13.15 20.3688 15.3099 21.7969 17.7971 21.7969C20.2844 21.7969 22.4442 20.3689 23.5 18.2896C24.5558 20.3688 26.7156 21.7969 29.2029 21.7969C31.6901 21.7969 33.85 20.3689 34.9058 18.2896C35.9615 20.3688 38.1214 21.7969 40.6086 21.7969C41.3335 21.7969 42.0297 21.6739 42.6797 21.4506V41.208Z" fill="black" stroke="#F7F7F7" stroke-width="0.6" mask="url(#path-2-inside-1)"/>
<mask id="path-3-inside-2" fill="white">
<path d="M27.1816 23.5474H7.31348C6.93325 23.5474 6.625 23.8556 6.625 24.2358V38.2171C6.625 38.5974 6.93325 38.9056 7.31348 38.9056H27.1816C27.5619 38.9056 27.8701 38.5974 27.8701 38.2171V24.2358C27.8701 23.8555 27.5619 23.5474 27.1816 23.5474ZM26.4931 37.5287H8.00195V24.9243H26.4931V37.5287Z"/>
</mask>
<path d="M27.1816 23.5474H7.31348C6.93325 23.5474 6.625 23.8556 6.625 24.2358V38.2171C6.625 38.5974 6.93325 38.9056 7.31348 38.9056H27.1816C27.5619 38.9056 27.8701 38.5974 27.8701 38.2171V24.2358C27.8701 23.8555 27.5619 23.5474 27.1816 23.5474ZM26.4931 37.5287H8.00195V24.9243H26.4931V37.5287Z" fill="black" stroke="#F7F7F7" stroke-width="0.6" mask="url(#path-3-inside-2)"/>
</svg>
