<svg width="47" height="48" viewBox="0 0 47 48" fill="none" xmlns="http://www.w3.org/2000/svg">
<mask id="path-2-inside-1" fill="white">
<path d="M19.1277 29.9343L17.4004 29.3479C16.8323 29.1546 16.4492 28.6115 16.4495 27.9999C16.4495 27.1162 17.1508 26.3999 18.0161 26.3999C18.8814 26.3999 19.5828 27.1162 19.5828 27.9999H21.1495C21.1441 26.5452 20.1787 25.2772 18.7995 24.9135V23.2H17.2328V24.9135C15.8537 25.2772 14.8882 26.5452 14.8828 27.9999C14.8818 29.3002 15.6965 30.4549 16.9046 30.8655L18.6318 31.4519C19.1999 31.6452 19.5831 32.1883 19.5828 32.7999C19.5828 33.6836 18.8814 34.3999 18.0161 34.3999C17.1508 34.3999 16.4495 33.6836 16.4495 32.7999H14.8828C14.8882 34.2546 15.8537 35.5226 17.2328 35.8863V37.5999H18.7995V35.8863C20.1787 35.5226 21.1441 34.2546 21.1495 32.7999C21.1504 31.4996 20.3358 30.3449 19.1277 29.9343Z"/>
</mask>
<path d="M19.1277 29.9343L17.4004 29.3479C16.8323 29.1546 16.4492 28.6115 16.4495 27.9999C16.4495 27.1162 17.1508 26.3999 18.0161 26.3999C18.8814 26.3999 19.5828 27.1162 19.5828 27.9999H21.1495C21.1441 26.5452 20.1787 25.2772 18.7995 24.9135V23.2H17.2328V24.9135C15.8537 25.2772 14.8882 26.5452 14.8828 27.9999C14.8818 29.3002 15.6965 30.4549 16.9046 30.8655L18.6318 31.4519C19.1999 31.6452 19.5831 32.1883 19.5828 32.7999C19.5828 33.6836 18.8814 34.3999 18.0161 34.3999C17.1508 34.3999 16.4495 33.6836 16.4495 32.7999H14.8828C14.8882 34.2546 15.8537 35.5226 17.2328 35.8863V37.5999H18.7995V35.8863C20.1787 35.5226 21.1441 34.2546 21.1495 32.7999C21.1504 31.4996 20.3358 30.3449 19.1277 29.9343Z" fill="black" stroke="#F7F7F7" stroke-width="0.8" mask="url(#path-2-inside-1)"/>
<mask id="path-3-inside-2" fill="white">
<path d="M46.2165 17.5999H30.3807C28.7253 15.5165 26.6443 13.8275 24.2832 12.6511V9.19996L27.1032 7.03997C27.3004 6.88887 27.4166 6.65177 27.4166 6.39997V0.799997C27.4166 0.358198 27.0658 0 26.6332 0H23.4999C23.2921 0 23.093 0.0843996 22.9461 0.234399L21.9332 1.26879L20.9204 0.234399C20.7735 0.0843996 20.5744 0 20.3666 0H15.6666C15.4588 0 15.2597 0.0843996 15.1128 0.234399L14.0999 1.26879L13.0871 0.234399C12.9402 0.0843996 12.7411 0 12.5333 0H9.39996C8.96737 0 8.61663 0.358198 8.61663 0.799997V6.39997C8.61663 6.65177 8.73276 6.88887 8.92996 7.03997L11.75 9.19996V12.6591C5.82014 15.5895 0 23.4607 0 33.5559C0 42.735 6.56666 47.9998 18.0166 47.9998C19.8751 48.0066 21.7304 47.8384 23.5587 47.4974C23.6774 47.8 23.964 47.9987 24.2832 47.9998H46.2165C46.6491 47.9998 46.9998 47.6416 46.9998 47.1998V18.3999C46.9998 17.9581 46.6491 17.5999 46.2165 17.5999ZM10.1833 5.99997V1.59999H12.209L13.5461 2.96559C13.852 3.27789 14.3479 3.27789 14.6538 2.96559L15.9909 1.59999H20.0423L21.3794 2.96559C21.6853 3.27789 22.1812 3.27789 22.4871 2.96559L23.8242 1.59999H25.8499V5.99997L23.2391 7.99997H12.7941L10.1833 5.99997ZM22.7166 9.59996V11.9999H13.3166V9.59996H22.7166ZM23.4999 37.1782C19.8345 40.2778 14.4028 39.756 11.3677 36.0126C8.33267 32.2693 8.8436 26.722 12.509 23.6223C15.6971 20.9263 20.3117 20.9263 23.4998 23.6223V37.1782H23.4999ZM23.4999 18.3999V21.6455C18.7659 18.5445 12.4668 19.9499 9.43041 24.7846C6.39403 29.6193 7.77014 36.0524 12.5041 39.1534C15.8544 41.3481 20.1497 41.3481 23.5 39.1534V45.8814C21.6929 46.2344 19.8565 46.408 18.0167 46.3998C13.0707 46.3998 1.56676 45.1486 1.56676 33.5559C1.56676 25.9023 6.05837 16.3791 13.5783 13.5999H22.4605C24.6764 14.4589 26.6687 15.8276 28.283 17.5999H24.2833C23.8506 17.5999 23.4999 17.9581 23.4999 18.3999ZM45.4331 46.3998H25.0666V25.5999H45.4331V46.3998ZM45.4331 23.9999H25.0666V19.1999H45.4331V23.9999Z"/>
</mask>
<path d="M46.2165 17.5999H30.3807C28.7253 15.5165 26.6443 13.8275 24.2832 12.6511V9.19996L27.1032 7.03997C27.3004 6.88887 27.4166 6.65177 27.4166 6.39997V0.799997C27.4166 0.358198 27.0658 0 26.6332 0H23.4999C23.2921 0 23.093 0.0843996 22.9461 0.234399L21.9332 1.26879L20.9204 0.234399C20.7735 0.0843996 20.5744 0 20.3666 0H15.6666C15.4588 0 15.2597 0.0843996 15.1128 0.234399L14.0999 1.26879L13.0871 0.234399C12.9402 0.0843996 12.7411 0 12.5333 0H9.39996C8.96737 0 8.61663 0.358198 8.61663 0.799997V6.39997C8.61663 6.65177 8.73276 6.88887 8.92996 7.03997L11.75 9.19996V12.6591C5.82014 15.5895 0 23.4607 0 33.5559C0 42.735 6.56666 47.9998 18.0166 47.9998C19.8751 48.0066 21.7304 47.8384 23.5587 47.4974C23.6774 47.8 23.964 47.9987 24.2832 47.9998H46.2165C46.6491 47.9998 46.9998 47.6416 46.9998 47.1998V18.3999C46.9998 17.9581 46.6491 17.5999 46.2165 17.5999ZM10.1833 5.99997V1.59999H12.209L13.5461 2.96559C13.852 3.27789 14.3479 3.27789 14.6538 2.96559L15.9909 1.59999H20.0423L21.3794 2.96559C21.6853 3.27789 22.1812 3.27789 22.4871 2.96559L23.8242 1.59999H25.8499V5.99997L23.2391 7.99997H12.7941L10.1833 5.99997ZM22.7166 9.59996V11.9999H13.3166V9.59996H22.7166ZM23.4999 37.1782C19.8345 40.2778 14.4028 39.756 11.3677 36.0126C8.33267 32.2693 8.8436 26.722 12.509 23.6223C15.6971 20.9263 20.3117 20.9263 23.4998 23.6223V37.1782H23.4999ZM23.4999 18.3999V21.6455C18.7659 18.5445 12.4668 19.9499 9.43041 24.7846C6.39403 29.6193 7.77014 36.0524 12.5041 39.1534C15.8544 41.3481 20.1497 41.3481 23.5 39.1534V45.8814C21.6929 46.2344 19.8565 46.408 18.0167 46.3998C13.0707 46.3998 1.56676 45.1486 1.56676 33.5559C1.56676 25.9023 6.05837 16.3791 13.5783 13.5999H22.4605C24.6764 14.4589 26.6687 15.8276 28.283 17.5999H24.2833C23.8506 17.5999 23.4999 17.9581 23.4999 18.3999ZM45.4331 46.3998H25.0666V25.5999H45.4331V46.3998ZM45.4331 23.9999H25.0666V19.1999H45.4331V23.9999Z" fill="black" stroke="#F7F7F7" stroke-width="0.8" mask="url(#path-3-inside-2)"/>
<mask id="path-4-inside-3" fill="white">
<path d="M30.5495 27.2H27.4161C26.9835 27.2 26.6328 27.5581 26.6328 27.9999V31.1999C26.6328 31.6417 26.9835 31.9999 27.4161 31.9999H30.5495C30.9821 31.9999 31.3328 31.6417 31.3328 31.1999V27.9999C31.3328 27.5581 30.9821 27.2 30.5495 27.2ZM29.7661 30.3999H28.1995V28.7999H29.7661V30.3999Z"/>
</mask>
<path d="M30.5495 27.2H27.4161C26.9835 27.2 26.6328 27.5581 26.6328 27.9999V31.1999C26.6328 31.6417 26.9835 31.9999 27.4161 31.9999H30.5495C30.9821 31.9999 31.3328 31.6417 31.3328 31.1999V27.9999C31.3328 27.5581 30.9821 27.2 30.5495 27.2ZM29.7661 30.3999H28.1995V28.7999H29.7661V30.3999Z" fill="black" stroke="#F7F7F7" stroke-width="0.8" mask="url(#path-4-inside-3)"/>
<mask id="path-5-inside-4" fill="white">
<path d="M36.8151 27.2H33.6818C33.2492 27.2 32.8984 27.5581 32.8984 27.9999V31.1999C32.8984 31.6417 33.2492 31.9999 33.6818 31.9999H36.8151C37.2477 31.9999 37.5984 31.6417 37.5984 31.1999V27.9999C37.5984 27.5581 37.2477 27.2 36.8151 27.2ZM36.0318 30.3999H34.4651V28.7999H36.0318V30.3999Z"/>
</mask>
<path d="M36.8151 27.2H33.6818C33.2492 27.2 32.8984 27.5581 32.8984 27.9999V31.1999C32.8984 31.6417 33.2492 31.9999 33.6818 31.9999H36.8151C37.2477 31.9999 37.5984 31.6417 37.5984 31.1999V27.9999C37.5984 27.5581 37.2477 27.2 36.8151 27.2ZM36.0318 30.3999H34.4651V28.7999H36.0318V30.3999Z" fill="black" stroke="#F7F7F7" stroke-width="0.8" mask="url(#path-5-inside-4)"/>
<mask id="path-6-inside-5" fill="white">
<path d="M43.0846 27.2H39.9513C39.5187 27.2 39.168 27.5581 39.168 27.9999V31.1999C39.168 31.6417 39.5187 31.9999 39.9513 31.9999H43.0846C43.5172 31.9999 43.868 31.6417 43.868 31.1999V27.9999C43.868 27.5581 43.5172 27.2 43.0846 27.2ZM42.3013 30.3999H40.7346V28.7999H42.3013V30.3999Z"/>
</mask>
<path d="M43.0846 27.2H39.9513C39.5187 27.2 39.168 27.5581 39.168 27.9999V31.1999C39.168 31.6417 39.5187 31.9999 39.9513 31.9999H43.0846C43.5172 31.9999 43.868 31.6417 43.868 31.1999V27.9999C43.868 27.5581 43.5172 27.2 43.0846 27.2ZM42.3013 30.3999H40.7346V28.7999H42.3013V30.3999Z" fill="black" stroke="#F7F7F7" stroke-width="0.8" mask="url(#path-6-inside-5)"/>
<mask id="path-7-inside-6" fill="white">
<path d="M30.5495 33.5999H27.4161C26.9835 33.5999 26.6328 33.9581 26.6328 34.3998V37.5998C26.6328 38.0416 26.9835 38.3998 27.4161 38.3998H30.5495C30.9821 38.3998 31.3328 38.0416 31.3328 37.5998V34.3998C31.3328 33.9581 30.9821 33.5999 30.5495 33.5999ZM29.7661 36.7998H28.1995V35.1998H29.7661V36.7998Z"/>
</mask>
<path d="M30.5495 33.5999H27.4161C26.9835 33.5999 26.6328 33.9581 26.6328 34.3998V37.5998C26.6328 38.0416 26.9835 38.3998 27.4161 38.3998H30.5495C30.9821 38.3998 31.3328 38.0416 31.3328 37.5998V34.3998C31.3328 33.9581 30.9821 33.5999 30.5495 33.5999ZM29.7661 36.7998H28.1995V35.1998H29.7661V36.7998Z" fill="black" stroke="#F7F7F7" stroke-width="0.8" mask="url(#path-7-inside-6)"/>
<mask id="path-8-inside-7" fill="white">
<path d="M36.8151 33.5999H33.6818C33.2492 33.5999 32.8984 33.9581 32.8984 34.3998V37.5998C32.8984 38.0416 33.2492 38.3998 33.6818 38.3998H36.8151C37.2477 38.3998 37.5984 38.0416 37.5984 37.5998V34.3998C37.5984 33.9581 37.2477 33.5999 36.8151 33.5999ZM36.0318 36.7998H34.4651V35.1998H36.0318V36.7998Z"/>
</mask>
<path d="M36.8151 33.5999H33.6818C33.2492 33.5999 32.8984 33.9581 32.8984 34.3998V37.5998C32.8984 38.0416 33.2492 38.3998 33.6818 38.3998H36.8151C37.2477 38.3998 37.5984 38.0416 37.5984 37.5998V34.3998C37.5984 33.9581 37.2477 33.5999 36.8151 33.5999ZM36.0318 36.7998H34.4651V35.1998H36.0318V36.7998Z" fill="black" stroke="#F7F7F7" stroke-width="0.8" mask="url(#path-8-inside-7)"/>
<mask id="path-9-inside-8" fill="white">
<path d="M30.5495 39.9998H27.4161C26.9835 39.9998 26.6328 40.358 26.6328 40.7998V43.9997C26.6328 44.4415 26.9835 44.7997 27.4161 44.7997H30.5495C30.9821 44.7997 31.3328 44.4415 31.3328 43.9997V40.7998C31.3328 40.358 30.9821 39.9998 30.5495 39.9998ZM29.7661 43.1997H28.1995V41.5998H29.7661V43.1997Z"/>
</mask>
<path d="M30.5495 39.9998H27.4161C26.9835 39.9998 26.6328 40.358 26.6328 40.7998V43.9997C26.6328 44.4415 26.9835 44.7997 27.4161 44.7997H30.5495C30.9821 44.7997 31.3328 44.4415 31.3328 43.9997V40.7998C31.3328 40.358 30.9821 39.9998 30.5495 39.9998ZM29.7661 43.1997H28.1995V41.5998H29.7661V43.1997Z" fill="black" stroke="#F7F7F7" stroke-width="0.8" mask="url(#path-9-inside-8)"/>
<mask id="path-10-inside-9" fill="white">
<path d="M36.8151 39.9998H33.6818C33.2492 39.9998 32.8984 40.358 32.8984 40.7998V43.9997C32.8984 44.4415 33.2492 44.7997 33.6818 44.7997H36.8151C37.2477 44.7997 37.5984 44.4415 37.5984 43.9997V40.7998C37.5984 40.358 37.2477 39.9998 36.8151 39.9998ZM36.0318 43.1997H34.4651V41.5998H36.0318V43.1997Z"/>
</mask>
<path d="M36.8151 39.9998H33.6818C33.2492 39.9998 32.8984 40.358 32.8984 40.7998V43.9997C32.8984 44.4415 33.2492 44.7997 33.6818 44.7997H36.8151C37.2477 44.7997 37.5984 44.4415 37.5984 43.9997V40.7998C37.5984 40.358 37.2477 39.9998 36.8151 39.9998ZM36.0318 43.1997H34.4651V41.5998H36.0318V43.1997Z" fill="black" stroke="#F7F7F7" stroke-width="0.8" mask="url(#path-10-inside-9)"/>
<mask id="path-11-inside-10" fill="white">
<path d="M43.0846 33.5999H39.9513C39.5187 33.5999 39.168 33.9581 39.168 34.3999V43.9998C39.168 44.4416 39.5187 44.7998 39.9513 44.7998H43.0846C43.5172 44.7998 43.868 44.4416 43.868 43.9998V34.3999C43.868 33.9581 43.5172 33.5999 43.0846 33.5999ZM42.3013 43.1998H40.7346V35.1998H42.3013V43.1998Z"/>
</mask>
<path d="M43.0846 33.5999H39.9513C39.5187 33.5999 39.168 33.9581 39.168 34.3999V43.9998C39.168 44.4416 39.5187 44.7998 39.9513 44.7998H43.0846C43.5172 44.7998 43.868 44.4416 43.868 43.9998V34.3999C43.868 33.9581 43.5172 33.5999 43.0846 33.5999ZM42.3013 43.1998H40.7346V35.1998H42.3013V43.1998Z" fill="black" stroke="#F7F7F7" stroke-width="0.8" mask="url(#path-11-inside-10)"/>
<mask id="path-12-inside-11" fill="white">
<path d="M43.867 20.7999H42.3003V22.3999H43.867V20.7999Z"/>
</mask>
<path d="M43.867 20.7999H42.3003V22.3999H43.867V20.7999Z" fill="black" stroke="#F7F7F7" stroke-width="0.8" mask="url(#path-12-inside-11)"/>
<mask id="path-13-inside-12" fill="white">
<path d="M40.7346 20.8H39.168V22.4H40.7346V20.8Z"/>
</mask>
<path d="M40.7346 20.8H39.168V22.4H40.7346V20.8Z" fill="black" stroke="#F7F7F7" stroke-width="0.8" mask="url(#path-13-inside-12)"/>
<mask id="path-14-inside-13" fill="white">
<path d="M37.6018 20.8H36.0352V22.4H37.6018V20.8Z"/>
</mask>
<path d="M37.6018 20.8H36.0352V22.4H37.6018V20.8Z" fill="black" stroke="#F7F7F7" stroke-width="0.8" mask="url(#path-14-inside-13)"/>
</svg>
