<svg width="44" height="50" viewBox="0 0 44 50" fill="none" xmlns="http://www.w3.org/2000/svg">
<mask id="path-1-inside-1" fill="white">
<path d="M13.4344 34.1561C15.6069 32.69 17.0383 30.2057 17.0383 27.3934C17.0383 22.8977 13.3808 19.2402 8.88511 19.2402C4.38939 19.2402 0.731936 22.8977 0.731936 27.3934C0.731936 30.2057 2.16334 32.69 4.33583 34.1561C2.01452 34.8184 0.309326 36.9572 0.309326 39.4882V49.1982C0.309326 49.641 0.668325 50 1.11114 50H16.6591C17.1019 50 17.4609 49.641 17.4609 49.1982V39.4882C17.4609 36.9572 15.7558 34.8184 13.4344 34.1561ZM10.7339 36.6557L9.76005 35.5466H11.7077L10.7339 36.6557ZM7.62594 35.5466L9.55842 37.7473L7.74942 39.0967L6.87726 35.5466H7.62594ZM13.535 35.8961C13.637 35.9423 13.7367 35.9923 13.8339 36.0466L13.5486 38.97L11.9094 37.7473L13.535 35.8961ZM2.33557 27.3934C2.33557 23.7819 5.27363 20.8439 8.88511 20.8439C12.4966 20.8439 15.4347 23.7819 15.4347 27.3934C15.4347 31.0049 12.4966 33.943 8.88511 33.943C5.27363 33.943 2.33557 31.0049 2.33557 27.3934ZM1.91296 39.4882C1.91296 37.5246 3.35644 35.8921 5.23792 35.5951L6.48073 40.6538C6.54488 40.9149 6.7355 41.1264 6.98855 41.2172C7.07664 41.2489 7.16816 41.2644 7.25924 41.2644C7.42966 41.2644 7.59825 41.2101 7.73873 41.1053L9.93207 39.4692V48.3964H5.872V40.4481C5.872 40.0053 5.513 39.6463 5.07018 39.6463C4.62737 39.6463 4.26837 40.0053 4.26837 40.4481V48.3964H1.91296V39.4882ZM15.8573 48.3964H11.5358V39.4692L13.7291 41.1053C13.87 41.2104 14.0386 41.2644 14.2086 41.2644C14.3184 41.2644 14.4289 41.2418 14.5328 41.1959C14.7974 41.0789 14.9785 40.8284 15.0066 40.5404L15.3054 37.4796C15.6555 38.0682 15.8574 38.7549 15.8574 39.4882V48.3964H15.8573Z"/>
</mask>
<path d="M13.4344 34.1561C15.6069 32.69 17.0383 30.2057 17.0383 27.3934C17.0383 22.8977 13.3808 19.2402 8.88511 19.2402C4.38939 19.2402 0.731936 22.8977 0.731936 27.3934C0.731936 30.2057 2.16334 32.69 4.33583 34.1561C2.01452 34.8184 0.309326 36.9572 0.309326 39.4882V49.1982C0.309326 49.641 0.668325 50 1.11114 50H16.6591C17.1019 50 17.4609 49.641 17.4609 49.1982V39.4882C17.4609 36.9572 15.7558 34.8184 13.4344 34.1561ZM10.7339 36.6557L9.76005 35.5466H11.7077L10.7339 36.6557ZM7.62594 35.5466L9.55842 37.7473L7.74942 39.0967L6.87726 35.5466H7.62594ZM13.535 35.8961C13.637 35.9423 13.7367 35.9923 13.8339 36.0466L13.5486 38.97L11.9094 37.7473L13.535 35.8961ZM2.33557 27.3934C2.33557 23.7819 5.27363 20.8439 8.88511 20.8439C12.4966 20.8439 15.4347 23.7819 15.4347 27.3934C15.4347 31.0049 12.4966 33.943 8.88511 33.943C5.27363 33.943 2.33557 31.0049 2.33557 27.3934ZM1.91296 39.4882C1.91296 37.5246 3.35644 35.8921 5.23792 35.5951L6.48073 40.6538C6.54488 40.9149 6.7355 41.1264 6.98855 41.2172C7.07664 41.2489 7.16816 41.2644 7.25924 41.2644C7.42966 41.2644 7.59825 41.2101 7.73873 41.1053L9.93207 39.4692V48.3964H5.872V40.4481C5.872 40.0053 5.513 39.6463 5.07018 39.6463C4.62737 39.6463 4.26837 40.0053 4.26837 40.4481V48.3964H1.91296V39.4882ZM15.8573 48.3964H11.5358V39.4692L13.7291 41.1053C13.87 41.2104 14.0386 41.2644 14.2086 41.2644C14.3184 41.2644 14.4289 41.2418 14.5328 41.1959C14.7974 41.0789 14.9785 40.8284 15.0066 40.5404L15.3054 37.4796C15.6555 38.0682 15.8574 38.7549 15.8574 39.4882V48.3964H15.8573Z" fill="black" stroke="#F7F7F7" stroke-width="0.8" mask="url(#path-1-inside-1)"/>
<mask id="path-2-inside-2" fill="white">
<path d="M13.328 41.7397C13.2005 41.4374 12.8976 41.2368 12.568 41.2453C12.218 41.2542 11.9098 41.4962 11.8155 41.8327C11.7235 42.1606 11.8586 42.5252 12.1424 42.7137C12.4232 42.9002 12.803 42.8895 13.0714 42.6858C13.3577 42.4684 13.469 42.0725 13.328 41.7397C13.3077 41.6916 13.3484 41.7878 13.328 41.7397Z"/>
</mask>
<path d="M13.328 41.7397C13.2005 41.4374 12.8976 41.2368 12.568 41.2453C12.218 41.2542 11.9098 41.4962 11.8155 41.8327C11.7235 42.1606 11.8586 42.5252 12.1424 42.7137C12.4232 42.9002 12.803 42.8895 13.0714 42.6858C13.3577 42.4684 13.469 42.0725 13.328 41.7397C13.3077 41.6916 13.3484 41.7878 13.328 41.7397Z" fill="black"/>
<path d="M13.328 41.7397L12.9595 41.8953L12.9597 41.8958L13.328 41.7397ZM12.568 41.2453L12.5578 40.8454L12.5578 40.8454L12.568 41.2453ZM11.8155 41.8327L12.2006 41.9407L12.2007 41.9406L11.8155 41.8327ZM12.1424 42.7137L11.9211 43.0469L11.9211 43.047L12.1424 42.7137ZM13.0714 42.6858L13.3132 43.0045L13.3134 43.0044L13.0714 42.6858ZM13.6966 41.5842C13.5066 41.1339 13.0558 40.8326 12.5578 40.8454L12.5783 41.6451C12.7394 41.641 12.8944 41.7408 12.9595 41.8952L13.6966 41.5842ZM12.5578 40.8454C12.0309 40.8589 11.5716 41.2205 11.4303 41.7248L12.2007 41.9406C12.2479 41.7719 12.4051 41.6496 12.5783 41.6451L12.5578 40.8454ZM11.4303 41.7247C11.2916 42.2194 11.4925 42.7622 11.9211 43.0469L12.3638 42.3806C12.2246 42.2881 12.1555 42.1018 12.2006 41.9407L11.4303 41.7247ZM11.9211 43.047C12.3426 43.3268 12.9082 43.3118 13.3132 43.0045L12.8297 42.3672C12.6978 42.4672 12.5038 42.4735 12.3637 42.3805L11.9211 43.047ZM13.3134 43.0044C13.7414 42.6793 13.9106 42.0895 13.6963 41.5836L12.9597 41.8958C13.0274 42.0556 12.9741 42.2575 12.8295 42.3673L13.3134 43.0044ZM13.6965 41.5841C13.694 41.5781 13.6925 41.5745 13.6917 41.5727C13.6912 41.5714 13.6913 41.5717 13.6916 41.5726C13.6917 41.5728 13.6919 41.5732 13.6921 41.5737C13.6922 41.5739 13.6928 41.5753 13.6935 41.5771C13.6937 41.5777 13.6948 41.5804 13.6961 41.5838C13.6969 41.5859 13.6991 41.5918 13.7004 41.5957C13.7037 41.6055 13.7197 41.681 13.7216 41.7478C13.4365 42.1091 12.9844 41.9401 12.9704 41.9162C12.967 41.9099 12.9624 41.9006 12.961 41.8976C12.9602 41.8959 12.9589 41.8931 12.9583 41.892C12.958 41.8913 12.9574 41.8899 12.9571 41.8894C12.9562 41.8873 12.9555 41.8857 12.9554 41.8855C12.9552 41.8849 12.955 41.8845 12.9549 41.8843C12.9547 41.8838 12.9546 41.8835 12.9546 41.8835C12.9545 41.8833 12.9546 41.8836 12.955 41.8845C12.9553 41.8852 12.9557 41.8862 12.9562 41.8874C12.9572 41.8897 12.9585 41.8927 12.9597 41.8956C12.961 41.8986 12.9622 41.9015 12.9632 41.9039C12.9637 41.9051 12.9641 41.9061 12.9644 41.9068C12.9648 41.9077 12.9649 41.9079 12.9648 41.9078C12.9648 41.9077 12.9647 41.9074 12.9645 41.907C12.9644 41.9068 12.9642 41.9063 12.964 41.9058C12.9639 41.9055 12.9632 41.9039 12.9624 41.9017C12.9621 41.9011 12.9616 41.8997 12.9612 41.8989C12.9608 41.8977 12.9596 41.8946 12.9589 41.8927C12.9577 41.8894 12.9538 41.8782 12.9514 41.8704C12.9422 41.8343 13.1702 41.3886 13.631 41.4857C13.659 41.5205 13.6872 41.566 13.6913 41.5739C13.693 41.5773 13.6955 41.5825 13.6964 41.5844C13.6978 41.5875 13.6989 41.59 13.6992 41.5906C13.7 41.5923 13.7006 41.5936 13.7007 41.5939C13.7009 41.5944 13.7011 41.5948 13.7011 41.595C13.7015 41.5958 13.7016 41.5961 13.7011 41.5948C13.7003 41.593 13.6988 41.5894 13.6962 41.5834L12.9598 41.896C12.9624 41.902 12.964 41.9059 12.965 41.9082C12.9654 41.909 12.966 41.9106 12.9666 41.9119C12.9667 41.9122 12.9669 41.9126 12.9671 41.9131C12.9673 41.9135 12.9679 41.9148 12.9686 41.9166C12.9689 41.9172 12.97 41.9196 12.9715 41.9228C12.9724 41.9247 12.9749 41.9299 12.9766 41.9333C12.9806 41.9411 13.0088 41.9866 13.0369 42.0215C13.4977 42.1185 13.7257 41.6729 13.7165 41.6368C13.714 41.6289 13.7102 41.6178 13.7089 41.6144C13.7082 41.6126 13.7071 41.6095 13.7066 41.6083C13.7063 41.6075 13.7057 41.606 13.7055 41.6054C13.7046 41.6033 13.7039 41.6016 13.7038 41.6013C13.7036 41.6007 13.7034 41.6002 13.7032 41.5999C13.703 41.5994 13.7028 41.5989 13.7027 41.5987C13.7021 41.5972 13.701 41.5947 13.7001 41.5924C13.699 41.5899 13.6977 41.5868 13.6964 41.5838C13.6951 41.5807 13.6938 41.5776 13.6927 41.5751C13.6918 41.5729 13.6907 41.5703 13.6901 41.5689C13.69 41.5686 13.6898 41.5682 13.6896 41.5676C13.6894 41.5673 13.6892 41.5669 13.689 41.5663C13.6889 41.566 13.6881 41.5644 13.6872 41.5623C13.687 41.5617 13.6864 41.5604 13.686 41.5596C13.6855 41.5585 13.6842 41.5557 13.6834 41.554C13.682 41.5511 13.6773 41.5417 13.6739 41.5354C13.6599 41.5115 13.2078 41.3425 12.9228 41.7038C12.9247 41.7706 12.9407 41.8461 12.9439 41.8559C12.9453 41.8598 12.9475 41.8658 12.9482 41.8679C12.9495 41.8713 12.9506 41.8739 12.9508 41.8745C12.9516 41.8763 12.9522 41.8778 12.9523 41.8781C12.9525 41.8786 12.9527 41.8791 12.9528 41.8794C12.9534 41.8807 12.954 41.8823 12.9544 41.883C12.9553 41.8853 12.957 41.8893 12.9595 41.8953L13.6965 41.5841Z" fill="#F7F7F7" mask="url(#path-2-inside-2)"/>
<mask id="path-4-inside-3" fill="white">
<path d="M8.59605 25.901C8.47108 25.6052 8.17868 25.406 7.85571 25.406C7.53391 25.406 7.23895 25.6051 7.11537 25.901C6.98366 26.2165 7.07431 26.5958 7.33496 26.8173C7.60009 27.0426 7.99052 27.0706 8.28431 26.8843C8.60824 26.6792 8.74594 26.2561 8.59605 25.901C8.57574 25.853 8.61637 25.9492 8.59605 25.901Z"/>
</mask>
<path d="M8.59605 25.901C8.47108 25.6052 8.17868 25.406 7.85571 25.406C7.53391 25.406 7.23895 25.6051 7.11537 25.901C6.98366 26.2165 7.07431 26.5958 7.33496 26.8173C7.60009 27.0426 7.99052 27.0706 8.28431 26.8843C8.60824 26.6792 8.74594 26.2561 8.59605 25.901C8.57574 25.853 8.61637 25.9492 8.59605 25.901Z" fill="black"/>
<path d="M8.59605 25.901L8.96458 25.7455L8.96452 25.7453L8.59605 25.901ZM7.11537 25.901L6.74626 25.7468L6.74624 25.7469L7.11537 25.901ZM7.33496 26.8173L7.07592 27.1221L7.07597 27.1221L7.33496 26.8173ZM8.28431 26.8843L8.07029 26.5464L8.07015 26.5465L8.28431 26.8843ZM8.96452 25.7453C8.77854 25.3051 8.34343 25.006 7.85571 25.006V25.806C8.01393 25.806 8.16361 25.9052 8.22759 26.0567L8.96452 25.7453ZM7.85571 25.006C7.37065 25.006 6.9313 25.3038 6.74626 25.7468L7.48447 26.0551C7.54661 25.9064 7.69718 25.806 7.85571 25.806V25.006ZM6.74624 25.7469C6.54758 26.2227 6.68244 26.7877 7.07592 27.1221L7.594 26.5125C7.46619 26.4039 7.41973 26.2102 7.48449 26.0551L6.74624 25.7469ZM7.07597 27.1221C7.47399 27.4603 8.05609 27.5026 8.49847 27.2222L8.07015 26.5465C7.92495 26.6385 7.7262 26.6248 7.59395 26.5125L7.07597 27.1221ZM8.49833 27.2223C8.98396 26.9147 9.19208 26.2845 8.96458 25.7455L8.22753 26.0565C8.2998 26.2278 8.23252 26.4437 8.07029 26.5464L8.49833 27.2223ZM8.96443 25.7451C8.96189 25.7391 8.96024 25.7352 8.95928 25.733C8.95894 25.7322 8.95833 25.7307 8.95783 25.7295C8.95773 25.7293 8.95756 25.7289 8.95735 25.7284C8.95724 25.7282 8.95669 25.7269 8.95599 25.7253C8.95578 25.7248 8.95469 25.7224 8.95326 25.7193C8.95234 25.7173 8.94956 25.7115 8.94768 25.7077C8.94207 25.6969 8.80721 25.5511 8.63093 25.4892C8.28669 25.6266 8.20708 26.0022 8.21167 26.0165C8.21326 26.021 8.21572 26.0278 8.21656 26.03C8.21706 26.0313 8.21791 26.0335 8.21825 26.0343C8.2185 26.035 8.21893 26.036 8.21911 26.0365C8.21979 26.0382 8.22033 26.0395 8.22043 26.0397C8.22064 26.0402 8.22081 26.0406 8.2209 26.0409C8.22109 26.0413 8.22126 26.0417 8.22135 26.0419C8.2223 26.0442 8.22515 26.051 8.22755 26.0567C8.22995 26.0623 8.23281 26.0691 8.23377 26.0714C8.23386 26.0716 8.23403 26.072 8.23424 26.0725C8.23434 26.0727 8.23452 26.0731 8.23475 26.0736C8.23485 26.0739 8.2355 26.0754 8.23634 26.0773C8.23658 26.0778 8.23716 26.0791 8.2375 26.0798C8.23799 26.0809 8.2393 26.0838 8.24012 26.0855C8.24168 26.0888 8.24744 26.1003 8.25181 26.1084C8.28976 26.165 8.8039 26.2602 8.99292 25.8306C8.9878 25.8096 8.9797 25.7835 8.97775 25.778C8.97682 25.7755 8.97533 25.7715 8.97477 25.7701C8.97381 25.7676 8.97303 25.7657 8.97282 25.7652C8.97225 25.7637 8.97179 25.7626 8.97167 25.7624C8.97149 25.7619 8.97133 25.7615 8.97124 25.7613C8.97076 25.7602 8.97017 25.7587 8.96982 25.7579C8.96887 25.7556 8.96722 25.7517 8.96468 25.7457L8.22743 26.0563C8.22997 26.0623 8.23149 26.0659 8.23228 26.0678C8.23281 26.0691 8.23273 26.0689 8.23247 26.0683C8.23241 26.0681 8.23228 26.0678 8.2321 26.0674C8.23201 26.0671 8.23156 26.0661 8.231 26.0647C8.23079 26.0642 8.23002 26.0622 8.22906 26.0598C8.2285 26.0583 8.22701 26.0544 8.22608 26.0519C8.22414 26.0464 8.21603 26.0203 8.21092 25.9993C8.39993 25.5697 8.91408 25.6648 8.95202 25.7215C8.95639 25.7296 8.96216 25.7411 8.96371 25.7443C8.96453 25.7461 8.96584 25.7489 8.96633 25.75C8.96667 25.7507 8.96724 25.752 8.96748 25.7526C8.96832 25.7544 8.96896 25.7559 8.96903 25.7561C8.96925 25.7566 8.96941 25.757 8.96949 25.7572C8.96964 25.7575 8.96975 25.7578 8.96976 25.7578C8.9698 25.7579 8.96968 25.7576 8.9693 25.7567C8.96897 25.7559 8.96855 25.7549 8.96805 25.7538C8.96705 25.7514 8.96581 25.7484 8.96455 25.7455C8.9633 25.7425 8.96206 25.7396 8.96106 25.7372C8.96056 25.736 8.96013 25.735 8.9598 25.7342C8.95943 25.7333 8.9593 25.733 8.95933 25.7331C8.95934 25.7331 8.95944 25.7334 8.95959 25.7337C8.95966 25.7339 8.9598 25.7342 8.95999 25.7347C8.96008 25.7349 8.96061 25.7362 8.96128 25.7378C8.96146 25.7383 8.96189 25.7394 8.96213 25.74C8.96247 25.7409 8.96332 25.743 8.96383 25.7443C8.96466 25.7465 8.96712 25.7533 8.96871 25.7578C8.9733 25.7722 8.89369 26.1477 8.54945 26.2851C8.37317 26.2232 8.23831 26.0774 8.2327 26.0666C8.23082 26.0628 8.22804 26.057 8.22713 26.055C8.22569 26.0519 8.22461 26.0495 8.22441 26.049C8.22371 26.0475 8.22318 26.0462 8.22308 26.046C8.22289 26.0456 8.22274 26.0452 8.22267 26.045C8.22239 26.0444 8.22229 26.0442 8.22283 26.0454C8.22362 26.0473 8.22514 26.0509 8.22768 26.0569L8.96443 25.7451Z" fill="#F7F7F7" mask="url(#path-4-inside-3)"/>
<mask id="path-6-inside-4" fill="white">
<path d="M12.3618 26.5148C12.4893 26.8167 12.7926 27.0177 13.1221 27.0093C13.4778 27.0002 13.7936 26.7478 13.8797 26.4024C13.9565 26.0942 13.8389 25.7608 13.586 25.5688C13.3083 25.358 12.9128 25.3537 12.6311 25.5592C12.3339 25.7759 12.2213 26.1749 12.3618 26.5148C12.382 26.5628 12.3415 26.4657 12.3618 26.5148Z"/>
</mask>
<path d="M12.3618 26.5148C12.4893 26.8167 12.7926 27.0177 13.1221 27.0093C13.4778 27.0002 13.7936 26.7478 13.8797 26.4024C13.9565 26.0942 13.8389 25.7608 13.586 25.5688C13.3083 25.358 12.9128 25.3537 12.6311 25.5592C12.3339 25.7759 12.2213 26.1749 12.3618 26.5148C12.382 26.5628 12.3415 26.4657 12.3618 26.5148Z" fill="black"/>
<path d="M12.3618 26.5148L11.9921 26.6676L11.9931 26.67L12.3618 26.5148ZM13.1221 27.0093L13.1119 26.6094L13.1119 26.6094L13.1221 27.0093ZM13.8797 26.4024L14.2678 26.4991L14.2678 26.499L13.8797 26.4024ZM13.586 25.5688L13.8279 25.2502L13.8279 25.2502L13.586 25.5688ZM12.6311 25.5592L12.8668 25.8824L12.8668 25.8823L12.6311 25.5592ZM11.9933 26.6705C12.1833 27.1202 12.6344 27.4219 13.1324 27.4092L13.1119 26.6094C12.9509 26.6135 12.7954 26.5133 12.7303 26.3592L11.9933 26.6705ZM13.1324 27.4092C13.6672 27.3955 14.1381 27.0197 14.2678 26.4991L13.4916 26.3057C13.4491 26.4759 13.2885 26.6049 13.1119 26.6094L13.1324 27.4092ZM14.2678 26.499C14.3833 26.0355 14.208 25.5389 13.8279 25.2502L13.3441 25.8874C13.4697 25.9827 13.5296 26.1528 13.4915 26.3057L14.2678 26.499ZM13.8279 25.2502C13.4098 24.9329 12.8202 24.9261 12.3954 25.236L12.8668 25.8823C13.0054 25.7813 13.2067 25.7831 13.3442 25.8874L13.8279 25.2502ZM12.3954 25.236C11.9493 25.5613 11.7811 26.1569 11.9921 26.6676L12.7315 26.3621C12.6616 26.1929 12.7185 25.9905 12.8668 25.8824L12.3954 25.236ZM11.9931 26.67C11.9957 26.676 11.9975 26.6804 11.9987 26.6833C11.9991 26.6841 11.9995 26.685 11.9999 26.686C12.0001 26.6865 12.0004 26.6872 12.0007 26.688C12.001 26.6886 12.0017 26.6902 12.0026 26.6921C12.003 26.693 12.0038 26.6949 12.0049 26.6973C12.0055 26.6985 12.0064 26.7004 12.0075 26.7027C12.0085 26.7047 12.0106 26.7091 12.0135 26.7146C12.015 26.7173 12.0186 26.724 12.0208 26.7279C12.0244 26.7339 12.0346 26.7501 12.0414 26.7601C12.0575 26.7812 12.1417 26.8587 12.2196 26.9002C12.498 26.9067 12.7545 26.6303 12.7676 26.5232C12.7661 26.4933 12.7599 26.4505 12.7571 26.4376C12.7554 26.4304 12.7522 26.4186 12.7509 26.4141C12.7499 26.411 12.7482 26.4056 12.7475 26.4033C12.7469 26.4016 12.7459 26.3984 12.7454 26.3971C12.7443 26.3941 12.7435 26.3916 12.7429 26.3902C12.7424 26.3887 12.7419 26.3874 12.7415 26.3865C12.7409 26.3847 12.7403 26.3833 12.74 26.3825C12.7394 26.3809 12.7389 26.3796 12.7386 26.379C12.7377 26.3768 12.7369 26.3747 12.7365 26.3739C12.736 26.3726 12.7354 26.3712 12.7348 26.3698C12.7337 26.367 12.7323 26.3637 12.731 26.3605C12.7296 26.3573 12.7282 26.354 12.7271 26.3512C12.7265 26.3498 12.7259 26.3484 12.7254 26.3472C12.7251 26.3465 12.7248 26.3458 12.7245 26.3451C12.7242 26.3445 12.7237 26.3432 12.7231 26.3417C12.7228 26.3411 12.7221 26.3395 12.7212 26.3375C12.7208 26.3365 12.7198 26.3344 12.7186 26.3319C12.718 26.3306 12.717 26.3284 12.7157 26.3257C12.7151 26.3246 12.7138 26.3219 12.7131 26.3204C12.7121 26.3185 12.7098 26.314 12.7084 26.3115C12.7065 26.3079 12.7014 26.2989 12.6983 26.2936C12.6927 26.2847 12.6744 26.2585 12.6609 26.2417C12.6159 26.1966 12.3138 26.1027 12.0807 26.2103C11.992 26.3344 11.9564 26.5201 11.96 26.5573C11.9624 26.5723 11.9673 26.5953 11.9693 26.6032C11.9707 26.6082 11.9731 26.6164 11.9741 26.6197C11.9749 26.6221 11.9762 26.6264 11.9768 26.6282C11.9773 26.6296 11.9782 26.6322 11.9786 26.6333C11.9802 26.6379 11.9816 26.6414 11.982 26.6426C11.9826 26.6442 11.9831 26.6455 11.9834 26.6462C11.9844 26.6488 11.9853 26.6509 11.9855 26.6514C11.9858 26.6523 11.9862 26.6532 11.9865 26.654C11.9877 26.6569 11.9895 26.6614 11.9921 26.6675L12.7315 26.3621C12.729 26.356 12.7276 26.3528 12.7271 26.3514C12.727 26.3511 12.727 26.3511 12.7271 26.3514C12.7271 26.3516 12.7273 26.3519 12.7275 26.3524C12.7276 26.3528 12.728 26.3538 12.7286 26.3552C12.7288 26.3559 12.7293 26.3571 12.7299 26.3586C12.7303 26.3597 12.7317 26.3632 12.7333 26.3678C12.7337 26.3689 12.7345 26.3715 12.735 26.3729C12.7356 26.3747 12.737 26.3789 12.7377 26.3813C12.7388 26.3846 12.7412 26.3929 12.7425 26.3978C12.7445 26.4058 12.7494 26.4287 12.7519 26.4437C12.7554 26.4809 12.7198 26.6666 12.6311 26.7908C12.398 26.8983 12.0959 26.8045 12.0509 26.7593C12.0374 26.7425 12.0191 26.7163 12.0136 26.7074C12.0104 26.7021 12.0054 26.6932 12.0034 26.6896C12.0021 26.687 11.9998 26.6826 11.9988 26.6807C11.998 26.6792 11.9967 26.6765 11.9961 26.6753C11.9949 26.6727 11.9939 26.6705 11.9933 26.6693C11.9921 26.6667 11.9912 26.6647 11.9908 26.6638C11.9899 26.6619 11.9893 26.6604 11.9891 26.6599C11.9888 26.6593 11.9886 26.6588 11.9885 26.6586C11.9884 26.6584 11.9883 26.6582 11.9883 26.6581C11.9882 26.658 11.9883 26.658 11.9884 26.6583C11.9886 26.6587 11.9889 26.6595 11.9893 26.6606C11.9902 26.6627 11.9914 26.6655 11.9926 26.6683C11.9938 26.6712 11.9949 26.674 11.9958 26.6761C11.9963 26.6772 11.9966 26.678 11.9968 26.6785C11.9972 26.6795 11.9969 26.6787 11.9963 26.6773C11.9962 26.6769 11.9957 26.6758 11.9951 26.6743C11.9948 26.6736 11.9943 26.6722 11.9936 26.6705C11.9933 26.6696 11.9928 26.6684 11.9923 26.6668C11.9918 26.6654 11.9909 26.663 11.9898 26.66C11.9894 26.6587 11.9883 26.6556 11.9877 26.6538C11.987 26.6516 11.9853 26.6462 11.9843 26.643C11.983 26.6385 11.9799 26.6268 11.9781 26.6196C11.9753 26.6066 11.9692 26.5639 11.9677 26.534C11.9808 26.4269 12.2372 26.1504 12.5157 26.157C12.5935 26.1985 12.6778 26.276 12.6938 26.297C12.7007 26.3071 12.7109 26.3232 12.7144 26.3292C12.7166 26.3331 12.7203 26.3398 12.7217 26.3426C12.7246 26.3481 12.7268 26.3525 12.7277 26.3544C12.7288 26.3567 12.7297 26.3586 12.7302 26.3598C12.7313 26.3621 12.7322 26.3639 12.7325 26.3648C12.7334 26.3666 12.734 26.368 12.7342 26.3684C12.7344 26.369 12.7346 26.3695 12.7347 26.3697C12.7349 26.37 12.7349 26.3702 12.7348 26.3699C12.7343 26.3687 12.733 26.3657 12.7305 26.3597L11.9931 26.67Z" fill="#F7F7F7" mask="url(#path-6-inside-4)"/>
<mask id="path-8-inside-5" fill="white">
<path d="M33.0452 18.7265C33.1762 18.81 33.3259 18.8521 33.4759 18.8521C33.6085 18.8521 33.7411 18.8192 33.8615 18.7532C34.1181 18.6124 34.2777 18.343 34.2777 18.0502V16.1854H35.0935C36.467 16.1854 37.5844 15.068 37.5844 13.6947V5.31208C37.5844 3.93862 36.467 2.82121 35.0935 2.82121H26.7869V2.49097C26.7869 1.11741 25.6695 0 24.296 0H9.58106C8.2075 0 7.09009 1.11752 7.09009 2.49097V10.8726C7.09009 12.2462 8.2076 13.3636 9.58106 13.3636H10.3968V15.2291C10.3968 15.5219 10.5563 15.7914 10.813 15.9322C10.9333 15.9982 11.066 16.031 11.1985 16.031C11.3486 16.031 11.4984 15.9888 11.6294 15.9053L15.6178 13.3636H17.8875V13.6947C17.8875 15.0681 19.0049 16.1854 20.3783 16.1854H29.0562L33.0452 18.7265ZM15.3841 11.76C15.2314 11.76 15.0818 11.8036 14.9531 11.8856L12.0004 13.7674V12.5618C12.0004 12.119 11.6414 11.76 11.1986 11.76H9.58106C9.09174 11.76 8.69372 11.3619 8.69372 10.8726V2.49097C8.69372 2.00165 9.09185 1.60363 9.58106 1.60363H24.296C24.7852 1.60363 25.1833 2.00176 25.1833 2.49097V2.82121H20.3784C19.2925 2.82121 18.3673 3.51997 18.0273 4.49123H11.9086C11.4658 4.49123 11.1068 4.85023 11.1068 5.29305C11.1068 5.73586 11.4658 6.09486 11.9086 6.09486H17.8876V7.4355H11.9086C11.4658 7.4355 11.1068 7.7945 11.1068 8.23731C11.1068 8.68013 11.4658 9.03913 11.9086 9.03913H17.8876V11.76H15.3841ZM19.4912 13.6947V5.31208C19.4912 4.82286 19.8892 4.42484 20.3783 4.42484H35.0934C35.5826 4.42484 35.9807 4.82286 35.9807 5.31208V13.6946C35.9807 14.1838 35.5826 14.5817 35.0934 14.5817H33.4758C33.0329 14.5817 32.674 14.9407 32.674 15.3835V16.5887L29.7206 14.7072C29.5919 14.6252 29.4424 14.5817 29.2899 14.5817H20.3784C19.8892 14.5818 19.4912 14.1838 19.4912 13.6947Z"/>
</mask>
<path d="M33.0452 18.7265C33.1762 18.81 33.3259 18.8521 33.4759 18.8521C33.6085 18.8521 33.7411 18.8192 33.8615 18.7532C34.1181 18.6124 34.2777 18.343 34.2777 18.0502V16.1854H35.0935C36.467 16.1854 37.5844 15.068 37.5844 13.6947V5.31208C37.5844 3.93862 36.467 2.82121 35.0935 2.82121H26.7869V2.49097C26.7869 1.11741 25.6695 0 24.296 0H9.58106C8.2075 0 7.09009 1.11752 7.09009 2.49097V10.8726C7.09009 12.2462 8.2076 13.3636 9.58106 13.3636H10.3968V15.2291C10.3968 15.5219 10.5563 15.7914 10.813 15.9322C10.9333 15.9982 11.066 16.031 11.1985 16.031C11.3486 16.031 11.4984 15.9888 11.6294 15.9053L15.6178 13.3636H17.8875V13.6947C17.8875 15.0681 19.0049 16.1854 20.3783 16.1854H29.0562L33.0452 18.7265ZM15.3841 11.76C15.2314 11.76 15.0818 11.8036 14.9531 11.8856L12.0004 13.7674V12.5618C12.0004 12.119 11.6414 11.76 11.1986 11.76H9.58106C9.09174 11.76 8.69372 11.3619 8.69372 10.8726V2.49097C8.69372 2.00165 9.09185 1.60363 9.58106 1.60363H24.296C24.7852 1.60363 25.1833 2.00176 25.1833 2.49097V2.82121H20.3784C19.2925 2.82121 18.3673 3.51997 18.0273 4.49123H11.9086C11.4658 4.49123 11.1068 4.85023 11.1068 5.29305C11.1068 5.73586 11.4658 6.09486 11.9086 6.09486H17.8876V7.4355H11.9086C11.4658 7.4355 11.1068 7.7945 11.1068 8.23731C11.1068 8.68013 11.4658 9.03913 11.9086 9.03913H17.8876V11.76H15.3841ZM19.4912 13.6947V5.31208C19.4912 4.82286 19.8892 4.42484 20.3783 4.42484H35.0934C35.5826 4.42484 35.9807 4.82286 35.9807 5.31208V13.6946C35.9807 14.1838 35.5826 14.5817 35.0934 14.5817H33.4758C33.0329 14.5817 32.674 14.9407 32.674 15.3835V16.5887L29.7206 14.7072C29.5919 14.6252 29.4424 14.5817 29.2899 14.5817H20.3784C19.8892 14.5818 19.4912 14.1838 19.4912 13.6947Z" fill="black" stroke="#F7F7F7" stroke-width="0.8" mask="url(#path-8-inside-5)"/>
<mask id="path-9-inside-6" fill="white">
<path d="M22.7051 8.91625H32.7636C33.2066 8.91625 33.5654 8.55725 33.5654 8.11444C33.5654 7.67162 33.2066 7.31262 32.7636 7.31262H22.7051C22.2622 7.31262 21.9033 7.67162 21.9033 8.11444C21.9033 8.55725 22.2623 8.91625 22.7051 8.91625Z"/>
</mask>
<path d="M22.7051 8.91625H32.7636C33.2066 8.91625 33.5654 8.55725 33.5654 8.11444C33.5654 7.67162 33.2066 7.31262 32.7636 7.31262H22.7051C22.2622 7.31262 21.9033 7.67162 21.9033 8.11444C21.9033 8.55725 22.2623 8.91625 22.7051 8.91625Z" fill="black" stroke="#F7F7F7" stroke-width="0.8" mask="url(#path-9-inside-6)"/>
<mask id="path-10-inside-7" fill="white">
<path d="M33.5654 11.0585C33.5654 10.6157 33.2066 10.2567 32.7636 10.2567H22.7051C22.2622 10.2567 21.9033 10.6157 21.9033 11.0585C21.9033 11.5013 22.2622 11.8603 22.7051 11.8603H32.7636C33.2066 11.8603 33.5654 11.5013 33.5654 11.0585Z"/>
</mask>
<path d="M33.5654 11.0585C33.5654 10.6157 33.2066 10.2567 32.7636 10.2567H22.7051C22.2622 10.2567 21.9033 10.6157 21.9033 11.0585C21.9033 11.5013 22.2622 11.8603 22.7051 11.8603H32.7636C33.2066 11.8603 33.5654 11.5013 33.5654 11.0585Z" fill="black" stroke="#F7F7F7" stroke-width="0.8" mask="url(#path-10-inside-7)"/>
<mask id="path-11-inside-8" fill="white">
<path d="M39.665 34.1561C41.8375 32.69 43.2689 30.2057 43.2689 27.3934C43.2689 22.8977 39.6114 19.2402 35.1157 19.2402C30.62 19.2402 26.9624 22.8977 26.9624 27.3934C26.9624 30.2057 28.3938 32.69 30.5663 34.1561C28.2449 34.8184 26.5398 36.9572 26.5398 39.4882V49.1982C26.5398 49.641 26.8987 50 27.3416 50H42.8897C43.3326 50 43.6915 49.641 43.6915 49.1982V39.4882C43.6915 36.9572 41.9864 34.8184 39.665 34.1561ZM37.9743 35.5466C37.3652 36.5063 36.2947 37.1236 35.1155 37.1236C33.9363 37.1236 32.8659 36.5063 32.2566 35.5466H37.9743ZM28.5661 27.3934C28.5661 23.7819 31.5042 20.8439 35.1158 20.8439C38.7272 20.8439 41.6653 23.7819 41.6653 27.3934C41.6653 31.0049 38.7273 33.943 35.1158 33.943C31.5042 33.943 28.5661 31.0049 28.5661 27.3934ZM28.1435 39.4882C28.1435 37.8434 29.1565 36.4314 30.5911 35.8415C31.3979 37.5743 33.157 38.7272 35.1156 38.7272C37.0741 38.7272 38.8332 37.5742 39.6401 35.8414C41.0748 36.4313 42.088 37.8434 42.088 39.4882V42.3343H39.2792V40.4482C39.2792 40.0054 38.9204 39.6464 38.4774 39.6464C38.0345 39.6464 37.6756 40.0054 37.6756 40.4482V48.3965H28.1436V39.4882H28.1435ZM39.2791 48.3964V43.9378H42.0878V48.3964H39.2791Z"/>
</mask>
<path d="M39.665 34.1561C41.8375 32.69 43.2689 30.2057 43.2689 27.3934C43.2689 22.8977 39.6114 19.2402 35.1157 19.2402C30.62 19.2402 26.9624 22.8977 26.9624 27.3934C26.9624 30.2057 28.3938 32.69 30.5663 34.1561C28.2449 34.8184 26.5398 36.9572 26.5398 39.4882V49.1982C26.5398 49.641 26.8987 50 27.3416 50H42.8897C43.3326 50 43.6915 49.641 43.6915 49.1982V39.4882C43.6915 36.9572 41.9864 34.8184 39.665 34.1561ZM37.9743 35.5466C37.3652 36.5063 36.2947 37.1236 35.1155 37.1236C33.9363 37.1236 32.8659 36.5063 32.2566 35.5466H37.9743ZM28.5661 27.3934C28.5661 23.7819 31.5042 20.8439 35.1158 20.8439C38.7272 20.8439 41.6653 23.7819 41.6653 27.3934C41.6653 31.0049 38.7273 33.943 35.1158 33.943C31.5042 33.943 28.5661 31.0049 28.5661 27.3934ZM28.1435 39.4882C28.1435 37.8434 29.1565 36.4314 30.5911 35.8415C31.3979 37.5743 33.157 38.7272 35.1156 38.7272C37.0741 38.7272 38.8332 37.5742 39.6401 35.8414C41.0748 36.4313 42.088 37.8434 42.088 39.4882V42.3343H39.2792V40.4482C39.2792 40.0054 38.9204 39.6464 38.4774 39.6464C38.0345 39.6464 37.6756 40.0054 37.6756 40.4482V48.3965H28.1436V39.4882H28.1435ZM39.2791 48.3964V43.9378H42.0878V48.3964H39.2791Z" fill="black" stroke="#F7F7F7" stroke-width="0.8" mask="url(#path-11-inside-8)"/>
<mask id="path-12-inside-9" fill="white">
<path d="M35.4002 26.5149C35.5416 26.849 35.8973 27.0555 36.2585 27.0009C36.5756 26.9531 36.8387 26.7153 36.918 26.4049C37.0013 26.0792 36.8639 25.7281 36.5858 25.541C36.2704 25.3289 35.8432 25.3781 35.5734 25.6404C35.3496 25.8709 35.277 26.2159 35.4002 26.5149C35.4206 26.5629 35.38 26.4658 35.4002 26.5149Z"/>
</mask>
<path d="M35.4002 26.5149C35.5416 26.849 35.8973 27.0555 36.2585 27.0009C36.5756 26.9531 36.8387 26.7153 36.918 26.4049C37.0013 26.0792 36.8639 25.7281 36.5858 25.541C36.2704 25.3289 35.8432 25.3781 35.5734 25.6404C35.3496 25.8709 35.277 26.2159 35.4002 26.5149C35.4206 26.5629 35.38 26.4658 35.4002 26.5149Z" fill="black"/>
<path d="M35.4002 26.5149L35.0303 26.6673L35.0318 26.6709L35.4002 26.5149ZM36.2585 27.0009L36.3182 27.3965L36.3183 27.3965L36.2585 27.0009ZM36.918 26.4049L36.5305 26.3059L36.5305 26.3059L36.918 26.4049ZM36.5858 25.541L36.809 25.2091L36.809 25.2091L36.5858 25.541ZM35.5734 25.6404L35.2944 25.3535L35.2863 25.3618L35.5734 25.6404ZM35.0318 26.6709C35.2423 27.1682 35.771 27.4791 36.3182 27.3965L36.1988 26.6054C36.0236 26.6319 35.8409 26.5299 35.7685 26.359L35.0318 26.6709ZM36.3183 27.3965C36.794 27.3246 37.1864 26.9703 37.3056 26.504L36.5305 26.3059C36.491 26.4603 36.3572 26.5815 36.1988 26.6054L36.3183 27.3965ZM37.3056 26.504C37.4315 26.0114 37.2251 25.4889 36.809 25.2091L36.3625 25.8729C36.5028 25.9673 36.5711 26.147 36.5305 26.3059L37.3056 26.504ZM36.809 25.2091C36.3292 24.8864 35.6934 24.9658 35.2945 25.3536L35.8522 25.9272C35.993 25.7903 36.2116 25.7714 36.3625 25.8729L36.809 25.2091ZM35.2863 25.3618C34.9556 25.7025 34.8443 26.2157 35.0303 26.6673L35.77 26.3626C35.7097 26.2161 35.7436 26.0393 35.8604 25.919L35.2863 25.3618ZM35.0321 26.6715C35.0346 26.6775 35.0368 26.6825 35.0383 26.686C35.0387 26.687 35.0393 26.6884 35.04 26.6899C35.0403 26.6907 35.0409 26.6918 35.0415 26.6932C35.042 26.6943 35.0432 26.697 35.0448 26.7004C35.0456 26.7021 35.0472 26.7054 35.0493 26.7095C35.0504 26.7117 35.0521 26.715 35.0542 26.719C35.0552 26.7207 35.0573 26.7246 35.0585 26.7267C35.0601 26.7294 35.0637 26.7354 35.0657 26.7388C35.0685 26.7433 35.0755 26.7539 35.0797 26.7599C35.0863 26.7689 35.1047 26.7917 35.1171 26.8052C35.1423 26.8294 35.2388 26.892 35.3148 26.9181C35.4822 26.9214 35.728 26.7661 35.7866 26.6521C35.7996 26.6002 35.806 26.5217 35.8048 26.4965C35.8034 26.4822 35.8 26.459 35.7983 26.4501C35.797 26.4439 35.7945 26.4333 35.7934 26.4289C35.7925 26.4255 35.7909 26.4194 35.7901 26.4168C35.7884 26.411 35.7869 26.4063 35.786 26.4036C35.7851 26.4007 35.7842 26.3983 35.7836 26.3966C35.7825 26.3933 35.7815 26.3906 35.781 26.3892C35.7799 26.3862 35.779 26.3839 35.7786 26.3828C35.7777 26.3805 35.7769 26.3787 35.7766 26.3778C35.7761 26.3767 35.7757 26.3757 35.7754 26.375C35.7747 26.3734 35.7741 26.3717 35.7734 26.3702C35.7722 26.3671 35.7707 26.3636 35.7693 26.3602C35.7679 26.3569 35.7664 26.3533 35.7651 26.3503C35.7645 26.3488 35.7638 26.3471 35.7631 26.3455C35.7628 26.3448 35.7623 26.3437 35.7619 26.3426C35.7615 26.3418 35.7606 26.3397 35.7595 26.3372C35.759 26.3362 35.7577 26.3333 35.756 26.3297C35.7552 26.328 35.7535 26.3244 35.7512 26.3199C35.75 26.3176 35.7481 26.3138 35.7456 26.3093C35.7445 26.3073 35.742 26.3027 35.7405 26.3002C35.7387 26.297 35.7342 26.2897 35.7316 26.2855C35.7279 26.2799 35.7184 26.266 35.7124 26.258C35.7023 26.2454 35.6711 26.2118 35.6489 26.1921C35.5946 26.1544 35.3838 26.1008 35.2342 26.1341C35.1108 26.2185 35.0064 26.4033 34.9958 26.4667C34.9944 26.4955 34.9963 26.5403 34.9982 26.556C34.9997 26.5657 35.0027 26.582 35.0041 26.5886C35.0052 26.5933 35.0073 26.6015 35.0082 26.6051C35.009 26.6078 35.0104 26.6128 35.011 26.615C35.0125 26.6199 35.0138 26.6239 35.0146 26.6263C35.0155 26.6289 35.0162 26.6311 35.0168 26.6326C35.0178 26.6356 35.0187 26.638 35.0192 26.6394C35.0202 26.6422 35.0211 26.6444 35.0215 26.6455C35.022 26.6467 35.0224 26.6477 35.0227 26.6485C35.0232 26.6499 35.0238 26.6512 35.0241 26.6522C35.0256 26.6558 35.0276 26.6608 35.0302 26.667L35.7701 26.3629C35.7676 26.3568 35.7665 26.3541 35.7663 26.3534C35.7662 26.3533 35.7664 26.3537 35.7667 26.3545C35.7669 26.3549 35.7672 26.3557 35.7675 26.3567C35.7678 26.3575 35.7686 26.3595 35.7696 26.3621C35.7701 26.3635 35.771 26.3658 35.772 26.3688C35.7725 26.3703 35.7733 26.3724 35.7741 26.375C35.7749 26.3774 35.7762 26.3814 35.7777 26.3863C35.7783 26.3885 35.7797 26.3935 35.7805 26.3962C35.7814 26.3997 35.7835 26.408 35.7846 26.4127C35.786 26.4192 35.789 26.4355 35.7905 26.4452C35.7924 26.461 35.7943 26.5057 35.7929 26.5346C35.7823 26.598 35.6779 26.7827 35.5545 26.8672C35.4049 26.9005 35.1941 26.8469 35.1398 26.8092C35.1176 26.7894 35.0864 26.7558 35.0763 26.7432C35.0704 26.7352 35.0608 26.7214 35.0571 26.7157C35.0545 26.7116 35.05 26.7042 35.0482 26.701C35.0468 26.6985 35.0442 26.694 35.0431 26.692C35.0406 26.6874 35.0387 26.6837 35.0376 26.6815C35.0353 26.677 35.0336 26.6734 35.0328 26.6717C35.0312 26.6683 35.0299 26.6655 35.0295 26.6646C35.0286 26.6625 35.0279 26.6609 35.0278 26.6607C35.0276 26.6603 35.0275 26.66 35.0275 26.6601C35.0276 26.6602 35.0278 26.6607 35.0282 26.6617C35.029 26.6635 35.0301 26.6661 35.0312 26.6688C35.0323 26.6715 35.0334 26.6741 35.0342 26.6759C35.0346 26.6769 35.0348 26.6775 35.0349 26.6777C35.0349 26.6778 35.0348 26.6776 35.0347 26.6771C35.0346 26.677 35.034 26.6756 35.0333 26.6737C35.033 26.6729 35.0321 26.6707 35.0311 26.6679C35.0306 26.6665 35.0296 26.6639 35.0285 26.6606C35.0279 26.6589 35.0271 26.6565 35.0261 26.6536C35.0252 26.6509 35.0237 26.6463 35.022 26.6405C35.0213 26.6379 35.0196 26.6318 35.0187 26.6284C35.0176 26.624 35.0152 26.6134 35.0139 26.6072C35.0122 26.5983 35.0088 26.5751 35.0074 26.5609C35.0061 26.5356 35.0125 26.4572 35.0256 26.4053C35.0842 26.2912 35.3299 26.136 35.4973 26.1392C35.5734 26.1653 35.6699 26.228 35.6951 26.2521C35.7074 26.2656 35.7259 26.2884 35.7324 26.2974C35.7367 26.3035 35.7436 26.3141 35.7464 26.3185C35.7485 26.3219 35.7521 26.3279 35.7536 26.3306C35.7548 26.3327 35.7569 26.3366 35.7579 26.3383C35.76 26.3423 35.7617 26.3456 35.7628 26.3477C35.7649 26.3518 35.7664 26.3551 35.7672 26.3567C35.7688 26.36 35.7699 26.3625 35.7703 26.3634C35.7708 26.3646 35.7713 26.3655 35.7715 26.3659C35.7717 26.3664 35.7719 26.3668 35.7719 26.367C35.772 26.3672 35.7721 26.3673 35.7721 26.3674C35.7721 26.3674 35.772 26.3672 35.7718 26.3667C35.7716 26.3663 35.7714 26.3657 35.771 26.3649C35.7704 26.3633 35.7694 26.3612 35.7682 26.3584L35.0321 26.6715Z" fill="#F7F7F7" mask="url(#path-12-inside-9)"/>
<mask id="path-14-inside-10" fill="white">
<path d="M31.6859 26.0508C31.6667 25.9479 31.6229 25.8501 31.5672 25.7621C31.1627 25.1702 30.2147 25.3788 30.1074 26.0901C30.0098 26.7363 30.7258 27.2296 31.295 26.9048C31.5917 26.7354 31.7543 26.3871 31.6859 26.0508C31.6763 25.9995 31.6965 26.1032 31.6859 26.0508Z"/>
</mask>
<path d="M31.6859 26.0508C31.6667 25.9479 31.6229 25.8501 31.5672 25.7621C31.1627 25.1702 30.2147 25.3788 30.1074 26.0901C30.0098 26.7363 30.7258 27.2296 31.295 26.9048C31.5917 26.7354 31.7543 26.3871 31.6859 26.0508C31.6763 25.9995 31.6965 26.1032 31.6859 26.0508Z" fill="black"/>
<path d="M31.6859 26.0508L31.2927 26.1245L31.2938 26.13L31.6859 26.0508ZM31.5672 25.7621L31.9054 25.5481L31.8975 25.5364L31.5672 25.7621ZM30.1074 26.0901L30.5029 26.1499L30.5029 26.1498L30.1074 26.0901ZM31.295 26.9048L31.4933 27.2522L31.4933 27.2522L31.295 26.9048ZM32.0791 25.9772C32.0483 25.8129 31.9809 25.6678 31.9052 25.5482L31.2293 25.9761C31.2649 26.0325 31.285 26.083 31.2927 26.1244L32.0791 25.9772ZM31.8975 25.5364C31.2925 24.6512 29.8746 24.9517 29.7119 26.0305L30.5029 26.1498C30.5548 25.8058 31.0328 25.6891 31.237 25.9878L31.8975 25.5364ZM29.7119 26.0304C29.5645 27.006 30.6327 27.7431 31.4933 27.2522L31.0968 26.5573C30.8188 26.716 30.4551 26.4666 30.5029 26.1499L29.7119 26.0304ZM31.4933 27.2522C31.9367 26.9991 32.1815 26.4803 32.0779 25.971L31.2939 26.1305C31.3272 26.2939 31.2467 26.4718 31.0967 26.5574L31.4933 27.2522ZM32.079 25.9771C32.0785 25.9741 32.0781 25.9718 32.0778 25.9702C32.0774 25.9684 32.0773 25.9678 32.0773 25.9679C32.0773 25.9679 32.0774 25.9681 32.0774 25.9684C32.0775 25.9687 32.0776 25.9692 32.0777 25.9698C32.0778 25.9704 32.078 25.9716 32.0782 25.9731C32.0784 25.9742 32.0789 25.9774 32.0795 25.9817C32.0798 25.9837 32.0803 25.9879 32.0809 25.9934C32.0812 25.9961 32.0817 26.0006 32.0821 26.006C32.0823 26.0085 32.0826 26.0139 32.0828 26.0168C32.0829 26.0206 32.0832 26.0293 32.0832 26.0343C32.0832 26.041 32.0827 26.0572 32.082 26.0667C32.0807 26.0813 32.0743 26.1203 32.0683 26.1445C32.0521 26.1908 31.9648 26.3202 31.879 26.3849C31.7307 26.4333 31.4899 26.3863 31.4148 26.3327C31.385 26.3027 31.3461 26.2514 31.3347 26.2324C31.3283 26.2207 31.3187 26.2007 31.3151 26.1926C31.3127 26.1868 31.3087 26.1767 31.3071 26.1723C31.3059 26.1689 31.3038 26.1628 31.3029 26.1601C31.3009 26.154 31.2995 26.1491 31.2987 26.1461C31.2978 26.143 31.297 26.1403 31.2965 26.1385C31.2956 26.1348 31.2949 26.1319 31.2945 26.1303C31.2937 26.127 31.2931 26.1245 31.2929 26.1235C31.2924 26.1213 31.2921 26.1196 31.292 26.1194C31.2919 26.1188 31.2918 26.1186 31.2918 26.1186C31.2919 26.1187 31.292 26.1192 31.2922 26.1202C31.2926 26.1222 31.2931 26.1248 31.2936 26.1277C31.2942 26.1305 31.2947 26.1332 31.2951 26.1351C31.2952 26.1355 31.2952 26.1359 31.2953 26.1362C31.2953 26.1364 31.2953 26.1366 31.2953 26.1365C31.2953 26.1365 31.2953 26.1364 31.2953 26.1363C31.2953 26.1362 31.2952 26.1359 31.2952 26.1356C31.2951 26.1353 31.2948 26.1333 31.2943 26.1306C31.2941 26.1295 31.2936 26.1261 31.2929 26.1216C31.2926 26.1195 31.292 26.1149 31.2914 26.1089C31.291 26.1059 31.2905 26.1009 31.2901 26.0946C31.2899 26.0918 31.2895 26.0855 31.2894 26.0819C31.2892 26.0774 31.2891 26.0666 31.2891 26.0605C31.2893 26.0518 31.2907 26.0301 31.2921 26.017C31.2953 25.9955 31.3113 25.9344 31.327 25.8959C31.3751 25.8182 31.5795 25.6813 31.7365 25.6688C31.8422 25.6965 31.9734 25.7847 32.0059 25.8219C32.0205 25.8421 32.041 25.8759 32.0477 25.8888C32.0518 25.8974 32.0583 25.9121 32.0608 25.9183C32.0625 25.9228 32.0655 25.9309 32.0668 25.9345C32.0678 25.9373 32.0695 25.9423 32.0702 25.9446C32.0718 25.9498 32.0731 25.954 32.0738 25.9567C32.0746 25.9595 32.0752 25.9618 32.0757 25.9635C32.0766 25.9668 32.0772 25.9695 32.0776 25.971C32.0783 25.974 32.0789 25.9764 32.0791 25.9773C32.0794 25.9785 32.0795 25.9794 32.0797 25.9799C32.0798 25.9804 32.0799 25.9808 32.0799 25.981C32.0799 25.9812 32.08 25.9814 32.08 25.9814C32.08 25.9814 32.0799 25.9812 32.0798 25.9807C32.0797 25.9802 32.0796 25.9796 32.0794 25.9787C32.0791 25.977 32.0786 25.9746 32.078 25.9716L31.2938 26.13C31.2951 26.1366 31.2963 26.1421 31.2971 26.1461C31.2973 26.1471 31.2976 26.1486 31.298 26.1503C31.2982 26.1511 31.2985 26.1523 31.2988 26.1538C31.299 26.1549 31.2996 26.1575 31.3004 26.1607C31.3008 26.1623 31.3015 26.165 31.3024 26.1683C31.3028 26.1701 31.3035 26.1724 31.3043 26.1753C31.305 26.1779 31.3062 26.1822 31.3079 26.1874C31.3086 26.1897 31.3103 26.1948 31.3113 26.1976C31.3125 26.2011 31.3156 26.2092 31.3173 26.2138C31.3198 26.2199 31.3263 26.2347 31.3304 26.2432C31.3371 26.2562 31.3576 26.29 31.3722 26.3101C31.4047 26.3474 31.5359 26.4355 31.6416 26.4632C31.7986 26.4507 32.003 26.3139 32.0511 26.2362C32.0668 26.1977 32.0828 26.1365 32.086 26.115C32.0874 26.102 32.0888 26.0802 32.089 26.0716C32.0891 26.0654 32.0889 26.0547 32.0887 26.0501C32.0886 26.0465 32.0882 26.0402 32.088 26.0374C32.0876 26.0311 32.0871 26.0261 32.0867 26.023C32.0861 26.0171 32.0854 26.0124 32.0851 26.0102C32.0845 26.0056 32.0839 26.002 32.0837 26.0007C32.0832 25.9977 32.0827 25.9951 32.0826 25.9942C32.0823 25.9929 32.0821 25.9917 32.082 25.9908C32.0816 25.989 32.0813 25.9871 32.081 25.9855C32.0803 25.9821 32.0796 25.9783 32.0789 25.9747C32.0782 25.9711 32.0774 25.9672 32.0767 25.9639C32.0764 25.9622 32.076 25.9604 32.0757 25.9586C32.0755 25.9577 32.0753 25.9566 32.075 25.9553C32.0748 25.9544 32.0743 25.9522 32.0738 25.9495C32.0735 25.9483 32.0729 25.9456 32.0721 25.9422C32.0716 25.9405 32.0709 25.9376 32.0699 25.9339C32.0694 25.932 32.0687 25.9293 32.0678 25.9261C32.067 25.9232 32.0655 25.9182 32.0635 25.9121C32.0626 25.9094 32.0605 25.9033 32.0593 25.8999C32.0577 25.8955 32.0537 25.8854 32.0513 25.8796C32.0478 25.8715 32.0381 25.8515 32.0317 25.8398C32.0203 25.8208 31.9814 25.7695 31.9516 25.7395C31.8765 25.6859 31.6357 25.6389 31.4875 25.6873C31.4016 25.752 31.3144 25.8813 31.2982 25.9277C31.2922 25.9519 31.2858 25.9909 31.2844 26.0055C31.2838 26.015 31.2832 26.0312 31.2832 26.0379C31.2833 26.0429 31.2835 26.0516 31.2837 26.0554C31.2838 26.0584 31.2842 26.0638 31.2843 26.0662C31.2848 26.0717 31.2852 26.0761 31.2855 26.0789C31.2861 26.0844 31.2867 26.0887 31.287 26.0908C31.2876 26.0952 31.2881 26.0986 31.2883 26.0999C31.2886 26.1016 31.2888 26.103 31.289 26.104C31.2893 26.1058 31.2896 26.1075 31.2898 26.1085C31.2905 26.1126 31.2915 26.1181 31.2927 26.1245L32.079 25.9771Z" fill="#F7F7F7" mask="url(#path-14-inside-10)"/>
<mask id="path-16-inside-11" fill="white">
<path d="M35.2713 28.955C35.0209 28.7045 34.6145 28.7045 34.3642 28.955C34.1499 29.1692 33.865 29.2872 33.562 29.2872C33.259 29.2872 32.9741 29.1692 32.7598 28.955C32.5094 28.7045 32.103 28.7045 31.8527 28.955C31.6021 29.2054 31.6021 29.6116 31.8527 29.8621C32.3239 30.3333 32.943 30.569 33.562 30.569C34.181 30.569 34.8001 30.3333 35.2713 29.8621C35.5218 29.6116 35.5218 29.2055 35.2713 28.955Z"/>
</mask>
<path d="M35.2713 28.955C35.0209 28.7045 34.6145 28.7045 34.3642 28.955C34.1499 29.1692 33.865 29.2872 33.562 29.2872C33.259 29.2872 32.9741 29.1692 32.7598 28.955C32.5094 28.7045 32.103 28.7045 31.8527 28.955C31.6021 29.2054 31.6021 29.6116 31.8527 29.8621C32.3239 30.3333 32.943 30.569 33.562 30.569C34.181 30.569 34.8001 30.3333 35.2713 29.8621C35.5218 29.6116 35.5218 29.2055 35.2713 28.955Z" fill="black" stroke="#F7F7F7" stroke-width="0.8" mask="url(#path-16-inside-11)"/>
</svg>
