<svg width="48" height="48" viewBox="0 0 48 48" fill="none" xmlns="http://www.w3.org/2000/svg">
<g clip-path="url(#clip0)">
<mask id="path-2-inside-1" fill="white">
<path d="M46.3435 4.36978L43.4592 1.48547C41.5782 -0.395532 38.4087 -0.504938 36.3936 1.24172L31.3244 5.63578C31.2596 5.69203 31.2039 5.75822 31.1596 5.83181L26.2251 14.0514L23.0567 15.1075C22.789 15.1968 22.5866 15.4183 22.5218 15.6929C22.457 15.9675 22.5389 16.2561 22.7384 16.4557L31.3733 25.0904C31.5278 25.2448 31.7356 25.3288 31.949 25.3288C32.0113 25.3288 32.0741 25.3217 32.136 25.3071C32.4106 25.2423 32.6322 25.0399 32.7214 24.7721L33.7778 21.6027L42.1183 16.5665C42.1917 16.522 42.2577 16.4664 42.3137 16.4014L46.6037 11.4299C48.3406 9.41728 48.2237 6.25012 46.3435 4.36978ZM45.3711 10.3661L41.1658 15.2394L32.6795 20.3637C32.5138 20.4637 32.3893 20.6196 32.328 20.8033L31.5933 23.0076L29.6475 21.0618C29.6472 21.0614 29.6469 21.0609 29.6465 21.0606L26.7681 18.1823C26.7678 18.1821 26.7674 18.1819 26.7672 18.1816L24.8212 16.2356L27.0254 15.5009C27.2097 15.4394 27.366 15.3142 27.466 15.1477L32.4889 6.78112L37.4601 2.472C38.8432 1.27294 41.0178 1.34681 42.3077 2.63691L45.1921 5.52122C46.4827 6.81159 46.5629 8.98509 45.3711 10.3661Z"/>
</mask>
<path d="M46.3435 4.36978L43.4592 1.48547C41.5782 -0.395532 38.4087 -0.504938 36.3936 1.24172L31.3244 5.63578C31.2596 5.69203 31.2039 5.75822 31.1596 5.83181L26.2251 14.0514L23.0567 15.1075C22.789 15.1968 22.5866 15.4183 22.5218 15.6929C22.457 15.9675 22.5389 16.2561 22.7384 16.4557L31.3733 25.0904C31.5278 25.2448 31.7356 25.3288 31.949 25.3288C32.0113 25.3288 32.0741 25.3217 32.136 25.3071C32.4106 25.2423 32.6322 25.0399 32.7214 24.7721L33.7778 21.6027L42.1183 16.5665C42.1917 16.522 42.2577 16.4664 42.3137 16.4014L46.6037 11.4299C48.3406 9.41728 48.2237 6.25012 46.3435 4.36978ZM45.3711 10.3661L41.1658 15.2394L32.6795 20.3637C32.5138 20.4637 32.3893 20.6196 32.328 20.8033L31.5933 23.0076L29.6475 21.0618C29.6472 21.0614 29.6469 21.0609 29.6465 21.0606L26.7681 18.1823C26.7678 18.1821 26.7674 18.1819 26.7672 18.1816L24.8212 16.2356L27.0254 15.5009C27.2097 15.4394 27.366 15.3142 27.466 15.1477L32.4889 6.78112L37.4601 2.472C38.8432 1.27294 41.0178 1.34681 42.3077 2.63691L45.1921 5.52122C46.4827 6.81159 46.5629 8.98509 45.3711 10.3661Z" fill="black" stroke="#F7F7F7" stroke-width="0.8" mask="url(#path-2-inside-1)"/>
<mask id="path-3-inside-2" fill="white">
<path d="M44.0371 32.7114C41.6469 30.3212 38.1289 29.4904 34.9415 30.5237L17.6397 13.222C18.673 10.0346 17.8422 6.51653 15.4521 4.12628C12.934 1.60834 9.16418 0.820651 5.84787 2.1204C5.59221 2.22062 5.40415 2.44299 5.348 2.71187C5.29184 2.98065 5.375 3.25974 5.56925 3.45399L10.7481 8.63274L7.29406 12.0867L2.11531 6.90784C1.92096 6.71368 1.64225 6.63071 1.37318 6.68659C1.10431 6.74274 0.881839 6.93071 0.781714 7.18646C-0.517848 10.5026 0.269558 14.2725 2.78759 16.7907C5.17784 19.1808 8.69581 20.0118 11.8832 18.9783L18.3527 25.4478L10.2961 33.5046L5.17193 36.3696C5.02943 36.4493 4.91412 36.5701 4.84109 36.7161L2.5385 41.3213C2.38175 41.6347 2.44315 42.0133 2.69093 42.2611L5.56915 45.1395C5.72543 45.2957 5.93384 45.3779 6.14506 45.3779C6.26871 45.3779 6.39331 45.3497 6.509 45.2919L11.1142 42.9893C11.2602 42.9163 11.381 42.801 11.4607 42.6585L14.3257 37.5342L22.3825 29.4777L29.1851 36.2803C28.1517 39.4677 28.9827 42.9857 31.3728 45.376C33.085 47.088 35.3756 48 37.709 48C38.8074 48 39.9155 47.7978 40.9769 47.382C41.2326 47.2817 41.4207 47.0594 41.4768 46.7905C41.533 46.5217 41.4498 46.2426 41.2556 46.0484L36.0767 40.8695L39.5307 37.4157L44.7094 42.5944C44.9037 42.7887 45.1826 42.872 45.4515 42.8157C45.7204 42.7595 45.9429 42.5715 46.043 42.3158C47.3427 38.9995 46.5552 35.2296 44.0371 32.7114ZM13.0944 36.4626C13.0414 36.5156 12.9961 36.5756 12.9596 36.641L10.1618 41.645L6.30565 43.5731L4.25721 41.5246L6.18518 37.6684L11.1891 34.8707C11.2545 34.8342 11.3145 34.7889 11.3675 34.7359L19.504 26.5994L21.2309 28.3263L13.0944 36.4626ZM44.8925 40.4746L40.1064 35.6885C39.7884 35.3707 39.273 35.3707 38.955 35.6885L34.3498 40.2937C34.1972 40.4464 34.1114 40.6534 34.1114 40.8694C34.1114 41.0854 34.1972 41.2923 34.3498 41.4451L39.1361 46.2314C36.7629 46.7029 34.2741 45.9746 32.5242 44.2246C30.4638 42.1643 29.8195 39.0795 30.8829 36.3659C31.0009 36.0646 30.9294 35.722 30.7006 35.4931L12.6703 17.463C12.5147 17.3074 12.3065 17.2246 12.0944 17.2246C11.9947 17.2246 11.894 17.2429 11.7976 17.2807C9.08412 18.3442 5.99928 17.6997 3.93884 15.6395C2.18881 13.8894 1.46037 11.4005 1.93221 9.02752L6.71834 13.8137C7.03634 14.1316 7.55168 14.1315 7.86968 13.8137L12.4749 9.20856C12.7928 8.89056 12.7928 8.37521 12.4749 8.05721L7.68875 3.27099C10.0619 2.79849 12.5505 3.52749 14.3007 5.27771C16.361 7.33806 17.0053 10.4229 15.9419 13.1365C15.8239 13.4378 15.8954 13.7804 16.1242 14.0092L34.1543 32.0392C34.3832 32.268 34.726 32.3395 35.027 32.2215C37.7407 31.1583 40.8253 31.8024 42.8858 33.8626C44.636 35.6128 45.3643 38.1017 44.8925 40.4746Z"/>
</mask>
<path d="M44.0371 32.7114C41.6469 30.3212 38.1289 29.4904 34.9415 30.5237L17.6397 13.222C18.673 10.0346 17.8422 6.51653 15.4521 4.12628C12.934 1.60834 9.16418 0.820651 5.84787 2.1204C5.59221 2.22062 5.40415 2.44299 5.348 2.71187C5.29184 2.98065 5.375 3.25974 5.56925 3.45399L10.7481 8.63274L7.29406 12.0867L2.11531 6.90784C1.92096 6.71368 1.64225 6.63071 1.37318 6.68659C1.10431 6.74274 0.881839 6.93071 0.781714 7.18646C-0.517848 10.5026 0.269558 14.2725 2.78759 16.7907C5.17784 19.1808 8.69581 20.0118 11.8832 18.9783L18.3527 25.4478L10.2961 33.5046L5.17193 36.3696C5.02943 36.4493 4.91412 36.5701 4.84109 36.7161L2.5385 41.3213C2.38175 41.6347 2.44315 42.0133 2.69093 42.2611L5.56915 45.1395C5.72543 45.2957 5.93384 45.3779 6.14506 45.3779C6.26871 45.3779 6.39331 45.3497 6.509 45.2919L11.1142 42.9893C11.2602 42.9163 11.381 42.801 11.4607 42.6585L14.3257 37.5342L22.3825 29.4777L29.1851 36.2803C28.1517 39.4677 28.9827 42.9857 31.3728 45.376C33.085 47.088 35.3756 48 37.709 48C38.8074 48 39.9155 47.7978 40.9769 47.382C41.2326 47.2817 41.4207 47.0594 41.4768 46.7905C41.533 46.5217 41.4498 46.2426 41.2556 46.0484L36.0767 40.8695L39.5307 37.4157L44.7094 42.5944C44.9037 42.7887 45.1826 42.872 45.4515 42.8157C45.7204 42.7595 45.9429 42.5715 46.043 42.3158C47.3427 38.9995 46.5552 35.2296 44.0371 32.7114ZM13.0944 36.4626C13.0414 36.5156 12.9961 36.5756 12.9596 36.641L10.1618 41.645L6.30565 43.5731L4.25721 41.5246L6.18518 37.6684L11.1891 34.8707C11.2545 34.8342 11.3145 34.7889 11.3675 34.7359L19.504 26.5994L21.2309 28.3263L13.0944 36.4626ZM44.8925 40.4746L40.1064 35.6885C39.7884 35.3707 39.273 35.3707 38.955 35.6885L34.3498 40.2937C34.1972 40.4464 34.1114 40.6534 34.1114 40.8694C34.1114 41.0854 34.1972 41.2923 34.3498 41.4451L39.1361 46.2314C36.7629 46.7029 34.2741 45.9746 32.5242 44.2246C30.4638 42.1643 29.8195 39.0795 30.8829 36.3659C31.0009 36.0646 30.9294 35.722 30.7006 35.4931L12.6703 17.463C12.5147 17.3074 12.3065 17.2246 12.0944 17.2246C11.9947 17.2246 11.894 17.2429 11.7976 17.2807C9.08412 18.3442 5.99928 17.6997 3.93884 15.6395C2.18881 13.8894 1.46037 11.4005 1.93221 9.02752L6.71834 13.8137C7.03634 14.1316 7.55168 14.1315 7.86968 13.8137L12.4749 9.20856C12.7928 8.89056 12.7928 8.37521 12.4749 8.05721L7.68875 3.27099C10.0619 2.79849 12.5505 3.52749 14.3007 5.27771C16.361 7.33806 17.0053 10.4229 15.9419 13.1365C15.8239 13.4378 15.8954 13.7804 16.1242 14.0092L34.1543 32.0392C34.3832 32.268 34.726 32.3395 35.027 32.2215C37.7407 31.1583 40.8253 31.8024 42.8858 33.8626C44.636 35.6128 45.3643 38.1017 44.8925 40.4746Z" fill="black" stroke="#F7F7F7" stroke-width="0.8" mask="url(#path-3-inside-2)"/>
</g>
<defs>
<clipPath id="clip0">
<rect width="48" height="48" fill="white"/>
</clipPath>
</defs>
</svg>
