<svg width="48" height="48" viewBox="0 0 48 48" fill="none" xmlns="http://www.w3.org/2000/svg">
<g clip-path="url(#clip0)">
<mask id="path-2-inside-1" fill="white">
<path d="M42.9383 2.33191H11.8998C9.2061 2.33191 7.01455 4.50296 7.01455 7.16288L6.81452 34.4939H0.757212C0.327935 34.4939 0 34.8734 0 35.3027V39.0641C0 42.5852 2.81781 45.4649 6.21862 45.6228V45.6679H32.3563V45.6171C32.5506 45.6251 32.6683 45.6679 32.8019 45.6679H32.8205C36.4475 45.6467 39.3712 42.6903 39.3522 39.0633V15.1578H47.2428C47.6721 15.1578 48 14.7692 48 14.3403V7.43882C48.0049 4.63391 45.7432 2.35203 42.9383 2.33191V2.33191ZM6.5587 44.1133H6.55339C3.78833 44.1133 1.55466 41.828 1.55466 39.0633V36.0485H26.2348V39.0504C26.2287 40.8002 26.9199 42.4801 28.1554 43.7189C28.2867 43.851 28.4241 43.919 28.5645 44.1133H6.5587ZM37.7976 39.0626C37.7976 41.828 35.5855 44.1133 32.8193 44.1133H32.8034C30.0235 44.0932 27.783 41.8306 27.7895 39.0508V35.3027C27.7917 34.8673 27.4475 34.509 27.0121 34.4939H8.36918L8.56921 7.1682C8.56921 5.36038 10.0631 3.88657 11.8998 3.88657H39.2683C38.3825 4.85823 37.7976 6.0876 37.7976 7.45969V39.0626ZM46.4453 7.45248V13.6032H39.3522V7.45817C39.3522 5.51258 40.9706 3.88657 42.9155 3.88657H42.9371C44.8869 3.90592 46.4545 5.49664 46.4453 7.44679V7.45248Z"/>
</mask>
<path d="M42.9383 2.33191H11.8998C9.2061 2.33191 7.01455 4.50296 7.01455 7.16288L6.81452 34.4939H0.757212C0.327935 34.4939 0 34.8734 0 35.3027V39.0641C0 42.5852 2.81781 45.4649 6.21862 45.6228V45.6679H32.3563V45.6171C32.5506 45.6251 32.6683 45.6679 32.8019 45.6679H32.8205C36.4475 45.6467 39.3712 42.6903 39.3522 39.0633V15.1578H47.2428C47.6721 15.1578 48 14.7692 48 14.3403V7.43882C48.0049 4.63391 45.7432 2.35203 42.9383 2.33191V2.33191ZM6.5587 44.1133H6.55339C3.78833 44.1133 1.55466 41.828 1.55466 39.0633V36.0485H26.2348V39.0504C26.2287 40.8002 26.9199 42.4801 28.1554 43.7189C28.2867 43.851 28.4241 43.919 28.5645 44.1133H6.5587ZM37.7976 39.0626C37.7976 41.828 35.5855 44.1133 32.8193 44.1133H32.8034C30.0235 44.0932 27.783 41.8306 27.7895 39.0508V35.3027C27.7917 34.8673 27.4475 34.509 27.0121 34.4939H8.36918L8.56921 7.1682C8.56921 5.36038 10.0631 3.88657 11.8998 3.88657H39.2683C38.3825 4.85823 37.7976 6.0876 37.7976 7.45969V39.0626ZM46.4453 7.45248V13.6032H39.3522V7.45817C39.3522 5.51258 40.9706 3.88657 42.9155 3.88657H42.9371C44.8869 3.90592 46.4545 5.49664 46.4453 7.44679V7.45248Z" fill="black" stroke="#F7F7F7" stroke-width="0.8" mask="url(#path-2-inside-1)"/>
<mask id="path-3-inside-2" fill="white">
<path d="M18.2514 21.4654L22.2591 24.2054C22.5206 24.3856 22.8664 24.3856 23.1279 24.2054L27.1235 21.4661C28.5115 20.5191 29.5367 18.5394 29.5367 16.8606V11.3168C29.545 11.0238 29.3833 10.752 29.1222 10.6188L23.0201 7.6173C22.806 7.51103 22.5548 7.51103 22.3407 7.6173L16.25 10.6105C15.9889 10.7437 15.8275 11.0155 15.8363 11.3085V16.8606C15.8363 18.5394 16.8637 20.5191 18.2514 21.4654ZM17.3909 11.7935L22.6865 9.18069L27.982 11.8008V16.8606C27.982 18.0315 27.2146 19.5209 26.2463 20.1809L22.6774 22.6219L19.1225 20.1813C18.1542 19.5205 17.3909 18.0315 17.3909 16.8606V11.7935Z"/>
</mask>
<path d="M18.2514 21.4654L22.2591 24.2054C22.5206 24.3856 22.8664 24.3856 23.1279 24.2054L27.1235 21.4661C28.5115 20.5191 29.5367 18.5394 29.5367 16.8606V11.3168C29.545 11.0238 29.3833 10.752 29.1222 10.6188L23.0201 7.6173C22.806 7.51103 22.5548 7.51103 22.3407 7.6173L16.25 10.6105C15.9889 10.7437 15.8275 11.0155 15.8363 11.3085V16.8606C15.8363 18.5394 16.8637 20.5191 18.2514 21.4654ZM17.3909 11.7935L22.6865 9.18069L27.982 11.8008V16.8606C27.982 18.0315 27.2146 19.5209 26.2463 20.1809L22.6774 22.6219L19.1225 20.1813C18.1542 19.5205 17.3909 18.0315 17.3909 16.8606V11.7935Z" fill="black" stroke="#F7F7F7" stroke-width="0.8" mask="url(#path-3-inside-2)"/>
<mask id="path-4-inside-3" fill="white">
<path d="M21.3734 18.0341C21.5184 18.1821 21.7166 18.266 21.9238 18.2671H21.9257C22.1322 18.2664 22.3299 18.1836 22.4753 18.0371L25.5675 14.9437C25.8715 14.6401 25.8715 14.1474 25.5679 13.8438C25.2646 13.5398 24.772 13.5398 24.4683 13.8434L21.9284 16.383L20.913 15.3578C20.6105 15.0527 20.1183 15.0504 19.8131 15.3529C19.5079 15.6554 19.506 16.1477 19.8082 16.4528L21.3734 18.0341Z"/>
</mask>
<path d="M21.3734 18.0341C21.5184 18.1821 21.7166 18.266 21.9238 18.2671H21.9257C22.1322 18.2664 22.3299 18.1836 22.4753 18.0371L25.5675 14.9437C25.8715 14.6401 25.8715 14.1474 25.5679 13.8438C25.2646 13.5398 24.772 13.5398 24.4683 13.8434L21.9284 16.383L20.913 15.3578C20.6105 15.0527 20.1183 15.0504 19.8131 15.3529C19.5079 15.6554 19.506 16.1477 19.8082 16.4528L21.3734 18.0341Z" fill="black" stroke="#F7F7F7" stroke-width="0.8" mask="url(#path-4-inside-3)"/>
<mask id="path-5-inside-4" fill="white">
<path d="M32.3551 26.4292H13.6992C13.2699 26.4292 12.9219 26.7773 12.9219 27.2065C12.9219 27.6358 13.2699 27.9839 13.6992 27.9839H32.3551C32.7843 27.9839 33.1324 27.6358 33.1324 27.2065C33.1324 26.7773 32.7843 26.4292 32.3551 26.4292Z"/>
</mask>
<path d="M32.3551 26.4292H13.6992C13.2699 26.4292 12.9219 26.7773 12.9219 27.2065C12.9219 27.6358 13.2699 27.9839 13.6992 27.9839H32.3551C32.7843 27.9839 33.1324 27.6358 33.1324 27.2065C33.1324 26.7773 32.7843 26.4292 32.3551 26.4292Z" fill="black" stroke="#F7F7F7" stroke-width="0.8" mask="url(#path-5-inside-4)"/>
<mask id="path-6-inside-5" fill="white">
<path d="M32.3551 30.0242H13.6992C13.2699 30.0242 12.9219 30.3722 12.9219 30.8015C12.9219 31.2308 13.2699 31.5788 13.6992 31.5788H32.3551C32.7843 31.5788 33.1324 31.2308 33.1324 30.8015C33.1324 30.3722 32.7843 30.0242 32.3551 30.0242Z"/>
</mask>
<path d="M32.3551 30.0242H13.6992C13.2699 30.0242 12.9219 30.3722 12.9219 30.8015C12.9219 31.2308 13.2699 31.5788 13.6992 31.5788H32.3551C32.7843 31.5788 33.1324 31.2308 33.1324 30.8015C33.1324 30.3722 32.7843 30.0242 32.3551 30.0242Z" fill="black" stroke="#F7F7F7" stroke-width="0.8" mask="url(#path-6-inside-5)"/>
</g>
<defs>
<clipPath id="clip0">
<rect width="48" height="48" fill="white"/>
</clipPath>
</defs>
</svg>
