<svg width="31" height="23" viewBox="0 0 31 23" fill="none" xmlns="http://www.w3.org/2000/svg">
<path d="M30.3991 2.22995C30.3971 2.22995 30.3951 2.22995 30.3931 2.22995H28.3561V1.53291C28.367 1.25703 28.1886 1.00909 27.9234 0.932022C26.5092 0.561422 25.053 0.375597 23.591 0.379202C21.1874 0.379202 17.9126 0.920004 15.491 3.38366C13.0874 0.895969 9.78852 0.379202 7.39097 0.379202C5.929 0.375597 4.47274 0.561422 3.05854 0.932022C2.7934 1.00909 2.61493 1.25703 2.6259 1.53291V2.22394H0.600892C0.269049 2.22394 0 2.49299 0 2.82483V22.0173C0 22.3491 0.269049 22.6182 0.600892 22.6182C0.704095 22.6179 0.805495 22.591 0.895329 22.5401C0.955418 22.51 6.96433 19.2232 15.3528 21.3383H15.4429H15.497C15.5449 21.3441 15.5933 21.3441 15.6412 21.3383C24.0537 19.2051 30.0626 22.486 30.0987 22.5401C30.2846 22.6474 30.5137 22.6474 30.6996 22.5401C30.8843 22.4334 30.9987 22.2367 31 22.0233V2.83084C31 2.499 30.731 2.22995 30.3991 2.22995ZM1.20178 21.0619V3.43173H2.63791V18.5021C2.63416 18.8339 2.90013 19.106 3.23197 19.1097C3.26442 19.1101 3.29687 19.1079 3.32894 19.103C4.57203 18.9132 5.82707 18.8128 7.08451 18.8025C8.82635 18.7723 10.5609 19.0343 12.2161 19.5777C8.47821 19.1257 4.68673 19.6366 1.20178 21.0619ZM7.08451 17.6068C5.99157 17.6092 4.8999 17.6795 3.81566 17.8171V2.00762C4.9856 1.74698 6.18032 1.61396 7.37895 1.61103C9.62628 1.61103 12.7269 2.1278 14.8781 4.5554L14.8961 19.5236C13.6462 18.7064 11.2066 17.6068 7.08451 17.6068ZM16.0979 4.5554C18.2491 2.15183 21.3497 1.61103 23.597 1.61103C24.7956 1.61456 25.9903 1.74751 27.1603 2.00762V17.8171C26.0822 17.6782 24.9965 17.6059 23.9095 17.6008C19.8114 17.6008 17.3658 18.7004 16.0979 19.5176V4.5554ZM29.7922 21.0619C26.2998 19.6327 22.4996 19.1217 18.7538 19.5777C20.4169 19.0324 22.1597 18.7703 23.9095 18.8025C25.1748 18.8096 26.438 18.908 27.6891 19.097C28.0172 19.1468 28.3236 18.9211 28.3734 18.5931C28.3782 18.561 28.3805 18.5285 28.3801 18.4961V3.43173H29.8162L29.7922 21.0619Z" fill="black"/>
</svg>
