<svg width="22" height="22" viewBox="0 0 22 22" fill="none" xmlns="http://www.w3.org/2000/svg">
<g clip-path="url(#clip0)">
<path d="M10.9999 5.74097C8.10022 5.74097 5.74097 8.10022 5.74097 10.9999C5.74097 13.8997 8.10022 16.2589 10.9999 16.2589C13.8997 16.2589 16.2589 13.8997 16.2589 10.9999C16.2589 8.10022 13.8997 5.74097 10.9999 5.74097ZM10.9999 14.9442C8.82515 14.9442 7.05571 13.1747 7.05571 10.9999C7.05571 8.82515 8.82515 7.05571 10.9999 7.05571C13.1747 7.05571 14.9442 8.82515 14.9442 10.9999C14.9442 13.1747 13.1747 14.9442 10.9999 14.9442Z" fill="black"/>
<path d="M21.4824 8.49506L19.7915 8.12747C19.6444 7.67731 19.4623 7.23822 19.2473 6.81525L20.1834 5.35918C20.3506 5.09901 20.3138 4.75745 20.0953 4.53891L17.4611 1.90472C17.2426 1.68619 16.901 1.64943 16.6408 1.8166L15.1848 2.75269C14.7618 2.53767 14.3227 2.35556 13.8725 2.20853L13.5049 0.517639C13.4393 0.215515 13.1718 0 12.8626 0H9.13741C8.82823 0 8.56068 0.215515 8.49506 0.517639L8.12747 2.20853C7.67731 2.35556 7.23822 2.53767 6.81525 2.75269L5.35918 1.8166C5.09901 1.64943 4.75745 1.68619 4.53891 1.90472L1.90472 4.53891C1.68619 4.75745 1.64943 5.09901 1.8166 5.35918L2.75269 6.81525C2.53767 7.23822 2.35556 7.67731 2.20853 8.12747L0.517639 8.49506C0.215515 8.56085 0 8.82823 0 9.13741V12.8626C0 13.1718 0.215515 13.4391 0.517639 13.5049L2.20853 13.8725C2.35556 14.3227 2.53767 14.7618 2.75269 15.1848L1.8166 16.6408C1.64943 16.901 1.68619 17.2426 1.90472 17.4611L4.53891 20.0953C4.75745 20.3138 5.09901 20.3506 5.35918 20.1834L6.81525 19.2473C7.23822 19.4623 7.67731 19.6444 8.12747 19.7915L8.49506 21.4824C8.56068 21.7845 8.82823 22 9.13741 22H12.8626C13.1718 22 13.4393 21.7845 13.5049 21.4824L13.8725 19.7915C14.3227 19.6444 14.7618 19.4623 15.1848 19.2473L16.6408 20.1834C16.901 20.3506 17.2426 20.314 17.4611 20.0953L20.0953 17.4611C20.3138 17.2426 20.3506 16.901 20.1834 16.6408L19.2473 15.1848C19.4623 14.7618 19.6444 14.3227 19.7915 13.8725L21.4824 13.5049C21.7845 13.4391 22 13.1718 22 12.8626V9.13741C22 8.82823 21.7845 8.56085 21.4824 8.49506ZM20.6853 12.3327L19.1349 12.6697C18.8967 12.7216 18.7067 12.9009 18.6412 13.1355C18.4709 13.7466 18.2258 14.3376 17.9129 14.892C17.7931 15.1044 17.8005 15.3655 17.9324 15.5706L18.7909 16.906L16.9062 18.7909L15.5706 17.9324C15.3655 17.8005 15.1044 17.7931 14.8922 17.9129C14.3376 18.2258 13.7466 18.4709 13.1355 18.6412C12.9009 18.7067 12.7216 18.8967 12.6697 19.1349L12.3327 20.6853H9.6673L9.33026 19.1349C9.2784 18.8967 9.09914 18.7067 8.86449 18.6412C8.25336 18.4709 7.66237 18.2258 7.10797 17.9129C6.89565 17.7931 6.63448 17.8006 6.42937 17.9324L5.09398 18.7909L3.20923 16.906L4.0676 15.5706C4.19952 15.3655 4.20708 15.1044 4.08723 14.892C3.77437 14.3376 3.52931 13.7466 3.35878 13.1355C3.29332 12.9009 3.10349 12.7216 2.86531 12.6697L1.31474 12.3327V9.6673L2.86514 9.33026C3.10332 9.2784 3.29332 9.09914 3.35878 8.86449C3.52914 8.25336 3.7742 7.66237 4.08707 7.10797C4.20691 6.89565 4.19952 6.63448 4.0676 6.42937L3.20906 5.09398L5.09381 3.20906L6.42937 4.0676C6.63448 4.19952 6.89565 4.20691 7.1078 4.08707C7.66237 3.7742 8.25336 3.52914 8.86449 3.35878C9.09914 3.29332 9.2784 3.10332 9.33026 2.86514L9.6673 1.31474H12.3327L12.6697 2.86514C12.7216 3.10332 12.9009 3.29332 13.1355 3.35878C13.7466 3.52914 14.3376 3.7742 14.892 4.08707C15.1044 4.20691 15.3655 4.19936 15.5706 4.0676L16.906 3.20906L18.7908 5.09398L17.9324 6.42937C17.8005 6.63448 17.7929 6.89565 17.9128 7.10797C18.2258 7.66237 18.4707 8.25336 18.6412 8.86449C18.7067 9.09914 18.8965 9.2784 19.1347 9.33026L20.6853 9.6673V12.3327Z" fill="black"/>
</g>
<defs>
<clipPath id="clip0">
<rect width="22" height="22" fill="white"/>
</clipPath>
</defs>
</svg>
