<svg width="32" height="26" viewBox="0 0 32 26" fill="none" xmlns="http://www.w3.org/2000/svg">
<path d="M31.2983 10.231C30.9544 10.231 30.6758 10.51 30.6758 10.8535V13.0722C30.6758 14.3453 29.6398 15.3813 28.3667 15.3813H24.8181C24.6529 15.3813 24.4947 15.4467 24.3778 15.5634L20.0757 19.8657V16.0038C20.0757 15.6599 19.797 15.3813 19.4532 15.3813H10.5397C9.26657 15.3813 8.2306 14.3455 8.2306 13.0722V3.65462C8.2306 2.38148 9.26657 1.3457 10.5397 1.3457H28.3667C29.6398 1.3457 30.6758 2.38148 30.6758 3.65462V5.87307C30.6758 6.21703 30.9544 6.49562 31.2983 6.49562C31.6419 6.49562 31.9209 6.21703 31.9209 5.87307V3.65462C31.9209 1.69492 30.3266 0.100586 28.3667 0.100586H10.5397C8.57981 0.100586 6.98548 1.69492 6.98548 3.65462V11.6527H2.45423C1.12643 11.6527 0.0458984 12.7329 0.0458984 14.0611V19.7979C0.0458984 21.1261 1.12643 22.2063 2.45423 22.2063H4.35828L7.44384 25.292C7.5631 25.4113 7.72243 25.4745 7.8843 25.4745C7.96445 25.4745 8.04558 25.459 8.12243 25.427C8.35511 25.3307 8.50686 25.1039 8.50686 24.852V22.2063H13.3142C14.6422 22.2063 15.7225 21.1261 15.7225 19.7979V16.6264H18.8306V21.3685C18.8306 21.6205 18.9824 21.8473 19.2151 21.9436C19.2919 21.9755 19.3728 21.9911 19.4532 21.9911C19.6152 21.9911 19.7744 21.9279 19.8935 21.8086L25.0759 16.6264H28.3667C30.3266 16.6264 31.9209 15.0321 31.9209 13.0722V10.8535C31.9209 10.51 31.6419 10.231 31.2983 10.231ZM14.4776 19.7979C14.4776 20.4396 13.9558 20.9612 13.3142 20.9612H7.8843C7.54034 20.9612 7.26174 21.2401 7.26174 21.5837V23.3491L5.05633 21.1436C4.9396 21.0269 4.78123 20.9612 4.61606 20.9612H2.45423C1.8128 20.9612 1.29102 20.4396 1.29102 19.7979V14.0611C1.29102 13.4196 1.8128 12.8979 2.45423 12.8979H6.98548V13.0722C6.98548 15.0321 8.57981 16.6264 10.5397 16.6264H14.4776V19.7979Z" fill="black"/>
<path d="M25.5232 4.1803H13.3833C13.0395 4.1803 12.7607 4.45909 12.7607 4.80286C12.7607 5.14682 13.0395 5.42541 13.3833 5.42541H25.5232C25.867 5.42541 26.1458 5.14682 26.1458 4.80286C26.1458 4.45909 25.867 4.1803 25.5232 4.1803Z" fill="black"/>
<path d="M26.1458 8.16479C26.1458 7.82103 25.867 7.54224 25.5232 7.54224H13.3833C13.0395 7.54224 12.7607 7.82103 12.7607 8.16479C12.7607 8.50876 13.0395 8.78735 13.3833 8.78735H25.5232C25.867 8.78735 26.1458 8.50876 26.1458 8.16479Z" fill="black"/>
<path d="M13.3833 10.9041C13.0395 10.9041 12.7607 11.1828 12.7607 11.5266C12.7607 11.8706 13.0395 12.1492 13.3833 12.1492H20.3871C20.7308 12.1492 21.0096 11.8706 21.0096 11.5266C21.0096 11.1828 20.7308 10.9041 20.3871 10.9041H13.3833Z" fill="black"/>
<path d="M31.2983 7.74072C30.9555 7.74072 30.6758 8.02048 30.6758 8.36328C30.6758 8.70627 30.9555 8.98584 31.2983 8.98584C31.6411 8.98584 31.9209 8.70627 31.9209 8.36328C31.9209 8.02048 31.6411 7.74072 31.2983 7.74072Z" fill="black"/>
</svg>
