<svg width="20" height="28" viewBox="0 0 20 28" fill="none" xmlns="http://www.w3.org/2000/svg">
<mask id="path-1-outside-1" maskUnits="userSpaceOnUse" x="0" y="0" width="20" height="29" fill="black">
<rect fill="white" width="20" height="29"/>
<path d="M18.6087 22.8765C18.3927 22.8765 18.2175 23.0536 18.2175 23.272V26.9905C18.2175 27.1109 18.1206 27.2089 18.0015 27.2089H15.8987V19.4202C15.8987 19.2017 15.7236 19.0247 15.5075 19.0247C15.2915 19.0247 15.1164 19.2017 15.1164 19.4202V27.2089H10.882L12.1099 25.8431C12.244 25.6939 12.3073 25.4813 12.2791 25.2743C12.2786 25.2703 12.2779 25.2663 12.2773 25.2622L11.1077 18.2767L11.4228 17.7971C11.597 17.9222 11.7312 18.0426 11.9829 18.0426C12.2389 18.0426 12.4782 17.8978 12.596 17.6593V17.6593L13.8295 15.1597L16.6396 16.26C16.7412 16.304 18.2174 16.9762 18.2174 18.751V21.4262C18.2174 21.6446 18.3925 21.8217 18.6086 21.8217C18.8246 21.8217 18.9998 21.6447 18.9998 21.4262V18.751C18.9998 16.4126 17.0194 15.5625 16.9351 15.5275C16.9327 15.5264 16.9302 15.5254 16.9277 15.5245L12.2508 13.6932V12.5842C12.9937 12.0001 13.5087 11.1343 13.638 10.1465C14.0084 10.1201 14.352 9.98024 14.6327 9.73624C14.9992 9.41757 15.2095 8.95377 15.2095 8.46397C15.2095 8.05749 15.0645 7.66937 14.806 7.36694V5.90182C14.8059 3.19897 12.6311 1 9.95778 1C7.2845 1 5.10964 3.19897 5.10964 5.90182V7.40533C4.84838 7.7047 4.70631 8.07321 4.70631 8.46392C4.70631 8.95387 4.9165 9.41762 5.28312 9.73635C5.56357 9.98024 5.90702 10.1199 6.27729 10.1464C6.40763 11.1527 6.93771 12.0508 7.7438 12.6427V13.6932L3.07201 15.5244C3.06955 15.5254 3.0671 15.5264 3.06465 15.5274C2.98031 15.5624 1 16.4125 1 18.7509V26.9904C1 27.547 1.44788 27.9998 1.9984 27.9998H5.72541C5.94145 27.9998 6.11659 27.8228 6.11659 27.6043C6.11659 27.3859 5.94145 27.2088 5.72541 27.2088H4.88375V19.4202C4.88375 19.2017 4.7086 19.0247 4.49257 19.0247C4.27653 19.0247 4.10139 19.2017 4.10139 19.4202V27.2089H1.99845C1.87937 27.2089 1.78247 27.111 1.78247 26.9906V18.751C1.78247 16.9702 3.26859 16.2996 3.35986 16.2601L6.16771 15.1595L7.40133 17.6593C7.51937 17.8983 7.75903 18.0426 8.0145 18.0426C8.2649 18.0426 8.3978 17.924 8.57456 17.7971L8.88965 18.2767L7.72022 25.2623C7.71955 25.2662 7.71897 25.2702 7.7184 25.2742C7.69013 25.4811 7.7534 25.6938 7.8876 25.8432L9.11554 27.209H7.55108C7.33504 27.209 7.1599 27.3861 7.1599 27.6045C7.1599 27.8229 7.33504 28 7.55108 28H18.0016C18.5521 28 19 27.5471 19 26.9906V23.272C18.9999 23.0536 18.8247 22.8765 18.6087 22.8765ZM13.0968 14.8728L11.9467 17.2031C11.9182 17.1826 11.3087 16.7448 10.5637 16.2099C10.887 15.8064 10.5088 16.2784 11.9842 14.4371L13.0968 14.8728ZM10.7845 17.3389L10.4863 17.7927H9.51079L9.21255 17.3389L9.99857 16.7744L10.7845 17.3389ZM8.52611 13.8208V13.0807C9.00137 13.2743 9.50928 13.3642 10.0053 13.3642C10.5182 13.3642 11.0211 13.2536 11.4684 13.0559V13.8241L9.99857 15.6584L8.52611 13.8208ZM14.4271 8.46397C14.427 8.72305 14.3161 8.96822 14.1225 9.13649C13.9946 9.24776 13.8401 9.3189 13.6708 9.34674V7.58136C14.1204 7.65518 14.4271 8.03223 14.4271 8.46397ZM6.24495 9.34674C5.79024 9.27213 5.48867 8.89202 5.48867 8.46392C5.48867 8.04109 5.83536 7.69695 6.24495 7.60124V9.34674ZM6.26597 6.7953C6.14137 6.80975 5.99856 6.84387 5.89211 6.88046V5.90182C5.89211 3.63514 7.71595 1.79107 9.95783 1.79107C12.1997 1.79107 14.0236 3.63514 14.0236 5.90182V6.8533C13.9099 6.81834 13.7919 6.79524 13.6709 6.78438C13.6709 6.40274 13.6742 6.47636 12.4393 5.13411C12.2122 4.88742 11.8366 4.83574 11.5507 5.02458C10.1878 5.92471 8.52533 6.3769 6.99138 6.26553C6.65491 6.24006 6.34843 6.46413 6.26597 6.7953ZM7.02736 9.65814V7.19059V7.0606C8.71596 7.16059 10.4863 6.65339 11.9166 5.72732C12.4829 6.3421 12.7896 6.66457 12.8885 6.78723C12.8885 7.09752 12.8885 9.30292 12.8885 9.65809C12.8885 11.2637 11.5936 12.573 10.0053 12.573C8.22188 12.5731 7.02736 11.1743 7.02736 9.65814ZM8.05043 17.2031L6.90041 14.8728L8.011 14.4379L9.43182 16.2111C8.70929 16.7298 8.11599 17.156 8.05043 17.2031ZM8.49925 25.3476L9.63153 18.5837H10.3654L11.4977 25.3476L9.99851 27.0152L8.49925 25.3476Z"/>
</mask>
<path d="M18.6087 22.8765C18.3927 22.8765 18.2175 23.0536 18.2175 23.272V26.9905C18.2175 27.1109 18.1206 27.2089 18.0015 27.2089H15.8987V19.4202C15.8987 19.2017 15.7236 19.0247 15.5075 19.0247C15.2915 19.0247 15.1164 19.2017 15.1164 19.4202V27.2089H10.882L12.1099 25.8431C12.244 25.6939 12.3073 25.4813 12.2791 25.2743C12.2786 25.2703 12.2779 25.2663 12.2773 25.2622L11.1077 18.2767L11.4228 17.7971C11.597 17.9222 11.7312 18.0426 11.9829 18.0426C12.2389 18.0426 12.4782 17.8978 12.596 17.6593V17.6593L13.8295 15.1597L16.6396 16.26C16.7412 16.304 18.2174 16.9762 18.2174 18.751V21.4262C18.2174 21.6446 18.3925 21.8217 18.6086 21.8217C18.8246 21.8217 18.9998 21.6447 18.9998 21.4262V18.751C18.9998 16.4126 17.0194 15.5625 16.9351 15.5275C16.9327 15.5264 16.9302 15.5254 16.9277 15.5245L12.2508 13.6932V12.5842C12.9937 12.0001 13.5087 11.1343 13.638 10.1465C14.0084 10.1201 14.352 9.98024 14.6327 9.73624C14.9992 9.41757 15.2095 8.95377 15.2095 8.46397C15.2095 8.05749 15.0645 7.66937 14.806 7.36694V5.90182C14.8059 3.19897 12.6311 1 9.95778 1C7.2845 1 5.10964 3.19897 5.10964 5.90182V7.40533C4.84838 7.7047 4.70631 8.07321 4.70631 8.46392C4.70631 8.95387 4.9165 9.41762 5.28312 9.73635C5.56357 9.98024 5.90702 10.1199 6.27729 10.1464C6.40763 11.1527 6.93771 12.0508 7.7438 12.6427V13.6932L3.07201 15.5244C3.06955 15.5254 3.0671 15.5264 3.06465 15.5274C2.98031 15.5624 1 16.4125 1 18.7509V26.9904C1 27.547 1.44788 27.9998 1.9984 27.9998H5.72541C5.94145 27.9998 6.11659 27.8228 6.11659 27.6043C6.11659 27.3859 5.94145 27.2088 5.72541 27.2088H4.88375V19.4202C4.88375 19.2017 4.7086 19.0247 4.49257 19.0247C4.27653 19.0247 4.10139 19.2017 4.10139 19.4202V27.2089H1.99845C1.87937 27.2089 1.78247 27.111 1.78247 26.9906V18.751C1.78247 16.9702 3.26859 16.2996 3.35986 16.2601L6.16771 15.1595L7.40133 17.6593C7.51937 17.8983 7.75903 18.0426 8.0145 18.0426C8.2649 18.0426 8.3978 17.924 8.57456 17.7971L8.88965 18.2767L7.72022 25.2623C7.71955 25.2662 7.71897 25.2702 7.7184 25.2742C7.69013 25.4811 7.7534 25.6938 7.8876 25.8432L9.11554 27.209H7.55108C7.33504 27.209 7.1599 27.3861 7.1599 27.6045C7.1599 27.8229 7.33504 28 7.55108 28H18.0016C18.5521 28 19 27.5471 19 26.9906V23.272C18.9999 23.0536 18.8247 22.8765 18.6087 22.8765ZM13.0968 14.8728L11.9467 17.2031C11.9182 17.1826 11.3087 16.7448 10.5637 16.2099C10.887 15.8064 10.5088 16.2784 11.9842 14.4371L13.0968 14.8728ZM10.7845 17.3389L10.4863 17.7927H9.51079L9.21255 17.3389L9.99857 16.7744L10.7845 17.3389ZM8.52611 13.8208V13.0807C9.00137 13.2743 9.50928 13.3642 10.0053 13.3642C10.5182 13.3642 11.0211 13.2536 11.4684 13.0559V13.8241L9.99857 15.6584L8.52611 13.8208ZM14.4271 8.46397C14.427 8.72305 14.3161 8.96822 14.1225 9.13649C13.9946 9.24776 13.8401 9.3189 13.6708 9.34674V7.58136C14.1204 7.65518 14.4271 8.03223 14.4271 8.46397ZM6.24495 9.34674C5.79024 9.27213 5.48867 8.89202 5.48867 8.46392C5.48867 8.04109 5.83536 7.69695 6.24495 7.60124V9.34674ZM6.26597 6.7953C6.14137 6.80975 5.99856 6.84387 5.89211 6.88046V5.90182C5.89211 3.63514 7.71595 1.79107 9.95783 1.79107C12.1997 1.79107 14.0236 3.63514 14.0236 5.90182V6.8533C13.9099 6.81834 13.7919 6.79524 13.6709 6.78438C13.6709 6.40274 13.6742 6.47636 12.4393 5.13411C12.2122 4.88742 11.8366 4.83574 11.5507 5.02458C10.1878 5.92471 8.52533 6.3769 6.99138 6.26553C6.65491 6.24006 6.34843 6.46413 6.26597 6.7953ZM7.02736 9.65814V7.19059V7.0606C8.71596 7.16059 10.4863 6.65339 11.9166 5.72732C12.4829 6.3421 12.7896 6.66457 12.8885 6.78723C12.8885 7.09752 12.8885 9.30292 12.8885 9.65809C12.8885 11.2637 11.5936 12.573 10.0053 12.573C8.22188 12.5731 7.02736 11.1743 7.02736 9.65814ZM8.05043 17.2031L6.90041 14.8728L8.011 14.4379L9.43182 16.2111C8.70929 16.7298 8.11599 17.156 8.05043 17.2031ZM8.49925 25.3476L9.63153 18.5837H10.3654L11.4977 25.3476L9.99851 27.0152L8.49925 25.3476Z" fill="black"/>
<path d="M18.6087 22.8765C18.3927 22.8765 18.2175 23.0536 18.2175 23.272V26.9905C18.2175 27.1109 18.1206 27.2089 18.0015 27.2089H15.8987V19.4202C15.8987 19.2017 15.7236 19.0247 15.5075 19.0247C15.2915 19.0247 15.1164 19.2017 15.1164 19.4202V27.2089H10.882L12.1099 25.8431C12.244 25.6939 12.3073 25.4813 12.2791 25.2743C12.2786 25.2703 12.2779 25.2663 12.2773 25.2622L11.1077 18.2767L11.4228 17.7971C11.597 17.9222 11.7312 18.0426 11.9829 18.0426C12.2389 18.0426 12.4782 17.8978 12.596 17.6593V17.6593L13.8295 15.1597L16.6396 16.26C16.7412 16.304 18.2174 16.9762 18.2174 18.751V21.4262C18.2174 21.6446 18.3925 21.8217 18.6086 21.8217C18.8246 21.8217 18.9998 21.6447 18.9998 21.4262V18.751C18.9998 16.4126 17.0194 15.5625 16.9351 15.5275C16.9327 15.5264 16.9302 15.5254 16.9277 15.5245L12.2508 13.6932V12.5842C12.9937 12.0001 13.5087 11.1343 13.638 10.1465C14.0084 10.1201 14.352 9.98024 14.6327 9.73624C14.9992 9.41757 15.2095 8.95377 15.2095 8.46397C15.2095 8.05749 15.0645 7.66937 14.806 7.36694V5.90182C14.8059 3.19897 12.6311 1 9.95778 1C7.2845 1 5.10964 3.19897 5.10964 5.90182V7.40533C4.84838 7.7047 4.70631 8.07321 4.70631 8.46392C4.70631 8.95387 4.9165 9.41762 5.28312 9.73635C5.56357 9.98024 5.90702 10.1199 6.27729 10.1464C6.40763 11.1527 6.93771 12.0508 7.7438 12.6427V13.6932L3.07201 15.5244C3.06955 15.5254 3.0671 15.5264 3.06465 15.5274C2.98031 15.5624 1 16.4125 1 18.7509V26.9904C1 27.547 1.44788 27.9998 1.9984 27.9998H5.72541C5.94145 27.9998 6.11659 27.8228 6.11659 27.6043C6.11659 27.3859 5.94145 27.2088 5.72541 27.2088H4.88375V19.4202C4.88375 19.2017 4.7086 19.0247 4.49257 19.0247C4.27653 19.0247 4.10139 19.2017 4.10139 19.4202V27.2089H1.99845C1.87937 27.2089 1.78247 27.111 1.78247 26.9906V18.751C1.78247 16.9702 3.26859 16.2996 3.35986 16.2601L6.16771 15.1595L7.40133 17.6593C7.51937 17.8983 7.75903 18.0426 8.0145 18.0426C8.2649 18.0426 8.3978 17.924 8.57456 17.7971L8.88965 18.2767L7.72022 25.2623C7.71955 25.2662 7.71897 25.2702 7.7184 25.2742C7.69013 25.4811 7.7534 25.6938 7.8876 25.8432L9.11554 27.209H7.55108C7.33504 27.209 7.1599 27.3861 7.1599 27.6045C7.1599 27.8229 7.33504 28 7.55108 28H18.0016C18.5521 28 19 27.5471 19 26.9906V23.272C18.9999 23.0536 18.8247 22.8765 18.6087 22.8765ZM13.0968 14.8728L11.9467 17.2031C11.9182 17.1826 11.3087 16.7448 10.5637 16.2099C10.887 15.8064 10.5088 16.2784 11.9842 14.4371L13.0968 14.8728ZM10.7845 17.3389L10.4863 17.7927H9.51079L9.21255 17.3389L9.99857 16.7744L10.7845 17.3389ZM8.52611 13.8208V13.0807C9.00137 13.2743 9.50928 13.3642 10.0053 13.3642C10.5182 13.3642 11.0211 13.2536 11.4684 13.0559V13.8241L9.99857 15.6584L8.52611 13.8208ZM14.4271 8.46397C14.427 8.72305 14.3161 8.96822 14.1225 9.13649C13.9946 9.24776 13.8401 9.3189 13.6708 9.34674V7.58136C14.1204 7.65518 14.4271 8.03223 14.4271 8.46397ZM6.24495 9.34674C5.79024 9.27213 5.48867 8.89202 5.48867 8.46392C5.48867 8.04109 5.83536 7.69695 6.24495 7.60124V9.34674ZM6.26597 6.7953C6.14137 6.80975 5.99856 6.84387 5.89211 6.88046V5.90182C5.89211 3.63514 7.71595 1.79107 9.95783 1.79107C12.1997 1.79107 14.0236 3.63514 14.0236 5.90182V6.8533C13.9099 6.81834 13.7919 6.79524 13.6709 6.78438C13.6709 6.40274 13.6742 6.47636 12.4393 5.13411C12.2122 4.88742 11.8366 4.83574 11.5507 5.02458C10.1878 5.92471 8.52533 6.3769 6.99138 6.26553C6.65491 6.24006 6.34843 6.46413 6.26597 6.7953ZM7.02736 9.65814V7.19059V7.0606C8.71596 7.16059 10.4863 6.65339 11.9166 5.72732C12.4829 6.3421 12.7896 6.66457 12.8885 6.78723C12.8885 7.09752 12.8885 9.30292 12.8885 9.65809C12.8885 11.2637 11.5936 12.573 10.0053 12.573C8.22188 12.5731 7.02736 11.1743 7.02736 9.65814ZM8.05043 17.2031L6.90041 14.8728L8.011 14.4379L9.43182 16.2111C8.70929 16.7298 8.11599 17.156 8.05043 17.2031ZM8.49925 25.3476L9.63153 18.5837H10.3654L11.4977 25.3476L9.99851 27.0152L8.49925 25.3476Z" stroke="black" stroke-width="0.4" mask="url(#path-1-outside-1)"/>
</svg>
