<svg width="29" height="28" viewBox="0 0 29 28" fill="none" xmlns="http://www.w3.org/2000/svg">
<mask id="path-1-outside-1" maskUnits="userSpaceOnUse" x="0" y="-0.299072" width="30" height="28" fill="black">
<rect fill="white" y="-0.299072" width="30" height="28"/>
<path d="M27.8096 0.700928H8.25154C7.59447 0.701694 7.06201 1.23415 7.06124 1.89122V7.28583L6.16688 5.94429C5.7575 5.32677 4.9342 5.1415 4.29977 5.52419L2.45974 6.63046C1.85716 6.98404 1.41512 7.55742 1.22651 8.23013C0.555275 10.6742 1.05333 14.8851 7.23399 21.0666C12.1491 25.9767 15.8138 27.2991 18.3396 27.2991C18.9243 27.3018 19.5069 27.2258 20.0714 27.0732C20.7438 26.8846 21.3172 26.4431 21.6715 25.8414L22.7763 23.9994C23.1575 23.3655 22.9724 22.5439 22.3562 22.1346L17.9503 19.1976C17.3459 18.7979 16.5358 18.9293 16.0888 19.4996L14.806 21.1488C14.672 21.3252 14.4288 21.3766 14.2347 21.2696L13.9905 21.1352C13.1872 20.6974 12.1874 20.1522 10.1681 18.1329C9.94962 17.9144 9.75171 17.71 9.56595 17.5144H27.8096C28.4651 17.5149 28.9974 16.9851 28.9999 16.3296V1.89122C28.9992 1.23415 28.4667 0.701694 27.8096 0.700928ZM13.5439 21.9549L13.781 22.0852C14.3771 22.4185 15.1274 22.2638 15.5431 21.722L16.8258 20.0729C16.9716 19.8871 17.2355 19.8443 17.4326 19.9744L21.8385 22.9114C22.0387 23.0448 22.0989 23.3118 21.9753 23.5182L20.8704 25.3601C20.6397 25.7558 20.2649 26.0468 19.8244 26.1723C17.6179 26.7791 13.7563 26.2657 7.89532 20.4043C2.03439 14.543 1.52288 10.6817 2.12826 8.47705C2.25369 8.03665 2.54453 7.66184 2.93996 7.43101L4.78191 6.32566C4.9883 6.20237 5.25518 6.26248 5.38871 6.46242L8.32708 10.8684C8.45738 11.0654 8.41454 11.3295 8.22856 11.4752L6.57894 12.7583C6.03724 13.1739 5.88255 13.9241 6.21579 14.52L6.34647 14.7571C6.81323 15.6132 7.39344 16.6784 9.50845 18.7929C11.6235 20.9075 12.6883 21.4881 13.5439 21.9549ZM28.0664 16.3297C28.0649 16.4701 27.9501 16.5828 27.8097 16.5818H8.72388C8.11763 15.8885 7.59485 15.1265 7.16621 14.3113L7.03176 14.0663C6.92455 13.8726 6.97586 13.6297 7.15221 13.4959L8.80183 12.2127C9.37236 11.7658 9.50381 10.9556 9.10383 10.3512L7.99477 8.68661V1.89122C7.994 1.8229 8.02081 1.75715 8.06911 1.70885C8.11741 1.66055 8.18316 1.63374 8.25148 1.63451H27.8096C27.878 1.63374 27.9437 1.66055 27.992 1.70885C28.0403 1.75715 28.0671 1.8229 28.0664 1.89122V16.3297H28.0664Z"/>
</mask>
<path d="M27.8096 0.700928H8.25154C7.59447 0.701694 7.06201 1.23415 7.06124 1.89122V7.28583L6.16688 5.94429C5.7575 5.32677 4.9342 5.1415 4.29977 5.52419L2.45974 6.63046C1.85716 6.98404 1.41512 7.55742 1.22651 8.23013C0.555275 10.6742 1.05333 14.8851 7.23399 21.0666C12.1491 25.9767 15.8138 27.2991 18.3396 27.2991C18.9243 27.3018 19.5069 27.2258 20.0714 27.0732C20.7438 26.8846 21.3172 26.4431 21.6715 25.8414L22.7763 23.9994C23.1575 23.3655 22.9724 22.5439 22.3562 22.1346L17.9503 19.1976C17.3459 18.7979 16.5358 18.9293 16.0888 19.4996L14.806 21.1488C14.672 21.3252 14.4288 21.3766 14.2347 21.2696L13.9905 21.1352C13.1872 20.6974 12.1874 20.1522 10.1681 18.1329C9.94962 17.9144 9.75171 17.71 9.56595 17.5144H27.8096C28.4651 17.5149 28.9974 16.9851 28.9999 16.3296V1.89122C28.9992 1.23415 28.4667 0.701694 27.8096 0.700928ZM13.5439 21.9549L13.781 22.0852C14.3771 22.4185 15.1274 22.2638 15.5431 21.722L16.8258 20.0729C16.9716 19.8871 17.2355 19.8443 17.4326 19.9744L21.8385 22.9114C22.0387 23.0448 22.0989 23.3118 21.9753 23.5182L20.8704 25.3601C20.6397 25.7558 20.2649 26.0468 19.8244 26.1723C17.6179 26.7791 13.7563 26.2657 7.89532 20.4043C2.03439 14.543 1.52288 10.6817 2.12826 8.47705C2.25369 8.03665 2.54453 7.66184 2.93996 7.43101L4.78191 6.32566C4.9883 6.20237 5.25518 6.26248 5.38871 6.46242L8.32708 10.8684C8.45738 11.0654 8.41454 11.3295 8.22856 11.4752L6.57894 12.7583C6.03724 13.1739 5.88255 13.9241 6.21579 14.52L6.34647 14.7571C6.81323 15.6132 7.39344 16.6784 9.50845 18.7929C11.6235 20.9075 12.6883 21.4881 13.5439 21.9549ZM28.0664 16.3297C28.0649 16.4701 27.9501 16.5828 27.8097 16.5818H8.72388C8.11763 15.8885 7.59485 15.1265 7.16621 14.3113L7.03176 14.0663C6.92455 13.8726 6.97586 13.6297 7.15221 13.4959L8.80183 12.2127C9.37236 11.7658 9.50381 10.9556 9.10383 10.3512L7.99477 8.68661V1.89122C7.994 1.8229 8.02081 1.75715 8.06911 1.70885C8.11741 1.66055 8.18316 1.63374 8.25148 1.63451H27.8096C27.878 1.63374 27.9437 1.66055 27.992 1.70885C28.0403 1.75715 28.0671 1.8229 28.0664 1.89122V16.3297H28.0664Z" fill="black"/>
<path d="M27.8096 0.700928H8.25154C7.59447 0.701694 7.06201 1.23415 7.06124 1.89122V7.28583L6.16688 5.94429C5.7575 5.32677 4.9342 5.1415 4.29977 5.52419L2.45974 6.63046C1.85716 6.98404 1.41512 7.55742 1.22651 8.23013C0.555275 10.6742 1.05333 14.8851 7.23399 21.0666C12.1491 25.9767 15.8138 27.2991 18.3396 27.2991C18.9243 27.3018 19.5069 27.2258 20.0714 27.0732C20.7438 26.8846 21.3172 26.4431 21.6715 25.8414L22.7763 23.9994C23.1575 23.3655 22.9724 22.5439 22.3562 22.1346L17.9503 19.1976C17.3459 18.7979 16.5358 18.9293 16.0888 19.4996L14.806 21.1488C14.672 21.3252 14.4288 21.3766 14.2347 21.2696L13.9905 21.1352C13.1872 20.6974 12.1874 20.1522 10.1681 18.1329C9.94962 17.9144 9.75171 17.71 9.56595 17.5144H27.8096C28.4651 17.5149 28.9974 16.9851 28.9999 16.3296V1.89122C28.9992 1.23415 28.4667 0.701694 27.8096 0.700928ZM13.5439 21.9549L13.781 22.0852C14.3771 22.4185 15.1274 22.2638 15.5431 21.722L16.8258 20.0729C16.9716 19.8871 17.2355 19.8443 17.4326 19.9744L21.8385 22.9114C22.0387 23.0448 22.0989 23.3118 21.9753 23.5182L20.8704 25.3601C20.6397 25.7558 20.2649 26.0468 19.8244 26.1723C17.6179 26.7791 13.7563 26.2657 7.89532 20.4043C2.03439 14.543 1.52288 10.6817 2.12826 8.47705C2.25369 8.03665 2.54453 7.66184 2.93996 7.43101L4.78191 6.32566C4.9883 6.20237 5.25518 6.26248 5.38871 6.46242L8.32708 10.8684C8.45738 11.0654 8.41454 11.3295 8.22856 11.4752L6.57894 12.7583C6.03724 13.1739 5.88255 13.9241 6.21579 14.52L6.34647 14.7571C6.81323 15.6132 7.39344 16.6784 9.50845 18.7929C11.6235 20.9075 12.6883 21.4881 13.5439 21.9549ZM28.0664 16.3297C28.0649 16.4701 27.9501 16.5828 27.8097 16.5818H8.72388C8.11763 15.8885 7.59485 15.1265 7.16621 14.3113L7.03176 14.0663C6.92455 13.8726 6.97586 13.6297 7.15221 13.4959L8.80183 12.2127C9.37236 11.7658 9.50381 10.9556 9.10383 10.3512L7.99477 8.68661V1.89122C7.994 1.8229 8.02081 1.75715 8.06911 1.70885C8.11741 1.66055 8.18316 1.63374 8.25148 1.63451H27.8096C27.878 1.63374 27.9437 1.66055 27.992 1.70885C28.0403 1.75715 28.0671 1.8229 28.0664 1.89122V16.3297H28.0664Z" stroke="black" stroke-width="0.4" mask="url(#path-1-outside-1)"/>
<mask id="path-2-outside-2" maskUnits="userSpaceOnUse" x="8.11304" y="1.76721" width="20" height="9" fill="black">
<rect fill="white" x="8.11304" y="1.76721" width="20" height="9"/>
<path d="M26.2022 2.86213L18.4009 8.77859C18.1802 8.93898 17.8813 8.93898 17.6606 8.77859L9.86213 2.86213C9.65667 2.70629 9.36375 2.74655 9.20796 2.95201C9.05212 3.15746 9.09238 3.45039 9.29783 3.60618L17.0973 9.52214C17.6521 9.93207 18.4095 9.93207 18.9644 9.52214L26.7661 3.60618C26.8649 3.53135 26.9298 3.4203 26.9466 3.29755C26.9634 3.17481 26.9307 3.05042 26.8557 2.95179C26.7 2.74672 26.4075 2.70662 26.2022 2.86213Z"/>
</mask>
<path d="M26.2022 2.86213L18.4009 8.77859C18.1802 8.93898 17.8813 8.93898 17.6606 8.77859L9.86213 2.86213C9.65667 2.70629 9.36375 2.74655 9.20796 2.95201C9.05212 3.15746 9.09238 3.45039 9.29783 3.60618L17.0973 9.52214C17.6521 9.93207 18.4095 9.93207 18.9644 9.52214L26.7661 3.60618C26.8649 3.53135 26.9298 3.4203 26.9466 3.29755C26.9634 3.17481 26.9307 3.05042 26.8557 2.95179C26.7 2.74672 26.4075 2.70662 26.2022 2.86213Z" fill="black"/>
<path d="M26.2022 2.86213L18.4009 8.77859C18.1802 8.93898 17.8813 8.93898 17.6606 8.77859L9.86213 2.86213C9.65667 2.70629 9.36375 2.74655 9.20796 2.95201C9.05212 3.15746 9.09238 3.45039 9.29783 3.60618L17.0973 9.52214C17.6521 9.93207 18.4095 9.93207 18.9644 9.52214L26.7661 3.60618C26.8649 3.53135 26.9298 3.4203 26.9466 3.29755C26.9634 3.17481 26.9307 3.05042 26.8557 2.95179C26.7 2.74672 26.4075 2.70662 26.2022 2.86213Z" stroke="black" stroke-width="0.4" mask="url(#path-2-outside-2)"/>
<mask id="path-3-outside-3" maskUnits="userSpaceOnUse" x="8.13989" y="8.43115" width="7" height="8" fill="black">
<rect fill="white" x="8.13989" y="8.43115" width="7" height="8"/>
<path d="M14.047 9.56145L9.26527 14.6821C9.08947 14.8706 9.0998 15.1661 9.28836 15.3419C9.47691 15.5177 9.77235 15.5073 9.94816 15.3188L14.7299 10.1959C14.8879 10.0053 14.8695 9.72452 14.6882 9.55598C14.5068 9.38745 14.2254 9.38986 14.047 9.56145Z"/>
</mask>
<path d="M14.047 9.56145L9.26527 14.6821C9.08947 14.8706 9.0998 15.1661 9.28836 15.3419C9.47691 15.5177 9.77235 15.5073 9.94816 15.3188L14.7299 10.1959C14.8879 10.0053 14.8695 9.72452 14.6882 9.55598C14.5068 9.38745 14.2254 9.38986 14.047 9.56145Z" fill="black"/>
<path d="M14.047 9.56145L9.26527 14.6821C9.08947 14.8706 9.0998 15.1661 9.28836 15.3419C9.47691 15.5177 9.77235 15.5073 9.94816 15.3188L14.7299 10.1959C14.8879 10.0053 14.8695 9.72452 14.6882 9.55598C14.5068 9.38745 14.2254 9.38986 14.047 9.56145Z" stroke="black" stroke-width="0.4" mask="url(#path-3-outside-3)"/>
<mask id="path-4-outside-4" maskUnits="userSpaceOnUse" x="20.2366" y="8.41284" width="7" height="8" fill="black">
<rect fill="white" x="20.2366" y="8.41284" width="7" height="8"/>
<path d="M22.0449 9.56133C21.8691 9.37277 21.5737 9.36238 21.3851 9.53825C21.1965 9.71405 21.1861 10.0094 21.362 10.198L26.1423 15.3187C26.3181 15.5072 26.6135 15.5176 26.8021 15.3418C26.9907 15.1659 27.0011 14.8706 26.8252 14.6819L22.0449 9.56133Z"/>
</mask>
<path d="M22.0449 9.56133C21.8691 9.37277 21.5737 9.36238 21.3851 9.53825C21.1965 9.71405 21.1861 10.0094 21.362 10.198L26.1423 15.3187C26.3181 15.5072 26.6135 15.5176 26.8021 15.3418C26.9907 15.1659 27.0011 14.8706 26.8252 14.6819L22.0449 9.56133Z" fill="black"/>
<path d="M22.0449 9.56133C21.8691 9.37277 21.5737 9.36238 21.3851 9.53825C21.1965 9.71405 21.1861 10.0094 21.362 10.198L26.1423 15.3187C26.3181 15.5072 26.6135 15.5176 26.8021 15.3418C26.9907 15.1659 27.0011 14.8706 26.8252 14.6819L22.0449 9.56133Z" stroke="black" stroke-width="0.4" mask="url(#path-4-outside-4)"/>
</svg>
