<svg width="27" height="27" viewBox="0 0 27 27" fill="none" xmlns="http://www.w3.org/2000/svg">
<g clip-path="url(#clip0)">
<path d="M19.4437 8.45517C19.4437 8.77399 19.7022 9.03252 20.021 9.03252C20.3399 9.03252 20.5983 8.77398 20.5983 8.45517V4.84924C20.5983 4.53043 20.3398 4.2719 20.021 4.2719C19.7022 4.2719 19.4437 4.53043 19.4437 4.84924V8.45517Z" fill="black" stroke="black" stroke-width="0.1"/>
<path d="M20.0186 3.72969C20.3374 3.72969 20.5959 3.4712 20.5959 3.15234C20.5959 2.83349 20.3374 2.575 20.0186 2.575C19.6997 2.575 19.4412 2.83349 19.4412 3.15234C19.4412 3.4712 19.6997 3.72969 20.0186 3.72969Z" fill="black" stroke="black" stroke-width="0.1"/>
<path d="M25.6076 5.54012C25.6076 2.45766 23.1004 -0.05 20.0185 -0.05C18.749 -0.05 17.577 0.375569 16.6375 1.09149H3.36154C2.27571 1.09149 1.39238 1.97476 1.39238 3.06065V22.244C1.39238 23.3298 2.27571 24.2132 3.36154 24.2132H4.98486V25.0808C4.98486 26.1666 5.86819 27.05 6.95402 27.05H20.742C21.8278 27.05 22.7112 26.1667 22.7112 25.0808V17.7664C22.7112 17.4476 22.4526 17.1891 22.1338 17.1891C21.815 17.1891 21.5565 17.4476 21.5565 17.7664V25.0808C21.5565 25.5298 21.1911 25.8953 20.742 25.8953H6.95402C6.50497 25.8953 6.13955 25.5299 6.13955 25.0808V24.2132H17.1496C18.2354 24.2132 19.1188 23.3299 19.1188 22.244V11.0578C19.4118 11.1054 19.7124 11.1302 20.0186 11.1302C20.5517 11.1302 21.0677 11.0551 21.5565 10.915V12.9987C21.5565 13.3175 21.8151 13.576 22.1339 13.576C22.4527 13.576 22.7112 13.3175 22.7112 12.9987V10.4377C24.4363 9.48507 25.6076 7.64695 25.6076 5.54012ZM17.9641 22.244C17.9641 22.6931 17.5987 23.0586 17.1496 23.0586H3.36154C2.9125 23.0586 2.54707 22.6931 2.54707 22.244V3.06065C2.54707 2.6116 2.91249 2.24618 3.36154 2.24618H15.5053C14.8815 3.09898 14.4931 4.13453 14.4367 5.25613H5.50425C5.18544 5.25613 4.9269 5.51466 4.9269 5.83348V8.06066C4.9269 8.37947 5.18544 8.638 5.50425 8.638H15.0069C15.1186 8.638 15.223 8.60619 15.3115 8.55117C15.9407 9.53187 16.8678 10.304 17.9641 10.7389V22.244ZM14.4295 6.41082V7.48332H6.08159V6.41082H14.4295ZM20.0185 9.97549C17.5735 9.97549 15.5842 7.98575 15.5842 5.54006C15.5842 3.09442 17.5735 1.10463 20.0185 1.10463C22.4636 1.10463 24.4529 3.09437 24.4529 5.54006C24.4529 7.98575 22.4636 9.97549 20.0185 9.97549Z" fill="black" stroke="black" stroke-width="0.1"/>
<path d="M21.7677 14.9264L21.7677 14.9264C21.9574 14.7721 22.23 14.7535 22.4383 14.8827L22.4383 14.8827C22.646 15.0116 22.7522 15.2655 22.696 15.5043L22.696 15.5043C22.6352 15.7622 22.3993 15.9505 22.1336 15.9505C21.8954 15.9505 21.6777 15.7984 21.5938 15.5764L21.7677 14.9264ZM21.7677 14.9264C21.5779 15.0809 21.5077 15.3484 21.5938 15.5764L21.7677 14.9264Z" fill="black" stroke="black" stroke-width="0.1"/>
<path d="M5.5044 11.5267H15.007C15.3259 11.5267 15.5844 11.2682 15.5844 10.9493C15.5844 10.6305 15.3259 10.372 15.007 10.372H5.5044C5.18558 10.372 4.92705 10.6305 4.92705 10.9493C4.92705 11.2682 5.18558 11.5267 5.5044 11.5267Z" fill="black" stroke="black" stroke-width="0.1"/>
<path d="M5.5044 14.0278H15.007C15.3259 14.0278 15.5844 13.7692 15.5844 13.4504C15.5844 13.1316 15.3258 12.8731 15.007 12.8731H5.5044C5.18559 12.8731 4.92705 13.1316 4.92705 13.4504C4.92705 13.7692 5.18558 14.0278 5.5044 14.0278Z" fill="black" stroke="black" stroke-width="0.1"/>
<path d="M5.5044 16.5291H15.007C15.3259 16.5291 15.5844 16.2706 15.5844 15.9518C15.5844 15.633 15.3259 15.3744 15.007 15.3744H5.5044C5.18558 15.3744 4.92705 15.633 4.92705 15.9518C4.92705 16.2706 5.18558 16.5291 5.5044 16.5291Z" fill="black" stroke="black" stroke-width="0.1"/>
<path d="M5.5044 19.0302H15.007C15.3259 19.0302 15.5844 18.7717 15.5844 18.4529C15.5844 18.134 15.3258 17.8755 15.007 17.8755H5.5044C5.18558 17.8755 4.92705 18.134 4.92705 18.4529C4.92705 18.7717 5.18558 19.0302 5.5044 19.0302Z" fill="black" stroke="black" stroke-width="0.1"/>
</g>
<defs>
<clipPath id="clip0">
<rect width="27" height="27" fill="white"/>
</clipPath>
</defs>
</svg>
