<svg width="22" height="22" viewBox="0 0 22 22" fill="none" xmlns="http://www.w3.org/2000/svg">
<g clip-path="url(#clip0)">
<path d="M4.21915 20.5806V20.6306H4.16915H2.74979C2.38545 20.6306 2.09012 20.926 2.09012 21.2903C2.09012 21.6546 2.38545 21.95 2.74979 21.95H19.2498C19.6141 21.95 19.9095 21.6546 19.9095 21.2903C19.9095 20.926 19.6141 20.6306 19.2498 20.6306H17.8304H17.7804V20.5806V3.19355C17.7804 2.82924 17.4851 2.53387 17.1208 2.53387H16.5441H16.4941V2.48387V0.709677C16.4941 0.345372 16.1988 0.05 15.8345 0.05H10.9111C10.5467 0.05 10.2514 0.34537 10.2514 0.709677V2.48387V2.53387H10.2014H4.87883C4.51448 2.53387 4.21915 2.82924 4.21915 3.19355V20.5806ZM15.1248 1.36935H15.1748V1.41935V2.48387V2.53387H15.1248H11.6208H11.5708V2.48387V1.41935V1.36935H11.6208H15.1248ZM12.4692 20.5806V20.6306H12.4191H9.58044H9.53044V20.5806V17.5645V17.5145H9.58044H12.4191H12.4692V17.5645V20.5806ZM8.21109 20.5806V20.6306H8.16109H5.5885H5.5385V20.5806V3.90323V3.85323H5.5885H16.4111H16.4611V3.90323V20.5806V20.6306H16.4111H13.8385H13.7885V20.5806V17.5645V17.5145H13.8385H14.149C14.5133 17.5145 14.8087 17.2191 14.8087 16.8548C14.8087 16.4905 14.5133 16.1952 14.149 16.1952H14.1356H14.1222H14.1089H14.0955H14.0822H14.0689H14.0556H14.0424H14.0291H14.0159H14.0026H13.9894H13.9762H13.9631H13.9499H13.9368H13.9236H13.9105H13.8974H13.8844H13.8713H13.8582H13.8452H13.8322H13.8192H13.8062H13.7932H13.7803H13.7673H13.7544H13.7415H13.7286H13.7157H13.7028H13.69H13.6771H13.6643H13.6515H13.6387H13.6259H13.6132H13.6004H13.5877H13.5749H13.5622H13.5495H13.5368H13.5242H13.5115H13.4988H13.4862H13.4736H13.461H13.4484H13.4358H13.4232H13.4107H13.3981H13.3856H13.3731H13.3606H13.3481H13.3356H13.3232H13.3107H13.2983H13.2858H13.2734H13.261H13.2486H13.2362H13.2238H13.2115H13.1991H13.1868H13.1745H13.1622H13.1499H13.1376H13.1253H13.113H13.1008H13.0885H13.0763H13.064H13.0518H13.0396H13.0274H13.0153H13.0031H12.9909H12.9788H12.9666H12.9545H12.9424H12.9302H12.9181H12.9061H12.894H12.8819H12.8698H12.8578H12.8457H12.8337H12.8217H12.8096H12.7976H12.7856H12.7736H12.7617H12.7497H12.7377H12.7258H12.7138H12.7019H12.69H12.678H12.6661H12.6542H12.6423H12.6304H12.6185H12.6067H12.5948H12.583H12.5711H12.5593H12.5474H12.5356H12.5238H12.512H12.5002H12.4884H12.4766H12.4648H12.453H12.4412H12.4295H12.4177H12.406H12.3942H12.3825H12.3708H12.359H12.3473H12.3356H12.3239H12.3122H12.3005H12.2888H12.2771H12.2655H12.2538H12.2421H12.2305H12.2188H12.2072H12.1955H12.1839H12.1722H12.1606H12.149H12.1374H12.1258H12.1141H12.1025H12.0909H12.0794H12.0678H12.0562H12.0446H12.033H12.0214H12.0099H11.9983H11.9868H11.9752H11.9636H11.9521H11.9405H11.929H11.9175H11.9059H11.8944H11.8829H11.8713H11.8598H11.8483H11.8368H11.8253H11.8138H11.8023H11.7907H11.7792H11.7677H11.7562H11.7448H11.7333H11.7218H11.7103H11.6988H11.6873H11.6758H11.6643H11.6529H11.6414H11.6299H11.6184H11.607H11.5955H11.584H11.5726H11.5611H11.5496H11.5382H11.5267H11.5152H11.5038H11.4923H11.4809H11.4694H11.4579H11.4465H11.435H11.4236H11.4121H11.4006H11.3892H11.3777H11.3663H11.3548H11.3434H11.3319H11.3204H11.309H11.2975H11.2861H11.2746H11.2631H11.2517H11.2402H11.2287H11.2173H11.2058H11.1943H11.1829H11.1714H11.1599H11.1485H11.137H11.1255H11.114H11.1025H11.0911H11.0796H11.0681H11.0566H11.0451H11.0336H11.0221H11.0106H10.9991H10.9876H10.9761H10.9646H10.9531H10.9416H10.9301H10.9186H10.907H10.8955H10.884H10.8724H10.8609H10.8494H10.8378H10.8263H10.8147H10.8032H10.7916H10.7801H10.7685H10.7569H10.7454H10.7338H10.7222H10.7106H10.699H10.6874H10.6758H10.6642H10.6526H10.641H10.6294H10.6178H10.6061H10.5945H10.5829H10.5712H10.5596H10.5479H10.5363H10.5246H10.5129H10.5013H10.4896H10.4779H10.4662H10.4545H10.4428H10.4311H10.4194H10.4076H10.3959H10.3842H10.3724H10.3607H10.3489H10.3372H10.3254H10.3136H10.3018H10.29H10.2782H10.2664H10.2546H10.2428H10.231H10.2191H10.2073H10.1955H10.1836H10.1717H10.1599H10.148H10.1361H10.1242H10.1123H10.1004H10.0885H10.0765H10.0646H10.0526H10.0407H10.0287H10.0168H10.0048H9.99278H9.98078H9.96877H9.95676H9.94473H9.9327H9.92065H9.9086H9.89653H9.88446H9.87238H9.86028H9.84818H9.83607H9.82395H9.81182H9.79967H9.78752H9.77536H9.76319H9.75101H9.73881H9.72661H9.71439H9.70217H9.68993H9.67769H9.66543H9.65316H9.64088H9.62859H9.61629H9.60397H9.59165H9.57931H9.56697H9.55461H9.54224H9.52985H9.51746H9.50505H9.49264H9.48021H9.46776H9.45531H9.44285H9.43037H9.41788H9.40537H9.39286H9.38033H9.36779H9.35523H9.34267H9.33009H9.31749H9.30489H9.29227H9.27964H9.26699H9.25433H9.24166H9.22898H9.21628H9.20356H9.19084H9.1781H9.16534H9.15258H9.13979H9.127H9.11419H9.10136H9.08852H9.07567H9.0628H9.04992H9.03702H9.02411H9.01119H8.99825H8.98529H8.97232H8.95933H8.94633H8.93331H8.92028H8.90724H8.89417H8.8811H8.868H8.85489H8.84177H8.82863H8.81547H8.8023H8.78911H8.7759H8.76268H8.74945H8.73619H8.72292H8.70964H8.69633H8.68301H8.66968H8.65633H8.64296H8.62957H8.61617H8.60274H8.58931H8.57585H8.56238H8.54889H8.53538H8.52186H8.50831H8.49475H8.48118H8.46758H8.45397H8.44034H8.42669H8.41302H8.39933H8.38563H8.37191H8.35816H8.34441H8.33063H8.31683H8.30302H8.28918H8.27533H8.26146H8.24757H8.23366H8.21973H8.20578H8.19181H8.17782H8.16382H8.14979H8.13575H8.12168H8.1076H8.09349H8.07937H8.06522H8.05106H8.03687H8.02267H8.00844H7.99419H7.97993H7.96564H7.95133H7.93701H7.92266H7.90829H7.8939H7.87949H7.86506H7.8506C7.48625 16.1952 7.19092 16.4905 7.19092 16.8548C7.19092 17.2191 7.48625 17.5145 7.8506 17.5145H8.16109H8.21109V17.5645V20.5806ZM12.07 5.9879C12.07 6.35221 12.3653 6.64758 12.7296 6.64758H13.528C13.8923 6.64758 14.1877 6.35221 14.1877 5.9879C14.1877 5.6236 13.8923 5.32823 13.528 5.32823H12.7296C12.3653 5.32823 12.07 5.6236 12.07 5.9879ZM7.85625 5.9879C7.85625 6.35221 8.15158 6.64758 8.51592 6.64758H9.31431C9.67866 6.64758 9.97399 6.35221 9.97399 5.9879C9.97399 5.6236 9.67866 5.32823 9.31431 5.32823H8.51592C8.15158 5.32823 7.85625 5.6236 7.85625 5.9879ZM12.07 8.64919C12.07 9.0135 12.3653 9.30887 12.7296 9.30887H13.528C13.8923 9.30887 14.1877 9.0135 14.1877 8.64919C14.1877 8.28489 13.8923 7.98952 13.528 7.98952H12.7296C12.3653 7.98952 12.07 8.28489 12.07 8.64919ZM7.85625 8.64919C7.85625 9.0135 8.15158 9.30887 8.51592 9.30887H9.31431C9.67866 9.30887 9.97399 9.0135 9.97399 8.64919C9.97399 8.28489 9.67866 7.98952 9.31431 7.98952H8.51592C8.15158 7.98952 7.85625 8.28489 7.85625 8.64919ZM12.07 11.3105C12.07 11.6748 12.3653 11.9702 12.7296 11.9702H13.528C13.8923 11.9702 14.1877 11.6748 14.1877 11.3105C14.1877 10.9462 13.8923 10.6508 13.528 10.6508H12.7296C12.3653 10.6508 12.07 10.9462 12.07 11.3105ZM7.85625 11.3105C7.85625 11.6748 8.15158 11.9702 8.51592 11.9702H9.31431C9.67866 11.9702 9.97399 11.6748 9.97399 11.3105C9.97399 10.9462 9.67866 10.6508 9.31431 10.6508H8.51592C8.15158 10.6508 7.85625 10.9462 7.85625 11.3105ZM12.07 13.9718C12.07 14.3361 12.3653 14.6315 12.7296 14.6315H13.528C13.8923 14.6315 14.1877 14.3361 14.1877 13.9718C14.1877 13.6075 13.8923 13.3121 13.528 13.3121H12.7296C12.3653 13.3121 12.07 13.6075 12.07 13.9718ZM7.85625 13.9718C7.85625 14.3361 8.15158 14.6315 8.51592 14.6315H9.31431C9.67866 14.6315 9.97399 14.3361 9.97399 13.9718C9.97399 13.6075 9.67866 13.3121 9.31431 13.3121H8.51592C8.15158 13.3121 7.85625 13.6075 7.85625 13.9718Z" fill="black" stroke="#F3F3F3" stroke-width="0.1"/>
</g>
<defs>
<clipPath id="clip0">
<rect width="22" height="22" transform="matrix(-1 0 0 1 22 0)" fill="white"/>
</clipPath>
</defs>
</svg>
