<svg width="56" height="62" viewBox="0 0 56 62" fill="none" xmlns="http://www.w3.org/2000/svg">
<mask id="path-1-inside-1" fill="white">
<path d="M55.8203 13.872C55.6897 11.829 54.3676 10.0239 52.4533 9.27345L29.9757 0.460939C28.7179 -0.0321541 27.332 -0.0326256 26.0737 0.460939L3.59665 9.27345C1.68185 10.0239 0.360229 11.829 0.229675 13.872C0.104797 15.8227 -0.328019 26.1051 3.42163 36.9682C5.29717 42.4022 7.92907 47.1375 11.244 51.0426C15.2325 55.7411 20.2423 59.2692 26.1343 61.5286C26.744 61.7625 27.3845 61.8794 28.025 61.8794C28.6654 61.8794 29.3059 61.7625 29.9156 61.5286C35.8076 59.2692 40.8174 55.7411 44.8059 51.0426C48.1209 47.1375 50.7523 42.4022 52.6283 36.9682C56.3779 26.1051 55.9451 15.8227 55.8203 13.872ZM50.9051 36.3776C49.1029 41.5975 46.5831 46.1371 43.4148 49.8698C39.6263 54.3326 34.8644 57.6852 29.2614 59.8339C28.4639 60.1394 27.5855 60.1394 26.7885 59.8339C21.1855 57.6852 16.4236 54.3326 12.6352 49.8698C9.46686 46.1371 6.9466 41.5979 5.14485 36.3776C1.50778 25.8416 1.92688 15.8779 2.04797 13.9875C2.13359 12.6445 3.00348 11.4575 4.26409 10.9635L26.7407 2.15047C27.1551 1.9883 27.5898 1.90722 28.025 1.90722C28.4597 1.90722 28.8949 1.9883 29.3087 2.15047L51.7858 10.9635C53.046 11.4575 53.9159 12.6445 54.002 13.9875C54.1226 15.8779 54.5417 25.8416 50.9051 36.3776Z"/>
</mask>
<path d="M55.8203 13.872C55.6897 11.829 54.3676 10.0239 52.4533 9.27345L29.9757 0.460939C28.7179 -0.0321541 27.332 -0.0326256 26.0737 0.460939L3.59665 9.27345C1.68185 10.0239 0.360229 11.829 0.229675 13.872C0.104797 15.8227 -0.328019 26.1051 3.42163 36.9682C5.29717 42.4022 7.92907 47.1375 11.244 51.0426C15.2325 55.7411 20.2423 59.2692 26.1343 61.5286C26.744 61.7625 27.3845 61.8794 28.025 61.8794C28.6654 61.8794 29.3059 61.7625 29.9156 61.5286C35.8076 59.2692 40.8174 55.7411 44.8059 51.0426C48.1209 47.1375 50.7523 42.4022 52.6283 36.9682C56.3779 26.1051 55.9451 15.8227 55.8203 13.872ZM50.9051 36.3776C49.1029 41.5975 46.5831 46.1371 43.4148 49.8698C39.6263 54.3326 34.8644 57.6852 29.2614 59.8339C28.4639 60.1394 27.5855 60.1394 26.7885 59.8339C21.1855 57.6852 16.4236 54.3326 12.6352 49.8698C9.46686 46.1371 6.9466 41.5979 5.14485 36.3776C1.50778 25.8416 1.92688 15.8779 2.04797 13.9875C2.13359 12.6445 3.00348 11.4575 4.26409 10.9635L26.7407 2.15047C27.1551 1.9883 27.5898 1.90722 28.025 1.90722C28.4597 1.90722 28.8949 1.9883 29.3087 2.15047L51.7858 10.9635C53.046 11.4575 53.9159 12.6445 54.002 13.9875C54.1226 15.8779 54.5417 25.8416 50.9051 36.3776Z" fill="black" stroke="#FBFBFB" stroke-width="0.8" mask="url(#path-1-inside-1)"/>
<mask id="path-2-inside-2" fill="white">
<path d="M47.2189 13.6604L29.6248 6.7627C28.5932 6.35823 27.4574 6.35823 26.4263 6.7627L8.83219 13.6604C7.26222 14.276 6.17853 15.7562 6.07163 17.4312C5.99452 18.6356 5.87438 21.9029 6.41788 26.2144C6.48079 26.7122 6.93726 27.0649 7.43582 27.0022C7.93486 26.9395 8.28868 26.4855 8.22577 25.9877C7.70166 21.8299 7.81661 18.6992 7.88992 17.5466C7.95236 16.5713 8.58432 15.7091 9.49962 15.3504L27.0932 8.45223C27.6944 8.21653 28.3567 8.21653 28.9579 8.45223L46.5515 15.3504C47.4668 15.7091 48.0987 16.5713 48.1612 17.5466C48.2856 19.4903 49.0637 36.848 38.248 47.5542C37.8909 47.9072 37.889 48.4824 38.2438 48.8383C38.4216 49.0169 38.6563 49.106 38.8904 49.106C39.1222 49.106 39.3544 49.0184 39.5323 48.8425C50.9184 37.5716 50.1091 19.4592 49.9795 17.4312C49.8721 15.7562 48.7889 14.276 47.2189 13.6604Z"/>
</mask>
<path d="M47.2189 13.6604L29.6248 6.7627C28.5932 6.35823 27.4574 6.35823 26.4263 6.7627L8.83219 13.6604C7.26222 14.276 6.17853 15.7562 6.07163 17.4312C5.99452 18.6356 5.87438 21.9029 6.41788 26.2144C6.48079 26.7122 6.93726 27.0649 7.43582 27.0022C7.93486 26.9395 8.28868 26.4855 8.22577 25.9877C7.70166 21.8299 7.81661 18.6992 7.88992 17.5466C7.95236 16.5713 8.58432 15.7091 9.49962 15.3504L27.0932 8.45223C27.6944 8.21653 28.3567 8.21653 28.9579 8.45223L46.5515 15.3504C47.4668 15.7091 48.0987 16.5713 48.1612 17.5466C48.2856 19.4903 49.0637 36.848 38.248 47.5542C37.8909 47.9072 37.889 48.4824 38.2438 48.8383C38.4216 49.0169 38.6563 49.106 38.8904 49.106C39.1222 49.106 39.3544 49.0184 39.5323 48.8425C50.9184 37.5716 50.1091 19.4592 49.9795 17.4312C49.8721 15.7562 48.7889 14.276 47.2189 13.6604Z" fill="black" stroke="#FBFBFB" stroke-width="0.8" mask="url(#path-2-inside-2)"/>
<mask id="path-3-inside-3" fill="white">
<path d="M35.12 50.204C33.2492 51.5508 31.1645 52.6695 28.9253 53.5284C28.3468 53.7499 27.7101 53.7499 27.1316 53.5284C15.2355 48.9661 10.6637 38.2736 8.9235 30.1064C8.81943 29.6157 8.33411 29.3027 7.84311 29.4068C7.35117 29.511 7.03661 29.9928 7.14115 30.4835C8.97506 39.0901 13.8188 50.3685 26.4774 55.2231C26.9774 55.4149 27.5029 55.5106 28.0284 55.5106C28.5539 55.5106 29.0795 55.4149 29.5794 55.2231C31.9658 54.3081 34.1886 53.1145 36.1871 51.6757C36.5948 51.3825 36.6866 50.8149 36.3924 50.4081C36.0972 50.0018 35.5277 49.9103 35.12 50.204Z"/>
</mask>
<path d="M35.12 50.204C33.2492 51.5508 31.1645 52.6695 28.9253 53.5284C28.3468 53.7499 27.7101 53.7499 27.1316 53.5284C15.2355 48.9661 10.6637 38.2736 8.9235 30.1064C8.81943 29.6157 8.33411 29.3027 7.84311 29.4068C7.35117 29.511 7.03661 29.9928 7.14115 30.4835C8.97506 39.0901 13.8188 50.3685 26.4774 55.2231C26.9774 55.4149 27.5029 55.5106 28.0284 55.5106C28.5539 55.5106 29.0795 55.4149 29.5794 55.2231C31.9658 54.3081 34.1886 53.1145 36.1871 51.6757C36.5948 51.3825 36.6866 50.8149 36.3924 50.4081C36.0972 50.0018 35.5277 49.9103 35.12 50.204Z" fill="black" stroke="#FBFBFB" stroke-width="0.8" mask="url(#path-3-inside-3)"/>
<mask id="path-4-inside-4" fill="white">
<path d="M28.0258 17.4821C20.5549 17.4821 14.4766 23.5392 14.4766 30.9846C14.4766 38.4305 20.5549 44.4876 28.0258 44.4876C35.4967 44.4876 41.5746 38.4305 41.5746 30.9851C41.5746 23.5397 35.4967 17.4821 28.0258 17.4821ZM28.0258 42.6718C21.5596 42.6718 16.2986 37.4292 16.2986 30.9851C16.2986 24.5409 21.5596 19.2979 28.0258 19.2979C34.492 19.2979 39.7525 24.5409 39.7525 30.9851C39.7525 37.4292 34.492 42.6718 28.0258 42.6718Z"/>
</mask>
<path d="M28.0258 17.4821C20.5549 17.4821 14.4766 23.5392 14.4766 30.9846C14.4766 38.4305 20.5549 44.4876 28.0258 44.4876C35.4967 44.4876 41.5746 38.4305 41.5746 30.9851C41.5746 23.5397 35.4967 17.4821 28.0258 17.4821ZM28.0258 42.6718C21.5596 42.6718 16.2986 37.4292 16.2986 30.9851C16.2986 24.5409 21.5596 19.2979 28.0258 19.2979C34.492 19.2979 39.7525 24.5409 39.7525 30.9851C39.7525 37.4292 34.492 42.6718 28.0258 42.6718Z" fill="black" stroke="#FBFBFB" stroke-width="0.8" mask="url(#path-4-inside-4)"/>
<mask id="path-5-inside-5" fill="white">
<path d="M36.6726 27.4679C36.6428 26.5684 36.2346 25.7147 35.552 25.125L35.3306 24.9341C34.0194 23.8017 32.0521 23.8927 30.852 25.1415L26.0263 30.1634L24.8106 29.073C23.4809 27.8808 21.4228 27.9864 20.2227 29.3087C19.6272 29.9654 19.3311 30.8135 19.3902 31.6969C19.4489 32.5803 19.8543 33.3822 20.5321 33.9545L24.2061 37.0587C24.8201 37.5772 25.5665 37.8337 26.3105 37.8337C27.1369 37.8337 27.9609 37.5169 28.5962 36.8909L35.709 29.8787C36.3509 29.2456 36.7019 28.3669 36.6726 27.4679ZM34.4276 28.5875L27.3148 35.5997C26.784 36.1229 25.9539 36.1545 25.3844 35.6737L21.7104 32.5695C21.4124 32.3177 21.2341 31.9651 21.2081 31.5767C21.182 31.1882 21.3121 30.8153 21.5742 30.5264C21.8561 30.2162 22.2449 30.0583 22.6356 30.0583C22.9767 30.0583 23.3192 30.1785 23.5916 30.4231L24.9265 31.6205C25.5958 32.2206 26.6081 32.1834 27.2311 31.5352L32.168 26.3978C32.6954 25.8486 33.5606 25.8085 34.1372 26.3063L34.3586 26.4977C34.6632 26.7603 34.8377 27.1261 34.851 27.5277C34.8647 27.9289 34.7143 28.3051 34.4276 28.5875Z"/>
</mask>
<path d="M36.6726 27.4679C36.6428 26.5684 36.2346 25.7147 35.552 25.125L35.3306 24.9341C34.0194 23.8017 32.0521 23.8927 30.852 25.1415L26.0263 30.1634L24.8106 29.073C23.4809 27.8808 21.4228 27.9864 20.2227 29.3087C19.6272 29.9654 19.3311 30.8135 19.3902 31.6969C19.4489 32.5803 19.8543 33.3822 20.5321 33.9545L24.2061 37.0587C24.8201 37.5772 25.5665 37.8337 26.3105 37.8337C27.1369 37.8337 27.9609 37.5169 28.5962 36.8909L35.709 29.8787C36.3509 29.2456 36.7019 28.3669 36.6726 27.4679ZM34.4276 28.5875L27.3148 35.5997C26.784 36.1229 25.9539 36.1545 25.3844 35.6737L21.7104 32.5695C21.4124 32.3177 21.2341 31.9651 21.2081 31.5767C21.182 31.1882 21.3121 30.8153 21.5742 30.5264C21.8561 30.2162 22.2449 30.0583 22.6356 30.0583C22.9767 30.0583 23.3192 30.1785 23.5916 30.4231L24.9265 31.6205C25.5958 32.2206 26.6081 32.1834 27.2311 31.5352L32.168 26.3978C32.6954 25.8486 33.5606 25.8085 34.1372 26.3063L34.3586 26.4977C34.6632 26.7603 34.8377 27.1261 34.851 27.5277C34.8647 27.9289 34.7143 28.3051 34.4276 28.5875Z" fill="black" stroke="#FBFBFB" stroke-width="0.8" mask="url(#path-5-inside-5)"/>
</svg>
