<svg xmlns="http://www.w3.org/2000/svg" viewBox="0 0 81.83 64.94"><defs><style>.cls-1{fill:#F76600;}.cls-2{fill:none;stroke:#F76600;stroke-miterlimit:10;stroke-width:0.92px;}</style></defs><g id="Слой_2" data-name="Слой 2"><g id="Слой_1-2" data-name="Слой 1"><path class="cls-1" d="M48.77,46.62,55.63,43l6.9-3.59c4.62-2.36,9.22-4.74,13.86-7l-.15.42-.68-1.35c-.12-.26-.24-.42-.33-.44a1.47,1.47,0,0,0-.61.07c-1,.26-2,.55-3,.84l-6,1.78c-1,.31-2,.62-3,1l-2.94,1.07-5.9,2.08,5.8-2.36c1.93-.79,3.87-1.56,5.86-2.21s4-1.31,6-1.89c1-.3,2-.6,3-.87a1.85,1.85,0,0,1,.94-.07,1,1,0,0,1,.46.33,1.84,1.84,0,0,1,.22.36l.74,1.43.14.28-.29.15c-4.61,2.36-9.27,4.65-13.9,7l-7,3.41Z"/><path class="cls-1" d="M53.21,61.15c2-.41,4-.73,6-1.09l6-1c2-.28,4-.74,6-1.1l3-.55,1.51-.27.75-.14.16,0a.38.38,0,0,0-.19.11.51.51,0,0,0-.16.26c0,.25,0,.06-.06,0a9.53,9.53,0,0,1-.88-3.11c0-.57,0-1.08,0-1.58l0-1.54c0-2,.07-4.08.16-6.13l.22-6.13c.12-2,.2-4.09.36-6.13.13,2.05.18,4.09.27,6.13L76.61,45c0,2,0,4.08.06,6.13v1.53c0,.51,0,1,0,1.48a8.31,8.31,0,0,0,.83,2.75,1.26,1.26,0,0,1,.11.72.76.76,0,0,1-.24.43.79.79,0,0,1-.36.19l-.22,0-.76.13-1.51.26-3,.51-3,.48L67,59.92l-1.53.15-6.12.61C57.29,60.83,55.25,61,53.21,61.15Z"/><path class="cls-1" d="M71.28,33.7c-1.74,1-3.53,1.93-5.31,2.85s-3.6,1.76-5.41,2.62L49.69,44.36l0,0,10.72-5.47c1.79-.91,3.57-1.85,5.38-2.71s3.63-1.71,5.49-2.48Z"/><path class="cls-1" d="M39.55,62.37q-3.39.56-6.8.86c-2.28.23-4.56.31-6.84.37s-4.57,0-6.85-.11a62,62,0,0,1-6.81-1c1.15-.06,2.29,0,3.43-.06s2.27.05,3.39,0l6.82-.16,6.81-.09C35,62.2,37.26,62.25,39.55,62.37Z"/><path class="cls-1" d="M37.72,50.34a27.6,27.6,0,0,1-5.51,3,54.32,54.32,0,0,1-6,1.84,49.16,49.16,0,0,1-12.37,1.49c2-.49,4.05-.89,6.06-1.33s4-.89,6-1.4,4-1,6-1.54S35.75,51,37.72,50.34Z"/><path class="cls-1" d="M33.81,39a4.6,4.6,0,0,0-2-1.44A9.57,9.57,0,0,0,29.48,37a21.9,21.9,0,0,0-4.92,0,43.2,43.2,0,0,0-4.94.71,25.36,25.36,0,0,0-4.83,1.41,12.83,12.83,0,0,1,4.57-2.39,23.2,23.2,0,0,1,5.08-1,16.2,16.2,0,0,1,5.23.28,8.24,8.24,0,0,1,2.45,1A4,4,0,0,1,33.81,39Z"/><path class="cls-1" d="M20.8,38.23c-1.56.39-3.14.69-4.66,1.15a13.14,13.14,0,0,0-2.23.8,4.75,4.75,0,0,0-1,.6,1.77,1.77,0,0,0-.67.94,1.76,1.76,0,0,1,.51-1.1,4.91,4.91,0,0,1,1-.76A11.05,11.05,0,0,1,16,38.94,20,20,0,0,1,20.8,38.23Z"/><path class="cls-1" d="M12.25,43.61c2.21-.13,4.43-.17,6.64-.19s4.42,0,6.63,0c1.09,0,2.23.09,3.29.09a1.52,1.52,0,0,0,.61-.14c.11-.06.15-.15.15-.41,0-.55,0-1.1.05-1.66v-.2a1.57,1.57,0,0,1,.05-.3,1.05,1.05,0,0,1,.35-.48,1,1,0,0,1,.54-.19H31l1.66.07a13,13,0,0,0,1.64,0,.61.61,0,0,0,.33-.1c.07,0,.06-.18.07-.33l.07-.83.07.83,0,.21a.38.38,0,0,1-.09.25.81.81,0,0,1-.43.2,13.92,13.92,0,0,1-1.68.14L31,40.7l-.39,0a.37.37,0,0,0-.22.1.39.39,0,0,0-.12.19s0,.07,0,.12v.2c0,.56,0,1.11,0,1.66a1.15,1.15,0,0,1-.47,1,2.15,2.15,0,0,1-1,.28c-1.16,0-2.23,0-3.35,0-2.21-.08-4.42-.12-6.63-.23S14.46,43.83,12.25,43.61Z"/><path class="cls-1" d="M32.91,38c0-.24,0-.48-.07-.71a.77.77,0,0,1,.25-.73,1.11,1.11,0,0,1,.76-.19l.71,0h1.09a.91.91,0,0,1,.44.16.92.92,0,0,1,.35.81v.93h-.65L36,38l0,1-.19-.19.44,0h.18V39l0,.92v.13h-.12c-.5,0-1-.07-1.51-.12.5-.06,1-.1,1.51-.13l-.13.13L36,39l.17.17-.44,0h-.19v-1.4h.66L36,38v-.71c0-.25,0-.35-.15-.46a.43.43,0,0,0-.22-.09h-1l-.71,0c-.25,0-.45-.05-.61.07C32.87,37,33,37.57,32.91,38Z"/><path class="cls-1" d="M36.44,40.06a1.21,1.21,0,0,1,.73.72,4.31,4.31,0,0,1,.16,1c.06.67.1,1.34.13,2s.06,1.33.08,2a5.73,5.73,0,0,1-.06,1.08,2.06,2.06,0,0,1-.54,1.15,1.88,1.88,0,0,1-1.19.46c-.41,0-.69,0-1,0-.67,0-1.34,0-2-.08l-1,0a2.24,2.24,0,0,1-1.08-.31,1.89,1.89,0,0,1-.8-1.87,1.79,1.79,0,0,0,1,1.48,1.94,1.94,0,0,0,.87.1l1-.06c.67,0,1.34,0,2-.08s1.36,0,1.6-.25.35-.94.37-1.57,0-1.34.07-2,.08-1.34.14-2a4.54,4.54,0,0,0,0-1A1.18,1.18,0,0,0,36.44,40.06Z"/><path class="cls-1" d="M30.45,47.7q.18,1.24.3,2.49a5.75,5.75,0,0,1,.08,1.24,3.33,3.33,0,0,1-.38,1.25h-.09A3.53,3.53,0,0,1,30,51.43a5.18,5.18,0,0,1,.09-1.24c.07-.83.17-1.66.29-2.49Z"/><path class="cls-1" d="M48.13,48.76c-1.29,1.29-2.62,2.51-4,3.74l0,0-.06,0c-.85.31-1.71.59-2.57.88s-1.71.59-2.57.85l-.52.16.11-.52a7.09,7.09,0,0,1,2.59-4.16,6.67,6.67,0,0,1,4.6-1.41,7.33,7.33,0,0,0-4.3,1.77A7,7,0,0,0,39.15,54l-.41-.35c.86-.3,1.73-.55,2.59-.82s1.73-.55,2.6-.8l-.09,0C45.25,51,46.66,49.84,48.13,48.76Z"/><path class="cls-1" d="M38.81,56.57c1.75.46,3.48,1,5.21,1.55l0,0,0,0c.7.58,1.36,1.19,2,1.78s1.37,1.2,2,1.81l.41.36-.52.17a7.15,7.15,0,0,1-5.13-.25,6.85,6.85,0,0,1-3.51-3.6,7.4,7.4,0,0,0,3.7,3.16,7,7,0,0,0,4.74.09l-.11.53c-.67-.6-1.33-1.22-2-1.83s-1.34-1.22-2-1.85l.08.05C42.16,58,40.47,57.29,38.81,56.57Z"/><path class="cls-1" d="M50.22,60.73c-.47-1.75-.87-3.52-1.26-5.29v-.1l.53-2.66c.19-.89.35-1.78.56-2.66l.12-.51.39.35a7,7,0,0,1,2.26,4,6.65,6.65,0,0,1-.77,4.47A7.49,7.49,0,0,0,52.37,54a7.06,7.06,0,0,0-2.22-3.67l.5-.17c-.17.89-.38,1.77-.57,2.65l-.61,2.65v-.1C49.75,57.14,50,58.93,50.22,60.73Z"/><circle class="cls-2" cx="6.92" cy="58.02" r="6.46" transform="translate(-23.03 7.85) rotate(-24.03)"/><path class="cls-1" d="M1.85,57.1C3,57.84,4,58.64,5.09,59.44l0,0,0,.06c.33.57.64,1.16,1,1.74s.65,1.16.94,1.76l.24.48-.52,0a5.25,5.25,0,0,1-3.38-1.4,4.84,4.84,0,0,1-1.54-3.19A5.53,5.53,0,0,0,3.7,61.73a5.08,5.08,0,0,0,3.08,1.12l-.28.46c-.33-.58-.61-1.18-.91-1.77S5,60.36,4.7,59.75l.06.08C3.77,58.94,2.79,58.05,1.85,57.1Z"/><path class="cls-1" d="M8.65,62.86c.08-1.33.25-2.65.41-4v0l0-.06c.33-.57.69-1.13,1-1.7s.68-1.14,1-1.69l.3-.45.24.47A5.21,5.21,0,0,1,12.2,59a4.91,4.91,0,0,1-2,2.94,5.54,5.54,0,0,0,1.53-3,5.09,5.09,0,0,0-.57-3.23l.54,0c-.34.57-.72,1.11-1.08,1.67s-.72,1.12-1.1,1.66l0-.09C9.29,60.28,9,61.58,8.65,62.86Z"/><path class="cls-1" d="M10.25,54.1c-1.2.58-2.41,1.13-3.64,1.63l0,0H6.5c-1.32,0-2.65,0-4-.11l-.53,0,.28-.45A5.11,5.11,0,0,1,5,53a4.85,4.85,0,0,1,3.4.1,5.54,5.54,0,0,0-3.23.34A5.19,5.19,0,0,0,2.8,55.49L2.55,55c1.33,0,2.65.12,4,.22h-.1C7.68,54.82,9,54.44,10.25,54.1Z"/><path class="cls-1" d="M12.41,44.24a1.36,1.36,0,0,0-1.12.83,3.75,3.75,0,0,0,0,1.46c.05,1,.1,2,.13,3.08l0,.76v.39a1.16,1.16,0,0,0,.05.28.92.92,0,0,0,.75.67c.14,0,.43,0,.68,0h2.31l3.07,0,1.53,0h.38a1.26,1.26,0,0,0,.27,0,1,1,0,0,0,.73-.79c0-.16,0-.49,0-.72l.08-1.54c.07-1,.12-2,.22-3.07.1,1,.15,2,.22,3.07l.08,1.54a5.32,5.32,0,0,1,0,.81,1.71,1.71,0,0,1-.36.88,1.77,1.77,0,0,1-.79.55,1.57,1.57,0,0,1-.48.09h-.4l-1.53,0-3.07,0H12.91a5.35,5.35,0,0,1-.85,0,1.8,1.8,0,0,1-1.36-1.32,2.06,2.06,0,0,1,0-.48v-.39l0-.76c0-1,.08-2,.13-3.08l0-.76a1.76,1.76,0,0,1,.2-.8A1.41,1.41,0,0,1,12.41,44.24Z"/><path class="cls-1" d="M66,32.93a2,2,0,0,0-1.63-.31c-.56.09-1.13.24-1.69.38a34.55,34.55,0,0,0-3.34,1,19.28,19.28,0,0,0-3.16,1.32,3.46,3.46,0,0,0-1.18,1,1.63,1.63,0,0,0-.26.63,1.33,1.33,0,0,0,0,.29.86.86,0,0,1,0,.32,1,1,0,0,1-.12.22l-.15.18c-.13.18-.14.2-.08.47s.07.25.11.38l.06.2a1.36,1.36,0,0,1,.08.32,1,1,0,0,1-.17.66,1,1,0,0,1-.23.26.71.71,0,0,1-.14.1l-.09.05-.76.44c-1,.58-2,1.17-3.06,1.72-2,1.13-4.1,2.24-6.2,3.28,1.93-1.33,3.9-2.58,5.88-3.82,1-.64,2-1.24,3-1.84l.75-.45.1-.06,0,0a.13.13,0,0,0,.06-.07.25.25,0,0,0,0-.17,1,1,0,0,0,0-.11l-.08-.22c0-.14-.1-.29-.14-.45a1.41,1.41,0,0,1,0-.6,1.24,1.24,0,0,1,.26-.58l.13-.16s0,0,0,0,0,.24,0,.11a1.62,1.62,0,0,1,0-.58,2.33,2.33,0,0,1,.41-1,4.4,4.4,0,0,1,1.47-1.23,17,17,0,0,1,3.34-1.28,35,35,0,0,1,3.46-.75c.58-.08,1.17-.16,1.76-.19A2,2,0,0,1,66,32.93Z"/><path class="cls-1" d="M68,32.1a5.74,5.74,0,0,0-3.25-.47,26.08,26.08,0,0,0-3.33.34,22.26,22.26,0,0,0-6.28,2,10.51,10.51,0,0,0-2.58,1.92c-.78.77-1.47,1.68-2.35,2.46a8.15,8.15,0,0,1-1.45,1l-1.47.84-2.95,1.68L47.19,40l1.43-.91A8.67,8.67,0,0,0,49.84,38c.74-.8,1.31-1.79,2.09-2.66a9.5,9.5,0,0,1,2.75-2.21,18.37,18.37,0,0,1,6.64-1.92,26.36,26.36,0,0,1,3.44-.05,9.92,9.92,0,0,1,1.71.24A3.31,3.31,0,0,1,68,32.1Z"/><path class="cls-1" d="M43.48,46.55a10.8,10.8,0,0,1,.61-2.06,7.2,7.2,0,0,1,.46-1c.14-.28.14-.5,0-.58l-.79-.68-.4-.35c-.14-.13-.14-.11-.23-.13a.3.3,0,0,0-.18.06l-.34.33-.77.73c-1,1-2.07,1.91-3.15,2.82l-.4.35a.35.35,0,0,0-.15.24.38.38,0,0,0,.07.32l.27.47a6.52,6.52,0,0,1,.67,2,8.28,8.28,0,0,0-1.06-1.8l-.31-.41a1,1,0,0,1,.05-1.35l.37-.38c1-1,2-2,3-3l.78-.71c.15-.14.22-.21.43-.39a1.14,1.14,0,0,1,.82-.2,1.38,1.38,0,0,1,.4.15,1.25,1.25,0,0,1,.28.23l.37.37.75.78a.9.9,0,0,1,.23.76,1.26,1.26,0,0,1-.26.61c-.2.27-.38.57-.56.87A16.52,16.52,0,0,0,43.48,46.55Z"/><path class="cls-1" d="M34.76,39c-4.07.11-8.16.23-12.21.56-2,.19-4.06.44-6.06.74a17.15,17.15,0,0,0-2.94.66,2.05,2.05,0,0,0-1.15.79,2.64,2.64,0,0,0-.08.72l-.05.76h0l-.05-.76a2.41,2.41,0,0,1,0-.8,2.2,2.2,0,0,1,1.23-1,13.65,13.65,0,0,1,3-.81c2-.34,4.06-.46,6.1-.62C26.6,39,30.68,39,34.76,39Z"/><path class="cls-1" d="M15.67,52.89c.12.56.22,1.12.3,1.67a2.67,2.67,0,0,1,.08.84,1.85,1.85,0,0,1-.38.84h-.09a1.85,1.85,0,0,1-.38-.84,2.41,2.41,0,0,1,.09-.84c.07-.55.17-1.11.29-1.67Z"/><path class="cls-1" d="M27.87,44.68c.13,1.43.23,2.87.3,4.3a15.61,15.61,0,0,1,.09,2.16,9.11,9.11,0,0,1-.39,2.15h-.08a8.61,8.61,0,0,1-.38-2.15A14.19,14.19,0,0,1,27.49,49c.08-1.43.18-2.87.3-4.3Z"/><path class="cls-1" d="M44,40.49,65.79,21.32c3.62-3.21,7.24-6.42,10.82-9.67a31.22,31.22,0,0,0,2.53-2.47,3.77,3.77,0,0,0,1.2-2.68,2.16,2.16,0,0,0-.63-1.17L78.46,4.05,75.91,1.43a.85.85,0,0,1,0-1.19.83.83,0,0,1,1.19,0h0l0,0L79.59,3l1.25,1.36a3.66,3.66,0,0,1,1,2,3.68,3.68,0,0,1-.48,2.16,7.36,7.36,0,0,1-1.16,1.61,33.26,33.26,0,0,1-2.72,2.51c-3.68,3.16-7.4,6.25-11.11,9.36Z"/><circle class="cls-2" cx="45.72" cy="55.35" r="8.8" transform="translate(-21.99 31.49) rotate(-31.03)"/></g></g></svg>