<svg xmlns="http://www.w3.org/2000/svg" viewBox="0 0 57.14 48.9"><defs><style>.cls-1,.cls-3,.cls-5,.cls-7{fill:none;}.cls-2{fill:#F76600;}.cls-3,.cls-5,.cls-6,.cls-7{stroke:#F76600;stroke-miterlimit:10;}.cls-3{stroke-width:0.3px;}.cls-4{fill:#F76600;}.cls-5{stroke-width:0.59px;}.cls-6{fill:#fff;stroke-width:0.36px;}.cls-7{stroke-width:0.38px;}</style></defs><g id="Слой_2" data-name="Слой 2"><g id="Слой_1-2" data-name="Слой 1"><path class="cls-1" d="M2.76,10.42S4.39,5.65,5.11,3.78,7,1.62,9.15,1.44s4.65-.33,4.65-.33"/><path class="cls-1" d="M54.58,10.69A60.8,60.8,0,0,0,52.51,5c-.84-1.73-.95-2.73-3.6-3.24a14.85,14.85,0,0,0-4-.36"/><path class="cls-2" d="M31.44,42.14l-17,.17-4.24,0A30.75,30.75,0,0,1,6,42.24a6.39,6.39,0,0,1-3.85-2A7.16,7.16,0,0,1,.53,36.12l-.28-17L0,2.17a.88.88,0,0,1,.87-.9.88.88,0,0,1,.9.87v0l-.48,33.9A6.46,6.46,0,0,0,2.6,39.8a5.87,5.87,0,0,0,3.45,1.94,27.57,27.57,0,0,0,4.19.19l4.24,0Z"/><path class="cls-2" d="M57.14,2.17l-.45,20.92-.22,10.46a26.38,26.38,0,0,1-.39,5.24A4.14,4.14,0,0,1,54.71,41a5.14,5.14,0,0,1-2.42.95,5.14,5.14,0,0,0,2.35-1,4,4,0,0,0,1.23-2.2A24.27,24.27,0,0,0,56,33.55l-.22-10.46L55.36,2.17a.89.89,0,0,1,1.78,0Z"/><path class="cls-2" d="M2.47,24.58c4.34-.34,8.69-.42,13-.53s8.68.06,13,.12q13,.15,26.06.41a.06.06,0,0,1,.06.06.06.06,0,0,1-.06.06q-13,.26-26.06.42c-4.34.06-8.68.19-13,.11s-8.69-.19-13-.53a.05.05,0,0,1-.05-.06A.06.06,0,0,1,2.47,24.58Z"/><path class="cls-2" d="M2.47,12.92q13-.26,26.05-.42c4.35-.06,8.69-.19,13-.11s8.69.19,13,.53a.05.05,0,0,1,.05.06.06.06,0,0,1-.05.06c-4.34.33-8.69.42-13,.53s-8.68-.06-13-.12q-13-.16-26-.41A.06.06,0,0,1,2.41,13,.06.06,0,0,1,2.47,12.92Z"/><path class="cls-2" d="M2.47,11.07c4.34-.22,8.69-.27,13-.34s8.68,0,13,.07l26.06.27s0,0,0,0a0,0,0,0,1,0,0l-26.06.27c-4.34,0-8.68.12-13,.07s-8.69-.12-13-.34c0,0,0,0,0,0A0,0,0,0,1,2.47,11.07Z"/><path class="cls-2" d="M2.9,10.18c.36-1.25.71-2.5,1.09-3.74l.56-1.87a8.42,8.42,0,0,1,.72-1.88A3,3,0,0,1,7,1.41,10,10,0,0,1,9,1c1.3-.16,2.6-.26,3.9-.36C18.07.27,23.26.07,28.46,0S38.87.32,44.05.73c1.3.12,2.59.23,3.89.38a8.38,8.38,0,0,1,2,.39,4.3,4.3,0,0,1,1.77,1.2,4.66,4.66,0,0,1,1,1.84l.55,1.87c.36,1.25.69,2.51,1,3.77L52.82,6.55C52.31,5.37,52,4,51.14,3.24a3.31,3.31,0,0,0-1.48-.86,9.23,9.23,0,0,0-1.82-.23C46.56,2.06,45.26,2,44,2l-7.76-.3c-2.58-.1-5.17-.17-7.74-.15-5.17,0-10.35.16-15.53.28-1.29,0-2.58.08-3.86.15s-2.6.22-3.24,1.13A7.77,7.77,0,0,0,5,4.75l-.7,1.81C3.88,7.77,3.39,9,2.9,10.18Z"/><path class="cls-3" d="M9.6,16.82a1.73,1.73,0,1,1-1.73-1.73A1.73,1.73,0,0,1,9.6,16.82Z"/><path class="cls-2" d="M32.1,14.85c1.88,0,3.83-.11,5.79-.13H38v.13l0,3.94v.15h-.15c-1.93,0-3.86,0-5.79-.05H32v-.1Zm0,0,.1,3.94-.1-.1c1.93,0,3.86,0,5.79-.05l-.15.15,0-3.94.13.13Z"/><path class="cls-2" d="M11.28,14.85c1.88,0,3.82-.11,5.78-.13h.13v.13l0,3.94v.15h-.15c-1.92,0-3.85,0-5.78-.05h-.1v-.1Zm0,0,.1,3.94-.1-.1c1.93,0,3.86,0,5.78-.05l-.14.15,0-3.94.12.13Z"/><path class="cls-2" d="M39.11,14.85c1.28,0,2.6-.1,3.94-.11h.12v.12l0,3.94v.15h-.15l-3.94,0H39v-.11C39,17.45,39.07,16.12,39.11,14.85Zm0,0,.12,3.94-.12-.11,3.94,0-.14.15,0-3.94.11.11Z"/><path class="cls-2" d="M44.07,14.85l5.34-.1h.1v.11l.05,6.9v.15h-.15l-5.34,0h-.13v-.12Zm0,0,.12,6.9-.12-.13,5.34,0-.15.15.05-6.9.1.1Z"/><path class="cls-2" d="M51.75,14.85a14.12,14.12,0,0,1,.12,2.83v.13h-.11a10,10,0,0,1-1.1-.13c.36-.06.73-.09,1.1-.12l-.13.12A13.43,13.43,0,0,1,51.75,14.85Z"/><path class="cls-3" d="M36.26,21A1.27,1.27,0,1,1,35,19.72,1.27,1.27,0,0,1,36.26,21Z"/><path class="cls-2" d="M15.84,9c-.56-1.78-1.13-3.52-1.55-5.38a3.16,3.16,0,0,1,.08-1.52A1.86,1.86,0,0,1,15.54,1a3.52,3.52,0,0,1,.77-.16L17,.75,18.39.64C22.1.36,25.8.19,29.54.16S37,.28,40.69.52l1.4.12a3.22,3.22,0,0,1,1.52.41,1.85,1.85,0,0,1,.78,1.49A4.3,4.3,0,0,1,44.18,4c-.63,1.77-1.26,3.5-2,5.23.41-1.8.89-3.62,1.34-5.4.21-.82.19-1.82-.4-2.12A2.83,2.83,0,0,0,42,1.54l-1.38,0c-3.69-.1-7.41-.15-11.1-.16s-7.4.14-11.11.16L17,1.52a5.16,5.16,0,0,0-1.29.1c-.79.17-1,1-.95,1.93C15,5.33,15.51,7.17,15.84,9Z"/><path class="cls-2" d="M30.79,38.45q-7.27.22-14.55.37l-3.63.1c-.61,0-1.22,0-1.82,0a4.89,4.89,0,0,1-2-.39,4.68,4.68,0,0,1-2.56-2.93,4.85,4.85,0,0,1-.13-1.92c.06-.6.12-1.21.21-1.82a0,0,0,0,1,.06,0,0,0,0,0,1,0,0c.09.61.15,1.22.21,1.82A4.68,4.68,0,0,0,7,35.37a3.88,3.88,0,0,0,2.25,2.22,4,4,0,0,0,1.58.26c.6,0,1.21,0,1.82,0l3.63.1q7.28.15,14.55.37a.06.06,0,0,1,.05.06A.05.05,0,0,1,30.79,38.45Z"/><path class="cls-2" d="M6.09,36.11a3.06,3.06,0,0,1-2.57-1.75,3.9,3.9,0,0,1-.27-1.51c0-.49,0-1,0-1.47,0-1.94.13-3.87.27-5.8,0,1.93,0,3.87.1,5.8,0,.48.06,1,.1,1.44A3.41,3.41,0,0,0,4,34.12a2.43,2.43,0,0,0,2.08,1.24h0a.37.37,0,0,1,.36.39.37.37,0,0,1-.39.36Z"/><path class="cls-2" d="M10.9,38.4l.38-12,.38,12a.38.38,0,0,1-.37.38.37.37,0,0,1-.39-.36Z"/><path class="cls-2" d="M15.13,43.27a18.57,18.57,0,0,1-.69,1.8l-.06.13H14.2a61.77,61.77,0,0,1-7.2,0H6.82l-.05-.13a16.35,16.35,0,0,1-.7-1.8,17.34,17.34,0,0,1,1.17,1.54L7,44.67a61.77,61.77,0,0,1,7.2,0l-.23.14A17.22,17.22,0,0,1,15.13,43.27Z"/><path class="cls-4" d="M8,45.64h5.27a0,0,0,0,1,0,0v.8a2.16,2.16,0,0,1-2.16,2.16h-.95A2.16,2.16,0,0,1,8,46.44v-.8A0,0,0,0,1,8,45.64Z"/><path class="cls-2" d="M41.85,27.86a10.07,10.07,0,1,1-7.13,2.95,10,10,0,0,1,7.13-2.95m0-.59a10.67,10.67,0,1,0,7.54,3.12,10.67,10.67,0,0,0-7.54-3.12Z"/><path class="cls-5" d="M41.85,29.63A8.3,8.3,0,1,1,36,32.06a8.3,8.3,0,0,1,5.87-2.43"/><path class="cls-5" d="M41.85,27.27a10.67,10.67,0,1,0,7.54,3.12,10.67,10.67,0,0,0-7.54-3.12Z"/><path class="cls-6" d="M43.16,36.62a1.86,1.86,0,1,1-2.63,0A1.85,1.85,0,0,1,43.16,36.62Z"/><circle class="cls-7" cx="41.85" cy="37.93" r="7"/><path class="cls-2" d="M35.75,35.47c1.25.39,2.48.82,3.69,1.31l-.23.09a2.76,2.76,0,0,1,1.57-1.57l-.09.23c-.48-1.21-.92-2.44-1.31-3.69C40,33,40.51,34.19,41,35.4l.06.16-.16.06A2.73,2.73,0,0,0,39.53,37l-.06.16-.16-.06C38.1,36.6,36.92,36.06,35.75,35.47Z"/><path class="cls-2" d="M48,40.4c-1.25-.39-2.49-.83-3.7-1.31l.23-.09a2.76,2.76,0,0,1-1.57,1.57l.09-.23c.48,1.19.91,2.41,1.29,3.64-.58-1.15-1.12-2.32-1.61-3.51l-.06-.16.16-.07a2.62,2.62,0,0,0,1.37-1.37l.07-.16.16.06C45.59,39.27,46.78,39.81,48,40.4Z"/><path class="cls-2" d="M44.29,31.87c-.36,1.25-.81,2.46-1.28,3.66l-.1-.23a2.76,2.76,0,0,1,1.57,1.57l-.23-.1c1.18-.46,2.37-.91,3.6-1.26-1.13.6-2.29,1.1-3.47,1.59l-.16.07L44.15,37a2.59,2.59,0,0,0-1.37-1.37l-.17-.07.07-.16C43.17,34.21,43.69,33,44.29,31.87Z"/><path class="cls-2" d="M39.42,43.94c.35-1.23.8-2.42,1.26-3.6l.1.23A2.76,2.76,0,0,1,39.21,39l.23.1c-1.18.46-2.37.91-3.6,1.26,1.13-.6,2.29-1.1,3.47-1.6l.16-.06.07.16a2.6,2.6,0,0,0,1.37,1.38l.17.07-.07.16C40.52,41.65,40,42.81,39.42,43.94Z"/><path class="cls-2" d="M17.91,26.35a12.8,12.8,0,0,1,.44,3.51,12.43,12.43,0,0,1-.44,3.51,12.8,12.8,0,0,1-.44-3.51A13.2,13.2,0,0,1,17.91,26.35Z"/><path class="cls-2" d="M18.35,30.5l6.59.22,3.29.11a1.91,1.91,0,0,0,1.47-.47,2.42,2.42,0,0,0,.69-1.44,2.47,2.47,0,0,1-.61,1.52,2.07,2.07,0,0,1-1.55.61l-3.29.11-6.59.21a.44.44,0,1,1,0-.87Z"/><line class="cls-1" x1="16.16" y1="26.35" x2="16.16" y2="35.81"/></g></g></svg>