<svg xmlns="http://www.w3.org/2000/svg" viewBox="0 0 46.17 51.93"><defs><style>.cls-1{fill:#48484a;}</style></defs><g id="Слой_2" data-name="Слой 2"><g id="Слой_1-2" data-name="Слой 1"><path class="cls-1" d="M21.6,15.34A2.21,2.21,0,0,1,23,16.41a4.77,4.77,0,0,1,.62,1.66,10.87,10.87,0,0,1,.12,1.65,1,1,0,0,0,.13.6,1.25,1.25,0,0,0,.66.34,1.07,1.07,0,0,1-.93,0,1.27,1.27,0,0,1-.58-.85,11.86,11.86,0,0,1-.24-1.66,7,7,0,0,0-.32-1.51A3,3,0,0,0,21.6,15.34Z"/><path class="cls-1" d="M37.2,33.28c-1.15-.81-2.28-1.63-3.39-2.49a.22.22,0,0,1-.08-.13v0c-.34-2.05-.62-4.11-.87-6.18a.34.34,0,0,1,.09-.29l1.95-2-.09.28c-.1-1-.15-2.07-.21-3.1l.1.15c-.55-.37-1.1-.75-1.64-1.15.62.25,1.23.52,1.84.81a.16.16,0,0,1,.09.12v0c.19,1,.36,2,.5,3.06a.33.33,0,0,1-.09.27h0l-1.93,2,.1-.28c.24,2.06.47,4.13.63,6.2l-.08-.15Q35.68,31.83,37.2,33.28Z"/><path class="cls-1" d="M26.72,13.18l-4.88-.33-2.46-.17A1.75,1.75,0,0,1,18.11,12a1.53,1.53,0,0,1-.26-.74c0-.29,0-.45,0-.66,0-1.63.16-3.26.25-4.89.05-.81.09-1.62.16-2.44l.1-1.21a3.9,3.9,0,0,1,.11-.77,1.76,1.76,0,0,1,.59-.77A2.55,2.55,0,0,1,20.57,0l1.25,0c.83,0,1.65,0,2.47.07,1.64.08,3.27.21,4.9.34,3.27.28,6.5.71,9.74,1.26a.34.34,0,0,1,.26.22l2.51,8.16-.15-.12,3.8.42a.09.09,0,0,1,.09.09v0L45,11.93l-.12,0,.41-1.48.08.12-3.82-.25a.19.19,0,0,1-.14-.12h0L38.55,2.1l.26.23c-3.2-.45-6.45-.79-9.69-1-1.62-.09-3.24-.13-4.86-.15-.81,0-1.62,0-2.42,0-.4,0-.8,0-1.19.06a1.37,1.37,0,0,0-.79.24c-.2.21-.15.06-.21.62l-.11,1.22c-.07.81-.18,1.62-.28,2.43-.19,1.61-.36,3.23-.61,4.85-.06.45-.12.71,0,1a1.17,1.17,0,0,0,.78.51c.78.12,1.61.2,2.41.31l4.86.6Z"/><path class="cls-1" d="M17.8,11.62c-.72,0-1.42-.08-2.13-.17a9,9,0,0,1-1.08-.18,2,2,0,0,1-1.1-.72,2.11,2.11,0,0,1-.41-1.27c0-.41,0-.73,0-1.1,0-.7.1-1.4.15-2.1s.14-1.4.21-2.1l.14-1,.07-.52A1.53,1.53,0,0,1,14,1.69,1.88,1.88,0,0,1,15.12,1,4.39,4.39,0,0,1,16.24.87,13.9,13.9,0,0,1,18.38,1c-.69.21-1.38.38-2.05.54s-1.38.36-1.51.7a.55.55,0,0,0-.06.26l0,.53-.06,1-.17,2.1-.23,2.09c0,.34-.09.71-.11,1a1.41,1.41,0,0,0,.12.73,1.32,1.32,0,0,0,.58.5c.27.12.63.23,1,.35C16.47,11.11,17.14,11.34,17.8,11.62Z"/><path class="cls-1" d="M39.44,2.29a16.68,16.68,0,0,1,3.16,0c.53,0,1,.1,1.57.17a2.18,2.18,0,0,1,1.65,1.2,3.73,3.73,0,0,1,.29,1.78,13.19,13.19,0,0,1-.2,1.6,21.38,21.38,0,0,1-.76,3.06C45.05,9.05,45,8,45,7c0-.52,0-1,0-1.51a3.55,3.55,0,0,0-.28-1.25,1.1,1.1,0,0,0-.78-.57l-1.49-.37A18.76,18.76,0,0,1,39.44,2.29Z"/><path class="cls-1" d="M29.71,14.29c-.59,0-1.19,0-1.78,0a.1.1,0,0,1-.1-.11h0c0-.68.07-1.36.12-2a.17.17,0,0,1,.18-.15c1.48.11,2.95.27,4.42.47h0a.08.08,0,0,1,.07.1h0c-.06.44-.12.87-.21,1.31,0-.45,0-.89,0-1.33l.08.1c-1.48-.06-3-.16-4.43-.32l.18-.15c-.06.68-.14,1.36-.23,2L28,14C28.54,14.09,29.12,14.18,29.71,14.29Z"/><path class="cls-1" d="M36.57,5.64c-1.79,0-3.58-.14-5.37-.26S27.63,5.14,25.85,5l.22-.07L23.89,6.77,24,6.55,23.75,9.1l-.27-.33c1.68.16,3.35.33,5,.54s3.34.4,5,.65c-1.68-.05-3.37-.13-5-.24s-3.36-.21-5-.35A.31.31,0,0,1,23.15,9l.21-2.54a.3.3,0,0,1,.11-.22l2.21-1.82a.26.26,0,0,1,.22-.07c1.78.17,3.56.34,5.34.56S34.8,5.37,36.57,5.64Z"/><path class="cls-1" d="M13.39,1.82c-1.06.05-2.11,0-3.16,0a13.7,13.7,0,0,0-3.05.28l-1.52.29a6.78,6.78,0,0,0-1.33.38A.86.86,0,0,0,4,3.12a1.83,1.83,0,0,0-.13.56c-.07.46-.12,1-.15,1.5a8.76,8.76,0,0,0,0,1.45c.07.52.14.69.45.91A16.5,16.5,0,0,0,6.93,8.79c.48.18,1,.33,1.45.46a13.93,13.93,0,0,0,1.51.28c1,.2,2.08.35,3.11.58-1.06.05-2.11,0-3.16,0a12.67,12.67,0,0,1-1.61-.08,11.81,11.81,0,0,1-1.59-.34A13.41,13.41,0,0,1,3.57,8.53a1.83,1.83,0,0,1-.74-.79,3.15,3.15,0,0,1-.27-1A8.7,8.7,0,0,1,2.49,5.1c0-.56.1-1,.19-1.62a3.15,3.15,0,0,1,.28-1,2.06,2.06,0,0,1,.81-.77,7.11,7.11,0,0,1,1.7-.42q.8-.12,1.59-.18a12,12,0,0,1,3.22.08C11.32,1.43,12.36,1.59,13.39,1.82Z"/><path class="cls-1" d="M7.89,5.42A4.42,4.42,0,0,1,9,5.3a8.75,8.75,0,0,1,1.13.15c.74.11,1.49.23,2.24.37l0,0,0,0-2.27,0A7.07,7.07,0,0,1,9,5.77a4.61,4.61,0,0,1-1.11-.31,0,0,0,0,1,0,0Z"/><path class="cls-1" d="M8,4.22a5,5,0,0,1,1.15-.11,7,7,0,0,1,1.12.15c.75.11,1.5.23,2.24.36,0,0,0,0,0,0l0,0c-.76,0-1.52,0-2.27,0a8.47,8.47,0,0,1-1.13,0A4.83,4.83,0,0,1,8,4.27s0,0,0,0Z"/><path class="cls-1" d="M7.78,6.66a4.9,4.9,0,0,1,1.14-.11,8.72,8.72,0,0,1,1.13.14c.74.11,1.49.23,2.24.37,0,0,0,0,0,0h0c-.76,0-1.51,0-2.27,0A8.47,8.47,0,0,1,8.88,7,5.16,5.16,0,0,1,7.77,6.7a0,0,0,0,1,0,0Z"/><path class="cls-1" d="M7.64,8.24a4.9,4.9,0,0,1,1.14-.11,8.75,8.75,0,0,1,1.13.15l2.24.36,0,0,0,0c-.76,0-1.51,0-2.27,0A6.07,6.07,0,0,1,8.74,8.6a4.61,4.61,0,0,1-1.11-.31s0,0,0,0Z"/><path class="cls-1" d="M8.13,2.66a5,5,0,0,1,1.15-.11,7,7,0,0,1,1.12.15c.75.1,1.5.23,2.24.36,0,0,0,0,0,0a0,0,0,0,1,0,0c-.76,0-1.52,0-2.27,0A8.47,8.47,0,0,1,9.24,3a5.39,5.39,0,0,1-1.11-.31s0,0,0,0Z"/><path class="cls-1" d="M2.72,4a6.56,6.56,0,0,1-1.09.41c-.37.1-.74.18-1.11.25l.32-.33c0,.4,0,.8-.1,1.2L.48,5.13a8.45,8.45,0,0,1,2.05,1A8.51,8.51,0,0,1,.26,5.84.35.35,0,0,1,0,5.48v0c0-.4.06-.8.11-1.19v0a.33.33,0,0,1,.31-.3A10.37,10.37,0,0,1,2.72,4Z"/><path class="cls-1" d="M27.94,40.75l2.38,3.4-.13-.07,5.68-.26,5.67-.19-.42.35.8-4.12.45.6a2.82,2.82,0,0,1-2.29-1.23,2.53,2.53,0,0,1-.32-1.3l-.06-1.11c-.07-1.46-.18-2.91-.36-4.35a63.88,63.88,0,0,0-1.75-8.53c-.38-1.41-.83-2.79-1.24-4.22a9.47,9.47,0,0,1-.45-2.31A3.59,3.59,0,0,1,36.71,15a3.67,3.67,0,0,1,2.22-1.17,15,15,0,0,1,2.27-.13c1.41,0,3-.18,3.3-1.46l.33.48c-1.86-.2-3.72-.41-5.58-.65s-3.72-.46-5.58-.72c1.87.06,3.74.17,5.62.27s3.74.21,5.61.34l.46,0-.13.45a2.68,2.68,0,0,1-.62,1.13,3,3,0,0,1-1.07.69,7.93,7.93,0,0,1-2.3.39,15.07,15.07,0,0,0-2.11.21,2.72,2.72,0,0,0-1.6.85A2.46,2.46,0,0,0,37,17.39a8.74,8.74,0,0,0,.43,2c.42,1.38.91,2.79,1.31,4.21a51.7,51.7,0,0,1,1.74,8.73c.16,1.47.25,3,.3,4.43l.05,1.1a1.64,1.64,0,0,0,.15.82,2,2,0,0,0,1.46.77l.57.06-.12.54L42,44.16l-.08.36h-.35l-5.67,0-5.68-.11h-.09l0-.07Z"/><path class="cls-1" d="M22.94,46.25c4.68.08,9.36-.16,14-.23L40.49,46l1.76,0h.88a3.1,3.1,0,0,1,1,.12,2.92,2.92,0,0,1,2,3.2,3,3,0,0,1-2.9,2.53c-4.68.06-9.36.19-14,.11-1.17,0-2.34-.06-3.5-.11l-1.76-.09-.88-.05a3.25,3.25,0,0,1-1-.18,2.73,2.73,0,0,1-1.76-3.08A2.64,2.64,0,0,1,22.94,46.25Zm0,.13a2.34,2.34,0,0,0-2.29,2.06,2.23,2.23,0,0,0,1.65,2.39,2.38,2.38,0,0,0,.76.05l.88,0,1.76-.09c1.17,0,2.34-.08,3.51-.11,4.68-.07,9.36.07,14,.14a2,2,0,0,0,2-1.66,2.05,2.05,0,0,0-1.37-2.28,2.23,2.23,0,0,0-.75-.11h-.87l-1.76,0-3.51,0C32.3,46.56,27.62,46.31,22.94,46.38Z"/><path class="cls-1" d="M45.57,49.44a16.43,16.43,0,0,1-.77-4c0-.67,0-1.35,0-2v-2l.19.32c-.63-.5-1.24-1-1.83-1.57l.06-.1c.75.31,1.48.63,2.2,1l.16.08,0,.24.24,2c.07.67.2,1.34.23,2a13.93,13.93,0,0,1,0,2,10,10,0,0,1-.36,2.05Z"/><path class="cls-1" d="M20.42,49.61c-.64-.51-1.28-1-1.9-1.55l-.05,0V48l0-4.49v-.1l.08-.09.85-1,.06-.08.12,0L24.31,41l-.34.3.43-1.27.09-.28.32-.05,3-.42-.26.11a4.43,4.43,0,0,0,1.54-1.6,1.41,1.41,0,0,0,0-.91c-.1-.4-.22-.81-.34-1.22a25.89,25.89,0,0,1-1.11-5.13,45.65,45.65,0,0,1-.17-5.21,10.86,10.86,0,0,0-.17-2.41,2.9,2.9,0,0,0-1.23-1.68l-1-.66,1.13-.3a.4.4,0,0,0,.25-.23,1.48,1.48,0,0,0,0-.32l0-.42c0-.57,0-1.15,0-1.73v-.87c0-.34,0-.46-.11-.59a2.52,2.52,0,0,0-1.4-.46l-3.47-.5a3.19,3.19,0,0,1-.9-.2,2.69,2.69,0,0,1-.67-.63,8.94,8.94,0,0,1-.9-1.52,9,9,0,0,0,1.05,1.39,2.4,2.4,0,0,0,.65.51,3.73,3.73,0,0,0,.81.1c1.16.08,2.33.11,3.5.21a2.92,2.92,0,0,1,1.87.6,1.18,1.18,0,0,1,.3.56,2.52,2.52,0,0,1,0,.49l.06.89c0,.59.05,1.17.06,1.77v.45a2.58,2.58,0,0,1-.06.55,1.36,1.36,0,0,1-.95.94l.11-1a3.82,3.82,0,0,1,1.84,2.3,11.22,11.22,0,0,1,.28,2.7,50.32,50.32,0,0,0,.23,5.09,27.47,27.47,0,0,0,1,4.92c.12.42.24.84.34,1.28a2.49,2.49,0,0,1-.06,1.61,5.15,5.15,0,0,1-2,2.07l-.12.09-.15,0-3,.32.41-.33-.5,1.24-.1.25-.24,0-4.81.9.18-.1-.92.94.08-.19L18.75,48l-.05-.11C19.28,48.43,19.85,49,20.42,49.61Z"/></g></g></svg>