<svg width="54" height="53" viewBox="0 0 54 53" fill="none" xmlns="http://www.w3.org/2000/svg">
<path d="M36.8 52.8H16.9C7.89999 52.8 0.5 45.5 0.5 36.4V16.5C0.5 7.49998 7.79999 0.0999756 16.9 0.0999756H36.8C45.8 0.0999756 53.2 7.39997 53.2 16.5V36.4C53.2 45.5 45.8 52.8 36.8 52.8Z" fill="#333333"/>
<path fill-rule="evenodd" clip-rule="evenodd" d="M26.9001 51.9C12.9001 51.9 1.40015 40.5 1.40015 26.4C1.40015 12.4 12.8001 0.900024 26.9001 0.900024C40.9001 0.900024 52.4001 12.3 52.4001 26.4C52.4001 40.5 41.0001 51.9 26.9001 51.9Z" fill="#333333"/>
<path d="M26.9001 1.89997C40.4001 1.89997 51.5001 12.9 51.5001 26.5C51.5001 40 40.5001 51.1 26.9001 51.1C13.4001 51.1 2.30009 40.1 2.30009 26.5C2.30009 12.9 13.4001 1.89997 26.9001 1.89997ZM26.9001 0.0999756C12.4001 0.0999756 0.600098 11.9 0.600098 26.4C0.600098 40.9 12.4001 52.7 26.9001 52.7C41.4001 52.7 53.2001 40.9 53.2001 26.4C53.2001 11.9 41.4001 0.0999756 26.9001 0.0999756Z" fill="#333333"/>
<path d="M26.9001 5.59995C38.4001 5.59995 47.8001 15 47.8001 26.5C47.8001 38 38.4001 47.4 26.9001 47.4C15.4001 47.4 6.00009 38 6.00009 26.5C6.00009 14.9 15.4001 5.59995 26.9001 5.59995ZM26.9001 4.69995C14.9001 4.69995 5.1001 14.5 5.1001 26.5C5.1001 38.5 14.9001 48.3 26.9001 48.3C38.9001 48.3 48.7001 38.5 48.7001 26.5C48.7001 14.5 38.9001 4.69995 26.9001 4.69995Z" fill="white"/>
<path d="M26.9001 19.8999C23.3001 19.8999 20.4001 22.7999 20.4001 26.3999C20.4001 29.9999 23.3001 32.8999 26.9001 32.8999C30.5001 32.8999 33.4001 29.9999 33.4001 26.3999C33.4001 22.8999 30.5001 19.8999 26.9001 19.8999ZM26.9001 28.8999C25.6001 28.8999 24.5002 27.7999 24.5002 26.4999C24.5002 25.1999 25.6001 24.0999 26.9001 24.0999C28.2001 24.0999 29.3002 25.1999 29.3002 26.4999C29.3002 27.7999 28.2001 28.8999 26.9001 28.8999Z" fill="white"/>
<path d="M22.0002 26.7L9.90015 37.9L11.5002 40L13.6002 42.7999L17.0002 39.7L16.5002 36.7999L25.4001 31.0999C23.5001 30.5999 22.1002 28.8 22.0002 26.7Z" fill="white"/>
<path d="M42.3002 13L40.2001 10.2L36.9001 13.2L37.4001 16.0999L28.4001 21.7999C30.3001 22.4 31.7002 24.1999 31.8002 26.2999L43.9001 15L42.3002 13Z" fill="white"/>
<path d="M36.3 38.4L17.5 14.5" stroke="#E74E0F" stroke-width="1.4425" stroke-miterlimit="10" stroke-linecap="round"/>
<path d="M37.1001 36L40.3 43.4L33.8 38.6L37.1001 36Z" fill="#E74E0F"/>
<path d="M20 14.3L13.5 9.5L16.7 16.9L20 14.3Z" fill="#E74E0F"/>
</svg>
