<svg width="53" height="53" viewBox="0 0 53 53" fill="none" xmlns="http://www.w3.org/2000/svg">
<path d="M36.3 52.8H16.4C7.4 52.8 0 45.5 0 36.4V16.5C0 7.49998 7.3 0.0999756 16.4 0.0999756H36.3C45.3 0.0999756 52.7 7.39997 52.7 16.5V36.4C52.7 45.5 45.4 52.8 36.3 52.8Z" fill="#F76600"/>
<path d="M27.556 12.1138C27.1444 12.1138 26.7367 12.13 26.3333 12.1616V15.37C26.3333 16.1539 25.7202 16.8023 24.9377 16.8462C23.8853 16.9053 22.8693 17.1512 21.9178 17.5773C20.964 18.0044 20.1 18.6014 19.3497 19.3516C18.5994 20.1018 18.0025 20.9659 17.5753 21.9197C17.1493 22.8712 16.9033 23.8872 16.8443 24.9396C16.8004 25.7221 16.152 26.3351 15.3681 26.3351H12.1597C12.1281 26.7386 12.1118 27.1464 12.1118 27.5579C12.1118 36.0875 19.0264 43.002 27.556 43.002C36.0855 43.002 43.0001 36.0874 43.0001 27.558C43.0001 19.0284 36.0855 12.1138 27.556 12.1138ZM34.1874 34.1894C32.4161 35.9607 30.061 36.9362 27.5559 36.9362C25.0509 36.9362 22.6958 35.9607 20.9245 34.1894C19.1531 32.4181 18.1776 30.063 18.1776 27.5579C18.1776 25.0528 19.1531 22.6978 20.9245 20.9264C22.6958 19.1551 25.0509 18.1796 27.5559 18.1796C30.061 18.1796 32.416 19.1551 34.1874 20.9264C35.9588 22.6977 36.9343 25.0528 36.9343 27.5579C36.9343 30.063 35.9588 32.4181 34.1874 34.1894Z" fill="white"/>
<path d="M27.5562 19.9833C23.3795 19.9833 19.9814 23.3813 19.9814 27.5581C19.9814 31.7348 23.3795 35.1328 27.5562 35.1328C31.733 35.1328 35.131 31.7348 35.131 27.5581C35.131 23.3813 31.7329 19.9833 27.5562 19.9833ZM27.5562 21.6201C28.0244 21.6201 28.4041 21.9997 28.4041 22.468C28.4041 22.9363 28.0245 23.3159 27.5562 23.3159C27.0879 23.3159 26.7083 22.9363 26.7083 22.468C26.7083 21.9997 27.0879 21.6201 27.5562 21.6201ZM22.4158 28.4562C21.9476 28.4562 21.5679 28.0767 21.5679 27.6083C21.5679 27.1401 21.9475 26.7604 22.4158 26.7604C22.8841 26.7604 23.2637 27.14 23.2637 27.6083C23.2637 28.0766 22.8841 28.4562 22.4158 28.4562ZM27.5562 33.5966C27.088 33.5966 26.7083 33.217 26.7083 32.7487C26.7083 32.2804 27.0879 31.9008 27.5562 31.9008C28.0245 31.9008 28.4041 32.2804 28.4041 32.7487C28.4041 33.217 28.0245 33.5966 27.5562 33.5966ZM27.5562 30.2645C26.0615 30.2645 24.8497 29.0528 24.8497 27.5581C24.8497 26.0633 26.0615 24.8516 27.5562 24.8516C29.0509 24.8516 30.2627 26.0633 30.2627 27.5581C30.2627 29.0528 29.051 30.2645 27.5562 30.2645ZM33.5444 27.6083C33.5444 28.0766 33.1649 28.4562 32.6965 28.4562C32.2283 28.4562 31.8487 28.0767 31.8487 27.6083C31.8487 27.1401 32.2282 26.7604 32.6965 26.7604C33.1649 26.7604 33.5444 27.1401 33.5444 27.6083Z" fill="white"/>
<path d="M10.5772 25.4333H12.2587H15.3699C15.6759 25.4333 15.9286 25.1945 15.9457 24.889C16.0766 22.5553 17.0479 20.3798 18.7138 18.7138C20.3798 17.0479 22.5553 16.0767 24.8889 15.9458C25.1945 15.9287 25.4333 15.6759 25.4333 15.3699V12.2588V10.5773C25.4333 10.2587 25.1756 10 24.8599 10C24.8526 10 24.8453 10.0001 24.8379 10.0004C16.7818 10.3058 10.3058 16.7818 10.0004 24.8379C9.98808 25.1636 10.2514 25.4333 10.5772 25.4333Z" fill="white"/>
</svg>
