<?xml version="1.0" encoding="utf-8"?>
<!-- Generator: Adobe Illustrator 22.1.0, SVG Export Plug-In . SVG Version: 6.00 Build 0)  -->
<svg version="1.1" id="Layer_1" xmlns="http://www.w3.org/2000/svg" xmlns:xlink="http://www.w3.org/1999/xlink" x="0px" y="0px"
	 viewBox="0 0 200 200" style="enable-background:new 0 0 200 200;" xml:space="preserve">
<style type="text/css">
	.st0{fill:#FFFFFF;}
</style>
<g>
	<rect x="-0.4" y="0.6" class="st0" width="199.4" height="199.4"/>
	<g>
		<path fill="#F66507" d="M84.9,157.8c-0.1,0.4-0.2,0.7-0.3,1c-0.7,2.3-2.7,4-5.1,4c-10.1,0-20.2,0-30.3,0c-1.4,0-2.1-0.7-2.1-2.2
			c0-3.4,0-6.7,0-10.1c0-13.2,0-26.3,0-39.5c0-2.3,0.5-2.8,2.8-2.8c9.4,0,18.9,0.1,28.3,0c3.1,0,5.3,1,6.6,4.2
			c1.9-1.4,3.6-2.6,5.4-4c1-0.8,2-1.8,3-2.7c1-0.9,2.1-1,2.9-0.2c0.8,0.9,0.7,1.9-0.3,2.9c-3,2.9-6.2,5.4-9.8,7.5
			c-0.7,0.4-1,0.9-1,1.8c0,11.2,0,22.5,0,33.7c0,0.8,0.2,1.2,0.8,1.8c2.7,2.8,5.9,4.8,9.8,5.5c1.2,0.2,2.4,0.3,3.7,0.3
			c14.5,0,28.9,0,43.4,0c1.8,0,3.4-0.5,4.4-2.1c1.8-2.8,0-6.5-3.3-6.7c-1.6-0.1-3.3,0-4.9-0.1c-0.4,0-0.8,0-1.2-0.1
			c-0.9-0.2-1.5-0.9-1.5-1.8c0-0.9,0.6-1.6,1.5-1.8c0.4-0.1,0.7-0.1,1.1-0.1c1.5,0,3.1,0,4.6,0c2.6-0.1,4.5-2,4.5-4.5
			c0-2.5-1.9-4.5-4.4-4.5c-1.8-0.1-3.6,0-5.4,0c-1.1,0-1.8-0.8-1.8-1.8c0-1,0.7-1.8,1.8-1.8c0.3,0,0.7,0,1,0c1.5,0,3,0,4.5,0
			c2.2-0.1,3.9-1.6,4.3-3.6c0.4-1.9-0.6-3.9-2.4-4.7c-0.8-0.3-1.6-0.4-2.5-0.5c-1.7-0.1-3.4,0-5.1-0.1c-1-0.1-1.6-0.8-1.6-1.7
			c0-0.9,0.5-1.6,1.4-1.9c0.4-0.1,0.7-0.1,1.1-0.1c1.4,0,2.9,0,4.3,0c2.9,0,4.8-1.8,4.8-4.4c0-2.7-1.9-4.6-4.8-4.6c-8,0-16,0-24,0
			c-2.2,0-2.8-0.6-2.7-2.7c0.2-7.1,0.4-14.1,0.6-21.2c0-1.1,0-2.1-0.1-3.2c-0.2-1.5-1-2.5-2.4-3c-1.3-0.5-2.7-0.4-3.7,0.6
			c-0.6,0.5-1,1.3-1.2,2.1c-0.9,5-3.2,9.4-5.7,13.7c-0.6,1-1.7,1.2-2.6,0.7c-0.9-0.5-1.1-1.6-0.6-2.6c1.1-2.2,2.3-4.3,3.2-6.5
			c0.8-1.9,1.4-3.8,1.8-5.8c1.1-5.2,6.7-7.8,11.3-5c0.2,0.1,0.4,0.2,0.8,0.5c0-1.4,0-2.5,0-3.7c0-0.3-0.4-0.6-0.7-0.8
			c-3.7-2.2-6.5-5.3-8.3-9.2c-2.3-5.1-2.6-10.3-0.8-15.6c1.9-5.4,5.4-9.4,10.5-12c2-1,3.3-0.2,3.3,2c0,4.4,0,8.9,0,13.3
			c0,1.6,0.2,1.9,1.8,1.9c2.7,0,5.4,0,8.1,0c1.6,0,1.8-0.2,1.8-1.8c0-4.3,0-8.7,0-13c0-0.4,0-0.8,0.1-1.1c0.2-1.4,1.4-2.1,2.7-1.5
			c2.8,1.3,5.3,3.1,7.2,5.4c3.8,4.5,5.5,9.8,4.9,15.7c-0.7,6.8-4.1,12.1-9.9,15.7c-1.1,0.7-1.4,1.3-1.3,2.6
			c0.4,7.4,0.8,14.7,1.1,22.1c0,0.7-0.3,1.5-0.7,2c-0.3,0.3-1.2,0.4-1.8,0.3c-0.8-0.2-1.1-0.9-1.2-1.7c-0.2-2.9-0.3-5.7-0.5-8.6
			c-0.3-5.3-0.5-10.5-0.8-15.8c-0.1-1.6,0.4-2.5,1.8-3.2c4.2-2,7.1-5.4,8.7-9.8c2.6-6.8-0.2-15.6-6.3-19.6c0,0-0.1,0-0.3,0
			c0,0.4,0,0.7,0,1.1c0,3.2,0,6.4,0,9.5c0,3.6-2,5.5-5.5,5.5c-2.8,0-5.5,0-8.3,0c-3.5,0-5.4-2-5.4-5.4c0-3.2,0-6.5,0-9.7
			c0-0.3,0-0.7,0-1.2c-2,1.3-3.5,2.8-4.6,4.6c-4.3,6.7-3.8,14.4,1.2,20.6c1.4,1.7,3.1,3.2,5.2,4.1c1.5,0.7,2,1.7,1.9,3.3
			c-0.5,10.5-1,21-1.4,31.6c0,0.4,0,0.7,0,1.3c0.5,0,0.9,0,1.2,0c7.2,0,14.4,0,21.6,0c4,0,7.1,2.2,8.1,5.9c0.8,2.9,0.2,5.6-1.8,7.9
			c-0.2,0.3-0.5,0.5-0.7,0.7c3.9,5.5,3.9,7.2,0,12.7c3.9,5.2,3.9,7.9,0.1,12.7c0.7,1.2,1.7,2.3,2.1,3.6c2,5.2-1.5,10.6-7.1,11
			c-0.4,0-0.9,0-1.3,0c-14.3,0-28.6,0-43,0c-5.3,0-10-1.4-14.1-4.8C85.2,158,85.1,157.9,84.9,157.8z M50.9,159.1c0.4,0,0.7,0,1,0
			c8.9,0,17.8,0,26.7,0c2,0,2.5-0.6,2.5-2.6c0-13.9,0-27.9,0-41.8c0-2.1-0.5-2.6-2.6-2.6c-8.9,0-17.7,0-26.6,0c-0.3,0-0.7,0-1.1,0
			C50.9,127.8,50.9,143.4,50.9,159.1z"/>
		<path fill="#F66507" d="M70.2,124.3c-1.4,0-2.6-1.2-2.6-2.6c0-1.4,1.2-2.6,2.6-2.6c1.4,0,2.5,1.2,2.5,2.6C72.9,123.1,71.7,124.3,70.2,124.3z"/>
	</g>
</g>
</svg>
