<svg width="25" height="34" viewBox="0 0 25 34" fill="none" xmlns="http://www.w3.org/2000/svg">
<path d="M13.701 8.69993C12.901 8.59993 12.301 8.29993 11.601 7.99993C10.501 7.49993 9.40096 7.49993 8.30096 8.09993C7.60096 8.49993 7.00096 8.69993 6.20096 8.69993C5.40096 8.59993 4.90096 8.09993 5.00096 7.29993C5.20096 6.09993 5.30096 4.99993 5.30096 3.79993C5.30096 3.19993 5.60096 2.79993 6.00096 2.39993C6.60096 1.79993 7.40096 1.49993 8.20096 1.29993C8.40096 1.29993 8.50096 1.29993 8.70096 1.19993C9.00096 1.09993 9.30096 0.999928 9.40096 0.799928C9.80096 0.399928 10.401 0.399928 10.801 0.699928C11.101 0.999928 11.401 1.09993 11.701 1.19993C12.101 1.29993 12.601 1.39993 13.001 1.59993C13.901 1.89993 14.501 2.49993 14.801 3.39993C14.901 3.59993 14.901 3.89993 14.901 4.09993C14.901 5.09993 14.901 6.09993 15.201 7.09993C15.301 7.59993 15.301 8.09993 14.801 8.49993C14.701 8.59993 14.701 8.79993 14.601 8.89993C14.401 9.79993 14.201 10.5999 13.801 11.3999C13.401 12.1999 12.901 12.7999 12.301 13.3999C11.801 13.7999 11.201 14.1999 10.601 14.2999C9.90096 14.3999 9.20096 14.1999 8.60096 13.7999C7.80096 13.2999 7.10096 12.4999 6.70096 11.6999C6.40096 11.1999 6.30096 10.6999 6.00096 10.0999C6.00096 9.99993 6.00096 9.99993 6.00096 9.89993C6.30096 9.79993 6.60096 9.69993 6.90096 9.69993C7.00096 9.99993 7.10096 10.2999 7.20096 10.5999C7.50096 11.2999 7.90096 11.9999 8.50096 12.5999C8.70096 12.7999 9.00096 12.9999 9.30096 13.1999C10.001 13.5999 10.801 13.4999 11.501 13.0999C12.401 12.4999 13.001 11.5999 13.401 10.5999C13.401 9.89993 13.501 9.29993 13.701 8.69993ZM13.901 5.69993C13.901 5.19993 13.901 4.79993 13.901 4.29993C13.901 4.09993 13.901 3.89993 13.801 3.69993C13.601 2.99993 13.101 2.59993 12.501 2.49993C12.001 2.29993 11.501 2.19993 10.901 2.09993C10.601 1.99993 10.301 1.99993 10.101 1.99993C9.10096 1.99993 8.10096 2.39993 7.20096 2.69993C6.70096 2.89993 6.40096 3.29993 6.40096 3.89993C6.40096 4.39993 6.30096 4.89993 6.30096 5.29993C6.30096 5.39993 6.30096 5.59993 6.30096 5.69993C8.80096 4.19993 11.401 4.39993 13.901 5.69993ZM10.101 5.59993C9.80096 5.59993 9.40096 5.69993 9.10096 5.69993C8.10096 5.89993 7.20096 6.29993 6.30096 6.89993C6.00096 7.09993 6.00096 7.39993 6.10096 7.59993C6.20096 7.79993 6.40096 7.89993 6.80096 7.69993C7.20096 7.49993 7.70096 7.39993 8.10096 7.19993C8.70096 6.89993 9.20096 6.79993 9.80096 6.69993C10.701 6.59993 11.501 6.79993 12.301 7.19993C12.701 7.39993 13.201 7.59993 13.601 7.69993C13.901 7.79993 14.301 7.49993 14.301 7.29993C14.201 7.09993 14.201 6.89993 14.001 6.79993C12.801 6.09993 11.501 5.59993 10.101 5.59993Z" fill="#323232"/>
<path d="M7.6 17.7998C7.9 17.3998 8.3 16.9998 8.6 16.5998C8.6 16.5998 8.5 16.5998 8.5 16.4998C8 16.0998 7.4 15.6998 6.9 15.2998C6.7 15.1998 6.6 15.1998 6.4 15.1998C5.6 15.3998 4.7 15.5998 3.9 15.7998C3.4 15.9998 3 16.1998 2.6 16.4998C1.9 16.8998 1.5 17.5998 1.4 18.3998C1.3 19.7998 1.2 21.1998 1.1 22.5998C1.1 23.3998 1 24.1998 1 25.0998C1 25.3998 0.8 25.4998 0.7 25.5998C0.3 25.5998 0 25.4998 0 25.0998C0 24.6998 -9.68575e-08 24.1998 0.0999999 23.7998C0.2 22.5998 0.3 21.3998 0.3 20.2998C0.4 19.5998 0.4 18.7998 0.5 18.0998C0.6 17.1998 1.1 16.4998 1.8 15.8998C2.5 15.3998 3.4 15.0998 4.2 14.8998C4.9 14.6998 5.6 14.4998 6.4 14.3998C6.7 14.2998 7 14.3998 7.2 14.5998C7.9 15.0998 8.7 15.6998 9.4 16.1998C9.8 16.4998 9.8 16.6998 9.5 17.0998C9 17.6998 8.5 18.2998 8 18.8998C7.7 19.2998 7.4 19.2998 7.1 18.8998C6.7 18.3998 6.3 17.8998 6 17.2998C5.9 17.1998 5.8 16.8998 5.9 16.7998C5.9 16.6998 6.1 16.4998 6.2 16.4998C6.4 16.3998 6.6 16.4998 6.7 16.6998C6.9 16.9998 7.2 17.2998 7.4 17.5998C7.4 17.5998 7.5 17.6998 7.6 17.7998Z" fill="#323232"/>
<path d="M11.6992 16.6C11.9992 17 12.3992 17.4 12.6992 17.8C12.7992 17.7 12.8992 17.5 12.9992 17.4C13.1992 17.1 13.3992 16.9 13.5992 16.6C13.6992 16.5 13.7992 16.4 13.8992 16.3C13.9992 16.2 14.1992 16.2 14.3992 16.3C14.4992 16.4 14.5992 16.5 14.5992 16.7C14.5992 16.8 14.4992 17 14.4992 17.1C14.0992 17.7 13.6992 18.2 13.2992 18.7C12.9992 19 12.7992 19 12.4992 18.7C11.8992 18.1 11.3992 17.4 10.8992 16.8C10.6992 16.5 10.6992 16.3 10.9992 16C11.7992 15.4 12.5992 14.8 13.3992 14.2C13.5992 14.1 13.7992 14 13.9992 14.1C14.9992 14.4 16.0992 14.6 17.0992 14.9C17.9992 15.2 18.7992 15.6 19.3992 16.4C19.8992 17.1 20.0992 17.8 19.9992 18.6C19.9992 18.8 19.7992 19 19.5992 19C19.3992 19 19.1992 18.9 19.0992 18.6C19.0992 18.4 18.9992 18.2 18.9992 18C18.8992 17.1 18.3992 16.5 17.5992 16.1C17.0992 15.9 16.4992 15.7 15.9992 15.6C15.4992 15.5 14.9992 15.3 14.5992 15.2C14.0992 15 13.6992 15.1 13.2992 15.5C12.8992 15.8 12.5992 16.1 12.1992 16.3C11.8992 16.5 11.7992 16.6 11.6992 16.6Z" fill="#323232"/>
<path d="M16.1004 24.3999L7.90039 21.6999L16.1004 18.8999L24.3004 21.6999L16.1004 24.3999Z" fill="white" stroke="#323232" stroke-width="0.9309" stroke-linecap="round" stroke-linejoin="round"/>
<path d="M16.1004 33.4L7.90039 30.6V21.7L16.1004 24.5V33.4Z" fill="white" stroke="#323232" stroke-width="0.9309" stroke-linecap="round" stroke-linejoin="round"/>
<path d="M16.0996 33.4L24.2996 30.6V21.7L16.0996 24.5V33.4Z" fill="white" stroke="#323232" stroke-width="0.9309" stroke-linecap="round" stroke-linejoin="round"/>
</svg>
