<svg width="53" height="53" viewBox="0 0 53 53" fill="none" xmlns="http://www.w3.org/2000/svg">
<path d="M36.3 52.8H16.4C7.4 52.8 0 45.5 0 36.4V16.5C0 7.49998 7.3 0.0999756 16.4 0.0999756H36.3C45.3 0.0999756 52.7 7.39997 52.7 16.5V36.4C52.7 45.5 45.4 52.8 36.3 52.8Z" fill="#F76600"/>
<path d="M37.6001 22.4C37.5001 22.2 37.3001 22.0999 37.1001 22.0999H30.3001L37.0001 11.6C37.1001 11.4 37.1001 11.2 37.0001 11C36.9001 10.8 36.7001 10.7 36.5001 10.7H27.4001C27.2001 10.7 27.0001 10.8 26.9001 11L18.3001 28.0999C18.2001 28.2999 18.2001 28.4999 18.3001 28.5999C18.4001 28.7999 18.6001 28.9 18.8001 28.9H24.7001L18.3001 44.0999C18.2001 44.3999 18.3001 44.7 18.5001 44.7999C18.6001 44.8999 18.7001 44.9 18.8001 44.9C19.0001 44.9 19.1001 44.7999 19.2001 44.7L37.5001 23C37.6001 22.9 37.7001 22.6 37.6001 22.4Z" fill="white"/>
</svg>
