<svg width="32" height="24" viewBox="0 0 32 24" fill="none" xmlns="http://www.w3.org/2000/svg">
<path d="M1.28839 5.13458H10.0242C10.4631 6.82834 11.9909 8.08838 13.82 8.08838C15.6491 8.08838 17.177 6.82834 17.6158 5.13458H30.7115C31.2529 5.13458 31.6922 4.69528 31.6922 4.15381C31.6922 3.61234 31.2529 3.17304 30.7115 3.17304H17.6158C17.177 1.47928 15.6491 0.219238 13.82 0.219238C11.9909 0.219238 10.4631 1.47928 10.0242 3.17304H1.28839C0.74692 3.17304 0.307617 3.61234 0.307617 4.15381C0.307617 4.69528 0.74692 5.13458 1.28839 5.13458ZM13.82 2.18078C14.9081 2.18078 15.793 3.06577 15.793 4.15381C15.793 5.24185 14.9081 6.12684 13.82 6.12684C12.732 6.12684 11.847 5.24185 11.847 4.15381C11.847 3.06577 12.732 2.18078 13.82 2.18078Z" fill="#323232"/>
<path d="M30.7115 11.0192H28.6111C28.1723 9.32547 26.6445 8.06543 24.8154 8.06543C22.9862 8.06543 21.4584 9.32547 21.0196 11.0192H1.28839C0.74692 11.0192 0.307617 11.4585 0.307617 12C0.307617 12.5415 0.74692 12.9808 1.28839 12.9808H21.0196C21.4584 14.6745 22.9862 15.9346 24.8154 15.9346C26.6445 15.9346 28.1723 14.6745 28.6111 12.9808H30.7115C31.2529 12.9808 31.6922 12.5415 31.6922 12C31.6922 11.4585 31.2529 11.0192 30.7115 11.0192ZM24.8154 13.973C23.7273 13.973 22.8423 13.088 22.8423 12C22.8423 10.912 23.7273 10.027 24.8154 10.027C25.9034 10.027 26.7884 10.912 26.7884 12C26.7884 13.088 25.9034 13.973 24.8154 13.973Z" fill="#323232"/>
<path d="M30.7115 18.8653H11.7083C11.2695 17.1715 9.74177 15.9115 7.91369 15.9115C6.08456 15.9115 4.55674 17.1715 4.11792 18.8653H1.28839C0.74692 18.8653 0.307617 19.3046 0.307617 19.8461C0.307617 20.3875 0.74692 20.8268 1.28839 20.8268H4.11792C4.55674 22.5206 6.08456 23.7806 7.91369 23.7806C9.74177 23.7806 11.2695 22.5206 11.7083 20.8268H30.7115C31.2529 20.8268 31.6922 20.3875 31.6922 19.8461C31.6922 19.3046 31.2529 18.8653 30.7115 18.8653ZM7.91369 21.8191C6.82565 21.8191 5.94065 20.9341 5.94065 19.8461C5.94065 18.758 6.82565 17.873 7.91369 17.873C9.00045 17.873 9.88544 18.758 9.88544 19.8461C9.88544 20.9341 9.00045 21.8191 7.91369 21.8191Z" fill="#323232"/>
</svg>
