<svg width="53" height="53" viewBox="0 0 53 53" fill="none" xmlns="http://www.w3.org/2000/svg">
<path d="M36.3 52.8H16.4C7.4 52.8 0 45.5 0 36.4V16.5C0 7.49998 7.3 0.0999756 16.4 0.0999756H36.3C45.3 0.0999756 52.7 7.39997 52.7 16.5V36.4C52.7 45.5 45.4 52.8 36.3 52.8Z" fill="#F76600"/>
<path d="M40.7767 16.1442C40.6266 16.0192 40.4304 15.9729 40.2391 16.0155C40.2166 16.0205 37.9687 16.5206 35.8445 16.5206C34.6705 16.5206 33.7403 16.3643 33.159 16.068C32.9127 15.943 32.6339 15.7892 32.3413 15.6216L32.7339 15.1465C32.8439 15.0127 32.8927 14.839 32.8702 14.6677C32.8465 14.4964 32.7539 14.3414 32.6139 14.2413L28.2381 11.1158C28.0993 11.0171 27.923 10.9808 27.7617 11.0096C27.5942 11.0396 27.4479 11.1371 27.3541 11.2771L26.829 12.0635C26.5402 11.8647 26.3665 11.7422 26.3577 11.736C26.0826 11.5435 25.7013 11.6022 25.4975 11.8735L21.7468 16.8744C21.6468 17.0082 21.6043 17.177 21.6293 17.3433C21.6544 17.5095 21.7456 17.6583 21.8806 17.7559C21.8806 17.7559 26.644 21.1915 28.7507 22.753C30.2897 23.8932 30.8961 27.774 30.9999 29.173C31.0174 29.3955 31.1499 29.5918 31.3487 29.6894C31.4337 29.7318 31.5562 29.7569 31.65 29.7569C31.9775 29.7569 32.8465 29.7569 37.1085 24.5209C40.8454 19.9313 40.9942 16.7782 40.9992 16.6469C41.0092 16.4531 40.9254 16.268 40.7767 16.1442Z" fill="white"/>
<path d="M25.8549 22.1752C24.6822 21.3238 23.4207 20.4086 22.4955 19.7397C22.358 19.641 22.1867 19.6022 22.018 19.631C21.8504 19.661 21.7029 19.7585 21.6091 19.8998L19.855 22.5303C18.0334 25.277 17.4796 26.761 16.9445 28.195C16.4619 29.4878 16.008 30.708 14.5478 32.8359C13.0112 35.0763 11.3272 36.0778 11.3097 36.0878C11.1284 36.1928 11.0134 36.3829 11.0009 36.5916C10.9897 36.8004 11.0822 37.0017 11.2497 37.128L16.2506 40.8787C16.3594 40.96 16.4907 41.0037 16.6257 41.0037C16.6744 41.0037 16.7232 40.9987 16.7707 40.9862C19.3262 40.3748 20.0801 38.747 20.8115 37.1729L20.9415 36.8929C21.2315 36.2715 21.4591 34.995 21.7479 33.3797C22.2643 30.4766 23.0444 26.0908 24.5684 24.5668C24.961 24.1742 25.4336 23.6704 25.9487 23.1015C26.0687 22.9702 26.1262 22.7939 26.1075 22.6176C26.0899 22.4402 25.9975 22.2802 25.8549 22.1752Z" fill="white"/>
</svg>
