<svg width="28" height="19" viewBox="0 0 28 19" fill="none" xmlns="http://www.w3.org/2000/svg">
<path d="M27.1048 9.20975V16.077H23.8134V14.4782H25.456H25.506V14.4282V9.47444V9.46634L25.5034 9.45865L24.0464 5.08145L24.0351 5.04724H23.999H17.8176H17.7676V5.09724V14.4282V14.4782H17.8176H18.617V16.077H16.175V3.44844H25.1844L27.1048 9.20975Z" fill="#323232" stroke="white" stroke-width="0.1"/>
<path d="M21.216 18.6239C19.3712 18.6239 17.8684 17.121 17.8684 15.2763C17.8684 13.4315 19.3712 11.9287 21.216 11.9287C23.0607 11.9287 24.5635 13.4315 24.5636 15.2762C24.5574 17.1212 23.0605 18.6239 21.216 18.6239ZM21.216 13.5275C20.2521 13.5275 19.4672 14.3124 19.4672 15.2763C19.4672 16.2401 20.2521 17.0251 21.216 17.0251C22.1798 17.0251 22.9648 16.2401 22.9648 15.2763C22.9648 14.3124 22.1798 13.5275 21.216 13.5275Z" fill="#323232" stroke="white" stroke-width="0.1"/>
<path d="M3.39182 14.4783H5.04062V16.0771H1.74922V10.2375H3.34182V14.4283V14.4783H3.39182Z" fill="#323232" stroke="white" stroke-width="0.1"/>
<path d="M16.1262 1.6488H0.05V0.05H17.7688V16.0762H10.2304V14.4774H16.1262H16.1762V14.4274V1.6988V1.6488H16.1262Z" fill="#323232" stroke="white" stroke-width="0.1"/>
<path d="M7.63783 18.6239C5.79305 18.6239 4.29023 17.121 4.29023 15.2763C4.29023 13.4315 5.79305 11.9287 7.63783 11.9287C9.48261 11.9287 10.9854 13.4315 10.9854 15.2762C10.9792 17.1212 9.48242 18.6239 7.63783 18.6239ZM7.63783 13.5275C6.67402 13.5275 5.88903 14.3124 5.88903 15.2763C5.88903 16.2401 6.67402 17.0251 7.63783 17.0251C8.60165 17.0251 9.38663 16.2401 9.38663 15.2763C9.38663 14.3124 8.60165 13.5275 7.63783 13.5275Z" fill="#323232" stroke="white" stroke-width="0.1"/>
<path d="M0.899609 5.04724V3.44844H8.43801V5.04724H0.899609Z" fill="#323232" stroke="white" stroke-width="0.1"/>
<path d="M1.74922 8.43786V6.83906H6.73942V8.43786H1.74922Z" fill="#323232" stroke="white" stroke-width="0.1"/>
</svg>
