<svg width="28" height="25" viewBox="0 0 28 25" fill="none" xmlns="http://www.w3.org/2000/svg">
<path d="M26.2148 14.0645L25.5636 14.4405L22.1795 8.57912C21.9718 8.21947 21.5119 8.09619 21.1522 8.30386L19.1984 9.43189L16.5663 4.87303C16.3587 4.51338 15.8987 4.3901 15.539 4.59777L9.02639 8.35783C8.66673 8.56548 8.54345 9.02544 8.75112 9.38513L11.7592 14.5953L13.8416 18.2021C13.3297 18.2011 12.8111 18.3298 12.3367 18.6036L5.69389 7.0979C5.59414 6.92513 5.42986 6.79914 5.23723 6.74756L1.12814 5.64649C0.727025 5.53902 0.31463 5.77711 0.207113 6.17825C0.0995966 6.57938 0.337693 6.99178 0.738866 7.09927L4.54708 8.11961L11.2365 19.7061C10.7191 20.6063 10.6802 21.7506 11.2357 22.7127C12.065 24.1492 13.9084 24.6431 15.3448 23.8138C16.3069 23.2583 16.8454 22.2479 16.8474 21.2095C16.9642 21.1421 26.7075 15.5168 26.9669 15.3671C27.3266 15.1594 27.4498 14.6995 27.2422 14.3398C27.0345 13.9801 26.5745 13.8569 26.2148 14.0645ZM14.5928 22.5112C13.8746 22.9259 12.9529 22.6789 12.5382 21.9607C12.1236 21.2425 12.3705 20.3208 13.0888 19.9062C13.807 19.4915 14.7286 19.7385 15.1433 20.4567C15.558 21.1749 15.311 22.0966 14.5928 22.5112ZM10.4297 9.28438L15.6398 6.27631L17.8959 10.1839L12.6858 13.192L10.4297 9.28438ZM24.261 15.1926L16.4459 19.7047L13.4378 14.4945C13.5418 14.4345 21.1508 10.0414 21.253 9.9824L24.2611 15.1925L24.261 15.1926Z" fill="white"/>
</svg>
