<svg width="53" height="53" viewBox="0 0 53 53" fill="none" xmlns="http://www.w3.org/2000/svg">
<path d="M36.3 52.8H16.4C7.39999 52.8 0 45.5 0 36.4V16.5C0 7.49998 7.29999 0.0999756 16.4 0.0999756H36.3C45.3 0.0999756 52.7 7.39997 52.7 16.5V36.4C52.7 45.5 45.4 52.8 36.3 52.8Z" fill="#333333"/>
<path fill-rule="evenodd" clip-rule="evenodd" d="M26.4001 51.9C12.4001 51.9 0.900146 40.5 0.900146 26.4C0.900146 12.4 12.3001 0.900024 26.4001 0.900024C40.4001 0.900024 51.9001 12.3 51.9001 26.4C51.9001 40.5 40.4001 51.9 26.4001 51.9Z" fill="#333333"/>
<path d="M26.4001 1.89997C39.9001 1.89997 51.0001 12.9 51.0001 26.5C51.0001 40 40.0001 51.1 26.4001 51.1C12.9001 51.1 1.80009 40.1 1.80009 26.5C1.80009 12.9 12.9001 1.89997 26.4001 1.89997ZM26.4001 0.0999756C11.9001 0.0999756 0.100098 11.9 0.100098 26.4C0.100098 40.9 11.9001 52.7 26.4001 52.7C40.9001 52.7 52.7001 40.9 52.7001 26.4C52.7001 11.9 40.9001 0.0999756 26.4001 0.0999756Z" fill="#333333"/>
<path d="M26.4 51.1C45.3 51.1 51 53.5 51 26.5C51 13 52.7 1.90002 26.4 1.90002C12.9 1.90002 1.80005 12.9 1.80005 26.5C1.80005 40 12.9 51.1 26.4 51.1Z" fill="#333333"/>
<g clip-path="url(#clip0)">
<path d="M27.9001 39.4L13.9001 38.1L11.7001 37L9.60009 22.6C9.50009 22.1 9.70007 21.7 9.90007 21.3C10.2001 20.9 10.6001 20.7 11.0001 20.7C12.4001 20.5 14.1001 20.4 15.9001 20.4C17.6001 20.4 19.4001 20.5 21.2001 20.6C25.7001 21 35.3001 23.8 35.7001 23.9H35.8001L41.8001 29.9L40.3001 31.8L39.9001 31.5C38.5001 30.3 37.2001 30.1 36.3001 29.9H36.2001C35.8001 29.8 35.4001 29.8 34.9001 29.8C32.7001 29.8 30.5001 30.8 29.1001 32.4C27.7001 34 27.2001 36.2 27.7001 38.7L27.9001 39.4ZM14.2001 37.1L26.7001 38.3C26.3001 35.1 27.4001 33 28.5001 31.8C30.1001 30 32.5001 28.9 35.0001 28.9C35.5001 28.9 36.0001 28.9 36.5001 29H36.6001C37.5001 29.2 38.8001 29.4 40.2001 30.5L40.5001 30.1L35.3001 24.9C34.1001 24.6 25.2001 22.1 21.1001 21.7C19.3001 21.5 17.5001 21.5 15.9001 21.5C13.7001 21.5 12.1001 21.6 11.2001 21.8C11.0001 21.8 10.9001 21.9 10.7001 22.1C10.6001 22.2 10.5001 22.4 10.6001 22.6L12.6001 36.5L14.2001 37.1Z" fill="white"/>
<path d="M54.2001 21.5001C52.1001 21.2001 50.3 21.0001 48.3 21.0001L48.6001 19.5001H54.2001L54.8 21.7001C54.7 21.6001 54.3001 21.5001 54.2001 21.5001Z" fill="white"/>
<path d="M33.1001 37.1001C33.1001 38.2001 34.0001 39.0001 35.1001 39.0001C36.2001 39.0001 37.1001 38.1001 37.1001 37.1001C37.1001 36.0001 36.2001 35.2001 35.1001 35.2001C34.0001 35.2001 33.1001 36.1001 33.1001 37.1001Z" fill="white"/>
<path d="M33.7002 36.1001H36.4002L35.7002 32.7001H34.4002L33.7002 36.1001Z" fill="white"/>
<path d="M36.6001 36.5001L35.3 38.8001L38.7001 39.9001L39.3 38.8001L36.6001 36.5001Z" fill="white"/>
<path d="M34.8 38.8001L33.5001 36.5001L30.8 38.8001L31.5001 39.9001L34.8 38.8001Z" fill="white"/>
<path d="M42.2002 26.1H61.9001C61.9001 26.1 62.1002 23.8 61.1002 23.3C60.1002 22.8 57.0001 22.2 54.4001 21.9C46.4001 20.9 41.9001 21.6 41.9001 21.6L42.2002 26.1Z" fill="white"/>
<path d="M44.8 28.0001V26.6001H58.6001V29.9001L44.8 28.0001Z" fill="white"/>
<path d="M28.5 37.1001C28.5 33.6001 31.4 30.7001 35 30.7001C38.6 30.7001 41.5 33.6001 41.5 37.1001C41.5 40.6001 38.6 43.5001 35 43.5001C31.5 43.5001 28.5 40.6001 28.5 37.1001ZM30.9 37.1001C30.9 39.4001 32.8 41.2001 35.1 41.2001C37.4 41.2001 39.3 39.4001 39.3 37.1001C39.3 34.8001 37.4 33.0001 35.1 33.0001C32.7 33.0001 30.9 34.9001 30.9 37.1001Z" fill="white"/>
<path d="M24.2 36.0001H24.0999C23.8999 36.0001 23.7 35.8001 23.7 35.6001C23.7 35.4001 23.8999 35.2001 24.0999 35.2001H24.2C24.4 35.2001 24.5999 35.4001 24.5999 35.6001C24.5999 35.9001 24.4 36.0001 24.2 36.0001Z" fill="#F76600" stroke="#F76600" stroke-width="0.2925" stroke-miterlimit="10"/>
<path d="M21.7 35.8H21.5999C21.3999 35.8 21.2 35.6 21.2 35.4C21.2 35.2 21.3999 35 21.5999 35H21.7C21.9 35 22.0999 35.2 22.0999 35.4C22.0999 35.7 21.9 35.8 21.7 35.8Z" fill="#F76600" stroke="#F76600" stroke-width="0.2925" stroke-miterlimit="10"/>
<path d="M19.2 35.7H19.1C18.9 35.7 18.7 35.5 18.7 35.3C18.7 35.1 18.9 34.9 19.1 34.9H19.2C19.4 34.9 19.6 35.1 19.6 35.3C19.6 35.5 19.5 35.7 19.2 35.7Z" fill="#F76600" stroke="#F76600" stroke-width="0.2925" stroke-miterlimit="10"/>
<path d="M16.8 35.5001H16.7C16.5 35.5001 16.3 35.3001 16.3 35.1001C16.3 34.9001 16.5 34.7001 16.7 34.7001H16.8C17 34.7001 17.2 34.9001 17.2 35.1001C17.2 35.3001 17 35.5001 16.8 35.5001Z" fill="#F76600" stroke="#F76600" stroke-width="0.2925" stroke-miterlimit="10"/>
<path d="M14.3 35.3H14.2C14 35.3 13.8 35.1 13.8 34.9C13.8 34.7 14 34.5 14.2 34.5H14.3C14.5 34.5 14.7 34.7 14.7 34.9C14.7 35.1 14.5 35.3 14.3 35.3Z" fill="#F76600" stroke="#F76600" stroke-width="0.2925" stroke-miterlimit="10"/>
<path d="M25.4 32.9001C25.3 32.9001 25.3 32.9001 25.4 32.9001H25.3C25.1 32.9001 24.9 32.7001 25 32.5001C25 32.3001 25.2 32.1001 25.4 32.2001H25.5C25.7 32.2001 25.9 32.4001 25.8 32.6001C25.7 32.7001 25.5 32.9001 25.4 32.9001Z" fill="#F76600" stroke="#F76600" stroke-width="0.2925" stroke-miterlimit="10"/>
<path d="M22.9 32.7H22.8C22.6 32.7 22.4 32.5 22.5 32.3C22.5 32.1 22.7 31.9 22.9 32H23C23.2 32 23.4 32.2 23.3 32.4C23.2 32.6 23.1 32.7 22.9 32.7Z" fill="#F76600" stroke="#F76600" stroke-width="0.2925" stroke-miterlimit="10"/>
<path d="M20.4 32.6H20.3C20.1 32.6 19.9 32.4 20 32.2C20 32 20.2 31.8 20.4 31.9H20.5C20.7 31.9 20.9 32.1 20.8 32.3C20.8 32.4 20.6 32.6 20.4 32.6Z" fill="#F76600" stroke="#F76600" stroke-width="0.2925" stroke-miterlimit="10"/>
<path d="M17.9 32.4001H17.8C17.6 32.4001 17.4 32.2001 17.5 32.0001C17.5 31.8001 17.7 31.6001 17.9 31.7001H18C18.2 31.7001 18.4 31.9001 18.3 32.1001C18.3 32.3001 18.1 32.4001 17.9 32.4001Z" fill="#F76600" stroke="#F76600" stroke-width="0.2925" stroke-miterlimit="10"/>
<path d="M15.5001 32.3001C15.4001 32.3001 15.4001 32.3001 15.5001 32.3001H15.4001C15.2001 32.3001 15.0001 32.1001 15.1001 31.9001C15.1001 31.7001 15.3001 31.5001 15.5001 31.6001H15.6001C15.8001 31.6001 16.0001 31.8001 15.9001 32.0001C15.8001 32.1001 15.6001 32.3001 15.5001 32.3001Z" fill="#F76600" stroke="#F76600" stroke-width="0.2925" stroke-miterlimit="10"/>
<path d="M13.0001 32.1H12.9001C12.7001 32.1 12.5001 31.9 12.6001 31.7C12.6001 31.5 12.8001 31.3 13.0001 31.4H13.1001C13.3001 31.4 13.5001 31.6 13.4001 31.8C13.3001 32 13.2001 32.1 13.0001 32.1Z" fill="#F76600" stroke="#F76600" stroke-width="0.2925" stroke-miterlimit="10"/>
<path d="M29.0001 29.7001H28.9001C28.7001 29.7001 28.6001 29.5001 28.6001 29.4001C28.6001 29.2001 28.8001 29.1001 28.9001 29.1001H29.0001C29.2001 29.1001 29.3001 29.3001 29.3001 29.4001C29.3001 29.6001 29.2001 29.7001 29.0001 29.7001Z" fill="#F76600" stroke="#F76600" stroke-width="0.2925" stroke-miterlimit="10"/>
<path d="M26.5001 29.6H26.4001C26.2001 29.6 26.1001 29.4 26.1001 29.3C26.1001 29.1 26.3001 29 26.4001 29H26.5001C26.7001 29 26.8001 29.2 26.8001 29.3C26.8001 29.5 26.7001 29.6 26.5001 29.6Z" fill="#F76600" stroke="#F76600" stroke-width="0.2925" stroke-miterlimit="10"/>
<path d="M24.0001 29.5H23.9001C23.7001 29.5 23.6001 29.3 23.6001 29.2C23.6001 29 23.8001 28.9 23.9001 28.9H24.0001C24.2001 28.9 24.3001 29.1 24.3001 29.2C24.3001 29.4 24.2001 29.5 24.0001 29.5Z" fill="#F76600" stroke="#F76600" stroke-width="0.2925" stroke-miterlimit="10"/>
<path d="M21.5999 29.4001H21.4999C21.2999 29.4001 21.2 29.2 21.2 29.1C21.2 28.9 21.3999 28.8 21.4999 28.8H21.5999C21.7999 28.8 21.8999 29 21.8999 29.1C21.8999 29.3 21.6999 29.4001 21.5999 29.4001Z" fill="#F76600" stroke="#F76600" stroke-width="0.2925" stroke-miterlimit="10"/>
<path d="M19.1 29.3001H19C18.8 29.3001 18.7 29.1001 18.7 29.0001C18.7 28.8001 18.9 28.7001 19 28.7001H19.1C19.3 28.7001 19.3999 28.9001 19.3999 29.0001C19.3999 29.2001 19.3 29.3001 19.1 29.3001Z" fill="#F76600" stroke="#F76600" stroke-width="0.2925" stroke-miterlimit="10"/>
<path d="M16.6 29.3001H16.5C16.3 29.3001 16.2 29.1001 16.2 29.0001C16.2 28.8001 16.4 28.7001 16.5 28.7001H16.6C16.8 28.7001 16.8999 28.9001 16.8999 29.0001C16.8999 29.1001 16.8 29.3001 16.6 29.3001Z" fill="#F76600" stroke="#F76600" stroke-width="0.2925" stroke-miterlimit="10"/>
<path d="M14.1 29.2001H14C13.8 29.2001 13.7 29.0001 13.7 28.9001C13.7 28.7001 13.9 28.6001 14 28.6001H14.1C14.3 28.6001 14.3999 28.8001 14.3999 28.9001C14.3999 29.0001 14.3 29.2001 14.1 29.2001Z" fill="#F76600" stroke="#F76600" stroke-width="0.2925" stroke-miterlimit="10"/>
<path d="M37.5999 26.6H37.4999C37.3999 26.6 37.2 26.5 37.2 26.3C37.2 26.2 37.2999 26 37.4999 26H37.5999C37.6999 26 37.8999 26.1 37.8999 26.3C37.7999 26.4 37.6999 26.6 37.5999 26.6Z" fill="#F76600" stroke="#F76600" stroke-width="0.2925" stroke-miterlimit="10"/>
<path d="M35.0999 26.5H34.9999C34.8999 26.5 34.7 26.4 34.7 26.2C34.7 26.1 34.7999 25.9 34.9999 25.9H35.0999C35.1999 25.9 35.3999 26 35.3999 26.2C35.3999 26.4 35.2999 26.5 35.0999 26.5Z" fill="#F76600" stroke="#F76600" stroke-width="0.2925" stroke-miterlimit="10"/>
<path d="M32.5999 26.5H32.4999C32.3999 26.5 32.2 26.4 32.2 26.2C32.2 26.1 32.2999 25.9 32.4999 25.9H32.5999C32.6999 25.9 32.8999 26 32.8999 26.2C32.8999 26.3 32.7999 26.5 32.5999 26.5Z" fill="#F76600" stroke="#F76600" stroke-width="0.2925" stroke-miterlimit="10"/>
<path d="M30.0999 26.4001H29.9999C29.8999 26.4001 29.7 26.3 29.7 26.1C29.7 26 29.7999 25.8 29.9999 25.8H30.0999C30.1999 25.8 30.3999 25.9 30.3999 26.1C30.3999 26.3 30.2999 26.4001 30.0999 26.4001Z" fill="#F76600" stroke="#F76600" stroke-width="0.2925" stroke-miterlimit="10"/>
<path d="M27.7001 26.4001H27.6001C27.5001 26.4001 27.3 26.3 27.3 26.1C27.3 26 27.4001 25.8 27.6001 25.8H27.7001C27.8001 25.8 28.0001 25.9 28.0001 26.1C27.9001 26.3 27.8001 26.4001 27.7001 26.4001Z" fill="#F76600" stroke="#F76600" stroke-width="0.2925" stroke-miterlimit="10"/>
<path d="M25.2001 26.3001H25.1001C25.0001 26.3001 24.8 26.2001 24.8 26.0001C24.8 25.9001 24.9001 25.7001 25.1001 25.7001H25.2001C25.3001 25.7001 25.5001 25.8001 25.5001 26.0001C25.5001 26.2001 25.3001 26.3001 25.2001 26.3001Z" fill="#F76600" stroke="#F76600" stroke-width="0.2925" stroke-miterlimit="10"/>
<path d="M22.7001 26.3001H22.6001C22.5001 26.3001 22.3 26.2001 22.3 26.0001C22.3 25.9001 22.4001 25.7001 22.6001 25.7001H22.7001C22.8001 25.7001 23.0001 25.8001 23.0001 26.0001C23.0001 26.2001 22.9001 26.3001 22.7001 26.3001Z" fill="#F76600" stroke="#F76600" stroke-width="0.2925" stroke-miterlimit="10"/>
<path d="M20.2001 26.2001H20.1001C20.0001 26.2001 19.8 26.1001 19.8 25.9001C19.8 25.7001 19.9001 25.6001 20.1001 25.6001H20.2001C20.3001 25.6001 20.5001 25.7001 20.5001 25.9001C20.5001 26.1001 20.4001 26.2001 20.2001 26.2001Z" fill="#F76600" stroke="#F76600" stroke-width="0.2925" stroke-miterlimit="10"/>
<path d="M17.7999 26.2001H17.6999C17.5999 26.2001 17.3999 26.1001 17.3999 25.9001C17.3999 25.8001 17.4999 25.6001 17.6999 25.6001H17.7999C17.8999 25.6001 18.0999 25.7001 18.0999 25.9001C17.9999 26.1001 17.8999 26.2001 17.7999 26.2001Z" fill="#F76600" stroke="#F76600" stroke-width="0.2925" stroke-miterlimit="10"/>
<path d="M15.2999 26.1H15.1999C15.0999 26.1 14.8999 26 14.8999 25.8C14.8999 25.7 14.9999 25.5 15.1999 25.5H15.2999C15.3999 25.5 15.5999 25.6 15.5999 25.8C15.4999 26 15.3999 26.1 15.2999 26.1Z" fill="#F76600" stroke="#F76600" stroke-width="0.2925" stroke-miterlimit="10"/>
<path d="M12.7999 26.1H12.6999C12.5999 26.1 12.3999 26 12.3999 25.8C12.3999 25.7 12.4999 25.5 12.6999 25.5H12.7999C12.8999 25.5 13.0999 25.6 13.0999 25.8C13.0999 26 12.8999 26.1 12.7999 26.1Z" fill="#F76600" stroke="#F76600" stroke-width="0.2925" stroke-miterlimit="10"/>
<path d="M26.3 23.2001H26.2C26.1 23.2001 26 23.1 26 23C26 22.9 26.1 22.8 26.2 22.8H26.3C26.4 22.8 26.5 22.9 26.5 23C26.6 23.1 26.5 23.2001 26.3 23.2001Z" fill="#F76600" stroke="#F76600" stroke-width="0.2925" stroke-miterlimit="10"/>
<path d="M23.9001 23.2001H23.8001C23.7001 23.2001 23.6001 23.1 23.6001 23C23.6001 22.9 23.7001 22.8 23.8001 22.8H23.9001C24.0001 22.8 24.1001 22.9 24.1001 23C24.1001 23.1 24.0001 23.2001 23.9001 23.2001Z" fill="#F76600" stroke="#F76600" stroke-width="0.2925" stroke-miterlimit="10"/>
<path d="M21.4001 23.2001H21.3001C21.2001 23.2001 21.1001 23.1 21.1001 23C21.1001 22.9 21.2001 22.8 21.3001 22.8H21.4001C21.5001 22.8 21.6001 22.9 21.6001 23C21.6001 23.1 21.5001 23.2001 21.4001 23.2001Z" fill="#F76600" stroke="#F76600" stroke-width="0.2925" stroke-miterlimit="10"/>
<path d="M18.9001 23.2001H18.8001C18.7001 23.2001 18.6001 23.1 18.6001 23C18.6001 22.9 18.7001 22.8 18.8001 22.8H18.9001C19.0001 22.8 19.1001 22.9 19.1001 23C19.1001 23.1 19.0001 23.2001 18.9001 23.2001Z" fill="#F76600" stroke="#F76600" stroke-width="0.2925" stroke-miterlimit="10"/>
<path d="M16.4001 23.2001H16.3001C16.2001 23.2001 16.1001 23.1 16.1001 23C16.1001 22.9 16.2001 22.8 16.3001 22.8H16.4001C16.5001 22.8 16.6001 22.9 16.6001 23C16.6001 23.1 16.5001 23.2001 16.4001 23.2001Z" fill="#F76600" stroke="#F76600" stroke-width="0.2925" stroke-miterlimit="10"/>
<path d="M13.9001 23.2001H13.8001C13.7001 23.2001 13.6001 23.1 13.6001 23C13.6001 22.9 13.7001 22.8 13.8001 22.8H13.9001C14.0001 22.8 14.1001 22.9 14.1001 23C14.2001 23.1 14.1001 23.2001 13.9001 23.2001Z" fill="#F76600" stroke="#F76600" stroke-width="0.2925" stroke-miterlimit="10"/>
<path d="M11.5 23.2001H11.3999C11.2999 23.2001 11.2 23.1 11.2 23C11.2 22.9 11.2999 22.8 11.3999 22.8H11.5C11.6 22.8 11.7 22.9 11.7 23C11.7 23.1 11.6 23.2001 11.5 23.2001Z" fill="#F76600" stroke="#F76600" stroke-width="0.2925" stroke-miterlimit="10"/>
<path d="M26.7001 22.4001C26.6001 22.4001 26.8001 22.1001 26.8001 22.0001C25.2001 20.0001 23.1001 19.2001 21.3001 19.2001C18.6001 19.1001 16.5001 20.5001 16.2001 20.8001C16.0001 20.9001 16.1001 21.3001 16.0001 21.2001C15.8001 21.1001 15.8001 20.8001 16.0001 20.7001C16.1001 20.6001 18.3001 18.4001 21.4001 18.5001C23.4001 18.6001 25.4001 19.7001 27.1001 21.9001C27.2001 22.1001 27.2001 22.3001 27.0001 22.4001C26.9001 22.4001 26.8001 22.4001 26.7001 22.4001Z" fill="white"/>
<path d="M63.8 37.8001C63.8 36.4001 64.3001 35.1001 65.0001 34.1001L63.2001 33.3001C63.0001 33.2001 62.8001 33.1001 62.7001 32.9001L61.9001 31.7001C61.6001 31.2001 61.0001 30.8001 60.4001 30.7001L40.5001 27.9001C40.5001 27.9001 38.3001 27.6001 37.9001 27.6001C37.6001 27.6001 37.1 28.4001 36.8 29.1001L39.6001 30.4001V31.4001C40.9001 32.4001 41.9001 33.9001 42.2001 35.5001C42.7001 37.8001 42.1 39.9001 40.8 41.6001H43.6001H62.0001H64.9001C64.3001 40.5001 63.8 39.2001 63.8 37.8001ZM44.4001 31.2001L60.0001 32.8001C60.1001 32.8001 60.2001 32.9001 60.2001 33.0001C60.2001 33.1001 60.1001 33.2001 60.0001 33.2001L44.4001 31.6001C44.3001 31.6001 44.2001 31.5001 44.2001 31.4001C44.2001 31.3001 44.3001 31.2001 44.4001 31.2001ZM60.0001 38.0001H44.0001C43.9001 38.0001 43.8 37.9001 43.8 37.8001C43.8 37.7001 43.9001 37.6001 44.0001 37.6001H60.0001C60.1001 37.6001 60.2001 37.7001 60.2001 37.8001C60.2001 37.9001 60.1001 38.0001 60.0001 38.0001Z" fill="white"/>
<path d="M26.8 14.5001L22.9 10.7001L23.7 6.80007C23.7 6.70007 23.8 6.60007 23.9 6.60007L27.3 5.00007C27.6 4.90007 27.7 4.60007 27.6 4.30007C27.5 4.00007 27.2 3.90007 26.9 4.10007L23.5 5.70007C23.1 5.90007 22.8 6.20007 22.7 6.70007L22 10.0001L21.9 9.90007V4.00007C21.9 3.60007 21.5 3.20007 21.1 3.20007C20.6 3.20007 20.3 3.60007 20.3 4.00007V10.4001L22.4 12.4001L20.5 13.2001C20.4 13.2001 20.3 13.2001 20.2 13.2001L18 12.2001C17.9 12.2001 17.8 12.1001 17.8 11.9001L17.1 8.30007C17 8.00007 16.8 7.80007 16.5 7.90007C16.2 7.90007 16 8.20007 16.1 8.50007L16.8 12.1001C16.9 12.5001 17.2 12.9001 17.6 13.1001L19.8 14.1001C20 14.2001 20.2 14.2001 20.4 14.2001C20.6 14.2001 20.8 14.2001 21 14.1001L23.3 13.1001L25.8 15.5001C25.7 15.1001 26.2 14.6001 26.8 14.5001Z" fill="white"/>
<path d="M40.7999 28.3001L28.4999 16.2001C28.3999 16.8001 27.9999 17.2001 27.3999 17.4001L39.5999 29.4001C39.7999 29.6001 39.9999 29.6001 40.1999 29.6001C40.3999 29.6001 40.5999 29.5001 40.7999 29.4001C41.0999 29.1001 41.0999 28.6001 40.7999 28.3001Z" fill="white"/>
<path d="M27 17.0001C27.5523 17.0001 28 16.5524 28 16.0001C28 15.4478 27.5523 15.0001 27 15.0001C26.4477 15.0001 26 15.4478 26 16.0001C26 16.5524 26.4477 17.0001 27 17.0001Z" fill="white"/>
</g>
<path d="M36.3 52.3H16.4C7.67415 52.3 0.5 45.2219 0.5 36.4V16.5C0.5 7.77413 7.57812 0.599976 16.4 0.599976H36.3C45.0258 0.599976 52.2 7.6781 52.2 16.5V36.4C52.2 45.2238 45.1238 52.3 36.3 52.3Z" stroke="#333333"/>
<defs>
<clipPath id="clip0">
<rect x="10" width="42" height="53" rx="10" fill="white"/>
</clipPath>
</defs>
</svg>
