<svg width="28" height="21" viewBox="0 0 28 21" fill="none" xmlns="http://www.w3.org/2000/svg">
<path d="M26.2148 10.0645L25.5636 10.4405L22.1795 4.57912C21.9718 4.21947 21.5119 4.09619 21.1522 4.30386L19.1984 5.43189L16.5663 0.873035C16.3587 0.513379 15.8987 0.390101 15.539 0.597771L9.02639 4.35783C8.66673 4.56548 8.54345 5.02544 8.75112 5.38513L11.7592 10.5953L13.8416 14.2021C13.3297 14.2011 12.8111 14.3298 12.3367 14.6036L5.69389 3.0979C5.59414 2.92513 5.42986 2.79914 5.23723 2.74756L1.12814 1.64649C0.727025 1.53902 0.31463 1.77711 0.207113 2.17825C0.0995966 2.57938 0.337693 2.99178 0.738866 3.09927L4.54708 4.11961L11.2365 15.7061C10.7191 16.6063 10.6802 17.7506 11.2357 18.7127C12.065 20.1492 13.9084 20.6431 15.3448 19.8138C16.3069 19.2583 16.8454 18.2479 16.8474 17.2095C16.9642 17.1421 26.7075 11.5168 26.9669 11.3671C27.3266 11.1594 27.4498 10.6995 27.2422 10.3398C27.0345 9.98007 26.5745 9.85685 26.2148 10.0645ZM14.5928 18.5112C13.8746 18.9259 12.9529 18.6789 12.5382 17.9607C12.1236 17.2425 12.3705 16.3208 13.0888 15.9062C13.807 15.4915 14.7286 15.7385 15.1433 16.4567C15.558 17.1749 15.311 18.0966 14.5928 18.5112ZM10.4297 5.28438L15.6398 2.27631L17.8959 6.18392L12.6858 9.19199L10.4297 5.28438ZM24.261 11.1926L16.4459 15.7047L13.4378 10.4945C13.5418 10.4345 21.1508 6.04138 21.253 5.9824L24.2611 11.1925L24.261 11.1926Z" fill="#323232"/>
</svg>
