<svg width="53" height="53" viewBox="0 0 53 53" fill="none" xmlns="http://www.w3.org/2000/svg">
<path d="M36.5 52.8H16.6C7.59995 52.8 0.199951 45.5 0.199951 36.4V16.5C0.199951 7.49998 7.49995 0.0999756 16.6 0.0999756H36.5C45.5 0.0999756 52.8999 7.39997 52.8999 16.5V36.4C52.8999 45.5 45.5 52.8 36.5 52.8Z" fill="#333333"/>
<path fill-rule="evenodd" clip-rule="evenodd" d="M26.5 1C40.5 1 52 12.4 52 26.5C52 40.5 40.6 52 26.5 52C12.5 52 1 40.6 1 26.5C1.1 12.4 12.5 1 26.5 1Z" fill="#333333"/>
<path d="M26.5 51.0999C13 51.0999 1.89996 40.1 1.89996 26.5C1.89996 13 12.9 1.89995 26.5 1.89995C40 1.89995 51.1 12.9 51.1 26.5C51.1 40 40.1 51.0999 26.5 51.0999ZM26.5 52.8C41 52.8 52.8 41 52.8 26.5C52.8 12 41 0.199951 26.5 0.199951C12 0.199951 0.199951 12 0.199951 26.5C0.199951 41 12 52.8 26.5 52.8Z" fill="#333333"/>
<path d="M11.5 22.8999C11.5 22.8999 9.5 23.4999 9.1 23.9999C8.6 24.4999 8.2 25.3999 7.6 25.5999C7 25.8999 5.8 26.2999 5.8 26.2999C5.8 26.2999 7.5 26.4999 8.2 26.3999C8.8 26.1999 9.7 25.6999 10.4 25.1999C11 24.6999 12.9 24.3999 12.9 24.3999L12 25.4999C12 25.4999 10.9 25.1999 9.8 26.2999C9.3 26.7999 7.8 27.3999 7.8 27.3999C7.8 27.3999 8.2 27.7999 9.2 27.6999C9.7 27.5999 10.4 27.3999 10.4 27.3999C10.4 27.3999 10 28.1999 9.1 28.4999C8.2 28.7999 6.3 29.1999 6.3 29.1999C6.3 29.1999 8.5 31.8999 10.5 32.8999C14.7 34.8999 15 38.3999 16.4 40.3999C18 42.5999 20.6 43.9999 23 45.0999C23.7 45.3999 25.3 46.3999 26 45.8999C26.6 45.4999 26.5 44.1999 26.5 43.5999C26.6 42.6999 26.3 42.3999 26.3 41.5999C26.3 40.0999 26.5 38.2999 26.2 36.8999C25.6 34.3999 24.1 32.4999 24.2 29.0999C24.6 30.8999 25.3 32.4999 26.1 33.9999C26.6 31.8999 27.3 30.4999 28.3 28.7999C28.5 28.3999 28.6 28.2999 28.3 27.9999C28 27.5999 27.4 27.2999 27.1 26.7999C26.6 26.1999 26.3 25.3999 26.2 24.6999C26 22.4999 27.5 20.0999 27.5 20.0999C27.5 20.0999 26.9 24.1999 27.8 25.7999C28.7 27.3999 31.4 28.5999 32.3 28.5999C33.1 28.5999 34.6 27.8999 34.6 27.8999L41.5 31.2999C41.5 31.2999 42.7 32.6999 43.4 33.1999C44.2 33.5999 44.9 33.0999 44.9 33.0999C44.9 33.0999 43.8 31.8999 43.3 31.4999C42.8 31.0999 41.7 29.9999 41.7 29.9999C41.7 29.9999 43.1 30.4999 44.1 31.1999C44.8 31.6999 45.6 32.3999 45.6 32.3999C45.6 32.3999 46.1 32.4999 46.4 32.1999C46.8 31.7999 47 31.0999 47 30.2999C47 29.9999 47.1 29.7999 47.2 29.4999C47.3 29.2999 47.3 29.0999 47.3 28.8999C47.3 28.5999 47.2 28.3999 47.2 28.0999C47.2 27.9999 47.2 27.8999 47.2 27.8999C47.2 27.5999 47.2 27.2999 47.1 27.0999C47 26.8999 46.9 26.5999 46.7 26.3999C46.4 25.8999 46 25.3999 45.5 25.0999C45.3 24.9999 45 24.7999 44.8 24.6999C44.3 24.4999 43.7 23.5999 43.4 23.2999C43 22.7999 42.5 22.2999 42.1 21.8999C41.7 21.4999 40.8 20.7999 40.8 20.7999C40.8 20.7999 40.1 19.6999 39.7 19.2999C39.3 18.8999 38 17.6999 37.6 17.2999C37.3 16.8999 37.1 16.3999 37 15.9999C36.9 15.7999 36.8 15.4999 36.7 15.2999C36.3 14.6999 35.4 14.5999 34.8 14.2999C34.1 13.8999 34.6 14.0999 34 13.5999C33.9 13.4999 33.1 12.5999 33 12.6999C33 12.6999 33.8 12.2999 33.8 10.7999C33.8 9.79991 34.3 9.19991 34.8 8.59991C35.2 8.19991 35.2 7.79991 34.8 8.09991C33.6 8.89991 32.7 8.79991 31.6 10.0999C31.5 10.1999 31.4 10.2999 31.4 10.4999C31.4 9.49991 31.9 8.89991 32.4 8.39991C32.8 7.99991 32.8 7.59991 32.4 7.89991C31.2 8.69991 30.3 8.59991 29.2 9.89991C29 10.1999 28.7 10.8999 28.6 11.2999H28.5C27.1 11.1999 26.1 11.7999 24.9 11.4999C23.7 11.1999 21.6 10.3999 21.6 10.3999C21.6 10.3999 22 11.1999 22.8 11.5999C23.6 12.0999 24.9 12.4999 24.9 12.4999C24.9 12.4999 23.4 12.2999 22 12.8999C20.6 13.3999 19.6 14.1999 18.8 14.2999C18 14.3999 15.5 14.0999 15.5 14.0999C15.5 14.0999 17 15.1999 18.5 15.1999C20 15.1999 21.5 14.8999 22 14.6999C22.6 14.4999 23.2 14.5999 23.2 14.5999L20.1 16.0999C20.1 16.0999 18.2 16.1999 16.6 16.4999C15 16.7999 13.5 17.4999 12.5 17.5999C11.5 17.7999 10.4 17.8999 10.4 17.8999C10.4 17.8999 10.9 18.2999 12 18.3999C13 18.4999 15.1 17.9999 15.1 17.9999C15.1 17.9999 14 18.4999 13.2 18.9999C12.4 19.4999 12.1 20.0999 11.2 19.9999C10.4 19.8999 9.8 19.5999 9.8 19.5999C9.8 19.5999 10.9 20.3999 11.9 20.4999C12.9 20.5999 14.2 19.7999 14.7 19.6999C15.2 19.4999 16.3 19.4999 16.3 19.4999C15.7 19.9999 15.6 20.2999 15 20.6999C14.4 21.0999 13.8 21.1999 12.7 21.0999C11.6 20.9999 9.5 21.4999 8.5 21.8999C7.4 22.2999 6.2 23.2999 5 23.1999C8.5 24.3999 8.7 22.9999 10.5 23.0999" fill="white"/>
<path d="M18.7999 37.8C18.3999 37.2 18.0999 36.5 17.8999 35.8C17.5999 34.9 17.4999 34 17.3999 33L17.4999 32.1C17.4999 32.9 17.6999 33.8 17.8999 34.5C18.8999 37.4 20.9999 39.9 23.0999 42.2C21.2999 41.4 19.8999 39.6 18.7999 37.8Z" fill="#333333" stroke="#333333" stroke-width="0.2925" stroke-miterlimit="10"/>
<path d="M24.2 25.4999C23.9 25.8999 23.4 26.1999 23 26.5999C21.6 27.6999 20.5 29.1999 19.8 30.7999C19.8 29.6999 20.3 28.6999 20.8 27.7999C21.1 27.1999 21.5 26.5999 22 26.0999C22.3 25.7999 22.7 25.5999 23 25.2999C24.1 24.4999 24.8 23.1999 25 21.8999C25 23.1999 25 24.4999 24.2 25.4999Z" fill="#333333" stroke="#333333" stroke-width="0.2925" stroke-miterlimit="10"/>
<path d="M32.3 14.8C32.4 14.9 32.5 15 32.6 15.1C33.2 15.6 34 15.9 34.9 15.9C35.2 15.9 35.5 15.9 35.7 15.8C35.9 15.7 36 15.6 36.1 15.5C36.1 15.5 36.2 15.4 36.3 15.4C36.3 15.5 36.2 15.7 36.1 15.8C36 15.9 35.9 16 35.7 16H35.6C35.7 16.1 35.8 16.4 35.8 16.8C35.8 17.4 35.6 17.6 35.3 17.9C35.6 18.1 35.7 18.4 35.8 18.7C35.8 18.8 35.8 18.8 35.8 18.9C35.8 19 35.7 19 35.6 19C35.4 19 35.3 18.6 35.2 18.4C35.1 18.2 34.9 18 34.7 17.8C34.4 17.6 34 17.4 33.7 17.2C33.5 17.1 33.3 17.1 33.1 16.9C32.7 16.6 32.5 15.9 32.9 15.5C32.7 16.3 33 16.6 33.3 16.8C33.3 16.8 33.3 16.8 33.2 16.7C33 16.5 33.1 15.8 33.2 15.7C32.5 15.3 31.9 14.7 31.5 14C32 14.5 32.2 14.7 32.3 14.8Z" fill="#333333"/>
<path d="M34.2999 23.5999C34.6999 21.9999 34.2999 21.2999 33.8999 20.2999C33.4999 19.3999 32.8999 18.6999 32.3999 17.8999C33.1999 18.4999 33.7999 19.1999 34.4999 20.3999C34.8999 21.0999 35.1999 21.6999 35.7999 21.9999C36.1999 22.1999 36.7999 22.4999 37.0999 22.7999C37.1999 22.8999 37.1999 22.9999 37.1999 23.0999C36.9999 23.0999 36.8999 22.9999 36.6999 22.9999C35.7999 22.7999 34.9999 23.1999 34.2999 23.5999Z" fill="#333333" stroke="#333333" stroke-width="0.2925" stroke-miterlimit="10"/>
<path d="M41.4998 27.9C41.1998 27.7 40.7998 27.5 40.3998 27.5C40.1998 27.5 39.9999 27.4999 39.7999 27.5999C39.5999 27.5999 39.4998 27.8 39.3998 28C38.6998 27.8 40.2998 26.9 36.8998 25C36.7998 25 36.6998 25 36.6998 24.9C36.5998 24.8 36.5999 24.8 36.5999 24.7C38.6999 25.4 40.6998 26.6 41.4998 27.9Z" fill="#333333" stroke="#333333" stroke-width="0.2925" stroke-miterlimit="10"/>
<path d="M44.3 26.1C44.3 26.2 44.2 26.3 44.1 26.4C43.9 26.7 43.8 27.1 43.8 27.4C43.8 27.7 43.9 28.1 44 28.4C43.6 28.2 43.4 27.8 43.3 27.4C43.3 27.3 43.3 27.2 43.3 27.1C43.3 26.4 43.7 25.9 43.3 25.3C43.2 25.1 42.7 24.8 42.5 24.6C42.3 24.4 42 24.1 41.8 23.9C41.8 23.8 41.7 23.8 41.7 23.7C41.7 23.6 41.7999 23.5 41.8999 23.5C42.8999 24.1 43.6 24.9 44.2 25.8C44.2 25.9 44.3 26 44.3 26.1Z" fill="#333333" stroke="#333333" stroke-width="0.2925" stroke-miterlimit="10"/>
<path d="M46.5999 29C46.5999 29.1 46.4999 29.3 46.3999 29.4C46.2999 29.5 46.1999 29.7 45.9999 29.7C45.7999 29.7 45.5999 29.7 45.4999 29.6C45.2999 29.4 45.0999 29.2 44.9999 28.9C44.8999 28.6 44.8999 28.3 44.8999 28.1C44.8999 27.8 44.8999 27.5 44.8999 27.2C44.8999 27.1 44.8999 26.9 44.9999 26.8C45.0999 26.7 45.0999 26.6 45.2999 26.6C45.3999 26.6 45.4999 26.6 45.6999 26.7C45.9999 26.8 46.1999 27 46.3999 27.3C46.4999 27.4 46.4999 27.5 46.4999 27.6C46.4999 27.7 46.3999 27.8 46.2999 27.8C46.2999 27.8 46.2999 27.8 46.1999 27.8C46.0999 27.8 45.9999 27.8 45.9999 27.9C45.9999 28 45.9999 28 45.9999 28.1C45.9999 28.2 45.9999 28.4 46.0999 28.5C46.1999 28.6 46.1999 28.6 46.2999 28.6C46.4999 28.4 46.5999 28.7 46.5999 29Z" fill="#333333"/>
<path d="M24.2 12.2999C23.5 12.5999 22.8 12.8999 22.1 13.1999C21.4 13.4999 20.8 13.7999 20 14.0999C19.6 14.1999 19.2 14.2999 18.8 14.3999C18.4 14.4999 18 14.4999 17.6 14.4999C16.8 14.4999 16.1 14.4999 15.3 14.3999L15.6 13.4999C16 13.7999 16.4 14.0999 16.9 14.3999C17.4 14.6999 17.8 14.8999 18.4 14.9999C17.8 15.0999 17.2 15.0999 16.7 14.9999C16.1 14.8999 15.6 14.6999 15.1 14.3999L13.3 13.3999L15.4 13.4999C16.1 13.4999 16.9 13.4999 17.6 13.4999C18 13.4999 18.3 13.3999 18.7 13.3999C19 13.3999 19.3 13.1999 19.7 13.0999C20.4 12.8999 21.1 12.5999 21.9 12.4999C22.7 12.1999 23.4 12.1999 24.2 12.2999Z" fill="#F76600"/>
<path d="M28.8 10.9999C28.2 11.1999 27.6 11.2999 27.1 11.4999C26.5 11.6999 25.8 11.7999 25.1 11.6999C24.4 11.5999 23.8 11.3999 23.3 11.1999C22.7 10.9999 22.2 10.6999 21.6 10.3999L22.1 9.79993C22.2 9.99993 22.3 10.2999 22.4 10.4999C22.5 10.6999 22.7 10.9999 22.9 11.1999C22.6 11.0999 22.3 10.9999 22.1 10.7999C21.8 10.5999 21.6 10.3999 21.4 10.0999L20.8 9.29993L21.9 9.59993C22.5 9.69993 23.1 9.89993 23.6 10.0999C24.2 10.2999 24.7 10.3999 25.3 10.5999C25.8 10.6999 26.3 10.6999 26.9 10.6999C27.5 10.7999 28.2 10.7999 28.8 10.9999Z" fill="#F76600"/>
<path d="M13.6 22.5C12.8 22.5 12.1 22.7 11.4 23.1C11.1 23.3 10.8 23.5 10.5 23.7L9.59995 24.4C9.29995 24.6 8.99995 24.9 8.69995 25.1C8.39995 25.3 8.09995 25.6 7.69995 25.8C6.99995 26.3 6.09995 26.6 5.19995 26.6L5.49995 25.7C5.79995 25.9 6.29996 26.1 6.79996 26C7.29996 26 7.79996 25.8 8.29996 25.6C8.79996 25.4 9.29996 25.1 9.79996 24.9C10.3 24.7 10.9 24.5 11.5 24.4C10.4 24.8 9.69995 25.6 8.69995 26.2C8.19995 26.5 7.59995 26.8 6.99995 26.9C6.39995 27 5.59995 26.9 4.99995 26.5L3.69995 25.6H5.29996C5.89996 25.6 6.59995 25.3 7.19995 25C7.79995 24.6 8.49995 24.1 9.09995 23.7L10.1 23.1C10.4 22.9 10.8 22.7 11.2 22.6C11.9 22.3 12.8 22.2 13.6 22.5Z" fill="#F76600"/>
<path d="M21.8999 15.1C21.1999 15.7 20.2999 16.1 19.2999 16.3C18.2999 16.5 17.2999 16.4 16.4999 16.4C15.5999 16.4 14.8999 16.6 13.9999 17C13.1999 17.4 12.2999 17.7 11.3999 18V17.1C11.8999 17.4 12.4999 17.5 13.1999 17.6C13.7999 17.7 14.4999 17.7 15.1999 17.7C14.5999 18 13.8999 18.1 13.1999 18.2C12.4999 18.3 11.7999 18.2 11.0999 18L10.0999 17.6L11.0999 17.1C11.8999 16.7 12.7999 16.3 13.5999 15.9C13.9999 15.7 14.4999 15.5 14.9999 15.4C15.4999 15.3 15.9999 15.3 16.4999 15.3C16.9999 15.3 17.3999 15.4 17.8999 15.5C18.2999 15.6 18.7999 15.6 19.1999 15.6C20.0999 15.7 20.9999 15.5 21.8999 15.1Z" fill="#F76600"/>
<path d="M16.3 19.3C16 19.3 15.6 19.5 15.3 19.6C15 19.7 14.7 19.8 14.4 20C13.8 20.3 13.1 20.7 12.4 20.7C11.6 20.8 10.9 20.6 10.2 20.3C9.5 20 9 19.6 8.5 19C9.2 19.1 9.9 19.3 10.5 19.4C11.1 19.5 11.7 19.6 12.3 19.5C12.9 19.5 13.5 19.3 14.1 19.1C14.4 19 14.9 19 15.2 19C15.6 19.1 16 19.1 16.3 19.3Z" fill="#F76600"/>
</svg>
