<svg width="20" height="20" viewBox="0 0 20 20" fill="none" xmlns="http://www.w3.org/2000/svg">
<path d="M10.8326 4.99832C10.8326 5.45853 10.4595 5.8316 9.9993 5.8316C9.53909 5.8316 9.16602 5.45853 9.16602 4.99832C9.16602 4.53812 9.53909 4.16504 9.9993 4.16504C10.4595 4.16504 10.8326 4.53812 10.8326 4.99832Z" fill="#F66507"/>
<path d="M10.0003 15.8333C9.65527 15.8333 9.37527 15.5533 9.37527 15.2083V8.75H8.54199C8.19699 8.75 7.91699 8.47 7.91699 8.125C7.91699 7.78 8.19699 7.5 8.54199 7.5H10.0003C10.3453 7.5 10.6253 7.78 10.6253 8.125V15.2083C10.6253 15.5533 10.3453 15.8333 10.0003 15.8333Z" fill="#F66507"/>
<path d="M10 20C4.48578 20 0 15.5142 0 10C0 4.48578 4.48578 0 10 0C15.5142 0 20 4.48578 20 10C20 15.5142 15.5142 20 10 20ZM10 1.25C5.17502 1.25 1.25 5.17502 1.25 10C1.25 14.825 5.17502 18.75 10 18.75C14.825 18.75 18.75 14.825 18.75 10C18.75 5.17502 14.825 1.25 10 1.25Z" fill="#F66507"/>
<path d="M11.875 15.835H8.125C7.78 15.835 7.5 15.555 7.5 15.21C7.5 14.865 7.78 14.585 8.125 14.585H11.875C12.22 14.585 12.5 14.865 12.5 15.21C12.5 15.555 12.22 15.835 11.875 15.835Z" fill="#F66507"/>
</svg>
