<svg width="23" height="22" viewBox="0 0 23 22" fill="none" xmlns="http://www.w3.org/2000/svg">
<path d="M5.55811 9.225C6.91857 8.475 8.20345 7.65 9.48834 6.75L9.71508 6.6C9.79066 6.525 9.86624 6.45 9.94183 6.45C10.0174 6.375 10.1686 6.3 10.1686 6.225C10.2442 6.15 10.3197 6.15 10.3953 6.075C10.5465 5.925 10.6976 5.85 10.8488 5.7L11.2267 5.325C11.3023 5.25 11.3023 5.25 11.3779 5.175C11.4535 5.1 11.4535 5.025 11.529 4.95L11.7558 4.425C11.8314 4.35 11.8314 4.275 11.9069 4.2C11.9069 4.2 11.9069 4.125 11.9825 4.125V4.05V3.975C12.0581 3.825 12.1337 3.6 12.2093 3.45C12.3604 3.075 12.436 2.7 12.5116 2.325C12.5872 1.95 12.6628 1.575 12.7383 1.2C12.7383 1.125 12.8139 0.899998 12.8895 0.749998C12.9651 0.599998 13.1162 0.524998 13.2674 0.449997C13.4186 0.374998 13.5697 0.375 13.6453 0.299999C13.7965 0.299999 13.8721 0.299997 14.0232 0.224998C14.25 0.224998 14.4767 0.225 14.7035 0.299999C14.779 0.299999 14.9302 0.299999 15.0058 0.374998C15.1569 0.374998 15.2325 0.449997 15.3081 0.449997C15.4593 0.524998 15.6104 0.6 15.686 0.674999L15.9128 0.9C15.9883 0.974998 16.0639 1.125 16.1395 1.2C16.2151 1.275 16.2151 1.275 16.2151 1.35L16.2907 1.5C16.3662 1.65 16.5174 1.95 16.593 2.1C16.593 2.175 16.6686 2.325 16.6686 2.4C16.6686 2.475 16.6686 2.55 16.7441 2.625C16.7441 2.7 16.7441 2.7 16.7441 2.7C16.7441 2.775 16.8197 2.925 16.8197 3.075V3.375C16.8197 3.45 16.8197 3.6 16.8197 3.675C16.8197 3.825 16.8197 3.975 16.8197 4.05V4.35C16.8197 4.425 16.8197 4.575 16.7441 4.65L16.8953 4.875C16.8953 5.025 16.8953 5.1 16.8197 5.25C16.7442 5.7 16.593 6.075 16.4418 6.45V6.525C16.4418 6.525 16.3662 6.6 16.3662 6.675L16.2907 6.75C16.2907 6.825 16.2151 6.825 16.2151 6.975C16.2151 7.05 16.1395 7.125 16.0639 7.275C15.9883 7.35 15.9883 7.425 15.9883 7.5C15.9128 7.65 15.8372 7.8 15.7616 8.025L15.6104 8.475C15.6104 8.475 15.6104 8.475 15.686 8.625V8.7C15.686 8.7 15.6104 8.625 15.686 8.7L15.9128 8.85C16.2151 9.075 16.5174 9.3 16.8197 9.45C17.1221 9.6 17.4244 9.825 17.8023 9.9C18.1802 10.05 18.4825 10.2 18.8604 10.35C19.2383 10.5 19.5407 10.725 19.9186 10.95C20.0697 11.025 20.2965 11.175 20.4476 11.325L20.6744 11.475C20.75 11.55 20.75 11.55 20.9011 11.625C20.9767 11.7 21.1279 11.7 21.2035 11.85C21.279 11.925 21.3546 12 21.5058 12.075C21.6569 12.225 21.8081 12.45 21.9593 12.6C22.186 13.05 22.3372 13.5 22.3372 14.025C22.3372 14.25 22.2616 14.55 22.1104 14.775C22.0348 14.925 22.0348 15 21.9593 15.075L21.8837 15.225V15.3C21.8837 15.375 21.8081 15.375 21.8081 15.375C21.7325 15.45 21.7325 15.45 21.7325 15.45L21.6569 15.525C21.5814 15.6 21.5814 15.6 21.5058 15.675C21.4302 15.75 21.3546 15.825 21.279 15.9L21.0523 16.125C20.9011 16.2 20.8255 16.275 20.75 16.275L20.6744 16.35C20.6744 16.35 20.6744 16.35 20.75 16.35C20.75 16.35 20.8255 16.275 20.9011 16.2C20.9767 16.05 20.9011 16.05 20.9011 16.05V16.35V16.5C20.9011 16.575 20.9011 16.65 20.9011 16.725V16.875V17.025C20.9011 17.175 20.8255 17.175 20.8255 17.25L20.75 17.4V17.475C20.75 17.475 20.75 17.55 20.6744 17.55V17.625L20.5988 17.775C20.4476 17.925 20.2965 18.075 20.1453 18.225C19.9941 18.375 19.7674 18.525 19.5407 18.6C19.4651 18.675 19.3139 18.675 19.2383 18.75C19.1628 18.75 19.0116 18.825 19.0116 18.825L19.3139 18.375V18.6C19.3139 18.675 19.3139 18.825 19.3139 18.9C19.3139 19.05 19.2383 19.125 19.1628 19.275L19.0872 19.35V19.425C19.0872 19.425 19.0872 19.425 19.0116 19.5C19.0116 19.5 18.936 19.575 18.936 19.65C18.936 19.725 18.8604 19.8 18.7848 19.8L18.5581 19.95L18.3314 20.1C18.2558 20.175 18.1802 20.25 18.1046 20.25C17.9535 20.325 17.8023 20.4 17.5755 20.475C17.4244 20.55 17.1976 20.55 17.0465 20.625C16.9709 20.625 16.8197 20.625 16.7441 20.7C16.7441 20.7 16.8197 20.7 16.8197 20.625C16.8953 20.55 16.8953 20.475 16.8953 20.475C16.8953 20.475 16.8953 20.475 16.8953 20.55V20.625C16.8953 20.7 16.8953 20.7 16.8953 20.7C16.8197 20.775 16.8197 20.925 16.7441 21C16.6686 21.15 16.4418 21.3 16.2907 21.45C16.2151 21.525 16.1395 21.525 15.9883 21.6C15.9128 21.675 15.7616 21.675 15.686 21.675C15.4593 21.675 15.3081 21.75 15.1569 21.75C15.0058 21.75 14.779 21.75 14.6279 21.675C13.9476 21.525 13.4186 21.225 12.8139 21C11.6046 20.55 10.4709 20.025 9.33717 19.5C8.73252 19.275 8.20345 18.975 7.5988 18.75C7.29648 18.6 6.99415 18.525 6.69183 18.375C6.3895 18.3 6.08718 18.225 5.78485 18.15C6.08718 18.225 6.3895 18.225 6.69183 18.3C6.99415 18.375 7.29648 18.45 7.5988 18.525C8.20345 18.675 8.80811 18.9 9.41276 19.125C10.6221 19.575 11.7558 19.95 12.9651 20.325C13.5697 20.475 14.1744 20.775 14.7035 20.85C14.8546 20.85 14.9302 20.85 15.0814 20.85C15.2325 20.85 15.3837 20.85 15.4593 20.775C15.686 20.7 15.8372 20.625 15.9883 20.4C15.9883 20.325 16.0639 20.325 16.0639 20.25C16.0639 20.25 16.0639 20.175 16.0639 20.1C16.0639 20.025 16.1395 19.875 16.2907 19.8C16.3662 19.725 16.4418 19.725 16.5174 19.725H16.593C16.6686 19.725 16.6686 19.725 16.7441 19.725C16.8953 19.65 17.0465 19.65 17.1221 19.575C17.1976 19.5 17.3488 19.425 17.5 19.425C17.5755 19.425 17.5755 19.35 17.6511 19.35L17.8023 19.2L17.9535 19.05L18.029 18.975C18.1802 18.75 18.1802 18.75 18.1802 18.675C18.1802 18.6 18.1802 18.6 18.1802 18.525V18.3V18L18.4825 17.85C18.6337 17.775 18.7093 17.775 18.7848 17.775C18.8604 17.775 18.936 17.7 19.0116 17.7C19.1628 17.625 19.2383 17.55 19.3895 17.475C19.5407 17.4 19.6162 17.25 19.6918 17.1L19.7674 17.025V17.1V17.025L19.843 16.875C19.843 16.8 19.843 16.8 19.843 16.8C19.843 16.8 19.843 16.8 19.843 16.875V16.8V16.725V16.575C19.843 16.575 19.843 16.575 19.843 16.5V16.35V16.05C19.843 15.975 19.843 15.975 19.843 15.75C19.843 15.675 19.9942 15.525 19.9942 15.525C20.0697 15.45 20.0697 15.45 20.0697 15.45C20.1453 15.375 20.2209 15.375 20.2209 15.375C20.2965 15.3 20.3721 15.3 20.3721 15.3L20.5988 15.15C20.6744 15.075 20.75 15.075 20.75 15L20.8255 14.925C20.8255 14.85 20.9011 14.85 20.9011 14.775L20.9767 14.625C20.9767 14.55 21.0523 14.475 21.1279 14.4C21.2035 14.325 21.2035 14.175 21.2035 14.025C21.2035 13.8 21.1279 13.5 20.9767 13.275C20.9011 13.125 20.8255 13.05 20.6744 12.975C20.5988 12.9 20.5988 12.9 20.5232 12.825C20.4476 12.825 20.4476 12.75 20.2965 12.675C20.2209 12.6 20.0697 12.525 19.9942 12.45C19.9186 12.375 19.843 12.375 19.7674 12.3C19.6162 12.225 19.4651 12.15 19.3139 12C19.0116 11.85 18.6337 11.625 18.3314 11.475C18.029 11.325 17.6511 11.175 17.2732 11.025C16.8953 10.875 16.5174 10.65 16.1395 10.5C15.7616 10.275 15.4593 10.05 15.1569 9.825L14.9302 9.6C14.9302 9.6 14.779 9.45 14.779 9.375C14.7035 9.3 14.7035 9.225 14.7035 9.225C14.6279 9.075 14.4011 8.7 14.5523 8.325C14.6279 8.1 14.6279 8.1 14.7035 7.95L14.779 7.65C14.8546 7.5 14.9302 7.275 15.0058 7.05L15.1569 6.75C15.1569 6.675 15.2325 6.6 15.2325 6.525C15.3081 6.45 15.3081 6.3 15.3837 6.225L15.4593 6.15C15.4593 6.15 15.5348 6.075 15.4593 6.075V6C15.6104 5.625 15.7616 5.325 15.8372 5.025C15.8372 4.95 15.8372 4.875 15.9128 4.8L15.9883 4.5C15.9883 4.425 15.9883 4.35 16.0639 4.2V3.9C16.0639 3.825 16.0639 3.75 16.0639 3.675C16.0639 3.6 16.0639 3.525 16.0639 3.45V3.15C16.0639 3.075 16.0639 3.075 15.9883 2.925C15.9883 2.85 15.9883 2.775 15.9883 2.7V2.625C15.9883 2.55 15.9128 2.475 15.9128 2.4C15.8372 2.175 15.8372 2.1 15.686 1.95L15.6104 1.8C15.6104 1.725 15.5348 1.725 15.5348 1.725C15.4593 1.65 15.4593 1.65 15.3837 1.575L15.2325 1.425L15.1569 1.35C15.0814 1.35 15.0058 1.275 14.9302 1.275C14.8546 1.275 14.779 1.2 14.7035 1.2C14.4767 1.125 14.3255 1.125 14.25 1.125C14.1744 1.125 14.0988 1.125 14.0232 1.125C13.9476 1.125 13.8721 1.125 13.8721 1.125C13.7965 1.2 13.7965 1.125 13.7209 1.275C13.6453 1.65 13.5697 2.1 13.4186 2.4C13.2674 2.775 13.1918 3.15 13.0407 3.525C12.9651 3.675 12.8895 3.9 12.8139 4.05V4.125V4.2C12.8139 4.275 12.7383 4.275 12.7383 4.35C12.436 4.5 12.3604 4.575 12.3604 4.725L12.0581 5.25C11.9825 5.325 11.9825 5.4 11.9069 5.55C11.8314 5.625 11.7558 5.775 11.6802 5.775L11.2267 6.15C11.0755 6.3 10.9244 6.375 10.7732 6.525C10.6976 6.6 10.6221 6.675 10.5465 6.675C10.3953 6.75 10.3953 6.75 10.3197 6.825C10.1686 6.9 10.1686 6.975 10.0174 6.975L9.79066 7.125C8.35462 7.875 6.99415 8.625 5.55811 9.225Z" fill="#939598"/>
<path d="M0.0405273 7.12498C0.494016 7.04998 0.947504 7.04998 1.40099 6.97498L2.76146 6.89998L4.12192 6.82498H5.48239H5.93588V7.27498C6.01146 9.29998 6.01146 11.25 6.01146 13.275C6.01146 14.25 6.01146 15.3 5.93588 16.275C5.93588 17.25 5.8603 18.3 5.78471 19.275V19.725H5.40681C5.0289 19.725 4.72657 19.65 4.34867 19.65C3.97076 19.575 3.59285 19.5 3.29053 19.425C2.6103 19.35 1.85448 19.2 1.17425 19.125C1.85448 19.05 2.6103 18.975 3.29053 18.975C3.66843 18.975 3.97076 18.9 4.34867 18.9C4.72657 18.9 5.0289 18.9 5.40681 18.825L4.95332 19.2C4.87774 18.225 4.87774 17.175 4.87774 16.2C4.87774 15.225 4.87774 14.175 4.87774 13.2C4.87774 11.175 4.95332 9.22497 5.0289 7.19998L5.48239 7.64998L4.12192 7.49998H2.76146L1.40099 7.34998C0.947504 7.27498 0.494016 7.19998 0.0405273 7.12498Z" fill="#939598"/>
<path d="M2.53474 17.7C2.45915 18.075 2.00567 18.3 1.40101 18.225C0.796364 18.15 0.418457 17.775 0.418457 17.475C0.494038 17.1 0.947527 16.875 1.55218 16.95C2.08125 16.95 2.53474 17.325 2.53474 17.7Z" fill="#939598"/>
</svg>
