<svg width="20" height="29" viewBox="0 0 20 29" fill="none" xmlns="http://www.w3.org/2000/svg">
<path d="M19.4501 0.593262H0.549875C0.246174 0.593262 0 0.84417 0 1.15371V28.1679C0 28.4775 0.246174 28.7284 0.549875 28.7284H14.9215C15.0673 28.7284 15.2072 28.6693 15.3103 28.5642L19.839 23.9484C19.942 23.8434 20 23.7008 20 23.5521V1.15371C20 0.84417 19.7538 0.593262 19.4501 0.593262ZM15.4703 26.8159L15.4679 24.1091L18.1236 24.1116L15.4703 26.8159ZM18.9002 22.9914L14.918 22.9877C14.9178 22.9877 14.9177 22.9877 14.9175 22.9877C14.7717 22.9877 14.6318 23.0468 14.5287 23.1519C14.4254 23.2571 14.3675 23.3999 14.3676 23.5487L14.3712 27.6075H1.09975V1.71416H18.9002V22.9914Z" fill="#FF8D20"/>
<path d="M6.67007 5.30795C6.45533 5.08907 6.10715 5.08907 5.89241 5.308L4.27416 6.95737L3.87233 6.54776C3.65759 6.32889 3.30941 6.32889 3.09467 6.54776C2.87993 6.76663 2.87987 7.12151 3.09467 7.34038L3.88527 8.14624C3.98836 8.25131 4.12827 8.31038 4.27411 8.31038C4.41994 8.31038 4.5598 8.25131 4.66294 8.14624L6.67001 6.10056C6.88476 5.88175 6.88476 5.52682 6.67007 5.30795Z" fill="#FF8D20"/>
<path d="M16.52 6.42468H16.3272C16.0235 6.42468 15.7773 6.67559 15.7773 6.98513C15.7773 7.29467 16.0235 7.54558 16.3272 7.54558H16.52C16.8237 7.54558 17.0699 7.29467 17.0699 6.98513C17.0699 6.67559 16.8237 6.42468 16.52 6.42468Z" fill="#FF8D20"/>
<path d="M14.5623 6.42468H8.40534C8.10164 6.42468 7.85547 6.67559 7.85547 6.98513C7.85547 7.29467 8.10164 7.54558 8.40534 7.54558H14.5623C14.866 7.54558 15.1121 7.29467 15.1121 6.98513C15.1121 6.67559 14.866 6.42468 14.5623 6.42468Z" fill="#FF8D20"/>
<path d="M6.67007 10.7335C6.45533 10.5146 6.10715 10.5146 5.89241 10.7335L4.27416 12.3829L3.87233 11.9733C3.65759 11.7544 3.30941 11.7544 3.09467 11.9733C2.87993 12.1922 2.87987 12.547 3.09467 12.7659L3.88527 13.5718C3.98836 13.6768 4.12827 13.7359 4.27411 13.7359C4.41994 13.7359 4.5598 13.6768 4.66294 13.5718L6.67001 11.5261C6.88476 11.3073 6.88476 10.9524 6.67007 10.7335Z" fill="#FF8D20"/>
<path d="M16.5148 11.8506H8.40534C8.10164 11.8506 7.85547 12.1015 7.85547 12.411C7.85547 12.7206 8.10164 12.9715 8.40534 12.9715H16.5148C16.8185 12.9715 17.0647 12.7206 17.0647 12.411C17.0647 12.1015 16.8185 11.8506 16.5148 11.8506Z" fill="#FF8D20"/>
<path d="M6.67007 16.1418C6.45533 15.9229 6.10715 15.9229 5.89241 16.1419L4.27416 17.7912L3.87233 17.3816C3.65759 17.1627 3.30941 17.1628 3.09467 17.3816C2.87993 17.6005 2.87987 17.9554 3.09467 18.1742L3.88527 18.9801C3.98836 19.0852 4.12827 19.1442 4.27411 19.1442C4.41994 19.1442 4.5598 19.0852 4.66294 18.9801L6.67001 16.9344C6.88476 16.7156 6.88476 16.3607 6.67007 16.1418Z" fill="#FF8D20"/>
<path d="M16.5147 17.2588H8.40534C8.10164 17.2588 7.85547 17.5097 7.85547 17.8192C7.85547 18.1288 8.10164 18.3797 8.40534 18.3797H16.5148C16.8184 18.3797 17.0646 18.1288 17.0646 17.8192C17.0646 17.5098 16.8184 17.2588 16.5147 17.2588Z" fill="#FF8D20"/>
</svg>
