<svg width="47" height="65" viewBox="0 0 47 65" fill="none" xmlns="http://www.w3.org/2000/svg">
<mask id="path-1-inside-1" fill="white">
<path d="M44.7884 0.482422H1.88209C1.19264 0.482422 0.633789 1.05202 0.633789 1.75473V63.0812C0.633789 63.7839 1.19264 64.3535 1.88209 64.3535H34.5078C34.8389 64.3535 35.1564 64.2194 35.3905 63.9808L45.6713 53.5023C45.9053 53.2637 46.0368 52.9401 46.0368 52.6026V1.75473C46.0368 1.05202 45.4779 0.482422 44.7884 0.482422ZM35.7538 60.0119L35.7484 53.867L41.7772 53.8726L35.7538 60.0119ZM43.5402 51.3296L34.5 51.3213C34.4996 51.3213 34.4992 51.3213 34.4989 51.3213C34.1678 51.3213 33.8503 51.4554 33.6161 51.6939C33.3818 51.9328 33.2502 52.2569 33.2505 52.5948L33.2586 61.8089H3.13039V3.02703H43.5402V51.3296Z"/>
</mask>
<path d="M44.7884 0.482422H1.88209C1.19264 0.482422 0.633789 1.05202 0.633789 1.75473V63.0812C0.633789 63.7839 1.19264 64.3535 1.88209 64.3535H34.5078C34.8389 64.3535 35.1564 64.2194 35.3905 63.9808L45.6713 53.5023C45.9053 53.2637 46.0368 52.9401 46.0368 52.6026V1.75473C46.0368 1.05202 45.4779 0.482422 44.7884 0.482422ZM35.7538 60.0119L35.7484 53.867L41.7772 53.8726L35.7538 60.0119ZM43.5402 51.3296L34.5 51.3213C34.4996 51.3213 34.4992 51.3213 34.4989 51.3213C34.1678 51.3213 33.8503 51.4554 33.6161 51.6939C33.3818 51.9328 33.2502 52.2569 33.2505 52.5948L33.2586 61.8089H3.13039V3.02703H43.5402V51.3296Z" fill="#F66507" stroke="#FBFBFB" stroke-width="1.4" mask="url(#path-1-inside-1)"/>
<mask id="path-2-inside-2" fill="white">
<path d="M15.7714 11.1854C15.2839 10.6885 14.4935 10.6885 14.006 11.1855L10.3324 14.9298L9.42015 13.9999C8.93265 13.5031 8.14223 13.5031 7.65473 13.9999C7.16723 14.4968 7.16711 15.3024 7.65473 15.7993L9.44952 17.6287C9.68354 17.8673 10.0012 18.0014 10.3322 18.0014C10.6633 18.0014 10.9808 17.8673 11.2149 17.6287L15.7713 12.9847C16.2588 12.488 16.2588 11.6823 15.7714 11.1854Z"/>
</mask>
<path d="M15.7714 11.1854C15.2839 10.6885 14.4935 10.6885 14.006 11.1855L10.3324 14.9298L9.42015 13.9999C8.93265 13.5031 8.14223 13.5031 7.65473 13.9999C7.16723 14.4968 7.16711 15.3024 7.65473 15.7993L9.44952 17.6287C9.68354 17.8673 10.0012 18.0014 10.3322 18.0014C10.6633 18.0014 10.9808 17.8673 11.2149 17.6287L15.7713 12.9847C16.2588 12.488 16.2588 11.6823 15.7714 11.1854Z" fill="#F66507" stroke="#FBFBFB" stroke-width="1.4" mask="url(#path-2-inside-2)"/>
<mask id="path-3-inside-3" fill="white">
<path d="M38.1274 13.7212H37.6897C37.0003 13.7212 36.4414 14.2908 36.4414 14.9935C36.4414 15.6962 37.0003 16.2658 37.6897 16.2658H38.1274C38.8168 16.2658 39.3757 15.6962 39.3757 14.9935C39.3757 14.2908 38.8168 13.7212 38.1274 13.7212Z"/>
</mask>
<path d="M38.1274 13.7212H37.6897C37.0003 13.7212 36.4414 14.2908 36.4414 14.9935C36.4414 15.6962 37.0003 16.2658 37.6897 16.2658H38.1274C38.8168 16.2658 39.3757 15.6962 39.3757 14.9935C39.3757 14.2908 38.8168 13.7212 38.1274 13.7212Z" fill="#F66507" stroke="#FBFBFB" stroke-width="1.4" mask="url(#path-3-inside-3)"/>
<mask id="path-4-inside-4" fill="white">
<path d="M33.6947 13.7212H19.7175C19.0281 13.7212 18.4692 14.2908 18.4692 14.9935C18.4692 15.6962 19.0281 16.2658 19.7175 16.2658H33.6947C34.3842 16.2658 34.943 15.6962 34.943 14.9935C34.943 14.2908 34.3842 13.7212 33.6947 13.7212Z"/>
</mask>
<path d="M33.6947 13.7212H19.7175C19.0281 13.7212 18.4692 14.2908 18.4692 14.9935C18.4692 15.6962 19.0281 16.2658 19.7175 16.2658H33.6947C34.3842 16.2658 34.943 15.6962 34.943 14.9935C34.943 14.2908 34.3842 13.7212 33.6947 13.7212Z" fill="#F66507" stroke="#FBFBFB" stroke-width="1.4" mask="url(#path-4-inside-4)"/>
<mask id="path-5-inside-5" fill="white">
<path d="M15.7714 23.5024C15.2839 23.0055 14.4935 23.0055 14.006 23.5025L10.3324 27.2468L9.42015 26.317C8.93265 25.8201 8.14223 25.8201 7.65473 26.317C7.16723 26.8138 7.16711 27.6195 7.65473 28.1163L9.44952 29.9458C9.68354 30.1843 10.0012 30.3184 10.3322 30.3184C10.6633 30.3184 10.9808 30.1843 11.2149 29.9458L15.7713 25.3018C16.2588 24.805 16.2588 23.9994 15.7714 23.5024Z"/>
</mask>
<path d="M15.7714 23.5024C15.2839 23.0055 14.4935 23.0055 14.006 23.5025L10.3324 27.2468L9.42015 26.317C8.93265 25.8201 8.14223 25.8201 7.65473 26.317C7.16723 26.8138 7.16711 27.6195 7.65473 28.1163L9.44952 29.9458C9.68354 30.1843 10.0012 30.3184 10.3322 30.3184C10.6633 30.3184 10.9808 30.1843 11.2149 29.9458L15.7713 25.3018C16.2588 24.805 16.2588 23.9994 15.7714 23.5024Z" fill="#F66507" stroke="#FBFBFB" stroke-width="1.4" mask="url(#path-5-inside-5)"/>
<mask id="path-6-inside-6" fill="white">
<path d="M38.1272 26.0381H19.7175C19.0281 26.0381 18.4692 26.6077 18.4692 27.3104C18.4692 28.0131 19.0281 28.5827 19.7175 28.5827H38.1272C38.8167 28.5827 39.3755 28.0131 39.3755 27.3104C39.3755 26.6077 38.8167 26.0381 38.1272 26.0381Z"/>
</mask>
<path d="M38.1272 26.0381H19.7175C19.0281 26.0381 18.4692 26.6077 18.4692 27.3104C18.4692 28.0131 19.0281 28.5827 19.7175 28.5827H38.1272C38.8167 28.5827 39.3755 28.0131 39.3755 27.3104C39.3755 26.6077 38.8167 26.0381 38.1272 26.0381Z" fill="#F66507" stroke="#FBFBFB" stroke-width="1.4" mask="url(#path-6-inside-6)"/>
<mask id="path-7-inside-7" fill="white">
<path d="M15.7714 35.7805C15.2839 35.2836 14.4935 35.2836 14.006 35.7806L10.3324 39.5249L9.42015 38.595C8.93265 38.098 8.14223 38.0982 7.65473 38.595C7.16723 39.0919 7.16711 39.8975 7.65473 40.3944L9.44952 42.2238C9.68354 42.4624 10.0012 42.5965 10.3322 42.5965C10.6633 42.5965 10.9808 42.4624 11.2149 42.2238L15.7713 37.5798C16.2588 37.0831 16.2588 36.2775 15.7714 35.7805Z"/>
</mask>
<path d="M15.7714 35.7805C15.2839 35.2836 14.4935 35.2836 14.006 35.7806L10.3324 39.5249L9.42015 38.595C8.93265 38.098 8.14223 38.0982 7.65473 38.595C7.16723 39.0919 7.16711 39.8975 7.65473 40.3944L9.44952 42.2238C9.68354 42.4624 10.0012 42.5965 10.3322 42.5965C10.6633 42.5965 10.9808 42.4624 11.2149 42.2238L15.7713 37.5798C16.2588 37.0831 16.2588 36.2775 15.7714 35.7805Z" fill="#F66507" stroke="#FBFBFB" stroke-width="1.4" mask="url(#path-7-inside-7)"/>
<mask id="path-8-inside-8" fill="white">
<path d="M38.1271 38.316H19.7175C19.0281 38.316 18.4692 38.8856 18.4692 39.5883C18.4692 40.2911 19.0281 40.8606 19.7175 40.8606H38.1272C38.8166 40.8606 39.3754 40.2911 39.3754 39.5883C39.3754 38.8858 38.8166 38.316 38.1271 38.316Z"/>
</mask>
<path d="M38.1271 38.316H19.7175C19.0281 38.316 18.4692 38.8856 18.4692 39.5883C18.4692 40.2911 19.0281 40.8606 19.7175 40.8606H38.1272C38.8166 40.8606 39.3754 40.2911 39.3754 39.5883C39.3754 38.8858 38.8166 38.316 38.1271 38.316Z" fill="#F66507" stroke="#FBFBFB" stroke-width="1.4" mask="url(#path-8-inside-8)"/>
</svg>
