<svg width="47" height="65" viewBox="0 0 47 65" fill="none" xmlns="http://www.w3.org/2000/svg">
<path d="M35.4036 60.0122L35.4044 60.8676L36.0035 60.257L42.0269 54.1178L42.61 53.5234L41.7774 53.5226L35.7486 53.517L35.3979 53.5167L35.3983 53.8673L35.4036 60.0122ZM43.5398 51.6796L43.8901 51.68V51.3296V3.02703V2.67703H43.5401H3.13027H2.78027V3.02703V61.8089V62.1589H3.13027H33.2585H33.6088L33.6085 61.8086L33.6004 52.5945V52.5945C33.6002 52.3474 33.6964 52.1117 33.8659 51.939C34.0349 51.7668 34.2627 51.6713 34.4987 51.6713H34.4988H34.4988H34.4988H34.4989H34.4989H34.4989H34.4989H34.499H34.499H34.499H34.4991H34.4991H34.4991H34.4992H34.4992H34.4992H34.4992H34.4993H34.4993H34.4993H34.4994H34.4994H34.4994H34.4995H34.4995H34.4996H34.4996H34.4996H34.4997H34.4997H34.4997H34.4998H34.4998H34.4998L43.5398 51.6796ZM1.88197 0.832422H44.7883C45.2782 0.832422 45.6867 1.23905 45.6867 1.75473V52.6026C45.6867 52.8494 45.5904 53.0847 45.4213 53.2571L35.1406 63.7357C35.1406 63.7357 35.1406 63.7357 35.1405 63.7357C34.9714 63.9079 34.7437 64.0035 34.5077 64.0035H1.88197C1.39207 64.0035 0.983667 63.5969 0.983667 63.0812V1.75473C0.983667 1.23901 1.39207 0.832422 1.88197 0.832422Z" fill="black" stroke="#FBFBFB" stroke-width="0.7"/>
<path d="M14.2559 11.4306L14.2559 11.4306L10.5822 15.1749L10.3323 15.4296L10.0825 15.1749L9.17031 14.2451C9.17031 14.2451 9.1703 14.2451 9.1703 14.2451C8.82 13.888 8.25485 13.888 7.90456 14.2451C7.55058 14.6059 7.55055 15.1935 7.90453 15.5542L7.90457 15.5542L9.69936 17.3836C9.69936 17.3836 9.69936 17.3836 9.69936 17.3836C9.86827 17.5558 10.0961 17.6514 10.3322 17.6514C10.5682 17.6514 10.796 17.5558 10.9651 17.3836C10.9651 17.3836 10.9651 17.3836 10.9652 17.3836L15.5215 12.7396L15.5215 12.7396C15.8754 12.379 15.8754 11.7913 15.5216 11.4305L14.2559 11.4306ZM14.2559 11.4306C14.6062 11.0735 15.1713 11.0735 15.5216 11.4305L14.2559 11.4306Z" fill="black" stroke="#FBFBFB" stroke-width="0.7"/>
<path d="M37.6897 14.0712H38.1274C38.6173 14.0712 39.0257 14.4778 39.0257 14.9935C39.0257 15.5092 38.6173 15.9158 38.1274 15.9158H37.6897C37.1998 15.9158 36.7914 15.5092 36.7914 14.9935C36.7914 14.4778 37.1998 14.0712 37.6897 14.0712Z" fill="black" stroke="#FBFBFB" stroke-width="0.7"/>
<path d="M19.7177 14.0712H33.6948C34.1847 14.0712 34.5931 14.4778 34.5931 14.9935C34.5931 15.5092 34.1847 15.9158 33.6948 15.9158H19.7177C19.2278 15.9158 18.8194 15.5092 18.8194 14.9935C18.8194 14.4778 19.2278 14.0712 19.7177 14.0712Z" fill="black" stroke="#FBFBFB" stroke-width="0.7"/>
<path d="M14.2559 23.7476L14.2559 23.7476C14.6062 23.3905 15.1712 23.3905 15.5215 23.7475C15.8755 24.1084 15.8754 24.696 15.5215 25.0566L15.5215 25.0566L10.9652 29.7006C10.9651 29.7006 10.9651 29.7006 10.9651 29.7006C10.796 29.8729 10.5682 29.9684 10.3322 29.9684C10.0961 29.9684 9.86827 29.8728 9.69936 29.7007C9.69936 29.7007 9.69936 29.7006 9.69936 29.7006L7.90457 27.8712L7.90453 27.8712C7.55055 27.5105 7.55058 26.9229 7.90456 26.5621C8.25485 26.2051 8.82 26.2051 9.1703 26.5621C9.1703 26.5621 9.17031 26.5621 9.17031 26.5621L10.0825 27.4919L10.3323 27.7466L10.5822 27.492L14.2559 23.7476Z" fill="black" stroke="#FBFBFB" stroke-width="0.7"/>
<path d="M19.7177 26.3881H38.1274C38.6173 26.3881 39.0257 26.7947 39.0257 27.3104C39.0257 27.8261 38.6173 28.2327 38.1274 28.2327H19.7177C19.2278 28.2327 18.8194 27.8261 18.8194 27.3104C18.8194 26.7947 19.2278 26.3881 19.7177 26.3881Z" fill="black" stroke="#FBFBFB" stroke-width="0.7"/>
<path d="M14.2559 36.0257L14.2559 36.0257C14.6062 35.6686 15.1712 35.6686 15.5215 36.0255C15.8755 36.3864 15.8754 36.9741 15.5215 37.3347L15.5215 37.3347L10.9652 41.9787C10.9651 41.9787 10.9651 41.9787 10.9651 41.9787C10.796 42.1509 10.5682 42.2465 10.3322 42.2465C10.0961 42.2465 9.86827 42.1509 9.69936 41.9787C9.69936 41.9787 9.69936 41.9787 9.69936 41.9787L7.90457 40.1493L7.90453 40.1493C7.55055 39.7886 7.55058 39.2009 7.90456 38.8402C8.2549 38.4831 8.82004 38.4831 9.17028 38.8401L9.1703 38.8401L10.0825 39.77L10.3323 40.0247L10.5822 39.77L14.2559 36.0257Z" fill="black" stroke="#FBFBFB" stroke-width="0.7"/>
<path d="M19.7177 38.666H38.1272C38.6171 38.666 39.0255 39.0727 39.0255 39.5883C39.0255 40.1041 38.6171 40.5106 38.1274 40.5106H19.7177C19.2278 40.5106 18.8194 40.1041 18.8194 39.5883C18.8194 39.0726 19.2278 38.666 19.7177 38.666Z" fill="black" stroke="#FBFBFB" stroke-width="0.7"/>
</svg>
