<svg width="366" height="92" viewBox="0 0 366 92" fill="none" xmlns="http://www.w3.org/2000/svg">
<path d="M254.891 55.7843C255.076 57.5672 254.554 59.5931 253.322 61.8593C252.089 64.1282 250.414 66.4446 248.294 68.806C246.174 71.1673 243.719 73.5392 240.938 75.9217C238.154 78.3042 235.334 80.4542 232.484 82.3771C229.632 84.2973 226.837 85.9534 224.104 87.3454C221.37 88.7374 218.976 89.6618 216.927 90.1267C216.39 90.2086 216.087 90.0158 216.018 89.5562C215.984 89.3237 215.997 89.1653 216.066 89.0781C216.055 88.9989 216.079 88.917 216.145 88.8298C216.413 88.0031 216.764 87.3216 217.196 86.7854C217.625 86.2492 218.015 85.8372 218.365 85.5493C218.778 85.1716 219.255 84.9444 219.792 84.8652C223.414 83.3808 226.924 81.3998 230.324 78.9275C233.722 76.4526 236.716 73.9037 239.308 71.2756C241.897 68.6475 243.941 66.1594 245.437 63.8112C246.93 61.4658 247.583 59.638 247.388 58.3279C247.296 57.7124 246.898 57.1446 246.192 56.6189C245.487 56.096 244.76 55.6945 244.012 55.4119C243.098 55.0764 242.108 54.7515 241.044 54.4398C240.14 54.181 238.7 53.8456 236.716 53.4335C234.733 53.0215 232.697 52.6596 230.612 52.34C228.196 51.9147 225.581 51.4789 222.771 51.0326C221.056 50.5809 219.869 49.9734 219.205 49.2048C218.541 48.4388 218.149 47.6332 218.022 46.7853C217.749 44.939 218.512 42.6833 220.311 40.013C222.11 37.3452 224.475 34.5137 227.404 31.5211C230.33 28.5285 233.614 25.5412 237.251 22.5591C240.886 19.5797 244.428 16.8856 247.875 14.482C251.323 12.0784 254.439 10.0815 257.222 8.48355C260.004 6.88819 262.047 5.99279 263.354 5.79733C264.044 5.69432 264.792 5.72073 265.6 5.87657C266.406 6.03241 267.17 6.29126 267.891 6.65576C268.61 7.02026 269.227 7.45873 269.735 7.97378C270.241 8.48884 270.538 9.0171 270.617 9.55329C270.696 10.0921 270.351 10.4196 269.587 10.5332C269.432 10.557 269.221 10.5887 268.955 10.6283C268.684 10.6679 268.35 10.6415 267.941 10.5438C264.044 11.7561 259.911 13.5126 255.547 15.8159C251.839 17.7836 247.609 20.4804 242.863 23.9036C238.115 27.3267 233.24 31.7324 228.236 37.1207C227.493 37.9395 226.83 38.7478 226.242 39.5428C225.718 40.2507 225.297 40.9823 224.978 41.7377C224.657 42.4932 224.546 43.1799 224.636 43.7953C224.659 43.9512 224.762 44.1308 224.952 44.3394C225.139 44.5481 225.526 44.7832 226.116 45.05C226.703 45.3167 227.554 45.6231 228.663 45.9665C229.774 46.3125 231.262 46.7008 233.129 47.1287C235.863 47.5883 238.407 48.0716 240.759 48.5841C242.779 48.9908 244.773 49.461 246.732 49.9945C248.694 50.5281 250.14 51.0405 251.078 51.5291C251.66 51.7563 252.216 52.0653 252.745 52.4589C253.185 52.7864 253.622 53.2116 254.054 53.7373C254.489 54.2523 254.765 54.9391 254.891 55.7843Z" fill="#818181"/>
<path d="M311.487 43.4627C309.719 45.301 307.818 47.0206 305.782 48.6212C303.744 50.2218 301.839 51.6693 300.072 52.953C298.015 54.44 295.945 55.8109 293.859 57.0681C292.208 58.1009 290.878 58.7718 289.864 59.0808C288.85 59.3898 288.036 59.5906 287.423 59.683C286.654 59.7966 285.871 59.6778 285.076 59.3265C284.278 58.9752 283.535 58.4575 282.845 57.7707C282.155 57.0893 281.544 56.2731 281.012 55.3301C280.48 54.3898 280.14 53.4152 279.99 52.4141C279.795 51.1067 279.711 49.8811 279.737 48.7348C279.764 47.5911 279.766 46.9413 279.743 46.7881C279.674 46.3259 279.485 46.1199 279.179 46.1648C277.767 46.6904 276.013 48.2118 273.914 50.7263C271.815 53.2435 269.727 55.9535 267.649 58.8589C265.255 62.2847 262.758 66.0777 260.161 70.243C260.03 70.42 259.929 70.5336 259.858 70.5837C259.787 70.6339 259.719 70.7026 259.653 70.7924C259.587 70.8796 259.516 70.9298 259.44 70.943C258.57 70.9139 257.957 70.4754 257.596 69.6249C257.235 68.7744 257.043 68.27 257.019 68.1168C256.94 67.5779 257.017 66.7803 257.254 65.7237C257.488 64.6672 257.823 63.4944 258.262 62.2108C258.7 60.9271 259.218 59.5298 259.816 58.0269C260.417 56.5214 261.036 55.0132 261.673 53.4997C263.198 50.0475 264.92 46.3312 266.84 42.3454C268.747 38.2857 270.68 34.0041 272.64 29.5033C274.599 25.0025 276.353 20.8266 277.899 16.9782C279.737 12.4562 281.428 7.99771 282.972 3.59727C283.09 3.34371 283.288 3.07693 283.559 2.79959C283.843 2.60149 284.22 2.36641 284.691 2.09964C285.163 1.83287 285.858 1.63213 286.777 1.49214C287.402 1.47893 287.912 1.48158 288.307 1.50007C288.703 1.5212 288.929 1.72194 288.984 2.10757C289.032 2.4166 288.992 2.69659 288.874 2.95015C287.77 5.55449 286.546 8.4124 285.205 11.5212C284.036 14.2154 282.629 17.2951 280.988 20.7658C279.345 24.2365 277.523 27.9317 275.516 31.8488C273.812 35.1716 272.239 38.3174 270.799 41.2836C269.606 43.8219 268.423 46.4183 267.248 49.0702C266.071 51.7247 265.281 53.7876 264.873 55.2667C264.807 55.3566 264.781 55.4384 264.791 55.515L264.841 55.861C264.876 56.0908 264.968 56.1965 265.123 56.1727C265.2 56.1622 265.368 55.9799 265.629 55.626C268.286 52.3983 270.799 49.506 273.166 46.9492C274.18 45.8531 275.197 44.7781 276.216 43.7215C277.235 42.665 278.213 41.7115 279.145 40.8663C280.077 40.0184 280.933 39.3211 281.715 38.7717C282.498 38.225 283.156 37.908 283.693 37.8288C284.154 37.7601 284.699 37.7363 285.329 37.7601C285.961 37.7839 286.419 37.9714 286.706 38.3227C286.751 38.6317 286.727 38.9883 286.63 39.3951C286.532 39.8045 286.43 40.309 286.327 40.9165C286.222 41.5213 286.032 42.2398 285.763 43.0665C285.308 44.2366 284.931 45.3935 284.631 46.5398C284.383 47.5198 284.188 48.5948 284.049 49.7543C283.907 50.9165 283.912 51.9968 284.059 52.9979C284.207 53.9989 284.483 54.8045 284.889 55.4094C285.292 56.0195 286.108 56.2308 287.338 56.0486C287.952 55.9561 288.721 55.7237 289.645 55.3486C290.57 54.9736 291.752 54.366 293.198 53.5208C295.276 52.1896 297.449 50.7237 299.725 49.1257C301.637 47.739 303.733 46.1489 306.016 44.3502C308.297 42.5541 310.459 40.6021 312.498 38.4864C312.574 38.4759 312.645 38.4257 312.711 38.3359C312.788 38.3253 312.84 38.2989 312.875 38.2514C312.906 38.2065 312.998 38.1748 313.154 38.151C313.383 38.1167 313.522 38.254 313.567 38.5604C313.578 38.637 313.57 38.7189 313.544 38.8008C313.515 38.8853 313.515 39.0015 313.538 39.1547C313.562 39.3105 313.512 39.7701 313.391 40.5335C313.28 41.2915 312.64 42.2715 311.487 43.4627Z" fill="#818181"/>
<path d="M323.62 31.7405C323.696 31.7299 324.099 31.8065 324.831 31.9729C325.561 32.1393 326.372 32.4325 327.257 32.8498C328.142 33.2698 328.961 33.7743 329.717 34.3712C330.47 34.9655 330.907 35.6496 331.02 36.4183C331.065 36.7273 331.094 37.1948 331.113 37.8208C331.126 38.4494 330.955 39.1415 330.599 39.9022C329.332 43.0031 327.939 45.6285 326.417 47.7839C324.892 49.9392 323.388 51.6983 321.905 53.0586C320.42 54.4215 319.04 55.4331 317.768 56.0961C316.493 56.7591 315.471 57.1473 314.705 57.2609C313.325 57.4669 312.19 57.3613 311.305 56.944C310.42 56.5266 309.714 56.001 309.19 55.3724C308.666 54.7437 308.318 54.1283 308.152 53.5208C307.984 52.9159 307.889 52.5382 307.865 52.3824C307.465 49.6909 307.815 46.8858 308.911 43.9671C310.006 41.0511 311.358 38.3913 312.961 35.9877C314.565 33.5868 316.148 31.5794 317.715 29.9682C319.28 28.3596 320.367 27.5064 320.984 27.414C322.211 27.2317 323.28 27.4246 324.189 27.9977C325.097 28.5709 325.569 28.9724 325.603 29.2022C325.627 29.358 325.487 29.4954 325.195 29.6169C325.053 29.7172 324.879 29.8599 324.671 30.05C324.539 30.227 324.355 30.433 324.115 30.6628C323.873 30.8953 323.617 31.1488 323.346 31.4262L323.249 31.5582L323.151 31.6903C323.154 31.7722 323.314 31.7854 323.62 31.7405ZM324.916 36.5028C324.789 35.6576 324.236 34.9735 323.256 34.4478C322.277 33.9275 321.595 33.6924 321.213 33.7505C320.752 33.8192 319.988 34.4848 318.919 35.7447C317.849 37.0073 316.764 38.5445 315.664 40.3617C314.56 42.179 313.636 44.1441 312.893 46.2625C312.148 48.3808 311.908 50.3222 312.169 52.0918C312.35 53.3227 312.94 53.8642 313.939 53.7163C314.86 53.5789 315.985 52.842 317.315 51.5002C318.645 50.161 319.899 48.5763 321.081 46.7485C322.261 44.9207 323.241 43.0638 324.02 41.1779C324.8 39.292 325.1 37.7336 324.916 36.5028Z" fill="#818181"/>
<path d="M323.021 91.0643C322.871 91.6348 322.642 91.9465 322.336 91.9914C321.875 92.0601 321.551 91.7141 321.359 90.9587C321.169 90.2006 321.051 89.6671 321.006 89.3607C320.845 88.283 320.795 87.1499 320.853 85.9613C320.911 84.7727 321.059 83.6475 321.293 82.591C321.506 81.3786 321.801 80.1927 322.178 79.0384C322.879 76.8857 323.827 74.1493 325.017 70.8265C326.21 67.5011 327.543 63.9195 329.013 60.0817C330.485 56.2438 331.981 52.3426 333.511 48.378C335.041 44.416 336.487 40.697 337.856 37.229C339.223 33.7609 340.403 30.7525 341.399 28.2036C342.392 25.6574 343.09 23.8798 343.49 22.8761C343.466 22.7229 343.477 22.5248 343.522 22.2818C343.606 21.7984 343.977 21.3864 344.633 21.0536C344.786 21.0298 345.01 20.9585 345.305 20.8343C345.534 20.8 345.781 20.7445 346.045 20.6653C346.308 20.586 346.592 20.5253 346.901 20.4777C347.285 20.4196 347.788 20.3853 348.415 20.3695C349.039 20.3562 349.387 20.5781 349.455 21.0404C349.489 21.2728 349.382 21.603 349.131 22.0308C348.178 24.062 347.23 26.1302 346.287 28.2379C345.452 30.0155 344.564 31.9569 343.622 34.0647C342.679 36.1725 341.802 38.1904 340.991 40.1212C341.035 40.4303 341.135 40.5729 341.288 40.5491C341.441 40.5254 341.583 40.4276 341.715 40.2507C343.827 37.575 346.008 35.0869 348.254 32.7836C350.161 30.8476 352.205 29.0277 354.386 27.3241C356.564 25.623 358.57 24.5956 360.398 24.2443C360.704 24.1994 361.136 24.1914 361.691 24.2284C362.244 24.2628 362.795 24.4001 363.34 24.6325C363.883 24.8676 364.37 25.2268 364.794 25.7128C365.221 26.2015 365.489 26.8301 365.602 27.5987C365.808 28.9828 365.336 30.9611 364.188 33.5311C363.04 36.1038 361.483 38.6949 359.519 41.3072C357.554 43.9221 355.297 46.2861 352.747 48.3965C350.195 50.5095 347.617 51.7589 345.01 52.1472C344.549 52.2158 344.117 52.2211 343.716 52.163C343.313 52.1049 343.047 51.8909 342.913 51.5159C342.903 51.4393 342.921 51.3178 342.976 51.1514C343.171 50.8872 343.532 50.6759 344.059 50.5174C345.033 50.2163 346.413 49.3394 348.199 47.8946C349.985 46.4472 351.741 44.6934 353.477 42.6226C355.21 40.5544 356.722 38.3225 358.012 35.9268C359.305 33.5311 359.987 31.2675 360.064 29.1307C359.985 28.5945 359.674 28.3647 359.137 28.444C358.908 28.4783 358.278 28.7477 357.256 29.2549C356.232 29.762 354.899 30.6891 353.256 32.0362C351.612 33.3859 349.708 35.2216 347.546 37.5486C345.381 39.8782 343.042 42.8814 340.53 46.5608C338.997 48.9142 337.356 51.8725 335.612 55.4356C334.106 58.4916 332.405 62.3638 330.514 67.0521C328.62 71.7404 326.669 77.34 324.654 83.8562L323.021 91.0643Z" fill="#818181"/>
<path d="M15.3857 29.0886V12.8766L20.6356 12.8766L20.6399 12.8766C23.9256 12.8623 26.9118 13.9431 28.7735 15.6159C30.3063 16.9981 30.9987 18.8937 30.9987 20.9851C30.9987 23.0811 30.3065 24.973 28.7718 26.3609L15.3857 29.0886ZM15.3857 29.0886H20.6356C23.9326 29.0886 26.9154 28.038 28.7715 26.3612L15.3857 29.0886ZM231.067 16.5111L231.067 16.5105L231.067 16.51L231.068 16.509L231.068 16.5076L231.069 16.5066L231.082 16.4807L231.095 16.4493C232.363 13.4549 234.481 12.0435 236.289 11.3633C237.201 11.0202 238.036 10.8637 238.641 10.7934C238.942 10.7584 239.183 10.7451 239.345 10.7404C239.425 10.7381 239.486 10.7379 239.523 10.7382C239.542 10.7384 239.555 10.7386 239.563 10.7388L239.566 10.7389L239.566 10.7389L239.567 10.7389L239.568 10.739L239.569 10.739L239.576 10.7392C245.656 10.9223 247.639 15.3866 248.128 16.4874C248.153 16.5431 248.174 16.5903 248.191 16.6278L248.192 16.6292C248.583 17.4664 248.84 18.8096 248.933 20.7912C248.971 21.6897 248.853 22.6232 248.72 23.3495C248.653 23.7087 248.585 24.0085 248.533 24.2165C248.508 24.3204 248.486 24.4009 248.472 24.4541C248.465 24.4806 248.459 24.5003 248.456 24.5126L248.454 24.5169C247.299 28.0855 245.087 29.7456 243.183 30.5413C242.217 30.9454 241.319 31.1299 240.664 31.2127C240.337 31.254 240.075 31.2697 239.898 31.2752C239.81 31.278 239.744 31.2782 239.702 31.2778C239.693 31.2777 239.685 31.2776 239.678 31.2775C239.67 31.2774 239.664 31.2772 239.659 31.2771L239.656 31.277L239.655 31.277L239.654 31.2769L239.653 31.2769L239.652 31.2769L239.649 31.2767C236.765 31.1695 234.884 30.165 233.617 29.0231C232.329 27.8619 231.631 26.5192 231.186 25.6406L231.183 25.6351C230.731 24.7569 230.479 23.6527 230.345 22.7202C230.28 22.263 230.245 21.8654 230.226 21.5838C230.217 21.4433 230.212 21.3324 230.209 21.2584C230.208 21.2214 230.207 21.1937 230.207 21.1761L230.207 21.1635C230.224 19.6325 230.451 18.4457 230.668 17.6533C230.777 17.2557 230.883 16.9573 230.959 16.7646C230.997 16.6683 231.027 16.5984 231.046 16.5559C231.056 16.5346 231.062 16.5202 231.066 16.5127L231.067 16.5111ZM186.608 16.5057L186.608 16.5042L186.609 16.5036L186.609 16.503L186.609 16.5021L186.61 16.5006L186.611 16.4997L186.623 16.4755L186.635 16.446C187.91 13.4505 190.031 12.0386 191.84 11.3583C192.752 11.0151 193.587 10.8586 194.192 10.7883C194.493 10.7533 194.734 10.7401 194.895 10.7354C194.976 10.733 195.036 10.7329 195.074 10.7332C195.093 10.7333 195.106 10.7336 195.113 10.7338L195.116 10.7339L195.117 10.7338L195.118 10.7339L195.119 10.7339L195.119 10.7339L195.127 10.7342C201.257 10.9186 203.233 15.4464 203.691 16.4962C203.711 16.5419 203.728 16.581 203.742 16.6129L203.747 16.6241C204.138 17.4606 204.395 18.8031 204.483 20.7822C204.514 21.6884 204.398 22.6265 204.268 23.3544C204.204 23.7153 204.138 24.0162 204.088 24.2251C204.063 24.3294 204.043 24.4103 204.029 24.4639C204.022 24.4902 204.016 24.5099 204.013 24.5224C202.858 28.0867 200.644 29.7457 198.739 30.5412C197.772 30.9453 196.872 31.1298 196.216 31.2127C195.889 31.254 195.626 31.2697 195.449 31.2752C195.361 31.278 195.295 31.2782 195.253 31.2778C195.232 31.2776 195.218 31.2773 195.21 31.2771L195.206 31.277L195.205 31.277L195.205 31.2769L195.203 31.2769L195.203 31.2769L195.199 31.2767C192.313 31.1695 190.433 30.165 189.168 29.0234C187.881 27.8622 187.184 26.5198 186.735 25.6386L186.733 25.6351C186.282 24.7569 186.03 23.6527 185.896 22.7202C185.83 22.263 185.795 21.8654 185.777 21.5838C185.768 21.4432 185.763 21.3324 185.76 21.2584C185.759 21.2214 185.758 21.1937 185.757 21.1761L185.757 21.1628C185.772 19.6285 185.997 18.44 186.212 17.6468C186.32 17.2488 186.426 16.9503 186.501 16.7576C186.539 16.6613 186.569 16.5914 186.588 16.5489C186.592 16.5395 186.596 16.5315 186.599 16.5248C186.603 16.5163 186.606 16.5099 186.608 16.5057ZM229.436 2.55563C227.261 3.22902 220.18 6.24016 217.377 14.4285C214.573 6.23958 207.493 3.22874 205.328 2.55581L205.326 2.55542C203.301 1.92871 198.807 0.92039 195.146 1.00502C191.488 0.925641 186.985 1.92832 184.949 2.555L184.946 2.55608C183.758 2.92645 181.108 3.99848 178.489 6.23878L179.1 4.74869L179.665 3.36957H178.175H166.583H165.898L165.651 4.00784L158.434 22.6068L153.83 12.3478L157.248 4.78129L157.886 3.36957H156.337H139.806H138.257L138.895 4.78129L142.313 12.347L137.488 23.0569L130.342 4.01819L130.099 3.36957H129.406H87.0865H86.0865V4.36957V33.0032L72.8103 3.96388L72.5433 3.37967H71.9009H52.6349V4.15616L51.722 3.96134L44.9516 19.1013C44.7234 16.9476 44.0373 14.9303 43.2556 13.2642C42.3 11.2274 41.16 9.62884 40.4214 8.87713C35.5243 3.89358 29.4031 2.57137 26.1459 2.57137H2H0.999573L1 3.5718L1.01485 38.3842L1.01527 39.3837H2.01485H25.6346C25.6486 39.3837 25.6645 39.3838 25.6824 39.3838C26.5893 39.3856 32.4281 39.3974 37.5238 35.6947L36.8547 37.1864L36.2227 38.5956H37.7672H50.9421H51.5909L51.8553 38.0031L54.8064 31.39L58.3804 38.0675L58.6631 38.5956H59.2621H87.0865H88.6432L88.6386 38.5855H120.937H121.937V37.5855V29.7046V28.7046H120.937H100.105V25.9155H118.53H119.53V24.9155V17.0245V16.0245H118.53H100.12V13.2656H120.345L130.049 37.9514L130.298 38.5855H130.98H141.37H142.016L142.282 37.9962L148.072 25.1411L153.872 37.9967L154.137 38.5855H154.783H164.563H165.234L165.488 37.9646L171.844 22.4481C172.873 34.5519 182.393 38.6489 184.95 39.4493L184.961 39.4526C186.99 40.0616 191.487 41.07 195.152 40.9904C198.806 41.07 203.299 40.067 205.326 39.4518L205.335 39.449C207.493 38.7723 214.575 35.7582 217.38 27.5736C220.182 35.7617 227.264 38.7727 229.441 39.4497L229.445 39.4511C231.459 40.0669 235.957 41.075 239.616 40.9955C243.271 41.0751 247.764 40.072 249.791 39.4569L249.801 39.4535C252.448 38.6183 262.603 34.2417 263 21.0404L263 21.0104L263 20.9804C262.603 7.75974 252.449 3.38216 249.798 2.55601L249.795 2.55521C247.765 1.92879 243.271 0.920389 239.616 1.00502C235.952 0.925639 231.459 1.92827 229.436 2.55563ZM56.1919 28.2853L62.6227 13.875L69.4878 28.2853H56.1919Z" fill="#F76600" stroke="white" stroke-width="2"/>
</svg>
