<svg width="127" height="33" viewBox="0 0 127 33" fill="none" xmlns="http://www.w3.org/2000/svg">
<path d="M87.9302 19.6637C87.9936 20.2766 87.8143 20.9729 87.3906 21.7519C86.967 22.5318 86.3912 23.328 85.6625 24.1397C84.9337 24.9513 84.09 25.7666 83.134 26.5856C82.1771 27.4045 81.2076 28.1435 80.2281 28.8045C79.2477 29.4645 78.2872 30.0338 77.3475 30.5122C76.4078 30.9907 75.5849 31.3085 74.8806 31.4683C74.6959 31.4964 74.5918 31.4301 74.5683 31.2722C74.5565 31.1923 74.561 31.1378 74.5846 31.1078C74.5809 31.0806 74.5891 31.0524 74.6117 31.0225C74.7041 30.7383 74.8245 30.5041 74.9729 30.3198C75.1205 30.1355 75.2545 29.9938 75.3749 29.8949C75.517 29.765 75.6809 29.687 75.8655 29.6597C77.1103 29.1495 78.317 28.4686 79.4857 27.6188C80.6536 26.7681 81.6829 25.8919 82.5737 24.9886C83.4636 24.0852 84.166 23.23 84.6802 22.4228C85.1935 21.6166 85.418 20.9884 85.3511 20.538C85.3194 20.3265 85.1827 20.1313 84.9401 19.9506C84.6974 19.7709 84.4476 19.6329 84.1905 19.5357C83.8763 19.4204 83.536 19.3087 83.1702 19.2016C82.8597 19.1126 82.3645 18.9973 81.6829 18.8557C81.0012 18.7141 80.3014 18.5897 79.5844 18.4798C78.7543 18.3337 77.8553 18.1839 76.8894 18.0304C76.3001 17.8752 75.8918 17.6664 75.6637 17.4022C75.4355 17.1389 75.3006 16.862 75.2572 16.5705C75.163 15.9359 75.4256 15.1605 76.0439 14.2427C76.6622 13.3257 77.4751 12.3524 78.4818 11.3238C79.4876 10.2951 80.6164 9.26827 81.8666 8.24325C83.1159 7.21914 84.3335 6.29307 85.5185 5.46689C86.7035 4.6407 87.7745 3.95432 88.7314 3.40504C89.6874 2.85667 90.3899 2.54889 90.8389 2.48171C91.0761 2.4463 91.3332 2.45538 91.6111 2.50894C91.8881 2.56251 92.1506 2.65149 92.3987 2.77678C92.6458 2.90207 92.8576 3.05278 93.0323 3.22982C93.2062 3.40686 93.3085 3.58844 93.3356 3.77274C93.3628 3.95796 93.2442 4.07053 92.9816 4.10957C92.9282 4.11775 92.8558 4.12864 92.7644 4.14226C92.6711 4.15588 92.5562 4.1468 92.4158 4.11321C91.076 4.52993 89.6557 5.13369 88.1556 5.92538C86.881 6.60176 85.4271 7.52873 83.7958 8.70537C82.1636 9.88201 80.4879 11.3964 78.7679 13.2485C78.5126 13.53 78.2845 13.8078 78.0826 14.0811C77.9024 14.3244 77.7576 14.5759 77.648 14.8355C77.5376 15.0952 77.4996 15.3312 77.5303 15.5428C77.5385 15.5963 77.5738 15.6581 77.639 15.7298C77.7032 15.8015 77.8363 15.8823 78.0391 15.974C78.241 16.0657 78.5334 16.171 78.9145 16.2891C79.2965 16.408 79.808 16.5415 80.4499 16.6885C81.3896 16.8465 82.2641 17.0127 83.0725 17.1888C83.7668 17.3286 84.4521 17.4902 85.1256 17.6736C85.8001 17.857 86.2971 18.0331 86.6194 18.2011C86.8194 18.2792 87.0104 18.3854 87.1924 18.5207C87.3436 18.6333 87.4939 18.7794 87.6423 18.9601C87.7917 19.1371 87.8867 19.3732 87.9302 19.6637Z" fill="#818181"/>
<path d="M107.383 15.4294C106.776 16.0613 106.122 16.6523 105.422 17.2025C104.722 17.7527 104.067 18.2502 103.46 18.6915C102.753 19.2026 102.041 19.6738 101.324 20.106C100.757 20.461 100.299 20.6916 99.9509 20.7978C99.6024 20.904 99.3227 20.973 99.1117 21.0048C98.8474 21.0438 98.5785 21.003 98.3051 20.8822C98.0308 20.7615 97.7756 20.5835 97.5384 20.3475C97.3012 20.1132 97.0912 19.8327 96.9083 19.5086C96.7254 19.1854 96.6086 18.8504 96.557 18.5063C96.4901 18.0569 96.4611 17.6356 96.4701 17.2416C96.4792 16.8484 96.4801 16.6251 96.472 16.5724C96.4484 16.4136 96.3832 16.3427 96.2782 16.3582C95.793 16.5388 95.1901 17.0618 94.4686 17.9261C93.747 18.7913 93.0292 19.7229 92.3149 20.7215C91.492 21.8991 90.6338 23.2028 89.7412 24.6346C89.6959 24.6954 89.6615 24.7345 89.6371 24.7517C89.6126 24.769 89.5891 24.7926 89.5665 24.8234C89.5439 24.8534 89.5194 24.8706 89.4931 24.8752C89.1944 24.8652 88.9835 24.7145 88.8595 24.4221C88.7354 24.1298 88.6694 23.9564 88.6612 23.9037C88.634 23.7185 88.6603 23.4443 88.7418 23.0812C88.8223 22.718 88.9373 22.3149 89.0885 21.8737C89.2388 21.4324 89.4171 20.9521 89.6226 20.4356C89.829 19.918 90.0418 19.3996 90.2608 18.8794C90.785 17.6928 91.377 16.4154 92.037 15.0453C92.6924 13.6499 93.3569 12.1782 94.0304 10.6311C94.7039 9.08406 95.3068 7.64867 95.8382 6.32586C96.4701 4.77153 97.0513 3.239 97.5818 1.72643C97.6225 1.63928 97.6905 1.54758 97.7837 1.45225C97.8815 1.38415 98.0109 1.30335 98.173 1.21165C98.335 1.11996 98.574 1.05096 98.8899 1.00284C99.1045 0.998297 99.2801 0.999207 99.4159 1.00556C99.5517 1.01283 99.6296 1.08183 99.6486 1.21438C99.6649 1.3206 99.6513 1.41684 99.6105 1.504C99.2312 2.39919 98.8103 3.38154 98.3495 4.45014C97.9476 5.3762 97.4641 6.43481 96.9001 7.62779C96.3352 8.82077 95.7088 10.0909 95.019 11.4373C94.4333 12.5795 93.8928 13.6608 93.3976 14.6804C92.9875 15.5529 92.581 16.4453 92.1773 17.3569C91.7726 18.2693 91.5011 18.9784 91.3607 19.4868C91.3381 19.5177 91.3291 19.5458 91.3327 19.5721L91.3499 19.6911C91.3616 19.7701 91.3933 19.8064 91.4467 19.7982C91.473 19.7946 91.5309 19.7319 91.6206 19.6103C92.534 18.5008 93.3976 17.5067 94.2115 16.6278C94.56 16.251 94.9094 15.8815 95.2598 15.5184C95.6101 15.1552 95.946 14.8274 96.2664 14.5369C96.5869 14.2455 96.8811 14.0058 97.15 13.817C97.4189 13.629 97.6452 13.5201 97.8299 13.4928C97.9883 13.4692 98.1757 13.4611 98.3921 13.4692C98.6093 13.4774 98.7668 13.5419 98.8655 13.6626C98.8809 13.7688 98.8727 13.8914 98.8392 14.0312C98.8058 14.1719 98.7705 14.3454 98.7352 14.5542C98.6989 14.7621 98.6337 15.009 98.5414 15.2932C98.3848 15.6954 98.2553 16.0931 98.1521 16.4871C98.067 16.8239 98.0001 17.1934 97.9521 17.592C97.9032 17.9915 97.905 18.3628 97.9557 18.7069C98.0064 19.051 98.1014 19.3279 98.2408 19.5358C98.3794 19.7456 98.66 19.8182 99.0828 19.7555C99.2937 19.7238 99.5581 19.6439 99.8758 19.5149C100.194 19.386 100.6 19.1772 101.097 18.8867C101.811 18.4291 102.558 17.9252 103.34 17.3759C103.998 16.8993 104.718 16.3527 105.503 15.7344C106.287 15.1171 107.03 14.4461 107.731 13.7189C107.757 13.7153 107.782 13.698 107.804 13.6672C107.83 13.6635 107.849 13.6544 107.86 13.6381C107.871 13.6227 107.903 13.6118 107.956 13.6036C108.035 13.5918 108.083 13.639 108.098 13.7443C108.102 13.7707 108.099 13.7988 108.09 13.8269C108.08 13.856 108.08 13.8959 108.088 13.9486C108.097 14.0022 108.079 14.1601 108.038 14.4225C108 14.6831 107.78 15.0199 107.383 15.4294Z" fill="#818181"/>
<path d="M111.554 11.3995C111.581 11.3958 111.719 11.4222 111.971 11.4794C112.222 11.5366 112.5 11.6373 112.805 11.7808C113.109 11.9251 113.39 12.0986 113.65 12.3037C113.909 12.508 114.059 12.7432 114.098 13.0074C114.114 13.1136 114.124 13.2743 114.13 13.4895C114.134 13.7055 114.076 13.9434 113.953 14.2049C113.518 15.2708 113.039 16.1732 112.516 16.9141C111.992 17.6549 111.475 18.2596 110.965 18.7271C110.454 19.1956 109.98 19.5434 109.543 19.7712C109.105 19.9991 108.753 20.1326 108.49 20.1716C108.016 20.2424 107.626 20.2061 107.321 20.0627C107.017 19.9192 106.775 19.7385 106.594 19.5225C106.414 19.3064 106.295 19.0948 106.238 18.886C106.18 18.6781 106.147 18.5483 106.139 18.4947C106.001 17.5696 106.122 16.6054 106.498 15.6021C106.875 14.5998 107.339 13.6856 107.891 12.8594C108.442 12.0341 108.986 11.3441 109.525 10.7903C110.062 10.2374 110.436 9.94411 110.648 9.91233C111.07 9.84969 111.438 9.91596 111.75 10.113C112.062 10.31 112.224 10.448 112.236 10.527C112.244 10.5805 112.196 10.6278 112.096 10.6695C112.047 10.704 111.987 10.753 111.916 10.8184C111.87 10.8792 111.807 10.9501 111.725 11.0291C111.641 11.1089 111.553 11.1961 111.46 11.2914L111.427 11.3368L111.393 11.3822C111.394 11.4104 111.449 11.4149 111.554 11.3995ZM112 13.0364C111.956 12.7459 111.766 12.5107 111.429 12.3301C111.093 12.1512 110.858 12.0704 110.727 12.0904C110.569 12.114 110.306 12.3428 109.938 12.7759C109.571 13.2098 109.198 13.7382 108.82 14.3629C108.44 14.9875 108.123 15.663 107.867 16.3911C107.611 17.1193 107.529 17.7866 107.618 18.3948C107.681 18.8179 107.884 19.0041 108.227 18.9532C108.543 18.906 108.93 18.6527 109.387 18.1915C109.844 17.7312 110.275 17.1864 110.682 16.5582C111.087 15.9299 111.424 15.2916 111.692 14.6434C111.96 13.9952 112.063 13.4595 112 13.0364Z" fill="#818181"/>
<path d="M111.348 31.7915C111.297 31.9876 111.218 32.0947 111.113 32.1102C110.954 32.1338 110.843 32.0148 110.777 31.7552C110.712 31.4946 110.671 31.3112 110.656 31.2059C110.6 30.8355 110.583 30.446 110.603 30.0374C110.623 29.6289 110.674 29.2421 110.754 28.8789C110.828 28.4622 110.929 28.0546 111.059 27.6578C111.299 26.9179 111.625 25.9773 112.034 24.8352C112.445 23.6921 112.903 22.461 113.408 21.1418C113.914 19.8226 114.428 18.4817 114.954 17.1189C115.48 15.7571 115.977 14.4787 116.448 13.2867C116.918 12.0946 117.323 11.0605 117.665 10.1844C118.007 9.30914 118.246 8.69813 118.384 8.35312C118.376 8.30047 118.38 8.23237 118.395 8.14885C118.424 7.9827 118.552 7.84107 118.777 7.72667C118.829 7.7185 118.906 7.69399 119.008 7.65132C119.087 7.63951 119.172 7.62045 119.262 7.59321C119.353 7.56598 119.451 7.54509 119.556 7.52875C119.689 7.50877 119.862 7.49697 120.077 7.49152C120.292 7.48698 120.411 7.56325 120.435 7.72213C120.446 7.80203 120.409 7.91552 120.323 8.0626C119.995 8.76077 119.67 9.47166 119.345 10.1962C119.059 10.8072 118.753 11.4745 118.429 12.199C118.105 12.9235 117.804 13.6171 117.525 14.2808C117.54 14.387 117.575 14.4361 117.627 14.4279C117.68 14.4197 117.729 14.3861 117.774 14.3253C118.5 13.4056 119.25 12.5503 120.022 11.7587C120.677 11.0932 121.38 10.4676 122.129 9.88203C122.878 9.29734 123.568 8.94417 124.196 8.82342C124.301 8.80798 124.449 8.80526 124.64 8.81797C124.831 8.82977 125.02 8.87698 125.207 8.95688C125.394 9.03768 125.561 9.16116 125.707 9.32821C125.854 9.49617 125.946 9.71225 125.985 9.97645C126.055 10.4522 125.893 11.1322 125.499 12.0156C125.104 12.8999 124.569 13.7905 123.894 14.6885C123.218 15.5873 122.442 16.3999 121.566 17.1253C120.689 17.8516 119.803 18.281 118.906 18.4145C118.748 18.4381 118.6 18.4399 118.462 18.4199C118.323 18.4 118.232 18.3264 118.186 18.1975C118.182 18.1712 118.189 18.1294 118.208 18.0722C118.275 17.9814 118.399 17.9088 118.58 17.8543C118.915 17.7508 119.389 17.4494 120.003 16.9528C120.617 16.4552 121.22 15.8524 121.817 15.1406C122.413 14.4297 122.932 13.6625 123.376 12.8391C123.82 12.0156 124.055 11.2375 124.081 10.503C124.054 10.3187 123.947 10.2397 123.762 10.267C123.684 10.2788 123.467 10.3714 123.116 10.5457C122.764 10.72 122.306 11.0387 121.741 11.5017C121.176 11.9657 120.521 12.5967 119.778 13.3965C119.034 14.1973 118.23 15.2296 117.367 16.4943C116.84 17.3032 116.276 18.3201 115.676 19.5448C115.159 20.5953 114.574 21.9262 113.924 23.5378C113.273 25.1493 112.602 27.074 111.91 29.3138L111.348 31.7915Z" fill="#818181"/>
<mask id="path-5-outside-1" maskUnits="userSpaceOnUse" x="0" y="0.177124" width="91" height="15" fill="black">
<rect fill="white" y="0.177124" width="91" height="15"/>
<path d="M79.4305 6.00982C80.3894 3.74372 82.6726 3.83749 82.6726 3.83749C85.0939 3.91042 85.8139 5.79971 85.9351 6.06018C86.0989 6.41095 86.1893 6.92841 86.2218 7.62127C86.2508 8.31065 86.0426 9.0174 86.0426 9.0174C85.1792 11.695 82.6742 11.5839 82.6742 11.5839C80.526 11.504 79.782 10.0714 79.4715 9.45846C79.1097 8.75518 79.0978 7.7654 79.0978 7.7654C79.1097 6.64363 79.4305 6.00982 79.4305 6.00982ZM70.7674 9.0174C69.904 11.695 67.3957 11.5839 67.3957 11.5839C65.2457 11.504 64.5051 10.0714 64.1928 9.45846C63.8311 8.75518 63.8191 7.7654 63.8191 7.7654C63.8294 6.64189 64.1485 6.00809 64.1485 6.00809C65.1125 3.74198 67.3939 3.83575 67.3939 3.83575C69.8186 3.90869 70.5404 5.79797 70.6582 6.05844C70.822 6.40921 70.9124 6.92668 70.9431 7.61953C70.967 8.31065 70.7674 9.0174 70.7674 9.0174ZM82.676 14.2373C83.8823 14.265 85.3925 13.9299 86.0733 13.7232C86.9316 13.4524 90.2402 12.0284 90.3699 7.71157C90.2402 3.38774 86.9316 1.96383 86.0733 1.69641C85.3925 1.4863 83.8823 1.14942 82.676 1.17894C81.4662 1.15116 79.956 1.4863 79.2786 1.69641C78.4596 1.94994 75.4701 3.23667 75.0316 7.02045C74.593 3.23667 71.6035 1.94994 70.7879 1.69641C70.1088 1.4863 68.5986 1.14942 67.3905 1.17894C66.1824 1.15116 64.6689 1.4863 63.9863 1.69641C63.3738 1.88742 61.5173 2.67405 60.4559 4.67794L61.5565 1.99162H57.5722L54.7943 9.15111L52.8115 4.73351L54.0503 1.99162H48.3682L49.607 4.73351L47.5423 9.31606L44.7934 1.99162H30.2468V13.4089H41.8824V10.7H34.3778V9.05387H41.0548V6.34149H34.3829V4.70573H41.913L45.3343 13.4089H48.9057L51.2093 8.29502L53.5162 13.4089H56.8777L60.0038 5.77714C59.8331 6.34496 59.7171 6.98398 59.6966 7.70983C59.8195 12.0267 63.1281 13.4524 63.9881 13.7215C64.6706 13.9264 66.1824 14.2633 67.3922 14.2355C68.5986 14.2633 70.1087 13.9282 70.7896 13.7215C71.6035 13.4662 74.5947 12.1778 75.0332 8.39573C75.4701 12.1795 78.4596 13.4662 79.2803 13.7215C79.9561 13.9282 81.4679 14.265 82.676 14.2373ZM10.4327 9.80576C9.71775 10.4517 8.60347 10.832 7.40562 10.832H5.25733V4.57202H7.40562C8.60347 4.56681 9.71775 4.95925 10.4327 5.60175C11.0453 6.15395 11.3114 6.90585 11.3114 7.70289C11.3114 8.50167 11.0453 9.25182 10.4327 9.80576ZM18.4048 1.99162L15.1371 9.29871C15.3248 8.72915 15.4477 8.13179 15.4477 7.56918C15.4477 5.83964 14.4017 4.22993 13.9614 3.78192C12.3557 2.1479 10.3474 1.71725 9.29969 1.71725H1L1.0051 13.6833H9.12394C9.40208 13.6833 11.8541 13.7146 13.6475 11.9381C13.8881 11.6985 14.1816 11.3061 14.4563 10.8216L13.2943 13.4124H17.8229L21.8277 4.43831L24.7421 10.5559H19.1538L20.6827 13.4124H30.2468L25.0271 1.99509H18.4048V1.99162Z"/>
</mask>
<path d="M79.4305 6.00982C80.3894 3.74372 82.6726 3.83749 82.6726 3.83749C85.0939 3.91042 85.8139 5.79971 85.9351 6.06018C86.0989 6.41095 86.1893 6.92841 86.2218 7.62127C86.2508 8.31065 86.0426 9.0174 86.0426 9.0174C85.1792 11.695 82.6742 11.5839 82.6742 11.5839C80.526 11.504 79.782 10.0714 79.4715 9.45846C79.1097 8.75518 79.0978 7.7654 79.0978 7.7654C79.1097 6.64363 79.4305 6.00982 79.4305 6.00982ZM70.7674 9.0174C69.904 11.695 67.3957 11.5839 67.3957 11.5839C65.2457 11.504 64.5051 10.0714 64.1928 9.45846C63.8311 8.75518 63.8191 7.7654 63.8191 7.7654C63.8294 6.64189 64.1485 6.00809 64.1485 6.00809C65.1125 3.74198 67.3939 3.83575 67.3939 3.83575C69.8186 3.90869 70.5404 5.79797 70.6582 6.05844C70.822 6.40921 70.9124 6.92668 70.9431 7.61953C70.967 8.31065 70.7674 9.0174 70.7674 9.0174ZM82.676 14.2373C83.8823 14.265 85.3925 13.9299 86.0733 13.7232C86.9316 13.4524 90.2402 12.0284 90.3699 7.71157C90.2402 3.38774 86.9316 1.96383 86.0733 1.69641C85.3925 1.4863 83.8823 1.14942 82.676 1.17894C81.4662 1.15116 79.956 1.4863 79.2786 1.69641C78.4596 1.94994 75.4701 3.23667 75.0316 7.02045C74.593 3.23667 71.6035 1.94994 70.7879 1.69641C70.1088 1.4863 68.5986 1.14942 67.3905 1.17894C66.1824 1.15116 64.6689 1.4863 63.9863 1.69641C63.3738 1.88742 61.5173 2.67405 60.4559 4.67794L61.5565 1.99162H57.5722L54.7943 9.15111L52.8115 4.73351L54.0503 1.99162H48.3682L49.607 4.73351L47.5423 9.31606L44.7934 1.99162H30.2468V13.4089H41.8824V10.7H34.3778V9.05387H41.0548V6.34149H34.3829V4.70573H41.913L45.3343 13.4089H48.9057L51.2093 8.29502L53.5162 13.4089H56.8777L60.0038 5.77714C59.8331 6.34496 59.7171 6.98398 59.6966 7.70983C59.8195 12.0267 63.1281 13.4524 63.9881 13.7215C64.6706 13.9264 66.1824 14.2633 67.3922 14.2355C68.5986 14.2633 70.1087 13.9282 70.7896 13.7215C71.6035 13.4662 74.5947 12.1778 75.0332 8.39573C75.4701 12.1795 78.4596 13.4662 79.2803 13.7215C79.9561 13.9282 81.4679 14.265 82.676 14.2373ZM10.4327 9.80576C9.71775 10.4517 8.60347 10.832 7.40562 10.832H5.25733V4.57202H7.40562C8.60347 4.56681 9.71775 4.95925 10.4327 5.60175C11.0453 6.15395 11.3114 6.90585 11.3114 7.70289C11.3114 8.50167 11.0453 9.25182 10.4327 9.80576ZM18.4048 1.99162L15.1371 9.29871C15.3248 8.72915 15.4477 8.13179 15.4477 7.56918C15.4477 5.83964 14.4017 4.22993 13.9614 3.78192C12.3557 2.1479 10.3474 1.71725 9.29969 1.71725H1L1.0051 13.6833H9.12394C9.40208 13.6833 11.8541 13.7146 13.6475 11.9381C13.8881 11.6985 14.1816 11.3061 14.4563 10.8216L13.2943 13.4124H17.8229L21.8277 4.43831L24.7421 10.5559H19.1538L20.6827 13.4124H30.2468L25.0271 1.99509H18.4048V1.99162Z" fill="#F76600"/>
<path d="M79.4305 6.00982C80.3894 3.74372 82.6726 3.83749 82.6726 3.83749C85.0939 3.91042 85.8139 5.79971 85.9351 6.06018C86.0989 6.41095 86.1893 6.92841 86.2218 7.62127C86.2508 8.31065 86.0426 9.0174 86.0426 9.0174C85.1792 11.695 82.6742 11.5839 82.6742 11.5839C80.526 11.504 79.782 10.0714 79.4715 9.45846C79.1097 8.75518 79.0978 7.7654 79.0978 7.7654C79.1097 6.64363 79.4305 6.00982 79.4305 6.00982ZM70.7674 9.0174C69.904 11.695 67.3957 11.5839 67.3957 11.5839C65.2457 11.504 64.5051 10.0714 64.1928 9.45846C63.8311 8.75518 63.8191 7.7654 63.8191 7.7654C63.8294 6.64189 64.1485 6.00809 64.1485 6.00809C65.1125 3.74198 67.3939 3.83575 67.3939 3.83575C69.8186 3.90869 70.5404 5.79797 70.6582 6.05844C70.822 6.40921 70.9124 6.92668 70.9431 7.61953C70.967 8.31065 70.7674 9.0174 70.7674 9.0174ZM82.676 14.2373C83.8823 14.265 85.3925 13.9299 86.0733 13.7232C86.9316 13.4524 90.2402 12.0284 90.3699 7.71157C90.2402 3.38774 86.9316 1.96383 86.0733 1.69641C85.3925 1.4863 83.8823 1.14942 82.676 1.17894C81.4662 1.15116 79.956 1.4863 79.2786 1.69641C78.4596 1.94994 75.4701 3.23667 75.0316 7.02045C74.593 3.23667 71.6035 1.94994 70.7879 1.69641C70.1088 1.4863 68.5986 1.14942 67.3905 1.17894C66.1824 1.15116 64.6689 1.4863 63.9863 1.69641C63.3738 1.88742 61.5173 2.67405 60.4559 4.67794L61.5565 1.99162H57.5722L54.7943 9.15111L52.8115 4.73351L54.0503 1.99162H48.3682L49.607 4.73351L47.5423 9.31606L44.7934 1.99162H30.2468V13.4089H41.8824V10.7H34.3778V9.05387H41.0548V6.34149H34.3829V4.70573H41.913L45.3343 13.4089H48.9057L51.2093 8.29502L53.5162 13.4089H56.8777L60.0038 5.77714C59.8331 6.34496 59.7171 6.98398 59.6966 7.70983C59.8195 12.0267 63.1281 13.4524 63.9881 13.7215C64.6706 13.9264 66.1824 14.2633 67.3922 14.2355C68.5986 14.2633 70.1087 13.9282 70.7896 13.7215C71.6035 13.4662 74.5947 12.1778 75.0332 8.39573C75.4701 12.1795 78.4596 13.4662 79.2803 13.7215C79.9561 13.9282 81.4679 14.265 82.676 14.2373ZM10.4327 9.80576C9.71775 10.4517 8.60347 10.832 7.40562 10.832H5.25733V4.57202H7.40562C8.60347 4.56681 9.71775 4.95925 10.4327 5.60175C11.0453 6.15395 11.3114 6.90585 11.3114 7.70289C11.3114 8.50167 11.0453 9.25182 10.4327 9.80576ZM18.4048 1.99162L15.1371 9.29871C15.3248 8.72915 15.4477 8.13179 15.4477 7.56918C15.4477 5.83964 14.4017 4.22993 13.9614 3.78192C12.3557 2.1479 10.3474 1.71725 9.29969 1.71725H1L1.0051 13.6833H9.12394C9.40208 13.6833 11.8541 13.7146 13.6475 11.9381C13.8881 11.6985 14.1816 11.3061 14.4563 10.8216L13.2943 13.4124H17.8229L21.8277 4.43831L24.7421 10.5559H19.1538L20.6827 13.4124H30.2468L25.0271 1.99509H18.4048V1.99162Z" stroke="white" stroke-width="1.06058" mask="url(#path-5-outside-1)"/>
</svg>
