<svg width="154" height="42" viewBox="0 0 154 42" fill="none" xmlns="http://www.w3.org/2000/svg">
<g clip-path="url(#clip0)">
<path d="M103.913 27.2416C103.988 27.9719 103.775 28.8017 103.27 29.73C102.766 30.6593 102.081 31.6081 101.213 32.5753C100.346 33.5425 99.3416 34.5141 98.2036 35.4899C97.0646 36.4658 95.9105 37.3464 94.7446 38.1341C93.5775 38.9206 92.4342 39.5989 91.3157 40.1691C90.1971 40.7392 89.2176 41.1179 88.3792 41.3083C88.1594 41.3418 88.0355 41.2629 88.0074 41.0746C87.9934 40.9794 87.9988 40.9145 88.0268 40.8788C88.0225 40.8463 88.0322 40.8128 88.0592 40.7771C88.1691 40.4385 88.3124 40.1593 88.4891 39.9397C88.6648 39.7201 88.8243 39.5513 88.9676 39.4334C89.1368 39.2787 89.3318 39.1856 89.5516 39.1532C91.0333 38.5452 92.4698 37.7338 93.8609 36.7211C95.251 35.7074 96.4763 34.6634 97.5366 33.5869C98.5959 32.5104 99.4321 31.4913 100.044 30.5295C100.655 29.5687 100.922 28.8201 100.843 28.2835C100.805 28.0314 100.642 27.7988 100.353 27.5835C100.065 27.3693 99.7672 27.2048 99.4612 27.0891C99.0873 26.9517 98.6821 26.8186 98.2468 26.6909C97.8771 26.5849 97.2877 26.4475 96.4763 26.2787C95.6648 26.11 94.8319 25.9617 93.9784 25.8308C92.9903 25.6566 91.9202 25.4781 90.7704 25.2953C90.0689 25.1103 89.5829 24.8615 89.3114 24.5466C89.0398 24.2329 88.8792 23.9029 88.8275 23.5556C88.7154 22.7994 89.0279 21.8754 89.7639 20.7817C90.4999 19.6889 91.4676 18.5292 92.6659 17.3034C93.8631 16.0776 95.2069 14.854 96.695 13.6325C98.1821 12.4122 99.6315 11.3086 101.042 10.3241C102.453 9.33961 103.727 8.52171 104.866 7.86716C106.004 7.2137 106.841 6.84695 107.375 6.76689C107.657 6.72469 107.963 6.73551 108.294 6.79934C108.624 6.86317 108.936 6.9692 109.232 7.1185C109.526 7.2678 109.778 7.4474 109.986 7.65836C110.193 7.86933 110.315 8.08571 110.347 8.30533C110.379 8.52604 110.238 8.66019 109.926 8.70671C109.862 8.71645 109.776 8.72943 109.667 8.74566C109.556 8.76189 109.419 8.75107 109.252 8.71104C107.657 9.20763 105.967 9.92708 104.181 10.8705C102.664 11.6765 100.933 12.7811 98.9914 14.1832C97.0485 15.5854 95.0538 17.3899 93.0064 19.597C92.7025 19.9324 92.431 20.2634 92.1907 20.5891C91.9762 20.879 91.8038 21.1787 91.6734 21.4881C91.542 21.7975 91.4967 22.0788 91.5333 22.3309C91.543 22.3948 91.5851 22.4683 91.6626 22.5538C91.7391 22.6393 91.8976 22.7355 92.139 22.8448C92.3793 22.9541 92.7273 23.0796 93.181 23.2202C93.6357 23.362 94.2446 23.521 95.0086 23.6963C96.1271 23.8845 97.1681 24.0825 98.1304 24.2924C98.9569 24.459 99.7726 24.6516 100.574 24.8701C101.377 25.0886 101.969 25.2985 102.352 25.4987C102.591 25.5917 102.818 25.7183 103.035 25.8795C103.214 26.0137 103.393 26.1878 103.57 26.4031C103.748 26.6141 103.861 26.8954 103.913 27.2416Z" fill="#6A6D72"/>
<path d="M127.069 22.1946C126.346 22.9476 125.568 23.6519 124.735 24.3075C123.901 24.9631 123.122 25.556 122.399 26.0818C121.557 26.6909 120.71 27.2524 119.857 27.7674C119.181 28.1904 118.637 28.4652 118.222 28.5918C117.807 28.7183 117.474 28.8006 117.223 28.8384C116.908 28.8849 116.588 28.8363 116.263 28.6924C115.936 28.5485 115.633 28.3364 115.35 28.0551C115.068 27.776 114.818 27.4417 114.6 27.0555C114.382 26.6703 114.243 26.2711 114.182 25.8611C114.102 25.3255 114.068 24.8235 114.079 24.354C114.089 23.8856 114.09 23.6194 114.081 23.5567C114.053 23.3673 113.975 23.2829 113.85 23.3013C113.273 23.5166 112.555 24.1398 111.696 25.1697C110.837 26.2008 109.983 27.3108 109.132 28.5009C108.153 29.9041 107.131 31.4577 106.069 33.1638C106.015 33.2363 105.974 33.2828 105.945 33.3034C105.916 33.3239 105.888 33.3521 105.861 33.3888C105.834 33.4245 105.805 33.4451 105.774 33.4505C105.418 33.4386 105.167 33.259 105.019 32.9106C104.872 32.5623 104.793 32.3556 104.783 32.2929C104.751 32.0722 104.782 31.7455 104.879 31.3127C104.975 30.8799 105.112 30.3996 105.292 29.8738C105.471 29.348 105.683 28.7757 105.928 28.1601C106.173 27.5434 106.427 26.9257 106.687 26.3057C107.311 24.8917 108.016 23.3695 108.802 21.7369C109.582 20.0741 110.373 18.3203 111.175 16.4768C111.976 14.6333 112.694 12.9228 113.326 11.3465C114.079 9.49429 114.77 7.66807 115.402 5.86564C115.45 5.76178 115.531 5.65251 115.642 5.53891C115.759 5.45777 115.913 5.36148 116.106 5.25221C116.298 5.14294 116.583 5.06072 116.959 5.00338C117.214 4.99797 117.423 4.99905 117.585 5.00663C117.747 5.01528 117.839 5.09751 117.862 5.25546C117.881 5.38204 117.865 5.49672 117.817 5.60058C117.365 6.66732 116.864 7.83792 116.316 9.11131C115.837 10.2148 115.262 11.4763 114.59 12.8979C113.918 14.3195 113.172 15.8331 112.351 17.4375C111.654 18.7985 111.011 20.087 110.421 21.302C109.933 22.3417 109.449 23.4052 108.969 24.4914C108.487 25.5787 108.164 26.4237 107.997 27.0295C107.97 27.0663 107.959 27.0998 107.963 27.1312L107.984 27.2729C107.998 27.3671 108.035 27.4103 108.099 27.4006C108.13 27.3963 108.199 27.3216 108.306 27.1767C109.393 25.8546 110.421 24.6699 111.39 23.6227C111.805 23.1737 112.221 22.7333 112.638 22.3006C113.055 21.8678 113.455 21.4773 113.836 21.1311C114.218 20.7838 114.568 20.4982 114.888 20.2731C115.208 20.0492 115.477 19.9194 115.697 19.8869C115.886 19.8588 116.109 19.849 116.366 19.8588C116.625 19.8685 116.812 19.9453 116.93 20.0892C116.948 20.2158 116.939 20.3618 116.899 20.5285C116.859 20.6961 116.817 20.9028 116.775 21.1516C116.732 21.3994 116.654 21.6936 116.544 22.0323C116.358 22.5116 116.204 22.9854 116.081 23.455C115.979 23.8563 115.9 24.2967 115.843 24.7716C115.784 25.2476 115.787 25.6901 115.847 26.1002C115.907 26.5102 116.02 26.8402 116.186 27.0879C116.351 27.3379 116.685 27.4244 117.189 27.3498C117.44 27.3119 117.754 27.2167 118.133 27.0631C118.511 26.9094 118.995 26.6606 119.586 26.3144C120.436 25.7691 121.325 25.1687 122.256 24.5141C123.039 23.9461 123.897 23.2948 124.831 22.5581C125.764 21.8224 126.649 21.0229 127.483 20.1563C127.514 20.152 127.543 20.1314 127.57 20.0946C127.601 20.0903 127.623 20.0795 127.637 20.06C127.65 20.0416 127.688 20.0286 127.751 20.0189C127.845 20.0048 127.902 20.0611 127.92 20.1866C127.925 20.218 127.921 20.2515 127.911 20.285C127.899 20.3197 127.899 20.3673 127.908 20.43C127.918 20.4938 127.898 20.6821 127.848 20.9948C127.803 21.3053 127.541 21.7066 127.069 22.1946Z" fill="#6A6D72"/>
<path d="M132.034 17.3931C132.065 17.3887 132.23 17.4201 132.529 17.4883C132.828 17.5564 133.16 17.6765 133.522 17.8475C133.884 18.0195 134.219 18.2261 134.528 18.4706C134.836 18.714 135.015 18.9943 135.062 19.3091C135.08 19.4357 135.092 19.6272 135.099 19.8836C135.105 20.1411 135.035 20.4245 134.889 20.7361C134.371 22.0062 133.801 23.0816 133.178 23.9644C132.554 24.8473 131.939 25.5678 131.332 26.125C130.724 26.6832 130.16 27.0976 129.639 27.3692C129.118 27.6407 128.7 27.7997 128.386 27.8463C127.821 27.9306 127.357 27.8874 126.995 27.7164C126.633 27.5455 126.344 27.3302 126.13 27.0727C125.915 26.8152 125.773 26.5631 125.705 26.3143C125.636 26.0666 125.597 25.9118 125.588 25.848C125.424 24.7456 125.567 23.5966 126.015 22.4011C126.464 21.2067 127.016 20.1173 127.673 19.1327C128.329 18.1493 128.977 17.3271 129.618 16.6671C130.258 16.0082 130.703 15.6588 130.955 15.6209C131.457 15.5463 131.895 15.6253 132.266 15.86C132.638 16.0948 132.831 16.2592 132.845 16.3534C132.855 16.4172 132.798 16.4735 132.678 16.5232C132.62 16.5643 132.549 16.6228 132.464 16.7006C132.41 16.7731 132.334 16.8575 132.236 16.9517C132.137 17.0469 132.033 17.1507 131.922 17.2643L131.882 17.3184L131.842 17.3725C131.843 17.406 131.909 17.4114 132.034 17.3931ZM132.564 19.3437C132.512 18.9975 132.286 18.7173 131.885 18.502C131.484 18.2889 131.205 18.1926 131.049 18.2164C130.86 18.2445 130.548 18.5171 130.11 19.0332C129.673 19.5503 129.229 20.18 128.778 20.9243C128.327 21.6687 127.949 22.4736 127.645 23.3413C127.34 24.209 127.242 25.0041 127.348 25.729C127.423 26.2332 127.664 26.455 128.072 26.3944C128.45 26.3381 128.91 26.0363 129.454 25.4867C129.998 24.9381 130.511 24.289 130.995 23.5403C131.478 22.7917 131.878 22.0311 132.197 21.2586C132.516 20.4862 132.639 19.8479 132.564 19.3437Z" fill="#6A6D72"/>
<path d="M131.788 41.6923C131.727 41.926 131.633 42.0536 131.508 42.072C131.319 42.1002 131.187 41.9584 131.108 41.649C131.031 41.3385 130.982 41.12 130.964 40.9945C130.898 40.5531 130.878 40.0889 130.901 39.6021C130.925 39.1152 130.985 38.6543 131.081 38.2216C131.169 37.725 131.289 37.2392 131.443 36.7665C131.73 35.8847 132.118 34.7639 132.605 33.4029C133.093 32.0408 133.638 30.5737 134.24 29.0018C134.842 27.4298 135.454 25.8318 136.08 24.2079C136.706 22.5851 137.298 21.0618 137.858 19.6413C138.418 18.2208 138.9 16.9885 139.308 15.9445C139.714 14.9015 139.999 14.1734 140.163 13.7623C140.154 13.6995 140.158 13.6184 140.176 13.5189C140.211 13.3209 140.363 13.1521 140.631 13.0158C140.693 13.0061 140.785 12.9768 140.906 12.926C141 12.9119 141.101 12.8892 141.209 12.8568C141.316 12.8243 141.433 12.7994 141.559 12.7799C141.716 12.7561 141.922 12.7421 142.178 12.7356C142.434 12.7302 142.576 12.8211 142.604 13.0104C142.618 13.1056 142.574 13.2408 142.472 13.4161C142.081 14.2481 141.693 15.0952 141.308 15.9585C140.966 16.6866 140.603 17.4818 140.217 18.3452C139.831 19.2085 139.473 20.0351 139.141 20.8259C139.159 20.9525 139.2 21.0109 139.262 21.0012C139.325 20.9915 139.383 20.9514 139.437 20.8789C140.301 19.783 141.193 18.7639 142.113 17.8204C142.893 17.0274 143.729 16.282 144.621 15.5842C145.512 14.8875 146.334 14.4666 147.081 14.3227C147.206 14.3043 147.383 14.3011 147.611 14.3162C147.837 14.3303 148.062 14.3865 148.285 14.4817C148.507 14.578 148.706 14.7252 148.88 14.9242C149.055 15.1244 149.164 15.3819 149.211 15.6967C149.295 16.2636 149.102 17.0739 148.632 18.1266C148.162 19.1804 147.525 20.2417 146.722 21.3117C145.918 22.3828 144.994 23.3511 143.951 24.2155C142.907 25.081 141.852 25.5927 140.785 25.7518C140.596 25.7799 140.42 25.7821 140.256 25.7583C140.091 25.7345 139.982 25.6468 139.927 25.4932C139.923 25.4618 139.931 25.4121 139.953 25.3439C140.033 25.2357 140.181 25.1491 140.396 25.0842C140.795 24.9609 141.359 24.6017 142.09 24.0099C142.821 23.4171 143.539 22.6987 144.25 21.8505C144.959 21.0034 145.577 20.0892 146.105 19.1079C146.634 18.1266 146.913 17.1994 146.945 16.3242C146.912 16.1046 146.785 16.0105 146.565 16.0429C146.472 16.057 146.214 16.1673 145.796 16.375C145.377 16.5828 144.831 16.9625 144.159 17.5143C143.487 18.0671 142.707 18.819 141.823 19.7722C140.937 20.7264 139.98 21.9565 138.952 23.4636C138.325 24.4275 137.654 25.6393 136.94 27.0987C136.324 28.3505 135.628 29.9365 134.854 31.8568C134.079 33.7772 133.281 36.0708 132.456 38.7398L131.788 41.6923Z" fill="#6A6D72"/>
<path d="M94.7802 10.9198C95.939 8.14395 98.6981 8.25882 98.6981 8.25882C101.624 8.34816 102.494 10.6624 102.641 10.9815C102.839 11.4112 102.948 12.045 102.987 12.8938C103.022 13.7382 102.771 14.6039 102.771 14.6039C101.727 17.8839 98.7001 17.7478 98.7001 17.7478C96.104 17.65 95.205 15.8951 94.8297 15.1442C94.3925 14.2827 94.3781 13.0703 94.3781 13.0703C94.3925 11.6962 94.7802 10.9198 94.7802 10.9198ZM84.3111 14.6039C83.2677 17.8839 80.2365 17.7478 80.2365 17.7478C77.6384 17.65 76.7434 15.8951 76.366 15.1442C75.9289 14.2827 75.9145 13.0703 75.9145 13.0703C75.9268 11.6941 76.3124 10.9177 76.3124 10.9177C77.4775 8.14183 80.2345 8.25669 80.2345 8.25669C83.1646 8.34603 84.0369 10.6603 84.1792 10.9794C84.3771 11.409 84.4864 12.0429 84.5235 12.8916C84.5524 13.7382 84.3111 14.6039 84.3111 14.6039ZM98.7022 20.998C100.16 21.032 101.985 20.6215 102.808 20.3684C103.845 20.0366 107.843 18.2923 108 13.0044C107.843 7.7079 103.845 5.96368 102.808 5.6361C101.985 5.37872 100.16 4.96607 98.7022 5.00223C97.2402 4.96819 95.4153 5.37872 94.5967 5.6361C93.6069 5.94666 89.9942 7.52284 89.4642 12.1578C88.9343 7.52284 85.3216 5.94666 84.3359 5.6361C83.5152 5.37872 81.6902 4.96607 80.2303 5.00223C78.7704 4.96819 76.9414 5.37872 76.1165 5.6361C75.3763 5.87008 73.1327 6.83366 71.8501 9.28833L73.1802 5.99771H68.3653L65.0083 14.7677L62.6122 9.3564L64.1092 5.99771H57.2426L58.7396 9.3564L56.2445 14.9698L52.9226 5.99771H35.3436V19.9834H49.4047V16.6651H40.3358V14.6486H48.4046V11.3261H40.342V9.32237H49.4418L53.5762 19.9834H57.8921L60.6759 13.7191L63.4638 19.9834H67.5261L71.3037 10.6348C71.0975 11.3303 70.9573 12.1131 70.9326 13.0022C71.081 18.2902 75.0793 20.0366 76.1186 20.3663C76.9434 20.6173 78.7704 21.0299 80.2324 20.9959C81.6903 21.0299 83.5152 20.6194 84.3379 20.3663C85.3215 20.0536 88.9363 18.4753 89.4663 13.8424C89.9941 18.4774 93.6069 20.0536 94.5987 20.3663C95.4153 20.6194 97.2423 21.032 98.7022 20.998ZM11.3991 15.5697C10.5351 16.3609 9.1885 16.8268 7.74094 16.8268H5.14481V9.15858H7.74094C9.1885 9.1522 10.5351 9.63292 11.3991 10.4199C12.1393 11.0964 12.461 12.0174 12.461 12.9937C12.461 13.9722 12.1393 14.8911 11.3991 15.5697ZM21.033 5.99771L17.0841 14.9485C17.3109 14.2509 17.4594 13.5191 17.4594 12.8299C17.4594 10.7114 16.1954 8.73954 15.6634 8.19075C13.723 6.18915 11.296 5.66163 10.0299 5.66163H0L0.00616703 20.3195H9.81747C10.1536 20.3195 13.1168 20.3577 15.284 18.1817C15.5747 17.8882 15.9294 17.4075 16.2614 16.814L14.8571 19.9876H20.3298L25.1694 8.99479L28.6914 16.4886H21.9382L23.7858 19.9876H35.3436L29.0357 6.00196H21.033V5.99771Z" fill="white"/>
</g>
<defs>
<clipPath id="clip0">
<rect width="154" height="42" fill="white"/>
</clipPath>
</defs>
</svg>
