<svg width="28" height="22" viewBox="0 0 28 22" fill="none" xmlns="http://www.w3.org/2000/svg">
<path d="M26.1397 6.70313L22.6397 0.687507C22.5626 0.556362 22.4516 0.447553 22.318 0.372097C22.1843 0.296641 22.0327 0.257218 21.8785 0.257819H6.12848C5.9743 0.257218 5.82269 0.296641 5.68901 0.372097C5.55533 0.447553 5.44432 0.556362 5.36723 0.687507L1.86723 6.70313C1.79029 6.83402 1.74985 6.98253 1.75 7.13367C1.75015 7.28482 1.79089 7.43325 1.8681 7.56399C1.94531 7.69473 2.05626 7.80316 2.18976 7.87834C2.32326 7.95352 2.47459 7.99279 2.62848 7.99219H3.94098V19.1641C3.94098 19.8478 4.21754 20.5036 4.70983 20.9871C5.20211 21.4706 5.86979 21.7422 6.56598 21.7422H21.441C22.1372 21.7422 22.8049 21.4706 23.2971 20.9871C23.7894 20.5036 24.066 19.8478 24.066 19.1641V7.99219H25.3785C25.5324 7.99279 25.6837 7.95352 25.8172 7.87834C25.9507 7.80316 26.0617 7.69473 26.1389 7.56399C26.2161 7.43325 26.2568 7.28482 26.257 7.13367C26.2571 6.98253 26.2167 6.83402 26.1397 6.70313ZM6.63598 1.97657H21.371L23.8691 6.27344H4.13786L6.63598 1.97657ZM22.316 19.1641C22.316 19.392 22.2238 19.6106 22.0597 19.7717C21.8956 19.9329 21.673 20.0234 21.441 20.0234H6.56598C6.33392 20.0234 6.11136 19.9329 5.94726 19.7717C5.78317 19.6106 5.69098 19.392 5.69098 19.1641V7.99219H22.316V19.1641Z" fill="#333333"/>
<path d="M9.625 17.0156H18.375C18.6071 17.0156 18.8296 16.9251 18.9937 16.7639C19.1578 16.6028 19.25 16.3842 19.25 16.1562V11.4297C19.25 11.2018 19.1578 10.9832 18.9937 10.822C18.8296 10.6609 18.6071 10.5703 18.375 10.5703H9.625C9.39294 10.5703 9.17038 10.6609 9.00628 10.822C8.84219 10.9832 8.75 11.2018 8.75 11.4297V16.1562C8.75 16.3842 8.84219 16.6028 9.00628 16.7639C9.17038 16.9251 9.39294 17.0156 9.625 17.0156ZM10.5 12.2891H17.5V15.2969H10.5V12.2891Z" fill="#333333"/>
</svg>
