<svg width="20" height="28" viewBox="0 0 20 28" fill="none" xmlns="http://www.w3.org/2000/svg">
<mask id="path-1-inside-1" fill="white">
<path d="M10 0C4.57216 0 0.15625 4.41591 0.15625 9.84375C0.15625 11.6776 0.664242 13.4673 1.62565 15.02L9.43967 27.6122C9.58935 27.8534 9.85305 28 10.1367 28C10.1389 28 10.141 28 10.1432 28C10.4292 27.9978 10.6935 27.8467 10.8404 27.6012L18.4553 14.887C19.3636 13.3672 19.8438 11.6232 19.8438 9.84375C19.8438 4.41591 15.4278 0 10 0ZM17.0474 14.0447L10.1243 25.6039L3.02007 14.1556C2.21983 12.8633 1.78594 11.3723 1.78594 9.84375C1.78594 5.32055 5.4768 1.62969 10 1.62969C14.5232 1.62969 18.2086 5.32055 18.2086 9.84375C18.2086 11.3269 17.8033 12.7798 17.0474 14.0447Z"/>
</mask>
<path d="M10 0C4.57216 0 0.15625 4.41591 0.15625 9.84375C0.15625 11.6776 0.664242 13.4673 1.62565 15.02L9.43967 27.6122C9.58935 27.8534 9.85305 28 10.1367 28C10.1389 28 10.141 28 10.1432 28C10.4292 27.9978 10.6935 27.8467 10.8404 27.6012L18.4553 14.887C19.3636 13.3672 19.8438 11.6232 19.8438 9.84375C19.8438 4.41591 15.4278 0 10 0ZM17.0474 14.0447L10.1243 25.6039L3.02007 14.1556C2.21983 12.8633 1.78594 11.3723 1.78594 9.84375C1.78594 5.32055 5.4768 1.62969 10 1.62969C14.5232 1.62969 18.2086 5.32055 18.2086 9.84375C18.2086 11.3269 17.8033 12.7798 17.0474 14.0447Z" fill="#FF8D20" stroke="white" stroke-width="0.3" mask="url(#path-1-inside-1)"/>
<mask id="path-2-inside-2" fill="white">
<path d="M10 4.92188C7.28608 4.92188 5.07812 7.12983 5.07812 9.84375C5.07812 12.5403 7.25015 14.7656 10 14.7656C12.7838 14.7656 14.9219 12.5107 14.9219 9.84375C14.9219 7.12983 12.7139 4.92188 10 4.92188ZM10 13.1359C8.18126 13.1359 6.70781 11.6576 6.70781 9.84375C6.70781 8.03447 8.19072 6.55156 10 6.55156C11.8093 6.55156 13.2867 8.03447 13.2867 9.84375C13.2867 11.6311 11.8476 13.1359 10 13.1359Z"/>
</mask>
<path d="M10 4.92188C7.28608 4.92188 5.07812 7.12983 5.07812 9.84375C5.07812 12.5403 7.25015 14.7656 10 14.7656C12.7838 14.7656 14.9219 12.5107 14.9219 9.84375C14.9219 7.12983 12.7139 4.92188 10 4.92188ZM10 13.1359C8.18126 13.1359 6.70781 11.6576 6.70781 9.84375C6.70781 8.03447 8.19072 6.55156 10 6.55156C11.8093 6.55156 13.2867 8.03447 13.2867 9.84375C13.2867 11.6311 11.8476 13.1359 10 13.1359Z" fill="#FF8D20" stroke="white" stroke-width="0.3" mask="url(#path-2-inside-2)"/>
</svg>
