<svg width="41" height="45" viewBox="0 0 41 45" fill="none" xmlns="http://www.w3.org/2000/svg">
<path d="M21.5814 13.0435C20.8857 13.7391 20.7117 14.6087 20.5378 15.4782C20.5378 16 20.3639 16.3478 20.3639 16.8696C20.3639 17.0435 20.1901 17.3913 19.8422 17.5652C19.4944 17.7391 19.3205 17.5652 18.9727 17.5652C19.4944 17.3913 19.6682 17.2174 19.6682 16.6956C19.6682 16.3478 19.6683 15.8261 19.8422 15.3043C20.0161 14.7826 20.0161 14.2609 20.3639 13.913C20.7118 13.5652 21.0596 13.0435 21.5814 13.0435Z" fill="#323232"/>
<path d="M8.19922 30.2606C9.06879 29.391 9.93836 28.5214 10.8079 27.6519L10.6339 27.8258C10.8079 26.0866 10.9819 24.1736 11.1558 22.4345L11.3296 22.7823L9.59051 21.0431C9.41659 20.8692 9.41664 20.8692 9.41664 20.6953C9.59055 19.8257 9.76444 18.9562 9.93836 18.0866C9.93836 18.0866 9.93831 17.9127 10.1122 17.9127C10.634 17.7388 11.1558 17.391 11.6775 17.217C11.1558 17.5649 10.8079 17.9127 10.2862 18.2605L10.4601 18.0866C10.4601 18.9562 10.4601 19.8257 10.2862 20.6953L10.1122 20.3475L11.8514 22.0866C12.0253 22.2605 12.0253 22.2605 12.0253 22.4345C11.8514 24.1736 11.5036 26.0866 11.1558 27.8258C11.1558 27.8258 11.1557 27.9997 10.9818 27.9997C10.1122 28.8693 9.06879 29.5649 8.19922 30.2606Z" fill="#323232"/>
<path d="M17.2442 10.9563L21.418 10.4346L23.505 10.0867C23.8529 10.0867 24.0268 9.91283 24.2007 9.73892C24.3746 9.56501 24.2007 9.3911 24.2007 9.04327C24.0268 7.65196 23.8528 6.26065 23.6789 4.86934C23.6789 4.17368 23.505 3.47803 23.505 2.78237L23.3312 1.73889C23.3312 1.21715 23.3311 1.56498 23.1572 1.39106C22.9833 1.21715 22.8094 1.21715 22.6355 1.21715L21.592 1.21715L19.505 1.21715C18.1137 1.21715 16.7224 1.21715 15.3311 1.39106C12.5484 1.56498 9.76585 1.73889 6.98323 2.08672L7.33108 1.9128L4.89624 8.86935L4.72237 9.04327L1.41797 9.21718L1.59189 9.04327L1.93974 10.2607L1.76582 10.2607L1.41797 9.04327L1.41797 8.86935L4.72237 8.52152L4.54845 8.69544L6.63538 1.56498C6.63538 1.39106 6.80931 1.39106 6.98323 1.39106C9.76585 0.869323 12.5485 0.521498 15.505 0.347585C16.8964 0.173671 18.2876 0.17367 19.6789 -0.000243843C20.3746 -0.000243832 21.0702 -0.00024382 21.7659 -0.000243809L22.8093 -0.000243792C23.1572 -0.000243786 23.8529 0.173669 24.2007 0.521496C24.3746 0.69541 24.7224 0.869326 24.7224 1.21715C24.8964 1.73889 24.7224 1.73889 24.8963 1.9128L24.8963 2.95629C24.8963 3.65195 24.8964 4.34759 25.0703 5.04325C25.0703 6.43456 25.2442 7.82587 25.2442 9.21718C25.2442 9.56501 25.2442 10.0868 25.0703 10.4346C24.7225 10.7824 24.3746 10.9563 23.8529 10.9563L21.7659 11.1302L17.2442 10.9563Z" fill="#323232"/>
<path d="M24.9004 9.7394C25.4222 9.56548 26.1178 9.21766 26.6396 9.04375C27.1613 8.86983 27.8569 8.69592 28.0309 8.34809C28.2048 8.17418 28.2048 8.00026 28.2048 7.65243L28.0309 6.78286L27.857 5.04373L27.6831 3.30459L27.6831 2.43502L27.6831 1.91328C27.6831 1.73937 27.6831 1.73937 27.6831 1.73937C27.5092 1.39154 26.9874 1.21763 26.4657 1.21763C25.944 1.04372 25.2483 0.869797 24.7266 0.695884C25.4222 0.695884 25.9439 0.521973 26.6396 0.521973C27.1613 0.521973 28.0309 0.521975 28.5527 1.21763C28.7266 1.39154 28.7266 1.56545 28.7266 1.91328L28.7266 2.43502L28.9004 3.30459L29.0744 5.04373L29.2483 6.95678L29.2483 7.82635C29.2483 8.17418 29.0743 8.522 28.9004 8.86983C28.7265 9.21766 28.2048 9.39157 28.0309 9.56549C27.683 9.56549 27.3352 9.7394 27.1613 9.7394C26.1178 9.7394 25.5961 9.7394 24.9004 9.7394Z" fill="#323232"/>
<path d="M6.11387 1.73875C5.24431 2.08658 4.37474 2.4344 3.50517 2.60832C3.15734 2.78223 2.63562 2.78223 2.11388 2.95615C1.76605 2.95615 1.5921 3.13006 1.41818 3.47789C1.07035 3.99963 1.07039 5.04311 1.07039 5.91267C1.07039 6.78224 1.07038 7.65181 0.896462 8.6953C0.548635 7.82573 0.374732 6.95616 0.200818 6.08659C0.0269045 5.21702 -0.147009 4.17354 0.200818 3.13006C0.374732 2.60832 1.07037 2.08658 1.59211 2.08658C2.11385 2.08658 2.46171 1.91266 2.98345 1.91266C4.37476 1.56483 5.24431 1.56484 6.11387 1.73875Z" fill="#323232"/>
<path d="M14.6341 12.1737C15.1558 12.1737 15.6775 11.9998 16.1992 11.9998L16.1992 12.1737L16.0253 10.4346L16.1992 10.6085C14.9818 10.7824 13.5905 10.7824 12.3731 10.9563L12.3731 12.1737L12.1992 10.9563C13.4166 10.7824 14.8079 10.6085 16.0253 10.6085C16.0253 10.6085 16.1992 10.6085 16.1992 10.7824L16.3732 12.5215L16.3732 12.6954C15.6775 11.9998 15.1558 11.9998 14.6341 12.1737Z" fill="#323232"/>
<path d="M8.72266 4.52175C11.8531 4.00001 14.8096 3.65219 17.9401 3.47827L18.114 3.47827L20.027 5.04349L20.2009 5.21741L20.3749 7.47829C20.3749 7.6522 20.2009 7.82611 20.2009 7.82611C17.2444 8.00003 14.4618 8.17394 11.5052 8.34785C14.4618 8.00003 17.2444 7.6522 20.2009 7.30437L20.027 7.6522L19.8532 5.39132L20.027 5.56524L18.114 4.00001L18.2879 4.00001C14.8096 4.34784 11.8531 4.52175 8.72266 4.52175Z" fill="#323232"/>
<path d="M28.7187 1.21714C29.5883 1.04323 30.4579 0.869309 31.3275 0.695395C32.197 0.521482 33.2405 0.521484 34.11 0.521484C34.6318 0.521484 34.9797 0.521482 35.5014 0.695396C36.0232 0.869309 36.3709 0.869311 37.0666 1.04322C37.4144 1.21714 37.5884 1.39105 37.7623 1.73888C37.9362 2.08671 37.9362 2.26062 37.9362 2.60845C37.9362 3.13019 38.1101 3.47802 38.1101 3.99976C38.1101 4.5215 38.1101 5.04324 38.1101 5.56498C38.1101 6.08673 37.7623 6.95629 37.2406 7.1302C36.371 7.65195 35.5014 7.82586 34.4579 8.17369C33.5883 8.3476 32.5449 8.52151 31.6753 8.52151C30.8057 8.52151 29.9361 8.52151 28.8926 8.3476C29.7622 8.17369 30.6318 7.99977 31.5013 7.82586C32.3709 7.65195 33.2405 7.47803 34.11 7.1302C34.9796 6.78238 35.8493 6.43455 36.371 6.08672C36.5449 5.91281 36.5448 5.91281 36.7187 5.39107C36.7187 5.04324 36.7187 4.5215 36.7187 4.17367C36.7187 3.82584 36.5449 3.30411 36.5449 2.95628C36.5449 2.43454 36.5448 2.43454 36.197 2.26062C36.0231 2.08671 35.5014 2.08671 35.1536 1.91279L33.9362 1.56496C33.0666 1.39105 32.197 1.21714 31.3275 1.21714C30.6318 1.39106 29.5883 1.39106 28.7187 1.21714Z" fill="#323232"/>
<path d="M33.4141 4.52157C33.0662 4.69548 32.7183 4.69548 32.3705 4.8694C32.0227 4.8694 31.6749 4.8694 31.3271 4.8694C30.6314 4.8694 29.9358 4.8694 29.4141 4.8694C30.1097 4.69548 30.6314 4.69548 31.3271 4.52157C31.6749 4.52157 32.0227 4.34766 32.3705 4.34766C32.8923 4.34766 33.2401 4.34765 33.4141 4.52157C33.588 4.34765 33.588 4.34765 33.4141 4.52157C33.588 4.52157 33.588 4.52157 33.4141 4.52157Z" fill="#323232"/>
<path d="M33.4141 3.47787C33.0662 3.65179 32.7183 3.65179 32.3705 3.8257C32.0227 3.8257 31.6749 3.8257 31.3271 3.8257C30.6314 3.8257 29.9358 3.8257 29.4141 3.8257C30.1097 3.65179 30.6314 3.65179 31.3271 3.47787C31.6749 3.47787 32.0227 3.30396 32.3705 3.30396C32.7183 3.30396 33.0662 3.30396 33.4141 3.47787C33.4141 3.30396 33.4141 3.30396 33.4141 3.47787Z" fill="#323232"/>
<path d="M33.5976 5.56528C33.2498 5.73919 32.902 5.73918 32.5542 5.9131C32.2064 5.9131 31.8585 5.9131 31.5107 5.9131C30.815 5.9131 30.1194 5.9131 29.5977 5.9131C30.2933 5.73918 30.815 5.73919 31.5107 5.56528C31.8585 5.56528 32.2064 5.39136 32.5542 5.39136C32.902 5.39136 33.2498 5.39136 33.5976 5.56528Z" fill="#323232"/>
<path d="M33.7696 6.95614C33.4218 7.13006 33.0739 7.13006 32.7261 7.30397C32.3783 7.30397 32.0305 7.30397 31.6826 7.30397C30.987 7.30397 30.2913 7.30397 29.7695 7.30397C30.4652 7.13006 30.987 7.13006 31.6826 6.95614C32.0305 6.95614 32.3783 6.78223 32.7261 6.78223C33.0739 6.78223 33.4218 6.78223 33.7696 6.95614C33.7696 6.78223 33.7696 6.95614 33.7696 6.95614Z" fill="#323232"/>
<path d="M33.2461 2.087C32.8983 2.26092 32.5505 2.26091 32.2026 2.43483C31.8548 2.43483 31.507 2.43483 31.1592 2.43483C30.4636 2.43483 29.7678 2.43483 29.2461 2.43483C29.9417 2.26091 30.4636 2.26092 31.1592 2.087C31.507 2.087 31.8548 1.91309 32.2026 1.91309C32.5505 1.91309 32.8983 1.91309 33.2461 2.087Z" fill="#323232"/>
<path d="M37.9375 3.13027C38.6332 3.13027 39.3289 2.95636 39.8506 3.13027C40.0245 3.13027 40.0244 3.30418 40.1984 3.30418C40.1984 3.65201 40.3723 3.99984 40.3723 4.34767C40.3723 4.52158 40.1984 4.52159 40.1984 4.6955C39.5027 4.86941 38.981 5.04332 38.2853 5.04332C38.8071 4.69549 39.5027 4.34767 40.0245 4.17375L39.8506 4.52158C39.8506 4.17375 39.8506 3.82593 39.8506 3.4781L40.1984 3.82593C39.1549 3.65202 38.6332 3.4781 37.9375 3.13027Z" fill="#323232"/>
<path d="M16.2028 34.9563L14.4637 38.0868L14.2898 38.0868C10.9855 38.2607 7.68107 38.2607 4.37671 38.2607L4.02886 38.2607L3.85499 37.9129L2.98542 34.4346L2.8115 33.7389L3.50714 33.7389C4.02888 33.7389 4.55065 33.3911 4.72456 33.2172C4.89847 33.0433 4.89843 32.1737 4.89843 31.652C4.89843 30.4346 5.07236 29.0433 5.07236 27.8259C5.42018 25.2172 5.768 22.7824 6.63757 20.1737C6.9854 18.9563 7.33324 17.7389 7.85499 16.5215C8.0289 15.9997 8.20283 15.3041 8.20283 14.7824C8.20283 14.2606 8.0289 13.7389 7.85499 13.391C7.33324 12.6954 6.11587 12.5215 4.72456 12.5215C4.02891 12.5215 3.33323 12.3476 2.63757 12.1736C1.94192 11.9997 1.24628 11.3041 1.07236 10.4345L0.898437 9.91277L1.42016 9.91277C4.72452 9.73886 7.85503 9.56494 11.1594 9.56494C8.02894 10.0867 4.72453 10.4345 1.59408 10.7823L1.94193 10.2606C2.28976 11.3041 3.50716 11.478 4.72456 11.478C5.42021 11.478 5.94191 11.478 6.63757 11.6519C7.33322 11.8258 8.0289 11.9997 8.72455 12.6954C9.94195 14.0867 9.42023 15.8258 9.0724 16.8693C8.72457 18.0867 8.37674 19.3041 8.02891 20.5215C7.33325 22.9563 6.81152 25.3911 6.4637 27.8259C6.28978 29.0433 6.28976 30.2607 6.11585 31.652L6.11585 32.5216C6.11585 32.6955 6.11583 33.3911 5.768 33.7389C5.24626 34.6085 4.37672 34.7824 3.68107 34.7824L4.20279 34.0868L4.89843 37.739L4.37671 37.3911C7.68107 37.565 10.9854 37.739 14.1158 37.9129L13.942 37.9129L16.2028 34.9563Z" fill="#323232"/>
<path d="M20.371 39.8259L2.80574 39.8259C1.58834 39.8259 0.71875 40.8694 0.71875 41.9129C0.71875 43.1303 1.76225 43.9999 2.80574 43.9999L20.371 43.9999C21.5884 43.9999 22.458 42.9564 22.458 41.9129C22.6319 40.6955 21.5884 39.8259 20.371 39.8259Z" stroke="#323232" stroke-width="0.6306" stroke-miterlimit="10"/>
<path d="M0.722795 42.6084C0.374968 41.391 0.375 40.1736 0.375 39.1302C0.548914 37.9128 0.722796 36.8693 0.722796 35.6519L0.722796 35.478L0.89672 35.478C1.59237 35.1301 2.11413 34.9562 2.80978 34.6084L2.80978 34.7823C2.28804 35.3041 1.76631 35.6519 1.24457 36.1736L1.41844 35.8258C1.41844 37.0432 1.41844 38.0867 1.41844 39.3041C1.41844 40.1736 1.24454 41.391 0.722795 42.6084Z" fill="#323232"/>
<path d="M22.6425 42.6089C23.1643 42.0872 23.686 41.5654 24.0338 41.0437L24.0338 41.2176L23.686 37.3915L23.8599 37.5654L22.9904 36.6959L23.1642 36.8698L19.1643 36.1741L18.8164 36.1741L18.6425 35.8263L18.1208 34.7828L18.6425 35.1306C17.773 35.1306 16.9034 34.9567 16.0338 34.7828L15.8598 34.7828L15.686 34.6089C15.1642 34.0871 14.2947 33.7393 13.9468 32.6958C13.7729 32.1741 13.7729 31.6524 13.9468 31.1306L14.2947 30.0871C14.6425 28.6958 14.9903 27.3045 15.1643 25.9132C15.3382 24.5219 15.3381 22.9567 15.3381 21.5654C15.3381 20.8697 15.3382 20.0001 15.5121 19.1306C15.8599 18.261 16.3817 17.5653 17.2512 17.0436L17.4251 18.0871C16.9034 17.9132 16.5555 17.5653 16.5555 17.2175C16.3816 16.6958 16.5555 16.5219 16.5555 16.3479L16.5555 14.7827L16.5555 14.0871C16.5555 13.9132 16.5556 13.3914 16.9034 13.0436C17.4251 12.5219 18.1208 12.5219 18.6425 12.5219C19.686 12.5219 20.7295 12.5218 21.5991 12.3479C21.773 12.3479 22.1208 12.3479 22.2947 12.3479C22.4686 12.3479 22.6425 12.174 22.8164 12.0001C23.1642 11.6523 23.5121 11.3045 23.686 10.7827C23.5121 11.3045 23.1643 11.6523 22.9904 12.174C22.8165 12.3479 22.6426 12.5218 22.4687 12.6958C22.1208 12.8697 21.9469 12.8697 21.5991 12.8697L18.6425 13.3914C18.1208 13.3914 17.599 13.5653 17.4251 13.7392C17.2512 13.7392 17.4251 14.4349 17.4251 14.9566L17.4251 16.5219C17.4251 16.6958 17.4251 17.0436 17.4251 17.0436L17.599 17.2175L19.1643 17.3914L17.773 18.261C17.4251 18.6088 16.9033 19.1306 16.7294 19.6523C16.5555 20.1741 16.5555 21.0436 16.5555 21.7393C16.5555 23.3045 16.5556 24.6958 16.3817 26.261C16.2078 27.8263 15.8599 29.3915 15.3381 30.7828L14.9903 31.8263C14.9903 32.1741 14.8164 32.348 14.9903 32.5219C15.1642 32.8698 15.686 33.3915 16.2077 33.9132L15.8598 33.7393C16.7294 33.9132 17.599 33.9132 18.4686 34.0871L18.8164 34.0871L18.9904 34.435L19.3381 35.4785L18.9904 35.1306L23.1642 36.1741L23.3382 36.1741L24.0338 37.0437L24.2078 37.2176L24.2078 37.3915L24.2078 41.2176C23.86 41.7394 23.1643 42.2611 22.6425 42.6089Z" fill="#323232"/>
</svg>
