<svg width="60" height="42" viewBox="0 0 60 42" fill="none" xmlns="http://www.w3.org/2000/svg">
<path d="M6.29539 9.66466C6.13695 9.0309 5.97853 8.39714 5.82009 7.92182C5.82009 7.76338 5.66159 7.76338 5.66159 7.60494C5.50315 7.60494 5.66163 7.60494 5.50319 7.60494L4.55249 7.76339C3.91873 7.92183 3.44345 8.08026 2.8097 8.2387L2.3344 8.39714C2.17596 8.39714 2.1759 8.39714 2.1759 8.39714C2.01746 8.55558 1.8591 8.71402 1.8591 9.0309C1.70066 9.50622 1.70062 9.8231 2.0175 9.98154C2.33438 10.2984 2.96814 10.2984 3.60189 10.2984C4.71097 10.4569 5.97851 10.7737 7.08758 11.0906C5.82007 11.0906 4.71101 11.2491 3.44349 11.0906C2.80973 11.0906 2.17596 11.0906 1.5422 10.7737C1.22532 10.6153 0.90844 10.14 0.75 9.66466C0.75 9.18934 0.749961 8.87246 0.908401 8.55558C1.06684 8.2387 1.22532 7.92182 1.5422 7.60494C1.70064 7.60494 1.70066 7.44651 1.8591 7.44651C2.01754 7.44651 2.1759 7.28806 2.1759 7.28806L2.65129 7.28806C3.28505 7.12962 3.91877 7.12963 4.39409 6.97119L5.34469 6.81274C5.34469 6.81274 5.50315 6.81274 5.66159 6.81274C5.82003 6.81274 5.97849 6.97119 5.97849 6.97119C6.13693 7.12963 6.13689 7.28807 6.13689 7.44651C6.45377 8.55558 6.45383 9.0309 6.29539 9.66466Z" fill="white"/>
<path d="M17.3831 22.4983C14.0559 19.0126 11.6793 14.8932 8.03516 11.8828C10.2533 12.675 12.1546 14.5763 13.5805 16.3191C15.1649 18.2204 16.4325 20.2801 17.3831 22.4983Z" fill="white"/>
<path d="M52.7211 9.66467C52.7211 9.03091 52.7211 8.39716 52.7211 7.7634C52.7211 7.60496 52.8795 7.44652 52.8795 7.28808C52.8795 7.12964 53.038 7.12964 53.1964 7.12964C53.3548 7.12964 53.5133 7.12964 53.5133 7.12964L54.4639 7.28808C55.0977 7.28808 55.7315 7.44652 56.2068 7.60496L56.6821 7.60496C56.6821 7.60496 56.8406 7.60496 56.999 7.7634C57.1574 7.7634 57.1575 7.92184 57.3159 7.92184C57.6328 8.23872 57.7912 8.55559 57.9496 8.87247C58.108 9.18935 58.1081 9.66467 58.1081 9.98155C58.1081 10.4569 57.7912 10.7738 57.3159 11.0906C56.5237 11.4075 55.8899 11.4075 55.4146 11.4075C54.1471 11.4075 53.038 11.4075 51.7705 11.4075C53.038 11.0906 54.147 10.7738 55.2561 10.6153C55.8899 10.4569 56.5236 10.4569 56.8405 10.2984C57.1574 10.14 57.1574 9.66468 56.999 9.3478C56.8406 9.18936 56.8405 8.87247 56.6821 8.71403C56.6821 8.71403 56.6821 8.71403 56.5237 8.71403L56.0483 8.5556C55.4145 8.39716 54.9393 8.23871 54.3055 8.08027L53.3549 7.92184C53.1965 7.92184 53.3548 7.92184 53.1964 7.92184C53.1964 7.92184 53.038 8.08028 53.038 8.23872C53.038 8.5556 52.8795 9.03091 52.7211 9.66467Z" fill="white"/>
<path d="M41.6279 22.4985C42.5786 20.2804 43.8461 18.2206 45.4305 16.3194C46.8565 14.4181 48.7578 12.6753 50.9759 11.8831C47.1734 14.8934 44.9552 19.0128 41.6279 22.4985Z" fill="white"/>
<path d="M56.0467 17.1111L52.2442 18.0617C50.9767 18.3786 49.7091 18.8539 48.4416 19.1708C47.1741 19.4877 46.065 19.963 45.2728 20.9136C44.3222 21.8643 43.53 22.9733 42.5793 23.924L42.4209 24.0824L42.2625 24.0824C37.9847 24.5577 33.8652 24.8746 29.5874 24.8746C25.3095 24.8746 21.1901 24.5577 16.9122 24.0824L16.7537 24.0824L16.5953 23.924C15.6447 22.9733 14.8524 22.0227 13.9018 20.9136C13.1096 19.963 12.0005 19.4877 10.733 19.1708C9.46549 18.8539 8.19794 18.537 6.93042 18.0617C5.66291 17.7448 4.39545 17.428 3.12793 17.1111C5.8214 17.2695 8.35644 17.7448 11.0499 18.3786C11.6837 18.537 12.3174 18.6955 12.9512 19.0124C13.585 19.3292 14.2187 19.8046 14.694 20.2799C15.6446 21.2305 16.5953 22.1812 17.5459 22.9734L17.229 22.8149C21.3484 23.1318 25.6263 23.4487 29.7458 23.4487C33.8652 23.4487 38.1431 23.2902 42.2625 22.8149L41.9456 22.9734C42.8963 22.0227 43.8469 21.0721 44.7975 20.2799C45.2728 19.8046 45.9066 19.3292 46.5403 19.0124C47.1741 18.6955 47.8079 18.537 48.6001 18.3786C50.8183 17.7448 53.5117 17.2695 56.0467 17.1111Z" fill="white"/>
<path d="M14.3722 21.8643C13.7385 22.1812 13.1047 22.498 12.3125 22.8149L12.1541 22.8149C9.6191 22.6565 7.08399 22.498 4.54895 22.1812L4.39055 22.1812L4.23215 22.0227C3.75683 21.5474 3.12307 21.0721 2.64776 20.5968L2.48926 20.4383L2.48926 20.2799C2.48926 19.3293 2.64772 18.3786 2.80616 17.428C2.9646 18.3786 3.12305 19.3293 3.12305 20.2799L2.96456 19.963C3.59832 20.4383 4.07369 20.7552 4.70745 21.2305L4.54895 21.0721C7.08399 21.2305 9.6191 21.5474 12.1541 21.8643L11.9956 21.8643C12.9463 22.0227 13.58 21.8643 14.3722 21.8643Z" fill="white"/>
<path d="M44.6367 21.8643C45.4289 21.8643 46.0626 22.0227 46.8548 22.1812L46.6964 22.1812C49.2314 21.8643 51.7665 21.5474 54.3015 21.389L54.1431 21.5474C54.7769 21.0721 55.2521 20.5968 55.8859 20.2799L55.7275 20.5968C55.7275 19.6461 55.8859 18.6955 56.0443 17.7449C56.2027 18.6955 56.3612 19.6461 56.3612 20.5968L56.3612 20.7552L56.2028 20.9137C55.7275 21.389 55.0937 21.8643 54.6184 22.3396L54.4599 22.4981L54.3015 22.4981C51.7665 22.8149 49.2314 22.9734 46.6964 23.1318L46.5379 23.1318C46.0626 22.4981 45.2705 22.1812 44.6367 21.8643Z" fill="white"/>
<path d="M15.9634 25.5088C15.4881 26.1425 15.6465 27.0932 15.9634 27.7269L16.9141 29.9451C17.231 30.7373 17.3893 31.3711 18.0231 31.8464C18.34 32.0048 18.4984 32.1633 18.8153 32.3217C19.1322 32.3217 19.4491 32.3217 19.9244 32.3217C23.0932 32.1633 26.262 32.1633 29.4308 32.1633C32.5996 32.1633 35.7684 32.1633 38.9372 32.3217C39.4125 32.3217 39.7294 32.3217 40.0463 32.3217C40.3631 32.3217 40.68 32.1633 40.8385 31.8464C41.3138 31.3711 41.6307 30.7373 41.9475 29.9451L42.8981 27.7269C43.215 27.0932 43.3735 26.301 42.8981 25.5088C43.3735 26.1425 43.5319 27.0932 43.215 27.8854L42.5812 30.1035C42.4228 30.8957 42.106 31.6879 41.4722 32.3217C41.1554 32.6386 40.68 32.9555 40.2047 33.1139C39.7293 33.2723 39.254 33.2723 38.9372 33.2723C35.7684 33.4308 32.5996 33.4308 29.4308 33.4308C26.262 33.4308 23.0932 33.4308 19.9244 33.2723C19.6075 33.2723 19.1322 33.2723 18.6569 33.1139C18.1816 32.9555 17.7063 32.6386 17.3894 32.3217C16.7556 31.6879 16.5972 30.7373 16.2803 30.1035L15.6465 27.8854C15.4881 27.0932 15.4881 26.1425 15.9634 25.5088Z" fill="white"/>
<path d="M51.1308 11.4077C50.1801 9.34794 49.2295 7.12978 48.2789 5.07007C47.8035 4.11943 47.1698 2.85191 46.3776 2.53503C45.5854 2.05971 44.3178 2.05972 43.2088 1.90128C38.614 1.26752 34.0193 1.10908 29.4245 1.26752L29.4245 3.48674e-07L29.7414 3.5384e-07L29.7414 1.26752C27.3648 1.26752 25.1466 1.26752 22.77 1.42596C20.3934 1.5844 18.1753 1.74283 15.9571 2.05971C14.8481 2.21815 13.5805 2.21816 12.7883 2.69347C11.9961 3.16879 11.5208 4.27787 10.8871 5.22851C9.77797 7.28822 8.98579 9.34794 8.03516 11.5661C8.66891 9.34794 9.46111 7.12978 10.4118 5.07007C10.5702 4.59475 10.8871 3.96099 11.2039 3.48567C11.5208 3.01035 11.8377 2.37659 12.4714 2.05971C13.1052 1.74283 13.739 1.5844 14.2143 1.42596L15.9571 1.10908C18.3337 0.63376 20.5519 0.47532 22.9285 0.316881C25.3051 0.158441 27.5232 0.15844 29.8998 3.56422e-07L29.8998 1.26752L29.583 1.26752L29.583 3.51258e-07C31.9596 3.89999e-07 34.1777 0.158441 36.5543 0.316881C38.9309 0.475321 41.1491 0.63376 43.5257 1.10908L45.2685 1.42596C45.9022 1.5844 46.536 1.74284 47.0114 2.05971C47.6451 2.37659 47.962 3.01035 48.2789 3.48567C48.5957 3.96099 48.7542 4.59475 49.0711 5.07007C49.7048 6.97134 50.497 9.1895 51.1308 11.4077Z" fill="white"/>
<path d="M11.21 6.33716C10.7347 8.23843 10.101 9.98127 9.46721 11.7241L9.15031 11.2488C12.4775 11.4072 15.9633 11.4072 19.2905 11.4072L29.4306 11.4072L39.5707 11.4072C42.898 11.4072 46.3836 11.4072 49.7108 11.2488L49.394 11.7241C48.7603 9.98127 47.968 8.07999 47.3342 6.33716C48.2849 8.07999 49.0771 9.82283 49.8693 11.5657L50.0277 11.8825L49.5524 11.8825C46.0667 12.3579 42.7395 12.5163 39.2538 12.6747C35.7682 12.8332 32.4409 12.8332 28.9553 12.8332C25.4696 12.8332 22.1424 12.8332 18.6567 12.6747C15.171 12.5163 11.8438 12.3579 8.35811 11.8825L7.88281 11.8825L8.04121 11.5657C9.62561 9.82283 10.2594 8.07999 11.21 6.33716Z" fill="white"/>
<path d="M58.5852 24.2411C57.3176 22.0229 56.5254 19.4879 56.2086 16.9529C56.2086 15.8438 55.4163 14.8932 54.3073 14.2594C53.1982 13.4672 52.2475 12.675 51.2969 11.8828C52.406 12.3581 53.6735 12.9919 54.7826 13.6256C55.4163 13.9425 55.8916 14.4178 56.367 14.8932C56.5254 15.21 56.8423 15.5269 57.0008 15.8438C57.0008 16.0022 57.0007 16.0022 57.1592 16.1607C57.1592 16.3191 57.1592 16.4776 57.1592 16.4776L57.3177 16.9529C57.6345 19.171 58.1098 21.5476 58.5852 24.2411Z" fill="white"/>
<path d="M0.435168 24.2412L0.593569 30.8957C0.593569 32.0048 0.593627 33.1138 0.752066 34.0645C0.910506 35.0151 2.17798 34.8567 3.28706 35.0151C5.50522 35.332 7.72339 35.4904 9.94155 35.6489C11.0506 35.8073 12.1597 35.8073 13.2687 35.8073C13.7441 35.8073 14.3778 35.8073 14.8531 35.6489C15.3285 35.6489 15.8038 35.332 15.9622 35.1735L16.1207 35.0151L16.4375 35.0151L29.4296 34.8567L42.4217 35.0151L42.7386 35.0151L42.897 35.1735C43.0554 35.332 43.5307 35.6489 44.0061 35.6489C44.4814 35.8073 44.9567 35.8073 45.5905 35.8073C46.6995 35.8073 47.8086 35.6489 48.9177 35.6489C51.1358 35.4904 53.354 35.332 55.5721 35.0151C56.6812 34.8567 57.9488 34.8567 58.1072 34.0645C58.2657 33.1138 58.2656 31.8463 58.2656 30.8957L58.424 24.2412C58.5825 26.4594 58.5825 28.6775 58.7409 30.8957C58.7409 32.0048 58.8994 33.1138 58.7409 34.3813C58.7409 34.6982 58.4241 35.0151 58.2656 35.332C57.9488 35.4904 57.6319 35.6489 57.315 35.8073C56.6813 35.9657 56.2059 35.9657 55.5721 36.1242C53.354 36.4411 51.1358 36.7579 48.9177 37.0748C47.8086 37.2333 46.6995 37.3917 45.5905 37.3917C44.9567 37.3917 44.323 37.3917 43.8477 37.2333C43.2139 37.0748 42.5801 36.9164 41.9464 36.4411L42.4217 36.5995L29.4296 36.7579L16.4375 36.5995L16.9129 36.4411C16.2792 37.0748 15.6454 37.0748 15.0116 37.2333C14.3779 37.3917 13.7441 37.3917 13.2687 37.3917C12.1597 37.3917 11.0506 37.2333 9.94155 37.0748C7.72339 36.7579 5.50522 36.4411 3.28706 36.1242C2.6533 35.9657 2.17802 35.9657 1.54426 35.8073C1.22738 35.8073 0.910448 35.6489 0.593569 35.332C0.276689 35.1735 0.118269 34.6982 0.118269 34.3813C-0.0401706 33.1138 0.118269 32.1632 0.118269 30.8957C0.276709 28.6775 0.276728 26.4594 0.435168 24.2412Z" fill="white"/>
<path d="M7.72393 11.7241C6.77329 12.5163 5.82267 13.1501 4.87203 13.9423C4.39672 14.2592 3.92142 14.576 3.60454 15.0514C3.28766 15.3682 2.97078 16.002 2.81234 16.3189L1.86174 16.1604L1.86174 16.002L2.81234 16.1604C2.33702 19.0123 1.54486 21.7058 0.277344 24.2408C0.752662 21.3889 1.38642 18.6955 1.86174 16.002L2.81234 16.1604L2.81234 16.3189L1.86174 16.1604C2.02018 15.3682 2.49542 14.8929 2.97074 14.4176C3.44606 13.9423 3.92138 13.6254 4.55514 13.3085C5.66421 12.6748 6.61485 12.1994 7.72393 11.7241Z" fill="white"/>
<path d="M1.22266 28.3604C3.59925 28.8357 5.97584 29.4694 8.35244 29.9447L10.0952 30.4201C10.729 30.5785 11.3628 30.8954 11.8381 31.3707C12.7888 32.3213 13.264 33.5889 13.264 34.8564L13.1056 34.8564C12.4719 33.7473 11.8381 32.7967 11.0459 32.1629C10.5706 31.846 10.2537 31.5291 9.61994 31.3707L7.87714 30.7369C5.81742 29.9447 3.59925 29.311 1.22266 28.3604Z" fill="white"/>
<path d="M57.785 28.3604C55.5669 29.1525 53.1902 29.9447 50.8136 30.7369L49.0708 31.3707C48.5955 31.5291 48.1202 31.846 47.6449 32.1629C46.6942 32.7967 46.0605 33.7473 45.5852 34.8564L45.4268 34.8564C45.4268 33.5889 46.0605 32.3213 46.8527 31.3707C47.328 30.8954 47.9618 30.5785 48.5956 30.4201L50.3383 29.9447C53.0318 29.4694 55.4084 28.8357 57.785 28.3604Z" fill="white"/>
<path d="M11.5265 37.0744C11.6849 37.8666 11.6849 38.6588 11.6849 39.451C11.6849 40.4016 10.5759 41.1938 9.7837 41.1938C8.19931 41.3522 6.61491 41.3522 5.03052 41.3522C4.23832 41.3522 3.44612 41.3522 2.65392 41.3522L2.02012 41.3522C1.70325 41.3522 1.54481 41.1938 1.22793 41.1938C0.752607 41.0354 0.277269 40.56 0.11883 40.0847C-0.03961 39.7678 -0.03961 39.451 0.11883 39.2925L0.11883 38.6588L0.277327 37.5497C0.277327 36.7575 0.43569 35.9653 0.594129 35.1731C0.752569 35.9653 0.752588 36.7575 0.911028 37.5497L1.06953 38.6588C1.06953 39.1341 1.06949 39.451 1.22793 39.6094C1.38637 39.7678 1.54484 39.9263 1.86172 40.0847C2.02016 40.0847 2.17853 40.0847 2.17853 40.0847L2.81232 40.0847C3.60452 40.0847 4.39672 40.0847 5.18892 40.0847C6.77331 40.0847 8.35771 40.0847 9.9421 40.2432C10.5759 40.4016 11.2097 40.0847 11.3681 39.451L11.5265 37.0744Z" fill="white"/>
<path d="M47.4915 37.0749L47.8084 39.4515C47.9669 40.0852 48.6006 40.4021 49.2343 40.2437C50.8187 40.0852 52.4031 40.0852 53.9875 40.0852C54.7797 40.0852 55.5719 40.0852 56.3641 40.0852L56.9979 40.0852C57.1564 40.0852 57.3148 40.0852 57.3148 40.0852C57.4733 40.0852 57.7901 39.9268 57.9485 39.6099C58.107 39.4515 58.107 38.9761 58.107 38.6593L58.2654 37.5502C58.2654 36.758 58.4239 35.9658 58.5823 35.1736C58.7408 35.9658 58.7408 36.758 58.8992 37.5502L59.0576 38.6593L59.0576 39.293C59.0576 39.4515 59.0576 39.7683 59.0576 40.0852C58.8992 40.5605 58.5823 41.0358 57.9485 41.1943C57.6316 41.3527 57.4732 41.3527 57.1563 41.3527L56.5226 41.3527C55.7304 41.3527 54.9382 41.3527 54.146 41.3527C52.5616 41.3527 50.9772 41.3527 49.3928 41.1943C48.4422 41.1943 47.3331 40.4021 47.4915 39.4515C47.1747 38.6593 47.3331 37.8671 47.4915 37.0749Z" fill="white"/>
<path d="M12.6296 26.4594C11.5205 26.6178 10.5698 26.4594 9.46077 26.3009C8.35169 26.1425 7.40101 25.8256 6.45037 25.6672C4.39066 25.1918 2.33096 24.7165 0.429687 24.2412L0.429688 24.0828C2.4894 24.2412 4.54916 24.5581 6.60887 24.875C7.71795 25.0334 8.66853 25.0334 9.61917 25.3503C10.7282 25.6672 11.6789 25.8256 12.6296 26.4594Z" fill="white"/>
<path d="M46.2148 25.9838C47.1655 25.5085 48.2745 25.35 49.2251 25.0332C50.1758 24.8747 51.2849 24.7163 52.3939 24.7163C54.4536 24.5578 56.5134 24.241 58.7315 24.0825L58.7315 24.241C56.6718 24.7163 54.6121 25.1916 52.5524 25.5085C51.6018 25.6669 50.4927 25.9838 49.542 26.1422C48.2745 26.1422 47.3239 26.1422 46.2148 25.9838Z" fill="white"/>
<path d="M17.543 40.719C19.6027 40.4021 21.5039 40.2436 23.5637 40.2436C25.6234 40.0852 27.5247 40.0852 29.5844 40.0852C33.5454 40.0852 37.6648 40.2436 41.6258 40.719C37.6648 41.1943 33.5454 41.3527 29.5844 41.3527C27.5247 41.3527 25.6234 41.3527 23.5637 41.1943C21.5039 41.0358 19.4442 40.8774 17.543 40.719Z" fill="white"/>
<path d="M24.9912 22.1814C26.5756 21.8645 28.16 21.7061 29.586 21.7061C31.1704 21.7061 32.7547 21.8645 34.1807 22.1814C32.5963 22.4983 31.012 22.6567 29.586 22.6567C28.0016 22.6567 26.5756 22.4983 24.9912 22.1814Z" fill="white"/>
<path d="M19.7646 26.459C23.0919 26.1421 26.4191 26.1421 29.7463 26.1421C33.0736 26.1421 36.4008 26.1421 39.728 26.459C36.4008 26.7758 33.0736 26.7759 29.7463 26.7759C26.2607 26.7759 23.0919 26.7758 19.7646 26.459Z" fill="white"/>
</svg>
