<svg width="60" height="42" viewBox="0 0 60 42" fill="none" xmlns="http://www.w3.org/2000/svg">
<path d="M6.38523 10.3116C6.22679 9.67787 6.06837 9.04411 5.90993 8.5688C5.90993 8.41036 5.75143 8.41035 5.75143 8.25191C5.59299 8.25191 5.75147 8.25191 5.59303 8.25191L4.64234 8.41036C4.00858 8.5688 3.5333 8.72724 2.89954 8.88568L2.42424 9.04411C2.2658 9.04411 2.26574 9.04411 2.26574 9.04411C2.1073 9.20255 1.94894 9.36099 1.94894 9.67787C1.7905 10.1532 1.79046 10.4701 2.10734 10.6285C2.42422 10.9454 3.05798 10.9454 3.69174 10.9454C4.80082 11.1038 6.06835 11.4207 7.17743 11.7376C5.90991 11.7376 4.80085 11.896 3.53334 11.7376C2.89958 11.7376 2.2658 11.7376 1.63204 11.4207C1.31516 11.2623 0.998283 10.7869 0.839844 10.3116C0.839844 9.83631 0.839805 9.51944 0.998245 9.20256C1.15668 8.88568 1.31516 8.56879 1.63204 8.25191C1.79048 8.25191 1.7905 8.09348 1.94894 8.09348C2.10738 8.09348 2.26574 7.93503 2.26574 7.93503L2.74114 7.93503C3.3749 7.77659 4.00862 7.7766 4.48394 7.61816L5.43454 7.45972C5.43454 7.45972 5.59299 7.45972 5.75143 7.45972C5.90987 7.45972 6.06833 7.61816 6.06833 7.61816C6.22677 7.7766 6.22673 7.93504 6.22673 8.09348C6.54361 9.20256 6.54367 9.67787 6.38523 10.3116Z" fill="#323232"/>
<path d="M17.473 23.1452C14.1457 19.6596 11.7691 15.5401 8.125 12.5298C10.3432 13.322 12.2444 15.2233 13.6704 16.9661C15.2548 18.8674 16.5223 20.9271 17.473 23.1452Z" fill="#323232"/>
<path d="M52.81 10.3116C52.81 9.67788 52.81 9.04413 52.81 8.41037C52.81 8.25193 52.9684 8.09349 52.9684 7.93505C52.9684 7.77661 53.1268 7.77661 53.2853 7.77661C53.4437 7.77661 53.6022 7.77661 53.6022 7.77661L54.5528 7.93505C55.1865 7.93505 55.8203 8.09349 56.2957 8.25193L56.771 8.25193C56.771 8.25193 56.9294 8.25193 57.0879 8.41037C57.2463 8.41037 57.2463 8.56881 57.4048 8.56881C57.7216 8.88569 57.88 9.20257 58.0385 9.51944C58.1969 9.83632 58.197 10.3116 58.197 10.6285C58.197 11.1038 57.8801 11.4207 57.4048 11.7376C56.6126 12.0545 55.9788 12.0545 55.5035 12.0545C54.2359 12.0545 53.1269 12.0545 51.8594 12.0545C53.1269 11.7376 54.2359 11.4207 55.345 11.2623C55.9787 11.1038 56.6125 11.1038 56.9294 10.9454C57.2462 10.787 57.2463 10.3116 57.0879 9.99477C56.9294 9.83633 56.9294 9.51945 56.771 9.36101C56.771 9.36101 56.771 9.36101 56.6126 9.36101L56.1372 9.20257C55.5034 9.04413 55.0281 8.88569 54.3944 8.72725L53.4438 8.56881C53.2853 8.56881 53.4437 8.56881 53.2853 8.56881C53.2853 8.56881 53.1269 8.72725 53.1269 8.88569C53.1269 9.20257 52.9684 9.67788 52.81 10.3116Z" fill="#323232"/>
<path d="M41.7187 23.1455C42.6694 20.9273 43.9369 18.8676 45.5213 16.9663C46.9473 15.0651 48.8486 13.3222 51.0667 12.53C47.2642 15.5404 45.046 19.6598 41.7187 23.1455Z" fill="#323232"/>
<path d="M56.1375 17.7581L52.335 18.7087C51.0675 19.0256 49.8 19.5009 48.5324 19.8178C47.2649 20.1347 46.1558 20.61 45.3636 21.5606C44.413 22.5112 43.6208 23.6203 42.6702 24.571L42.5118 24.7294L42.3534 24.7294C38.0755 25.2047 33.9561 25.5216 29.6782 25.5216C25.4003 25.5216 21.2809 25.2047 17.003 24.7294L16.8445 24.7294L16.6861 24.571C15.7355 23.6203 14.9433 22.6697 13.9926 21.5606C13.2004 20.61 12.0913 20.1347 10.8238 19.8178C9.55631 19.5009 8.28876 19.184 7.02124 18.7087C5.75373 18.3918 4.48627 18.0749 3.21875 17.7581C5.91222 17.9165 8.44726 18.3918 11.1407 19.0256C11.7745 19.184 12.4083 19.3425 13.042 19.6593C13.6758 19.9762 14.3095 20.4515 14.7848 20.9268C15.7355 21.8775 16.6861 22.8281 17.6367 23.6203L17.3198 23.4619C21.4392 23.7788 25.7172 24.0956 29.8366 24.0956C33.956 24.0956 38.2339 23.9372 42.3534 23.4619L42.0365 23.6203C42.9871 22.6697 43.9377 21.719 44.8883 20.9269C45.3637 20.4515 45.9974 19.9762 46.6311 19.6593C47.2649 19.3425 47.8987 19.184 48.6909 19.0256C50.9091 18.3918 53.6025 17.9165 56.1375 17.7581Z" fill="#323232"/>
<path d="M14.4611 22.5113C13.8273 22.8281 13.1936 23.145 12.4014 23.4619L12.243 23.4619C9.70797 23.3035 7.17285 23.145 4.63782 22.8281L4.47942 22.8281L4.32102 22.6697C3.8457 22.1944 3.21194 21.7191 2.73662 21.2437L2.57812 21.0853L2.57812 20.9269C2.57812 19.9762 2.73658 19.0256 2.89502 18.075C3.05346 19.0256 3.21192 19.9762 3.21192 20.9269L3.05342 20.61C3.68718 21.0853 4.16256 21.4022 4.79632 21.8775L4.63782 21.7191C7.17285 21.8775 9.70797 22.1944 12.243 22.5113L12.0845 22.5113C13.0351 22.6697 13.6689 22.5113 14.4611 22.5113Z" fill="#323232"/>
<path d="M44.7266 22.5113C45.5188 22.5113 46.1525 22.6697 46.9447 22.8282L46.7863 22.8282C49.3213 22.5113 51.8563 22.1944 54.3913 22.036L54.2329 22.1944C54.8667 21.7191 55.342 21.2438 55.9757 20.9269L55.8173 21.2438C55.8173 20.2931 55.9757 19.3425 56.1341 18.3918C56.2926 19.3425 56.451 20.2931 56.451 21.2438L56.451 21.4022L56.2926 21.5606C55.8173 22.036 55.1836 22.5113 54.7082 22.9866L54.5497 23.145L54.3913 23.145C51.8563 23.4619 49.3213 23.6203 46.7863 23.7788L46.6278 23.7788C46.1524 23.145 45.3603 22.8282 44.7266 22.5113Z" fill="#323232"/>
<path d="M16.0523 26.1558C15.577 26.7895 15.7354 27.7402 16.0523 28.3739L17.003 30.5921C17.3199 31.3843 17.4782 32.018 18.112 32.4933C18.4289 32.6518 18.5873 32.8102 18.9042 32.9687C19.2211 32.9687 19.5379 32.9687 20.0133 32.9687C23.1821 32.8102 26.3509 32.8102 29.5196 32.8102C32.6884 32.8102 35.8572 32.8102 39.026 32.9687C39.5013 32.9687 39.8182 32.9687 40.1351 32.9687C40.452 32.9687 40.7689 32.8102 40.9273 32.4933C41.4026 32.018 41.7195 31.3843 42.0364 30.5921L42.987 28.3739C43.3039 27.7402 43.4623 26.948 42.987 26.1558C43.4623 26.7895 43.6208 27.7402 43.3039 28.5324L42.6701 30.7505C42.5117 31.5427 42.1949 32.3349 41.5611 32.9687C41.2442 33.2855 40.7688 33.6024 40.2935 33.7609C39.8182 33.9193 39.3429 33.9193 39.026 33.9193C35.8572 34.0777 32.6884 34.0777 29.5196 34.0777C26.3509 34.0777 23.1821 34.0777 20.0133 33.9193C19.6964 33.9193 19.2211 33.9193 18.7458 33.7609C18.2705 33.6024 17.7952 33.2855 17.4783 32.9687C16.8445 32.3349 16.6861 31.3843 16.3692 30.7505L15.7354 28.5324C15.5769 27.7402 15.577 26.7895 16.0523 26.1558Z" fill="#323232"/>
<path d="M51.2206 12.0546C50.27 9.99491 49.3193 7.77676 48.3687 5.71704C47.8934 4.7664 47.2596 3.49888 46.4674 3.182C45.6752 2.70669 44.4077 2.70669 43.2986 2.54825C38.7039 1.91449 34.1091 1.75605 29.5143 1.91449L29.5143 0.646973L29.8312 0.646973L29.8312 1.91449C27.4547 1.91449 25.2365 1.91449 22.8599 2.07293C20.4833 2.23137 18.2651 2.38981 16.047 2.70669C14.9379 2.86513 13.6704 2.86513 12.8782 3.34045C12.086 3.81577 11.6107 4.92484 10.9769 5.87548C9.86782 7.93519 9.07564 9.99491 8.125 12.2131C8.75876 9.99491 9.55096 7.77676 10.5016 5.71704C10.66 5.24172 10.9769 4.60796 11.2938 4.13265C11.6107 3.65733 11.9275 3.02357 12.5613 2.70669C13.195 2.38981 13.8289 2.23137 14.3042 2.07293L16.047 1.75605C18.4236 1.28073 20.6418 1.12229 23.0184 0.963853C25.395 0.805414 27.6131 0.805413 29.9896 0.646973L29.9896 1.91449L29.6728 1.91449L29.6728 0.646973C32.0494 0.646973 34.2675 0.805414 36.6441 0.963854C39.0207 1.12229 41.2389 1.28073 43.6155 1.75605L45.3583 2.07293C45.9921 2.23137 46.6259 2.38981 47.1012 2.70669C47.735 3.02357 48.0518 3.65733 48.3687 4.13265C48.6856 4.60796 48.844 5.24172 49.1609 5.71704C49.7947 7.61832 50.5868 9.83647 51.2206 12.0546Z" fill="#323232"/>
<path d="M11.2998 6.98413C10.8245 8.88541 10.1908 10.6282 9.55705 12.3711L9.24015 11.8958C12.5674 12.0542 16.0531 12.0542 19.3803 12.0542L29.5204 12.0542L39.6606 12.0542C42.9878 12.0542 46.4734 12.0542 49.8007 11.8958L49.4839 12.3711C48.8501 10.6282 48.0578 8.72697 47.4241 6.98413C48.3747 8.72697 49.167 10.4698 49.9592 12.2126L50.1176 12.5295L49.6423 12.5295C46.1566 13.0048 42.8294 13.1633 39.3437 13.3217C35.858 13.4802 32.5308 13.4802 29.0451 13.4802C25.5594 13.4802 22.2322 13.4802 18.7465 13.3217C15.2609 13.1633 11.9336 13.0048 8.44796 12.5295L7.97266 12.5295L8.13106 12.2126C9.71545 10.4698 10.3492 8.72697 11.2998 6.98413Z" fill="#323232"/>
<path d="M58.675 24.8881C57.4075 22.6699 56.6153 20.1349 56.2984 17.5999C56.2984 16.4908 55.5062 15.5401 54.3971 14.9064C53.288 14.1142 52.3374 13.322 51.3867 12.5298C52.4958 13.0051 53.7633 13.6389 54.8724 14.2726C55.5062 14.5895 55.9815 15.0648 56.4568 15.5401C56.6152 15.857 56.9322 16.1739 57.0906 16.4908C57.0906 16.6492 57.0906 16.6492 57.249 16.8077C57.249 16.9661 57.249 17.1245 57.249 17.1245L57.4075 17.5999C57.7244 19.818 58.1997 22.1946 58.675 24.8881Z" fill="#323232"/>
<path d="M0.524035 24.8882L0.682436 31.5426C0.682436 32.6517 0.682494 33.7608 0.840933 34.7114C0.999373 35.6621 2.26685 35.5036 3.37593 35.6621C5.59408 35.979 7.81226 36.1374 10.0304 36.2958C11.1395 36.4543 12.2485 36.4543 13.3576 36.4543C13.8329 36.4543 14.4667 36.4543 14.942 36.2958C15.4173 36.2958 15.8927 35.979 16.0511 35.8205L16.2096 35.6621L16.5264 35.6621L29.5185 35.5036L42.5105 35.6621L42.8274 35.6621L42.9858 35.8205C43.1443 35.979 43.6196 36.2958 44.0949 36.2958C44.5703 36.4543 45.0456 36.4543 45.6793 36.4543C46.7884 36.4543 47.8974 36.2958 49.0065 36.2958C51.2247 36.1374 53.4429 35.979 55.661 35.6621C56.7701 35.5036 58.0377 35.5036 58.1961 34.7114C58.3545 33.7608 58.3545 32.4933 58.3545 31.5426L58.5129 24.8882C58.6713 27.1063 58.6714 29.3245 58.8298 31.5426C58.8298 32.6517 58.9882 33.7608 58.8298 35.0283C58.8298 35.3452 58.5129 35.6621 58.3545 35.979C58.0376 36.1374 57.7208 36.2958 57.4039 36.4543C56.7701 36.6127 56.2948 36.6127 55.661 36.7712C53.4429 37.088 51.2247 37.4049 49.0065 37.7218C47.8974 37.8802 46.7884 38.0387 45.6793 38.0387C45.0456 38.0387 44.4118 38.0387 43.9365 37.8802C43.3028 37.7218 42.669 37.5634 42.0352 37.088L42.5105 37.2465L29.5185 37.4049L16.5264 37.2465L17.0018 37.088C16.368 37.7218 15.7343 37.7218 15.1005 37.8802C14.4667 38.0387 13.8329 38.0387 13.3576 38.0387C12.2485 38.0387 11.1395 37.8802 10.0304 37.7218C7.81226 37.4049 5.59408 37.088 3.37593 36.7712C2.74217 36.6127 2.26689 36.6127 1.63313 36.4543C1.31625 36.4543 0.999315 36.2958 0.682436 35.979C0.365556 35.8205 0.207136 35.3452 0.207136 35.0283C0.0486966 33.7608 0.207136 32.8102 0.207136 31.5426C0.365576 29.3245 0.365595 27.1063 0.524035 24.8882Z" fill="#323232"/>
<path d="M7.81377 12.3711C6.86313 13.1633 5.91252 13.797 4.96188 14.5892C4.48656 14.9061 4.01126 15.223 3.69438 15.6983C3.3775 16.0152 3.06062 16.649 2.90218 16.9658L1.95158 16.8074L1.95158 16.649L2.90218 16.8074C2.42686 19.6593 1.6347 22.3528 0.367187 24.8878C0.842506 22.0359 1.47626 19.3424 1.95158 16.649L2.90218 16.8074L2.90218 16.9658L1.95158 16.8074C2.11002 16.0152 2.58526 15.5399 3.06058 15.0646C3.5359 14.5892 4.01122 14.2724 4.64498 13.9555C5.75406 13.3217 6.7047 12.8464 7.81377 12.3711Z" fill="#323232"/>
<path d="M1.3125 29.0073C3.68909 29.4826 6.06569 30.1164 8.44228 30.5917L10.1851 31.067C10.8188 31.2255 11.4527 31.5424 11.928 32.0177C12.8786 32.9683 13.3539 34.2358 13.3539 35.5033L13.1955 35.5033C12.5617 34.3943 11.928 33.4436 11.1358 32.8099C10.6605 32.493 10.3435 32.1761 9.70978 32.0177L7.96698 31.3839C5.90727 30.5917 3.68909 29.958 1.3125 29.0073Z" fill="#323232"/>
<path d="M57.8739 29.0073C55.6557 29.7995 53.2791 30.5917 50.9025 31.3839L49.1597 32.0177C48.6844 32.1761 48.209 32.493 47.7337 32.8099C46.7831 33.4436 46.1493 34.3943 45.674 35.5033L45.5156 35.5033C45.5156 34.2358 46.1493 32.9683 46.9415 32.0177C47.4168 31.5424 48.0507 31.2255 48.6844 31.067L50.4272 30.5917C53.1207 30.1164 55.4973 29.4826 57.8739 29.0073Z" fill="#323232"/>
<path d="M11.6163 37.7213C11.7748 38.5135 11.7747 39.3057 11.7747 40.0979C11.7747 41.0486 10.6657 41.8408 9.87355 41.8408C8.28915 41.9992 6.70476 41.9992 5.12036 41.9992C4.32816 41.9992 3.53596 41.9992 2.74377 41.9992L2.10997 41.9992C1.79309 41.9992 1.63465 41.8408 1.31777 41.8408C0.842451 41.6823 0.367113 41.207 0.208673 40.7317C0.0502338 40.4148 0.0502338 40.0979 0.208673 39.9395L0.208673 39.3057L0.367171 38.1967C0.367171 37.4045 0.525533 36.6123 0.683973 35.8201C0.842413 36.6123 0.842432 37.4045 1.00087 38.1967L1.15937 39.3057C1.15937 39.7811 1.15933 40.0979 1.31777 40.2564C1.47621 40.4148 1.63469 40.5733 1.95157 40.7317C2.11001 40.7317 2.26837 40.7317 2.26837 40.7317L2.90217 40.7317C3.69436 40.7317 4.48656 40.7317 5.27876 40.7317C6.86316 40.7317 8.44755 40.7317 10.0319 40.8901C10.6657 41.0486 11.2995 40.7317 11.4579 40.0979L11.6163 37.7213Z" fill="#323232"/>
<path d="M47.5814 37.7218L47.8983 40.0984C48.0567 40.7322 48.6904 41.0491 49.3242 40.8906C50.9086 40.7322 52.493 40.7322 54.0774 40.7322C54.8696 40.7322 55.6618 40.7322 56.454 40.7322L57.0878 40.7322C57.2462 40.7322 57.4047 40.7322 57.4047 40.7322C57.5631 40.7322 57.8799 40.5737 58.0384 40.2569C58.1968 40.0984 58.1969 39.6231 58.1969 39.3062L58.3553 38.1972C58.3553 37.405 58.5137 36.6128 58.6722 35.8206C58.8306 36.6128 58.8306 37.405 58.9891 38.1972L59.1475 39.3062L59.1475 39.94C59.1475 40.0984 59.1475 40.4153 59.1475 40.7322C58.989 41.2075 58.6721 41.6828 58.0384 41.8413C57.7215 41.9997 57.563 41.9997 57.2462 41.9997L56.6125 41.9997C55.8203 41.9997 55.0281 41.9997 54.2359 41.9997C52.6515 41.9997 51.0671 41.9997 49.4827 41.8413C48.532 41.8413 47.4229 41.0491 47.5814 40.0984C47.2645 39.3062 47.4229 38.514 47.5814 37.7218Z" fill="#323232"/>
<path d="M12.7194 27.1063C11.6103 27.2648 10.6597 27.1063 9.55061 26.9479C8.44153 26.7894 7.49086 26.4726 6.54022 26.3141C4.4805 25.8388 2.42081 25.3635 0.519531 24.8882L0.519531 24.7297C2.57925 24.8882 4.639 25.2051 6.69872 25.5219C7.80779 25.6804 8.75837 25.6804 9.70901 25.9973C10.8181 26.3141 11.7688 26.4726 12.7194 27.1063Z" fill="#323232"/>
<path d="M46.3047 26.6308C47.2553 26.1555 48.3643 25.997 49.315 25.6801C50.2656 25.5217 51.3747 25.3632 52.4838 25.3632C54.5435 25.2048 56.6032 24.8879 58.8214 24.7295L58.8214 24.8879C56.7616 25.3632 54.702 25.8386 52.6423 26.1554C51.6916 26.3139 50.5825 26.6308 49.6319 26.7892C48.3644 26.7892 47.4138 26.7892 46.3047 26.6308Z" fill="#323232"/>
<path d="M17.6328 41.3659C19.6925 41.0491 21.5938 40.8906 23.6535 40.8906C25.7132 40.7322 27.6146 40.7322 29.6743 40.7322C33.6353 40.7322 37.7547 40.8906 41.7157 41.3659C37.7547 41.8413 33.6353 41.9997 29.6743 41.9997C27.6146 41.9997 25.7132 41.9997 23.6535 41.8413C21.5938 41.6828 19.5341 41.5244 17.6328 41.3659Z" fill="#323232"/>
<path d="M25.082 22.8283C26.6664 22.5115 28.2509 22.353 29.6768 22.353C31.2612 22.353 32.8456 22.5115 34.2715 22.8283C32.6871 23.1452 31.1028 23.3037 29.6768 23.3037C28.0924 23.3037 26.6664 23.1452 25.082 22.8283Z" fill="#323232"/>
<path d="M19.8555 27.1059C23.1827 26.7891 26.5099 26.7891 29.8371 26.7891C33.1644 26.7891 36.4916 26.7891 39.8188 27.1059C36.4916 27.4228 33.1644 27.4228 29.8371 27.4228C26.3515 27.4228 23.1827 27.4228 19.8555 27.1059Z" fill="#323232"/>
</svg>
