<svg width="74" height="44" viewBox="0 0 74 44" fill="none" xmlns="http://www.w3.org/2000/svg">
<path d="M27.4955 26.5996C25.1516 25.7206 22.9543 24.6952 20.7569 23.6698C18.5595 22.6443 16.3621 21.6189 14.1648 20.5934C9.77002 18.5426 5.37527 16.3452 0.980521 14.1478L0.101562 13.7083L0.541019 12.9759L1.27348 11.511C1.41997 11.3645 1.41999 11.3645 1.56648 11.0715C1.71297 10.925 2.00595 10.632 2.29894 10.632C3.03139 10.4855 3.17787 10.632 3.47085 10.632L6.25418 11.511C8.15858 12.0969 10.063 12.8294 11.8209 13.4153C12.6998 13.7083 13.7253 14.0013 14.6042 14.4408C15.4832 14.8803 16.3621 15.1732 17.3876 15.6127C19.1455 16.4917 21.0499 17.2241 22.8078 18.1031C20.9034 17.5171 18.999 16.9311 17.0946 16.3452C16.2157 16.0522 15.1902 15.7592 14.3112 15.4662C13.4323 15.1732 12.4068 15.0268 11.5279 14.7338C9.6235 14.2943 7.71912 13.7083 5.81473 13.1224L3.03139 12.3899C2.73841 12.3899 2.5919 12.3899 2.73839 12.3899C2.88489 12.3899 2.88489 12.2434 2.88489 12.2434C2.88489 12.2434 2.73839 12.3899 2.73839 12.5364L2.15244 13.7083L1.71298 12.5364C6.10773 14.7338 10.356 16.9311 14.7507 19.275C16.9481 20.4469 18.999 21.6189 21.1963 22.7908C23.3937 24.1092 25.4446 25.2812 27.4955 26.5996Z" fill="#323232"/>
<path d="M23.3937 40.37C19.5849 40.2235 15.6297 39.9305 11.8209 39.6375C9.9165 39.491 8.01212 39.0516 6.10773 38.9051L3.32435 38.4656L1.85943 38.1726L1.12698 38.0261L0.83402 38.0261C0.687529 38.0261 0.54101 37.8796 0.394519 37.7331C0.248027 37.5866 0.101562 37.2936 0.101562 37.1472C0.101562 36.4147 0.248063 36.4147 0.248063 36.2682C0.687538 35.2428 0.980521 34.6568 0.980521 33.7779C0.980521 33.0454 0.980521 31.8735 0.980521 30.9945C0.980521 29.0901 0.980485 27.1857 1.12698 25.2813C1.27347 21.4725 1.42 17.5173 1.71298 13.7085C2.15245 17.5173 2.4454 21.4725 2.59189 25.2813C2.73838 27.1857 2.73839 29.0901 2.73839 30.9945L2.73839 32.4594C2.73839 32.8989 2.73839 33.3384 2.73839 33.9243C2.73839 34.9498 2.29891 36.1217 1.85943 37.0007C1.85943 37.0007 1.85943 37.2936 1.85943 36.8542C1.85943 36.8542 1.71297 36.5612 1.56648 36.4147C1.41999 36.2682 1.41997 36.2682 1.27348 36.2682L1.41998 36.2682L2.15244 36.4147L3.61735 36.7077L6.40068 37.2936C8.30508 37.5866 10.2095 38.0261 12.1138 38.3191C15.7761 38.7586 19.5849 39.491 23.3937 40.37Z" fill="#323232"/>
<path d="M37.6094 41.3953C39.5138 40.9558 41.5646 40.8093 43.469 40.6628C45.3734 40.6628 47.2778 40.9558 49.3287 41.1023C53.1375 41.3953 57.0928 41.3953 60.9015 41.5418L60.9015 41.6883C58.9971 41.8348 57.0928 42.1278 55.0419 42.2743C53.1375 42.4207 51.0866 42.4207 49.1822 42.5672C47.2778 42.5672 45.2269 42.7137 43.3225 42.5672C41.4181 42.4207 39.5138 42.1278 37.6094 41.5418L37.6094 41.3953Z" fill="#323232"/>
<path d="M38.3398 30.262C40.0977 30.9944 41.8556 31.7269 43.6135 32.1664C45.3714 32.6058 47.2758 33.0453 49.0337 33.4848C50.9381 33.9243 52.696 34.0707 54.6004 34.5102C56.3583 34.9497 58.2627 35.3892 60.0206 35.9751L60.0206 36.1216C58.1162 36.2681 56.2118 36.2681 54.3074 35.9751C52.403 35.6822 50.6451 35.2427 48.7407 34.6567C46.9828 34.0707 45.0784 33.4848 43.3205 32.8988C41.5627 32.3128 39.9513 31.4339 38.3398 30.262Z" fill="#323232"/>
<path d="M41.5664 19.4215C42.2989 17.9566 44.0568 17.2241 45.5217 16.7846C47.1331 16.3452 48.7445 16.3452 50.3559 16.4917C51.9673 16.6382 53.5787 16.7847 55.1902 17.0776C56.8016 17.3706 58.2664 18.1031 59.7314 19.1285L59.5849 19.1285C60.1709 19.4215 60.6103 19.861 61.0498 20.3005C61.1963 20.5934 61.4893 20.7399 61.6358 21.0329C61.7823 21.3259 61.9287 21.6189 61.9287 21.9119L61.7823 21.9119C61.4893 21.4724 61.0498 21.0329 60.6103 20.7399C60.1708 20.4469 59.7314 20.154 59.1454 19.861L58.9989 19.861C57.6805 19.1285 56.2156 18.689 54.7507 18.2496C53.2857 17.8101 51.6743 17.5171 50.2094 17.2241C48.598 17.0776 47.1331 16.9311 45.5217 17.2241C44.2033 17.6636 42.5918 18.1031 41.5664 19.4215Z" fill="#323232"/>
<path d="M61.9229 23.8159C57.8211 24.1089 53.5729 24.2554 49.4711 24.5483C48.4457 24.5483 47.4203 24.6948 46.2483 24.6948C45.9553 24.6948 45.6623 24.6948 45.2229 24.4018C44.7834 24.1089 44.6369 23.5229 44.6369 23.2299L44.6369 21.6185L44.6369 21.472L44.3439 21.472C43.7579 21.472 43.3185 21.472 42.7325 21.3255C42.1466 21.3255 41.7071 21.3255 41.1211 21.179C40.9746 21.179 40.8281 21.0325 40.6816 20.886C40.5351 20.7396 40.5352 20.5931 40.5352 20.5931L40.5352 20.4466C40.5352 20.1536 40.6816 19.8606 40.6816 19.7141L40.8281 19.7141C40.8281 20.0071 40.9746 20.3001 40.9746 20.4466L40.9746 20.5931C40.9746 20.5931 41.1211 20.5931 41.2676 20.5931C41.7071 20.5931 42.2931 20.5931 42.7325 20.4466C43.3185 20.4466 43.7579 20.3001 44.3439 20.3001L44.7834 20.3001C45.0764 20.3001 45.2229 20.4466 45.5159 20.5931C45.6624 20.7396 45.8088 20.886 45.9553 21.179C45.9553 21.3255 45.9553 21.472 45.9553 21.472L45.9553 21.6185L45.9553 23.2299C45.9553 23.5229 45.9553 23.3764 45.9553 23.3764C45.9553 23.3764 46.2483 23.5229 46.3948 23.5229C47.4203 23.5229 48.4457 23.5229 49.4711 23.6694C53.5729 23.6694 57.8211 23.6694 61.9229 23.8159Z" fill="#323232"/>
<path d="M39.3599 18.8357C39.6529 19.2752 39.6529 19.8611 39.5064 20.3006L39.3599 20.1541C39.7994 20.1541 40.2389 20.3006 40.8248 20.3006C40.3853 20.3006 39.9459 20.4471 39.3599 20.4471L39.2134 20.4471L39.2134 20.3006C39.0669 19.8611 39.0669 19.4217 39.3599 18.8357Z" fill="#323232"/>
<path d="M42.4318 18.5426L42.2853 17.8101C42.2853 17.5171 42.1389 17.3706 41.9924 17.3706C41.8459 17.2241 41.6993 17.3706 41.4064 17.3706L40.6739 17.3706L39.9414 17.3706C39.6485 17.3706 39.502 17.3706 39.3555 17.3706C39.209 17.5171 39.0625 17.6636 39.0625 17.8101L38.916 18.5426L38.7695 17.8101C38.7695 17.6636 38.7695 17.2241 39.0625 17.0776C39.3555 16.9312 39.6485 16.9312 39.795 16.9312L40.5274 16.9312L41.2599 16.9312C41.4064 16.9312 41.8459 16.9312 41.9924 17.0776C42.2853 17.2241 42.2853 17.6636 42.2853 17.8101L42.4318 18.5426Z" fill="#323232"/>
<path d="M39.209 20.4468C38.916 20.5933 38.7696 20.8863 38.7696 21.1792C38.7696 21.4722 38.7696 21.7652 38.7696 22.0582L38.9161 23.9626C38.9161 24.5485 38.9161 25.281 39.0626 25.867C39.0626 26.4529 39.0625 27.0389 39.3555 27.3319C39.6485 27.6249 40.2345 27.6249 40.8204 27.6249C41.4064 27.6249 42.1389 27.6249 42.7248 27.7714C43.3108 27.7714 44.0432 27.9179 44.4827 27.7714C45.0687 27.6249 45.3617 27.0389 45.5082 26.4529C45.6547 27.0389 45.3617 27.7714 44.7757 28.2108C44.4827 28.3573 44.0432 28.5038 43.7503 28.5038L42.8713 28.5038C42.2853 28.5038 41.5529 28.5038 40.9669 28.6503C40.6739 28.6503 40.3809 28.6503 39.9415 28.6503C39.6485 28.6503 39.209 28.5038 38.7696 28.2108C38.1836 27.4784 38.1836 26.7459 38.1836 26.16C38.1836 25.574 38.1836 24.8415 38.3301 24.2556L38.4766 22.3512C38.4766 22.0582 38.4766 21.7652 38.6231 21.3257C38.6231 20.8863 38.7695 20.5933 39.209 20.4468Z" fill="#323232"/>
<path d="M28.0859 28.6505C29.4044 29.676 30.7228 30.7014 32.1877 31.8733L32.0412 31.8733C33.6526 32.3128 35.264 32.8988 36.8754 33.3383L36.4359 33.6312C36.1429 32.1663 35.4105 30.8479 34.2386 29.969C33.0666 28.9435 31.7482 28.3575 30.1368 28.3575C31.6017 28.2111 33.2131 28.6505 34.5316 29.676C35.85 30.5549 36.5824 32.0198 37.0219 33.6312L37.1684 34.0707L36.7289 33.9242C35.1175 33.3383 33.5061 32.8988 31.8947 32.3128C30.5763 30.9944 29.4044 29.8225 28.0859 28.6505Z" fill="#323232"/>
<path d="M36.8774 35.9749C35.266 36.7073 33.6546 37.2933 32.1897 37.8792L32.3362 37.8792C31.1643 39.0512 29.8458 40.2231 28.5274 41.395L28.3809 40.9556C29.8458 41.395 31.4572 41.395 32.7756 40.8091C34.2406 40.2231 35.4125 39.1977 36.2914 37.8792C35.7055 39.3442 34.5336 40.6626 32.9221 41.2486C31.4572 41.981 29.6993 41.981 28.0879 41.5415L27.6484 41.395L28.0879 41.1021C29.4064 39.9301 30.5783 38.9047 31.8967 37.7327C33.6546 37.0003 35.266 36.4143 36.8774 35.9749Z" fill="#323232"/>
<path d="M26.1846 39.9302C26.3311 38.1723 26.6241 36.5609 26.9171 34.803L26.9171 34.9495C26.4776 33.3381 26.1847 31.5802 25.7452 29.9688L26.1846 30.1153C24.1338 31.8732 23.4013 35.096 24.4268 37.7328C23.6943 36.5609 23.4013 34.9495 23.6943 33.4846C23.9873 32.0197 24.7197 30.7012 25.8917 29.6758L26.3311 29.3828L26.4776 29.8223C26.9171 31.4337 27.2101 33.1916 27.5031 34.803C27.0636 36.5609 26.6241 38.3188 26.1846 39.9302Z" fill="#323232"/>
<path d="M69.1023 43.0067C66.026 44.1786 62.5101 42.7137 61.1917 39.4909C59.8733 36.268 61.4847 32.8987 64.7076 31.5803C67.7839 30.4084 71.2997 31.8733 72.6181 35.0961C73.79 38.3189 72.1786 41.8347 69.1023 43.0067Z" stroke="#323232" stroke-width="0.7" stroke-miterlimit="10"/>
<path d="M71.4455 36.561C70.5666 37.44 69.6877 38.1724 68.8087 39.0514L68.8087 38.9049C68.2228 39.9303 67.7833 41.1023 67.1973 42.1277L66.9043 41.6882C68.9552 41.6882 70.8596 40.2233 71.2991 38.1724C71.2991 39.1979 70.7131 40.3698 69.9806 41.1023C69.2482 41.8347 68.0763 42.2742 66.9043 42.4207L66.4648 42.4207L66.7578 41.9812C67.3438 40.9558 67.9298 39.9303 68.5157 38.7584C69.5412 37.8795 70.5666 37.147 71.4455 36.561Z" fill="#323232"/>
<path d="M65.4299 41.6883C65.1369 40.5164 64.8439 39.3445 64.5509 38.1725L64.5509 38.319C63.8185 37.2936 63.2325 36.2681 62.6465 35.2427L63.086 35.2427C62.6465 36.1217 62.5 37.1471 62.5 38.1725C62.6465 39.198 63.086 40.0769 63.8185 40.9559C62.9395 40.3699 62.207 39.3445 62.0605 38.319C61.7676 37.2936 61.9141 35.9752 62.5 35.0962L62.793 34.6567L63.086 35.0962C63.672 36.1217 64.4044 37.1471 64.9904 38.1725C65.1369 39.3445 65.2834 40.5164 65.4299 41.6883Z" fill="#323232"/>
<path d="M63.9648 33.7775C65.1368 34.0705 66.3087 34.3634 67.4806 34.8029L67.3341 34.8029C68.5061 34.6564 69.678 34.6564 70.9964 34.6564L70.7034 35.0959C69.678 33.4845 67.6271 32.6055 65.7227 32.8985C66.6017 32.4591 67.7736 32.4591 68.799 32.752C69.8245 33.045 70.7035 33.7775 71.2894 34.6564L71.5824 35.0959L71.1429 35.0959C69.971 35.0959 68.7991 35.2424 67.4806 35.2424C66.1622 34.8029 64.9903 34.3635 63.9648 33.7775Z" fill="#323232"/>
<path d="M53.127 30.9945C52.834 30.4085 52.6875 29.969 52.6875 29.383C52.6875 28.7971 52.6875 28.3576 52.834 27.7716C52.9805 26.7462 52.9805 25.7208 53.127 24.6953L53.2735 24.6953C53.4199 25.7208 53.5665 26.7462 53.5665 27.7716C53.5665 28.3576 53.713 28.7971 53.713 29.383C53.5665 29.8225 53.5664 30.4085 53.127 30.9945Z" fill="#323232"/>
<path d="M61.7777 24.4023C62.3637 24.2558 63.3891 24.6953 63.3891 25.5742C63.5356 26.1602 63.5356 26.8926 63.5356 27.4786C63.5356 28.0646 63.5356 28.797 63.5356 29.383L63.5356 29.969C63.5356 30.2619 63.3891 30.4084 63.2426 30.5549C62.9496 30.9944 62.6566 31.1409 62.2172 31.2874C61.7777 31.4339 61.4847 31.2874 61.1917 31.2874L60.1663 31.2874L58.2619 31.2874L54.4531 31.1409L54.4531 30.9944L58.2619 30.8479L60.1663 30.8479L61.1917 30.8479C61.4847 30.8479 61.9242 30.8479 62.0707 30.8479C62.3636 30.8479 62.5102 30.5549 62.5102 30.4084C62.5102 30.2619 62.5102 30.2619 62.5102 30.1154L62.5102 29.676C62.5102 29.09 62.5102 28.3575 62.5102 27.7716C62.5102 27.1856 62.5101 26.4532 62.6566 25.8672C62.8031 25.1347 62.3637 24.5488 61.7777 24.4023Z" fill="#323232"/>
<path d="M21.7852 17.8103C22.0781 17.8103 22.3711 17.8103 22.8106 18.1033C22.9571 18.2498 23.1036 18.5428 23.1036 18.6893C23.1036 18.9822 23.1036 19.1287 22.9571 19.2752L22.8106 19.7147C22.8106 19.8612 22.8106 19.8612 22.8106 19.8612C22.8106 19.8612 22.8106 20.0077 22.9571 20.0077L23.2501 20.1542C24.2755 20.7401 25.301 21.3261 26.1799 22.0586C28.0843 23.2305 30.1352 24.5489 32.0396 25.8673C29.9887 24.8419 27.9378 23.67 25.8869 22.6445C24.8615 22.0586 23.8361 21.4726 22.8106 20.8866C22.6641 20.7401 22.6641 20.7401 22.3711 20.5936C22.2246 20.4472 22.0781 20.3007 21.9317 20.0077C21.9317 19.8612 21.9317 19.5682 21.9317 19.4217L22.0782 18.9822C22.2246 18.6893 22.2246 18.6893 22.0782 18.5428C22.2246 18.3963 21.9316 18.1033 21.7852 17.8103Z" fill="#323232"/>
<path d="M9.48047 12.9756C10.3594 12.2432 11.5314 12.0967 12.5568 12.0967C13.5822 12.0967 14.7541 12.0967 15.7796 12.0967C17.977 12.3897 20.0279 12.8291 22.0788 13.8546C23.1042 14.4405 23.9831 15.173 24.7156 15.9055C25.448 16.7844 26.034 17.6634 26.62 18.3958C26.913 18.8353 27.3524 19.1283 27.7919 19.4213L29.1103 20.3002L31.7472 22.0581L28.9638 20.4467L27.6454 19.7142C27.2059 19.4213 26.62 19.1283 26.327 18.8353C25.4481 18.1028 24.8621 17.2239 24.1296 16.4914C23.3972 15.759 22.6647 15.173 21.6393 14.7335C19.7349 13.8546 17.8305 13.1221 15.7796 12.8291C14.7541 12.6826 13.7287 12.5362 12.7033 12.5362C11.3849 12.5362 10.3594 12.3897 9.48047 12.9756Z" fill="#323232"/>
<path d="M31.3047 23.9628C31.1582 23.8163 31.0117 23.5233 31.0117 23.2304C31.0117 23.0839 31.1582 22.9374 31.1582 22.7909C31.3047 22.6444 31.3047 22.6444 31.4512 22.4979L31.8906 21.9119C32.0371 21.7654 32.1837 21.4725 32.4766 21.326C32.7696 21.1795 33.2091 21.1795 33.502 21.4725L34.088 21.9119C34.5275 22.2049 34.8205 22.4979 35.1135 22.7909C35.4064 23.0839 35.8459 23.3768 36.1389 23.8163L36.7249 24.2558C36.8714 24.4023 37.1643 24.8418 37.0178 25.1347C37.0178 25.2812 36.8714 25.4277 36.8714 25.5742L36.7249 25.8672C36.5784 26.0137 36.4319 26.3067 36.2854 26.4532C35.9924 26.8926 35.8459 27.1856 35.5529 27.6251C35.5529 27.1856 35.6994 26.5997 35.8459 26.1602C35.9924 25.8672 35.9924 25.7207 36.1389 25.5742C36.2854 25.2812 36.4319 25.1347 36.4319 24.9883C36.4319 24.8418 36.4319 24.8418 36.2854 24.6953L35.6994 24.2558C35.2599 23.9628 34.967 23.6698 34.5275 23.3768C34.088 23.0839 33.795 22.7909 33.502 22.4979L32.9161 22.0584C32.9161 22.0584 32.7696 21.9119 32.6231 21.9119C32.6231 21.9119 32.3301 22.0584 32.1836 22.2049L31.5977 22.6444C31.4512 22.6444 31.4512 22.7909 31.3047 22.7909C31.1582 22.7909 31.1582 22.9374 31.1582 22.9374C31.1582 23.3768 31.1582 23.6698 31.3047 23.9628Z" fill="#323232"/>
<path d="M40.6758 19.4214C44.4846 19.4214 48.2934 19.4214 52.2487 19.5679C54.153 19.7144 56.0574 19.8609 57.9618 20.1538C58.9873 20.3003 59.8662 20.5933 60.7452 20.8863C61.1846 21.0328 61.6241 21.3258 61.9171 21.9117C62.0636 22.4977 61.9171 22.9372 61.9171 23.3767C61.9171 22.9372 61.9171 22.3512 61.7706 22.0582C61.6241 21.7653 61.1846 21.4723 60.7452 21.3258C59.8662 21.0328 58.9873 20.8863 57.9618 20.7398C56.0574 20.4468 54.153 20.1538 52.2487 20.0074C48.4399 19.7144 44.4846 19.7144 40.6758 19.4214Z" fill="#323232"/>
<path d="M47.2695 24.8413C47.416 26.1597 47.416 27.4782 47.5625 28.9431C47.5625 29.6755 47.709 30.2615 47.709 30.994C47.5625 31.7264 47.5625 32.3124 47.416 33.0448L47.2695 33.0448C46.9765 32.3124 46.9766 31.7264 46.9766 30.994C46.9766 30.2615 46.9766 29.6755 47.1231 28.9431C46.9766 27.4782 47.123 26.1597 47.2695 24.8413Z" fill="#323232"/>
<path d="M32.0374 20.8863L8.74522 2.2819C8.30574 1.98892 8.30574 1.40295 8.59872 0.963475C8.8917 0.524 9.47766 0.524002 9.91713 0.816985L32.0374 20.8863Z" fill="#323232"/>
<path d="M37.6033 30.7013C39.9472 34.6566 38.6287 39.7838 34.6735 42.1277C30.7182 44.4715 25.5909 43.1531 23.2471 39.1978C20.9032 35.2426 22.2216 30.1154 26.1769 27.7715C30.1322 25.4276 35.2594 26.7461 37.6033 30.7013Z" stroke="#323232" stroke-width="0.7" stroke-miterlimit="10"/>
</svg>
