<svg width="54" height="48" viewBox="0 0 54 48" fill="none" xmlns="http://www.w3.org/2000/svg">
<path d="M2.94531 11.4383C3.29193 10.2252 3.63854 9.01205 3.98515 7.97221C4.33176 6.75906 4.50507 5.71921 5.19829 4.33276C5.54491 3.63953 6.23814 3.29291 6.93136 3.11961C7.62459 2.9463 8.14451 2.773 8.83774 2.773C10.0509 2.59969 11.264 2.42638 12.4772 2.42638C17.3298 2.07977 22.1824 1.90646 27.035 1.73315C31.8876 1.73315 36.7401 2.07977 41.5927 2.42639L45.2322 2.773C46.4453 2.94631 48.0051 3.29292 48.8716 4.33276C49.3916 4.85268 49.5649 5.54591 49.7382 6.06583L50.2581 7.7989C50.6047 9.01204 50.9513 10.2252 51.1246 11.265C50.6047 10.2252 50.0848 9.01205 49.7382 7.97221C49.2183 6.93237 48.8716 5.54591 48.1784 4.85268C47.4852 4.15945 46.4453 3.98614 45.2322 3.98614L41.4194 3.98614C36.5668 3.81284 31.7142 3.63953 26.8617 3.63953L12.3039 3.81284L8.66443 3.98614C7.45128 3.98614 6.23814 4.15945 5.71822 5.02599C5.1983 5.89252 4.67837 7.10567 4.33176 8.31881C3.98515 9.18535 3.46523 10.3985 2.94531 11.4383Z" fill="white"/>
<path d="M29.6355 41.4204L13.6912 41.5937L9.70518 41.5937C8.31873 41.5937 7.10559 41.767 5.71913 41.4204C4.33268 41.2471 2.94622 40.5539 2.07969 39.514C1.21316 38.4742 0.693232 37.0877 0.519925 35.7013L-1.69507e-08 3.98613C-8.47533e-09 3.46621 0.519925 2.94629 1.03985 2.94629C1.55977 2.94629 2.07969 3.46621 2.07969 3.98613L1.55976 35.7013C1.55976 36.9144 1.90637 38.1276 2.77291 39.1674C3.46613 40.2073 4.67929 40.7272 5.89244 40.9005C7.10558 41.0738 8.49204 41.0738 9.8785 41.0738L13.8645 41.0738L29.6355 41.4204Z" fill="white"/>
<path d="M29.6376 41.4201C24.265 41.5934 19.0658 41.7667 13.6933 41.7667L9.70727 41.7667C8.32081 41.7667 7.10767 41.94 5.72121 41.5934C4.33476 41.4201 2.94831 40.7269 2.08177 39.5137C1.04193 38.4739 0.695312 36.9141 0.695312 35.5277L1.04193 3.8125L1.56185 35.701C1.73515 36.9141 2.08176 38.1273 2.77499 38.9938C3.46822 39.8603 4.68137 40.3802 5.89452 40.7269C7.10767 40.9002 8.49412 40.9002 9.70727 40.9002L13.6933 40.9002C19.0658 41.0735 24.4384 41.0735 29.6376 41.4201C29.6376 41.4201 29.8109 41.4201 29.6376 41.4201C29.8109 41.4201 29.6376 41.4201 29.6376 41.4201Z" fill="white"/>
<path d="M53.8995 3.98588L53.3796 23.5696L53.2063 33.2747C53.2063 34.8345 53.2063 36.5676 52.8597 38.1273C52.6864 38.9939 52.1665 39.6871 51.6465 40.207C50.9533 40.7269 50.2601 40.9003 49.3936 41.0736C50.2601 40.9003 50.9533 40.5536 51.6465 40.0337C52.3398 39.5138 52.6864 38.8206 52.8597 37.954C53.2063 36.3943 53.033 34.6612 53.033 33.1014L52.8597 23.3963L51.8199 3.98588C51.8199 3.46596 52.1665 2.94604 52.8597 2.94604C53.3796 2.94604 53.8995 3.46596 53.8995 3.98588Z" fill="white"/>
<path d="M52.8572 5.5459C53.0305 7.10566 53.0305 8.66542 53.2038 10.2252L53.2038 14.9045L53.2038 24.263L53.2038 33.6216C53.2038 35.1814 53.3771 36.7411 52.8572 38.3009C52.5106 39.1674 52.164 39.8607 51.4708 40.2073C50.7775 40.7272 49.911 40.9005 49.2178 40.9005C49.911 40.7272 50.7775 40.3806 51.2975 39.8607C51.8174 39.3407 52.164 38.6475 52.3373 37.9543C52.6839 36.5678 52.6839 35.0081 52.6839 33.4483L52.6839 24.0897L52.6839 14.7312L52.6839 10.0519C52.6839 8.66542 52.6839 7.10566 52.8572 5.5459Z" fill="white"/>
<path d="M2.59766 24.9563C10.7431 24.2631 18.8885 24.0898 27.0339 23.9165C35.1793 23.9165 43.3248 24.0898 51.4702 24.9564C43.3248 25.6496 35.1793 25.8229 27.0339 25.9962C18.8885 25.9962 10.7431 25.8229 2.59766 24.9563Z" fill="white"/>
<path d="M2.59766 13.1712C10.7431 12.478 18.8885 12.3047 27.0339 12.1313C35.1793 12.1313 43.3248 12.3047 51.4702 13.1712C43.3248 13.8644 35.1793 14.0377 27.0339 14.211C18.8885 14.0377 10.7431 13.8644 2.59766 13.1712Z" fill="white"/>
<path d="M32.2294 1.73307C31.7095 2.07968 31.1896 2.25299 30.6696 2.4263C30.323 2.25299 29.8031 2.25299 29.4565 2.25299C28.59 2.07968 27.7234 2.07968 26.8569 2.07968C25.9904 2.07968 25.1238 2.07968 24.2573 2.25299C23.9107 2.25299 23.3908 2.4263 23.0441 2.4263L21.4844 1.73307C21.831 1.21315 22.1776 0.693229 22.5242 0.346615C23.0441 0.173308 23.3908 0.173311 23.9107 0.173311C24.7772 4.01778e-06 25.817 7.06281e-08 26.6836 8.47537e-08C27.5501 9.88794e-08 28.59 4.07993e-06 29.4565 0.173311C29.9764 0.173311 30.323 0.346615 30.8429 0.346615C31.5362 0.866536 32.0561 1.21315 32.2294 1.73307Z" fill="white"/>
<path d="M7.62617 19.2372C8.4876 19.2372 9.18594 18.5389 9.18594 17.6774C9.18594 16.816 8.4876 16.1177 7.62617 16.1177C6.76474 16.1177 6.06641 16.816 6.06641 17.6774C6.06641 18.5389 6.76474 19.2372 7.62617 19.2372Z" fill="white"/>
<path d="M30.3256 15.9443C32.0587 15.771 33.7918 15.771 35.6982 15.5977L36.0448 15.5977L36.0448 15.9443L36.0448 19.5837L36.0448 19.9303L35.6982 19.9303C33.9651 19.9303 32.0587 19.9303 30.3256 19.757L30.1523 19.757L30.1523 19.5837C30.1523 18.1973 30.1523 16.9841 30.3256 15.9443ZM30.3256 15.9443C30.3256 17.3307 30.499 18.5439 30.499 19.5837L30.3256 19.4104C32.0587 19.2371 33.9651 19.4104 35.6982 19.2371L35.3516 19.5837L35.3516 15.9443L35.6982 16.2909C33.9651 16.1176 32.232 15.9443 30.3256 15.9443Z" fill="white"/>
<path d="M10.7485 15.9443C12.4816 15.771 14.2146 15.771 16.121 15.5977L16.4676 15.5977L16.4676 15.9443L16.4676 19.5837L16.4676 19.9303L16.121 19.9303C14.388 19.9303 12.4816 19.9303 10.7485 19.757L10.5752 19.757L10.5752 19.5837C10.5752 18.1973 10.7485 16.9841 10.7485 15.9443ZM10.7485 15.9443C10.7485 17.3307 10.9218 18.5439 10.9218 19.5837L10.7485 19.4104C12.4816 19.2371 14.388 19.4104 16.121 19.2371L15.7744 19.5837L15.7744 15.9443L16.121 16.2909C14.5613 16.1176 12.8282 15.9443 10.7485 15.9443Z" fill="white"/>
<path d="M37.6108 15.9445L41.2503 15.7712L41.4236 15.7712L41.4236 15.9445L41.5969 19.584L41.5969 19.9306L41.2503 19.9306L37.6108 19.7573L37.4375 19.7573L37.4375 19.584L37.6108 15.9445ZM37.6108 15.9445L37.7841 19.584L37.6108 19.4107L41.2503 19.2374L40.9036 19.584L41.077 15.9445L41.2503 16.1178L37.6108 15.9445Z" fill="white"/>
<path d="M43.1523 15.9445C44.712 15.7712 46.4451 15.7712 48.1782 15.7712L48.3515 15.7712L48.3515 16.1178C48.5248 18.1975 48.3515 20.4505 48.5248 22.5302L48.5248 22.8768L48.1782 22.8768L43.1523 22.8768L42.8057 22.8768L42.8057 22.5302C42.979 20.1039 42.979 17.8509 43.1523 15.9445ZM43.1523 15.9445C43.3256 18.1975 43.3256 20.2772 43.4989 22.3569L43.1523 22.0103L48.1782 22.0103L47.8316 22.3569C47.8316 20.2772 47.8316 18.0242 48.0049 15.9445L48.1782 16.1178C46.6184 16.1178 44.8853 15.9445 43.1523 15.9445Z" fill="white"/>
<path d="M34.1421 21.6633C34.1421 22.3566 33.6222 22.8765 32.929 22.8765C32.2357 22.8765 31.7158 22.3566 31.7158 21.6633C31.7158 20.9701 32.2357 20.4502 32.929 20.4502C33.6222 20.4502 34.1421 20.9701 34.1421 21.6633Z" fill="white"/>
<path d="M15.0748 11.4381C14.5549 9.705 14.035 7.97192 13.6884 6.06555C13.5151 5.19901 13.3418 3.98586 14.2083 3.11933C14.5549 2.59941 15.2481 2.59941 15.7681 2.4261L17.1545 2.25279C20.794 1.90618 24.4334 1.73288 28.0729 1.55957C31.7123 1.55957 35.3517 1.73288 38.9912 2.07949C39.5111 2.07949 39.8577 2.25279 40.3776 2.25279C40.8976 2.25279 41.5908 2.77272 41.7641 3.29264C42.284 4.50579 41.9374 5.37232 41.5908 6.23886C41.0709 7.97193 40.3776 9.705 39.8577 11.4381C40.2043 9.705 40.5509 7.79862 40.8976 6.06555C41.0709 5.19901 41.2442 4.33248 40.8976 3.81256C40.7242 3.46595 40.551 3.46594 40.2043 3.46594C39.8577 3.46594 39.3378 3.46594 38.8179 3.46594C35.1784 3.46594 31.539 3.29264 27.8995 3.29264C24.2601 3.29264 20.6207 3.46594 16.9812 3.46594L15.5948 3.46594C15.2481 3.46594 14.9015 3.46594 14.5549 3.81256C14.035 4.15917 14.035 5.19901 14.035 6.06555C14.5549 7.97192 14.9015 9.705 15.0748 11.4381Z" fill="white"/>
<path d="M29.1126 37.9542C24.6067 38.1275 20.1007 38.3008 15.4214 38.3008L11.9553 38.4741C11.4353 38.4741 10.7421 38.4741 10.2222 38.4741C9.52896 38.4741 8.83574 38.3008 8.31582 38.1275C7.10267 37.6076 6.23613 36.5677 5.88952 35.3546C5.54291 34.1414 5.88952 32.9283 6.06282 31.8884C6.23613 32.4083 6.23613 33.1016 6.23613 33.6215C6.23613 34.1414 6.40944 34.6613 6.58275 35.1813C6.92936 36.0478 7.79589 36.9143 8.66243 37.2609C9.18235 37.4342 9.52897 37.4342 10.0489 37.4342C10.5688 37.4342 11.262 37.4342 11.782 37.4342L15.2481 37.6076C19.9274 37.6076 24.6067 37.6076 29.1126 37.9542C29.1126 37.7809 29.1126 37.9542 29.1126 37.9542Z" fill="white"/>
<path d="M5.89436 36.221C4.68121 36.0477 3.64137 35.3544 3.29476 34.3146C2.94814 33.2747 3.12145 32.4082 3.12145 31.3684C3.29476 29.462 3.29475 27.7289 3.64137 25.9958C3.64137 27.7289 3.81468 29.6353 3.98799 31.3684C4.16129 32.2349 4.16129 33.2747 4.5079 33.7947C4.85451 34.3146 5.54774 34.6612 6.24097 34.6612C6.58758 34.6612 6.9342 35.0078 6.9342 35.3544C6.76089 35.8743 6.41428 36.221 5.89436 36.221C6.06767 36.221 5.89436 36.221 5.89436 36.221Z" fill="white"/>
<path d="M10.0508 37.9541L10.744 25.1294L11.6105 37.9541L10.0508 37.9541Z" fill="white"/>
<path d="M14.3797 42.4602C14.2064 42.9801 14.0331 43.6734 13.6865 44.1933L13.6865 44.3666L13.5132 44.3666C11.2602 44.5399 9.00722 44.5399 6.75423 44.3666L6.58093 44.3666L6.58093 44.1933C6.40762 43.6734 6.061 43.1534 5.8877 42.4602C6.23431 42.9801 6.75422 43.3267 7.10084 43.8467L6.75423 43.6734C9.00722 43.5 11.2602 43.5 13.5132 43.6734L13.1666 43.8467C13.6865 43.3267 14.0331 42.9801 14.3797 42.4602Z" fill="white"/>
<path d="M12.1335 47.486L8.32071 47.486C7.97409 47.486 7.80078 47.1394 7.80078 46.9661L7.80078 44.7131L12.6534 44.7131L12.6534 46.9661C12.6534 47.1394 12.4801 47.486 12.1335 47.486Z" stroke="white" stroke-width="0.467" stroke-miterlimit="10"/>
<path d="M39.3402 28.0753C41.7665 28.0753 44.1927 29.1152 45.9258 30.8482C47.6589 32.5813 48.6987 35.0076 48.6987 37.4339C48.6987 39.8602 47.6589 42.2865 45.9258 44.0196C44.1927 45.7526 41.7665 46.7925 39.3402 46.7925C36.9139 46.7925 34.4876 45.7526 32.7545 44.0196C31.0214 42.2865 29.9816 39.8602 29.9816 37.4339C29.9816 35.0076 31.0214 32.5813 32.7545 30.8482C34.6609 29.1152 36.9139 28.0753 39.3402 28.0753ZM39.3402 27.5554C36.7406 27.5554 34.3142 28.5953 32.2346 30.5016C28.4218 34.3144 28.4218 40.7267 32.2346 44.5395C34.1409 46.4459 36.7406 47.4857 39.3402 47.4857C41.9398 47.4857 44.3661 46.4459 46.4457 44.5395C50.2585 40.7267 50.2585 34.3144 46.4457 30.5016C44.5394 28.422 41.9398 27.5554 39.3402 27.5554Z" fill="white"/>
<path d="M39.3444 29.6357C41.424 29.6357 43.3304 30.5023 44.8902 31.8887C47.8364 34.8349 47.8364 39.8608 44.8902 42.8071C43.5037 44.1935 41.424 45.0601 39.3444 45.0601C37.2647 45.0601 35.3583 44.1935 33.7985 42.8071C30.8523 39.8608 30.8523 34.8349 33.7985 31.8887C35.3583 30.5023 37.2647 29.6357 39.3444 29.6357Z" stroke="white" stroke-width="0.3894" stroke-miterlimit="10"/>
<path d="M39.3402 27.5554C36.7406 27.5554 34.3142 28.5953 32.2346 30.5016C28.4218 34.3144 28.4218 40.7267 32.2346 44.5395C34.1409 46.4459 36.7406 47.4857 39.3402 47.4857C41.9398 47.4857 44.3661 46.4459 46.4457 44.5395C50.2585 40.7267 50.2585 34.3144 46.4457 30.5016C44.5394 28.422 41.9398 27.5554 39.3402 27.5554Z" stroke="white" stroke-width="0.3894" stroke-miterlimit="10"/>
<path d="M39.3385 39.1676C40.2957 39.1676 41.0716 38.3916 41.0716 37.4345C41.0716 36.4773 40.2957 35.7014 39.3385 35.7014C38.3814 35.7014 37.6055 36.4773 37.6055 37.4345C37.6055 38.3916 38.3814 39.1676 39.3385 39.1676Z" stroke="white" stroke-width="0.237" stroke-miterlimit="10"/>
<path d="M44.0207 32.755C46.6203 35.3546 46.6203 39.514 44.0207 41.9403C41.4211 44.5399 37.2617 44.5399 34.8354 41.9403C32.2358 39.3407 32.2358 35.1813 34.8354 32.755C37.2617 30.3287 41.4211 30.3287 44.0207 32.755Z" stroke="white" stroke-width="0.2477" stroke-miterlimit="10"/>
<path d="M33.793 35.1812C35.0061 35.5278 36.046 35.8745 37.2591 36.3944L37.0858 36.5677C37.2591 35.8745 37.9523 35.3545 38.6456 35.0079L38.4723 35.1812C37.9523 33.9681 37.6057 32.9282 37.2591 31.7151C37.779 32.7549 38.299 33.9681 38.8189 35.0079L38.8189 35.1812L38.6456 35.1812C38.1256 35.3545 37.6057 35.8745 37.4324 36.3944L37.4324 36.5677L37.2591 36.5677C35.8727 36.2211 34.8328 35.7011 33.793 35.1812Z" fill="white"/>
<path d="M45.065 39.6872C43.8518 39.3406 42.812 38.994 41.5988 38.4741L41.7721 38.3008C41.5988 38.994 40.9056 39.5139 40.2124 39.8605L40.3857 39.6872C40.9056 40.7271 41.2522 41.9402 41.5988 43.1534C41.0789 42.1135 40.559 41.0737 40.0391 39.8605L40.0391 39.6872L40.2124 39.6872C40.7323 39.5139 41.2522 38.994 41.4255 38.4741L41.4255 38.3008L41.5988 38.3008C42.9853 38.6474 44.0251 39.1673 45.065 39.6872Z" fill="white"/>
<path d="M41.7678 31.7151C41.4211 32.9282 41.0745 33.9681 40.5546 35.1812L40.3813 35.0079C41.0745 35.3545 41.5945 35.8745 41.9411 36.5677L41.5945 36.3944C42.6343 36.0478 43.8474 35.5278 45.0606 35.1812C44.0208 35.7011 42.9809 36.2211 41.7678 36.741L41.5945 36.741L41.5945 36.5677C41.4211 36.0478 40.9012 35.5278 40.3813 35.3545L40.208 35.3545L40.208 35.1812C40.5546 33.9681 41.0745 32.9282 41.7678 31.7151Z" fill="white"/>
<path d="M37.0858 43.1534C37.4324 41.9402 37.779 40.9004 38.2989 39.6872L38.4723 40.0339C37.779 39.6872 37.2591 39.1673 36.9125 38.4741L37.2591 38.6474C36.2193 38.994 35.0061 39.5139 33.793 39.8605C34.8328 39.3406 35.8727 38.8207 37.0858 38.3008L37.2591 38.3008L37.2591 38.4741C37.4324 38.994 37.9523 39.5139 38.4723 39.6872L38.6456 39.6872L38.6456 39.8605C38.299 40.9004 37.779 42.1135 37.0858 43.1534Z" fill="white"/>
<path d="M17.6762 27.3823C17.8495 27.9022 18.0228 28.4222 18.0228 28.9421C18.1961 29.462 18.1961 29.9819 18.1961 30.5019C18.1961 31.0218 18.1961 31.5417 18.0228 32.0616C18.0228 32.5815 17.8495 33.1015 17.6762 33.6214C17.5029 33.1015 17.3296 32.5815 17.3296 32.0616C17.1562 31.715 17.1562 31.1951 17.1562 30.6752C17.1562 30.1552 17.1562 29.6353 17.3296 29.1154C17.3296 28.4222 17.5029 27.9022 17.6762 27.3823Z" fill="white"/>
<path d="M18.021 31.1953L24.2601 31.3686L27.3796 31.5419C27.8995 31.5419 28.4195 31.5419 28.7661 31.1953C29.1127 30.8487 29.286 30.3288 29.4593 29.8088C29.4593 30.3288 29.286 30.8487 28.9394 31.1953C28.5928 31.5419 28.0728 31.7152 27.5529 31.7152L24.4334 31.8885L18.1943 32.0618C17.8477 32.0618 17.6744 31.8885 17.6744 31.5419C17.5011 31.3686 17.6744 31.1953 18.021 31.1953Z" fill="white"/>
<path d="M16.1179 24.9561L15.4247 36.5676L14.7314 24.9561L16.1179 24.9561Z" fill="white"/>
</svg>
