<svg width="55" height="49" viewBox="0 0 55 49" fill="none" xmlns="http://www.w3.org/2000/svg">
<path d="M3.04687 11.8812C3.39349 10.6681 3.7401 9.45492 4.08671 8.41508C4.43333 7.20193 4.60663 6.16208 5.29986 4.77563C5.64647 4.0824 6.3397 3.73579 7.03293 3.56248C7.72615 3.38917 8.24607 3.21587 8.9393 3.21587C10.1524 3.04256 11.3656 2.86926 12.5788 2.86926C17.4313 2.52264 22.2839 2.34933 27.1365 2.17603C31.9891 2.17603 36.8417 2.52264 41.6943 2.86926L45.3337 3.21587C46.5469 3.38918 48.1067 3.73579 48.9732 4.77563C49.4931 5.29555 49.6664 5.98878 49.8397 6.5087L50.3596 8.24177C50.7063 9.45492 51.0529 10.6681 51.2262 11.7079C50.7063 10.6681 50.1863 9.45492 49.8397 8.41508C49.3198 7.37524 48.9732 5.98878 48.28 5.29555C47.5867 4.60232 46.5469 4.42901 45.3337 4.42901L41.521 4.42901C36.6684 4.25571 31.8158 4.08241 26.9632 4.08241L12.4054 4.25571L8.76599 4.42901C7.55285 4.42901 6.3397 4.60232 5.81978 5.46886C5.29986 6.33539 4.77994 7.54854 4.43332 8.76169C4.08671 9.62822 3.5668 10.8414 3.04687 11.8812Z" fill="#323232"/>
<path d="M29.737 41.8633L13.7928 42.0366L9.80674 42.0366C8.42029 42.0366 7.20715 42.2099 5.82069 41.8633C4.43424 41.69 3.04779 40.9968 2.18125 39.9569C1.31472 38.9171 0.794795 37.5306 0.621488 36.1442L0.101562 4.429C0.101562 3.90908 0.621487 3.38916 1.14141 3.38916C1.66133 3.38916 2.18125 3.90908 2.18125 4.429L1.66133 36.1442C1.66133 37.3573 2.00793 38.5705 2.87447 39.6103C3.5677 40.6501 4.78085 41.1701 5.994 41.3434C7.20715 41.5167 8.59361 41.5167 9.98006 41.5167L13.9661 41.5167L29.737 41.8633Z" fill="#323232"/>
<path d="M29.7391 41.863C24.3666 42.0363 19.1674 42.2096 13.7949 42.2096L9.80883 42.2096C8.42237 42.2096 7.20923 42.3829 5.82278 42.0363C4.43632 41.863 3.04987 41.1697 2.18333 39.9566C1.14349 38.9167 0.796874 37.357 0.796874 35.9705L1.14349 4.25537L1.66341 36.1438C1.83672 37.357 2.18332 38.5701 2.87655 39.4367C3.56978 40.3032 4.78293 40.8231 5.99608 41.1697C7.20923 41.343 8.59568 41.343 9.80883 41.343L13.7949 41.343C19.1674 41.5164 24.5399 41.5164 29.7391 41.863C29.7391 41.863 29.9124 41.863 29.7391 41.863C29.9124 41.863 29.7391 41.863 29.7391 41.863Z" fill="#323232"/>
<path d="M54.0021 4.42875L53.4822 24.0124L53.3089 33.7176C53.3089 35.2774 53.3088 37.0104 52.9622 38.5702C52.7889 39.4367 52.269 40.13 51.7491 40.6499C51.0559 41.1698 50.3626 41.3431 49.4961 41.5164C50.3626 41.3431 51.0559 40.9965 51.7491 40.4766C52.4423 39.9567 52.7889 39.2634 52.9622 38.3969C53.3088 36.8371 53.1355 35.1041 53.1355 33.5443L52.9622 23.8391L51.9224 4.42875C51.9224 3.90883 52.269 3.38892 52.9622 3.38892C53.4822 3.38892 54.0021 3.90883 54.0021 4.42875Z" fill="#323232"/>
<path d="M52.9598 5.98877C53.1331 7.54853 53.1331 9.10829 53.3064 10.6681L53.3064 15.3473L53.3064 24.7059L53.3064 34.0645C53.3064 35.6242 53.4797 37.184 52.9598 38.7438C52.6131 39.6103 52.2665 40.3035 51.5733 40.6501C50.8801 41.1701 50.0135 41.3434 49.3203 41.3434C50.0135 41.1701 50.8801 40.8235 51.4 40.3035C51.9199 39.7836 52.2665 39.0904 52.4398 38.3972C52.7865 37.0107 52.7864 35.4509 52.7864 33.8912L52.7865 24.5326L52.7865 15.174L52.7865 10.4947C52.7865 9.10829 52.7864 7.54853 52.9598 5.98877Z" fill="#323232"/>
<path d="M2.69922 25.3992C10.8446 24.706 18.9901 24.5327 27.1355 24.3594C35.2809 24.3594 43.4263 24.5327 51.5718 25.3992C43.4263 26.0924 35.2809 26.2658 27.1355 26.4391C18.9901 26.4391 10.8446 26.2658 2.69922 25.3992Z" fill="#323232"/>
<path d="M2.69922 13.6141C10.8446 12.9208 18.9901 12.7475 27.1355 12.5742C35.2809 12.5742 43.4263 12.7475 51.5718 13.6141C43.4263 14.3073 35.2809 14.4806 27.1355 14.6539C18.9901 14.4806 10.8446 14.3073 2.69922 13.6141Z" fill="#323232"/>
<path d="M32.331 2.17594C31.811 2.52255 31.2911 2.69586 30.7712 2.86917C30.4246 2.69586 29.9047 2.69586 29.5581 2.69586C28.6915 2.52255 27.825 2.52256 26.9584 2.52256C26.0919 2.52256 25.2254 2.52255 24.3588 2.69586C24.0122 2.69586 23.4923 2.86917 23.1457 2.86917L21.5859 2.17594C21.9326 1.65602 22.2792 1.1361 22.6258 0.789486C23.1457 0.616179 23.4923 0.616182 24.0122 0.616182C24.8788 0.442875 25.9186 0.442871 26.7851 0.442871C27.6517 0.442871 28.6915 0.442875 29.5581 0.616182C30.078 0.616182 30.4246 0.789486 30.9445 0.789486C31.6377 1.30941 32.1577 1.65602 32.331 2.17594Z" fill="#323232"/>
<path d="M7.72773 19.6801C8.58917 19.6801 9.2875 18.9817 9.2875 18.1203C9.2875 17.2589 8.58917 16.5605 7.72773 16.5605C6.8663 16.5605 6.16797 17.2589 6.16797 18.1203C6.16797 18.9817 6.8663 19.6801 7.72773 19.6801Z" fill="#323232"/>
<path d="M30.4272 16.3871C32.1603 16.2138 33.8933 16.2138 35.7997 16.0405L36.1463 16.0405L36.1463 16.3871L36.1463 20.0266L36.1463 20.3732L35.7997 20.3732C34.0667 20.3732 32.1603 20.3732 30.4272 20.1999L30.2539 20.1999L30.2539 20.0266C30.2539 18.6401 30.2539 17.427 30.4272 16.3871ZM30.4272 16.3871C30.4272 17.7736 30.6005 18.9867 30.6005 20.0266L30.4272 19.8533C32.1603 19.68 34.0667 19.8533 35.7997 19.68L35.4531 20.0266L35.4531 16.3871L35.7997 16.7338C34.0667 16.5605 32.3336 16.3871 30.4272 16.3871Z" fill="#323232"/>
<path d="M10.8491 16.3871C12.5822 16.2138 14.3152 16.2138 16.2216 16.0405L16.5682 16.0405L16.5682 16.3871L16.5682 20.0266L16.5682 20.3732L16.2216 20.3732C14.4885 20.3732 12.5822 20.3732 10.8491 20.1999L10.6758 20.1999L10.6758 20.0266C10.6758 18.6401 10.8491 17.427 10.8491 16.3871ZM10.8491 16.3871C10.8491 17.7736 11.0224 18.9867 11.0224 20.0266L10.8491 19.8533C12.5822 19.68 14.4885 19.8533 16.2216 19.68L15.875 20.0266L15.875 16.3871L16.2216 16.7338C14.6618 16.5605 12.9288 16.3871 10.8491 16.3871Z" fill="#323232"/>
<path d="M37.7124 16.3874L41.3518 16.2141L41.5251 16.2141L41.5251 16.3874L41.6984 20.0269L41.6984 20.3735L41.3518 20.3735L37.7124 20.2002L37.5391 20.2002L37.5391 20.0269L37.7124 16.3874ZM37.7124 16.3874L37.8857 20.0269L37.7124 19.8536L41.3518 19.6802L41.0052 20.0269L41.1785 16.3874L41.3518 16.5607L37.7124 16.3874Z" fill="#323232"/>
<path d="M43.2529 16.3874C44.8126 16.2141 46.5457 16.2141 48.2788 16.2141L48.4521 16.2141L48.4521 16.5607C48.6254 18.6404 48.4521 20.8934 48.6254 22.9731L48.6254 23.3197L48.2788 23.3197L43.2529 23.3197L42.9062 23.3197L42.9062 22.9731C43.0796 20.5468 43.0796 18.2938 43.2529 16.3874ZM43.2529 16.3874C43.4262 18.6404 43.4262 20.7201 43.5995 22.7998L43.2529 22.4532L48.2788 22.4532L47.9321 22.7998C47.9321 20.7201 47.9321 18.4671 48.1055 16.3874L48.2788 16.5607C46.719 16.5607 44.9859 16.3874 43.2529 16.3874Z" fill="#323232"/>
<path d="M34.2427 22.1062C34.2427 22.7994 33.7228 23.3194 33.0295 23.3194C32.3363 23.3194 31.8164 22.7994 31.8164 22.1062C31.8164 21.413 32.3363 20.8931 33.0295 20.8931C33.7228 20.8931 34.2427 21.413 34.2427 22.1062Z" fill="#323232"/>
<path d="M15.1764 11.8809C14.6565 10.1479 14.1366 8.41479 13.7899 6.50842C13.6166 5.64188 13.4433 4.42873 14.3099 3.5622C14.6565 3.04228 15.3497 3.04228 15.8696 2.86898L17.2561 2.69567C20.8955 2.34905 24.535 2.17575 28.1744 2.00244C31.8139 2.00244 35.4533 2.17575 39.0927 2.52236C39.6127 2.52236 39.9593 2.69567 40.4792 2.69567C40.9991 2.69567 41.6923 3.21559 41.8657 3.73551C42.3856 4.94866 42.039 5.81519 41.6923 6.68173C41.1724 8.4148 40.4792 10.1479 39.9593 11.8809C40.3059 10.1479 40.6525 8.24149 40.9991 6.50842C41.1724 5.64188 41.3457 4.77535 40.9991 4.25543C40.8258 3.90882 40.6525 3.90881 40.3059 3.90881C39.9593 3.90881 39.4394 3.90881 38.9194 3.90881C35.28 3.90881 31.6405 3.73551 28.0011 3.73551C24.3617 3.73551 20.7222 3.90881 17.0828 3.90881L15.6963 3.90881C15.3497 3.90881 15.0031 3.90882 14.6565 4.25543C14.1366 4.60204 14.1365 5.64188 14.1365 6.50842C14.6565 8.41479 15.0031 10.1479 15.1764 11.8809Z" fill="#323232"/>
<path d="M29.2152 38.397C24.7092 38.5703 20.2032 38.7437 15.5239 38.7437L12.0578 38.917C11.5379 38.917 10.8447 38.917 10.3247 38.917C9.6315 38.917 8.93828 38.7437 8.41836 38.5703C7.20521 38.0504 6.33867 37.0106 5.99206 35.7974C5.64545 34.5843 5.99206 33.3711 6.16536 32.3313C6.33867 32.8512 6.33867 33.5444 6.33867 34.0644C6.33867 34.5843 6.51198 35.1042 6.68529 35.6241C7.0319 36.4907 7.89843 37.3572 8.76497 37.7038C9.28489 37.8771 9.63151 37.8771 10.1514 37.8771C10.6713 37.8771 11.3646 37.8771 11.8845 37.8771L15.3506 38.0504C20.0299 38.0504 24.7092 38.0504 29.2152 38.397C29.2152 38.2237 29.2152 38.397 29.2152 38.397Z" fill="#323232"/>
<path d="M5.99592 36.6638C4.78277 36.4905 3.74293 35.7973 3.39632 34.7575C3.04971 33.7176 3.22302 32.8511 3.22302 31.8112C3.39632 29.9049 3.39631 28.1718 3.74293 26.4387C3.74293 28.1718 3.91624 30.0782 4.08955 31.8112C4.26286 32.6778 4.26285 33.7176 4.60946 34.2375C4.95608 34.7575 5.6493 35.1041 6.34253 35.1041C6.68914 35.1041 7.03576 35.4507 7.03576 35.7973C6.86245 36.3172 6.51584 36.6638 5.99592 36.6638C6.16923 36.6638 5.99592 36.6638 5.99592 36.6638Z" fill="#323232"/>
<path d="M10.1523 38.397L10.8456 25.5723L11.7121 38.397L10.1523 38.397Z" fill="#323232"/>
<path d="M14.4803 42.9031C14.307 43.423 14.1337 44.1162 13.7871 44.6361L13.7871 44.8095L13.6138 44.8095C11.3608 44.9828 9.10781 44.9828 6.85482 44.8095L6.68151 44.8095L6.68151 44.6361C6.5082 44.1162 6.16159 43.5963 5.98828 42.9031C6.3349 43.423 6.85481 43.7696 7.20142 44.2895L6.85482 44.1162C9.10781 43.9429 11.3608 43.9429 13.6138 44.1162L13.2672 44.2895C13.7871 43.7696 14.1337 43.423 14.4803 42.9031Z" fill="#323232"/>
<path d="M12.235 47.9289L8.42227 47.9289C8.07566 47.9289 7.90234 47.5823 7.90234 47.409L7.90234 45.156L12.7549 45.156L12.7549 47.409C12.7549 47.5823 12.5816 47.9289 12.235 47.9289Z" stroke="#323232" stroke-width="0.467" stroke-miterlimit="10"/>
<path d="M39.4417 28.5182C41.868 28.5182 44.2943 29.558 46.0274 31.2911C47.7604 33.0242 48.8003 35.4505 48.8003 37.8768C48.8003 40.3031 47.7604 42.7294 46.0274 44.4624C44.2943 46.1955 41.868 47.2354 39.4417 47.2354C37.0154 47.2354 34.5891 46.1955 32.8561 44.4624C31.123 42.7294 30.0831 40.3031 30.0831 37.8768C30.0831 35.4505 31.123 33.0242 32.8561 31.2911C34.7624 29.558 37.0154 28.5182 39.4417 28.5182ZM39.4417 27.9983C36.8421 27.9983 34.4158 29.0381 32.3361 30.9445C28.5234 34.7573 28.5234 41.1696 32.3361 44.9824C34.2425 46.8887 36.8421 47.9286 39.4417 47.9286C42.0413 47.9286 44.4676 46.8887 46.5473 44.9824C50.36 41.1696 50.36 34.7573 46.5473 30.9445C44.6409 28.8648 42.0413 27.9983 39.4417 27.9983Z" fill="#323232"/>
<path d="M39.4469 30.0786C41.5266 30.0786 43.433 30.9451 44.9927 32.3316C47.9389 35.2778 47.9389 40.3037 44.9927 43.2499C43.6063 44.6364 41.5266 45.5029 39.4469 45.5029C37.3672 45.5029 35.4608 44.6364 33.9011 43.2499C30.9549 40.3037 30.9549 35.2778 33.9011 32.3316C35.4608 30.9451 37.3672 30.0786 39.4469 30.0786Z" stroke="#323232" stroke-width="0.3894" stroke-miterlimit="10"/>
<path d="M39.4417 27.9983C36.8421 27.9983 34.4158 29.0381 32.3361 30.9445C28.5234 34.7573 28.5234 41.1696 32.3361 44.9824C34.2425 46.8887 36.8421 47.9286 39.4417 47.9286C42.0413 47.9286 44.4676 46.8887 46.5473 44.9824C50.36 41.1696 50.36 34.7573 46.5473 30.9445C44.6409 28.8648 42.0413 27.9983 39.4417 27.9983Z" stroke="#323232" stroke-width="0.3894" stroke-miterlimit="10"/>
<path d="M39.4401 39.6104C40.3972 39.6104 41.1732 38.8345 41.1732 37.8774C41.1732 36.9202 40.3972 36.1443 39.4401 36.1443C38.483 36.1443 37.707 36.9202 37.707 37.8774C37.707 38.8345 38.483 39.6104 39.4401 39.6104Z" stroke="#323232" stroke-width="0.237" stroke-miterlimit="10"/>
<path d="M44.1233 33.1979C46.7229 35.7975 46.7229 39.9569 44.1233 42.3832C41.5237 44.9828 37.3643 44.9828 34.938 42.3832C32.3384 39.7836 32.3384 35.6242 34.938 33.1979C37.3643 30.7716 41.5237 30.7716 44.1233 33.1979Z" stroke="#323232" stroke-width="0.2477" stroke-miterlimit="10"/>
<path d="M33.8945 35.6241C35.1077 35.9707 36.1475 36.3173 37.3607 36.8372L37.1874 37.0106C37.3607 36.3173 38.0539 35.7974 38.7471 35.4508L38.5738 35.6241C38.0539 34.4109 37.7073 33.3711 37.3607 32.158C37.8806 33.1978 38.4005 34.411 38.9204 35.4508L38.9204 35.6241L38.7471 35.6241C38.2272 35.7974 37.7073 36.3173 37.534 36.8372L37.534 37.0106L37.3607 37.0106C35.9742 36.6639 34.9344 36.144 33.8945 35.6241Z" fill="#323232"/>
<path d="M45.1665 40.1301C43.9534 39.7835 42.9135 39.4369 41.7004 38.917L41.8737 38.7437C41.7004 39.4369 41.0072 39.9568 40.3139 40.3034L40.4872 40.1301C41.0072 41.1699 41.3538 42.3831 41.7004 43.5962C41.1805 42.5564 40.6605 41.5166 40.1406 40.3034L40.1406 40.1301L40.3139 40.1301C40.8339 39.9568 41.3538 39.4369 41.5271 38.917L41.5271 38.7437L41.7004 38.7437C43.0868 39.0903 44.1267 39.6102 45.1665 40.1301Z" fill="#323232"/>
<path d="M41.8683 32.158C41.5217 33.3711 41.1751 34.4109 40.6552 35.6241L40.4819 35.4508C41.1751 35.7974 41.695 36.3173 42.0417 37.0106L41.695 36.8372C42.7349 36.4906 43.948 35.9707 45.1612 35.6241C44.1213 36.144 43.0815 36.6639 41.8683 37.1839L41.695 37.1839L41.695 37.0106C41.5217 36.4906 41.0018 35.9707 40.4819 35.7974L40.3086 35.7974L40.3086 35.6241C40.6552 34.4109 41.1751 33.3711 41.8683 32.158Z" fill="#323232"/>
<path d="M37.1874 43.5962C37.534 42.3831 37.8806 41.3433 38.4005 40.1301L38.5738 40.4767C37.8806 40.1301 37.3607 39.6102 37.0141 38.917L37.3607 39.0903C36.3208 39.4369 35.1077 39.9568 33.8945 40.3034C34.9344 39.7835 35.9742 39.2636 37.1874 38.7437L37.3607 38.7437L37.3607 38.917C37.534 39.4369 38.0539 39.9568 38.5738 40.1301L38.7471 40.1301L38.7471 40.3034C38.4005 41.3433 37.8806 42.5564 37.1874 43.5962Z" fill="#323232"/>
<path d="M17.7777 27.8252C17.951 28.3451 18.1243 28.865 18.1243 29.385C18.2977 29.9049 18.2977 30.4248 18.2977 30.9447C18.2977 31.4646 18.2977 31.9846 18.1243 32.5045C18.1243 33.0244 17.951 33.5443 17.7777 34.0642C17.6044 33.5443 17.4311 33.0244 17.4311 32.5045C17.2578 32.1579 17.2578 31.6379 17.2578 31.118C17.2578 30.5981 17.2578 30.0782 17.4311 29.5583C17.4311 28.865 17.6044 28.3451 17.7777 27.8252Z" fill="#323232"/>
<path d="M18.1236 31.6382L24.3626 31.8115L27.4822 31.9848C28.0021 31.9848 28.522 31.9848 28.8686 31.6382C29.2152 31.2915 29.3885 30.7716 29.5618 30.2517C29.5618 30.7716 29.3885 31.2915 29.0419 31.6382C28.6953 31.9848 28.1754 32.1581 27.6555 32.1581L24.5359 32.3314L18.2969 32.5047C17.9503 32.5047 17.777 32.3314 17.777 31.9848C17.6037 31.8115 17.777 31.6382 18.1236 31.6382Z" fill="#323232"/>
<path d="M16.2185 25.3989L15.5253 37.0105L14.832 25.3989L16.2185 25.3989Z" fill="#323232"/>
</svg>
