<svg width="42" height="45" viewBox="0 0 42 45" fill="none" xmlns="http://www.w3.org/2000/svg">
<path d="M22.4798 13.6006C21.7841 14.2962 21.6102 15.1658 21.4363 16.0354C21.4363 16.5571 21.2624 16.9049 21.2624 17.4267C21.2624 17.6006 21.0885 17.9484 20.7407 18.1223C20.3928 18.2963 20.2189 18.1223 19.8711 18.1223C20.3928 17.9484 20.5667 17.7745 20.5667 17.2528C20.5667 16.9049 20.5667 16.3832 20.7407 15.8615C20.9146 15.3397 20.9146 14.818 21.2624 14.4702C21.6102 14.1223 21.9581 13.6006 22.4798 13.6006Z" fill="white"/>
<path d="M9.09766 30.8177C9.96722 29.9481 10.8368 29.0786 11.7064 28.209L11.5324 28.3829C11.7063 26.6438 11.8803 24.7307 12.0542 22.9916L12.2281 23.3394L10.4889 21.6003C10.315 21.4264 10.3151 21.4264 10.3151 21.2524C10.489 20.3829 10.6629 19.5133 10.8368 18.6437C10.8368 18.6437 10.8368 18.4698 11.0107 18.4698C11.5324 18.2959 12.0542 17.9481 12.5759 17.7742C12.0542 18.122 11.7064 18.4698 11.1846 18.8177L11.3585 18.6437C11.3585 19.5133 11.3586 20.3829 11.1846 21.2524L11.0107 20.9046L12.7498 22.6438C12.9237 22.8177 12.9238 22.8177 12.9238 22.9916C12.7499 24.7307 12.402 26.6438 12.0542 28.3829C12.0542 28.3829 12.0541 28.5568 11.8802 28.5568C11.0107 29.4264 9.96722 30.122 9.09766 30.8177Z" fill="white"/>
<path d="M18.1426 11.5134L22.3165 10.9917L24.4035 10.6439C24.7513 10.6439 24.9253 10.47 25.0992 10.296C25.2731 10.1221 25.0992 9.94823 25.0992 9.6004C24.9253 8.20909 24.7513 6.81778 24.5773 5.42647C24.5773 4.73081 24.4035 4.03516 24.4035 3.3395L24.2296 2.29602C24.2296 1.77428 24.2295 2.12211 24.0556 1.94819C23.8817 1.77428 23.7078 1.77428 23.5339 1.77428L22.4905 1.77428L20.4035 1.77428C19.0122 1.77428 17.6208 1.77428 16.2295 1.94819C13.4469 2.12211 10.6643 2.29602 7.88167 2.64385L8.22951 2.46993L5.79468 9.42648L5.62081 9.6004L2.31641 9.77431L2.49033 9.6004L2.83818 10.8178L2.66425 10.8178L2.31641 9.6004L2.31641 9.42648L5.62081 9.07865L5.44688 9.25257L7.53382 2.1221C7.53382 1.94819 7.70775 1.94819 7.88167 1.94819C10.6643 1.42645 13.4469 1.07863 16.4035 0.904714C17.7948 0.7308 19.186 0.730799 20.5773 0.556885C21.273 0.556885 21.9687 0.556885 22.6643 0.556885L23.7078 0.556885C24.0556 0.556885 24.7513 0.730797 25.0992 1.07862C25.2731 1.25254 25.6209 1.42645 25.6209 1.77428C25.7948 2.29602 25.6208 2.29602 25.7948 2.46993L25.7948 3.51342C25.7948 4.20907 25.7948 4.90472 25.9687 5.60038C25.9687 6.99169 26.1426 8.383 26.1426 9.77431C26.1426 10.1221 26.1426 10.6439 25.9687 10.9917C25.6209 11.3395 25.2731 11.5134 24.7513 11.5134L22.6643 11.6874L18.1426 11.5134Z" fill="white"/>
<path d="M25.7989 10.2965C26.3206 10.1226 27.0163 9.77479 27.538 9.60087C28.0597 9.42696 28.7554 9.25305 28.9293 8.90522C29.1032 8.7313 29.1033 8.55739 29.1033 8.20956L28.9293 7.33999L28.7554 5.60085L28.5816 3.86172L28.5816 2.99215L28.5816 2.47041C28.5816 2.2965 28.5816 2.2965 28.5816 2.2965C28.4076 1.94867 27.8859 1.77476 27.3641 1.77476C26.8424 1.60085 26.1467 1.42693 25.625 1.25301C26.3207 1.25301 26.8424 1.0791 27.538 1.0791C28.0597 1.0791 28.9294 1.0791 29.4511 1.77476C29.625 1.94867 29.625 2.12258 29.625 2.47041L29.625 2.99215L29.7989 3.86172L29.9728 5.60085L30.1467 7.51391L30.1467 8.38348C30.1467 8.73131 29.9728 9.07913 29.7989 9.42696C29.625 9.77479 29.1032 9.9487 28.9293 10.1226C28.5815 10.1226 28.2336 10.2965 28.0597 10.2965C27.0162 10.2965 26.4945 10.2965 25.7989 10.2965Z" fill="white"/>
<path d="M7.01231 2.29588C6.14274 2.64371 5.27317 2.99153 4.40361 3.16545C4.05578 3.33936 3.53406 3.33936 3.01232 3.51327C2.66449 3.51327 2.49053 3.68719 2.31662 4.03501C1.96879 4.55676 1.96882 5.60023 1.96882 6.4698C1.96882 7.33937 1.96881 8.20894 1.7949 9.25243C1.44707 8.38286 1.27317 7.51329 1.09926 6.64372C0.925342 5.77415 0.751428 4.73067 1.09926 3.68719C1.27317 3.16544 1.9688 2.64371 2.49054 2.64371C3.01229 2.64371 3.36014 2.46979 3.88189 2.46979C5.27319 2.12196 6.14274 2.12196 7.01231 2.29588Z" fill="white"/>
<path d="M15.5325 12.7308C16.0542 12.7308 16.5759 12.5569 17.0977 12.5569L17.0977 12.7308L16.9238 10.9917L17.0977 11.1656C15.8803 11.3395 14.4889 11.3395 13.2715 11.5134L13.2715 12.7308L13.0977 11.5134C14.3151 11.3395 15.7064 11.1656 16.9238 11.1656C16.9238 11.1656 17.0977 11.1656 17.0977 11.3395L17.2716 13.0787L17.2716 13.2526C16.576 12.5569 16.0542 12.5569 15.5325 12.7308Z" fill="white"/>
<path d="M9.62109 5.07888C12.7515 4.55714 15.7081 4.20931 18.8385 4.0354L19.0125 4.0354L20.9255 5.60062L21.0994 5.77454L21.2733 8.03541C21.2733 8.20933 21.0994 8.38324 21.0994 8.38324C18.1428 8.55716 15.3602 8.73107 12.4037 8.90498C15.3602 8.55716 18.1428 8.20933 21.0994 7.8615L20.9255 8.20933L20.7516 5.94845L20.9255 6.12237L19.0125 4.55714L19.1863 4.55714C15.7081 4.90497 12.7515 5.07888 9.62109 5.07888Z" fill="white"/>
<path d="M29.6182 1.77427C30.4877 1.60036 31.3573 1.42644 32.2269 1.25252C33.0964 1.07861 34.1399 1.07861 35.0094 1.07861C35.5312 1.07861 35.8791 1.07861 36.4008 1.25252C36.9226 1.42644 37.2703 1.42644 37.966 1.60035C38.3138 1.77427 38.4878 1.94818 38.6617 2.29601C38.8356 2.64384 38.8356 2.81775 38.8356 3.16558C38.8356 3.68732 39.0095 4.03515 39.0095 4.55689C39.0095 5.07863 39.0095 5.60037 39.0095 6.12211C39.0095 6.64385 38.6617 7.51342 38.14 7.68733C37.2704 8.20907 36.4008 8.38299 35.3573 8.73082C34.4877 8.90473 33.4443 9.07864 32.5747 9.07864C31.7051 9.07864 30.8355 9.07864 29.792 8.90473C30.6616 8.73082 31.5312 8.5569 32.4007 8.38299C33.2703 8.20908 34.1399 8.03516 35.0094 7.68733C35.879 7.33951 36.7487 6.99168 37.2704 6.64385C37.4443 6.46994 37.4442 6.46994 37.6182 5.9482C37.6182 5.60037 37.6182 5.07863 37.6182 4.7308C37.6182 4.38297 37.4443 3.86124 37.4443 3.51341C37.4443 2.99167 37.4443 2.99166 37.0964 2.81775C36.9225 2.64384 36.4008 2.64384 36.053 2.46992L34.8356 2.12209C33.966 1.94818 33.0964 1.77427 32.2269 1.77427C31.5312 1.94818 30.4877 1.94818 29.6182 1.77427Z" fill="white"/>
<path d="M34.3135 5.0787C33.9656 5.25261 33.6178 5.25261 33.2699 5.42652C32.9221 5.42652 32.5743 5.42652 32.2265 5.42652C31.5308 5.42652 30.8352 5.42652 30.3135 5.42652C31.0091 5.25261 31.5308 5.25261 32.2265 5.0787C32.5743 5.0787 32.9221 4.90479 33.2699 4.90479C33.7917 4.90479 34.1396 4.90478 34.3135 5.0787C34.4874 4.90478 34.4874 4.90478 34.3135 5.0787C34.4874 5.0787 34.4874 5.0787 34.3135 5.0787Z" fill="white"/>
<path d="M34.3135 4.035C33.9656 4.20892 33.6178 4.20892 33.2699 4.38283C32.9221 4.38283 32.5743 4.38283 32.2265 4.38283C31.5308 4.38283 30.8352 4.38283 30.3135 4.38283C31.0091 4.20892 31.5308 4.20892 32.2265 4.035C32.5743 4.035 32.9221 3.86108 33.2699 3.86108C33.6178 3.86108 33.9656 3.86109 34.3135 4.035C34.3135 3.86109 34.3135 3.86109 34.3135 4.035Z" fill="white"/>
<path d="M34.4971 6.1224C34.1492 6.29632 33.8015 6.29631 33.4536 6.47023C33.1058 6.47023 32.7579 6.47023 32.4101 6.47023C31.7144 6.47023 31.0188 6.47023 30.4971 6.47023C31.1927 6.29631 31.7144 6.29632 32.4101 6.1224C32.7579 6.1224 33.1058 5.94849 33.4536 5.94849C33.8015 5.94849 34.1492 5.94849 34.4971 6.1224Z" fill="white"/>
<path d="M34.669 7.51327C34.3212 7.68719 33.9733 7.68719 33.6255 7.8611C33.2777 7.8611 32.9299 7.8611 32.5821 7.8611C31.8864 7.8611 31.1907 7.8611 30.6689 7.8611C31.3646 7.68719 31.8864 7.68719 32.5821 7.51327C32.9299 7.51327 33.2777 7.33936 33.6255 7.33936C33.9733 7.33936 34.3212 7.33936 34.669 7.51327C34.669 7.33936 34.669 7.51327 34.669 7.51327Z" fill="white"/>
<path d="M34.1455 2.64413C33.7977 2.81805 33.4499 2.81804 33.1021 2.99195C32.7542 2.99195 32.4064 2.99195 32.0586 2.99195C31.363 2.99195 30.6672 2.99195 30.1455 2.99195C30.8412 2.81804 31.363 2.81805 32.0586 2.64413C32.4064 2.64413 32.7542 2.47021 33.1021 2.47021C33.4499 2.47021 33.7977 2.47022 34.1455 2.64413Z" fill="white"/>
<path d="M38.8359 3.6874C39.5316 3.6874 40.2273 3.51349 40.7491 3.6874C40.923 3.6874 40.9229 3.86131 41.0968 3.86131C41.0968 4.20914 41.2708 4.55697 41.2708 4.9048C41.2708 5.07871 41.0968 5.07871 41.0968 5.25263C40.4011 5.42654 39.8794 5.60045 39.1838 5.60045C39.7055 5.25262 40.4012 4.9048 40.9229 4.73088L40.7491 5.07871C40.7491 4.73088 40.7491 4.38306 40.7491 4.03523L41.0968 4.38306C40.0533 4.20915 39.5316 4.03523 38.8359 3.6874Z" fill="white"/>
<path d="M17.1003 35.5135L15.3611 38.6439L15.1873 38.6439C11.8829 38.8178 8.57853 38.8178 5.27417 38.8178L4.92632 38.8178L4.75245 38.47L3.88288 34.9917L3.70896 34.2961L4.4046 34.2961C4.92634 34.2961 5.44811 33.9482 5.62202 33.7743C5.79593 33.6004 5.79589 32.7309 5.79589 32.2091C5.79589 30.9917 5.96982 29.6004 5.96982 28.383C6.31764 25.7743 6.66546 23.3395 7.53503 20.7308C7.88286 19.5134 8.23071 18.296 8.75245 17.0786C8.92636 16.5569 9.10029 15.8612 9.10029 15.3395C9.10029 14.8177 8.92636 14.296 8.75245 13.9482C8.23071 13.2525 7.01333 13.0786 5.62202 13.0786C4.92637 13.0786 4.23069 12.9047 3.53504 12.7308C2.83938 12.5569 2.14374 11.8612 1.96982 10.9916L1.7959 10.4699L2.31762 10.4699C5.62198 10.296 8.75249 10.1221 12.0568 10.1221C8.9264 10.6438 5.62199 10.9916 2.49154 11.3395L2.83939 10.8177C3.18722 11.8612 4.40463 12.0351 5.62202 12.0351C6.31768 12.0351 6.83937 12.0351 7.53503 12.209C8.23068 12.3829 8.92636 12.5569 9.62201 13.2525C10.8394 14.6438 10.3177 16.383 9.96986 17.4264C9.62204 18.6438 9.2742 19.8612 8.92637 21.0786C8.23072 23.5134 7.70899 25.9482 7.36116 28.383C7.18724 29.6004 7.18722 30.8178 7.01331 32.2091L7.01331 33.0787C7.01331 33.2526 7.01329 33.9482 6.66546 34.2961C6.14372 35.1656 5.27418 35.3396 4.57853 35.3396L5.10025 34.6439L5.79589 38.2961L5.27417 37.9483C8.57853 38.1222 11.8829 38.2961 15.0133 38.47L14.8394 38.47L17.1003 35.5135Z" fill="white"/>
<path d="M21.2685 40.3831L3.7032 40.3831C2.4858 40.3831 1.61621 41.4265 1.61621 42.47C1.61621 43.6874 2.65971 44.557 3.7032 44.557L21.2685 44.557C22.4859 44.557 23.3555 43.5135 23.3555 42.47C23.5294 41.2526 22.4859 40.3831 21.2685 40.3831Z" stroke="white" stroke-width="0.6306" stroke-miterlimit="10"/>
<path d="M1.62026 43.1656C1.27243 41.9482 1.27246 40.7308 1.27246 39.6873C1.44637 38.4699 1.62026 37.4264 1.62026 36.209L1.62026 36.0351L1.79418 36.0351C2.48984 35.6873 3.01159 35.5134 3.70724 35.1655L3.70724 35.3394C3.1855 35.8612 2.66377 36.209 2.14203 36.7308L2.3159 36.3829C2.3159 37.6003 2.3159 38.6438 2.3159 39.8612C2.3159 40.7308 2.142 41.9482 1.62026 43.1656Z" fill="white"/>
<path d="M23.541 43.166C24.0627 42.6443 24.5844 42.1226 24.9323 41.6008L24.9323 41.7747L24.5844 37.9486L24.7584 38.1225L23.8888 37.253L24.0627 37.4269L20.0627 36.7312L19.7148 36.7312L19.541 36.3834L19.0193 35.3399L19.541 35.6878C18.6714 35.6878 17.8018 35.5138 16.9323 35.3399L16.7583 35.3399L16.5844 35.166C16.0627 34.6443 15.1931 34.2964 14.8453 33.253C14.6714 32.7312 14.6714 32.2095 14.8453 31.6877L15.1931 30.6443C15.541 29.253 15.8888 27.8616 16.0627 26.4703C16.2366 25.079 16.2366 23.5138 16.2366 22.1225C16.2366 21.4268 16.2366 20.5573 16.4105 19.6877C16.7584 18.8181 17.2801 18.1225 18.1497 17.6007L18.3236 18.6442C17.8018 18.4703 17.454 18.1225 17.454 17.7746C17.2801 17.2529 17.454 17.079 17.454 16.9051L17.454 15.3399L17.454 14.6442C17.454 14.4703 17.454 13.9485 17.8018 13.6007C18.3236 13.079 19.0192 13.079 19.541 13.079C20.5845 13.079 21.628 13.079 22.4975 12.9051C22.6714 12.9051 23.0192 12.9051 23.1931 12.9051C23.367 12.9051 23.5409 12.7311 23.7148 12.5572C24.0627 12.2094 24.4105 11.8616 24.5844 11.3398C24.4105 11.8616 24.0627 12.2094 23.8888 12.7312C23.7149 12.9051 23.541 13.079 23.3671 13.2529C23.0193 13.4268 22.8454 13.4268 22.4975 13.4268L19.541 13.9485C19.0192 13.9485 18.4975 14.1225 18.3236 14.2964C18.1496 14.2964 18.3236 14.992 18.3236 15.5138L18.3236 17.079C18.3236 17.2529 18.3236 17.6007 18.3236 17.6007L18.4974 17.7746L20.0627 17.9486L18.6714 18.8181C18.3236 19.166 17.8018 19.6877 17.6279 20.2094C17.4539 20.7312 17.454 21.6008 17.454 22.2964C17.454 23.8616 17.454 25.2529 17.2801 26.8182C17.1062 28.3834 16.7583 29.9486 16.2366 31.3399L15.8887 32.3834C15.8887 32.7312 15.7148 32.9051 15.8887 33.0791C16.0626 33.4269 16.5844 33.9486 17.1061 34.4704L16.7583 34.2964C17.6279 34.4704 18.4974 34.4704 19.367 34.6443L19.7148 34.6443L19.8888 34.9921L20.2366 36.0356L19.8888 35.6878L24.0627 36.7312L24.2367 36.7312L24.9323 37.6008L25.1062 37.7747L25.1062 37.9486L25.1062 41.7747C24.7584 42.2965 24.0627 42.8182 23.541 43.166Z" fill="white"/>
</svg>
