<svg width="96" height="123" viewBox="0 0 96 123" fill="none" xmlns="http://www.w3.org/2000/svg">
<path d="M2.1001 122.3L11.7001 86.0996L0.200073 121.9C0.200073 121.9 1.10011 122.1 2.30011 122.3C2.10011 122.3 2.1001 122.3 2.1001 122.3Z" fill="#323232"/>
<path d="M12.1001 86.0996C11.9001 88.7996 11.1001 117.4 10.7001 122.3C12.0001 122.1 12.6001 121.9 12.6001 121.9C12.8001 116.4 11.9001 88.7996 12.1001 86.0996Z" fill="#323232"/>
<path d="M10.4 109L9 122.6H9.40002L10.4 109Z" fill="#323232"/>
<path d="M9.80017 107.2L7.90015 122.7H8.20013L9.80017 107.2Z" fill="#323232"/>
<path d="M9.5 104.899L6.80005 122.699H7.10004L9.5 104.899Z" fill="#323232"/>
<path d="M8.70007 105.1L5.70007 122.7H6.00006L8.70007 105.1Z" fill="#323232"/>
<path d="M7.5 108.2L4.5 122.6H4.90002L7.5 108.2Z" fill="#323232"/>
<path d="M6.40002 109.899L3.5 122.499H3.80005L6.40002 109.899Z" fill="#323232"/>
<path d="M24.4001 12.1996C26.1001 11.0996 27.8002 10.2996 29.6002 9.4996C30.5002 9.0996 31.4002 8.6996 32.3002 8.3996C32.8002 8.1996 33.3002 8.09961 33.8002 8.09961C34.3002 8.09961 34.9001 8.09961 35.2001 8.59961C34.8001 8.29961 34.3001 8.3996 33.9001 8.4996C33.5001 8.5996 33.0002 8.7996 32.6002 8.9996C31.7002 9.3996 30.8001 9.79962 30.0001 10.1996C28.1001 10.9996 26.3001 11.6996 24.4001 12.1996Z" fill="#323232"/>
<path d="M23.7001 15.0998C23.6001 14.0998 23.6001 13.1998 23.5001 12.1998L23.4001 10.7998C23.4001 10.5998 23.4001 10.2998 23.5001 9.99975C23.6001 9.69975 23.8001 9.39976 24.0001 9.19976C24.8001 8.39976 25.6001 8.09976 26.5001 7.59976L29.0001 6.19976L31.6002 4.79977C32.0002 4.59977 32.6001 4.29974 33.2001 4.39974C33.8001 4.49974 34.4001 4.79977 34.7001 5.29977C35.0001 5.79977 35.2001 6.19976 35.4001 6.69976C35.6001 7.19976 35.7001 7.59976 35.9001 8.09976C36.2001 8.99976 36.5001 9.89974 36.7001 10.8997L35.4001 8.29977C35.2001 7.89977 35.0001 7.49975 34.7001 6.99975C34.5001 6.59975 34.3001 6.19974 34.0001 5.89974C33.4001 5.29974 32.8001 5.29977 32.0001 5.79977L29.5001 7.19976L27.0001 8.49975C26.2001 8.89975 25.2002 9.39974 24.6002 9.89974C24.4002 9.99974 24.4002 10.0998 24.3002 10.2998C24.2002 10.4998 24.2001 10.6997 24.2001 10.8997L24.1002 12.2998C23.9002 13.1998 23.8001 14.0998 23.7001 15.0998Z" fill="#323232"/>
<path d="M24.4001 15.4996L27.4001 14.5996C28.4001 14.2996 29.4001 13.9996 30.4001 13.6996C31.4001 13.3996 32.4002 12.9996 33.3002 12.6996L36.2001 11.5996C35.3001 12.1996 34.4001 12.6996 33.4001 13.0996C32.5001 13.5996 31.5001 13.8996 30.5001 14.2996C29.5001 14.5996 28.5001 14.8996 27.4001 15.0996C26.5001 15.2996 25.5001 15.3996 24.4001 15.4996Z" fill="#323232"/>
<path d="M21.6001 5.7998C22.1001 6.0998 22.6001 6.2998 23.1001 6.1998C23.3001 6.0998 23.5001 5.99978 23.7001 5.89978L24.4001 5.39978C25.3001 4.69978 26.2001 4.09979 27.2001 3.49979L28.6001 2.59979C29.1001 2.29979 29.6001 2.0998 30.2001 1.7998C31.3001 1.3998 32.3001 0.999805 33.5001 0.799805C32.6001 1.4998 31.6001 1.99979 30.6001 2.59979C30.1001 2.89979 29.6001 3.19979 29.2001 3.49979L27.8001 4.39978C26.8001 4.99978 25.9001 5.59979 24.9001 6.09979L24.1001 6.49979C23.8001 6.59979 23.5001 6.7998 23.2001 6.7998C22.4001 6.6998 21.9001 6.2998 21.6001 5.7998Z" fill="#323232"/>
<path d="M33.8002 1.09961C34.5002 1.89961 35.1001 2.79961 35.7001 3.59961C36.3001 4.49961 36.8002 5.3996 37.3002 6.3996C38.2002 8.2996 38.9001 10.2996 39.4001 12.3996L39.5001 12.7996L39.1002 12.9996C37.6002 13.7996 36.0001 14.5996 34.4001 15.1996C32.8001 15.7996 31.1001 16.2996 29.4001 16.5996L29.6002 16.3996C29.4002 17.4996 29.1001 18.4996 28.9001 19.5996C28.9001 18.4996 29.0002 17.3996 29.1002 16.2996V16.0996L29.3002 15.9996C30.9002 15.3996 32.5002 14.7996 34.1002 14.1996C35.6002 13.4996 37.1002 12.6996 38.6002 11.8996L38.3002 12.4996C37.8002 10.4996 37.2001 8.49961 36.5001 6.59961C35.7001 4.79961 34.8002 2.89961 33.8002 1.09961Z" fill="#323232"/>
<path d="M19.7001 31.4999C19.9001 29.5999 20.1001 27.7999 20.3001 25.8999C20.5001 23.9999 20.8001 22.1999 21.0001 20.2999C21.2001 18.3999 21.5001 16.5999 21.8001 14.6999C22.1001 12.7999 22.4001 10.9999 22.7001 9.19992V9.29993C22.3001 8.49993 21.8001 7.6999 21.4001 6.8999C21.9001 7.6999 22.4001 8.39992 22.9001 9.19992C22.7001 11.0999 22.5001 12.8999 22.2001 14.7999C21.9001 16.6999 21.7001 18.4999 21.4001 20.3999C21.1001 22.2999 20.9001 24.0999 20.5001 25.9999C20.4001 27.7999 20.1001 29.6999 19.7001 31.4999Z" fill="#323232"/>
<path d="M21.1001 6.2998C20.6001 6.7998 20.0001 7.19979 19.5001 7.59979C19.3001 7.89979 19.2001 8.09979 19.2001 8.49979L19.0001 9.49979C18.8001 10.8998 18.6001 12.1998 18.4001 13.5998C18.2001 14.9998 18.1001 16.2998 18.1001 17.6998C18.1001 19.0998 18.2001 20.3998 18.4001 21.6998V21.7998V21.8998C18.0001 26.0998 17.5001 30.2998 16.9001 34.4998L16.6001 34.1998C18.1001 34.4998 19.6001 34.7998 21.0001 35.0998C19.5001 34.9998 18.0001 34.8998 16.5001 34.7998H16.2001V34.4998C16.4001 30.2998 16.7001 26.0998 17.1001 21.8998V21.9998C16.9001 20.5998 16.9001 19.1998 16.9001 17.7998C16.9001 16.3998 17.1001 14.9998 17.4001 13.5998C17.6001 12.1998 18.0001 10.8998 18.3001 9.49979L18.6001 8.49979C18.7001 8.19979 18.9001 7.79979 19.1001 7.49979C19.9001 6.99979 20.5001 6.6998 21.1001 6.2998Z" fill="#323232"/>
<path d="M21.3 34.4C21.4 33.3 21.5 32.2 21.6 31.1C21.7 30 21.9 28.9 22 27.8C22.3 25.6 22.7 23.5 23.1 21.3L23.2 20.9L23.5 20.8C25.2 20.4 26.9 20.1 28.7 20C27.1 20.8 25.4 21.4 23.7 21.9L24.1 21.5C23.7 23.7 23.4 25.8 22.9 28C22.7 29.1 22.4 30.1 22.2 31.2C21.9 32.3 21.6 33.4 21.3 34.4Z" fill="#323232"/>
<path d="M18.5 31.4C18.7 29 19 26.6 19.3 24.2C19.7 21.8 20 19.4 20.5 17C20.3 19.4 20 21.8 19.7 24.2C19.4 26.6 19 29 18.5 31.4Z" fill="#323232"/>
<path d="M16.6001 35C16.5001 36.8 16.3001 38.5 16.1001 40.3C16.1001 41.9 16.0001 43.5 15.9001 45.1L15.6001 44.7C16.8001 44.9 18.1001 45 19.3001 45.2L18.9001 45.5C19.3001 43.9 19.6001 42.4 20.0001 40.9C20.2001 40 20.3001 39.1 20.5001 38.2C20.7001 37.3 20.8001 36.4 21.1001 35.5C21.1001 36.4 21.0001 37.3 20.9001 38.2C20.8001 39.1 20.7001 40 20.6001 40.9C20.3001 42.5 20.0001 44 19.7001 45.6L19.6001 45.9H19.2001C18.0001 45.7 16.7001 45.6 15.5001 45.4L15.1001 45.3V45C15.2001 43.4 15.3001 41.8 15.5001 40.2C15.9001 38.4 16.3001 36.7 16.6001 35Z" fill="#323232"/>
<path d="M15.2001 70.5999C15.6001 66.4999 16.1001 62.2999 16.5001 58.1999C16.7001 56.0999 16.9001 54.0999 17.3001 51.9999C17.7001 49.9999 18.1001 47.8999 18.7001 45.8999C18.7001 45.8999 18.7001 45.8999 18.8001 45.8999C18.8001 45.8999 18.8001 45.8999 18.8001 45.9999C18.8001 48.0999 18.7001 50.1999 18.4001 52.1999C18.2001 54.2999 17.8001 56.2999 17.4001 58.3999C16.7001 62.4999 16.0001 66.5999 15.3001 70.6999C15.3001 70.5999 15.2001 70.5999 15.2001 70.5999Z" fill="#323232"/>
<path d="M16.1 45.5C15.7 49.6 15.2 53.8 14.8 57.9C14.6 60 14.4 62 14 64.1C13.6 66.1 13.2 68.2 12.6 70.2H12.5C12.5 68.1 12.6 66 12.9 64C13.1 61.9 13.5 59.9 13.9 57.8C14.6 53.7 15.3 49.6 16 45.5H16.1Z" fill="#323232"/>
<path d="M16.4001 40.2998C17.0001 40.1998 17.6002 40.2998 18.1002 40.2998C18.7002 40.3998 19.2002 40.4998 19.8002 40.6998C19.2002 40.7998 18.6002 40.6998 18.1002 40.6998C17.5002 40.5998 17.0001 40.4998 16.4001 40.2998Z" fill="#323232"/>
<path d="M15.1001 70.8999C14.4001 70.8999 13.6001 70.7999 12.9001 70.6999H12.6001C12.5001 70.6999 12.5001 70.6999 12.4001 70.6999C12.3001 70.6999 12.2001 70.8999 12.2001 70.9999L12.1001 72.0999L11.5001 76.4999C11.3001 77.9999 11.1001 79.3999 10.8001 80.8999L10.4001 83.0999C10.3001 83.4999 10.3001 83.8999 10.2001 84.1999C10.2001 84.2999 10.2001 84.3999 10.2001 84.2999C10.1001 84.1999 10.1001 84.2999 10.3001 84.2999L12.5001 84.5999L13.6001 84.7999H13.9001C14.0001 84.7999 13.9001 84.7999 13.8001 84.7999C13.6001 84.9999 13.8001 84.7999 13.8001 84.6999C13.9001 84.3999 13.9001 83.9999 13.9001 83.6999L14.0001 82.5999C14.1001 81.8999 14.1001 81.0999 14.2001 80.3999L14.9001 75.9999C15.2001 74.4999 15.4001 73.0999 15.7001 71.5999C15.7001 73.0999 15.6001 74.5999 15.5001 75.9999L15.2001 80.3999L15.1001 82.5999V83.6999C15.1001 84.0999 15.1001 84.3999 15.0001 84.8999C15.0001 84.9999 15.0001 85.0999 14.9001 85.2999C14.9001 85.3999 14.8001 85.5999 14.5001 85.7999C14.2001 85.9999 14.0001 85.8999 13.9001 85.8999H13.6001L12.5001 85.7999L10.3001 85.4999C10.2001 85.4999 9.80009 85.4999 9.40009 85.0999C9.10009 84.6999 9.20008 84.2999 9.20008 84.0999C9.30008 83.6999 9.40009 83.3999 9.40009 82.9999L9.80011 80.8999L10.7001 76.5999L11.6001 72.2999L11.9001 71.1999C12.0001 70.9999 12.2001 70.7999 12.4001 70.6999C12.5001 70.6999 12.6001 70.6999 12.8001 70.6999L13.1001 70.7999C13.7001 70.5999 14.4001 70.6999 15.1001 70.8999Z" fill="#323232"/>
<path d="M11.2001 79.0996C11.7001 78.9996 12.2001 79.0996 12.7001 79.0996C13.2001 79.1996 13.7001 79.2996 14.1001 79.4996C13.6001 79.5996 13.1001 79.4996 12.6001 79.4996C12.2001 79.3996 11.7001 79.2996 11.2001 79.0996Z" fill="#323232"/>
<path d="M67.8002 54.1002C69.3002 52.2002 70.9001 50.5002 72.5001 48.8002L73.1002 48.2002L73.3002 49.0002C73.8002 51.2002 74.3002 53.3002 74.8002 55.5002L74.9001 55.8002L74.6002 55.9002C72.8002 56.9002 71.0002 57.8002 69.1002 58.6002C70.7002 57.4002 72.4002 56.2002 74.1002 55.1002L73.9001 55.6002C73.3001 53.4002 72.8001 51.3002 72.4001 49.1002L73.2001 49.3002C71.4001 51.0002 69.6002 52.6002 67.8002 54.1002Z" fill="#323232"/>
<path d="M77.8002 58.2998C78.4002 60.5998 78.9002 62.8998 79.4002 65.0998C79.6002 66.1998 79.9002 67.3998 80.1002 68.4998C80.3002 69.5998 80.5002 70.7998 80.7002 71.8998V71.9998C80.8002 74.8998 80.8002 77.7998 80.7002 80.5998L80.6002 84.8998C80.6002 86.2998 80.5002 87.7998 80.5002 89.1998V89.3998L80.4002 89.5998C79.8002 90.9998 79.3002 92.4998 78.7002 93.8998C78.2002 95.3998 77.7002 96.7998 77.3002 98.2998C76.9002 99.7998 76.5002 101.3 76.1002 102.8C75.7002 104.3 75.5002 105.9 75.2002 107.4C75.2002 105.8 75.2002 104.2 75.4002 102.7C75.6002 101.1 75.8002 99.5998 76.1002 97.9998C76.4002 96.3998 76.8002 94.8998 77.2002 93.3998C77.6002 91.8998 78.1002 90.3998 78.7002 88.8998L78.6002 89.2998C78.6002 87.8998 78.6002 86.3998 78.6002 84.9998V80.6998C78.6002 77.7998 78.7002 74.8998 78.8002 72.0998V72.1998C78.7002 70.9998 78.6002 69.8998 78.4002 68.6998C78.3002 67.4998 78.2002 66.3998 78.1002 65.1998C78.1002 62.9998 77.9002 60.6998 77.8002 58.2998Z" fill="#323232"/>
<path d="M41.0001 58.2998C40.9001 60.5998 40.8002 62.9998 40.6002 65.2998C40.5002 66.4998 40.4002 67.5998 40.3002 68.7998C40.2002 69.9998 40.1001 71.0998 39.9001 72.2998V72.1998C40.0001 75.0998 40.1002 77.9998 40.1002 80.7998V85.0998C40.1002 86.4998 40.1002 87.9998 40.1002 89.3998L40.0001 88.9998C40.6001 90.4998 41.1001 91.9998 41.5001 93.4998C41.9001 94.9998 42.3002 96.4998 42.6002 98.0998C42.9002 99.5998 43.1002 101.2 43.3002 102.7C43.5002 104.2 43.5001 105.8 43.5001 107.4C43.2001 105.9 43.0002 104.4 42.6002 102.9C42.3002 101.4 41.9001 99.8998 41.4001 98.4998C41.0001 96.9998 40.5001 95.5998 40.0001 94.0998C39.5001 92.6998 38.9002 91.1998 38.3002 89.8998L38.2001 89.6998V89.4998C38.1001 88.0998 38.1002 86.5998 38.1002 85.1998L38.0001 80.8998C38.0001 77.9998 38.0001 75.0998 38.0001 72.2998V72.1998C38.2001 70.9998 38.4002 69.8998 38.6002 68.7998C38.8002 67.6998 39.1002 66.4998 39.3002 65.3998C39.9002 62.8998 40.4001 60.5998 41.0001 58.2998Z" fill="#323232"/>
<path d="M80.5001 90.1001C81.6001 92.1001 82.3001 94.4001 82.6001 96.7001C83.0001 99.0001 82.7001 101.4 82.4001 103.7C82.1001 106 81.8001 108.2 81.4001 110.5C81.0001 112.8 80.6001 115 80.2001 117.2L80.1001 117.6L79.8001 117.8C77.8001 119.4 75.7001 120.9 73.6001 122.4L73.4001 122.5H73.2001C71.2001 122.6 69.3001 122.8 67.3001 122.8H67.1001L67.0001 122.7C66.5001 122 66.1001 121.4 65.6001 120.7C66.2001 121.3 66.8001 121.8 67.4001 122.4L67.2001 122.3C69.1001 121.9 71.1001 121.5 73.0001 121.1L72.6001 121.3C74.5001 119.6 76.4001 117.9 78.4001 116.2L78.1001 116.8C78.5001 114.6 78.8001 112.3 79.2001 110.1L80.4001 103.4C80.6001 102.3 80.8001 101.2 81.0001 100.1C81.1001 99.0001 81.2001 97.9001 81.2001 96.8001C81.4001 94.6001 81.1001 92.3001 80.5001 90.1001Z" fill="#323232"/>
<path d="M82.5001 93.7998C83.2001 94.9998 83.9002 96.2998 84.6002 97.5998V97.6998C84.8002 100.7 84.9001 103.6 85.0001 106.6C85.0001 108.1 85.0001 109.6 85.0001 111C85.0001 112.5 84.9001 114 84.9001 115.4V115.6L84.8002 115.7C84.0002 116.9 83.3001 118.1 82.5001 119.3L82.3002 119.5H82.1002C80.7002 119.4 79.3001 119.3 77.9001 119.1C79.3001 118.9 80.7002 118.8 82.1002 118.7L81.7001 118.9C82.3001 117.6 83.0002 116.3 83.6002 115L83.5001 115.3C83.5001 113.8 83.4001 112.3 83.4001 110.9C83.4001 109.4 83.4001 107.9 83.4001 106.5C83.4001 103.5 83.5002 100.6 83.8002 97.5998V97.7998C83.3002 96.5998 82.9001 95.1998 82.5001 93.7998Z" fill="#323232"/>
<path d="M76.2001 83.7998C75.5001 86.6998 74.5001 89.4998 73.4001 92.2998C72.2001 95.0998 71.0001 97.7998 69.4001 100.3C70.1001 97.3998 71.1001 94.5998 72.2001 91.7998C73.4001 89.0998 74.6001 86.3998 76.2001 83.7998Z" fill="#323232"/>
<path d="M62.5001 80.8999C61.8001 81.6999 60.8002 82.1999 59.8002 82.2999C58.7002 82.3999 57.6001 82.1999 56.7001 81.5999C55.8001 80.9999 55.1002 80.0999 54.8002 78.9999C54.5002 77.8999 54.6001 76.7999 55.0001 75.7999C55.4001 74.7999 56.2001 73.8999 57.2001 73.3999C58.2001 72.8999 59.3002 72.7999 60.4002 72.9999C61.5002 73.2999 62.4001 73.8999 63.0001 74.6999C63.6001 75.5999 63.9002 76.5999 63.9002 77.5999C63.8002 75.5999 62.2002 73.7999 60.3002 73.4999C58.4002 73.1999 56.4001 74.1999 55.7001 75.9999C54.9001 77.6999 55.5002 79.8999 57.1002 80.9999C58.6002 82.1999 60.9001 82.1999 62.5001 80.8999Z" fill="#323232"/>
<path d="M58.4001 81.0999C58.3001 78.9999 58.4 76.8999 58.5 74.7999V74.3999H58.9001H59.8001H60.1001V74.6999C60.3001 76.7999 60.5 78.8999 60.5 80.9999C60 78.8999 59.6001 76.7999 59.4001 74.6999L59.8001 74.9999H58.9001L59.3001 74.5999C59.1001 76.9999 58.9001 79.0999 58.4001 81.0999Z" fill="#323232"/>
<path d="M41.1001 57.6001C42.2001 58.1001 43.2001 58.6001 44.2001 59.2001H44.1001C47.1001 60.0001 50.0001 60.8001 52.9001 61.7001H52.7001C57.2001 61.6001 61.7001 61.6001 66.2001 61.7001H66.0001C68.9001 60.8001 71.8001 59.9001 74.8001 59.2001H74.7001C75.7001 58.7001 76.8001 58.1001 77.8001 57.6001C76.9001 58.3001 75.9001 59.0001 75.0001 59.7001C72.2001 60.9001 69.3001 62.0001 66.5001 63.0001H66.4001H66.3001C61.8001 63.1001 57.3001 63.1001 52.8001 63.0001H52.7001H52.6001C49.7001 62.0001 46.9001 60.9001 44.1001 59.7001C43.0001 59.0001 42.0001 58.3001 41.1001 57.6001Z" fill="#323232"/>
<path d="M51.1001 54.0998C49.2001 52.5998 47.5001 50.9998 45.8001 49.3998L46.6001 49.1998C46.1001 51.3998 45.7001 53.5998 45.1001 55.6998L44.9001 55.1998C46.6001 56.2998 48.3001 57.3998 49.9001 58.6998C48.0001 57.8998 46.2001 56.8998 44.4001 55.9998L44.1001 55.8998L44.2001 55.5998C44.6001 53.3998 45.1001 51.1998 45.7001 49.0998L45.9001 48.2998L46.5001 48.8998C48.0001 50.4998 49.6001 52.1998 51.1001 54.0998Z" fill="#323232"/>
<path d="M54.1001 53.1001C55.9001 52.7001 57.7001 52.6001 59.5001 52.6001C61.3001 52.6001 63.1001 52.7001 64.9001 53.1001C63.1001 53.5001 61.3001 53.6001 59.5001 53.6001C57.7001 53.6001 55.9001 53.5001 54.1001 53.1001Z" fill="#323232"/>
<path d="M49.7002 4.6998C51.3002 4.4998 52.9002 4.49978 54.6002 4.39978C56.2002 4.29978 57.8002 4.2998 59.5002 4.2998C61.1002 4.2998 62.7002 4.29978 64.4002 4.39978C66.0002 4.49978 67.6002 4.4998 69.3002 4.6998C67.7002 4.8998 66.1002 4.89979 64.4002 4.99979C62.8002 5.09979 61.2002 5.09979 59.5002 5.09979C57.9002 5.09979 56.3002 5.09979 54.6002 4.99979C52.9002 4.89979 51.3002 4.8998 49.7002 4.6998Z" fill="#323232"/>
<path d="M69.7001 8.89999C69.6001 7.29999 69.4002 5.6 69.3002 4V3.70001H69.7001L72.9001 3.5H73.2001L73.4001 3.80002C74.6001 6.20002 75.9001 8.6 77.0001 11C78.2001 13.4 79.3001 15.9 80.5001 18.3L80.6002 18.5V18.8L79.7001 26.1L78.7001 33.4C78.3001 35.8 78.0002 38.3 77.6002 40.7C77.2002 43.1 76.8001 45.6 76.4001 48V47.8C76.7001 50.8 77.1002 53.8 77.3002 56.8C76.6002 53.9 75.9002 51 75.3002 48V47.9V47.8C75.5002 45.3 75.7001 42.9 76.0001 40.4C76.2001 37.9 76.5002 35.5 76.8002 33L77.7001 25.7L78.7001 18.4L78.8002 18.9C77.7002 16.4 76.6002 14 75.6002 11.5C74.5002 9 73.5001 6.5 72.5001 4L73.0001 4.30002L69.8002 4.10001L70.2001 3.70001C70.0001 5.60001 69.8001 7.29999 69.7001 8.89999Z" fill="#323232"/>
<path d="M48.4001 11.2998C47.6001 14.1998 46.8001 17.0998 45.9001 19.8998V19.7998C46.6001 23.4998 47.2001 27.2998 47.9001 30.9998C48.6001 34.6998 49.2002 38.4998 49.8002 42.1998L49.6002 41.8998L53.5001 46.5998L52.9001 46.2998H59.3002V47.8998V46.2998H65.7001L65.1002 46.5998L69.0001 41.8998L68.8002 42.1998C69.4002 38.3998 70.0001 34.6998 70.7001 30.9998C71.4001 27.2998 72.0001 23.4998 72.7001 19.7998V19.8998C71.9001 16.9998 71.0001 14.1998 70.2001 11.2998C71.3001 14.0998 72.2002 16.8998 73.3002 19.6998V19.7998V19.8998C72.8002 23.6998 72.3002 27.3998 71.8002 31.1998C71.3002 34.9998 70.7001 38.6998 70.2001 42.4998V42.6998L70.1002 42.8998L66.3002 47.5998L66.1002 47.8998H65.7001H59.3002V46.2998V47.8998H52.9001H52.5001L52.3002 47.5998L48.5001 42.8998L48.4001 42.6998V42.4998C47.8001 38.6998 47.3002 34.9998 46.8002 31.1998C46.3002 27.3998 45.7002 23.6998 45.3002 19.8998V19.7998V19.6998C46.4002 16.8998 47.4001 14.0998 48.4001 11.2998Z" fill="#323232"/>
<path d="M41.4001 56.9001C41.6001 53.9001 42.0001 50.9001 42.3001 47.9001V48.1001C41.9001 45.7001 41.5001 43.2001 41.1001 40.8001C40.7001 38.4001 40.4001 35.9001 40.0001 33.5001L39.0001 26.2001L38.1001 18.9001V18.6001L38.2001 18.4001C39.4001 16.0001 40.5001 13.5001 41.7001 11.1001C42.9001 8.7001 44.1001 6.30009 45.3001 3.90009L45.5001 3.6001H45.8001L49.1001 3.80011H49.5001V4.1001C49.4001 5.7001 49.3001 7.40009 49.1001 9.00009C49.0001 7.40009 48.8001 5.7001 48.7001 4.1001L49.1001 4.50009L45.8001 4.7001L46.3001 4.40009C45.3001 6.90009 44.3001 9.40009 43.2001 11.9001C42.2001 14.4001 41.1001 16.9001 40.0001 19.3001L40.1001 18.8001L41.1001 26.1001L42.0001 33.4001C42.3001 35.9001 42.5001 38.3001 42.8001 40.8001C43.0001 43.3001 43.3001 45.7001 43.5001 48.2001V48.3001V48.4001C42.8001 51.1001 42.2001 54.0001 41.4001 56.9001Z" fill="#323232"/>
<path d="M38.4002 90.1001C37.8002 92.3001 37.5001 94.6001 37.5001 96.8001C37.5001 97.9001 37.6002 99.0001 37.7002 100.1C37.9002 101.2 38.1002 102.3 38.3002 103.4L39.5001 110.1C39.9001 112.3 40.3002 114.6 40.6002 116.8L40.3002 116.2L43.2002 118.7C44.2002 119.6 45.1002 120.4 46.1002 121.3L45.8002 121.2C47.7002 121.6 49.7002 121.9 51.6002 122.4L51.4002 122.5C51.9002 121.9 52.5002 121.3 53.1002 120.7C52.7002 121.4 52.2002 122.1 51.8002 122.8L51.7002 122.9H51.5001C49.5001 122.8 47.5002 122.7 45.6002 122.6H45.4002L45.2002 122.5C44.2002 121.8 43.1002 121 42.1002 120.2L39.0001 117.9L38.7002 117.7L38.6002 117.3C38.1002 115.1 37.7002 112.8 37.4002 110.6C37.0002 108.4 36.7002 106.1 36.4002 103.8C36.1002 101.6 35.9002 99.2001 36.2002 96.8001C36.6002 94.4001 37.3002 92.1001 38.4002 90.1001Z" fill="#323232"/>
<path d="M36.4001 93.7998C36.0001 95.1998 35.6002 96.5998 35.1002 97.8998V97.6998C35.3002 100.7 35.4001 103.6 35.5001 106.6C35.5001 108.1 35.5001 109.6 35.5001 111C35.5001 112.5 35.4001 114 35.4001 115.4L35.3002 115.1C35.9002 116.4 36.6001 117.7 37.2001 119L36.8002 118.8C38.2002 118.9 39.6001 119 41.0001 119.2C39.6001 119.4 38.2002 119.5 36.8002 119.6H36.6002L36.4001 119.4C35.6001 118.2 34.8002 117 34.1002 115.8L34.0001 115.7V115.5C34.0001 114 33.9001 112.5 33.9001 111.1C33.9001 109.6 33.9001 108.1 33.9001 106.7C33.9001 103.7 34.0002 100.8 34.3002 97.7998V97.6998C35.0002 96.2998 35.7001 94.9998 36.4001 93.7998Z" fill="#323232"/>
<path d="M42.7002 83.7998C44.3002 86.3998 45.5002 89.0998 46.7002 91.7998C47.8002 94.5998 48.9002 97.3998 49.5002 100.3C47.9002 97.6998 46.7002 94.9998 45.5002 92.2998C44.4002 89.4998 43.4002 86.6998 42.7002 83.7998Z" fill="#323232"/>
<path d="M54.4001 89.3999C53.0001 87.5999 51.6002 85.7999 50.3002 83.9999C48.9002 82.1999 47.6001 80.2999 46.2001 78.4999L46.1002 78.3999V78.1999L46.0001 73.3999V73.0999L46.3002 72.8999L52.1002 68.9999L52.3002 68.8999H52.5001H59.4001H66.3002H66.5001L66.7001 68.9999L72.5001 72.8999L72.8002 73.0999V73.3999L72.7001 78.1999V78.3999L72.6002 78.4999C71.2002 80.2999 69.9001 82.1999 68.5001 83.9999C67.1001 85.7999 65.8001 87.5999 64.4001 89.3999C65.6001 87.3999 66.8001 85.4999 68.0001 83.5999C69.2001 81.6999 70.5001 79.7999 71.7001 77.8999L71.6002 78.1999L71.5001 73.3999L71.8002 73.9999L65.9001 70.2999L66.3002 70.3999H59.4001H52.5001L52.9001 70.2999L47.0001 73.9999L47.3002 73.4999L47.2001 78.2999L47.1002 77.9999C48.3002 79.8999 49.6002 81.7999 50.8002 83.6999C52.0002 85.5999 53.2001 87.4999 54.4001 89.3999Z" fill="#323232"/>
<path d="M59.4002 116.5C58.4002 116.6 57.3002 116.5 56.3002 116.3C55.3002 116.1 54.3002 115.9 53.3002 115.6H53.2002L53.1002 115.5C52.8002 114.8 52.5002 114.1 52.1002 113.4C51.8002 112.7 51.4002 112 51.2002 111.2L49.8002 106.7L49.7002 106.4L50.0002 106.2L54.8002 101.9L55.0002 101.8H55.2002C58.0002 101.8 60.7002 101.8 63.5002 101.8H63.7002L63.9002 101.9L68.7002 106.2L69.0002 106.4L68.9002 106.7L67.5002 111.2C67.3002 112 67.0002 112.7 66.6002 113.4L65.6002 115.5L65.5002 115.6H65.4002C64.4002 115.9 63.4002 116.1 62.4002 116.3C61.5002 116.5 60.5002 116.5 59.4002 116.5C61.4002 116.3 63.4002 115.8 65.3002 115L65.1002 115.2L65.9002 113C66.2002 112.3 66.5002 111.6 66.6002 110.8L67.8002 106.3L68.0002 106.8L63.1002 102.6L63.5002 102.7C60.7002 102.7 58.0002 102.7 55.2002 102.7L55.6002 102.6L50.7002 106.8L50.9002 106.3L52.1002 110.8C52.3002 111.6 52.6002 112.3 52.8002 113C53.1002 113.7 53.4002 114.4 53.6002 115.2L53.4002 115.1C55.4002 115.8 57.4002 116.3 59.4002 116.5Z" fill="#323232"/>
<path d="M54.4001 90.7998C54.6001 93.7998 54.7002 96.7998 54.8002 99.7998V99.9998L54.7001 100.1L48.6002 106L48.8002 105.5C49.3002 108 49.9002 110.5 50.8002 112.9C51.2002 114.1 51.7002 115.3 52.3002 116.4C52.9002 117.5 53.5001 118.7 54.2001 119.7L53.6002 119.4C57.6002 119.4 61.6002 119.4 65.6002 119.4L65.0001 119.7C65.7001 118.7 66.3001 117.5 66.9001 116.4C67.5001 115.3 68.0001 114.1 68.4001 112.9C69.2001 110.5 69.9001 108 70.4001 105.5L70.6002 106L64.5001 100.1L64.4001 99.9998V99.7998C64.5001 96.7998 64.6002 93.7998 64.8002 90.7998C65.0002 93.7998 65.1001 96.7998 65.2001 99.7998L65.1002 99.4998L71.5001 105.2L71.7001 105.4V105.7C71.3001 108.3 70.8001 110.9 69.9001 113.4C69.5001 114.7 69.0001 115.9 68.4001 117.1C67.8001 118.3 67.2001 119.5 66.4001 120.6L66.2001 120.9H65.8002C61.8002 120.9 57.8002 120.9 53.8002 120.9H53.4001L53.2001 120.6C52.4001 119.4 51.8001 118.3 51.2001 117.1C50.6001 115.9 50.1001 114.7 49.7001 113.4C48.8001 110.9 48.3001 108.3 47.9001 105.7V105.4L48.1002 105.2L54.5001 99.4998L54.4001 99.7998C54.2001 96.6998 54.2001 93.6998 54.4001 90.7998Z" fill="#323232"/>
<path d="M49.6001 7.89999C51.2001 7.69999 52.9001 7.70001 54.5001 7.60001C56.1001 7.50001 57.8001 7.5 59.4001 7.5V8.30002V7.5C61.0001 7.5 62.7001 7.50001 64.3001 7.60001C65.9001 7.70001 67.6001 7.69999 69.2001 7.89999C67.6001 8.09999 65.9001 8.10001 64.3001 8.20001C62.7001 8.30001 61.0001 8.30002 59.4001 8.30002V7.5V8.30002C57.8001 8.30002 56.1001 8.30001 54.5001 8.20001C52.9001 8.10001 51.2001 8.09999 49.6001 7.89999Z" fill="#323232"/>
<path d="M66.1002 67.8999C66.1002 65.5999 66.1001 63.1999 66.0001 60.8999L65.8002 53.8999V53.7999L68.3002 48.1999L73.5001 42.7999L73.4001 42.8999L75.2001 30.8999C75.8001 26.8999 76.5001 22.8999 77.2001 18.8999C76.7001 22.8999 76.2002 26.8999 75.6002 30.8999L73.9001 42.8999V42.9999L73.8002 43.0999L68.5001 48.3999V48.2999L65.9001 53.7999V53.6999V60.6999C66.3001 63.1999 66.2002 65.5999 66.1002 67.8999Z" fill="#323232"/>
<path d="M52.8002 67.9001C52.7002 65.6001 52.6002 63.2001 52.6002 60.9001V53.9001V54.0001L50.0001 48.5001V48.6001L44.7001 43.3001L44.6002 43.2001V43.1001L42.9001 31.1001C42.3001 27.1001 41.8002 23.1001 41.3002 19.1001C42.0002 23.1001 42.6002 27.1001 43.3002 31.1001L45.1002 43.1001L45.0001 43.0001L50.2001 48.4001L52.8002 54.0001V54.1001L52.6002 61.1001C52.8002 63.2001 52.9002 65.6001 52.8002 67.9001Z" fill="#323232"/>
<path d="M51.3002 74C51.6002 75.3 51.8001 76.7 52.0001 78C52.2001 79.3 52.4002 80.7 52.6002 82L52.4001 81.7C53.5001 82.6 54.6001 83.6 55.7001 84.5L55.3002 84.4H59.4001V85.6V84.4H63.5001L63.1002 84.5C64.2002 83.6 65.3001 82.6 66.4001 81.7L66.2001 82C66.4001 80.7 66.6002 79.3 66.8002 78C67.0002 76.7 67.2001 75.3 67.5001 74C67.5001 75.4 67.4001 76.7 67.4001 78.1C67.3001 79.4 67.3001 80.8 67.2001 82.1V82.3L67.1002 82.4C66.1002 83.4 65.0001 84.4 63.9001 85.4L63.7001 85.5H63.5001H59.4001V84.3V85.5H55.3002H55.1002L54.9001 85.4C53.8001 84.4 52.8001 83.4 51.7001 82.4L51.6002 82.3V82.1C51.5002 80.8 51.4001 79.4 51.4001 78.1C51.4001 76.7 51.3002 75.4 51.3002 74Z" fill="#323232"/>
<path d="M65.8002 108.8C65.4002 109.5 64.4002 109.8 63.6002 109.3C62.8002 108.9 62.4002 107.8 62.8002 106.9C63.0002 106.5 63.3002 106.1 63.7002 105.9C64.1002 105.7 64.6002 105.6 65.0002 105.8C65.4002 105.9 65.8002 106.2 66.0002 106.5C66.2002 106.9 66.3002 107.3 66.2002 107.7C66.1002 106.9 65.4002 106.4 64.8002 106.4C64.2002 106.3 63.6002 106.7 63.4002 107.3C63.2002 107.8 63.4002 108.5 63.9002 108.9C64.4002 109.2 65.2002 109.2 65.8002 108.8Z" fill="#323232"/>
<path d="M55.4002 108.8C55.0002 109.5 54.0002 109.7 53.2002 109.3C52.8002 109.1 52.5002 108.7 52.4002 108.3C52.3002 107.9 52.3002 107.4 52.4002 107C52.6002 106.6 52.9002 106.2 53.3002 106C53.7002 105.8 54.2002 105.7 54.6002 105.9C55.0002 106 55.4002 106.3 55.6002 106.6C55.8002 107 55.9002 107.4 55.8002 107.8C55.7002 107 55.0002 106.5 54.4002 106.5C53.8002 106.4 53.2002 106.8 53.0002 107.3C52.8002 107.8 52.9002 108.5 53.4002 108.9C54.0002 109.2 54.8002 109.2 55.4002 108.8Z" fill="#323232"/>
<path d="M61.4002 105.5C61.6002 106.7 61.7002 107.9 61.7002 109.1V109.4H61.4002C60.1002 109.5 58.8002 109.5 57.5002 109.4H57.2002V109.1C57.2002 107.9 57.3002 106.7 57.5002 105.5C57.7002 106.7 57.8002 107.9 57.8002 109.1L57.5002 108.8C58.8002 108.7 60.1002 108.7 61.4002 108.8L61.1002 109.1C61.1002 107.9 61.2002 106.7 61.4002 105.5Z" fill="#323232"/>
<path d="M80.2002 27.9999C80.7002 27.9999 81.2002 27.8999 81.6002 27.8999H81.7002V27.9999C82.7002 30.6999 83.5002 33.2999 84.3002 35.9999V36.0999V36.1999C84.3002 37.3999 84.4002 38.5999 84.4002 39.7999C84.4002 40.9999 84.4002 42.1999 84.4002 43.3999V43.9999H83.8002H81.1002H80.5002V43.3999C80.5002 41.1999 80.6002 38.9999 80.7002 36.6999V36.7999C80.5002 35.8999 80.3002 34.8999 80.2002 33.9999C80.0002 33.0999 79.9002 32.0999 79.7002 31.1999C80.0002 32.0999 80.3002 32.9999 80.6002 33.8999C80.9002 34.7999 81.2002 35.6999 81.4002 36.5999V36.6999C81.5002 38.8999 81.6002 41.0999 81.6002 43.3999L81.0002 42.7999H83.7002L83.1002 43.3999C83.1002 42.1999 83.1002 40.9999 83.1002 39.7999C83.1002 38.5999 83.1002 37.3999 83.2002 36.1999V36.2999C82.5002 33.5999 81.9002 30.7999 81.4002 27.9999L81.5002 28.0999C81.2002 28.0999 80.7002 28.0999 80.2002 27.9999Z" fill="#323232"/>
<path d="M88.9001 38.5998C89.8001 38.2998 90.7002 38.1998 91.6002 37.9998C92.1002 37.9998 92.5001 37.8998 93.0001 37.8998C93.5001 37.8998 93.9001 37.7998 94.4001 37.7998H95.2001V38.5998C95.2001 39.7998 95.2001 41.0998 95.2001 42.2998V43.0998H94.4001C92.8001 43.0998 91.2002 42.9998 89.6002 42.8998C88.0002 42.7998 86.4002 42.5998 84.8002 42.2998C86.4002 41.9998 88.0002 41.8998 89.6002 41.6998C91.2002 41.5998 92.8001 41.4998 94.4001 41.4998L93.6002 42.2998C93.6002 41.0998 93.6002 39.7998 93.6002 38.5998L94.4001 39.3998C93.9001 39.3998 93.5001 39.3998 93.0001 39.2998C92.5001 39.2998 92.1002 39.1998 91.6002 39.1998C90.7002 38.9998 89.8001 38.8998 88.9001 38.5998Z" fill="#323232"/>
<path d="M68.8002 39.4001L67.4001 40.4001V15.6001L68.8002 16.6001V39.4001Z" fill="#323232"/>
<path d="M50.0001 16.6001L51.4001 15.6001V40.4001L50.0001 39.4001V16.6001Z" fill="#323232"/>
<path d="M64.9001 18.2001C65.5001 19.5001 65.8001 20.8001 66.0001 22.1001C66.3001 23.4001 66.2002 24.8001 66.3002 26.1001C66.4002 28.8001 66.5002 31.4001 66.6002 34.1001H66.4001C65.9001 31.5001 65.4001 28.8001 65.0001 26.2001C64.8001 24.9001 64.5001 23.6001 64.4001 22.2001C64.4001 20.9001 64.4001 19.5001 64.7001 18.1001L64.9001 18.2001Z" fill="#323232"/>
<path d="M65.0001 38.2001C64.4001 36.8001 64.1001 35.4001 63.9001 34.0001C63.6001 32.6001 63.7002 31.1001 63.6002 29.7001C63.5002 26.8001 63.4002 24.0001 63.3002 21.1001H63.5001C64.0001 23.9001 64.5001 26.7001 64.9001 29.6001C65.1001 31.0001 65.4001 32.4001 65.5001 33.8001C65.5001 35.2001 65.5001 36.7001 65.2001 38.1001L65.0001 38.2001Z" fill="#323232"/>
<path d="M61.3002 18.2001C61.9002 19.5001 62.2001 20.8001 62.4001 22.1001C62.7001 23.4001 62.6001 24.8001 62.7001 26.1001C62.8001 28.8001 62.9001 31.4001 63.0001 34.1001H62.8002C62.3002 31.5001 61.8001 28.8001 61.4001 26.2001C61.2001 24.9001 60.9002 23.6001 60.8002 22.2001C60.8002 20.9001 60.8002 19.5001 61.1002 18.1001L61.3002 18.2001Z" fill="#323232"/>
<path d="M61.3001 38.2001C60.7001 36.8001 60.4001 35.4001 60.2001 34.0001C59.9001 32.6001 60.0001 31.1001 59.9001 29.7001C59.8001 26.8001 59.7001 24.0001 59.6001 21.1001H59.8001C60.3001 23.9001 60.8001 26.7001 61.2001 29.6001C61.4001 31.0001 61.7001 32.4001 61.8001 33.8001C61.8001 35.2001 61.8001 36.7001 61.5001 38.1001L61.3001 38.2001Z" fill="#323232"/>
<path d="M57.7002 18.2001C58.3002 19.5001 58.6002 20.8001 58.8002 22.1001C59.1002 23.4001 59.0002 24.8001 59.1002 26.1001C59.2002 28.8001 59.3002 31.4001 59.4002 34.1001H59.2002C58.7002 31.5001 58.2002 28.8001 57.8002 26.2001C57.6002 24.9001 57.3002 23.6001 57.2002 22.2001C57.2002 20.9001 57.2002 19.5001 57.5002 18.1001L57.7002 18.2001Z" fill="#323232"/>
<path d="M57.7001 38.2001C57.1001 36.8001 56.8002 35.4001 56.6002 34.0001C56.3002 32.6001 56.4002 31.1001 56.3002 29.7001C56.2002 26.8001 56.1001 24.0001 56.0001 21.1001H56.2001C56.7001 23.9001 57.2002 26.7001 57.6002 29.6001C57.8002 31.0001 58.1001 32.4001 58.2001 33.8001C58.2001 35.2001 58.2001 36.7001 57.9001 38.1001L57.7001 38.2001Z" fill="#323232"/>
<path d="M54.0001 18.2001C54.6001 19.5001 54.9002 20.8001 55.1002 22.1001C55.4002 23.4001 55.3001 24.8001 55.4001 26.1001C55.5001 28.8001 55.6001 31.4001 55.7001 34.1001H55.5001C55.0001 31.5001 54.5002 28.8001 54.1002 26.2001C53.9002 24.9001 53.6001 23.6001 53.5001 22.2001C53.5001 20.9001 53.5002 19.5001 53.8002 18.1001L54.0001 18.2001Z" fill="#323232"/>
<path d="M54.1002 38.2001C53.5002 36.8001 53.2001 35.4001 53.0001 34.0001C52.7001 32.6001 52.8001 31.1001 52.7001 29.7001C52.6001 26.8001 52.5001 24.0001 52.4001 21.1001H52.6002C53.1002 23.9001 53.6001 26.7001 54.0001 29.6001C54.2001 31.0001 54.5002 32.4001 54.6002 33.8001C54.6002 35.2001 54.6002 36.7001 54.3002 38.1001L54.1002 38.2001Z" fill="#323232"/>
</svg>
