<svg width="43" height="43" viewBox="0 0 43 43" fill="none" xmlns="http://www.w3.org/2000/svg">
<g clip-path="url(#clip0)">
<path d="M33.98 0H8.87C3.97123 0 0 3.97123 0 8.87V33.98C0 38.8788 3.97123 42.85 8.87 42.85H33.98C38.8788 42.85 42.85 38.8788 42.85 33.98V8.87C42.85 3.97123 38.8788 0 33.98 0Z" fill="url(#paint0_linear)"/>
<path d="M33.98 0H8.87C3.97123 0 0 3.97123 0 8.87V33.98C0 38.8788 3.97123 42.85 8.87 42.85H33.98C38.8788 42.85 42.85 38.8788 42.85 33.98V8.87C42.85 3.97123 38.8788 0 33.98 0Z" fill="#F07D00"/>
<path d="M13.2505 22.8726C12.5556 24.1869 13.3446 24.8151 15.1445 25.8883C16.6748 26.798 18.7887 27.1306 20.1467 27.2637C19.5901 27.7785 22.1405 25.4182 14.7954 32.2165C13.238 33.6529 15.7453 35.9575 17.3016 34.5516L21.5148 30.6415C23.1277 32.1347 24.6738 33.5657 25.728 34.5571C27.2854 35.9684 29.7916 33.6834 28.2511 32.2219C28.1355 32.1161 22.5417 26.9528 22.8829 27.2691C24.2578 27.1361 26.3401 26.7838 27.8522 25.8938L27.851 25.8927C29.651 24.814 30.4399 24.1869 29.7553 22.8726C29.3416 22.1266 28.2262 21.5027 26.7413 22.5814C26.7413 22.5814 24.7362 24.0592 21.5023 24.0592C18.2673 24.0592 16.2633 22.5814 16.2633 22.5814C14.7796 21.4972 13.6597 22.1266 13.2505 22.8726V22.8726Z" fill="white"/>
<path d="M22.0006 22C25.8537 22 29 18.8661 29 15.0081C29 11.1339 25.8537 8 22.0006 8C18.1463 8 15 11.1339 15 15.0081C15 18.8661 18.1463 22 22.0006 22ZM22.0006 11.5502C23.8939 11.5502 25.4382 13.0964 25.4382 15.0081C25.4382 16.9036 23.8939 18.4498 22.0006 18.4498C20.1072 18.4498 18.5629 16.9036 18.5629 15.0081C18.5618 13.0952 20.1061 11.5502 22.0006 11.5502V11.5502Z" fill="white"/>
</g>
<defs>
<linearGradient id="paint0_linear" x1="21.43" y1="42.85" x2="21.43" y2="0" gradientUnits="userSpaceOnUse">
<stop stop-color="#C0181D"/>
<stop offset="1" stop-color="#E52D27"/>
</linearGradient>
<clipPath id="clip0">
<rect width="42.85" height="42.85" fill="white"/>
</clipPath>
</defs>
</svg>
