<svg width="29" height="29" viewBox="0 0 29 29" fill="none" xmlns="http://www.w3.org/2000/svg">
<g clip-path="url(#clip0)">
<path d="M13.8134 17.8612C12.7479 17.748 11.7871 17.4807 10.9646 16.8254C10.8625 16.7439 10.7571 16.6653 10.664 16.5743C10.304 16.2221 10.2677 15.8187 10.5526 15.403C10.7963 15.0473 11.2054 14.9521 11.6306 15.1564C11.713 15.196 11.7914 15.2454 11.8666 15.2985C13.3995 16.3713 15.5054 16.401 17.0441 15.3467C17.1965 15.2276 17.3595 15.1306 17.5484 15.081C17.9156 14.985 18.258 15.1224 18.4551 15.4496C18.6803 15.8234 18.6774 16.1882 18.4 16.4784C17.9745 16.9232 17.4627 17.2451 16.8941 17.4697C16.3564 17.682 15.7675 17.7889 15.1847 17.8599C15.2726 17.9574 15.3141 18.0053 15.3691 18.0616C16.1605 18.8716 16.9554 19.6782 17.7443 20.4906C18.013 20.7675 18.0692 21.1107 17.9212 21.4327C17.7594 21.7846 17.3972 22.0161 17.0421 21.9914C16.8171 21.9755 16.6416 21.8615 16.4857 21.7015C15.8885 21.0893 15.28 20.4884 14.6948 19.8647C14.5245 19.6833 14.4426 19.7176 14.2923 19.8751C13.6915 20.5052 13.0808 21.1255 12.4666 21.7424C12.1908 22.0194 11.8625 22.0692 11.5427 21.911C11.2027 21.7431 10.9863 21.3896 11.003 21.0343C11.0145 20.794 11.1305 20.6104 11.2925 20.4458C12.0757 19.6492 12.8568 18.8505 13.6382 18.0525C13.6899 17.9995 13.7381 17.9432 13.8134 17.8612Z" fill="#F07D00"/>
<path d="M14.4613 15.0863C12.5604 15.0797 11.0017 13.4746 11.0128 11.5353C11.0237 9.57463 12.5834 7.99459 14.503 8.00001C16.4265 8.00529 17.9704 9.60806 17.9607 11.5891C17.9509 13.5244 16.3814 15.093 14.4613 15.0863ZM16.1888 11.54C16.1855 10.5771 15.4327 9.81055 14.4892 9.80967C13.5378 9.80865 12.7782 10.5891 12.7855 11.5608C12.7926 12.5201 13.5519 13.2812 14.498 13.2777C15.4411 13.2743 16.192 12.5028 16.1888 11.54Z" fill="#F07D00"/>
</g>
<circle cx="14.5" cy="14.5" r="14" stroke="#F07D00"/>
<defs>
<clipPath id="clip0">
<rect x="4" y="8" width="17" height="14" fill="white"/>
</clipPath>
</defs>
</svg>
