<svg width="17" height="17" viewBox="0 0 17 17" fill="none" xmlns="http://www.w3.org/2000/svg">
<mask id="path-1-outside-1" maskUnits="userSpaceOnUse" x="0" y="0.00109863" width="17" height="17" fill="black">
<rect fill="white" y="0.00109863" width="17" height="17"/>
<path d="M15.6064 12.5723L12.5703 10.5476C12.1851 10.2927 11.6686 10.3766 11.3838 10.7403L10.4994 11.8774C10.3857 12.0272 10.1791 12.0707 10.0147 11.9794L9.84648 11.8866C9.28881 11.5826 8.59493 11.2042 7.19688 9.80567C5.79884 8.40713 5.41965 7.71272 5.11568 7.15608L5.02344 6.98785C4.93084 6.82346 4.97349 6.61598 5.12341 6.50142L6.25973 5.61731C6.62331 5.33244 6.70729 4.81613 6.45271 4.43073L4.42801 1.39467C4.1671 1.00221 3.64364 0.884399 3.23973 1.1272L1.97016 1.88984C1.57125 2.12435 1.27859 2.50416 1.15354 2.94967C0.696374 4.61542 1.0403 7.49024 5.27518 11.7256C8.64394 15.0941 11.1518 16 12.8756 16C13.2723 16.0017 13.6674 15.9501 14.0504 15.8465C14.496 15.7216 14.8759 15.4289 15.1102 15.0299L15.8736 13.7611C16.1168 13.3571 15.999 12.8333 15.6064 12.5723ZM15.4429 13.5046L14.6813 14.7742C14.513 15.0622 14.2398 15.2739 13.9189 15.3651C12.3811 15.7873 9.69451 15.4376 5.62886 11.3719C1.5632 7.30629 1.21353 4.61993 1.63573 3.08192C1.727 2.76064 1.93902 2.48708 2.22738 2.31853L3.49694 1.5569C3.6722 1.45144 3.89939 1.50256 4.01261 1.67287L5.11246 3.32411L6.03558 4.70866C6.14613 4.87583 6.10981 5.09989 5.9521 5.22359L4.81552 6.1077C4.46963 6.37218 4.37086 6.85073 4.58381 7.23054L4.67407 7.39452C4.99353 7.98043 5.39071 8.70931 6.84075 10.1591C8.29078 11.6089 9.01944 12.0061 9.60508 12.3255L9.7693 12.416C10.1491 12.6289 10.6277 12.5302 10.8921 12.1843L11.7762 11.0477C11.9 10.8901 12.1239 10.8538 12.2912 10.9643L15.327 12.9889C15.4974 13.1021 15.5485 13.3294 15.4429 13.5046Z"/>
</mask>
<path d="M15.6064 12.5723L12.5703 10.5476C12.1851 10.2927 11.6686 10.3766 11.3838 10.7403L10.4994 11.8774C10.3857 12.0272 10.1791 12.0707 10.0147 11.9794L9.84648 11.8866C9.28881 11.5826 8.59493 11.2042 7.19688 9.80567C5.79884 8.40713 5.41965 7.71272 5.11568 7.15608L5.02344 6.98785C4.93084 6.82346 4.97349 6.61598 5.12341 6.50142L6.25973 5.61731C6.62331 5.33244 6.70729 4.81613 6.45271 4.43073L4.42801 1.39467C4.1671 1.00221 3.64364 0.884399 3.23973 1.1272L1.97016 1.88984C1.57125 2.12435 1.27859 2.50416 1.15354 2.94967C0.696374 4.61542 1.0403 7.49024 5.27518 11.7256C8.64394 15.0941 11.1518 16 12.8756 16C13.2723 16.0017 13.6674 15.9501 14.0504 15.8465C14.496 15.7216 14.8759 15.4289 15.1102 15.0299L15.8736 13.7611C16.1168 13.3571 15.999 12.8333 15.6064 12.5723ZM15.4429 13.5046L14.6813 14.7742C14.513 15.0622 14.2398 15.2739 13.9189 15.3651C12.3811 15.7873 9.69451 15.4376 5.62886 11.3719C1.5632 7.30629 1.21353 4.61993 1.63573 3.08192C1.727 2.76064 1.93902 2.48708 2.22738 2.31853L3.49694 1.5569C3.6722 1.45144 3.89939 1.50256 4.01261 1.67287L5.11246 3.32411L6.03558 4.70866C6.14613 4.87583 6.10981 5.09989 5.9521 5.22359L4.81552 6.1077C4.46963 6.37218 4.37086 6.85073 4.58381 7.23054L4.67407 7.39452C4.99353 7.98043 5.39071 8.70931 6.84075 10.1591C8.29078 11.6089 9.01944 12.0061 9.60508 12.3255L9.7693 12.416C10.1491 12.6289 10.6277 12.5302 10.8921 12.1843L11.7762 11.0477C11.9 10.8901 12.1239 10.8538 12.2912 10.9643L15.327 12.9889C15.4974 13.1021 15.5485 13.3294 15.4429 13.5046Z" fill="black"/>
<path d="M15.6064 12.5723L12.5703 10.5476C12.1851 10.2927 11.6686 10.3766 11.3838 10.7403L10.4994 11.8774C10.3857 12.0272 10.1791 12.0707 10.0147 11.9794L9.84648 11.8866C9.28881 11.5826 8.59493 11.2042 7.19688 9.80567C5.79884 8.40713 5.41965 7.71272 5.11568 7.15608L5.02344 6.98785C4.93084 6.82346 4.97349 6.61598 5.12341 6.50142L6.25973 5.61731C6.62331 5.33244 6.70729 4.81613 6.45271 4.43073L4.42801 1.39467C4.1671 1.00221 3.64364 0.884399 3.23973 1.1272L1.97016 1.88984C1.57125 2.12435 1.27859 2.50416 1.15354 2.94967C0.696374 4.61542 1.0403 7.49024 5.27518 11.7256C8.64394 15.0941 11.1518 16 12.8756 16C13.2723 16.0017 13.6674 15.9501 14.0504 15.8465C14.496 15.7216 14.8759 15.4289 15.1102 15.0299L15.8736 13.7611C16.1168 13.3571 15.999 12.8333 15.6064 12.5723ZM15.4429 13.5046L14.6813 14.7742C14.513 15.0622 14.2398 15.2739 13.9189 15.3651C12.3811 15.7873 9.69451 15.4376 5.62886 11.3719C1.5632 7.30629 1.21353 4.61993 1.63573 3.08192C1.727 2.76064 1.93902 2.48708 2.22738 2.31853L3.49694 1.5569C3.6722 1.45144 3.89939 1.50256 4.01261 1.67287L5.11246 3.32411L6.03558 4.70866C6.14613 4.87583 6.10981 5.09989 5.9521 5.22359L4.81552 6.1077C4.46963 6.37218 4.37086 6.85073 4.58381 7.23054L4.67407 7.39452C4.99353 7.98043 5.39071 8.70931 6.84075 10.1591C8.29078 11.6089 9.01944 12.0061 9.60508 12.3255L9.7693 12.416C10.1491 12.6289 10.6277 12.5302 10.8921 12.1843L11.7762 11.0477C11.9 10.8901 12.1239 10.8538 12.2912 10.9643L15.327 12.9889C15.4974 13.1021 15.5485 13.3294 15.4429 13.5046Z" stroke="black" stroke-width="0.6" mask="url(#path-1-outside-1)"/>
</svg>
