<?xml version="1.0" encoding="utf-8"?>
<!-- Generator: Adobe Illustrator 22.1.0, SVG Export Plug-In . SVG Version: 6.00 Build 0)  -->
<svg version="1.1" id="Layer_1" xmlns="http://www.w3.org/2000/svg" xmlns:xlink="http://www.w3.org/1999/xlink" x="0px" y="0px"
	 viewBox="0 0 235 74.3" style="enable-background:new 0 0 235 74.3;" xml:space="preserve">
<style type="text/css">
	.st0{fill:#F26522;}
	.st1{enable-background:new    ;}
	.st2{fill:#3E3E3E;stroke:#F36E2E;stroke-width:3;stroke-miterlimit:10;}
</style>
<g>
	<path class="st0" d="M185.2,44.1c0.5-1.4,0.8-2.9,0.8-4.3c0-4.3-2.6-8.2-3.7-9.3c-4-4-9.1-5.1-11.7-5.1h-20.8v29.5h20.4
		c0.7,0,6.9,0.1,11.4-4.3c0.6-0.6,1.3-1.6,2-2.8c0.3-0.6,0.7-1.3,1-2C184.7,45.2,184.9,44.6,185.2,44.1z M173.3,45.3L173.3,45.3
		c-1.8,1.6-4.6,2.5-7.6,2.5h-5.4V32.4h5.4c3,0,5.8,1,7.6,2.5c1.5,1.4,2.2,3.2,2.2,5.2C175.5,42.1,174.9,43.9,173.3,45.3L173.3,45.3z
		"/>
	<polygon class="st0" points="188.9,26 195.8,44.1 201,32.8 197.9,26 212.2,26 209.1,32.8 214,43.7 221,26 231,26 219.3,54.2 
		210.8,54.2 205,41.6 199.2,54.2 190.3,54.2 179,26 	"/>
</g>
<g class="st1">
	<path d="M48.1,27.5h7.6v9.7h-1.3v-8.6h-5.1v8.6h-1.3V27.5z"/>
	<path d="M56.8,27.5h1.3l3.2,5.9l2.8-5.9h1.3L61.7,35c-0.5,0.9-0.8,1.6-1.1,1.9s-0.7,0.4-1.3,0.4c-0.3,0-0.7-0.1-1.2-0.2V36
		c0.3,0.2,0.7,0.3,1.1,0.3c0.3,0,0.6-0.1,0.8-0.3c0.2-0.2,0.5-0.7,0.8-1.4L56.8,27.5z"/>
	<path d="M66.4,37.2v-9.7h1.3v4h5v-4h1.3v9.7h-1.3v-4.6h-5v4.6H66.4z"/>
	<path d="M76.2,27.5h1.3v4.2c0.6,0,1-0.1,1.2-0.3c0.2-0.2,0.5-0.8,0.9-1.6c0.3-0.6,0.5-1.1,0.7-1.3c0.2-0.3,0.4-0.5,0.7-0.7
		c0.3-0.2,0.7-0.3,1.1-0.3c0.5,0,0.8,0,0.8,0v1.1c0,0-0.1,0-0.3,0c-0.1,0-0.2,0-0.3,0c-0.4,0-0.7,0.1-0.9,0.3
		c-0.2,0.2-0.4,0.6-0.7,1.3c-0.3,0.8-0.6,1.3-0.8,1.6c-0.2,0.2-0.5,0.4-0.8,0.5c0.6,0.2,1.2,0.8,1.9,1.7l2,3.2h-1.6l-1.6-2.6
		c-0.4-0.7-0.8-1.2-1.1-1.5c-0.3-0.3-0.7-0.4-1.2-0.4v4.5h-1.3V27.5z"/>
	<path d="M86.5,37.2v-8.6h-3.2v-1.1H91v1.1h-3.2v8.6H86.5z"/>
</g>
<g class="st1">
	<path d="M55,50.1l1.3,0.3c-0.3,1.1-0.8,1.9-1.5,2.4s-1.6,0.8-2.6,0.8c-1,0-1.9-0.2-2.6-0.6s-1.2-1-1.5-1.8
		c-0.3-0.8-0.5-1.7-0.5-2.6c0-1,0.2-1.9,0.6-2.6c0.4-0.8,0.9-1.3,1.6-1.7s1.5-0.6,2.4-0.6c1,0,1.8,0.2,2.4,0.7
		c0.7,0.5,1.1,1.2,1.4,2.1l-1.3,0.3c-0.2-0.7-0.6-1.2-1-1.5c-0.4-0.3-1-0.5-1.6-0.5c-0.7,0-1.4,0.2-1.9,0.5s-0.9,0.8-1.1,1.4
		c-0.2,0.6-0.3,1.2-0.3,1.9c0,0.8,0.1,1.5,0.4,2.2s0.6,1.1,1.1,1.4c0.5,0.3,1.1,0.5,1.6,0.5c0.7,0,1.3-0.2,1.8-0.6
		C54.5,51.5,54.8,50.9,55,50.1z"/>
	<path d="M56.5,53.5l3.7-9.7h1.4l4,9.7h-1.5L63,50.5h-4.1l-1.1,2.9H56.5z M59.3,49.5h3.3l-1-2.7c-0.3-0.8-0.5-1.5-0.7-2
		c-0.1,0.6-0.3,1.2-0.5,1.9L59.3,49.5z"/>
	<path d="M66.5,53.5v-9.7h1.9l2.3,6.9c0.2,0.6,0.4,1.1,0.5,1.4c0.1-0.4,0.3-0.9,0.5-1.6l2.3-6.7h1.7v9.7h-1.2v-8.1l-2.8,8.1h-1.2
		l-2.8-8.3v8.3H66.5z"/>
	<path d="M77.5,48.7c0-1.6,0.4-2.9,1.3-3.8c0.9-0.9,2-1.4,3.3-1.4c0.9,0,1.7,0.2,2.4,0.6s1.3,1,1.6,1.8c0.4,0.8,0.6,1.6,0.6,2.6
		c0,1-0.2,1.9-0.6,2.6s-1,1.4-1.7,1.8c-0.7,0.4-1.5,0.6-2.4,0.6c-0.9,0-1.7-0.2-2.4-0.7s-1.3-1-1.6-1.8
		C77.7,50.4,77.5,49.6,77.5,48.7z M78.8,48.8c0,1.2,0.3,2.1,0.9,2.8c0.6,0.7,1.4,1,2.4,1c1,0,1.8-0.3,2.4-1c0.6-0.7,0.9-1.6,0.9-2.9
		c0-0.8-0.1-1.5-0.4-2.1c-0.3-0.6-0.7-1-1.2-1.4s-1.1-0.5-1.7-0.5c-0.9,0-1.7,0.3-2.3,0.9S78.8,47.3,78.8,48.8z"/>
	<path d="M88.4,53.5v-9.7H92c0.7,0,1.3,0.1,1.8,0.3c0.4,0.2,0.8,0.5,1.1,0.9c0.3,0.4,0.4,0.8,0.4,1.3c0,0.4-0.1,0.8-0.3,1.2
		c-0.2,0.4-0.6,0.7-1,0.9c0.6,0.2,1,0.5,1.4,0.9c0.3,0.4,0.5,0.9,0.5,1.5c0,0.5-0.1,0.9-0.3,1.3c-0.2,0.4-0.4,0.7-0.7,0.9
		s-0.6,0.4-1.1,0.5s-0.9,0.2-1.6,0.2H88.4z M89.6,47.8h2.1c0.6,0,1,0,1.2-0.1c0.3-0.1,0.6-0.3,0.7-0.5s0.2-0.5,0.2-0.8
		c0-0.3-0.1-0.6-0.2-0.8c-0.2-0.2-0.4-0.4-0.7-0.5c-0.3-0.1-0.8-0.1-1.5-0.1h-1.9V47.8z M89.6,52.3h2.4c0.4,0,0.7,0,0.9,0
		c0.3-0.1,0.5-0.1,0.7-0.3c0.2-0.1,0.4-0.3,0.5-0.5c0.1-0.2,0.2-0.5,0.2-0.8c0-0.4-0.1-0.7-0.3-0.9c-0.2-0.3-0.4-0.5-0.8-0.6
		C93,49,92.5,49,91.9,49h-2.2V52.3z"/>
	<path d="M97.5,43.8h1.3v4.1h2.3c1.5,0,2.5,0.3,3,0.8s0.7,1.2,0.7,1.9c0,0.8-0.3,1.4-0.8,2c-0.5,0.6-1.5,0.8-2.9,0.8h-3.7V43.8z
		 M98.8,52.4h2.3c0.8,0,1.4-0.1,1.8-0.4c0.4-0.3,0.5-0.7,0.5-1.3c0-0.4-0.1-0.7-0.3-1c-0.2-0.3-0.5-0.4-0.9-0.5
		c-0.3-0.1-0.9-0.1-1.7-0.1h-1.7V52.4z M106,43.8h1.3v9.7H106V43.8z"/>
	<path d="M109.4,53.5v-9.7h3.6c0.7,0,1.3,0.1,1.8,0.3c0.4,0.2,0.8,0.5,1.1,0.9c0.3,0.4,0.4,0.8,0.4,1.3c0,0.4-0.1,0.8-0.3,1.2
		c-0.2,0.4-0.6,0.7-1,0.9c0.6,0.2,1,0.5,1.4,0.9c0.3,0.4,0.5,0.9,0.5,1.5c0,0.5-0.1,0.9-0.3,1.3c-0.2,0.4-0.4,0.7-0.7,0.9
		s-0.6,0.4-1.1,0.5s-0.9,0.2-1.6,0.2H109.4z M110.7,47.8h2.1c0.6,0,1,0,1.2-0.1c0.3-0.1,0.6-0.3,0.7-0.5s0.2-0.5,0.2-0.8
		c0-0.3-0.1-0.6-0.2-0.8c-0.2-0.2-0.4-0.4-0.7-0.5c-0.3-0.1-0.8-0.1-1.5-0.1h-1.9V47.8z M110.7,52.3h2.4c0.4,0,0.7,0,0.9,0
		c0.3-0.1,0.5-0.1,0.7-0.3c0.2-0.1,0.4-0.3,0.5-0.5c0.1-0.2,0.2-0.5,0.2-0.8c0-0.4-0.1-0.7-0.3-0.9c-0.2-0.3-0.4-0.5-0.8-0.6
		c-0.3-0.1-0.8-0.2-1.4-0.2h-2.2V52.3z"/>
	<path d="M117.6,48.7c0-1.6,0.4-2.9,1.3-3.8c0.9-0.9,2-1.4,3.3-1.4c0.9,0,1.7,0.2,2.4,0.6s1.3,1,1.6,1.8c0.4,0.8,0.6,1.6,0.6,2.6
		c0,1-0.2,1.9-0.6,2.6c-0.4,0.8-1,1.4-1.7,1.8c-0.7,0.4-1.5,0.6-2.4,0.6c-0.9,0-1.7-0.2-2.4-0.7s-1.3-1-1.6-1.8
		C117.8,50.4,117.6,49.6,117.6,48.7z M119,48.8c0,1.2,0.3,2.1,0.9,2.8c0.6,0.7,1.4,1,2.4,1c1,0,1.8-0.3,2.4-1
		c0.6-0.7,0.9-1.6,0.9-2.9c0-0.8-0.1-1.5-0.4-2.1c-0.3-0.6-0.7-1-1.2-1.4s-1.1-0.5-1.7-0.5c-0.9,0-1.7,0.3-2.3,0.9
		C119.3,46.3,119,47.3,119,48.8z"/>
	<path d="M128,50.7l1.2-0.3c0.1,0.5,0.3,0.9,0.7,1.4c0.4,0.5,0.9,0.7,1.6,0.7c0.7,0,1.2-0.2,1.6-0.5c0.4-0.3,0.6-0.8,0.6-1.3
		c0-0.5-0.2-1-0.6-1.3c-0.4-0.3-1-0.5-1.7-0.5h-0.6v-1.1c0.6,0,1,0,1.4-0.1c0.3-0.1,0.6-0.2,0.8-0.5c0.2-0.3,0.4-0.6,0.4-1
		c0-0.4-0.2-0.8-0.5-1.1c-0.3-0.3-0.8-0.5-1.3-0.5c-0.5,0-0.9,0.1-1.3,0.4c-0.3,0.2-0.6,0.6-0.7,1c-0.1,0.4-0.2,0.7-0.2,0.9
		l-1.2-0.3c0.3-2.1,1.4-3.1,3.4-3.1c0.9,0,1.7,0.3,2.3,0.8s0.8,1.1,0.8,1.8c0,0.9-0.4,1.6-1.3,2.1c0.5,0.1,0.9,0.4,1.2,0.8
		c0.3,0.4,0.5,0.9,0.5,1.5c0,0.8-0.3,1.5-1,2.1c-0.6,0.6-1.5,0.8-2.6,0.8C129.8,53.6,128.6,52.7,128,50.7z"/>
	<path d="M135.7,53.5l3.7-9.7h1.4l4,9.7h-1.5l-1.1-2.9h-4.1l-1.1,2.9H135.7z M138.5,49.5h3.3l-1-2.7c-0.3-0.8-0.5-1.5-0.7-2
		c-0.1,0.6-0.3,1.2-0.5,1.9L138.5,49.5z"/>
</g>
<path class="st2" d="M40.3,30c0-9.5-7.7-17.3-17.2-17.3S5.8,20.5,5.8,30S23,61.6,23,61.6S40.3,39.5,40.3,30z"/>
<g>
	<path class="st0" d="M22,31.6c0.1-0.4,0.2-0.8,0.2-1.2c0-1.2-0.8-2.4-1.1-2.7c-1.2-1.2-2.7-1.5-3.4-1.5h-6.1v8.6h6
		c0.2,0,2,0,3.3-1.3c0.2-0.2,0.4-0.5,0.6-0.8c0.1-0.2,0.2-0.4,0.3-0.6C21.9,31.9,21.9,31.7,22,31.6z M18.6,31.9L18.6,31.9
		c-0.5,0.5-1.3,0.7-2.2,0.7h-1.6v-4.5h1.6c0.9,0,1.7,0.3,2.2,0.7c0.4,0.4,0.6,0.9,0.6,1.5C19.2,31,19,31.5,18.6,31.9L18.6,31.9z"/>
	<polygon class="st0" points="23.1,26.3 25.1,31.6 26.6,28.3 25.7,26.3 29.9,26.3 29,28.3 30.4,31.4 32.5,26.3 35.4,26.3 32,34.5 
		29.5,34.5 27.8,30.8 26.1,34.5 23.5,34.5 20.2,26.3 	"/>
</g>
</svg>
