<svg width="34" height="25" viewBox="0 0 34 25" fill="none" xmlns="http://www.w3.org/2000/svg">
<path d="M31.8336 11.8775L31.0428 12.3287L26.9335 5.29502C26.6814 4.86343 26.1228 4.7155 25.6861 4.96471L23.3136 6.31834L20.1175 0.847715C19.8654 0.416128 19.3069 0.268195 18.8701 0.517399L10.9619 5.02947C10.5252 5.27865 10.3755 5.8306 10.6277 6.26223L14.2803 12.5144L16.8089 16.8426C16.1873 16.8414 15.5576 16.9958 14.9816 17.3245L6.9153 3.51755C6.79417 3.31023 6.59469 3.15904 6.36079 3.09714L1.37117 1.77587C0.884106 1.64689 0.383341 1.93261 0.252785 2.41397C0.122229 2.89533 0.411346 3.39021 0.898485 3.5192L5.52274 4.74361L13.6456 18.6474C13.0174 19.7277 12.9701 21.1008 13.6447 22.2553C14.6517 23.9791 16.8901 24.5718 18.6343 23.5766C19.8026 22.91 20.4564 21.6975 20.4589 20.4515C20.6007 20.3706 32.4319 13.6202 32.7468 13.4406C33.1835 13.1914 33.3332 12.6394 33.0811 12.2078C32.8289 11.7762 32.2704 11.6283 31.8336 11.8775ZM17.7211 22.0135C16.849 22.5111 15.7298 22.2148 15.2263 21.3529C14.7228 20.4911 15.0226 19.3851 15.8948 18.8875C16.7669 18.3899 17.886 18.6862 18.3896 19.5481C18.8931 20.41 18.5932 21.5159 17.7211 22.0135ZM12.6659 6.14133L18.9925 2.53164L21.732 7.22078L15.4054 10.8305L12.6659 6.14133ZM29.4611 13.2311L19.9712 18.6457L16.3186 12.3935C16.4449 12.3214 25.6844 7.04973 25.8085 6.97895L29.4612 13.2311L29.4611 13.2311Z" fill="#333333"/>
</svg>
