<svg width="12" height="16" viewBox="0 0 12 16" fill="none" xmlns="http://www.w3.org/2000/svg">
<mask id="path-1-outside-1" maskUnits="userSpaceOnUse" x="3.25781" y="3.06812" width="5" height="5" fill="black">
<rect fill="white" x="3.25781" y="3.06812" width="5" height="5"/>
<path d="M6.04754 4.06812C5.06089 4.06812 4.25781 4.87119 4.25781 5.85784C4.25781 6.84449 5.06089 7.64757 6.04754 7.64757C7.03419 7.64757 7.83726 6.84449 7.83726 5.85784C7.83726 4.87119 7.03419 4.06812 6.04754 4.06812ZM6.04754 7.13622C5.34264 7.13622 4.76916 6.56274 4.76916 5.85784C4.76916 5.15294 5.34264 4.57947 6.04754 4.57947C6.75243 4.57947 7.32591 5.15294 7.32591 5.85784C7.32591 6.56274 6.75243 7.13622 6.04754 7.13622Z"/>
</mask>
<path d="M6.04754 4.06812C5.06089 4.06812 4.25781 4.87119 4.25781 5.85784C4.25781 6.84449 5.06089 7.64757 6.04754 7.64757C7.03419 7.64757 7.83726 6.84449 7.83726 5.85784C7.83726 4.87119 7.03419 4.06812 6.04754 4.06812ZM6.04754 7.13622C5.34264 7.13622 4.76916 6.56274 4.76916 5.85784C4.76916 5.15294 5.34264 4.57947 6.04754 4.57947C6.75243 4.57947 7.32591 5.15294 7.32591 5.85784C7.32591 6.56274 6.75243 7.13622 6.04754 7.13622Z" fill="black"/>
<path d="M6.04754 4.06812C5.06089 4.06812 4.25781 4.87119 4.25781 5.85784C4.25781 6.84449 5.06089 7.64757 6.04754 7.64757C7.03419 7.64757 7.83726 6.84449 7.83726 5.85784C7.83726 4.87119 7.03419 4.06812 6.04754 4.06812ZM6.04754 7.13622C5.34264 7.13622 4.76916 6.56274 4.76916 5.85784C4.76916 5.15294 5.34264 4.57947 6.04754 4.57947C6.75243 4.57947 7.32591 5.15294 7.32591 5.85784C7.32591 6.56274 6.75243 7.13622 6.04754 7.13622Z" stroke="black" stroke-width="0.2" mask="url(#path-1-outside-1)"/>
<mask id="path-2-outside-2" maskUnits="userSpaceOnUse" x="0.0976562" y="0" width="11" height="16" fill="black">
<rect fill="white" x="0.0976562" width="11" height="16"/>
<path d="M9.4678 2.43613C8.54175 1.51007 7.31042 1 6.00085 1C4.69103 1 3.45995 1.51007 2.5339 2.43613C0.820108 4.14966 0.60713 7.37372 2.07266 9.32708L6.00085 15L9.92316 9.33501C11.3946 7.37372 11.1816 4.14966 9.4678 2.43613ZM9.50846 9.03612L6.00085 14.1016L2.48762 9.0282C1.15837 7.25586 1.34884 4.34423 2.89568 2.79765C3.72509 1.96824 4.82781 1.51135 6.00085 1.51135C7.17389 1.51135 8.27662 1.96824 9.10628 2.79765C10.6531 4.34423 10.8436 7.25586 9.50846 9.03612Z"/>
</mask>
<path d="M9.4678 2.43613C8.54175 1.51007 7.31042 1 6.00085 1C4.69103 1 3.45995 1.51007 2.5339 2.43613C0.820108 4.14966 0.60713 7.37372 2.07266 9.32708L6.00085 15L9.92316 9.33501C11.3946 7.37372 11.1816 4.14966 9.4678 2.43613ZM9.50846 9.03612L6.00085 14.1016L2.48762 9.0282C1.15837 7.25586 1.34884 4.34423 2.89568 2.79765C3.72509 1.96824 4.82781 1.51135 6.00085 1.51135C7.17389 1.51135 8.27662 1.96824 9.10628 2.79765C10.6531 4.34423 10.8436 7.25586 9.50846 9.03612Z" fill="black"/>
<path d="M9.4678 2.43613C8.54175 1.51007 7.31042 1 6.00085 1C4.69103 1 3.45995 1.51007 2.5339 2.43613C0.820108 4.14966 0.60713 7.37372 2.07266 9.32708L6.00085 15L9.92316 9.33501C11.3946 7.37372 11.1816 4.14966 9.4678 2.43613ZM9.50846 9.03612L6.00085 14.1016L2.48762 9.0282C1.15837 7.25586 1.34884 4.34423 2.89568 2.79765C3.72509 1.96824 4.82781 1.51135 6.00085 1.51135C7.17389 1.51135 8.27662 1.96824 9.10628 2.79765C10.6531 4.34423 10.8436 7.25586 9.50846 9.03612Z" stroke="black" stroke-width="0.2" mask="url(#path-2-outside-2)"/>
</svg>
