<svg width="72" height="12" viewBox="0 0 72 12" fill="none" xmlns="http://www.w3.org/2000/svg">
<mask id="path-1-inside-1" fill="white">
<path d="M6.44437 0.307709L7.93007 3.83304L11.7337 4.16062C11.9975 4.18347 12.1048 4.51346 11.9045 4.68717L9.01946 7.19307L9.88402 10.921C9.94398 11.18 9.66399 11.3838 9.43736 11.2461L6.16857 9.26979L2.89979 11.2461C2.67256 11.3832 2.39317 11.1794 2.45312 10.921L3.31768 7.19307L0.432017 4.68657C0.231765 4.51286 0.338486 4.18286 0.602891 4.16002L4.40648 3.83244L5.89218 0.307709C5.9953 0.0624693 6.34125 0.0624693 6.44437 0.307709Z"/>
</mask>
<path d="M6.44437 0.307709L7.93007 3.83304L11.7337 4.16062C11.9975 4.18347 12.1048 4.51346 11.9045 4.68717L9.01946 7.19307L9.88402 10.921C9.94398 11.18 9.66399 11.3838 9.43736 11.2461L6.16857 9.26979L2.89979 11.2461C2.67256 11.3832 2.39317 11.1794 2.45312 10.921L3.31768 7.19307L0.432017 4.68657C0.231765 4.51286 0.338486 4.18286 0.602891 4.16002L4.40648 3.83244L5.89218 0.307709C5.9953 0.0624693 6.34125 0.0624693 6.44437 0.307709Z" fill="#333333" stroke="#333333" stroke-width="2" mask="url(#path-1-inside-1)"/>
<mask id="path-2-inside-2" fill="white">
<path d="M21.274 0.307709L22.7597 3.83304L26.5632 4.16062C26.8271 4.18347 26.9344 4.51346 26.7341 4.68717L23.8491 7.19307L24.7136 10.921C24.7736 11.18 24.4936 11.3838 24.2669 11.2461L20.9982 9.26979L17.7294 11.2461C17.5021 11.3832 17.2228 11.1794 17.2827 10.921L18.1473 7.19307L15.2616 4.68657C15.0614 4.51286 15.1681 4.18286 15.4325 4.16002L19.2361 3.83244L20.7218 0.307709C20.8249 0.0624693 21.1708 0.0624693 21.274 0.307709Z"/>
</mask>
<path d="M21.274 0.307709L22.7597 3.83304L26.5632 4.16062C26.8271 4.18347 26.9344 4.51346 26.7341 4.68717L23.8491 7.19307L24.7136 10.921C24.7736 11.18 24.4936 11.3838 24.2669 11.2461L20.9982 9.26979L17.7294 11.2461C17.5021 11.3832 17.2228 11.1794 17.2827 10.921L18.1473 7.19307L15.2616 4.68657C15.0614 4.51286 15.1681 4.18286 15.4325 4.16002L19.2361 3.83244L20.7218 0.307709C20.8249 0.0624693 21.1708 0.0624693 21.274 0.307709Z" fill="#333333" stroke="#333333" stroke-width="2" mask="url(#path-2-inside-2)"/>
<mask id="path-3-inside-3" fill="white">
<path d="M36.1038 0.307709L37.5895 3.83304L41.3931 4.16062C41.6569 4.18347 41.7642 4.51346 41.564 4.68717L38.6789 7.19307L39.5434 10.921C39.6034 11.18 39.3234 11.3838 39.0968 11.2461L35.828 9.26979L32.5592 11.2461C32.332 11.3832 32.0526 11.1794 32.1125 10.921L32.9771 7.19307L30.0914 4.68657C29.8912 4.51286 29.9979 4.18286 30.2623 4.16002L34.0659 3.83244L35.5516 0.307709C35.6547 0.0624693 36.0007 0.0624693 36.1038 0.307709Z"/>
</mask>
<path d="M36.1038 0.307709L37.5895 3.83304L41.3931 4.16062C41.6569 4.18347 41.7642 4.51346 41.564 4.68717L38.6789 7.19307L39.5434 10.921C39.6034 11.18 39.3234 11.3838 39.0968 11.2461L35.828 9.26979L32.5592 11.2461C32.332 11.3832 32.0526 11.1794 32.1125 10.921L32.9771 7.19307L30.0914 4.68657C29.8912 4.51286 29.9979 4.18286 30.2623 4.16002L34.0659 3.83244L35.5516 0.307709C35.6547 0.0624693 36.0007 0.0624693 36.1038 0.307709Z" stroke="#333333" stroke-width="2" mask="url(#path-3-inside-3)"/>
<mask id="path-4-inside-4" fill="white">
<path d="M50.9331 0.307709L52.4188 3.83304L56.2224 4.16062C56.4862 4.18347 56.5936 4.51346 56.3933 4.68717L53.5082 7.19307L54.3728 10.921C54.4327 11.18 54.1528 11.3838 53.9261 11.2461L50.6573 9.26979L47.3886 11.2461C47.1613 11.3832 46.8819 11.1794 46.9419 10.921L47.8065 7.19307L44.9208 4.68657C44.7205 4.51286 44.8273 4.18286 45.0917 4.16002L48.8952 3.83244L50.3809 0.307709C50.4841 0.0624693 50.83 0.0624693 50.9331 0.307709Z"/>
</mask>
<path d="M50.9331 0.307709L52.4188 3.83304L56.2224 4.16062C56.4862 4.18347 56.5936 4.51346 56.3933 4.68717L53.5082 7.19307L54.3728 10.921C54.4327 11.18 54.1528 11.3838 53.9261 11.2461L50.6573 9.26979L47.3886 11.2461C47.1613 11.3832 46.8819 11.1794 46.9419 10.921L47.8065 7.19307L44.9208 4.68657C44.7205 4.51286 44.8273 4.18286 45.0917 4.16002L48.8952 3.83244L50.3809 0.307709C50.4841 0.0624693 50.83 0.0624693 50.9331 0.307709Z" stroke="#333333" stroke-width="2" mask="url(#path-4-inside-4)"/>
<mask id="path-5-inside-5" fill="white">
<path d="M65.7627 0.307709L67.2484 3.83304L71.052 4.16062C71.3158 4.18347 71.4231 4.51346 71.2229 4.68717L68.3378 7.19307L69.2024 10.921C69.2623 11.18 68.9823 11.3838 68.7557 11.2461L65.4869 9.26979L62.2182 11.2461C61.9909 11.3832 61.7115 11.1794 61.7715 10.921L62.636 7.19307L59.7504 4.68657C59.5501 4.51286 59.6568 4.18286 59.9213 4.16002L63.7248 3.83244L65.2105 0.307709C65.3137 0.0624693 65.6596 0.0624693 65.7627 0.307709Z"/>
</mask>
<path d="M65.7627 0.307709L67.2484 3.83304L71.052 4.16062C71.3158 4.18347 71.4231 4.51346 71.2229 4.68717L68.3378 7.19307L69.2024 10.921C69.2623 11.18 68.9823 11.3838 68.7557 11.2461L65.4869 9.26979L62.2182 11.2461C61.9909 11.3832 61.7115 11.1794 61.7715 10.921L62.636 7.19307L59.7504 4.68657C59.5501 4.51286 59.6568 4.18286 59.9213 4.16002L63.7248 3.83244L65.2105 0.307709C65.3137 0.0624693 65.6596 0.0624693 65.7627 0.307709Z" stroke="#333333" stroke-width="2" mask="url(#path-5-inside-5)"/>
</svg>
