<svg width="72" height="12" viewBox="0 0 72 12" fill="none" xmlns="http://www.w3.org/2000/svg">
<mask id="path-1-inside-1" fill="white">
<path d="M6.44437 0.888642L7.93007 4.41397L11.7337 4.74156C11.9975 4.7644 12.1048 5.09439 11.9045 5.2681L9.01946 7.774L9.88402 11.5019C9.94398 11.761 9.66399 11.9647 9.43736 11.8271L6.16857 9.85073L2.89979 11.8271C2.67256 11.9641 2.39317 11.7604 2.45312 11.5019L3.31768 7.774L0.432017 5.2675C0.231765 5.09379 0.338486 4.7638 0.602891 4.74096L4.40648 4.41337L5.89218 0.888642C5.9953 0.643402 6.34125 0.643402 6.44437 0.888642Z"/>
</mask>
<path d="M6.44437 0.888642L7.93007 4.41397L11.7337 4.74156C11.9975 4.7644 12.1048 5.09439 11.9045 5.2681L9.01946 7.774L9.88402 11.5019C9.94398 11.761 9.66399 11.9647 9.43736 11.8271L6.16857 9.85073L2.89979 11.8271C2.67256 11.9641 2.39317 11.7604 2.45312 11.5019L3.31768 7.774L0.432017 5.2675C0.231765 5.09379 0.338486 4.7638 0.602891 4.74096L4.40648 4.41337L5.89218 0.888642C5.9953 0.643402 6.34125 0.643402 6.44437 0.888642Z" fill="#333333" stroke="#333333" stroke-width="2" mask="url(#path-1-inside-1)"/>
<mask id="path-2-inside-2" fill="white">
<path d="M21.274 0.888642L22.7597 4.41397L26.5632 4.74156C26.8271 4.7644 26.9344 5.09439 26.7341 5.2681L23.8491 7.774L24.7136 11.5019C24.7736 11.761 24.4936 11.9647 24.2669 11.8271L20.9982 9.85073L17.7294 11.8271C17.5021 11.9641 17.2228 11.7604 17.2827 11.5019L18.1473 7.774L15.2616 5.2675C15.0614 5.09379 15.1681 4.7638 15.4325 4.74096L19.2361 4.41337L20.7218 0.888642C20.8249 0.643402 21.1708 0.643402 21.274 0.888642Z"/>
</mask>
<path d="M21.274 0.888642L22.7597 4.41397L26.5632 4.74156C26.8271 4.7644 26.9344 5.09439 26.7341 5.2681L23.8491 7.774L24.7136 11.5019C24.7736 11.761 24.4936 11.9647 24.2669 11.8271L20.9982 9.85073L17.7294 11.8271C17.5021 11.9641 17.2228 11.7604 17.2827 11.5019L18.1473 7.774L15.2616 5.2675C15.0614 5.09379 15.1681 4.7638 15.4325 4.74096L19.2361 4.41337L20.7218 0.888642C20.8249 0.643402 21.1708 0.643402 21.274 0.888642Z" fill="#333333" stroke="#333333" stroke-width="2" mask="url(#path-2-inside-2)"/>
<mask id="path-3-inside-3" fill="white">
<path d="M36.1038 0.888642L37.5895 4.41397L41.3931 4.74156C41.6569 4.7644 41.7642 5.09439 41.564 5.2681L38.6789 7.774L39.5434 11.5019C39.6034 11.761 39.3234 11.9647 39.0968 11.8271L35.828 9.85073L32.5592 11.8271C32.332 11.9641 32.0526 11.7604 32.1125 11.5019L32.9771 7.774L30.0914 5.2675C29.8912 5.09379 29.9979 4.7638 30.2623 4.74096L34.0659 4.41337L35.5516 0.888642C35.6547 0.643402 36.0007 0.643402 36.1038 0.888642Z"/>
</mask>
<path d="M36.1038 0.888642L37.5895 4.41397L41.3931 4.74156C41.6569 4.7644 41.7642 5.09439 41.564 5.2681L38.6789 7.774L39.5434 11.5019C39.6034 11.761 39.3234 11.9647 39.0968 11.8271L35.828 9.85073L32.5592 11.8271C32.332 11.9641 32.0526 11.7604 32.1125 11.5019L32.9771 7.774L30.0914 5.2675C29.8912 5.09379 29.9979 4.7638 30.2623 4.74096L34.0659 4.41337L35.5516 0.888642C35.6547 0.643402 36.0007 0.643402 36.1038 0.888642Z" fill="#333333" stroke="#333333" stroke-width="2" mask="url(#path-3-inside-3)"/>
<mask id="path-4-inside-4" fill="white">
<path d="M50.9331 0.888642L52.4188 4.41397L56.2224 4.74156C56.4862 4.7644 56.5936 5.09439 56.3933 5.2681L53.5082 7.774L54.3728 11.5019C54.4327 11.761 54.1528 11.9647 53.9261 11.8271L50.6573 9.85073L47.3886 11.8271C47.1613 11.9641 46.8819 11.7604 46.9419 11.5019L47.8065 7.774L44.9208 5.2675C44.7205 5.09379 44.8273 4.7638 45.0917 4.74096L48.8952 4.41337L50.3809 0.888642C50.4841 0.643402 50.83 0.643402 50.9331 0.888642Z"/>
</mask>
<path d="M50.9331 0.888642L52.4188 4.41397L56.2224 4.74156C56.4862 4.7644 56.5936 5.09439 56.3933 5.2681L53.5082 7.774L54.3728 11.5019C54.4327 11.761 54.1528 11.9647 53.9261 11.8271L50.6573 9.85073L47.3886 11.8271C47.1613 11.9641 46.8819 11.7604 46.9419 11.5019L47.8065 7.774L44.9208 5.2675C44.7205 5.09379 44.8273 4.7638 45.0917 4.74096L48.8952 4.41337L50.3809 0.888642C50.4841 0.643402 50.83 0.643402 50.9331 0.888642Z" fill="#333333" stroke="#333333" stroke-width="2" mask="url(#path-4-inside-4)"/>
<mask id="path-5-inside-5" fill="white">
<path d="M65.7627 0.888642L67.2484 4.41397L71.052 4.74156C71.3158 4.7644 71.4231 5.09439 71.2229 5.2681L68.3378 7.774L69.2024 11.5019C69.2623 11.761 68.9823 11.9647 68.7557 11.8271L65.4869 9.85073L62.2182 11.8271C61.9909 11.9641 61.7115 11.7604 61.7715 11.5019L62.636 7.774L59.7504 5.2675C59.5501 5.09379 59.6568 4.7638 59.9213 4.74096L63.7248 4.41337L65.2105 0.888642C65.3137 0.643402 65.6596 0.643402 65.7627 0.888642Z"/>
</mask>
<path d="M65.7627 0.888642L67.2484 4.41397L71.052 4.74156C71.3158 4.7644 71.4231 5.09439 71.2229 5.2681L68.3378 7.774L69.2024 11.5019C69.2623 11.761 68.9823 11.9647 68.7557 11.8271L65.4869 9.85073L62.2182 11.8271C61.9909 11.9641 61.7115 11.7604 61.7715 11.5019L62.636 7.774L59.7504 5.2675C59.5501 5.09379 59.6568 4.7638 59.9213 4.74096L63.7248 4.41337L65.2105 0.888642C65.3137 0.643402 65.6596 0.643402 65.7627 0.888642Z" stroke="#333333" stroke-width="2" mask="url(#path-5-inside-5)"/>
</svg>
