<svg width="72" height="12" viewBox="0 0 72 12" fill="none" xmlns="http://www.w3.org/2000/svg">
<mask id="path-1-inside-1" fill="white">
<path d="M6.44437 1.01718L7.93007 4.54251L11.7337 4.8701C11.9975 4.89294 12.1048 5.22293 11.9045 5.39664L9.01946 7.90254L9.88402 11.6304C9.94398 11.8895 9.66399 12.0933 9.43736 11.9556L6.16857 9.97927L2.89979 11.9556C2.67256 12.0927 2.39317 11.8889 2.45312 11.6304L3.31768 7.90254L0.432017 5.39604C0.231765 5.22233 0.338486 4.89234 0.602891 4.8695L4.40648 4.54191L5.89218 1.01718C5.9953 0.771942 6.34125 0.771942 6.44437 1.01718Z"/>
</mask>
<path d="M6.44437 1.01718L7.93007 4.54251L11.7337 4.8701C11.9975 4.89294 12.1048 5.22293 11.9045 5.39664L9.01946 7.90254L9.88402 11.6304C9.94398 11.8895 9.66399 12.0933 9.43736 11.9556L6.16857 9.97927L2.89979 11.9556C2.67256 12.0927 2.39317 11.8889 2.45312 11.6304L3.31768 7.90254L0.432017 5.39604C0.231765 5.22233 0.338486 4.89234 0.602891 4.8695L4.40648 4.54191L5.89218 1.01718C5.9953 0.771942 6.34125 0.771942 6.44437 1.01718Z" fill="#333333" stroke="#333333" stroke-width="2" mask="url(#path-1-inside-1)"/>
<mask id="path-2-inside-2" fill="white">
<path d="M21.274 1.01718L22.7597 4.54251L26.5632 4.8701C26.8271 4.89294 26.9344 5.22293 26.7341 5.39664L23.8491 7.90254L24.7136 11.6304C24.7736 11.8895 24.4936 12.0933 24.2669 11.9556L20.9982 9.97927L17.7294 11.9556C17.5021 12.0927 17.2228 11.8889 17.2827 11.6304L18.1473 7.90254L15.2616 5.39604C15.0614 5.22233 15.1681 4.89234 15.4325 4.8695L19.2361 4.54191L20.7218 1.01718C20.8249 0.771942 21.1708 0.771942 21.274 1.01718Z"/>
</mask>
<path d="M21.274 1.01718L22.7597 4.54251L26.5632 4.8701C26.8271 4.89294 26.9344 5.22293 26.7341 5.39664L23.8491 7.90254L24.7136 11.6304C24.7736 11.8895 24.4936 12.0933 24.2669 11.9556L20.9982 9.97927L17.7294 11.9556C17.5021 12.0927 17.2228 11.8889 17.2827 11.6304L18.1473 7.90254L15.2616 5.39604C15.0614 5.22233 15.1681 4.89234 15.4325 4.8695L19.2361 4.54191L20.7218 1.01718C20.8249 0.771942 21.1708 0.771942 21.274 1.01718Z" stroke="#333333" stroke-width="2" mask="url(#path-2-inside-2)"/>
<mask id="path-3-inside-3" fill="white">
<path d="M36.1038 1.01718L37.5895 4.54251L41.3931 4.8701C41.6569 4.89294 41.7642 5.22293 41.564 5.39664L38.6789 7.90254L39.5434 11.6304C39.6034 11.8895 39.3234 12.0933 39.0968 11.9556L35.828 9.97927L32.5592 11.9556C32.332 12.0927 32.0526 11.8889 32.1125 11.6304L32.9771 7.90254L30.0914 5.39604C29.8912 5.22233 29.9979 4.89234 30.2623 4.8695L34.0659 4.54191L35.5516 1.01718C35.6547 0.771942 36.0007 0.771942 36.1038 1.01718Z"/>
</mask>
<path d="M36.1038 1.01718L37.5895 4.54251L41.3931 4.8701C41.6569 4.89294 41.7642 5.22293 41.564 5.39664L38.6789 7.90254L39.5434 11.6304C39.6034 11.8895 39.3234 12.0933 39.0968 11.9556L35.828 9.97927L32.5592 11.9556C32.332 12.0927 32.0526 11.8889 32.1125 11.6304L32.9771 7.90254L30.0914 5.39604C29.8912 5.22233 29.9979 4.89234 30.2623 4.8695L34.0659 4.54191L35.5516 1.01718C35.6547 0.771942 36.0007 0.771942 36.1038 1.01718Z" stroke="#333333" stroke-width="2" mask="url(#path-3-inside-3)"/>
<mask id="path-4-inside-4" fill="white">
<path d="M50.9331 1.01718L52.4188 4.54251L56.2224 4.8701C56.4862 4.89294 56.5936 5.22293 56.3933 5.39664L53.5082 7.90254L54.3728 11.6304C54.4327 11.8895 54.1528 12.0933 53.9261 11.9556L50.6573 9.97927L47.3886 11.9556C47.1613 12.0927 46.8819 11.8889 46.9419 11.6304L47.8065 7.90254L44.9208 5.39604C44.7205 5.22233 44.8273 4.89234 45.0917 4.8695L48.8952 4.54191L50.3809 1.01718C50.4841 0.771942 50.83 0.771942 50.9331 1.01718Z"/>
</mask>
<path d="M50.9331 1.01718L52.4188 4.54251L56.2224 4.8701C56.4862 4.89294 56.5936 5.22293 56.3933 5.39664L53.5082 7.90254L54.3728 11.6304C54.4327 11.8895 54.1528 12.0933 53.9261 11.9556L50.6573 9.97927L47.3886 11.9556C47.1613 12.0927 46.8819 11.8889 46.9419 11.6304L47.8065 7.90254L44.9208 5.39604C44.7205 5.22233 44.8273 4.89234 45.0917 4.8695L48.8952 4.54191L50.3809 1.01718C50.4841 0.771942 50.83 0.771942 50.9331 1.01718Z" stroke="#333333" stroke-width="2" mask="url(#path-4-inside-4)"/>
<mask id="path-5-inside-5" fill="white">
<path d="M65.7627 1.01718L67.2484 4.54251L71.052 4.8701C71.3158 4.89294 71.4231 5.22293 71.2229 5.39664L68.3378 7.90254L69.2024 11.6304C69.2623 11.8895 68.9823 12.0933 68.7557 11.9556L65.4869 9.97927L62.2182 11.9556C61.9909 12.0927 61.7115 11.8889 61.7715 11.6304L62.636 7.90254L59.7504 5.39604C59.5501 5.22233 59.6568 4.89234 59.9213 4.8695L63.7248 4.54191L65.2105 1.01718C65.3137 0.771942 65.6596 0.771942 65.7627 1.01718Z"/>
</mask>
<path d="M65.7627 1.01718L67.2484 4.54251L71.052 4.8701C71.3158 4.89294 71.4231 5.22293 71.2229 5.39664L68.3378 7.90254L69.2024 11.6304C69.2623 11.8895 68.9823 12.0933 68.7557 11.9556L65.4869 9.97927L62.2182 11.9556C61.9909 12.0927 61.7115 11.8889 61.7715 11.6304L62.636 7.90254L59.7504 5.39604C59.5501 5.22233 59.6568 4.89234 59.9213 4.8695L63.7248 4.54191L65.2105 1.01718C65.3137 0.771942 65.6596 0.771942 65.7627 1.01718Z" stroke="#333333" stroke-width="2" mask="url(#path-5-inside-5)"/>
</svg>
