<svg width="72" height="12" viewBox="0 0 72 12" fill="none" xmlns="http://www.w3.org/2000/svg">
<mask id="path-1-inside-1" fill="white">
<path d="M6.44437 0.598115L7.93007 4.12344L11.7337 4.45103C11.9975 4.47387 12.1048 4.80386 11.9045 4.97757L9.01946 7.48347L9.88402 11.2114C9.94398 11.4704 9.66399 11.6742 9.43736 11.5365L6.16857 9.5602L2.89979 11.5365C2.67256 11.6736 2.39317 11.4698 2.45312 11.2114L3.31768 7.48347L0.432017 4.97697C0.231765 4.80326 0.338486 4.47327 0.602891 4.45043L4.40648 4.12284L5.89218 0.598115C5.9953 0.352875 6.34125 0.352875 6.44437 0.598115Z"/>
</mask>
<path d="M6.44437 0.598115L7.93007 4.12344L11.7337 4.45103C11.9975 4.47387 12.1048 4.80386 11.9045 4.97757L9.01946 7.48347L9.88402 11.2114C9.94398 11.4704 9.66399 11.6742 9.43736 11.5365L6.16857 9.5602L2.89979 11.5365C2.67256 11.6736 2.39317 11.4698 2.45312 11.2114L3.31768 7.48347L0.432017 4.97697C0.231765 4.80326 0.338486 4.47327 0.602891 4.45043L4.40648 4.12284L5.89218 0.598115C5.9953 0.352875 6.34125 0.352875 6.44437 0.598115Z" fill="#333333" stroke="#333333" stroke-width="2" mask="url(#path-1-inside-1)"/>
<mask id="path-2-inside-2" fill="white">
<path d="M21.274 0.598115L22.7597 4.12344L26.5632 4.45103C26.8271 4.47387 26.9344 4.80386 26.7341 4.97757L23.8491 7.48347L24.7136 11.2114C24.7736 11.4704 24.4936 11.6742 24.2669 11.5365L20.9982 9.5602L17.7294 11.5365C17.5021 11.6736 17.2228 11.4698 17.2827 11.2114L18.1473 7.48347L15.2616 4.97697C15.0614 4.80326 15.1681 4.47327 15.4325 4.45043L19.2361 4.12284L20.7218 0.598115C20.8249 0.352875 21.1708 0.352875 21.274 0.598115Z"/>
</mask>
<path d="M21.274 0.598115L22.7597 4.12344L26.5632 4.45103C26.8271 4.47387 26.9344 4.80386 26.7341 4.97757L23.8491 7.48347L24.7136 11.2114C24.7736 11.4704 24.4936 11.6742 24.2669 11.5365L20.9982 9.5602L17.7294 11.5365C17.5021 11.6736 17.2228 11.4698 17.2827 11.2114L18.1473 7.48347L15.2616 4.97697C15.0614 4.80326 15.1681 4.47327 15.4325 4.45043L19.2361 4.12284L20.7218 0.598115C20.8249 0.352875 21.1708 0.352875 21.274 0.598115Z" fill="#333333" stroke="#333333" stroke-width="2" mask="url(#path-2-inside-2)"/>
<mask id="path-3-inside-3" fill="white">
<path d="M36.1038 0.598115L37.5895 4.12344L41.3931 4.45103C41.6569 4.47387 41.7642 4.80386 41.564 4.97757L38.6789 7.48347L39.5434 11.2114C39.6034 11.4704 39.3234 11.6742 39.0968 11.5365L35.828 9.5602L32.5592 11.5365C32.332 11.6736 32.0526 11.4698 32.1125 11.2114L32.9771 7.48347L30.0914 4.97697C29.8912 4.80326 29.9979 4.47327 30.2623 4.45043L34.0659 4.12284L35.5516 0.598115C35.6547 0.352875 36.0007 0.352875 36.1038 0.598115Z"/>
</mask>
<path d="M36.1038 0.598115L37.5895 4.12344L41.3931 4.45103C41.6569 4.47387 41.7642 4.80386 41.564 4.97757L38.6789 7.48347L39.5434 11.2114C39.6034 11.4704 39.3234 11.6742 39.0968 11.5365L35.828 9.5602L32.5592 11.5365C32.332 11.6736 32.0526 11.4698 32.1125 11.2114L32.9771 7.48347L30.0914 4.97697C29.8912 4.80326 29.9979 4.47327 30.2623 4.45043L34.0659 4.12284L35.5516 0.598115C35.6547 0.352875 36.0007 0.352875 36.1038 0.598115Z" fill="#333333" stroke="#333333" stroke-width="2" mask="url(#path-3-inside-3)"/>
<mask id="path-4-inside-4" fill="white">
<path d="M50.9331 0.598115L52.4188 4.12344L56.2224 4.45103C56.4862 4.47387 56.5936 4.80386 56.3933 4.97757L53.5082 7.48347L54.3728 11.2114C54.4327 11.4704 54.1528 11.6742 53.9261 11.5365L50.6573 9.5602L47.3886 11.5365C47.1613 11.6736 46.8819 11.4698 46.9419 11.2114L47.8065 7.48347L44.9208 4.97697C44.7205 4.80326 44.8273 4.47327 45.0917 4.45043L48.8952 4.12284L50.3809 0.598115C50.4841 0.352875 50.83 0.352875 50.9331 0.598115Z"/>
</mask>
<path d="M50.9331 0.598115L52.4188 4.12344L56.2224 4.45103C56.4862 4.47387 56.5936 4.80386 56.3933 4.97757L53.5082 7.48347L54.3728 11.2114C54.4327 11.4704 54.1528 11.6742 53.9261 11.5365L50.6573 9.5602L47.3886 11.5365C47.1613 11.6736 46.8819 11.4698 46.9419 11.2114L47.8065 7.48347L44.9208 4.97697C44.7205 4.80326 44.8273 4.47327 45.0917 4.45043L48.8952 4.12284L50.3809 0.598115C50.4841 0.352875 50.83 0.352875 50.9331 0.598115Z" stroke="#333333" stroke-width="2" mask="url(#path-4-inside-4)"/>
<mask id="path-5-inside-5" fill="white">
<path d="M65.7627 0.598115L67.2484 4.12344L71.052 4.45103C71.3158 4.47387 71.4231 4.80386 71.2229 4.97757L68.3378 7.48347L69.2024 11.2114C69.2623 11.4704 68.9823 11.6742 68.7557 11.5365L65.4869 9.5602L62.2182 11.5365C61.9909 11.6736 61.7115 11.4698 61.7715 11.2114L62.636 7.48347L59.7504 4.97697C59.5501 4.80326 59.6568 4.47327 59.9213 4.45043L63.7248 4.12284L65.2105 0.598115C65.3137 0.352875 65.6596 0.352875 65.7627 0.598115Z"/>
</mask>
<path d="M65.7627 0.598115L67.2484 4.12344L71.052 4.45103C71.3158 4.47387 71.4231 4.80386 71.2229 4.97757L68.3378 7.48347L69.2024 11.2114C69.2623 11.4704 68.9823 11.6742 68.7557 11.5365L65.4869 9.5602L62.2182 11.5365C61.9909 11.6736 61.7115 11.4698 61.7715 11.2114L62.636 7.48347L59.7504 4.97697C59.5501 4.80326 59.6568 4.47327 59.9213 4.45043L63.7248 4.12284L65.2105 0.598115C65.3137 0.352875 65.6596 0.352875 65.7627 0.598115Z" stroke="#333333" stroke-width="2" mask="url(#path-5-inside-5)"/>
</svg>
