<svg width="16" height="16" viewBox="0 0 16 16" fill="none" xmlns="http://www.w3.org/2000/svg">
<g clip-path="url(#clip0)">
<path d="M15.8971 15.1487L12.0417 11.2933C13.0741 10.0901 13.698 8.52796 13.698 6.82217C13.698 3.03046 10.614 -0.05 6.82584 -0.05C3.03412 -0.05 -0.0463379 3.03404 -0.0463379 6.82217C-0.0463379 10.6103 3.03769 13.6943 6.82584 13.6943C8.53163 13.6943 10.0938 13.0705 11.297 12.0381L15.1523 15.8934C15.2539 15.995 15.3908 16.05 15.5247 16.05C15.6577 16.05 15.7951 15.9992 15.8974 15.8931C16.1011 15.6891 16.101 15.3526 15.8971 15.1487ZM1.00799 6.82217C1.00799 3.61433 3.61795 1.00787 6.82229 1.00787C10.0301 1.00787 12.6366 3.61784 12.6366 6.82217C12.6366 10.0265 10.0301 12.64 6.82229 12.64C3.61799 12.64 1.00799 10.0301 1.00799 6.82217Z" fill="white" stroke="white" stroke-width="0.1"/>
</g>
<defs>
<clipPath id="clip0">
<rect width="16" height="16" fill="white"/>
</clipPath>
</defs>
</svg>
