<?xml version="1.0" encoding="utf-8"?>
<!-- Generator: Adobe Illustrator 22.0.1, SVG Export Plug-In . SVG Version: 6.00 Build 0)  -->
<svg version="1.1" id="Layer_1" xmlns="http://www.w3.org/2000/svg" xmlns:xlink="http://www.w3.org/1999/xlink" x="0px" y="0px"
	 viewBox="0 0 33.1 32.9" style="enable-background:new 0 0 33.1 32.9;" xml:space="preserve">
<style type="text/css">
	.st0{fill:#323232;}
</style>
<path class="st0" d="M32.7,32.7c0.4-0.4,0.4-1.1,0-1.5l-7.9-7.9c2.1-2.5,3.4-5.7,3.4-9.2c0-7.7-6.3-14-14-14s-14,6.3-14,14
	s6.3,14,14,14c3.5,0,6.7-1.3,9.2-3.4l7.9,7.9c0.2,0.2,0.5,0.3,0.7,0.3C32.3,33,32.5,32.9,32.7,32.7z M32.7,32.7L32.7,32.7L32.7,32.7
	L32.7,32.7L32.7,32.7z M2.3,14.1c0-6.6,5.4-11.9,11.9-11.9c6.6,0,11.9,5.4,11.9,11.9c0,6.6-5.3,11.9-11.9,11.9
	C7.6,26.1,2.3,20.7,2.3,14.1z"/>
</svg>
