<svg width="26" height="30" viewBox="0 0 26 30" fill="none" xmlns="http://www.w3.org/2000/svg">
<mask id="path-1-inside-1" fill="white">
<path d="M25.7434 8.13976L25.7425 8.11641C25.7294 7.82825 25.7207 7.52338 25.7154 7.18418C25.691 5.53006 24.376 4.1618 22.7217 4.06934C19.2724 3.87685 16.6041 2.75212 14.3243 0.529917L14.3048 0.511378C13.5612 -0.170459 12.4394 -0.170459 11.6956 0.511378L11.6761 0.529917C9.39622 2.75212 6.72792 3.87685 3.27868 4.06956C1.62456 4.1618 0.309407 5.53006 0.284917 7.18441C0.279881 7.52132 0.270955 7.82619 0.257909 8.11641L0.256535 8.17066C0.189473 11.6879 0.10616 16.0652 1.57054 20.0384C2.37575 22.2233 3.59523 24.1225 5.19488 25.6837C7.01677 27.4617 9.40309 28.8732 12.2874 29.8789C12.3813 29.9116 12.4788 29.9382 12.5781 29.9581C12.7182 29.986 12.8592 30 13.0002 30C13.1412 30 13.2824 29.986 13.4222 29.9581C13.5216 29.9382 13.6198 29.9114 13.7141 29.8784C16.595 28.8709 18.9788 27.4587 20.7991 25.681C22.398 24.1193 23.6175 22.2196 24.4234 20.0343C25.8933 16.0492 25.8102 11.6636 25.7434 8.13976ZM22.7718 19.4252C21.2273 23.6128 18.0745 26.4887 13.1332 28.2168C13.1155 28.2227 13.0968 28.228 13.0773 28.2319C13.0263 28.2419 12.9743 28.2419 12.9226 28.2316C12.9034 28.2277 12.8846 28.2227 12.8672 28.2168C7.92062 26.4919 4.76572 23.6176 3.22238 19.4298C1.87267 15.7675 1.94911 11.7492 2.01663 8.2043L2.01709 8.18462C2.03082 7.87998 2.03998 7.56092 2.04501 7.21027C2.056 6.47579 2.64102 5.86811 3.37687 5.82714C5.32877 5.7182 7.04355 5.341 8.61917 4.67404C10.1927 4.008 11.5903 3.06913 12.8912 1.80387C12.9574 1.74802 13.0432 1.74779 13.1091 1.80387C14.4103 3.06913 15.8079 4.008 17.3812 4.67404C18.9568 5.341 20.6716 5.7182 22.6237 5.82714C23.3596 5.86811 23.9446 6.47579 23.9554 7.2105C23.9606 7.56298 23.9698 7.88204 23.9835 8.18462C24.0508 11.7337 24.1254 15.7551 22.7718 19.4252Z"/>
</mask>
<path d="M25.7434 8.13976L25.7425 8.11641C25.7294 7.82825 25.7207 7.52338 25.7154 7.18418C25.691 5.53006 24.376 4.1618 22.7217 4.06934C19.2724 3.87685 16.6041 2.75212 14.3243 0.529917L14.3048 0.511378C13.5612 -0.170459 12.4394 -0.170459 11.6956 0.511378L11.6761 0.529917C9.39622 2.75212 6.72792 3.87685 3.27868 4.06956C1.62456 4.1618 0.309407 5.53006 0.284917 7.18441C0.279881 7.52132 0.270955 7.82619 0.257909 8.11641L0.256535 8.17066C0.189473 11.6879 0.10616 16.0652 1.57054 20.0384C2.37575 22.2233 3.59523 24.1225 5.19488 25.6837C7.01677 27.4617 9.40309 28.8732 12.2874 29.8789C12.3813 29.9116 12.4788 29.9382 12.5781 29.9581C12.7182 29.986 12.8592 30 13.0002 30C13.1412 30 13.2824 29.986 13.4222 29.9581C13.5216 29.9382 13.6198 29.9114 13.7141 29.8784C16.595 28.8709 18.9788 27.4587 20.7991 25.681C22.398 24.1193 23.6175 22.2196 24.4234 20.0343C25.8933 16.0492 25.8102 11.6636 25.7434 8.13976ZM22.7718 19.4252C21.2273 23.6128 18.0745 26.4887 13.1332 28.2168C13.1155 28.2227 13.0968 28.228 13.0773 28.2319C13.0263 28.2419 12.9743 28.2419 12.9226 28.2316C12.9034 28.2277 12.8846 28.2227 12.8672 28.2168C7.92062 26.4919 4.76572 23.6176 3.22238 19.4298C1.87267 15.7675 1.94911 11.7492 2.01663 8.2043L2.01709 8.18462C2.03082 7.87998 2.03998 7.56092 2.04501 7.21027C2.056 6.47579 2.64102 5.86811 3.37687 5.82714C5.32877 5.7182 7.04355 5.341 8.61917 4.67404C10.1927 4.008 11.5903 3.06913 12.8912 1.80387C12.9574 1.74802 13.0432 1.74779 13.1091 1.80387C14.4103 3.06913 15.8079 4.008 17.3812 4.67404C18.9568 5.341 20.6716 5.7182 22.6237 5.82714C23.3596 5.86811 23.9446 6.47579 23.9554 7.2105C23.9606 7.56298 23.9698 7.88204 23.9835 8.18462C24.0508 11.7337 24.1254 15.7551 22.7718 19.4252Z" fill="#FF8D20" stroke="white" stroke-width="0.4" mask="url(#path-1-inside-1)"/>
<mask id="path-2-inside-2" fill="white">
<path d="M12.9999 7.52405C8.87724 7.52405 5.52344 10.8781 5.52344 15.0005C5.52344 19.1231 8.87724 22.4771 12.9999 22.4771C17.1223 22.4771 20.4763 19.1231 20.4763 15.0005C20.4763 10.8781 17.1223 7.52405 12.9999 7.52405ZM12.9999 20.7166C9.84793 20.7166 7.28377 18.1524 7.28377 15.0005C7.28377 11.8485 9.84793 9.28438 12.9999 9.28438C16.1516 9.28438 18.7157 11.8485 18.7157 15.0005C18.7157 18.1524 16.1516 20.7166 12.9999 20.7166Z"/>
</mask>
<path d="M12.9999 7.52405C8.87724 7.52405 5.52344 10.8781 5.52344 15.0005C5.52344 19.1231 8.87724 22.4771 12.9999 22.4771C17.1223 22.4771 20.4763 19.1231 20.4763 15.0005C20.4763 10.8781 17.1223 7.52405 12.9999 7.52405ZM12.9999 20.7166C9.84793 20.7166 7.28377 18.1524 7.28377 15.0005C7.28377 11.8485 9.84793 9.28438 12.9999 9.28438C16.1516 9.28438 18.7157 11.8485 18.7157 15.0005C18.7157 18.1524 16.1516 20.7166 12.9999 20.7166Z" fill="#FF8D20" stroke="white" stroke-width="0.4" mask="url(#path-2-inside-2)"/>
<mask id="path-3-inside-3" fill="white">
<path d="M15.1482 12.6794L11.6756 16.152L10.733 15.2095C10.3892 14.8657 9.83191 14.8657 9.48813 15.2095C9.14458 15.5532 9.14458 16.1106 9.48813 16.4541L11.0532 18.0192C11.2251 18.1911 11.4503 18.2769 11.6756 18.2769C11.9008 18.2769 12.126 18.1911 12.2979 18.0192L16.393 13.9241C16.7366 13.5803 16.7366 13.0229 16.393 12.6794C16.0493 12.3354 15.4919 12.3354 15.1482 12.6794Z"/>
</mask>
<path d="M15.1482 12.6794L11.6756 16.152L10.733 15.2095C10.3892 14.8657 9.83191 14.8657 9.48813 15.2095C9.14458 15.5532 9.14458 16.1106 9.48813 16.4541L11.0532 18.0192C11.2251 18.1911 11.4503 18.2769 11.6756 18.2769C11.9008 18.2769 12.126 18.1911 12.2979 18.0192L16.393 13.9241C16.7366 13.5803 16.7366 13.0229 16.393 12.6794C16.0493 12.3354 15.4919 12.3354 15.1482 12.6794Z" fill="#FF8D20" stroke="white" stroke-width="0.4" mask="url(#path-3-inside-3)"/>
</svg>
