<svg width="143" height="111" viewBox="0 0 143 111" fill="none" xmlns="http://www.w3.org/2000/svg">
<path d="M76.2 85.2999L77.2 86.9999L76.2 88.6999H74.3L73.3 86.9999L74.3 85.2999H76.2ZM76.7 84.3999H73.7L72.2 86.9999L73.7 89.5999H76.7L78.2 86.9999L76.7 84.3999Z" fill="#323232"/>
<path d="M71.8999 88.1002L72.5999 89.3002L71.0999 91.8002C69.8999 90.8002 69.1999 89.5002 68.8999 88.1002H71.8999ZM72.0999 87.7002H68.3999C68.5999 89.6002 69.5999 91.3002 71.1999 92.4002L72.9999 89.3002L72.0999 87.7002Z" fill="#323232"/>
<path d="M75.9 90.4L77.4 92.9C76.7 93.2 76 93.3 75.3 93.3C74.6 93.3 73.8 93.2 73.1 92.9L74.6 90.4H75.9ZM76.1 90H74.3L72.5 93.1C73.4 93.5 74.3 93.7 75.2 93.7C76.1 93.7 77 93.5 77.9 93.1L76.1 90Z" fill="#323232"/>
<path d="M78.4999 88.1002H81.4999C81.1999 89.6002 80.4999 90.9002 79.2999 91.8002L77.7999 89.3002L78.4999 88.1002ZM78.2999 87.7002L77.3999 89.3002L79.1999 92.4002C80.7999 91.3002 81.7999 89.6002 81.9999 87.7002H78.2999Z" fill="#323232"/>
<path d="M79.2999 82.1C80.4999 83.1 81.1999 84.4 81.4999 85.8H78.4999L77.7999 84.6L79.2999 82.1ZM79.1999 81.5L77.3999 84.6L78.2999 86.2H81.9999C81.6999 84.4 80.6999 82.7 79.1999 81.5Z" fill="#323232"/>
<path d="M75.2 80.6002C75.9 80.6002 76.7 80.7002 77.3 81.0002L75.8 83.5002H74.4L72.9 81.0002C73.7 80.7002 74.5 80.6002 75.2 80.6002ZM75.2 80.2002C74.3 80.2002 73.4 80.4002 72.5 80.8002L74.3 83.9002H76.1L77.9 80.8002C77 80.4002 76.1 80.2002 75.2 80.2002Z" fill="#323232"/>
<path d="M71.0999 82.1L72.5999 84.6L71.8999 85.8H68.8999C69.1999 84.4 69.8999 83.1 71.0999 82.1ZM71.1999 81.5C69.5999 82.6 68.5999 84.3 68.3999 86.2H72.0999L72.9999 84.6C72.9999 84.7 71.1999 81.5 71.1999 81.5Z" fill="#323232"/>
<path d="M75.2 77.6C80.4 77.6 84.6 81.8 84.6 87C84.6 92.2 80.4 96.4 75.2 96.4C70 96.4 65.8 92.2 65.8 87C65.8 81.8 70 77.6 75.2 77.6ZM75.2 76C69.1 76 64.2 80.9 64.2 87C64.2 93.1 69.1 98 75.2 98C81.3 98 86.2 93.1 86.2 87C86.2 80.9 81.2 76 75.2 76Z" fill="#323232"/>
<path d="M75.2 95.1002C70.7 95.1002 67 91.4002 67 86.9002C67 82.4002 70.7 78.7002 75.2 78.7002C79.7 78.7002 83.4 82.4002 83.4 86.9002C83.4 91.4002 79.7 95.1002 75.2 95.1002ZM75.2 79.6002C71.2 79.6002 67.9 82.9002 67.9 86.9002C67.9 90.9002 71.2 94.2002 75.2 94.2002C79.2 94.2002 82.5 90.9002 82.5 86.9002C82.5 82.9002 79.2 79.6002 75.2 79.6002Z" fill="#323232"/>
<path d="M0.699951 40C4.69995 40.2 8.59998 40.6 12.6 41C13.6 41.1 14.6 41.2 15.6 41.3L17.1 41.5C17.6 41.6 18.1 41.6 18.7 41.9C20.7 42.6 22.4 43.6 24.2 44.7C31.1 48.9 37.2 54.5 41.9 61.1C44.2 64.4 46.2 68.1 47.5 72C48.8 75.9 49.6 80 49.5 84C49.6 88.1 48.6 92.3 46.5 95.8C45.4 97.5 44.1 99.1 42.6 100.4C41.1 101.7 39.3 102.8 37.5 103.5C41 101.6 43.8 98.6 45.5 95.2C47.3 91.7 47.9 87.8 47.6 84L47.5 82.5L47.3 81.1C47.2 80.1 47 79.2 46.9 78.2C46.5 76.2999 46 74.4 45.3 72.6C44 69 42.1 65.5 39.9 62.3C35.5 55.9 29.6 50.5 23.2 46C21.6 44.9 19.9 43.8 18.2 43.1C17.8 42.9 17.4 42.8 16.9 42.7L15.5 42.4L12.6 41.8L0.699951 40Z" fill="#323232"/>
<path d="M10.7 104.5C9.29995 104.4 7.89995 104 6.69995 103.2C5.49995 102.4 4.49996 101.3 3.79996 100C3.09996 98.7003 2.79995 97.2003 2.69995 95.8003C2.59995 95.1003 2.59998 94.4003 2.59998 93.7003L2.49997 91.6003C2.29997 86.1003 2.29995 80.5003 2.19995 75.0003C2.19995 69.5003 2.29997 63.9003 2.49997 58.4003C2.69997 52.9003 2.89996 47.3003 3.39996 41.8003C3.89996 47.3003 4.19996 52.9003 4.29996 58.4003C4.49996 63.9003 4.49998 69.5003 4.59998 75.0003C4.59998 80.5003 4.49996 86.1003 4.29996 91.6003C4.29996 94.4003 3.79996 97.1003 4.79996 99.5003C5.69996 102 7.99995 103.9 10.7 104.5Z" fill="#323232"/>
<path d="M35.1 104C34.4 105.1 33.6 106 32.8 107L32.7 107.1H32.4C29.5 107.4 26.6 107.6 23.8 107.6C22.4 107.6 20.9 107.6 19.5 107.5C18.1 107.4 16.6 107.3 15.2 107.2H14.9L14.8 107.1C14 106.1 13.2 105.1 12.5 104C13.6 104.7 14.6 105.5 15.6 106.3L15.2 106.1C16.6 105.9 18.1 105.8 19.5 105.8C20.9 105.7 22.4 105.7 23.8 105.7C26.7 105.7 29.6 105.9 32.4 106.2L32 106.4C33.1 105.5 34.1 104.8 35.1 104Z" fill="#323232"/>
<path d="M12.5 97.7001C13.2 96.6001 14 95.6001 14.8 94.6001L14.9 94.5001H15.2C16.6 94.3001 18.1 94.2001 19.5 94.2001C20.9 94.1001 22.4 94.1001 23.8 94.1001C26.7 94.1001 29.6 94.3001 32.4 94.6001H32.7L32.8 94.7001C33.6 95.7001 34.4 96.7001 35.1 97.7001C34 97.0001 33.1 96.2001 32.1 95.4001L32.5 95.6001C29.6 95.9001 26.7 96.1001 23.9 96.1001C22.5 96.1001 21 96.1001 19.6 96.0001C18.2 95.9001 16.7 95.8001 15.3 95.7001L15.7 95.5001C14.6 96.2001 13.6 96.9001 12.5 97.7001Z" fill="#323232"/>
<path d="M10.7 53.1001C15.7 54.1001 20.5 55.9001 25.1 58.2001C29.7 60.5001 33.9 63.6001 37.4 67.4001C39.1 69.3001 40.6 71.5001 41.7 73.9001C42.7999 76.3001 43.5 78.8001 43.8 81.4001C44.1 84.0001 44 86.6001 43.5 89.1001C43.3 90.4001 42.9 91.6001 42.5 92.8001C42 94.0001 41.5 95.2001 40.8 96.2001C41.9 93.9001 42.5 91.4001 42.8 89.0001C43.1 86.5001 43.1 84.0001 42.7 81.6001C42 76.7001 39.7 72.1001 36.4 68.4001C33.1 64.7001 29 61.7001 24.7 59.2001C22.5 57.9001 20.3 56.8001 17.9 55.8001C15.5 54.8001 13.1 53.9001 10.7 53.1001Z" fill="#323232"/>
<path d="M15.2 80.2003C16.5 79.8003 17.7 79.2003 18.8 78.4003C19.9 77.7003 20.9 76.8003 21.6 75.7003C23.2 73.6003 23.6 70.9003 23.4 68.3003C23.2 65.7003 22 63.3003 20.3 61.2003C19.5 60.2003 18.5 59.3003 17.4 58.5003C16.4 57.7003 15.2 56.9003 14 56.3003C16.6 57.2003 18.9 58.7003 20.8 60.7003C22.7 62.7003 24.1 65.3003 24.3 68.2003C24.4 69.6003 24.3 71.0003 24 72.4003C23.7 73.8003 23 75.1003 22.1 76.2003C20.5 78.4003 17.9 79.7003 15.2 80.2003Z" fill="#323232"/>
<path d="M48.4999 97.3003H42.3999V98.3003H48.4999V97.3003Z" fill="#323232"/>
<path d="M36.3 0.100098C37.3 1.4001 38.2 2.8001 39.1 4.1001C40 5.4001 41 6.8001 41.9 8.1001C43.7 10.8001 45.5 13.5001 47.3 16.3001L47.7 16.9001L47 17.3001C45.4 18.3001 43.8 19.2001 42.2 20.1001C40.6 21.0001 39 22.0001 37.4 22.9001L37.1 23.1001L36.8 23.0001L33.7 21.8001L33.3 21.6001L33.2 21.2001C32.7 18.6001 32.2 16.1001 31.8 13.5001C31.3 10.9001 30.9 8.40011 30.5 5.80011V5.70007V5.6001L31.6 2.00012V1.90009H31.7C32.9 1.30009 34 0.80011 35.2 0.30011C34.1 1.00011 33 1.70011 31.9 2.30011L32 2.20007L31.3 5.90009V5.70007C31.9 8.20007 32.5 10.8001 33.1 13.3001C33.7 15.8001 34.2 18.4001 34.8 21.0001L34.3 20.4001L37.5 21.6001L36.8 21.7001C38.4 20.8001 40 19.9001 41.6 18.9001C43.2 18.0001 44.8 17.1001 46.4 16.2001L46.1 17.2001C44.4 14.4001 42.8 11.6001 41.1 8.80011C40.3 7.40011 39.5 6.00012 38.7 4.50012C37.8 3.00012 37 1.6001 36.3 0.100098Z" fill="#323232"/>
<path d="M46.6001 18.5C48.6001 21.6 50.2001 24.8 51.6001 28.2C52.3001 29.9 52.9001 31.6 53.5001 33.3C54.1001 35 54.5001 36.8 55.0001 38.5C55.8001 42 56.5001 45.6 57.0001 49.2C57.4001 52.7999 57.7001 56.4 57.6001 60C56.7001 56.5 55.9001 53 55.2001 49.5C54.4001 46 53.6001 42.5 52.8001 39.1C52.0001 35.6 51.0001 32.3 49.9001 28.8L46.6001 18.5Z" fill="#323232"/>
<path d="M35.8001 23.3999C35.4001 23.5999 35.4001 24.0999 35.4001 24.4999C35.4001 24.8999 35.4001 25.2999 35.5001 25.6999C35.6001 26.4999 35.8001 27.2999 36.0001 28.1999C36.4001 29.8999 36.8001 31.4999 37.1001 33.1999C37.8001 36.4999 38.5001 39.8999 39.1001 43.2999C39.4001 44.9999 39.6001 46.6999 39.9001 48.3999C40.0001 49.2999 40.1001 50.0999 40.2001 50.9999C40.2001 51.4999 40.3001 51.7999 40.3001 52.1999C40.4001 52.5999 40.4001 52.9999 40.6001 53.3999C41.5001 56.4999 43.3001 59.4999 45.3001 62.2999C44.0001 61.0999 42.9001 59.7999 41.9001 58.3999C40.9001 56.9999 40.0001 55.4999 39.4001 53.7999C39.2001 53.3999 39.1001 52.8999 39.0001 52.4999C38.9001 52.0999 38.8001 51.5999 38.8001 51.1999C38.7001 50.3999 38.6001 49.4999 38.4001 48.6999L37.6001 43.6999C37.0001 40.2999 36.5001 36.9999 36.0001 33.5999C35.7001 31.8999 35.5001 30.1999 35.3001 28.4999C35.2001 27.6999 35.1001 26.7999 35.1001 25.8999C35.1001 25.4999 35.1001 24.9999 35.2001 24.5999C35.3001 23.9999 35.4001 23.4999 35.8001 23.3999Z" fill="#323232"/>
<path d="M58.1 63.6999C57 63.9999 55.8 64.1999 54.7 64.2999C53.6 64.3999 52.4 64.4999 51.3 64.4999C50.2 64.4999 49 64.4999 47.9 64.2999C46.8 64.1999 45.6 63.9999 44.5 63.6999C45.6 63.3999 46.8 63.1999 47.9 63.0999C49 62.9999 50.2 62.8999 51.3 62.8999C52.4 62.8999 53.6 62.9999 54.7 63.0999C55.8 63.1999 57 63.3999 58.1 63.6999Z" fill="#323232"/>
<path d="M89.2 78.6001C90.9 78.7001 92.6 79.0001 94.3 79.3001C95.1 79.4001 96 79.6001 96.8 79.8001C97.6 80.0001 98.5 80.1001 99.3 80.3001C102.6 81.0001 105.9 81.9001 109.1 82.9001L110.3 83.3001L109.9 84.4001C109.6 85.3001 109.2 86.2001 108.9 87.0001C108.8 87.3001 108.6 87.7001 108.3 88.0001C108 88.3001 107.6 88.5001 107.3 88.6001C106.7 88.8001 106.2 88.9001 105.7 88.9001C103.7 89.1001 101.8 89.1001 99.9 89.1001C101.7 88.4001 103.6 87.9001 105.5 87.4001C105.9 87.3001 106.4 87.1001 106.7 87.0001C107 86.8001 106.9 86.9001 107 86.5001C107.3 85.5001 107.5 84.6001 107.8 83.7001L108.6 85.2001C105.3 84.4001 102 83.5001 98.8 82.5001C98 82.3001 97.2 82.0001 96.4 81.7001C95.6 81.4001 94.8 81.1001 94 80.8001C92.4 80.0001 90.8 79.4001 89.2 78.6001Z" fill="#323232"/>
<path d="M59.9999 81.4003C59.7999 79.2003 59.5999 77.0003 59.4999 74.9003C59.3999 72.7003 59.2999 70.5003 59.2999 68.4003C59.1999 64.0003 59.1999 59.7003 59.2999 55.3003V55.0003L59.4999 54.8003C59.8999 54.4003 60.3999 53.9003 60.7999 53.5003L60.9999 53.3003H61.1998C62.8998 53.4003 64.5999 53.6003 66.2999 53.9003C64.5999 54.2003 62.8998 54.4003 61.1998 54.5003L61.6998 54.3003C61.2998 54.8003 60.8999 55.3003 60.4999 55.7003L60.6998 55.2003C60.7998 59.6003 60.7998 63.9003 60.6998 68.3003C60.6998 70.5003 60.5999 72.7003 60.4999 74.8003C60.3999 77.1003 60.2999 79.2003 59.9999 81.4003Z" fill="#323232"/>
<path d="M86.8 77.7999L91.1001 68.7999L95.5001 59.7999C97.0001 56.7999 98.3001 53.7999 100 50.8999C101.6 47.9999 103.3 45.0999 105.2 42.3999L105.3 42.4999C104.2 45.6999 102.8 48.6999 101.3 51.6999C99.9 54.6999 98.2001 57.5999 96.6001 60.4999L91.8 69.1999L86.9001 77.8999L86.8 77.7999Z" fill="#323232"/>
<path d="M90.3 76.8C91.6 73.8 93.1001 70.8 94.6001 67.8C96.1001 64.8 97.7 61.9 99.3 59L108.7 41.5H108.8L99.9001 59.3C98.4001 62.3 97.0001 65.2 95.4001 68.2C93.7001 71.1 92.1 74 90.3 76.8Z" fill="#323232"/>
<path d="M114.3 19.3C117 20.1 119.7 21 122.4 21.8L123 22L122.7 22.6C121.7 24.7 120.6 26.7 119.5 28.8C118.3 30.8 117.2 32.9 115.8 34.8C114.3 36.8 112.3 38.4 110.2 39.6C108.1 40.8 105.9 41.7 103.4 42.3L102.3 42.6L102 41.5C101.2 38.2 100.6 34.9 100.4 31.4C100.3 29.7 100.3 28 100.5 26.3C100.5 25.9 100.6 25.4 100.7 25C100.8 24.6 100.8 24.1 100.9 23.7C101.1 22.9 101.3 21.9 101.8 21.1C102.7 19.4 104.2 18.2 105.8 17.4C107.4 16.6 109.1 16.2 110.8 15.9C114.2 15.4 117.5 15.6 120.8 16.1C117.5 16 114.1 16.2 111 17C109.4 17.4 107.9 17.9 106.5 18.7C105.2 19.5 104 20.5 103.4 21.9C103.1 22.5 102.9 23.3 102.8 24C102.7 24.4 102.7 24.8 102.6 25.2C102.6 25.6 102.5 26 102.5 26.4C102.4 28 102.4 29.6 102.6 31.2C102.9 34.4 103.4 37.7 104.2 40.8L102.8 39.9C104.9 39.4 107 38.6 109 37.5C110.9 36.4 112.7 35.2 114.1 33.5C115.5 31.7 116.8 29.8 118 27.9C119.3 26 120.5 24 121.7 22.1L122 22.9C119.4 21.8 116.9 20.6 114.3 19.3Z" fill="#323232"/>
<path d="M122.8 16.1002C123.7 14.4002 124.6 12.7002 125.5 11.1002C126 10.3002 126.3 9.4002 127 8.7002C127.6 8.0002 128.3 7.3002 129.2 6.7002L129.3 6.80023C129.1 7.80023 128.7 8.70022 128.3 9.60022C127.9 10.5002 127.2 11.1002 126.6 11.9002C125.4 13.4002 124.2 14.9002 122.9 16.3002L122.8 16.1002Z" fill="#323232"/>
<path d="M124.3 18.4999L124.5 21.5999L124.2 21.2999C125.5 21.1999 126.9 21.2999 128.2 21.4999C128.9 21.5999 129.5 21.7999 130.2 22.0999C130.8 22.3999 131.4 22.6999 132 22.9999C133.2 23.5999 134.3 24.2999 135.3 25.0999C136.3 25.8999 137.3 26.7999 138.1 27.8999L138 27.9999C136.7 27.5999 135.6 26.9999 134.4 26.2999C133.3 25.6999 132.2 24.9999 131.2 24.1999C130.7 23.7999 130.1 23.4999 129.6 23.1999C129.1 22.8999 128.5 22.6999 127.9 22.4999C126.7 22.0999 125.4 21.8999 124.2 21.7999H123.9V21.4999L124.1 18.3999H124.3V18.4999Z" fill="#323232"/>
<path d="M88.5001 71.2999C87.0001 71.3999 85.5001 71.4999 83.9001 71.4999L79.3 71.6999C76.3 71.7999 73.2 71.8999 70.2 71.9999H69.9001L69.7 71.7999L67.4001 69.5999L67.2 69.3999V68.9999C67.1 63.4999 67.0001 57.8999 66.9001 52.3999L66.8 44.0999V35.7999V35.2999L67.2 34.9999L69.5001 32.6999L69.9001 32.3999H70.4001C74.1001 32.3999 77.7001 32.3999 81.4001 32.4999C85.1001 32.4999 88.7001 32.5999 92.4001 32.6999H92.8L93.0001 32.9999L95.2 35.2999L95.5001 35.5999V35.8999L95.3 41.4999C95.2 43.3999 95.2001 45.2999 95.1001 47.0999C94.9001 50.8999 94.8001 54.5999 94.6001 58.3999C94.4001 54.5999 94.3001 50.8999 94.1001 47.0999C94.0001 45.1999 94.0001 43.2999 93.9001 41.4999L93.7 35.8999L94.0001 36.4999L91.7 34.2999L92.4001 34.5999C88.7001 34.6999 85.1001 34.6999 81.4001 34.7999C77.7001 34.8999 74.1001 34.8999 70.4001 34.8999L71.2 34.5999L68.9001 36.8999L69.2 36.0999V44.3999L69.1001 52.6999C69.0001 58.1999 68.9 63.7999 68.8 69.2999L68.6001 68.6999L70.8 70.9999L70.3 70.7999C73.3 70.8999 76.4001 70.9999 79.4001 71.0999L84.0001 71.2999C85.5001 71.1999 87.0001 71.2999 88.5001 71.2999Z" fill="#323232"/>
<path d="M87.4999 63.7001C87.1999 60.1001 86.9999 56.6001 86.8999 53.0001C86.7999 49.4001 86.6999 45.9001 86.6999 42.3001V41.0001C86.6999 40.7001 86.5999 40.5001 86.3999 40.3001C86.1999 40.1001 85.9999 40.0001 85.6999 39.9001C85.5999 39.9001 85.2999 39.9001 85.0999 39.9001H84.3999H83.0999C82.8999 39.9001 82.5999 39.9001 82.4999 39.9001C82.3999 39.9001 82.1999 40.0001 82.0999 40.0001C81.7999 40.1001 81.5999 40.3001 81.4999 40.6001C81.3999 40.7001 81.3999 40.9001 81.3999 41.1001V41.8001L81.2999 43.1001C81.2999 43.5001 81.2999 44.1001 80.9999 44.6001C80.6999 45.1001 80.2999 45.4001 79.6999 45.6001C79.3999 45.7001 79.1999 45.7001 78.8999 45.7001H78.1999C76.3999 45.6001 74.5999 45.5001 72.8999 45.4001C74.6999 45.3001 76.4999 45.2001 78.1999 45.1001H78.8999C79.0999 45.1001 79.2999 45.0001 79.3999 45.0001C79.6999 44.9001 79.9999 44.6001 80.0999 44.3001C80.2999 44.0001 80.1999 43.7001 80.1999 43.2001L80.0999 41.9001V41.2001C80.0999 41.0001 80.0999 40.6001 80.1999 40.3001C80.3999 39.7001 80.7999 39.2001 81.2999 38.9001C81.5999 38.7001 81.8999 38.6001 82.1999 38.6001C82.4999 38.5001 82.7999 38.6001 82.9999 38.6001H84.2999H84.9999C85.1999 38.6001 85.3999 38.6001 85.7999 38.6001C86.3999 38.7001 86.9999 39.0001 87.3999 39.5001C87.7999 40.0001 88.0999 40.6001 88.0999 41.2001V42.5001C88.0999 46.1001 88.0999 49.6001 87.8999 53.2001C88.0999 56.6001 87.8999 60.2001 87.4999 63.7001Z" fill="#323232"/>
<path d="M58 93.4999C61.2 93.4999 63.8 96.0999 63.8 99.2999C63.8 102.5 61.2 105.1 58 105.1C54.8 105.1 52.2 102.5 52.2 99.2999C52.2 96.1999 54.8 93.4999 58 93.4999ZM58 91.8999C53.9 91.8999 50.5 95.2999 50.5 99.3999C50.5 103.5 53.9 106.9 58 106.9C62.1 106.9 65.5 103.5 65.5 99.3999C65.5 95.1999 62.2 91.8999 58 91.8999Z" fill="#323232"/>
<path d="M94.6001 93.4999C97.8001 93.4999 100.4 96.0999 100.4 99.2999C100.4 102.5 97.8001 105.1 94.6001 105.1C91.4001 105.1 88.8001 102.5 88.8001 99.2999C88.7001 96.1999 91.4001 93.4999 94.6001 93.4999ZM94.6001 91.8999C90.5001 91.8999 87.1001 95.2999 87.1001 99.3999C87.1001 103.5 90.5001 106.9 94.6001 106.9C98.7001 106.9 102.1 103.5 102.1 99.3999C102.1 95.1999 98.7001 91.8999 94.6001 91.8999Z" fill="#323232"/>
<path d="M58 103.2C55.9 103.2 54.2 101.5 54.2 99.4001C54.2 97.3001 55.9 95.6001 58 95.6001C60.1 95.6001 61.8 97.3001 61.8 99.4001C61.8 101.5 60.2 103.2 58 103.2ZM58 96.5001C56.4 96.5001 55.1 97.8001 55.1 99.4001C55.1 101 56.4 102.3 58 102.3C59.6 102.3 60.9 101 60.9 99.4001C60.9 97.8001 59.7 96.5001 58 96.5001Z" fill="#323232"/>
<path d="M94.6001 103.2C92.5001 103.2 90.8 101.5 90.8 99.4001C90.8 97.3001 92.5001 95.6001 94.6001 95.6001C96.7001 95.6001 98.4001 97.3001 98.4001 99.4001C98.4001 101.5 96.7001 103.2 94.6001 103.2ZM94.6001 96.5001C93.0001 96.5001 91.7 97.8001 91.7 99.4001C91.7 101 93.0001 102.3 94.6001 102.3C96.2001 102.3 97.5001 101 97.5001 99.4001C97.5001 97.8001 96.2001 96.5001 94.6001 96.5001Z" fill="#323232"/>
<path d="M57.7999 109.9V107.2C57.2999 107.2 56.7999 107.1 56.2999 107L55.3999 109.5L54.7999 109.3C53.7999 108.9 52.7999 108.4 51.8999 107.8C50.9999 107.2 50.2999 106.4 49.5999 105.5C48.9999 104.6 48.4999 103.7 48.0999 102.7L47.8999 102.1L50.3999 101.2C50.2999 100.8 50.1999 100.4 50.0999 99.9999L47.3999 100.1V99.4999C47.3999 98.3999 47.4999 97.2999 47.7999 96.1999C48.0999 95.0999 48.5999 94.1999 49.2999 93.1999C49.5999 92.7999 49.9999 92.3999 50.3999 91.9999L51.7999 90.5999L53.6999 92.4999L54.6999 91.4999L52.7999 89.5999L59.2999 83.0999L61.1999 84.9999L62.1999 83.9999L60.2999 82.0999L66.8999 75.4999L68.6999 77.5999C68.8999 77.4999 68.9999 77.3999 69.1999 77.2999C69.3999 77.1999 69.5999 77.0999 69.7999 76.9999L68.6999 74.5999L69.1999 74.2999C70.0999 73.8999 71.0999 73.5999 72.1999 73.3999C73.1999 73.1999 74.1999 73.0999 75.2999 73.1999C76.2999 73.1999 77.2999 73.3999 78.2999 73.5999L78.8999 73.6999L78.2999 76.2999C78.6999 76.3999 79.0999 76.5999 79.4999 76.6999L80.6999 74.2999L81.1999 74.5999C82.0999 74.9999 82.9999 75.5999 83.8999 76.1999L88.3999 80.1999L86.6999 82.1999L87.7999 83.1999L89.4999 81.1999L96.3999 87.2999L94.5999 89.2999L95.6999 90.2999L97.4999 88.2999L102 92.2999C102.8 92.9999 103.5 93.7999 104.1 94.9999L104.4 95.4999L102 96.6999C102.1 97.0999 102.3 97.4999 102.3 97.8999L105 97.5999L105.1 98.1999C105.2 99.2999 105.2 100.4 104.9 101.5C104.7 102.5 104.3 103.6 103.8 104.5C103.3 105.5 102.6 106.3 101.8 107.1L101.4 107.5L99.4999 105.6C99.1999 105.9 98.7999 106.1 98.4999 106.3L99.6999 108.7L99.1999 109C98.1999 109.5 97.1999 109.8 96.1999 110.1H95.9999C95.7999 110.1 95.5999 110.2 95.3999 110.2H95.1999C94.9999 110.2 94.6999 110.2 94.4999 110.2H89.8999L89.7999 107.5H88.2999L88.3999 110.2H79.1999L79.0999 107.5H77.5999V110.2H68.3999V107.5H66.8999V110.2L57.7999 109.9ZM58.9999 106.7V108.8H65.7999V106.1H69.6999V108.8H76.4999V106.1H80.3999L80.4999 108.8H87.2999L87.1999 106.1H91.0999L91.1999 108.8H94.5999C94.7999 108.8 94.8999 108.8 95.0999 108.8H95.2999C95.4999 108.8 95.6999 108.8 95.7999 108.7H95.9999C96.6999 108.6 97.4999 108.3 98.1999 108L96.9999 105.6L97.4999 105.3C98.0999 105 98.6999 104.6 99.1999 104.1L99.5999 103.7L101.5 105.6C102 105 102.4 104.4 102.8 103.7C103.3 102.8 103.6 101.9 103.8 101C104 100.2 104 99.3999 104 98.6999L101.4 98.9999L101.3 98.3999C101.2 97.6999 101 97.0999 100.7 96.4999L100.4 95.9999L102.8 94.7999C102.4 94.0999 101.9 93.4999 101.3 92.9999L97.6999 89.7999L95.8999 91.7999L92.9999 89.1999L94.7999 87.1999L89.6999 82.6999L87.9999 84.6999L85.0999 82.0999L86.7999 80.0999L83.1999 76.8999C82.5999 76.3999 81.9999 75.9999 81.2999 75.6999L80.1999 78.0999L79.6999 77.7999C78.9999 77.4999 78.2999 77.1999 77.5999 77.0999L76.9999 76.9999L77.5999 74.3999C76.8999 74.2999 76.0999 74.1999 75.3999 74.1999C74.3999 74.1999 73.4999 74.1999 72.5999 74.3999C71.8999 74.4999 71.0999 74.7999 70.3999 74.9999L71.4999 77.3999L70.8999 77.5999C70.5999 77.7999 70.1999 77.8999 69.8999 78.0999C69.5999 78.2999 69.2999 78.4999 69.0999 78.6999L68.5999 79.0999L66.8999 77.0999L62.0999 81.9999L63.9999 83.8999L61.2999 86.6999L59.3999 84.7999L54.5999 89.5999L56.4999 91.4999L53.7999 94.2999L51.8999 92.3999L51.3999 92.8999C51.0999 93.1999 50.6999 93.5999 50.3999 93.9999C49.7999 94.7999 49.3999 95.6999 49.0999 96.5999C48.8999 97.2999 48.6999 98.0999 48.6999 98.8999L51.2999 98.7999V99.3999C51.2999 100.1 51.4999 100.8 51.6999 101.4L51.8999 102L49.3999 102.9C49.6999 103.6 50.0999 104.3 50.4999 104.9C51.0999 105.7 51.7999 106.4 52.4999 106.9C53.0999 107.4 53.7999 107.8 54.4999 108L55.3999 105.5L55.9999 105.7C56.6999 105.9 57.2999 106 57.9999 106V106.6L58.9999 106.7Z" fill="#323232"/>
<path d="M19.2999 102.7C20.0731 102.7 20.6999 102.073 20.6999 101.3C20.6999 100.527 20.0731 99.8999 19.2999 99.8999C18.5267 99.8999 17.8999 100.527 17.8999 101.3C17.8999 102.073 18.5267 102.7 19.2999 102.7Z" fill="#323232"/>
<path d="M28.4 102.7C29.1732 102.7 29.8 102.073 29.8 101.3C29.8 100.527 29.1732 99.8999 28.4 99.8999C27.6268 99.8999 27 100.527 27 101.3C27 102.073 27.6268 102.7 28.4 102.7Z" fill="#323232"/>
<path d="M105.2 37.1001C105.5 35.6001 106.1 34.3001 106.6 32.9001C107.2 31.6001 108 30.3001 108.8 29.1001L111 25.3001L113.3 21.6001L113.4 21.7001L111.6 25.7001L109.8 29.7001C109.2 31.0001 108.7 32.4001 107.9 33.6001C107.1 34.8001 106.3 36.1001 105.3 37.2001L105.2 37.1001Z" fill="#323232"/>
<path d="M119.1 19.6004C119.7 18.9004 120.6 18.4004 121.4 18.0004C122.2 17.6004 123.2 17.3004 124.1 17.1004C125 16.9004 126 16.7004 126.9 16.7004C127.8 16.6004 128.7 16.6004 129.7 16.6004C131.5 16.5004 133.4 16.5004 135.2 16.6004C137 16.7004 138.9 16.9004 140.7 17.3004L140.8 17.4004C140.8 17.4004 140.8 17.5004 140.7 17.5004C138.9 17.9004 137 18.0004 135.2 18.2004C133.4 18.3004 131.5 18.3004 129.7 18.2004C127.8 18.1004 126.1 18.0004 124.3 18.2004C122.5 18.4004 120.7 18.9004 119.3 19.9004H119.2C119 19.7004 119 19.6004 119.1 19.6004Z" fill="#323232"/>
<path d="M140.7 18.9002H133C132.1 18.9002 131.4 18.2002 131.4 17.3002C131.4 16.4002 132.1 15.7002 133 15.7002H140.7C141.6 15.7002 142.3 16.4002 142.3 17.3002C142.3 18.2002 141.5 18.9002 140.7 18.9002Z" fill="#323232"/>
<path d="M74.8 43C73.2 43 71.8 41.7 71.8 40C71.8 38.3 73.1 37 74.8 37C76.4 37 77.8 38.3 77.8 40C77.8 41.7 76.5 43 74.8 43ZM74.8 37.9C73.6 37.9 72.7 38.9 72.7 40C72.7 41.1 73.7 42.1 74.8 42.1C76 42.1 76.9001 41.1 76.9001 40C76.9001 38.9 76 37.9 74.8 37.9Z" fill="#323232"/>
<path d="M77.1 48.0001C78.2 47.9001 79.4 47.8001 80.5 47.7001C81.1 47.7001 81.6 47.6001 82.2 47.6001C82.6 47.6001 83 47.9001 83.2 48.2001C83.3 48.4001 83.4 48.6001 83.4 48.8001L83.5 49.2001C83.7 50.3001 83.8 51.5001 83.9 52.6001L84.1 54.3001C84.1 54.4001 84.1 54.6001 84.1 54.8001C84.1 55.0001 84.1 55.2001 84 55.4001C83.9 55.8001 83.7 56.1001 83.4 56.3001C83.1 56.6001 82.8 56.7001 82.4 56.8001C82 56.9001 81.7 56.8001 81.4 56.8001H79.7H78H77.1C76.8 56.8001 76.6 56.8001 76.2 56.8001C75.5 56.7001 74.8 56.1001 74.6 55.5001C74.5 55.2001 74.5 54.8001 74.5 54.5001L74.6 53.7001C74.8 52.6001 75 51.5001 75.2 50.3001C75.2 51.4001 75.2 52.6001 75.2 53.7001V54.6001C75.2 54.9001 75.2 55.1001 75.3 55.3001C75.5 55.7001 75.8 56.0001 76.2 56.0001L79.5 55.9001H81.2C81.9 55.9001 82.1 55.9001 82.4 55.6001C82.5 55.5001 82.6 55.3001 82.7 55.1001C82.7 55.0001 82.7 54.9001 82.8 54.8001C82.8 54.7001 82.8 54.6001 82.8 54.5001L82.7 52.8001C82.6 51.7001 82.5 50.5001 82.5 49.4001V49.0001C82.5 48.9001 82.5 48.8001 82.4 48.8001C82.3 48.7001 82.2 48.5001 82 48.5001L80.3 48.4001C79.4 48.2001 78.3 48.1001 77.1 48.0001Z" fill="#323232"/>
<path d="M83.5 64.6002C81.8 64.7002 80 64.8002 78.3 64.9002L75.7 65.0002C74.8 65.1002 74 65.1002 73.1 65.0002L73.6 64.5002C73.5 65.6002 73.4 66.6002 73.1 67.7002H73C72.8 66.6002 72.6 65.6002 72.5 64.5002V64.0002L73 63.9002C73.9 63.8002 74.7 63.8002 75.6 63.9002L78.2 64.0002C79.9 64.1002 81.7 64.2002 83.4 64.3002V64.6002H83.5Z" fill="#323232"/>
<path d="M64.2 104.2C68.3 103.8 72.4 103.7 76.5 103.7C80.6 103.7 84.7 103.8 88.8 104.2C84.7 104.6 80.6 104.7 76.5 104.7C72.4 104.7 68.3 104.6 64.2 104.2Z" fill="#323232"/>
<path d="M59.8 91.9003C60.2 91.0003 60.9001 90.3003 61.5001 89.7003C62.2001 89.1003 63.0001 88.6003 63.9001 88.3003C63.5001 89.2003 62.8 89.9003 62.2 90.5003C61.5 91.0003 60.8 91.6003 59.8 91.9003Z" fill="#323232"/>
<path d="M86.3999 86.5C87.6999 87.1 88.6999 87.9 89.7999 88.8C90.7999 89.7 91.7999 90.7 92.4999 91.9C91.1999 91.3 90.1999 90.5 89.0999 89.6C88.0999 88.7 87.1999 87.7 86.3999 86.5Z" fill="#323232"/>
</svg>
