<?xml version="1.0" encoding="utf-8"?>
<!-- Generator: Adobe Illustrator 23.0.3, SVG Export Plug-In . SVG Version: 6.00 Build 0)  -->
<svg version="1.1" id="Layer_1" xmlns="http://www.w3.org/2000/svg" xmlns:xlink="http://www.w3.org/1999/xlink" x="0px" y="0px"
	 width="140px" height="140px" viewBox="0 0 140 140" style="enable-background:new 0 0 140 140;" xml:space="preserve">
<style type="text/css">
	.st0{fill:#48443E;}
	.st1{opacity:0.8;}
	.st2{fill:#000703;}
	.st3{fill:none;stroke:#000703;stroke-width:0.5848;stroke-miterlimit:10;}
	.st4{fill:none;stroke:#000703;stroke-width:1.5576;stroke-miterlimit:10;}
	.st5{fill:none;}
	.st6{fill:none;stroke:#000703;stroke-width:0.8313;stroke-miterlimit:10;}
	.st7{fill:none;stroke:#000703;stroke-width:0.9048;stroke-miterlimit:10;}
	.st8{fill:none;stroke:#000703;stroke-width:0.905;stroke-miterlimit:10;}
	.st9{opacity:0.61;}
	.st10{fill:none;stroke:#000703;stroke-width:1.1953;stroke-miterlimit:10;}
	.st11{fill:none;stroke:#000703;stroke-width:0.8048;stroke-miterlimit:10;}
</style>
<g>
	<path class="st5" d="M81,104.4l-2.4-4.2c-2.2,1.3-3.8,3.7-3.8,6.5h5L81,104.4z"/>
	<path class="st5" d="M78.5,113.1l2.4-4.2l-1.3-2.3h-4.9C74.8,109.4,76.3,111.8,78.5,113.1z"/>
	<path class="st5" d="M78.5,113.1c1.2,0.7,2.3,1,3.7,1s2.7-0.3,3.7-1l-2.4-4.2h-2.7L78.5,113.1z"/>
	<path class="st5" d="M89.8,106.6h-4.9l-1.3,2.3l2.4,4.2C88.3,111.8,89.8,109.4,89.8,106.6z"/>
	<path class="st5" d="M86.1,100.2l-2.4,4.2l1.3,2.3h4.9C89.8,103.8,88.3,101.5,86.1,100.2z"/>
	<path class="st5" d="M78.5,100.2l2.4,4.2h2.7l2.4-4.2c-1.2-0.7-2.3-1-3.7-1C81,99.2,79.7,99.5,78.5,100.2z"/>
</g>
<g>
	<path class="st0" d="M83.3,105l0.9,1.6l-0.9,1.6h-2l-0.9-1.6l0.9-1.6H83.3 M83.9,104h-3l-1.5,2.6l1.5,2.6h3l1.5-2.6L83.9,104
		L83.9,104z"/>
</g>
<g>
	<g>
		<path class="st0" d="M79,107.8l0.7,1.2l-1.5,2.6c-1.2-0.9-2-2.3-2.2-3.7H79 M79.2,107.4h-3.7c0.2,1.9,1.2,3.6,2.8,4.8l1.9-3.1
			L79.2,107.4L79.2,107.4z"/>
	</g>
	<g>
		<path class="st0" d="M83.1,110.1l1.5,2.6c-0.7,0.2-1.4,0.3-2.2,0.3c-0.7,0-1.5-0.1-2.2-0.3l1.5-2.6H83.1 M83.3,109.7h-1.9
			l-1.9,3.1c0.9,0.3,1.9,0.6,2.8,0.6c0.9,0,1.9-0.2,2.7-0.6L83.3,109.7L83.3,109.7z"/>
	</g>
	<g>
		<path class="st0" d="M85.6,107.8h3c-0.2,1.5-1,2.8-2.2,3.7l-1.5-2.6L85.6,107.8 M85.4,107.4l-0.9,1.6l1.9,3.1
			c1.5-1.2,2.6-2.8,2.8-4.8H85.4L85.4,107.4z"/>
	</g>
	<g>
		<path class="st0" d="M86.5,101.8c1.2,0.9,2,2.3,2.2,3.7h-3l-0.7-1.2L86.5,101.8 M86.3,101.1l-1.9,3.1l0.9,1.6h3.7
			C88.9,104,88,102.3,86.3,101.1L86.3,101.1z"/>
	</g>
	<g>
		<path class="st0" d="M82.4,100.2c0.7,0,1.5,0.1,2.2,0.3l-1.5,2.6h-1.4l-1.5-2.6C80.9,100.4,81.6,100.2,82.4,100.2 M82.4,99.9
			c-0.9,0-1.9,0.2-2.8,0.6l1.9,3.1h1.7l1.9-3.1C84.2,100.1,83.3,99.9,82.4,99.9L82.4,99.9z"/>
	</g>
	<g>
		<path class="st0" d="M78.2,101.8l1.5,2.6l-0.7,1.2h-3C76.3,104,77,102.8,78.2,101.8 M78.3,101.1c-1.5,1.2-2.6,2.8-2.8,4.8h3.7
			l0.9-1.6C80.2,104.4,78.3,101.1,78.3,101.1L78.3,101.1z"/>
	</g>
</g>
<g>
	<path class="st0" d="M82.4,97.3c5.2,0,9.4,4.2,9.4,9.4s-4.2,9.4-9.4,9.4c-5.2,0-9.4-4.2-9.4-9.4C73,101.5,77.2,97.3,82.4,97.3
		 M82.4,95.7c-6,0-11,4.9-11,11c0,6,4.9,11,11,11c6,0,11-4.9,11-11C93.3,100.6,88.4,95.7,82.4,95.7L82.4,95.7z"/>
</g>
<circle class="st6" cx="82.4" cy="106.6" r="7.8"/>
<g>
	<path class="st0" d="M8.8,59.5c4,0.2,8,0.7,12,1c1,0.1,2,0.2,3,0.3c0.5,0.1,1,0.1,1.5,0.2c0.5,0.1,1,0.1,1.5,0.3
		c2,0.7,3.7,1.7,5.5,2.8c6.9,4.3,13,9.8,17.7,16.5c2.3,3.4,4.3,7,5.6,10.8s2.1,7.9,2.1,12c0.1,4.1-0.8,8.3-2.9,11.9
		c-1,1.7-2.3,3.4-4,4.7c-1.5,1.3-3.3,2.4-5.1,3.1c3.5-1.9,6.4-4.9,8.1-8.4c1.7-3.5,2.4-7.4,2.2-11.3l-0.1-1.5l-0.1-1.5
		c-0.1-0.9-0.3-2-0.5-2.9c-0.5-1.9-0.9-3.8-1.6-5.6c-1.3-3.7-3.3-7.1-5.5-10.4c-4.5-6.4-10.4-11.9-16.9-16.4c-1.6-1-3.4-2.2-5-2.9
		c-0.3-0.1-0.8-0.2-1.3-0.3c-0.5-0.1-0.9-0.2-1.5-0.3l-2.9-0.6C16.7,60.8,12.7,60.2,8.8,59.5z"/>
</g>
<g>
	<path class="st0" d="M18.8,124.3c-1.4-0.1-2.8-0.5-4-1.3s-2.2-2-2.9-3.3c-0.7-1.3-1-2.8-1.2-4.2c-0.1-0.7-0.1-1.4-0.1-2.1v-2.1
		c-0.1-5.6-0.2-11-0.2-16.6c0-5.6,0.1-11,0.2-16.6c0.1-5.6,0.3-11,0.8-16.6c0.5,5.6,0.7,11,0.8,16.6c0.1,5.6,0.2,11,0.2,16.6
		c0,5.6,0,11.2-0.2,16.6c0,2.8-0.5,5.6,0.6,8c0.5,1.3,1.3,2.3,2.3,3.1c0.5,0.5,1,0.8,1.7,1C17.5,123.9,18.2,124.2,18.8,124.3z"/>
</g>
<g>
	<path class="st0" d="M43.3,123.8c-0.7,1-1.5,2.1-2.3,3l-0.1,0.1h-0.2c-1.4,0.1-2.9,0.3-4.3,0.3c-1.4,0.1-2.9,0.1-4.3,0.1
		c-1.4,0-2.9,0-4.3-0.1c-1.4-0.1-2.9-0.1-4.3-0.3h-0.3l-0.1-0.1c-0.8-1-1.5-2-2.3-3.1c1,0.7,2.1,1.5,3.1,2.3l-0.5-0.1
		c1.4-0.1,2.9-0.2,4.3-0.3c1.4-0.1,2.9-0.1,4.3-0.1s2.9,0,4.3,0.1c1.4,0.1,2.9,0.2,4.3,0.3l-0.3,0.1
		C41.3,125.3,42.3,124.5,43.3,123.8z"/>
</g>
<g>
	<path class="st0" d="M20.6,117.4c0.7-1,1.5-2.1,2.3-3.1l0.1-0.1h0.3c0.7-0.1,1.4-0.1,2.2-0.2c0.7-0.1,1.4-0.1,2.2-0.1
		c1.4-0.1,2.9-0.1,4.3-0.1c1.4,0,2.9,0,4.3,0.1c1.4,0.1,2.9,0.2,4.3,0.3H41l0.1,0.1c0.8,1,1.6,2,2.3,3c-1-0.7-2.1-1.5-3-2.3l0.3,0.1
		c-1.4,0.1-2.9,0.3-4.3,0.3c-1.4,0.1-2.9,0.1-4.3,0.1c-1.4,0-2.9,0-4.3-0.1c-0.7,0-1.4-0.1-2.2-0.1c-0.7,0-1.4-0.1-2.2-0.2l0.5-0.1
		C22.7,115.9,21.8,116.7,20.6,117.4z"/>
</g>
<g>
	<path class="st0" d="M18.8,72.6c5,1.2,9.8,2.9,14.3,5.3c4.5,2.3,8.7,5.5,12.2,9.3c3.4,3.8,5.8,8.7,6.4,13.8
		c0.3,2.6,0.2,5.2-0.2,7.7c-0.2,1.3-0.6,2.6-1,3.7c-0.5,1.2-0.9,2.3-1.6,3.5c1.2-2.2,1.7-4.8,2.1-7.2s0.3-5,0-7.6
		c-0.3-2.4-1-4.9-2.2-7.1c-1-2.2-2.6-4.3-4.2-6.2c-3.3-3.8-7.4-6.7-11.9-9.3c-2.2-1.3-4.5-2.3-6.9-3.4
		C23.7,74.3,21.2,73.3,18.8,72.6z"/>
</g>
<g>
	<path class="st0" d="M23.3,99.9c1.3-0.5,2.4-1,3.6-1.9c1.2-0.7,2.1-1.6,2.8-2.7c1.5-2.1,2-4.9,1.7-7.4c-0.2-2.6-1.4-5-3.1-7.1
		c-0.8-1-1.9-2-2.9-2.8c-1-0.8-2.2-1.5-3.4-2.2c2.6,0.9,4.9,2.4,6.9,4.4s3.3,4.7,3.5,7.4c0.1,1.4,0,2.8-0.2,4.2
		c-0.3,1.4-0.9,2.7-1.9,3.8C28.7,98,26,99.4,23.3,99.9z"/>
</g>
<g>
	<path class="st0" d="M44.5,19.5c0.9,1.3,1.9,2.7,2.8,4c0.9,1.3,1.9,2.7,2.8,4.1c1.9,2.7,3.6,5.5,5.3,8.1l0.3,0.6l-0.5,0.6
		c-1.6,0.9-3.1,1.9-4.8,2.8c-1.6,0.9-3.3,1.9-4.9,2.8l-0.3,0.2l-0.3-0.1l-3.1-1.3L41.3,41v-0.3c-0.5-2.6-0.9-5.1-1.4-7.7
		c-0.5-2.6-0.9-5.1-1.3-7.8v-0.1V25l1.2-3.6v-0.1h0.1c1.2-0.6,2.3-1.2,3.5-1.6c-1,0.7-2.2,1.4-3.3,2.1l0.1-0.1l-0.7,3.7v-0.2
		c0.6,2.6,1.2,5.1,1.7,7.7c0.6,2.6,1.2,5.1,1.6,7.7l-0.5-0.6l3.1,1.2h-0.7c1.6-0.9,3.3-1.9,4.9-2.8c1.6-0.9,3.3-1.9,4.9-2.7l-0.2,1
		c-1.7-2.8-3.4-5.6-5-8.5c-0.8-1.4-1.6-2.8-2.4-4.3C46.1,22.4,45.3,21,44.5,19.5z"/>
</g>
<g>
	<path class="st0" d="M54.8,37.9c1.7,3.1,3.4,6.4,4.7,9.8c1.4,3.4,2.4,6.9,3.4,10.4c0.8,3.5,1.5,7.1,2.1,10.7
		c0.5,3.6,0.8,7.2,0.9,10.8c-0.7-3.6-1.4-7.1-2.1-10.6s-1.5-7-2.3-10.5c-0.8-3.5-1.9-6.9-3-10.4C57.3,44.7,56.1,41.4,54.8,37.9z"/>
</g>
<g>
	<path class="st0" d="M44,42.9c-0.3,0.1-0.3,0.7-0.3,1c0,0.5,0,0.8,0.1,1.3c0.1,0.8,0.3,1.6,0.6,2.4c0.3,1.6,0.8,3.4,1.2,5
		c0.7,3.4,1.4,6.7,2,10.1c0.2,1.7,0.6,3.4,0.8,5.1c0.1,0.8,0.2,1.7,0.2,2.6c0,0.5,0.1,0.8,0.1,1.2c0.1,0.3,0.1,0.8,0.2,1.2
		c0.5,1.6,1.2,3.1,2,4.7c0.8,1.5,1.7,2.9,2.7,4.3c-2.4-2.4-4.7-5.2-5.8-8.5c-0.1-0.5-0.2-0.8-0.3-1.3c-0.1-0.5-0.1-0.9-0.2-1.3
		c-0.1-0.8-0.2-1.6-0.3-2.6c-0.2-1.6-0.6-3.4-0.8-5c-0.6-3.4-1.2-6.7-1.6-10.1c-0.2-1.7-0.5-3.4-0.7-5.1c-0.1-0.8-0.2-1.7-0.2-2.6
		c0-0.5,0-0.9,0.1-1.3C43.4,43.5,43.7,43,44,42.9z"/>
</g>
<g>
	<path class="st0" d="M66.3,83.3c-1.2,0.3-2.3,0.5-3.4,0.6c-1.2,0.1-2.3,0.1-3.4,0.2c-1.2,0-2.3,0-3.4-0.1c-1.2-0.1-2.3-0.3-3.4-0.6
		c1.2-0.3,2.3-0.5,3.4-0.6c1.2-0.1,2.3-0.1,3.4-0.1c1.2,0,2.3,0,3.4,0.2C64.1,82.8,65.3,83,66.3,83.3z"/>
</g>
<path class="st5" d="M52.3,83.3c0,0,1.7,5.1,2.7,8.1c1,3,2.7,3.3,3.8,3.3s5,0,5,0"/>
<g>
	<path class="st0" d="M96.5,98.2c1.7,0.2,3.4,0.6,5,0.9c1.6,0.3,3.4,0.7,5,1s3.3,0.8,5,1.3c1.6,0.5,3.3,0.9,4.9,1.4l0.8,0.2
		l-0.2,0.7l-1,2.7c-0.1,0.2-0.2,0.6-0.5,0.8c-0.2,0.2-0.6,0.5-0.8,0.6c-0.6,0.2-1,0.2-1.5,0.3c-2,0.2-3.8,0.3-5.8,0.5
		c1.9-0.6,3.7-1,5.6-1.5c0.5-0.1,0.9-0.2,1.3-0.5c0.3-0.2,0.5-0.2,0.5-0.7l0.8-2.8l0.5,0.9c-1.6-0.5-3.3-0.8-5-1.3
		c-1.6-0.5-3.3-0.9-4.9-1.4c-1.6-0.5-3.3-1-4.9-1.5C99.6,99.5,98,98.9,96.5,98.2z"/>
</g>
<g>
	<path class="st0" d="M68.3,101c-0.2-2.2-0.3-4.4-0.5-6.5c-0.1-2.2-0.2-4.4-0.2-6.5c-0.1-2.2,0-4.4-0.1-6.5c0-2.2,0-4.4,0.1-6.5
		v-0.3l0.2-0.2c0.5-0.5,0.9-0.9,1.3-1.3l0.2-0.2h0.2c1.7,0.1,3.5,0.3,5.1,0.7c-1.7,0.3-3.5,0.5-5.1,0.7l0.5-0.2
		c-0.3,0.5-0.8,0.9-1.2,1.4l0.2-0.5c0.1,2.2,0.1,4.4,0.1,6.5c0,2.2,0,4.4-0.1,6.5c0,2.2-0.1,4.4-0.2,6.5
		C68.7,96.7,68.5,98.9,68.3,101z"/>
</g>
<g>
	<path class="st0" d="M95.2,97.4l4.3-9.1l4.4-9c1.5-3,2.8-6,4.5-9c1.6-2.9,3.4-5.8,5.2-8.5l0.1,0.1c-1.2,3.1-2.6,6.2-4,9.2
		s-3.1,5.8-4.8,8.8l-4.9,8.7l-4.9,8.7L95.2,97.4z"/>
</g>
<g>
	<path class="st0" d="M98.8,96.5c1.3-3,2.8-6,4.3-9.1c1.5-3,3.1-5.9,4.7-8.8l9.5-17.6h0.1l-9,17.8c-1.5,3-2.9,5.9-4.5,8.8
		C102.2,90.8,100.5,93.7,98.8,96.5L98.8,96.5z"/>
</g>
<g>
	<path class="st0" d="M122.7,41.1c2.7,0.8,5.3,1.9,8.1,2.7l0.3,0.1l-0.2,0.3c-1,2.1-2.2,4.1-3.4,6.2c-1.2,2-2.3,4.1-3.7,5.9
		c-1.5,2-3.5,3.5-5.6,4.7s-4.3,2.1-6.6,2.7l-0.8,0.2l-0.2-0.8c-0.8-3.3-1.4-6.6-1.6-10c-0.1-1.7-0.1-3.4,0.1-5.1
		c0-0.5,0.1-0.8,0.1-1.3c0.1-0.5,0.1-0.8,0.2-1.3c0.2-0.8,0.3-1.7,0.8-2.6c0.8-1.6,2.3-2.8,3.8-3.6c1.5-0.8,3.3-1.3,4.9-1.5
		c3.4-0.5,6.7-0.5,10,0.1c-3.4-0.1-6.6,0-9.9,0.7c-1.6,0.3-3.1,0.8-4.5,1.6c-1.4,0.8-2.6,1.9-3.3,3.3c-0.3,0.7-0.5,1.4-0.7,2.2
		c-0.1,0.3-0.1,0.8-0.1,1.2c0,0.3-0.1,0.8-0.1,1.2c-0.1,1.6-0.1,3.3,0,4.9c0.2,3.3,0.8,6.5,1.6,9.7l-0.9-0.6
		c2.2-0.6,4.3-1.4,6.3-2.4c2-1,3.8-2.4,5.1-4.2c1.4-1.9,2.7-3.7,3.8-5.7c1.3-2,2.4-4,3.7-5.9l0.2,0.6
		C128,43.3,125.4,42.3,122.7,41.1z"/>
</g>
<g>
	<path class="st0" d="M96.9,91c-3,0.1-6,0.2-9.2,0.2c-3,0.1-6,0.1-9.2,0.2h-0.2l-0.1-0.1l-2.3-2.2L75.8,89v-0.2l-0.1-8.4l-0.1-8.4
		V55.4v-0.3l0.2-0.2l2.3-2.3l0.2-0.2h0.3h11c3.7,0,7.3,0,11,0.1h0.2l0.1,0.1l2.2,2.3l0.1,0.1v0.2c-0.1,3.7-0.1,7.6-0.2,11.3
		c-0.1,3.7-0.2,7.6-0.3,11.3c-0.1-3.7-0.2-7.6-0.3-11.3c-0.1-3.7-0.1-7.6-0.2-11.3l0.1,0.3l-2.3-2.2l0.5,0.2
		c-3.7,0.1-7.3,0.1-11,0.1h-11l0.6-0.2l-2.3,2.3l0.2-0.6L76.8,72l-0.1,8.4l-0.1,8.4l-0.1-0.3l2.2,2.3l0-0.2c3,0,6,0.1,9.2,0.2
		C90.8,90.8,93.9,90.8,96.9,91z"/>
</g>
<g>
	<path class="st0" d="M96,83.3c-0.3-3.6-0.6-7.1-0.7-10.7c-0.1-3.6-0.1-7.1-0.1-10.7v-1.3c0-0.2-0.1-0.5-0.2-0.7
		c-0.1-0.2-0.3-0.3-0.7-0.3c-0.1,0-0.3,0-0.6,0H93h-1.3h-0.3c-0.1,0-0.1,0-0.2,0c-0.1,0-0.2,0-0.3,0.1c-0.2,0.1-0.5,0.3-0.6,0.6
		c0,0.1-0.1,0.2-0.1,0.5v0.7v1.4c0,0.3,0,1-0.3,1.5c-0.2,0.5-0.7,0.8-1.3,1c-0.2,0.1-0.6,0.1-0.8,0.1h-0.7c-1.7-0.1-3.6-0.1-5.3-0.3
		c1.7-0.1,3.6-0.2,5.3-0.3h0.7c0.2,0,0.3-0.1,0.6-0.1c0.3-0.1,0.6-0.5,0.7-0.7c0.1-0.3,0.1-0.6,0.1-1v-1.3V61c0-0.2,0-0.6,0.1-0.8
		c0.1-0.6,0.6-1,1-1.4c0.2-0.1,0.6-0.2,0.8-0.3c0.1,0,0.3,0,0.5,0h0.3h1.3h0.7c0.2,0,0.3,0,0.8,0c0.7,0.1,1.3,0.3,1.6,0.8
		c0.5,0.5,0.7,1.2,0.7,1.7v1.3c0,3.6,0,7.1-0.1,10.7C96.5,76.1,96.2,79.7,96,83.3z"/>
</g>
<g>
	<path class="st0" d="M65.2,113.2c3.3,0,5.8,2.7,5.8,5.8c0,3.3-2.7,5.8-5.8,5.8c-3.1,0-5.8-2.7-5.8-5.8
		C59.2,115.9,61.9,113.2,65.2,113.2 M65.2,111.6c-4.2,0-7.6,3.4-7.6,7.6s3.4,7.6,7.6,7.6s7.6-3.4,7.6-7.6
		C72.6,115,69.2,111.6,65.2,111.6L65.2,111.6z"/>
</g>
<g>
	<path class="st0" d="M101.8,113.2c3.3,0,5.8,2.7,5.8,5.8c0,3.3-2.7,5.8-5.8,5.8c-3.3,0-5.8-2.7-5.8-5.8S98.6,113.2,101.8,113.2
		 M101.8,111.6c-4.2,0-7.6,3.4-7.6,7.6s3.4,7.6,7.6,7.6s7.6-3.4,7.6-7.6S106,111.6,101.8,111.6L101.8,111.6z"/>
</g>
<circle class="st7" cx="65.2" cy="119.1" r="3.4"/>
<circle class="st8" cx="101.8" cy="119.1" r="3.4"/>
<g class="st9">
	<g>
		<g>
			<path class="st10" d="M65.2,125.3c-0.6,0-1.3-0.1-1.9-0.3l-1.6,4.5c-1-0.3-2.1-0.9-3-1.6l2.9-3.8c-0.6-0.3-1-0.8-1.4-1.4
				l-3.8,2.8c-0.7-0.9-1.2-1.9-1.6-2.9l4.4-1.6c-0.2-0.6-0.3-1.3-0.3-1.9l-4.8,0.2c0-1.2,0.1-2.3,0.5-3.5l4.5,1.4
				c0.2-0.6,0.5-1.2,0.8-1.6l-3.8-2.8c0.3-0.5,0.7-0.9,1-1.3l0.9-0.9l3.4,3.4l1.9-1.9l-3.4-3.4l1.9-1.9l3.4,3.4l1.9-1.9l-3.4-3.4
				l1.9-1.9l3.4,3.4l1.9-1.9l-3.4-3.4l1.9-1.9l3.4,3.4l1.9-1.9L71,97.5l2-2l3.1,3.6l0.1-0.1c0.1,0,0.1-0.1,0.2-0.1
				c0.1-0.1,0.2-0.2,0.5-0.3c0.3-0.2,0.6-0.3,0.9-0.5l-2-4.3c1-0.5,2.1-0.8,3.1-0.9l0.9,4.7c0.7-0.1,1.4-0.2,2.2-0.1l0.1-4.8
				c1,0,2.1,0.1,3.1,0.5l-1,4.7c0.7,0.1,1.4,0.5,2.1,0.7l2-4.3c0.5,0.2,0.9,0.5,1.4,0.8c0.5,0.2,0.8,0.6,1.4,0.9l-3,3.7l2,1.7l3-3.6
				l2,1.7l-3,3.6l2,1.7l3-3.6l2,1.7l-3.1,3.6l2,1.7l3.1-3.6l2,1.7l-3.1,3.6l2,1.7l3.1-3.6l2,1.7l-3.1,3.6l2,1.7l3.1-3.6
				c0.9,0.8,1.6,1.7,2.2,2.8l-4.2,2.2c0.2,0.6,0.5,1.2,0.6,1.7l4.8-0.6c0.1,1.2,0.1,2.3-0.1,3.5l-4.7-1c-0.1,0.6-0.3,1.3-0.7,1.9
				l4.2,2.3c-0.6,0.9-1.3,1.9-2.1,2.7l-3.4-3.4c-0.5,0.5-1,0.8-1.6,1.2l2.2,4.2c-1,0.5-2.1,0.9-3.1,1l-0.9-4.7
				c-0.1,0-0.3,0.1-0.5,0.1c-0.1,0-0.2,0-0.5,0h-1.3l0.1,4.8h-2.7l-0.1-4.8h-2.7l0.1,4.8H92l-0.1-4.8h-2.7l0.1,4.8h-2.7l-0.1-4.8
				h-2.7l0.1,4.8h-2.7l-0.1-4.8h-2.7l0.1,4.8h-2.4v-4.8h-2.7v4.8h-2.7v-4.8h-2.7v4.8h-2.7v-5.1"/>
		</g>
	</g>
</g>
<g>
	<circle class="st0" cx="27.4" cy="121" r="1.4"/>
	<circle class="st0" cx="36.6" cy="121" r="1.4"/>
</g>
<g>
	<path class="st0" d="M113.7,58.9c0.5-1.4,1-2.7,1.7-4.1c0.6-1.3,1.4-2.6,2.1-3.8c1.4-2.6,2.8-5.1,4.3-7.7h0.1
		c-1.3,2.7-2.6,5.3-3.8,7.9c-0.7,1.3-1.3,2.7-2,4C115.4,56.5,114.7,57.8,113.7,58.9L113.7,58.9z"/>
</g>
<circle class="st11" cx="83.2" cy="59.5" r="2.6"/>
<g>
	<path class="st0" d="M85.5,67.5c1.2-0.1,2.3-0.2,3.4-0.3c0.6,0,1-0.1,1.7-0.1c0.3,0,0.8,0.2,1,0.7c0.1,0.1,0.1,0.5,0.2,0.6v0.5
		c0.1,1.2,0.2,2.3,0.5,3.4l0.2,1.7v0.2c0,0.1,0,0.2,0,0.2c0,0.2,0,0.3-0.1,0.6c-0.1,0.3-0.3,0.7-0.6,0.9c-0.3,0.2-0.7,0.5-1,0.5
		c-0.5,0.1-0.7,0-0.9,0h-1.7h-1.7h-0.8c-0.3,0-0.5,0-0.9,0c-0.7-0.1-1.4-0.7-1.6-1.4c-0.1-0.3-0.1-0.7-0.1-1l0.1-0.8
		c0.2-1.2,0.3-2.2,0.7-3.4c0,1.2,0,2.3,0,3.5V74c0,0.2,0,0.5,0.1,0.7c0.1,0.3,0.6,0.7,0.9,0.7h3.4h1.7c0.7,0,0.9,0,1.3-0.2
		c0.1-0.1,0.2-0.2,0.3-0.5c0-0.1,0-0.2,0-0.2v-0.1v-0.2l-0.1-1.7c-0.1-1.2-0.2-2.3-0.2-3.4v-0.5c0-0.1,0-0.1,0-0.2
		c-0.1-0.1-0.2-0.2-0.3-0.2c-0.5,0-1.2-0.1-1.6-0.1C87.7,67.8,86.7,67.6,85.5,67.5z"/>
</g>
<g>
	<path class="st0" d="M91.9,84.2c-1.7,0.1-3.5,0.2-5.2,0.3L84,84.6c-0.8,0.1-1.7,0.1-2.7,0l0.5-0.5c-0.1,1-0.2,2.2-0.5,3.3h-0.1
		c-0.2-1-0.3-2.2-0.5-3.3v-0.5h0.6c0.8-0.1,1.7-0.1,2.7,0l2.7,0.1C88.4,83.8,90.2,83.9,91.9,84.2L91.9,84.2L91.9,84.2z"/>
</g>
<g>
	<path class="st0" d="M72.6,121c3.6-0.3,7.2-0.5,10.8-0.5c3.6,0,7.2,0.1,10.8,0.5c-3.6,0.3-7.2,0.5-10.8,0.5
		C79.8,121.5,76.2,121.4,72.6,121z"/>
</g>
<g>
	<path class="st0" d="M66.9,111.6c0.5-0.9,1-1.6,1.7-2.2c0.7-0.6,1.5-1.2,2.4-1.4c-0.5,0.9-1,1.6-1.7,2.2
		C68.7,110.8,67.8,111.3,66.9,111.6z"/>
</g>
<g>
	<path class="st0" d="M93.7,106.3c1.3,0.6,2.3,1.4,3.4,2.3s2,1.9,2.7,3c-1.3-0.6-2.3-1.4-3.4-2.3S94.4,107.4,93.7,106.3z"/>
</g>
</svg>
