<?xml version="1.0" encoding="utf-8"?>
<!-- Generator: Adobe Illustrator 22.1.0, SVG Export Plug-In . SVG Version: 6.00 Build 0)  -->
<svg version="1.1" id="Layer_1" xmlns="http://www.w3.org/2000/svg" xmlns:xlink="http://www.w3.org/1999/xlink" x="0px" y="0px"
	 viewBox="0 0 100 100" style="enable-background:new 0 0 100 100;" xml:space="preserve">
<style type="text/css">
	.st0{fill:#CACACA;}
	.st1{fill:url(#SVGID_1_);}
	.st2{fill:#B18000;}
	.st3{opacity:0.5;fill:url(#SVGID_2_);}
	.st4{fill:url(#SVGID_3_);}
	.st5{opacity:0.5;fill:url(#SVGID_4_);}
	.st6{fill:url(#SVGID_5_);}
	.st7{opacity:0.5;fill:url(#SVGID_6_);}
	.st8{fill:url(#SVGID_7_);}
	.st9{opacity:0.5;fill:url(#SVGID_8_);}
	.st10{fill:url(#SVGID_9_);}
	.st11{opacity:0.5;fill:url(#SVGID_10_);}
	.st12{fill:url(#SVGID_11_);}
	.st13{opacity:0.5;fill:url(#SVGID_12_);}
</style>
<g>
	<linearGradient id="SVGID_1_" gradientUnits="userSpaceOnUse" x1="68.1544" y1="82.7207" x2="22.7748" y2="12.0159">
		<stop  offset="0" style="stop-color:#F5911E"/>
		<stop  offset="1" style="stop-color:#FAEC21"/>
	</linearGradient>
	<polygon class="st1" points="49.7,78.3 22.8,92.4 27.9,62.5 6.2,41.3 36.2,36.9 49.7,9.7 63.1,36.9 93.1,41.3 71.4,62.5 76.5,92.4 
			"/>
	<path class="st2" d="M49.7,10.6l13.2,26.7l29.5,4.3L71,62.4l5,29.4L49.7,77.8L23.3,91.7l5-29.4L7,41.6l29.5-4.3L49.7,10.6
		 M49.7,8.9L49,10.2L36,36.6L6.9,40.8L5.4,41l1.1,1.1l21,20.5l-5,29l-0.3,1.5l1.4-0.7l26-13.7l26,13.7l1.4,0.7l-0.3-1.5l-5-29
		l21-20.5L94,41l-1.5-0.2l-29.1-4.2l-13-26.4L49.7,8.9L49.7,8.9z"/>
</g>
<linearGradient id="SVGID_2_" gradientUnits="userSpaceOnUse" x1="35.3525" y1="40.8076" x2="80.3883" y2="80.6712">
	<stop  offset="0" style="stop-color:#FFFFFF"/>
	<stop  offset="1" style="stop-color:#FFFFFF;stop-opacity:0"/>
</linearGradient>
<path class="st3" d="M82.1,40.1l-19.2-2.8L49.7,10.6L36.5,37.3L7,41.6l21.3,20.8l-2.3,13.2C34.1,65.1,51.6,47.3,82.1,40.1z"/>
</svg>
