<svg width="63" height="63" viewBox="0 0 63 63" fill="none" xmlns="http://www.w3.org/2000/svg">
<mask id="path-1-inside-1" fill="white">
<path d="M52.5 11.1237V5.25C52.4963 2.352 50.148 0.003675 47.25 0H5.25C2.352 0.003675 0.003675 2.352 0 5.25V28.35C0.00813752 31.0314 2.04067 33.274 4.7082 33.5459L8.65515 43.7916C9.6978 46.4969 12.736 47.8446 15.4416 46.8032L40.089 37.3086C38.3859 41.7572 38.8705 46.7476 41.3968 50.7856L42 51.7503V61.95C42 62.5301 42.4699 63 43.05 63H61.95C62.5301 63 63 62.5301 63 61.95V27.2908C62.99 23.6596 61.5444 20.1805 58.9772 17.6124L52.5 11.1237ZM52.5 17.4032L55.6867 25.6756C56.3112 27.2995 55.5019 29.1215 53.8784 29.7465L52.0569 30.45C52.3477 29.788 52.4984 29.0724 52.5 28.35V17.4032ZM2.1 28.35V5.25C2.1 3.51067 3.51067 2.1 5.25 2.1H47.25C48.9893 2.1 50.4 3.51067 50.4 5.25V11.9238H50.3908L50.4 11.9477V28.35C50.3919 28.5332 50.368 28.7149 50.3286 28.8939L40.7106 19.2748C38.5486 17.1628 35.102 17.1465 32.9207 19.2365C30.7387 21.3279 30.6078 24.7719 32.6256 27.0215L36.7258 31.5H5.25C3.51067 31.5 2.1 30.0893 2.1 28.35ZM15.5515 33.6L8.085 36.4746L6.9804 33.6H15.5515ZM14.6863 44.8431C13.063 45.4689 11.24 44.6596 10.6144 43.0364L8.8431 38.43L21.3769 33.6V33.5937H38.6505L40.0152 35.0816L14.6863 44.8431ZM60.9 60.9H44.1V52.5H60.9V60.9ZM60.9 50.4H43.6327L43.1773 49.6723C40.6171 45.581 40.5153 40.4134 42.9114 36.225C43.1382 35.8286 43.0826 35.3309 42.7738 34.9944L34.1694 25.6074C32.8863 24.203 32.9585 22.0319 34.3321 20.7165C35.7063 19.4008 37.8785 19.4224 39.2256 20.7643L55.9576 37.4923L57.4423 36.0076L53.5573 32.1227L54.6346 31.7026C57.3379 30.6597 58.685 27.6242 57.645 24.9194L54.091 15.6909L57.4925 19.0995C59.666 21.2725 60.8916 24.2172 60.9 27.2908V50.4Z"/>
</mask>
<path d="M52.5 11.1237V5.25C52.4963 2.352 50.148 0.003675 47.25 0H5.25C2.352 0.003675 0.003675 2.352 0 5.25V28.35C0.00813752 31.0314 2.04067 33.274 4.7082 33.5459L8.65515 43.7916C9.6978 46.4969 12.736 47.8446 15.4416 46.8032L40.089 37.3086C38.3859 41.7572 38.8705 46.7476 41.3968 50.7856L42 51.7503V61.95C42 62.5301 42.4699 63 43.05 63H61.95C62.5301 63 63 62.5301 63 61.95V27.2908C62.99 23.6596 61.5444 20.1805 58.9772 17.6124L52.5 11.1237ZM52.5 17.4032L55.6867 25.6756C56.3112 27.2995 55.5019 29.1215 53.8784 29.7465L52.0569 30.45C52.3477 29.788 52.4984 29.0724 52.5 28.35V17.4032ZM2.1 28.35V5.25C2.1 3.51067 3.51067 2.1 5.25 2.1H47.25C48.9893 2.1 50.4 3.51067 50.4 5.25V11.9238H50.3908L50.4 11.9477V28.35C50.3919 28.5332 50.368 28.7149 50.3286 28.8939L40.7106 19.2748C38.5486 17.1628 35.102 17.1465 32.9207 19.2365C30.7387 21.3279 30.6078 24.7719 32.6256 27.0215L36.7258 31.5H5.25C3.51067 31.5 2.1 30.0893 2.1 28.35ZM15.5515 33.6L8.085 36.4746L6.9804 33.6H15.5515ZM14.6863 44.8431C13.063 45.4689 11.24 44.6596 10.6144 43.0364L8.8431 38.43L21.3769 33.6V33.5937H38.6505L40.0152 35.0816L14.6863 44.8431ZM60.9 60.9H44.1V52.5H60.9V60.9ZM60.9 50.4H43.6327L43.1773 49.6723C40.6171 45.581 40.5153 40.4134 42.9114 36.225C43.1382 35.8286 43.0826 35.3309 42.7738 34.9944L34.1694 25.6074C32.8863 24.203 32.9585 22.0319 34.3321 20.7165C35.7063 19.4008 37.8785 19.4224 39.2256 20.7643L55.9576 37.4923L57.4423 36.0076L53.5573 32.1227L54.6346 31.7026C57.3379 30.6597 58.685 27.6242 57.645 24.9194L54.091 15.6909L57.4925 19.0995C59.666 21.2725 60.8916 24.2172 60.9 27.2908V50.4Z" fill="#F66507" stroke="#FBFBFB" mask="url(#path-1-inside-1)"/>
<mask id="path-2-inside-2" fill="white">
<path d="M11.9726 14.7C13.4804 14.7 14.7026 13.4778 14.7026 11.97V6.92995C14.7026 5.42215 13.4804 4.19995 11.9726 4.19995H6.93264C5.42484 4.19995 4.20264 5.42215 4.20264 6.92995V11.97C4.20264 13.4778 5.42484 14.7 6.93264 14.7H11.9726ZM6.30264 11.97V10.5H8.40264V8.39995H6.30264V6.92995C6.30264 6.58214 6.58482 6.29995 6.93264 6.29995H11.9726C12.3204 6.29995 12.6026 6.58214 12.6026 6.92995V8.39995H10.5026V10.5H12.6026V11.97C12.6026 12.3178 12.3204 12.6 11.9726 12.6H6.93264C6.58482 12.6 6.30264 12.3178 6.30264 11.97Z"/>
</mask>
<path d="M11.9726 14.7C13.4804 14.7 14.7026 13.4778 14.7026 11.97V6.92995C14.7026 5.42215 13.4804 4.19995 11.9726 4.19995H6.93264C5.42484 4.19995 4.20264 5.42215 4.20264 6.92995V11.97C4.20264 13.4778 5.42484 14.7 6.93264 14.7H11.9726ZM6.30264 11.97V10.5H8.40264V8.39995H6.30264V6.92995C6.30264 6.58214 6.58482 6.29995 6.93264 6.29995H11.9726C12.3204 6.29995 12.6026 6.58214 12.6026 6.92995V8.39995H10.5026V10.5H12.6026V11.97C12.6026 12.3178 12.3204 12.6 11.9726 12.6H6.93264C6.58482 12.6 6.30264 12.3178 6.30264 11.97Z" fill="#F66507" stroke="#FBFBFB" mask="url(#path-2-inside-2)"/>
<mask id="path-3-inside-3" fill="white">
<path d="M5.25 17.85H9.45V19.95H5.25V17.85Z"/>
</mask>
<path d="M5.25 17.85H9.45V19.95H5.25V17.85Z" fill="#F66507" stroke="#FBFBFB" mask="url(#path-3-inside-3)"/>
<mask id="path-4-inside-4" fill="white">
<path d="M5.25 24.15H9.45V26.25H5.25V24.15Z"/>
</mask>
<path d="M5.25 24.15H9.45V26.25H5.25V24.15Z" fill="#F66507" stroke="#FBFBFB" mask="url(#path-4-inside-4)"/>
<mask id="path-5-inside-5" fill="white">
<path d="M24.1484 24.15H28.3484V26.25H24.1484V24.15Z"/>
</mask>
<path d="M24.1484 24.15H28.3484V26.25H24.1484V24.15Z" fill="#F66507" stroke="#FBFBFB" mask="url(#path-5-inside-5)"/>
<mask id="path-6-inside-6" fill="white">
<path d="M11.5474 17.85H15.7474V19.95H11.5474V17.85Z"/>
</mask>
<path d="M11.5474 17.85H15.7474V19.95H11.5474V17.85Z" fill="#F66507" stroke="#FBFBFB" mask="url(#path-6-inside-6)"/>
<mask id="path-7-inside-7" fill="white">
<path d="M17.8513 17.85H22.0513V19.95H17.8513V17.85Z"/>
</mask>
<path d="M17.8513 17.85H22.0513V19.95H17.8513V17.85Z" fill="#F66507" stroke="#FBFBFB" mask="url(#path-7-inside-7)"/>
<mask id="path-8-inside-8" fill="white">
<path d="M24.1484 17.85H28.3484V19.95H24.1484V17.85Z"/>
</mask>
<path d="M24.1484 17.85H28.3484V19.95H24.1484V17.85Z" fill="#F66507" stroke="#FBFBFB" mask="url(#path-8-inside-8)"/>
<mask id="path-9-inside-9" fill="white">
<path d="M44.0981 5.25H46.1982V8.4H44.0981V5.25Z"/>
</mask>
<path d="M44.0981 5.25H46.1982V8.4H44.0981V5.25Z" fill="#F66507" stroke="#FBFBFB" mask="url(#path-9-inside-9)"/>
<mask id="path-10-inside-10" fill="white">
<path d="M39.8984 5.25H41.9984V8.4H39.8984V5.25Z"/>
</mask>
<path d="M39.8984 5.25H41.9984V8.4H39.8984V5.25Z" fill="#F66507" stroke="#FBFBFB" mask="url(#path-10-inside-10)"/>
<mask id="path-11-inside-11" fill="white">
<path d="M35.7026 5.25H37.8026V8.4H35.7026V5.25Z"/>
</mask>
<path d="M35.7026 5.25H37.8026V8.4H35.7026V5.25Z" fill="#F66507" stroke="#FBFBFB" mask="url(#path-11-inside-11)"/>
<mask id="path-12-inside-12" fill="white">
<path d="M31.5 5.25H33.6V8.4H31.5V5.25Z"/>
</mask>
<path d="M31.5 5.25H33.6V8.4H31.5V5.25Z" fill="#F66507" stroke="#FBFBFB" mask="url(#path-12-inside-12)"/>
<mask id="path-13-inside-13" fill="white">
<path d="M46.1995 54.6H48.2995V56.7H46.1995V54.6Z"/>
</mask>
<path d="M46.1995 54.6H48.2995V56.7H46.1995V54.6Z" fill="#F66507" stroke="#FBFBFB" mask="url(#path-13-inside-13)"/>
</svg>
