<svg width="63" height="63" viewBox="0 0 63 63" fill="none" xmlns="http://www.w3.org/2000/svg">
<path d="M52.25 11.1237V11.2271L52.3231 11.3003L58.8003 17.7891L58.8004 17.7892C61.3209 20.3105 62.7402 23.7264 62.75 27.2915V61.95C62.75 62.392 62.392 62.75 61.95 62.75H43.05C42.6079 62.75 42.25 62.392 42.25 61.95V51.7503V51.6786L42.212 51.6178L41.6087 50.6531L41.6087 50.653C39.124 46.6815 38.6474 41.7733 40.3225 37.398L40.5233 36.8734L39.9991 37.0753L15.3518 46.5699C12.7749 47.5617 9.88144 46.2781 8.88844 43.7017C8.88843 43.7017 8.88843 43.7017 8.88842 43.7017L4.94149 33.4561L4.8863 33.3128L4.73356 33.2972C2.19341 33.0382 0.257937 30.9029 0.25 28.3496V5.25017C0.253582 2.49011 2.49011 0.253582 5.25017 0.25H47.2498C50.0099 0.253582 52.2465 2.49019 52.25 5.25032V11.1237ZM55.9201 25.5859L55.92 25.5858L52.7333 17.3134L52.25 17.4032V28.3495C52.2485 29.0375 52.105 29.719 51.828 30.3494L51.5862 30.8998L52.147 30.6832L53.9682 29.9798C55.7206 29.3052 56.5941 27.3385 55.9201 25.5859ZM50.65 11.9013V5.25C50.65 3.3726 49.1274 1.85 47.25 1.85H5.25C3.3726 1.85 1.85 3.3726 1.85 5.25V28.35C1.85 30.2274 3.3726 31.75 5.25 31.75H36.7258H37.2937L36.9102 31.3312L32.8117 26.8546C32.8114 26.8543 32.8112 26.854 32.8109 26.8537C30.884 24.7045 31.0093 21.4148 33.0936 19.417C35.1773 17.4206 38.4694 17.4358 40.5349 19.4527C40.5352 19.453 40.5356 19.4534 40.5359 19.4537L50.1518 29.0707L50.4747 29.3936L50.5728 28.9476C50.6152 28.7546 50.641 28.5587 50.6497 28.3611L50.65 28.3611V28.35V12.1738V11.9477V11.9238V11.9013ZM15.6414 33.8333L15.5515 33.35H6.9804H6.61651L6.74704 33.6897L7.85164 36.5643L7.94137 36.7978L8.17482 36.7079L15.6414 33.8333ZM10.3811 43.1261L10.3812 43.1262C11.0563 44.8783 13.0241 45.7519 14.7763 45.0764L40.1051 35.3148L40.4474 35.1829L40.1995 34.9126L38.8347 33.4247L38.7604 33.3437H38.6505H21.3769H21.1269V33.4284L8.7532 38.1967L8.52009 38.2866L8.60976 38.5197L10.3811 43.1261ZM60.9 61.15H61.15V60.9V52.5V52.25H60.9H44.1H43.85V52.5V60.9V61.15H44.1H60.9ZM60.9 50.65H61.15V50.4V27.2908V27.2901C61.1414 24.1505 59.8895 21.1425 57.6694 18.9229C57.6694 18.9228 57.6693 18.9228 57.6692 18.9227L54.268 15.5143L53.8577 15.7808L57.4117 25.0091C57.4117 25.0091 57.4117 25.0092 57.4117 25.0092C58.4021 27.5853 57.1191 30.4762 54.5447 31.4694L54.5438 31.4697L53.4665 31.8897L53.1099 32.0288L53.3806 32.2994L57.0888 36.0076L55.9576 37.1388L39.4024 20.5875L39.4021 20.5872C37.9587 19.1494 35.6314 19.1264 34.1592 20.5359L34.3321 20.7165L34.1592 20.5359C32.6874 21.9453 32.6101 24.2714 33.9848 25.776L33.9851 25.7763L42.5896 35.1633L42.5896 35.1634C42.8248 35.4198 42.8672 35.7989 42.6944 36.1008L42.9114 36.225L42.6944 36.1009C40.2525 40.3693 40.3563 45.6355 42.9654 49.805L43.1773 49.6723L42.9654 49.805L43.4208 50.5326L43.4943 50.65H43.6327H60.9Z" fill="black" stroke="#FBFBFB" stroke-width="0.5"/>
<path d="M6.30251 10.25H6.05251V10.5V11.97C6.05251 12.4558 6.44663 12.85 6.93251 12.85H11.9725C12.4584 12.85 12.8525 12.4558 12.8525 11.97V10.5V10.25H12.6025H10.7525V8.64995H12.6025H12.8525V8.39995V6.92995C12.8525 6.44407 12.4584 6.04995 11.9725 6.04995H6.93251C6.44663 6.04995 6.05251 6.44407 6.05251 6.92995V8.39995V8.64995H6.30251H8.15251V10.25H6.30251ZM14.4525 11.97C14.4525 13.3397 13.3422 14.45 11.9725 14.45H6.93251C5.56279 14.45 4.45251 13.3397 4.45251 11.97V6.92995C4.45251 5.56022 5.56279 4.44995 6.93251 4.44995H11.9725C13.3422 4.44995 14.4525 5.56022 14.4525 6.92995V11.97Z" fill="black" stroke="#FBFBFB" stroke-width="0.5"/>
<path d="M5.5 18.1H9.2V19.7H5.5V18.1Z" fill="black" stroke="#FBFBFB" stroke-width="0.5"/>
<path d="M5.5 24.4H9.2V26H5.5V24.4Z" fill="black" stroke="#FBFBFB" stroke-width="0.5"/>
<path d="M24.3984 24.4H28.0984V26H24.3984V24.4Z" fill="black" stroke="#FBFBFB" stroke-width="0.5"/>
<path d="M11.7975 18.1H15.4975V19.7H11.7975V18.1Z" fill="black" stroke="#FBFBFB" stroke-width="0.5"/>
<path d="M18.1013 18.1H21.8013V19.7H18.1013V18.1Z" fill="black" stroke="#FBFBFB" stroke-width="0.5"/>
<path d="M24.3984 18.1H28.0984V19.7H24.3984V18.1Z" fill="black" stroke="#FBFBFB" stroke-width="0.5"/>
<path d="M44.3481 5.5H45.9482V8.15H44.3481V5.5Z" fill="black" stroke="#FBFBFB" stroke-width="0.5"/>
<path d="M40.1484 5.5H41.7484V8.15H40.1484V5.5Z" fill="black" stroke="#FBFBFB" stroke-width="0.5"/>
<path d="M35.9525 5.5H37.5525V8.15H35.9525V5.5Z" fill="black" stroke="#FBFBFB" stroke-width="0.5"/>
<path d="M31.75 5.5H33.35V8.15H31.75V5.5Z" fill="black" stroke="#FBFBFB" stroke-width="0.5"/>
<path d="M46.4493 54.85H48.0493V56.45H46.4493V54.85Z" fill="black" stroke="#FBFBFB" stroke-width="0.5"/>
</svg>
