<svg width="20" height="20" viewBox="0 0 20 20" fill="none" xmlns="http://www.w3.org/2000/svg">
<path d="M17.5265 5.00855L17.1121 5.42293C16.7736 5.76148 16.3234 5.94793 15.8446 5.94793C15.3658 5.94793 14.9157 5.76148 14.5771 5.42293C14.2386 5.08437 14.0521 4.63422 14.0521 4.15543C14.0521 3.67664 14.2386 3.22648 14.5771 2.88789L14.9915 2.47352L12.5179 0L0 12.5179L2.47352 14.9914L2.88789 14.5771C3.22645 14.2385 3.6766 14.0521 4.15543 14.0521C4.63426 14.0521 5.08434 14.2385 5.42293 14.5771C5.76148 14.9156 5.94793 15.3658 5.94793 15.8446C5.94793 16.3234 5.76148 16.7735 5.42293 17.1121L5.00855 17.5265L7.48207 20L20 7.48207L17.5265 5.00855ZM6.62539 17.4858C6.94715 17.0036 7.12 16.4374 7.12 15.8446C7.12 15.0527 6.81164 14.3082 6.25168 13.7483C5.69176 13.1884 4.94727 12.88 4.15543 12.88C3.56262 12.88 2.99637 13.0529 2.51422 13.3746L1.6575 12.5179L12.5179 1.6575L13.3746 2.51422C13.0529 2.99637 12.88 3.56262 12.88 4.15543C12.88 4.9473 13.1884 5.69176 13.7483 6.25168C14.3082 6.81164 15.0527 7.12 15.8446 7.12C16.4374 7.12 17.0036 6.94715 17.4858 6.62539L18.3425 7.48207L7.48207 18.3425L6.62539 17.4858Z" fill="#323232"/>
<path d="M11.6784 7.4901L10.8496 8.31885L11.6817 9.15091L12.5104 8.32216L11.6784 7.4901Z" fill="#323232"/>
<path d="M10.0143 5.82556L9.18555 6.6543L10.0176 7.48635L10.8463 6.65761L10.0143 5.82556Z" fill="#323232"/>
<path d="M13.3424 9.15417L12.5137 9.98291L13.3457 10.815L14.1745 9.98622L13.3424 9.15417Z" fill="#323232"/>
</svg>
