<svg width="16" height="16" viewBox="0 0 16 16" fill="none" xmlns="http://www.w3.org/2000/svg">
<path d="M7.93333 0.9C4.05506 0.9 0.9 4.05506 0.9 7.93333C0.9 11.8116 4.05506 14.9667 7.93333 14.9667C11.8116 14.9667 14.9667 11.8116 14.9667 7.93333C14.9667 4.05506 11.8116 0.9 7.93333 0.9ZM7.93333 14.3044C4.42044 14.3044 1.56222 11.4462 1.56222 7.93333C1.56222 4.42044 4.42044 1.56222 7.93333 1.56222C11.4462 1.56222 14.3044 4.42044 14.3044 7.93333C14.3044 11.4462 11.4462 14.3044 7.93333 14.3044Z" fill="#323232" stroke="black" stroke-width="0.2"/>
<path d="M7.9328 2.28672C7.75006 2.28672 7.60168 2.43473 7.60168 2.61783V7.83339H4.23502C4.05228 7.83339 3.90391 7.9814 3.90391 8.1645C3.90391 8.34759 4.05228 8.49561 4.23502 8.49561H7.9328C8.11553 8.49561 8.26391 8.34759 8.26391 8.1645V2.61783C8.26391 2.43473 8.11553 2.28672 7.9328 2.28672Z" fill="#323232" stroke="black" stroke-width="0.2"/>
</svg>
