<svg width="21" height="15" viewBox="0 0 21 15" fill="none" xmlns="http://www.w3.org/2000/svg">
<mask id="path-1-inside-1" fill="white">
<path fill-rule="evenodd" clip-rule="evenodd" d="M13.7255 11.3338H13.6462V4.41076H18.2315L19.3125 7.65836V11.3338H18.6079C18.3274 10.2477 17.3387 9.44226 16.1667 9.44226C14.9947 9.44226 14.006 10.2477 13.7255 11.3338ZM12.3904 1.88931V3.15036H12.3895V11.3331H8.53353C8.25283 10.2474 7.26432 9.44226 6.09253 9.44226C4.9205 9.44226 3.93183 10.2477 3.65136 11.3338H2.94223V8.18737H1.68643V12.5942H3.65183C3.93293 13.6793 4.92115 14.4839 6.09253 14.4839C7.26414 14.4839 8.24926 13.679 8.53187 12.5935H12.3895V12.5942H13.726C14.0071 13.6793 14.9953 14.4839 16.1667 14.4839C17.3381 14.4839 18.323 13.6793 18.6059 12.5942H20.5729V7.45597L19.1377 3.15036H13.6462V0.628906H0.425781V1.88931H12.3904ZM16.1667 10.7027C15.4721 10.7027 14.9063 11.2685 14.9063 11.9631C14.9063 12.6577 15.4721 13.2235 16.1667 13.2235C16.8613 13.2235 17.4271 12.6577 17.4271 11.9631C17.4271 11.2685 16.8613 10.7027 16.1667 10.7027ZM4.83213 11.9631C4.83213 11.2685 5.39793 10.7027 6.09253 10.7027C6.78713 10.7027 7.35293 11.2685 7.35293 11.9631C7.35293 12.6577 6.78713 13.2235 6.09253 13.2235C5.39793 13.2235 4.83213 12.6577 4.83213 11.9631ZM6.72331 3.15036H1.05611V4.41076H6.72331V3.15036ZM1.68643 5.66599H5.46303V6.92639H1.68643V5.66599Z"/>
</mask>
<path fill-rule="evenodd" clip-rule="evenodd" d="M13.7255 11.3338H13.6462V4.41076H18.2315L19.3125 7.65836V11.3338H18.6079C18.3274 10.2477 17.3387 9.44226 16.1667 9.44226C14.9947 9.44226 14.006 10.2477 13.7255 11.3338ZM12.3904 1.88931V3.15036H12.3895V11.3331H8.53353C8.25283 10.2474 7.26432 9.44226 6.09253 9.44226C4.9205 9.44226 3.93183 10.2477 3.65136 11.3338H2.94223V8.18737H1.68643V12.5942H3.65183C3.93293 13.6793 4.92115 14.4839 6.09253 14.4839C7.26414 14.4839 8.24926 13.679 8.53187 12.5935H12.3895V12.5942H13.726C14.0071 13.6793 14.9953 14.4839 16.1667 14.4839C17.3381 14.4839 18.323 13.6793 18.6059 12.5942H20.5729V7.45597L19.1377 3.15036H13.6462V0.628906H0.425781V1.88931H12.3904ZM16.1667 10.7027C15.4721 10.7027 14.9063 11.2685 14.9063 11.9631C14.9063 12.6577 15.4721 13.2235 16.1667 13.2235C16.8613 13.2235 17.4271 12.6577 17.4271 11.9631C17.4271 11.2685 16.8613 10.7027 16.1667 10.7027ZM4.83213 11.9631C4.83213 11.2685 5.39793 10.7027 6.09253 10.7027C6.78713 10.7027 7.35293 11.2685 7.35293 11.9631C7.35293 12.6577 6.78713 13.2235 6.09253 13.2235C5.39793 13.2235 4.83213 12.6577 4.83213 11.9631ZM6.72331 3.15036H1.05611V4.41076H6.72331V3.15036ZM1.68643 5.66599H5.46303V6.92639H1.68643V5.66599Z" fill="#FF8D20"/>
<path d="M13.6462 11.3338H13.4462V11.5338H13.6462V11.3338ZM13.7255 11.3338V11.5338H13.8804L13.9192 11.3838L13.7255 11.3338ZM13.6462 4.41076V4.21076H13.4462V4.41076H13.6462ZM18.2315 4.41076L18.4213 4.3476L18.3757 4.21076H18.2315V4.41076ZM19.3125 7.65836H19.5125V7.62595L19.5023 7.5952L19.3125 7.65836ZM19.3125 11.3338V11.5338H19.5125V11.3338H19.3125ZM18.6079 11.3338L18.4142 11.3838L18.453 11.5338H18.6079V11.3338ZM12.3904 3.15036V3.35036H12.5904V3.15036H12.3904ZM12.3904 1.88931H12.5904V1.68931H12.3904V1.88931ZM12.3895 3.15036V2.95036H12.1895V3.15036H12.3895ZM12.3895 11.3331V11.5331H12.5895V11.3331H12.3895ZM8.53353 11.3331L8.3399 11.3832L8.37866 11.5331H8.53353V11.3331ZM3.65136 11.3338V11.5338H3.80627L3.845 11.3838L3.65136 11.3338ZM2.94223 11.3338H2.74223V11.5338H2.94223V11.3338ZM2.94223 8.18737H3.14223V7.98737H2.94223V8.18737ZM1.68643 8.18737V7.98737H1.48643V8.18737H1.68643ZM1.68643 12.5942H1.48643V12.7942H1.68643V12.5942ZM3.65183 12.5942L3.84543 12.544L3.80662 12.3942H3.65183V12.5942ZM8.53187 12.5935V12.3935H8.37727L8.33832 12.5431L8.53187 12.5935ZM12.3895 12.5935H12.5895V12.3935H12.3895V12.5935ZM12.3895 12.5942H12.1895V12.7942H12.3895V12.5942ZM13.726 12.5942L13.9196 12.544L13.8808 12.3942H13.726V12.5942ZM18.6059 12.5942V12.3942H18.4513L18.4123 12.5437L18.6059 12.5942ZM20.5729 12.5942V12.7942H20.7729V12.5942H20.5729ZM20.5729 7.45597H20.7729V7.42351L20.7626 7.39272L20.5729 7.45597ZM19.1377 3.15036L19.3274 3.08712L19.2819 2.95036H19.1377V3.15036ZM13.6462 3.15036H13.4462V3.35036H13.6462V3.15036ZM13.6462 0.628906H13.8462V0.428906H13.6462V0.628906ZM0.425781 0.628906V0.428906H0.225781V0.628906H0.425781ZM0.425781 1.88931H0.225781V2.08931H0.425781V1.88931ZM1.05611 3.15036V2.95036H0.856106V3.15036H1.05611ZM6.72331 3.15036H6.92331V2.95036H6.72331V3.15036ZM1.05611 4.41076H0.856106V4.61076H1.05611V4.41076ZM6.72331 4.41076V4.61076H6.92331V4.41076H6.72331ZM5.46303 5.66599H5.66303V5.46599H5.46303V5.66599ZM1.68643 5.66599V5.46599H1.48643V5.66599H1.68643ZM5.46303 6.92639V7.12639H5.66303V6.92639H5.46303ZM1.68643 6.92639H1.48643V7.12639H1.68643V6.92639ZM13.6462 11.5338H13.7255V11.1338H13.6462V11.5338ZM13.4462 4.41076V11.3338H13.8462V4.41076H13.4462ZM18.2315 4.21076H13.6462V4.61076H18.2315V4.21076ZM19.5023 7.5952L18.4213 4.3476L18.0417 4.47393L19.1227 7.72153L19.5023 7.5952ZM19.5125 11.3338V7.65836H19.1125V11.3338H19.5125ZM18.6079 11.5338H19.3125V11.1338H18.6079V11.5338ZM16.1667 9.64226C17.2451 9.64226 18.1559 10.3836 18.4142 11.3838L18.8015 11.2838C18.4989 10.1118 17.4324 9.24226 16.1667 9.24226V9.64226ZM13.9192 11.3838C14.1775 10.3836 15.0883 9.64226 16.1667 9.64226V9.24226C14.901 9.24226 13.8345 10.1118 13.5319 11.2838L13.9192 11.3838ZM12.5904 3.15036V1.88931H12.1904V3.15036H12.5904ZM12.3895 3.35036H12.3904V2.95036H12.3895V3.35036ZM12.5895 11.3331V3.15036H12.1895V11.3331H12.5895ZM8.53353 11.5331H12.3895V11.1331H8.53353V11.5331ZM6.09253 9.64226C7.17069 9.64226 8.08139 10.3833 8.3399 11.3832L8.72716 11.283C8.42426 10.1115 7.35795 9.24226 6.09253 9.24226V9.64226ZM3.845 11.3838C4.1033 10.3836 5.01415 9.64226 6.09253 9.64226V9.24226C4.82685 9.24226 3.76037 10.1118 3.45771 11.2838L3.845 11.3838ZM2.94223 11.5338H3.65136V11.1338H2.94223V11.5338ZM2.74223 8.18737V11.3338H3.14223V8.18737H2.74223ZM1.68643 8.38737H2.94223V7.98737H1.68643V8.38737ZM1.88643 12.5942V8.18737H1.48643V12.5942H1.88643ZM3.65183 12.3942H1.68643V12.7942H3.65183V12.3942ZM6.09253 14.2839C5.01475 14.2839 4.10431 13.5433 3.84543 12.544L3.45822 12.6443C3.76155 13.8153 4.82756 14.6839 6.09253 14.6839V14.2839ZM8.33832 12.5431C8.0779 13.5434 7.17016 14.2839 6.09253 14.2839V14.6839C7.35812 14.6839 8.42061 13.8146 8.72542 12.6439L8.33832 12.5431ZM12.3895 12.3935H8.53187V12.7935H12.3895V12.3935ZM12.5895 12.5942V12.5935H12.1895V12.5942H12.5895ZM13.726 12.3942H12.3895V12.7942H13.726V12.3942ZM16.1667 14.2839C15.0889 14.2839 14.1785 13.5433 13.9196 12.544L13.5324 12.6443C13.8357 13.8153 14.9017 14.6839 16.1667 14.6839V14.2839ZM18.4123 12.5437C18.1517 13.5437 17.2441 14.2839 16.1667 14.2839V14.6839C17.432 14.6839 18.4943 13.815 18.7994 12.6446L18.4123 12.5437ZM20.5729 12.3942H18.6059V12.7942H20.5729V12.3942ZM20.3729 7.45597V12.5942H20.7729V7.45597H20.3729ZM18.948 3.21361L20.3832 7.51921L20.7626 7.39272L19.3274 3.08712L18.948 3.21361ZM13.6462 3.35036H19.1377V2.95036H13.6462V3.35036ZM13.4462 0.628906V3.15036H13.8462V0.628906H13.4462ZM0.425781 0.828906H13.6462V0.428906H0.425781V0.828906ZM0.625781 1.88931V0.628906H0.225781V1.88931H0.625781ZM12.3904 1.68931H0.425781V2.08931H12.3904V1.68931ZM15.1063 11.9631C15.1063 11.3789 15.5826 10.9027 16.1667 10.9027V10.5027C15.3616 10.5027 14.7063 11.158 14.7063 11.9631H15.1063ZM16.1667 13.0235C15.5826 13.0235 15.1063 12.5472 15.1063 11.9631H14.7063C14.7063 12.7681 15.3616 13.4235 16.1667 13.4235V13.0235ZM17.2271 11.9631C17.2271 12.5472 16.7508 13.0235 16.1667 13.0235V13.4235C16.9718 13.4235 17.6271 12.7681 17.6271 11.9631H17.2271ZM16.1667 10.9027C16.7508 10.9027 17.2271 11.3789 17.2271 11.9631H17.6271C17.6271 11.158 16.9718 10.5027 16.1667 10.5027V10.9027ZM6.09253 10.5027C5.28747 10.5027 4.63213 11.158 4.63213 11.9631H5.03213C5.03213 11.3789 5.50839 10.9027 6.09253 10.9027V10.5027ZM7.55293 11.9631C7.55293 11.158 6.89759 10.5027 6.09253 10.5027V10.9027C6.67667 10.9027 7.15293 11.3789 7.15293 11.9631H7.55293ZM6.09253 13.4235C6.89759 13.4235 7.55293 12.7681 7.55293 11.9631H7.15293C7.15293 12.5472 6.67667 13.0235 6.09253 13.0235V13.4235ZM4.63213 11.9631C4.63213 12.7681 5.28747 13.4235 6.09253 13.4235V13.0235C5.50839 13.0235 5.03213 12.5472 5.03213 11.9631H4.63213ZM1.05611 3.35036H6.72331V2.95036H1.05611V3.35036ZM1.25611 4.41076V3.15036H0.856106V4.41076H1.25611ZM6.72331 4.21076H1.05611V4.61076H6.72331V4.21076ZM6.52331 3.15036V4.41076H6.92331V3.15036H6.52331ZM5.46303 5.46599H1.68643V5.86599H5.46303V5.46599ZM5.66303 6.92639V5.66599H5.26303V6.92639H5.66303ZM1.68643 7.12639H5.46303V6.72639H1.68643V7.12639ZM1.48643 5.66599V6.92639H1.88643V5.66599H1.48643Z" fill="white" mask="url(#path-1-inside-1)"/>
</svg>
