<svg width="37" height="33" viewBox="0 0 37 33" fill="none" xmlns="http://www.w3.org/2000/svg">
<path d="M28.1472 0.570704C27.9138 0.338626 27.5636 0.269543 27.2596 0.395929C26.9556 0.522315 26.7573 0.819338 26.7573 1.14851V5.49721C22.3554 5.6723 20.1511 7.4971 19.8143 7.80049C17.5935 9.62305 16.0772 12.1629 15.5264 14.9822C15.2511 16.3444 15.2017 17.7426 15.3809 19.1208L15.3816 19.1256C15.3832 19.1376 15.3851 19.1501 15.387 19.1622L15.5602 20.1576C15.6184 20.4929 15.8792 20.7568 16.2138 20.8192C16.5487 20.8816 16.8868 20.7291 17.0618 20.4372L17.5808 19.5722C19.1751 16.9213 21.1619 15.164 23.4868 14.3493C24.5355 13.9784 25.6465 13.8158 26.7573 13.8699V18.3739C26.7573 18.7037 26.9562 19.0014 27.2612 19.1271C27.5665 19.2532 27.9173 19.1825 28.1501 18.9485L36.7624 10.2925C37.0798 9.97356 37.0786 9.45751 36.7596 9.14011L28.1472 0.570704ZM28.3875 16.3989V13.1367C28.3875 12.7369 28.0972 12.3959 27.7021 12.3322C27.0049 12.2199 25.1454 12.0413 22.9479 12.8114C20.6035 13.6327 18.5753 15.249 16.9049 17.6239C16.9001 16.8436 16.974 16.0646 17.1255 15.299C17.6209 12.7945 18.879 10.6908 20.8646 9.04715C20.8821 9.03283 20.8986 9.01787 20.9149 9.00195C20.9718 8.9491 23.0418 7.08037 27.5659 7.11412H27.5719C28.0221 7.11412 28.3872 6.74897 28.3875 6.29882V3.10925L35.0325 9.72079L28.3875 16.3989Z" fill="#333333"/>
<path d="M34.0134 24.3306C33.5636 24.3306 33.1984 24.6954 33.1984 25.1456V28.5898C33.1971 29.9397 32.1033 31.0332 30.7535 31.0348H4.07491C2.7251 31.0332 1.63156 29.9397 1.62996 28.5898V9.17354C1.63156 7.82373 2.7251 6.73019 4.07491 6.7286H9.71133C10.1615 6.7286 10.5263 6.36376 10.5263 5.91361C10.5263 5.46346 10.1615 5.09863 9.71133 5.09863H4.07491C1.82543 5.10118 0.00254682 6.92406 0 9.17354V28.5898C0.00254682 30.8393 1.82543 32.6622 4.07491 32.6647H30.7535C33.0029 32.6622 34.8258 30.8393 34.8284 28.5898V25.1456C34.8284 24.6954 34.4635 24.3306 34.0134 24.3306Z" fill="#333333"/>
</svg>
