<svg width="23" height="16" viewBox="0 0 23 16" fill="none" xmlns="http://www.w3.org/2000/svg">
<mask id="path-1-inside-1" fill="white">
<path fill-rule="evenodd" clip-rule="evenodd" d="M15.093 12.4062H15.0067V4.88123H19.9907L21.1657 8.41123V12.4062H20.3999C20.095 11.2257 19.0204 10.3503 17.7465 10.3503C16.4725 10.3503 15.3979 11.2257 15.093 12.4062ZM13.6417 2.14051V3.51122H13.6407V12.4055H9.44954C9.14442 11.2254 8.06995 10.3503 6.79628 10.3503C5.52233 10.3503 4.44769 11.2257 4.14283 12.4062H3.37191V8.98624H2.00691V13.7762H4.14334C4.44888 14.9557 5.52304 15.8303 6.79628 15.8303C8.06977 15.8303 9.14055 14.9554 9.44773 13.7755H13.6407V13.7762H15.0935C15.3991 14.9557 16.4732 15.8303 17.7465 15.8303C19.0197 15.8303 20.0903 14.9557 20.3977 13.7762H22.5357V8.19123L20.9757 3.51122H15.0067V0.770508H0.636719V2.14051H13.6417ZM17.7465 11.7203C16.9915 11.7203 16.3765 12.3353 16.3765 13.0903C16.3765 13.8453 16.9915 14.4603 17.7465 14.4603C18.5015 14.4603 19.1165 13.8453 19.1165 13.0903C19.1165 12.3353 18.5015 11.7203 17.7465 11.7203ZM5.42628 13.0903C5.42628 12.3353 6.04128 11.7203 6.79628 11.7203C7.55127 11.7203 8.16627 12.3353 8.16627 13.0903C8.16627 13.8453 7.55127 14.4603 6.79628 14.4603C6.04128 14.4603 5.42628 13.8453 5.42628 13.0903ZM7.4819 3.51122H1.3219V4.88122H7.4819V3.51122ZM2.00691 6.2456H6.11191V7.6156H2.00691V6.2456Z"/>
</mask>
<path fill-rule="evenodd" clip-rule="evenodd" d="M15.093 12.4062H15.0067V4.88123H19.9907L21.1657 8.41123V12.4062H20.3999C20.095 11.2257 19.0204 10.3503 17.7465 10.3503C16.4725 10.3503 15.3979 11.2257 15.093 12.4062ZM13.6417 2.14051V3.51122H13.6407V12.4055H9.44954C9.14442 11.2254 8.06995 10.3503 6.79628 10.3503C5.52233 10.3503 4.44769 11.2257 4.14283 12.4062H3.37191V8.98624H2.00691V13.7762H4.14334C4.44888 14.9557 5.52304 15.8303 6.79628 15.8303C8.06977 15.8303 9.14055 14.9554 9.44773 13.7755H13.6407V13.7762H15.0935C15.3991 14.9557 16.4732 15.8303 17.7465 15.8303C19.0197 15.8303 20.0903 14.9557 20.3977 13.7762H22.5357V8.19123L20.9757 3.51122H15.0067V0.770508H0.636719V2.14051H13.6417ZM17.7465 11.7203C16.9915 11.7203 16.3765 12.3353 16.3765 13.0903C16.3765 13.8453 16.9915 14.4603 17.7465 14.4603C18.5015 14.4603 19.1165 13.8453 19.1165 13.0903C19.1165 12.3353 18.5015 11.7203 17.7465 11.7203ZM5.42628 13.0903C5.42628 12.3353 6.04128 11.7203 6.79628 11.7203C7.55127 11.7203 8.16627 12.3353 8.16627 13.0903C8.16627 13.8453 7.55127 14.4603 6.79628 14.4603C6.04128 14.4603 5.42628 13.8453 5.42628 13.0903ZM7.4819 3.51122H1.3219V4.88122H7.4819V3.51122ZM2.00691 6.2456H6.11191V7.6156H2.00691V6.2456Z" fill="#323232"/>
<path d="M15.0067 12.4062H14.8067V12.6062H15.0067V12.4062ZM15.093 12.4062V12.6062H15.2479L15.2867 12.4562L15.093 12.4062ZM15.0067 4.88123V4.68123H14.8067V4.88123H15.0067ZM19.9907 4.88123L20.1805 4.81806L20.1349 4.68123H19.9907V4.88123ZM21.1657 8.41123H21.3657V8.37881L21.3555 8.34806L21.1657 8.41123ZM21.1657 12.4062V12.6062H21.3657V12.4062H21.1657ZM20.3999 12.4062L20.2063 12.4562L20.245 12.6062H20.3999V12.4062ZM13.6417 3.51122V3.71122H13.8417V3.51122H13.6417ZM13.6417 2.14051H13.8417V1.94051H13.6417V2.14051ZM13.6407 3.51122V3.31122H13.4407V3.51122H13.6407ZM13.6407 12.4055V12.6055H13.8407V12.4055H13.6407ZM9.44954 12.4055L9.2559 12.4556L9.29467 12.6055H9.44954V12.4055ZM4.14283 12.4062V12.6062H4.29774L4.33647 12.4562L4.14283 12.4062ZM3.37191 12.4062H3.17191V12.6062H3.37191V12.4062ZM3.37191 8.98624H3.57191V8.78624H3.37191V8.98624ZM2.00691 8.98624V8.78624H1.80691V8.98624H2.00691ZM2.00691 13.7762H1.80691V13.9762H2.00691V13.7762ZM4.14334 13.7762L4.33694 13.7261L4.29813 13.5762H4.14334V13.7762ZM9.44773 13.7755V13.5755H9.29313L9.25418 13.7251L9.44773 13.7755ZM13.6407 13.7755H13.8407V13.5755H13.6407V13.7755ZM13.6407 13.7762H13.4407V13.9762H13.6407V13.7762ZM15.0935 13.7762L15.2871 13.7261L15.2483 13.5762H15.0935V13.7762ZM20.3977 13.7762V13.5762H20.2432L20.2042 13.7258L20.3977 13.7762ZM22.5357 13.7762V13.9762H22.7357V13.7762H22.5357ZM22.5357 8.19123H22.7357V8.15877L22.7254 8.12798L22.5357 8.19123ZM20.9757 3.51122L21.1654 3.44798L21.1198 3.31122H20.9757V3.51122ZM15.0067 3.51122H14.8067V3.71122H15.0067V3.51122ZM15.0067 0.770508H15.2067V0.570508H15.0067V0.770508ZM0.636719 0.770508V0.570508H0.436719V0.770508H0.636719ZM0.636719 2.14051H0.436719V2.34051H0.636719V2.14051ZM1.3219 3.51122V3.31122H1.1219V3.51122H1.3219ZM7.4819 3.51122H7.6819V3.31122H7.4819V3.51122ZM1.3219 4.88122H1.1219V5.08122H1.3219V4.88122ZM7.4819 4.88122V5.08122H7.6819V4.88122H7.4819ZM6.11191 6.2456H6.31191V6.0456H6.11191V6.2456ZM2.00691 6.2456V6.0456H1.80691V6.2456H2.00691ZM6.11191 7.6156V7.8156H6.31191V7.6156H6.11191ZM2.00691 7.6156H1.80691V7.8156H2.00691V7.6156ZM15.0067 12.6062H15.093V12.2062H15.0067V12.6062ZM14.8067 4.88123V12.4062H15.2067V4.88123H14.8067ZM19.9907 4.68123H15.0067V5.08122H19.9907V4.68123ZM21.3555 8.34806L20.1805 4.81806L19.8009 4.94439L20.9759 8.47439L21.3555 8.34806ZM21.3657 12.4062V8.41123H20.9657V12.4062H21.3657ZM20.3999 12.6062H21.1657V12.2062H20.3999V12.6062ZM17.7465 10.5503C18.9267 10.5503 19.9236 11.3616 20.2063 12.4562L20.5936 12.3562C20.2665 11.0898 19.114 10.1503 17.7465 10.1503V10.5503ZM15.2867 12.4562C15.5693 11.3616 16.5662 10.5503 17.7465 10.5503V10.1503C16.3789 10.1503 15.2264 11.0898 14.8994 12.3562L15.2867 12.4562ZM13.8417 3.51122V2.14051H13.4417V3.51122H13.8417ZM13.6407 3.71122H13.6417V3.31122H13.6407V3.71122ZM13.8407 12.4055V3.51122H13.4407V12.4055H13.8407ZM9.44954 12.6055H13.6407V12.2055H9.44954V12.6055ZM6.79628 10.5503C7.97632 10.5503 8.97299 11.3613 9.2559 12.4556L9.64317 12.3554C9.31585 11.0894 8.16359 10.1503 6.79628 10.1503V10.5503ZM4.33647 12.4562C4.61915 11.3617 5.61598 10.5503 6.79628 10.5503V10.1503C5.42868 10.1503 4.27623 11.0898 3.94918 12.3562L4.33647 12.4562ZM3.37191 12.6062H4.14283V12.2062H3.37191V12.6062ZM3.17191 8.98624V12.4062H3.57191V8.98624H3.17191ZM2.00691 9.18624H3.37191V8.78624H2.00691V9.18624ZM2.20691 13.7762V8.98624H1.80691V13.7762H2.20691ZM4.14334 13.5762H2.00691V13.9762H4.14334V13.5762ZM6.79628 15.6303C5.61664 15.6303 4.62026 14.8198 4.33694 13.7261L3.94973 13.8264C4.27751 15.0917 5.42944 16.0303 6.79628 16.0303V15.6303ZM9.25418 13.7251C8.9692 14.8197 7.97579 15.6303 6.79628 15.6303V16.0303C8.16375 16.0303 9.31191 15.091 9.64128 13.8259L9.25418 13.7251ZM13.6407 13.5755H9.44773V13.9755H13.6407V13.5755ZM13.8407 13.7762V13.7755H13.4407V13.7762H13.8407ZM15.0935 13.5762H13.6407V13.9762H15.0935V13.5762ZM17.7465 15.6303C16.5668 15.6303 15.5704 14.8198 15.2871 13.7261L14.8999 13.8264C15.2277 15.0917 16.3796 16.0303 17.7465 16.0303V15.6303ZM20.2042 13.7258C19.919 14.8201 18.9257 15.6303 17.7465 15.6303V16.0303C19.1137 16.0303 20.2616 15.0914 20.5913 13.8267L20.2042 13.7258ZM22.5357 13.5762H20.3977V13.9762H22.5357V13.5762ZM22.3357 8.19123V13.7762H22.7357V8.19123H22.3357ZM20.7859 3.57447L22.3459 8.25447L22.7254 8.12798L21.1654 3.44798L20.7859 3.57447ZM15.0067 3.71122H20.9757V3.31122H15.0067V3.71122ZM14.8067 0.770508V3.51122H15.2067V0.770508H14.8067ZM0.636719 0.970508H15.0067V0.570508H0.636719V0.970508ZM0.836719 2.14051V0.770508H0.436719V2.14051H0.836719ZM13.6417 1.94051H0.636719V2.34051H13.6417V1.94051ZM16.5765 13.0903C16.5765 12.4457 17.1019 11.9203 17.7465 11.9203V11.5203C16.881 11.5203 16.1765 12.2248 16.1765 13.0903H16.5765ZM17.7465 14.2603C17.1019 14.2603 16.5765 13.7348 16.5765 13.0903H16.1765C16.1765 13.9557 16.881 14.6603 17.7465 14.6603V14.2603ZM18.9165 13.0903C18.9165 13.7348 18.391 14.2603 17.7465 14.2603V14.6603C18.6119 14.6603 19.3165 13.9557 19.3165 13.0903H18.9165ZM17.7465 11.9203C18.391 11.9203 18.9165 12.4457 18.9165 13.0903H19.3165C19.3165 12.2248 18.6119 11.5203 17.7465 11.5203V11.9203ZM6.79628 11.5203C5.93082 11.5203 5.22628 12.2248 5.22628 13.0903H5.62628C5.62628 12.4457 6.15173 11.9203 6.79628 11.9203V11.5203ZM8.36627 13.0903C8.36627 12.2248 7.66173 11.5203 6.79628 11.5203V11.9203C7.44082 11.9203 7.96627 12.4457 7.96627 13.0903H8.36627ZM6.79628 14.6603C7.66173 14.6603 8.36627 13.9557 8.36627 13.0903H7.96627C7.96627 13.7348 7.44082 14.2603 6.79628 14.2603V14.6603ZM5.22628 13.0903C5.22628 13.9557 5.93082 14.6603 6.79628 14.6603V14.2603C6.15173 14.2603 5.62628 13.7348 5.62628 13.0903H5.22628ZM1.3219 3.71122H7.4819V3.31122H1.3219V3.71122ZM1.5219 4.88122V3.51122H1.1219V4.88122H1.5219ZM7.4819 4.68122H1.3219V5.08122H7.4819V4.68122ZM7.2819 3.51122V4.88122H7.6819V3.51122H7.2819ZM6.11191 6.0456H2.00691V6.4456H6.11191V6.0456ZM6.31191 7.6156V6.2456H5.91191V7.6156H6.31191ZM2.00691 7.8156H6.11191V7.4156H2.00691V7.8156ZM1.80691 6.2456V7.6156H2.20691V6.2456H1.80691Z" fill="white" mask="url(#path-1-inside-1)"/>
</svg>
