<svg width="23" height="23" viewBox="0 0 23 23" fill="none" xmlns="http://www.w3.org/2000/svg">
<path d="M15.205 12.0448L15.0419 12.1571L15.2291 12.2217C16.8413 12.7781 18.3192 13.6971 19.561 14.939C21.6907 17.0687 22.8739 19.8921 22.8996 22.9H21.3026C21.2488 17.5403 16.8722 13.1969 11.5 13.1969C6.12781 13.1969 1.75121 17.5403 1.69738 22.9H0.100426C0.126091 19.8921 1.30927 17.0687 3.439 14.939C4.68087 13.6971 6.15872 12.7781 7.77095 12.2217L7.95811 12.1571L7.79505 12.0448C6.07868 10.8627 4.95156 8.88474 4.95156 6.64844C4.95156 3.03773 7.88929 0.1 11.5 0.1C15.1107 0.1 18.0484 3.03773 18.0484 6.64844C18.0484 8.88474 16.9213 10.8627 15.205 12.0448ZM6.54844 6.64844C6.54844 9.37885 8.76963 11.6 11.5 11.6C14.2304 11.6 16.4516 9.37885 16.4516 6.64844C16.4516 3.91802 14.2304 1.69687 11.5 1.69687C8.76963 1.69687 6.54844 3.91802 6.54844 6.64844Z" fill="black" stroke="white" stroke-width="0.2"/>
</svg>
