<svg width="3" height="99" viewBox="0 0 3 99" fill="none" xmlns="http://www.w3.org/2000/svg">
<path d="M1.70001 98.2001C1.50001 94.1001 1.40005 90.1001 1.30005 86.0001L1.10004 73.8001C1.00004 65.7001 1.00002 57.6001 0.900024 49.4001C1.00002 41.3001 1.00004 33.2001 1.10004 25.0001L1.30005 12.8001C1.40005 8.70011 1.50001 4.7001 1.70001 0.600098C1.90001 4.7001 2.00004 8.70011 2.10004 12.8001L2.30005 25.0001C2.40005 33.1001 2.4 41.2001 2.5 49.4001C2.4 57.5001 2.40005 65.6001 2.30005 73.8001L2.10004 86.0001C1.90004 90.1001 1.80001 94.1001 1.70001 98.2001Z" fill="#F76600"/>
</svg>
