<svg width="29" height="29" viewBox="0 0 29 29" fill="none" xmlns="http://www.w3.org/2000/svg">
<path d="M20.0501 17.4562C19.6258 16.9562 19.1265 16.5296 18.6541 16.0765C18.2279 15.6681 18.201 15.4311 18.5436 14.9598C18.9175 14.4453 19.3197 13.9505 19.697 13.4384C20.0492 12.9598 20.4092 12.4824 20.5945 11.9094C20.7121 11.5448 20.6081 11.3837 20.2276 11.3199C20.162 11.3087 20.0942 11.3081 20.0275 11.3081L17.7697 11.3055C17.4916 11.3015 17.3379 11.4206 17.2395 11.6627C17.1068 11.99 16.9699 12.3171 16.8117 12.6329C16.4529 13.349 16.0521 14.0412 15.4902 14.6274C15.3663 14.7566 15.2292 14.92 15.0222 14.8527C14.7632 14.7598 14.6868 14.3405 14.6911 14.1988L14.6889 11.6385C14.6387 11.2727 14.5561 11.1097 14.1865 11.0386L11.8411 11.039C11.5281 11.039 11.3711 11.1578 11.2039 11.3502C11.1075 11.4613 11.0784 11.5335 11.2766 11.5703C11.6658 11.6428 11.8851 11.8904 11.9433 12.2738C12.0367 12.8865 12.0302 13.5017 11.9764 14.1168C11.9606 14.2964 11.9291 14.4756 11.8566 14.6433C11.7432 14.9069 11.5601 14.9606 11.3195 14.7984C11.1017 14.6516 10.9487 14.4444 10.799 14.2364C10.2365 13.4555 9.78772 12.6135 9.42178 11.7286C9.31604 11.473 9.13366 11.318 8.85796 11.3138C8.18057 11.3032 7.50304 11.3015 6.82566 11.3144C6.41808 11.3219 6.29654 11.5163 6.46253 11.8793C7.20031 13.4916 8.02153 15.0591 9.0935 16.487C9.64388 17.2199 10.2758 17.8668 11.0921 18.3253C12.0173 18.8449 13.0132 19.0013 14.0622 18.9532C14.5533 18.9305 14.7008 18.8051 14.7236 18.3241C14.7389 17.995 14.7769 17.6679 14.9421 17.3722C15.1043 17.082 15.3499 17.0268 15.633 17.2072C15.7746 17.2976 15.8939 17.4127 16.0066 17.534C16.283 17.8311 16.5496 18.1372 16.8365 18.4244C17.1964 18.7842 17.6227 18.9967 18.1588 18.9533L20.2339 18.9538C20.5683 18.9323 20.7416 18.5295 20.5496 18.1629C20.4148 17.9061 20.2379 17.6775 20.0501 17.4562Z" fill="#4D75A3"/>
<circle cx="14.5" cy="14.5" r="14" stroke="#4D75A3"/>
</svg>
