<svg width="18" height="16" viewBox="0 0 18 16" fill="none" xmlns="http://www.w3.org/2000/svg">
<path d="M16.9922 6.95818H16.564V4.29343C16.564 3.20382 15.7075 2.32067 14.6591 2.32067H14.2642L14.2678 1.33047C14.2678 0.596416 13.692 0 12.9832 0H1.56153C0.708778 0 0.0110747 0.711111 0 1.59427C0 1.60191 0 1.60956 0 1.6172V14.6695C0 15.4036 0.575882 16 1.28466 16H14.6628C15.7149 16 16.5677 15.113 16.5677 14.0272V11.3587H16.9959C17.5496 11.3587 18 10.8922 18 10.3188V7.99809C17.9963 7.42461 17.5459 6.95818 16.9922 6.95818ZM1.56153 0.917563H12.9832C13.201 0.917563 13.3819 1.10108 13.3819 1.32664L13.3782 2.32067H1.56153C1.18868 2.32067 0.885972 2.00717 0.885972 1.62103C0.885972 1.23489 1.18868 0.917563 1.56153 0.917563ZM15.678 14.0234C15.678 14.6045 15.2203 15.0786 14.6591 15.0786H1.28097C1.06317 15.0786 0.882281 14.8951 0.882281 14.6657V3.07766C1.08901 3.18088 1.31788 3.23823 1.56153 3.23823H14.6591C15.2203 3.23823 15.678 3.71231 15.678 4.29343V6.95818H12.6546C12.1009 6.95818 11.6505 7.42461 11.6505 7.99809V10.3188C11.6505 10.8922 12.1009 11.3587 12.6546 11.3587H15.678V14.0234ZM17.1103 10.3188C17.1103 10.3876 17.0587 10.4411 16.9922 10.4411H12.6583C12.5919 10.4411 12.5402 10.3876 12.5402 10.3188V7.99809C12.5402 7.93309 12.5919 7.87575 12.6583 7.87575H16.9922C17.055 7.87575 17.1103 7.92927 17.1103 7.99809V10.3188Z" fill="#323232"/>
</svg>
