<svg width="29" height="29" viewBox="0 0 29 29" fill="none" xmlns="http://www.w3.org/2000/svg">
<g clip-path="url(#clip0)">
<path d="M20.7034 14.5941C20.5587 13.9207 20.0446 13.4239 19.4258 13.35C17.9607 13.1747 16.4771 13.1738 15.0008 13.1747C13.5239 13.1738 12.0406 13.1747 10.5751 13.35C9.95661 13.4241 9.44279 13.9209 9.29828 14.5941C9.09231 15.5531 9.08984 16.5999 9.08984 17.5873C9.08984 18.5747 9.08984 19.6213 9.29581 20.5803C9.44032 21.2536 9.95414 21.7503 10.573 21.8244C12.0382 21.9999 13.5214 22.0006 14.9982 21.9999C16.4751 22.0008 17.9581 21.9999 19.4238 21.8244C20.0423 21.7503 20.5564 21.2536 20.7009 20.5803C20.9067 19.6213 20.9078 18.5747 20.9078 17.5873C20.9076 16.5997 20.9092 15.5531 20.7034 14.5941ZM12.4607 15.3374H11.6054V20.2071H10.8109V15.3374H9.97113V14.5397H12.4607V15.3374ZM14.6187 20.2073H13.904V19.7466C13.6201 20.0953 13.3505 20.2653 13.0879 20.2653C12.8577 20.2653 12.6993 20.1654 12.6278 19.9515C12.5889 19.8238 12.5648 19.6217 12.5648 19.3236V15.9844H13.2789V19.0935C13.2789 19.2728 13.2789 19.3659 13.2854 19.3911C13.3025 19.5098 13.3567 19.57 13.4524 19.57C13.5957 19.57 13.7454 19.4518 13.9039 19.2117V15.9844H14.6185L14.6187 20.2073ZM17.3319 18.9398C17.3319 19.3304 17.3073 19.6117 17.2596 19.7907C17.1642 20.1049 16.9732 20.2653 16.6891 20.2653C16.435 20.2653 16.1898 20.1141 15.951 19.7982V20.2074H15.2369V14.5397H15.951V16.3906C16.1816 16.0864 16.4265 15.9326 16.6891 15.9326C16.9732 15.9326 17.1643 16.0929 17.2596 16.409C17.3076 16.5789 17.3319 16.8581 17.3319 17.2579V18.9398ZM20.0271 18.2353H18.5988V18.9838C18.5988 19.3747 18.7182 19.5699 18.9637 19.5699C19.1395 19.5699 19.2419 19.4675 19.2826 19.263C19.2893 19.2215 19.2987 19.0514 19.2987 18.7446H20.0273V18.8562C20.0273 19.1029 20.0185 19.2728 20.012 19.3492C19.9881 19.5186 19.9319 19.6723 19.8452 19.8076C19.6475 20.1143 19.3544 20.2655 18.9814 20.2655C18.6078 20.2655 18.3234 20.1214 18.117 19.8331C17.9655 19.6217 17.8877 19.2888 17.8877 18.84V17.361C17.8877 16.9096 17.9567 16.5794 18.1085 16.366C18.3147 16.077 18.599 15.9331 18.9638 15.9331C19.3222 15.9331 19.6062 16.077 19.8063 16.366C19.9559 16.5794 20.0274 16.9096 20.0274 17.361V18.2353H20.0271Z" fill="#FF0000"/>
<path d="M18.9599 16.6216C18.7212 16.6216 18.6016 16.8169 18.6016 17.2073V17.5981H19.3156V17.2073C19.3155 16.8169 19.1961 16.6216 18.9599 16.6216Z" fill="#FF0000"/>
<path d="M16.3093 16.6216C16.1917 16.6216 16.0725 16.6811 15.9531 16.8077V19.3815C16.0723 19.5095 16.1917 19.5701 16.3093 19.5701C16.5153 19.5701 16.62 19.3815 16.62 19.0002V17.1977C16.62 16.8169 16.5153 16.6216 16.3093 16.6216Z" fill="#FF0000"/>
<path d="M16.7047 12.7855C16.968 12.7855 17.2419 12.6141 17.5292 12.2615V12.727H18.251V8.45923H17.5292V11.721C17.3692 11.9632 17.2176 12.083 17.0733 12.083C16.9766 12.083 16.9198 12.0218 16.9041 11.9018C16.8953 11.8765 16.8953 11.7824 16.8953 11.6013V8.45923H16.1758V11.8338C16.1758 12.1352 16.1999 12.3392 16.2397 12.4684C16.3123 12.6846 16.4724 12.7855 16.7047 12.7855Z" fill="#FF0000"/>
<path d="M11.6823 10.4074V12.7268H12.4827V10.4074L13.4455 7H12.6362L12.0901 9.24892L11.5219 7H10.6797C10.8484 7.53084 11.024 8.06433 11.1927 8.59566C11.4495 9.39432 11.6098 9.99646 11.6823 10.4074Z" fill="#FF0000"/>
<path d="M14.5194 12.7856C14.881 12.7856 15.162 12.6399 15.3613 12.3487C15.5127 12.1352 15.5853 11.7987 15.5853 11.3451V9.85069C15.5853 9.39446 15.5129 9.06097 15.3613 8.84542C15.162 8.55345 14.8811 8.40771 14.5194 8.40771C14.1596 8.40771 13.8788 8.55345 13.679 8.84542C13.5257 9.06097 13.4531 9.39446 13.4531 9.85069V11.3451C13.4531 11.7987 13.5257 12.1352 13.679 12.3487C13.8786 12.6399 14.1596 12.7856 14.5194 12.7856ZM14.1749 9.69569C14.1749 9.30083 14.2867 9.10398 14.5194 9.10398C14.752 9.10398 14.8635 9.30066 14.8635 9.69569V11.4909C14.8635 11.8857 14.752 12.0832 14.5194 12.0832C14.2867 12.0832 14.1749 11.8857 14.1749 11.4909V9.69569Z" fill="#FF0000"/>
</g>
<circle cx="14.5" cy="14.5" r="14" stroke="#FF0000"/>
<defs>
<clipPath id="clip0">
<rect x="8" y="7" width="14" height="15" fill="white"/>
</clipPath>
</defs>
</svg>
