<?xml version="1.0" encoding="utf-8"?>
<!-- Generator: Adobe Illustrator 23.0.3, SVG Export Plug-In . SVG Version: 6.00 Build 0)  -->
<svg version="1.0" id="Layer_1" xmlns="http://www.w3.org/2000/svg" xmlns:xlink="http://www.w3.org/1999/xlink" x="0px" y="0px"
	 width="56px" height="56px" viewBox="0 0 56 56" style="enable-background:new 0 0 56 56;" xml:space="preserve">
<style type="text/css">
	.st0{fill:#FFFFFF;stroke:#F47920;stroke-width:1.06;stroke-miterlimit:10;}
	.st1{fill:none;}
	.st2{fill:#F47920;}
	.st3{fill:#FFFFFF;}
	.st4{fill:#F10300;}
	.st5{fill:none;stroke:#FFFFFF;stroke-width:1.0495;stroke-miterlimit:10;}
	.st6{fill:none;stroke:#FFFFFF;stroke-width:1.5743;stroke-miterlimit:10;}
	.st7{fill:none;stroke:#FFFFFF;stroke-width:2.0991;stroke-miterlimit:10;}
</style>
<g>
	<path class="st0" d="M46.02,54.5H9.98c-4.68,0-8.48-3.8-8.48-8.48V9.98C1.5,5.3,5.3,1.5,9.98,1.5h36.04c4.68,0,8.48,3.8,8.48,8.48
		v36.04C54.5,50.7,50.7,54.5,46.02,54.5z"/>
	<path class="st1" d="M9.98,49.2c-1.75,0-3.18-1.43-3.18-3.18V9.98c0-1.75,1.43-3.18,3.18-3.18h36.04c1.75,0,3.18,1.43,3.18,3.18
		v36.04c0,1.75-1.43,3.18-3.18,3.18H9.98z"/>
	<g>
		<path class="st2" d="M36.5,36.64c1.92-1.88,3.31-4.35,3.9-7.07c0.3-1.36,0.38-2.8,0.26-4.21c-0.08-1.42-0.42-2.83-0.95-4.19
			c-0.5-1.37-1.26-2.64-2.16-3.81c-0.89-1.19-2-2.22-3.23-3.1c-1.22-0.9-2.6-1.58-4.05-2.07c-1.45-0.53-3-0.76-4.57-0.84
			c-1.58-0.1-3.15,0.15-4.71,0.51c-1.55,0.39-3.03,1.07-4.44,1.88c-2.78,1.7-5.11,4.25-6.55,7.3c-1.42,3.05-2.02,6.58-1.52,10.04
			c0.48,3.46,2.01,6.82,4.4,9.53c-2.67-2.42-4.67-5.68-5.59-9.29c-0.94-3.61-0.76-7.53,0.46-11.17c1.24-3.64,3.59-6.93,6.72-9.36
			c1.58-1.18,3.3-2.22,5.19-2.93c1.88-0.68,3.86-1.21,5.89-1.32c2.02-0.14,4.1-0.06,6.11,0.42c2.02,0.43,4,1.15,5.82,2.19
			c1.83,1.01,3.55,2.28,5.01,3.81c1.48,1.51,2.79,3.24,3.77,5.16c1.01,1.9,1.76,3.97,2.15,6.11c0.43,2.14,0.55,4.34,0.34,6.55
			c-0.41,4.41-2.17,8.74-5.02,12.27L36.5,36.64z"/>
	</g>
	<polygon class="st3" points="5.72,36.57 10.56,32.95 15.79,38.55 11.76,40.54 	"/>
	<path class="st4" d="M40.67,26.38c0,0,0.76,5.33-4.17,10.23l7.24,6.4c0,0,5.91-6.38,5.02-16.64H40.67z"/>
	<g>
		<line class="st5" x1="10.76" y1="10.76" x2="18.47" y2="18.41"/>
		<path class="st6" d="M26.13,4.44c0.07,0.35,0,11.39,0,11.39"/>
		<line class="st7" x1="42.85" y1="8.72" x2="34.1" y2="18.73"/>
		<line class="st7" x1="51.41" y1="25.3" x2="36.5" y2="25.3"/>
		<line class="st5" x1="12.79" y1="25.3" x2="4.46" y2="25.3"/>
	</g>
	<g>
		<g>
			<path class="st2" d="M9.72,48.87V36.61H13v4.59h4.28v-4.59h3.29v12.26h-3.29v-4.79H13v4.79H9.72z"/>
			<path class="st2" d="M22.57,48.87V36.61h5.75c1.62,0,2.78,0.32,3.48,0.95c0.7,0.63,1.05,1.68,1.05,3.13v0.81
				c0,1.46-0.35,2.51-1.05,3.15c-0.7,0.64-1.86,0.96-3.47,0.96h-2.46v3.27H22.57z M25.85,42.87h2.29c0.54,0,0.89-0.1,1.07-0.29
				c0.18-0.19,0.26-0.58,0.26-1.16v-0.71c0-0.49-0.11-0.84-0.33-1.04c-0.22-0.21-0.6-0.31-1.13-0.31h-2.16V42.87z"/>
		</g>
	</g>
	<g>
		<g>
			<path class="st2" d="M21.55,33.83c-1.19,0-2.3-0.52-3.07-1.43c-1.42-1.69-1.2-4.23,0.49-5.65c0.31-0.26,0.68-0.49,1.07-0.65
				l25.72-9.96c0.06-0.02,0.12-0.03,0.18-0.03c0.18,0,0.35,0.1,0.44,0.26c0.12,0.22,0.06,0.5-0.15,0.65l-22.14,15.9
				C23.4,33.49,22.49,33.83,21.55,33.83z"/>
			<path class="st3" d="M45.94,16.6L23.8,32.5c-0.66,0.55-1.46,0.83-2.26,0.83c-1,0-1.99-0.43-2.68-1.25
				c-1.24-1.48-1.05-3.7,0.43-4.95c0.28-0.24,0.61-0.43,0.94-0.57L45.94,16.6 M45.94,15.6c-0.12,0-0.24,0.02-0.36,0.07l-25.71,9.96
				c-0.45,0.19-0.87,0.44-1.22,0.73c-1.9,1.6-2.15,4.46-0.55,6.36c0.86,1.02,2.11,1.61,3.45,1.61c1.05,0,2.06-0.37,2.87-1.03
				l22.11-15.88c0.41-0.29,0.54-0.85,0.3-1.29C46.64,15.79,46.3,15.6,45.94,15.6L45.94,15.6z M45.94,17.6L45.94,17.6L45.94,17.6
				L45.94,17.6z"/>
		</g>
	</g>
</g>
</svg>
