<?xml version="1.0" encoding="utf-8"?>
<!-- Generator: Adobe Illustrator 23.0.3, SVG Export Plug-In . SVG Version: 6.00 Build 0)  -->
<svg version="1.0" id="Layer_1" xmlns="http://www.w3.org/2000/svg" xmlns:xlink="http://www.w3.org/1999/xlink" x="0px" y="0px"
	 width="112px" height="114px" viewBox="0 0 112 114" style="enable-background:new 0 0 112 114;" xml:space="preserve">
<style type="text/css">
	.st0{fill:#FFFFFF;stroke:#F47920;stroke-width:1.24;stroke-miterlimit:10;}
	.st1{fill:none;}
	.st2{fill:#F47920;}
	.st3{fill:#FFFFFF;}
	.st4{fill:#F10300;}
	.st5{fill:none;stroke:#FFFFFF;stroke-width:1.2278;stroke-miterlimit:10;}
	.st6{fill:none;stroke:#FFFFFF;stroke-width:1.8417;stroke-miterlimit:10;}
	.st7{fill:none;stroke:#FFFFFF;stroke-width:2.4555;stroke-miterlimit:10;}
</style>
<g>
	<path class="st0" d="M77.08,88H34.92C29.44,88,25,83.56,25,78.08V35.92c0-5.48,4.44-9.92,9.92-9.92h42.16
		c5.48,0,9.92,4.44,9.92,9.92v42.16C87,83.56,82.56,88,77.08,88z"/>
	<path class="st1" d="M34.92,81.8c-2.05,0-3.72-1.67-3.72-3.72V35.92c0-2.05,1.67-3.72,3.72-3.72h42.16c2.05,0,3.72,1.67,3.72,3.72
		v42.16c0,2.05-1.67,3.72-3.72,3.72H34.92z"/>
	<g>
		<path class="st2" d="M65.94,67.1c2.24-2.19,3.87-5.08,4.56-8.27c0.35-1.6,0.45-3.27,0.31-4.93c-0.09-1.67-0.5-3.32-1.11-4.9
			c-0.58-1.6-1.47-3.09-2.53-4.46c-1.04-1.39-2.34-2.6-3.78-3.62c-1.42-1.05-3.04-1.85-4.74-2.43c-1.7-0.62-3.51-0.89-5.35-0.98
			l-1.38-0.02l-1.38,0.12c-0.47,0.02-0.92,0.11-1.38,0.2c-0.45,0.1-0.93,0.14-1.37,0.29c-1.82,0.45-3.55,1.25-5.19,2.2
			c-1.64,0.98-3.1,2.26-4.42,3.67c-1.32,1.43-2.36,3.1-3.24,4.86c-1.67,3.56-2.36,7.69-1.78,11.74c0.56,4.04,2.36,7.98,5.15,11.14
			c-3.13-2.83-5.46-6.64-6.53-10.87c-1.1-4.22-0.89-8.81,0.54-13.07c0.76-2.11,1.75-4.17,3.1-6.01c1.35-1.83,2.92-3.54,4.76-4.94
			c1.85-1.38,3.87-2.6,6.07-3.42c0.54-0.25,1.11-0.37,1.67-0.56c0.56-0.18,1.13-0.36,1.71-0.46l1.74-0.35l1.77-0.18
			c2.36-0.16,4.79-0.07,7.15,0.49c2.36,0.5,4.68,1.34,6.81,2.56c2.14,1.18,4.15,2.67,5.86,4.46c1.73,1.77,3.26,3.79,4.41,6.03
			c1.18,2.22,2.06,4.64,2.52,7.15c0.5,2.5,0.65,5.08,0.4,7.66c-0.48,5.16-2.54,10.23-5.87,14.36L65.94,67.1z"/>
	</g>
	<polygon class="st3" points="29.94,67.03 35.59,62.79 41.72,69.34 37.01,71.66 	"/>
	<path class="st4" d="M70.82,55.1c0,0,0.89,6.23-4.88,11.97l8.47,7.49c0,0,6.92-7.46,5.87-19.46H70.82z"/>
	<g>
		<line class="st5" x1="35.83" y1="36.83" x2="44.85" y2="45.79"/>
		<path class="st6" d="M53.81,29.44c0.08,0.41,0,13.33,0,13.33"/>
		<line class="st7" x1="73.37" y1="34.44" x2="63.14" y2="46.16"/>
		<line class="st7" x1="83.39" y1="53.84" x2="65.94" y2="53.84"/>
		<line class="st5" x1="38.21" y1="53.84" x2="28.47" y2="53.84"/>
	</g>
	<g>
		<g>
			<path class="st2" d="M34.61,81.42V67.07h3.84v5.37h5.01v-5.37h3.84v14.34h-3.84v-5.61h-5.01v5.61H34.61z"/>
			<path class="st2" d="M49.65,81.42V67.07h6.72c1.89,0,3.25,0.37,4.07,1.11c0.82,0.74,1.22,1.96,1.22,3.67v0.94
				c0,1.71-0.41,2.93-1.23,3.68c-0.82,0.75-2.17,1.12-4.06,1.12h-2.88v3.82H49.65z M53.49,74.39h2.68c0.63,0,1.05-0.11,1.25-0.34
				c0.21-0.22,0.31-0.68,0.31-1.36v-0.83c0-0.57-0.13-0.98-0.39-1.22c-0.26-0.24-0.7-0.36-1.32-0.36h-2.52V74.39z"/>
		</g>
	</g>
	<g>
		<g>
			<path class="st2" d="M48.45,63.82c-1.39,0-2.69-0.61-3.59-1.67c-1.66-1.98-1.4-4.95,0.58-6.61c0.36-0.31,0.8-0.57,1.25-0.76
				l30.09-11.66c0.07-0.03,0.14-0.04,0.21-0.04c0.21,0,0.41,0.11,0.52,0.31c0.14,0.26,0.07,0.58-0.17,0.75l-25.9,18.6
				C50.62,63.42,49.55,63.82,48.45,63.82z"/>
			<path class="st3" d="M76.99,43.66l-25.9,18.6c-0.77,0.65-1.71,0.97-2.64,0.97c-1.17,0-2.33-0.5-3.14-1.46
				c-1.46-1.74-1.23-4.33,0.5-5.79c0.33-0.28,0.71-0.5,1.09-0.66L76.99,43.66 M76.99,42.49c-0.14,0-0.28,0.03-0.42,0.08L46.49,54.22
				c-0.53,0.22-1.02,0.51-1.43,0.86c-2.22,1.87-2.51,5.21-0.65,7.44c1,1.2,2.47,1.88,4.03,1.88c1.22,0,2.41-0.43,3.36-1.21
				l25.86-18.58c0.48-0.34,0.63-0.99,0.35-1.51C77.81,42.72,77.41,42.49,76.99,42.49L76.99,42.49z M76.99,44.84L76.99,44.84
				L76.99,44.84L76.99,44.84z"/>
		</g>
	</g>
</g>
<g>
	<path class="st0" d="M199.08-80.85h-42.16c-5.48,0-9.92-4.44-9.92-9.92v-42.16c0-5.48,4.44-9.92,9.92-9.92h42.16
		c5.48,0,9.92,4.44,9.92,9.92v42.16C209-85.29,204.56-80.85,199.08-80.85z"/>
	<g>
		<path class="st2" d="M164.29-96.48c2.78,2.92,6.42,5.06,10.41,6.07c3.99,1.02,8.3,0.88,12.31-0.35c3.98-1.3,7.7-3.67,10.46-6.96
			c1.38-1.63,2.6-3.44,3.48-5.42c0.89-1.97,1.5-4.07,1.87-6.23c-0.21,2.18-0.67,4.34-1.44,6.41c-0.75,2.08-1.86,4.02-3.18,5.82
			c-2.62,3.61-6.35,6.43-10.56,8.13c-4.24,1.65-8.96,2.16-13.52,1.33c-4.56-0.81-8.92-2.96-12.41-6.13L164.29-96.48z"/>
	</g>
	<polygon class="st3" points="185.88,-100.31 195.37,-91.13 206.15,-103.33 205.39,-110.83 190.24,-112.51 	"/>
	<path class="st1" d="M156.92-87.05c-2.05,0-3.72-1.67-3.72-3.72v-42.16c0-2.05,1.67-3.72,3.72-3.72h42.16
		c2.05,0,3.72,1.67,3.72,3.72v42.16c0,2.05-1.67,3.72-3.72,3.72H156.92z"/>
	<g>
		<path class="st2" d="M187.95-101.75c2.24-2.19,3.87-5.08,4.56-8.27c0.35-1.6,0.45-3.27,0.31-4.93c-0.09-1.67-0.5-3.32-1.11-4.9
			c-0.58-1.6-1.47-3.09-2.53-4.46c-1.04-1.39-2.34-2.6-3.78-3.62c-1.42-1.05-3.04-1.85-4.74-2.43c-1.7-0.62-3.51-0.89-5.35-0.98
			l-1.38-0.02l-1.38,0.12c-0.47,0.02-0.92,0.11-1.38,0.2c-0.45,0.1-0.93,0.14-1.37,0.29c-1.82,0.45-3.55,1.25-5.19,2.2
			c-1.64,0.98-3.1,2.26-4.42,3.67c-1.32,1.43-2.36,3.1-3.24,4.86c-1.67,3.56-2.36,7.69-1.78,11.74c0.56,4.04,2.36,7.98,5.15,11.14
			c-3.13-2.83-5.46-6.64-6.53-10.87c-1.1-4.22-0.89-8.81,0.54-13.07c0.76-2.11,1.75-4.17,3.1-6.01c1.35-1.83,2.92-3.54,4.76-4.94
			c1.85-1.38,3.87-2.6,6.07-3.42c0.54-0.25,1.11-0.37,1.67-0.56c0.56-0.18,1.13-0.36,1.71-0.46l1.74-0.35l1.77-0.18
			c2.36-0.16,4.79-0.07,7.15,0.49c2.36,0.5,4.68,1.34,6.81,2.56c2.14,1.18,4.15,2.67,5.86,4.46c1.73,1.77,3.26,3.79,4.41,6.03
			c1.18,2.22,2.06,4.64,2.52,7.15c0.5,2.5,0.65,5.08,0.4,7.66c-0.48,5.16-2.54,10.23-5.87,14.36L187.95-101.75z"/>
	</g>
	<path class="st4" d="M192.83-113.75c0,0,0.89,6.23-4.88,11.97l8.47,7.49c0,0,6.92-7.46,5.87-19.46H192.83z"/>
	<polygon class="st3" points="151.85,-101.82 157.5,-106.06 166.09,-99.08 159.34,-91.37 	"/>
	<g>
		<line class="st5" x1="157.83" y1="-132.02" x2="166.85" y2="-123.07"/>
		<path class="st6" d="M175.81-139.41c0.08,0.41,0,13.33,0,13.33"/>
		<line class="st7" x1="195.37" y1="-134.41" x2="185.14" y2="-122.7"/>
		<line class="st7" x1="205.39" y1="-115.01" x2="187.95" y2="-115.01"/>
		<line class="st5" x1="160.21" y1="-115.01" x2="150.47" y2="-115.01"/>
	</g>
	<g>
		<path class="st2" d="M166.92-101.49l2.57,1.79c0.09,0.06,0.11,0.19,0.05,0.28l-0.55,0.84l2.31,2.69c1.34,1.85,1.78,3.74,1.5,5.19
			l-1.63,2.34c-1.26,0.77-3.18,1.02-5.38,0.4l-3.32-1.32l-0.6,0.89c-0.06,0.09-0.19,0.11-0.28,0.05l-2.57-1.79
			c-0.09-0.06-0.11-0.19-0.05-0.28l7.68-11.04C166.71-101.54,166.83-101.56,166.92-101.49z M155.1-97.12l-0.15,0.22
			c-0.27,0.39-0.17,0.92,0.21,1.19l4.45,3.09l1.13-1.63l-4.45-3.09C155.91-97.61,155.37-97.51,155.1-97.12z M159.15-102.95
			l-0.15,0.22c-0.27,0.39-0.17,0.92,0.21,1.19l4.45,3.09l1.13-1.63l-4.45-3.09C159.96-103.43,159.43-103.34,159.15-102.95z"/>
	</g>
	<g>
		<g>
			<path class="st2" d="M173.83-102.54c-1.19,0-2.32-0.45-3.19-1.26c-1.89-1.76-2-4.74-0.24-6.64c0.32-0.35,0.72-0.66,1.15-0.9
				l26.91-13.85c0.09-0.04,0.18-0.07,0.27-0.07c0.19,0,0.37,0.09,0.48,0.25c0.17,0.24,0.13,0.57-0.08,0.77l-21.89,20.23
				C176.39-103.09,175.13-102.54,173.83-102.54z"/>
			<path class="st3" d="M198.73-124.67l-21.89,20.23c-0.81,0.87-1.91,1.31-3.01,1.31c-1,0-2-0.36-2.79-1.1
				c-1.66-1.54-1.75-4.15-0.21-5.81c0.3-0.32,0.65-0.59,1-0.79L198.73-124.67 M198.73-125.84c-0.18,0-0.36,0.04-0.54,0.13
				l-26.89,13.84c-0.52,0.29-0.96,0.64-1.33,1.04c-1.98,2.13-1.86,5.48,0.27,7.46c0.98,0.91,2.25,1.41,3.59,1.41
				c1.45,0,2.84-0.6,3.83-1.65l21.86-20.2c0.43-0.4,0.5-1.05,0.16-1.53C199.47-125.66,199.1-125.84,198.73-125.84L198.73-125.84z
				 M198.73-123.49L198.73-123.49L198.73-123.49L198.73-123.49z"/>
		</g>
	</g>
</g>
</svg>
