<?xml version="1.0" encoding="utf-8"?>
<!-- Generator: Adobe Illustrator 23.0.3, SVG Export Plug-In . SVG Version: 6.00 Build 0)  -->
<svg version="1.0" id="Layer_1" xmlns="http://www.w3.org/2000/svg" xmlns:xlink="http://www.w3.org/1999/xlink" x="0px" y="0px"
	 width="112px" height="112px" viewBox="0 0 112 112" style="enable-background:new 0 0 112 112;" xml:space="preserve">
<style type="text/css">
	.st0{fill:#FFFFFF;stroke:#D8792C;stroke-width:1.64;stroke-miterlimit:10;}
	.st1{fill:none;}
	.st2{fill:#FFFFFF;}
	.st3{fill:#000200;}
	.st4{fill:#D8792C;stroke:#000200;stroke-width:0.655;stroke-miterlimit:10;}
</style>
<path class="st0" d="M83.6,97.51H27.84c-7.25,0-13.12-5.87-13.12-13.12V28.63c0-7.25,5.87-13.12,13.12-13.12H83.6
	c7.25,0,13.12,5.87,13.12,13.12v55.76C96.72,91.64,90.85,97.51,83.6,97.51z"/>
<path class="st1" d="M27.84,89.31c-2.71,0-4.92-2.21-4.92-4.92V28.63c0-2.71,2.21-4.92,4.92-4.92H83.6c2.71,0,4.92,2.21,4.92,4.92
	v55.76c0,2.71-2.21,4.92-4.92,4.92H27.84z"/>
<g>
	<path d="M46.12,23.71c4.42,0.03,8.58,0.44,12.62,1.62c2.72,0.79,5.31,1.85,7.4,3.77c1.85,1.7,2.66,3.73,2.29,6.19
		c-0.97,6.41-1.91,12.83-2.85,19.25c-0.96,6.53-1.92,13.06-2.88,19.59c-0.31,2.09-0.56,4.19-0.94,6.27
		c-0.48,2.62-2.09,4.57-4.37,6.03c-2.95,1.89-6.28,2.67-9.77,2.84c-3.93,0.2-7.73-0.35-11.24-2.16c-2.68-1.38-4.7-3.34-5.4-6.24
		c-0.36-1.48-0.5-3-0.72-4.51c-0.58-3.88-1.14-7.75-1.71-11.63c-0.65-4.4-1.29-8.81-1.94-13.21c-0.8-5.46-1.61-10.92-2.43-16.37
		c-0.34-2.3,0.43-4.23,2.11-5.87c1.84-1.79,4.14-2.84,6.59-3.64C37.24,24.21,41.75,23.75,46.12,23.71z M46.31,26.07
		c-3.93,0.03-7.81,0.39-11.58,1.52c-1.92,0.58-3.76,1.33-5.33,2.56c-1.21,0.96-1.82,2.12-1.54,3.66c0.25,1.35,0.41,2.71,0.62,4.06
		c1,6.74,2.01,13.47,3.01,20.21c1,6.74,1.98,13.48,2.98,20.22c0.07,0.45,0.2,0.9,0.39,1.31c0.78,1.73,2.25,2.78,3.99,3.54
		c2.94,1.28,6.06,1.57,9.24,1.34c2.22-0.16,4.37-0.63,6.34-1.66c1.95-1.01,3.43-2.39,3.76-4.59c1.06-7.11,2.09-14.23,3.15-21.35
		c1.14-7.72,2.29-15.43,3.46-23.15c0.2-1.31-0.2-2.39-1.21-3.3c-1.62-1.45-3.61-2.24-5.68-2.87C54.12,26.46,50.24,26.1,46.31,26.07z
		"/>
	<path class="st2" d="M46.31,26.07c3.93,0.03,7.82,0.39,11.58,1.52c2.08,0.63,4.06,1.42,5.68,2.87c1.01,0.9,1.4,1.98,1.21,3.3
		c-1.16,7.71-2.31,15.43-3.46,23.15c-1.05,7.11-2.09,14.23-3.15,21.35c-0.33,2.2-1.81,3.58-3.76,4.59c-1.97,1.03-4.12,1.5-6.34,1.66
		c-3.18,0.23-6.3-0.05-9.24-1.34c-1.74-0.76-3.21-1.81-3.99-3.54c-0.19-0.42-0.32-0.86-0.39-1.31c-1-6.74-1.99-13.48-2.98-20.22
		c-1-6.74-2.01-13.47-3.01-20.21c-0.2-1.35-0.37-2.72-0.62-4.06c-0.28-1.54,0.33-2.71,1.54-3.66c1.57-1.24,3.41-1.99,5.33-2.56
		C38.49,26.47,42.38,26.1,46.31,26.07z M46.25,68.12c6.81,0.03,12.31-5.21,12.37-11.78c0.05-6.39-5.48-11.73-12.2-11.76
		C39.64,44.55,34.04,49.75,34,56.12C33.96,62.77,39.39,68.09,46.25,68.12z M40.48,45.01c3.92-1.74,7.81-1.7,11.75,0.03
		c0-2.23,0.09-4.33-0.02-6.43c-0.16-3.02-2.69-5.27-5.8-5.31c-3.13-0.04-5.74,2.11-5.97,5.12c-0.16,2.12-0.05,4.25-0.05,6.38
		C40.39,44.84,40.43,44.89,40.48,45.01z M52.33,67.62c-0.69,0.26-1.15,0.5-1.65,0.61c-0.62,0.14-0.79,0.42-0.8,1.02
		c-0.03,1.41-0.79,2.47-2.15,3.03c-1.3,0.54-2.56,0.36-3.67-0.5c-0.91-0.7-1.31-1.64-1.33-2.75c0-0.21-0.1-0.54-0.26-0.61
		c-0.64-0.28-1.33-0.49-2.05-0.74c0,1.55-0.1,3.05,0.02,4.53c0.22,2.77,2.54,4.92,5.37,5.13c2.93,0.22,5.67-1.52,6.23-4.28
		C52.38,71.34,52.24,69.53,52.33,67.62z"/>
	<path d="M46.25,68.12C39.39,68.09,33.96,62.77,34,56.12c0.04-6.37,5.64-11.58,12.42-11.54c6.72,0.03,12.25,5.37,12.2,11.76
		C58.56,62.91,53.06,68.15,46.25,68.12z M46.31,63.8c5.22,0,9.4-3.99,9.42-8.98c0.01-4.95-4.22-9-9.41-9c-5.19,0-9.41,4.03-9.42,9
		C36.89,59.78,41.1,63.8,46.31,63.8z"/>
	<path class="st3" d="M40.48,45.01c-0.05-0.12-0.09-0.17-0.09-0.22c0-2.13-0.11-4.26,0.05-6.38c0.23-3.01,2.84-5.17,5.97-5.12
		c3.11,0.04,5.64,2.29,5.8,5.31c0.11,2.1,0.02,4.21,0.02,6.43C48.29,43.31,44.4,43.27,40.48,45.01z"/>
	<path class="st3" d="M52.33,67.62c-0.09,1.91,0.05,3.72-0.3,5.45c-0.56,2.76-3.3,4.51-6.23,4.28c-2.83-0.21-5.14-2.36-5.37-5.13
		c-0.12-1.48-0.02-2.99-0.02-4.53c0.72,0.25,1.41,0.46,2.05,0.74c0.16,0.07,0.25,0.4,0.26,0.61c0.02,1.11,0.42,2.05,1.33,2.75
		c1.11,0.86,2.36,1.04,3.67,0.5c1.37-0.57,2.12-1.62,2.15-3.03c0.01-0.6,0.18-0.89,0.8-1.02C51.18,68.12,51.64,67.88,52.33,67.62z"
		/>
	<path class="st2" d="M46.31,63.8c-5.21,0-9.42-4.02-9.41-8.99c0.01-4.97,4.23-9,9.42-9c5.19,0,9.42,4.05,9.41,9
		C55.71,59.81,51.53,63.8,46.31,63.8z M39.87,54.84c0,0.95,0.01,1.9,0,2.85c0,0.39,0.12,0.7,0.57,0.72
		c0.49,0.02,0.64-0.31,0.63-0.72c-0.01-0.53,0.01-1.06-0.02-1.59c-0.03-0.51,0.12-0.78,0.73-0.72c0.46,0.05,0.92,0.04,1.38,0
		c0.53-0.05,0.66,0.18,0.64,0.62c-0.02,0.59-0.01,1.18-0.02,1.77c0,0.37,0.17,0.64,0.59,0.64c0.44,0,0.57-0.28,0.56-0.65
		c-0.01-0.65,0.01-1.29-0.01-1.94c-0.01-0.32,0.13-0.44,0.46-0.43c0.62,0.01,1.24,0.01,1.86,0c0.31,0,0.43,0.11,0.43,0.4
		c-0.01,0.65,0,1.29,0.01,1.94c0,0.37,0.09,0.71,0.58,0.7c0.48-0.02,0.57-0.35,0.57-0.73c0-0.63,0.01-1.25-0.01-1.88
		c-0.01-0.32,0.12-0.44,0.46-0.43c0.6,0.01,1.2,0.02,1.8,0c0.39-0.01,0.48,0.15,0.47,0.48c-0.02,0.61,0,1.22-0.01,1.82
		c0,0.38,0.09,0.71,0.56,0.72c0.51,0.02,0.62-0.32,0.63-0.73c0-0.87,0.01-1.75,0.01-2.62c0-0.62-0.15-0.77-0.82-0.78
		c-0.82-0.02-1.64-0.04-2.46-0.01c-0.51,0.02-0.66-0.16-0.64-0.62c0.03-0.59,0.01-1.18,0.01-1.77c0-0.39-0.14-0.7-0.61-0.69
		c-0.43,0.01-0.55,0.32-0.55,0.68c0,0.65-0.01,1.29,0,1.94c0.01,0.3-0.08,0.46-0.44,0.45c-0.62-0.02-1.24-0.01-1.86,0
		c-0.34,0.01-0.46-0.12-0.45-0.44c0.02-0.61,0-1.22,0-1.82c0-0.41-0.03-0.82-0.59-0.8c-0.55,0.02-0.57,0.44-0.57,0.84
		c0,0.59-0.01,1.18,0,1.77c0.01,0.29-0.08,0.47-0.43,0.46c-0.62-0.01-1.24-0.01-1.86,0c-0.31,0.01-0.43-0.11-0.42-0.4
		c0.01-0.65,0-1.29,0-1.94c0-0.39-0.12-0.71-0.57-0.72c-0.5-0.02-0.63,0.31-0.63,0.73C39.87,52.9,39.87,53.87,39.87,54.84z"/>
	<path d="M39.87,54.84c0-0.97,0-1.94,0-2.91c0-0.41,0.13-0.74,0.63-0.73c0.45,0.02,0.58,0.34,0.57,0.72c-0.01,0.65,0.01,1.29,0,1.94
		c-0.01,0.29,0.11,0.41,0.42,0.4c0.62-0.01,1.24-0.01,1.86,0c0.36,0.01,0.44-0.17,0.43-0.46c-0.01-0.59,0-1.18,0-1.77
		c0-0.4,0.02-0.82,0.57-0.84c0.56-0.02,0.59,0.4,0.59,0.8c0,0.61,0.01,1.22,0,1.82c-0.01,0.32,0.12,0.44,0.45,0.44
		c0.62-0.01,1.24-0.02,1.86,0c0.35,0.01,0.44-0.15,0.44-0.45c-0.01-0.65,0-1.29,0-1.94c0-0.36,0.12-0.67,0.55-0.68
		c0.47-0.01,0.61,0.3,0.61,0.69c0,0.59,0.03,1.18-0.01,1.77c-0.03,0.46,0.12,0.64,0.64,0.62c0.82-0.03,1.64-0.01,2.46,0.01
		c0.67,0.02,0.82,0.17,0.82,0.78c0,0.87-0.01,1.75-0.01,2.62c0,0.41-0.12,0.74-0.63,0.73c-0.47-0.01-0.56-0.35-0.56-0.72
		c0-0.61-0.01-1.22,0.01-1.82c0.01-0.33-0.08-0.5-0.47-0.48c-0.6,0.02-1.2,0.02-1.8,0c-0.34-0.01-0.46,0.12-0.46,0.43
		c0.02,0.63,0.01,1.25,0.01,1.88c0,0.37-0.09,0.71-0.57,0.73c-0.49,0.02-0.58-0.33-0.58-0.7c-0.01-0.65-0.02-1.29-0.01-1.94
		c0-0.29-0.12-0.41-0.43-0.4c-0.62,0.01-1.24,0.01-1.86,0c-0.33-0.01-0.47,0.11-0.46,0.43c0.01,0.65,0,1.29,0.01,1.94
		c0,0.37-0.13,0.65-0.56,0.65c-0.43,0-0.59-0.27-0.59-0.64c0-0.59-0.01-1.18,0.02-1.77c0.02-0.44-0.12-0.67-0.64-0.62
		c-0.46,0.04-0.93,0.05-1.38,0c-0.61-0.06-0.76,0.2-0.73,0.72c0.04,0.53,0.02,1.06,0.02,1.59c0.01,0.41-0.14,0.74-0.63,0.72
		c-0.45-0.02-0.58-0.33-0.57-0.72C39.88,56.74,39.87,55.79,39.87,54.84z"/>
</g>
<g>
	<path class="st4" d="M84.37,74.93h-5.6c-1.96,0-3.55,1.59-3.55,3.55v5.6c0,1.96,1.59,3.55,3.55,3.55h5.6
		c1.96,0,3.55-1.59,3.55-3.55v-5.6C87.92,76.52,86.33,74.93,84.37,74.93z"/>
	<g>
		<path class="st2" d="M81.02,80.81h-1.28V79.4c0.78,0.03,1.58-0.35,1.62-1.48h1.28v6.8h-1.63V80.81z"/>
	</g>
</g>
<g>
	<path class="st4" d="M84.37,58.5h-5.6c-1.96,0-3.55,1.59-3.55,3.55v5.6c0,1.96,1.59,3.55,3.55,3.55h5.6c1.96,0,3.55-1.59,3.55-3.55
		v-5.6C87.92,60.09,86.33,58.5,84.37,58.5z"/>
	<g>
		<path class="st2" d="M79.5,66.62c0.46-0.79,1.23-1.31,1.93-1.84c0.28-0.22,0.74-0.5,0.74-0.99c0-0.63-0.29-0.83-0.66-0.83
			c-0.63,0-0.84,0.57-0.82,1.4h-1.47c-0.09-1.88,0.84-2.94,2.31-2.94c1.32,0,2.22,0.69,2.22,2.14c0,1.74-1.35,2.28-2.39,3.07v0.01
			h2.46v1.66h-4.72C79.08,67.64,79.23,67.08,79.5,66.62z"/>
	</g>
</g>
<g>
	<path class="st4" d="M84.37,42.07h-5.6c-1.96,0-3.55,1.59-3.55,3.55v5.6c0,1.96,1.59,3.55,3.55,3.55h5.6
		c1.96,0,3.55-1.59,3.55-3.55v-5.6C87.92,43.66,86.33,42.07,84.37,42.07z"/>
	<g>
		<path class="st2" d="M80.59,49.29c-0.01,0.36,0.06,0.64,0.21,0.81c0.15,0.22,0.38,0.3,0.65,0.3c0.45,0,0.73-0.21,0.73-0.76
			c0-0.6-0.37-0.7-0.73-0.7c-0.23,0-0.34,0.02-0.45,0.05v-1.33c0.12,0.01,0.24,0.04,0.45,0.04c0.33,0,0.74-0.09,0.74-0.62
			c0-0.43-0.39-0.6-0.71-0.6c-0.41,0-0.77,0.28-0.75,0.85h-1.47c0.01-0.81,0.27-1.39,0.68-1.78c0.41-0.38,0.97-0.57,1.59-0.57
			c1.59,0,2.1,1.16,2.1,1.75c0,1.43-0.72,1.43-0.72,1.46v0.02c0,0.08,0.89,0.08,0.89,1.59c0,0.82-0.5,2.14-2.28,2.14
			c-2.46,0-2.45-2.15-2.42-2.66H80.59z"/>
	</g>
</g>
<g>
	<path class="st4" d="M84.37,25.65h-5.6c-1.96,0-3.55,1.59-3.55,3.55v5.6c0,1.96,1.59,3.55,3.55,3.55h5.6
		c1.96,0,3.55-1.59,3.55-3.55v-5.6C87.92,27.23,86.33,25.65,84.37,25.65z"/>
	<g>
		<path class="st2" d="M79.07,32.26l2.49-3.62h1.56v3.79h0.74v1.66h-0.74v1.35h-1.63V34.1h-2.42V32.26z M81.49,32.43v-1.91
			l-1.33,1.91H81.49z"/>
	</g>
</g>
</svg>
