<?xml version="1.0" encoding="utf-8"?>
<!-- Generator: Adobe Illustrator 23.0.3, SVG Export Plug-In . SVG Version: 6.00 Build 0)  -->
<svg version="1.0" id="Layer_1" xmlns="http://www.w3.org/2000/svg" xmlns:xlink="http://www.w3.org/1999/xlink" x="0px" y="0px"
	 width="56px" height="56px" viewBox="0 0 56 56" style="enable-background:new 0 0 56 56;" xml:space="preserve">
<style type="text/css">
	.st0{fill:#FFFFFF;stroke:#D8792C;stroke-width:1.06;stroke-miterlimit:10;}
	.st1{fill:none;}
	.st2{fill:#FFFFFF;}
	.st3{fill:#000200;}
	.st4{fill:#D8792C;stroke:#000200;stroke-width:0.4233;stroke-miterlimit:10;}
</style>
<path class="st0" d="M45.74,55.01H9.7c-4.68,0-8.48-3.8-8.48-8.48V10.49c0-4.68,3.8-8.48,8.48-8.48h36.04c4.68,0,8.48,3.8,8.48,8.48
	v36.04C54.22,51.22,50.43,55.01,45.74,55.01z"/>
<path class="st1" d="M9.7,49.71c-1.75,0-3.18-1.43-3.18-3.18V10.49c0-1.75,1.43-3.18,3.18-3.18h36.04c1.75,0,3.18,1.43,3.18,3.18
	v36.04c0,1.75-1.43,3.18-3.18,3.18H9.7z"/>
<g>
	<path d="M21.52,7.31c2.86,0.02,5.55,0.28,8.16,1.04c1.76,0.51,3.43,1.19,4.78,2.43c1.19,1.1,1.72,2.41,1.48,4
		c-0.63,4.15-1.23,8.3-1.84,12.44c-0.62,4.22-1.24,8.44-1.86,12.66c-0.2,1.35-0.36,2.71-0.61,4.05c-0.31,1.69-1.35,2.95-2.83,3.9
		c-1.91,1.22-4.06,1.72-6.32,1.84c-2.54,0.13-5-0.23-7.26-1.4c-1.73-0.89-3.04-2.16-3.49-4.03c-0.23-0.95-0.32-1.94-0.47-2.91
		c-0.37-2.51-0.74-5.01-1.11-7.52c-0.42-2.85-0.83-5.69-1.25-8.54c-0.52-3.53-1.04-7.06-1.57-10.58c-0.22-1.49,0.27-2.74,1.36-3.79
		c1.19-1.16,2.68-1.83,4.26-2.35C15.77,7.64,18.69,7.34,21.52,7.31z M21.64,8.84c-2.54,0.02-5.05,0.25-7.49,0.98
		c-1.24,0.37-2.43,0.86-3.45,1.66c-0.78,0.62-1.18,1.37-1,2.37c0.16,0.87,0.27,1.75,0.4,2.63c0.65,4.35,1.3,8.71,1.95,13.06
		c0.64,4.36,1.28,8.71,1.93,13.07c0.04,0.29,0.13,0.58,0.25,0.85c0.5,1.12,1.45,1.8,2.58,2.29c1.9,0.83,3.92,1.01,5.97,0.86
		c1.43-0.1,2.82-0.41,4.1-1.07c1.26-0.66,2.22-1.54,2.43-2.97c0.68-4.6,1.35-9.2,2.03-13.8c0.74-4.99,1.48-9.97,2.23-14.96
		c0.13-0.85-0.13-1.55-0.78-2.13c-1.05-0.93-2.33-1.45-3.67-1.85C26.69,9.09,24.18,8.86,21.64,8.84z"/>
	<path class="st2" d="M21.64,8.84c2.54,0.02,5.05,0.25,7.49,0.98c1.34,0.4,2.63,0.92,3.67,1.85c0.65,0.58,0.91,1.28,0.78,2.13
		c-0.75,4.99-1.49,9.97-2.23,14.96c-0.68,4.6-1.35,9.2-2.03,13.8c-0.21,1.42-1.17,2.31-2.43,2.97c-1.27,0.66-2.66,0.97-4.1,1.07
		c-2.06,0.15-4.07-0.03-5.97-0.86c-1.12-0.49-2.08-1.17-2.58-2.29c-0.12-0.27-0.21-0.56-0.25-0.85c-0.65-4.35-1.28-8.71-1.93-13.07
		c-0.64-4.36-1.3-8.71-1.95-13.06c-0.13-0.88-0.24-1.76-0.4-2.63c-0.18-1,0.21-1.75,1-2.37c1.02-0.8,2.2-1.28,3.45-1.66
		C16.59,9.09,19.1,8.86,21.64,8.84z M21.6,36.01c4.4,0.02,7.96-3.37,7.99-7.61c0.03-4.13-3.54-7.58-7.88-7.6
		c-4.38-0.02-8,3.34-8.03,7.46C13.66,32.56,17.17,35.99,21.6,36.01z M17.87,21.08c2.53-1.12,5.05-1.1,7.6,0.02
		c0-1.44,0.06-2.8-0.01-4.16c-0.11-1.95-1.74-3.41-3.75-3.43c-2.02-0.03-3.71,1.37-3.86,3.31c-0.1,1.37-0.03,2.75-0.03,4.12
		C17.82,20.97,17.84,21,17.87,21.08z M25.53,35.69c-0.44,0.17-0.75,0.32-1.07,0.39c-0.4,0.09-0.51,0.27-0.52,0.66
		c-0.02,0.91-0.51,1.59-1.39,1.96c-0.84,0.35-1.65,0.23-2.37-0.32c-0.59-0.46-0.85-1.06-0.86-1.78c0-0.14-0.07-0.35-0.17-0.39
		c-0.42-0.18-0.86-0.31-1.32-0.48c0,1-0.06,1.97,0.01,2.93c0.14,1.79,1.64,3.18,3.47,3.32c1.89,0.14,3.66-0.98,4.03-2.77
		C25.56,38.1,25.47,36.93,25.53,35.69z"/>
	<path d="M21.6,36.01c-4.44-0.02-7.94-3.46-7.92-7.75c0.03-4.12,3.65-7.48,8.03-7.46c4.34,0.02,7.92,3.47,7.88,7.6
		C29.56,32.65,26,36.04,21.6,36.01z M21.64,33.22c3.37,0,6.08-2.58,6.09-5.8c0.01-3.2-2.73-5.82-6.08-5.82
		c-3.36,0-6.08,2.61-6.09,5.81C15.55,30.63,18.27,33.22,21.64,33.22z"/>
	<path class="st3" d="M17.87,21.08c-0.03-0.08-0.06-0.11-0.06-0.14c0-1.37-0.07-2.75,0.03-4.12c0.15-1.95,1.84-3.34,3.86-3.31
		c2.01,0.03,3.64,1.48,3.75,3.43c0.07,1.36,0.01,2.72,0.01,4.16C22.92,19.98,20.41,19.95,17.87,21.08z"/>
	<path class="st3" d="M25.53,35.69c-0.06,1.23,0.03,2.4-0.19,3.52c-0.36,1.79-2.13,2.91-4.03,2.77c-1.83-0.14-3.32-1.53-3.47-3.32
		c-0.08-0.96-0.01-1.93-0.01-2.93c0.47,0.16,0.91,0.29,1.32,0.48c0.1,0.04,0.16,0.26,0.17,0.39c0.01,0.72,0.27,1.32,0.86,1.78
		c0.72,0.55,1.53,0.67,2.37,0.32c0.88-0.37,1.37-1.05,1.39-1.96c0.01-0.39,0.12-0.57,0.52-0.66C24.78,36.02,25.09,35.86,25.53,35.69
		z"/>
	<path class="st2" d="M21.64,33.22c-3.37,0-6.09-2.6-6.08-5.81c0-3.21,2.73-5.81,6.09-5.81c3.35,0,6.09,2.62,6.08,5.82
		C27.72,30.64,25.01,33.22,21.64,33.22z M17.48,27.43c0,0.61,0,1.23,0,1.84c0,0.25,0.08,0.45,0.37,0.47
		c0.32,0.01,0.41-0.2,0.41-0.47c0-0.34,0.01-0.69-0.01-1.03c-0.02-0.33,0.08-0.5,0.47-0.46c0.29,0.03,0.6,0.03,0.89,0
		c0.34-0.03,0.43,0.12,0.42,0.4c-0.01,0.38-0.01,0.76-0.01,1.14c0,0.24,0.11,0.42,0.38,0.41c0.28,0,0.37-0.18,0.36-0.42
		c0-0.42,0.01-0.83,0-1.25c0-0.21,0.08-0.28,0.3-0.28c0.4,0.01,0.8,0.01,1.21,0c0.2,0,0.28,0.07,0.28,0.26c-0.01,0.42,0,0.83,0,1.25
		c0,0.24,0.06,0.46,0.38,0.45c0.31-0.01,0.37-0.23,0.37-0.47c0-0.4,0.01-0.81,0-1.21c0-0.2,0.08-0.29,0.3-0.28
		c0.39,0.01,0.78,0.01,1.17,0c0.25-0.01,0.31,0.1,0.3,0.31c-0.01,0.39,0,0.79,0,1.18c0,0.24,0.06,0.46,0.36,0.47
		c0.33,0.01,0.4-0.21,0.4-0.47c0-0.56,0.01-1.13,0.01-1.69c0-0.4-0.1-0.5-0.53-0.51c-0.53-0.01-1.06-0.02-1.59,0
		c-0.33,0.01-0.43-0.1-0.41-0.4c0.02-0.38,0.01-0.76,0-1.14c0-0.25-0.09-0.45-0.39-0.44c-0.28,0.01-0.35,0.2-0.35,0.44
		c0,0.42-0.01,0.84,0,1.25c0,0.2-0.05,0.3-0.28,0.29c-0.4-0.01-0.8-0.01-1.21,0c-0.22,0-0.3-0.08-0.29-0.28c0.01-0.39,0-0.79,0-1.18
		c0-0.26-0.02-0.53-0.38-0.52c-0.36,0.01-0.37,0.28-0.37,0.54c0,0.38-0.01,0.76,0,1.14c0,0.19-0.05,0.3-0.28,0.3
		c-0.4-0.01-0.8-0.01-1.21,0c-0.2,0-0.28-0.07-0.27-0.26c0.01-0.42,0-0.83,0-1.25c0-0.25-0.08-0.46-0.37-0.47
		c-0.32-0.01-0.41,0.2-0.4,0.47C17.48,26.18,17.48,26.81,17.48,27.43z"/>
	<path d="M17.48,27.43c0-0.63,0-1.25,0-1.88c0-0.27,0.08-0.48,0.4-0.47c0.29,0.01,0.37,0.22,0.37,0.47c0,0.42,0.01,0.84,0,1.25
		c0,0.19,0.07,0.27,0.27,0.26c0.4-0.01,0.8-0.01,1.21,0c0.23,0.01,0.28-0.11,0.28-0.3c-0.01-0.38,0-0.76,0-1.14
		c0-0.26,0.01-0.53,0.37-0.54c0.36-0.01,0.38,0.26,0.38,0.52c0,0.39,0.01,0.79,0,1.18c-0.01,0.21,0.07,0.29,0.29,0.28
		c0.4-0.01,0.8-0.01,1.21,0c0.23,0.01,0.29-0.09,0.28-0.29c-0.01-0.42,0-0.83,0-1.25c0-0.24,0.07-0.43,0.35-0.44
		c0.3-0.01,0.39,0.19,0.39,0.44c0,0.38,0.02,0.76,0,1.14c-0.02,0.3,0.08,0.42,0.41,0.4c0.53-0.02,1.06-0.01,1.59,0
		c0.43,0.01,0.53,0.11,0.53,0.51c0,0.56-0.01,1.13-0.01,1.69c0,0.26-0.08,0.48-0.4,0.47c-0.31-0.01-0.36-0.22-0.36-0.47
		c0-0.39-0.01-0.79,0-1.18c0.01-0.21-0.05-0.32-0.3-0.31c-0.39,0.01-0.78,0.01-1.17,0c-0.22-0.01-0.3,0.08-0.3,0.28
		c0.01,0.4,0,0.81,0,1.21c0,0.24-0.06,0.46-0.37,0.47c-0.32,0.01-0.37-0.21-0.38-0.45c-0.01-0.42-0.01-0.83,0-1.25
		c0-0.19-0.08-0.26-0.28-0.26c-0.4,0.01-0.8,0.01-1.21,0c-0.22,0-0.3,0.07-0.3,0.28c0.01,0.42,0,0.83,0,1.25
		c0,0.24-0.08,0.42-0.36,0.42c-0.28,0-0.38-0.17-0.38-0.41c0-0.38,0-0.76,0.01-1.14c0.01-0.28-0.08-0.43-0.42-0.4
		c-0.3,0.03-0.6,0.03-0.89,0c-0.39-0.04-0.49,0.13-0.47,0.46c0.02,0.34,0.01,0.69,0.01,1.03c0,0.27-0.09,0.48-0.41,0.47
		c-0.29-0.01-0.37-0.21-0.37-0.47C17.48,28.66,17.48,28.05,17.48,27.43z"/>
</g>
<g>
	<path class="st4" d="M46.24,40.42h-3.62c-1.27,0-2.29,1.03-2.29,2.29v3.62c0,1.27,1.03,2.29,2.29,2.29h3.62
		c1.27,0,2.29-1.03,2.29-2.29v-3.62C48.53,41.44,47.5,40.42,46.24,40.42z"/>
	<g>
		<path class="st2" d="M44.07,44.22h-0.82v-0.91c0.51,0.02,1.02-0.23,1.05-0.95h0.83v4.4h-1.05V44.22z"/>
	</g>
</g>
<g>
	<path class="st4" d="M46.24,29.8h-3.62c-1.27,0-2.29,1.03-2.29,2.29v3.62c0,1.27,1.03,2.29,2.29,2.29h3.62
		c1.27,0,2.29-1.03,2.29-2.29v-3.62C48.53,30.83,47.5,29.8,46.24,29.8z"/>
	<g>
		<path class="st2" d="M43.09,35.05c0.3-0.51,0.79-0.85,1.25-1.19c0.18-0.14,0.48-0.32,0.48-0.64c0-0.4-0.19-0.54-0.42-0.54
			c-0.4,0-0.55,0.37-0.53,0.9h-0.95c-0.06-1.21,0.54-1.9,1.49-1.9c0.85,0,1.44,0.45,1.44,1.38c0,1.12-0.87,1.47-1.54,1.98v0.01h1.59
			v1.07h-3.05C42.82,35.7,42.92,35.34,43.09,35.05z"/>
	</g>
</g>
<g>
	<path class="st4" d="M46.24,19.18h-3.62c-1.27,0-2.29,1.03-2.29,2.29v3.62c0,1.27,1.03,2.29,2.29,2.29h3.62
		c1.27,0,2.29-1.03,2.29-2.29v-3.62C48.53,20.21,47.5,19.18,46.24,19.18z"/>
	<g>
		<path class="st2" d="M43.8,23.85c-0.01,0.23,0.04,0.41,0.14,0.52c0.1,0.15,0.24,0.2,0.42,0.2c0.29,0,0.47-0.13,0.47-0.49
			c0-0.39-0.24-0.46-0.47-0.46c-0.15,0-0.22,0.01-0.29,0.03v-0.86c0.08,0.01,0.16,0.03,0.29,0.03c0.21,0,0.48-0.06,0.48-0.4
			c0-0.28-0.25-0.39-0.46-0.39c-0.27,0-0.5,0.18-0.49,0.55h-0.95c0.01-0.52,0.17-0.9,0.44-1.15c0.27-0.25,0.63-0.37,1.03-0.37
			c1.03,0,1.36,0.75,1.36,1.13c0,0.92-0.47,0.92-0.47,0.94v0.01c0,0.05,0.58,0.05,0.58,1.03c0,0.53-0.32,1.38-1.48,1.38
			c-1.59,0-1.58-1.39-1.56-1.72H43.8z"/>
	</g>
</g>
<g>
	<path class="st4" d="M46.24,8.56h-3.62c-1.27,0-2.29,1.03-2.29,2.29v3.62c0,1.27,1.03,2.29,2.29,2.29h3.62
		c1.27,0,2.29-1.03,2.29-2.29v-3.62C48.53,9.59,47.5,8.56,46.24,8.56z"/>
	<g>
		<path class="st2" d="M42.81,12.84l1.61-2.34h1.01v2.45h0.48v1.07h-0.48v0.87h-1.05v-0.87h-1.56V12.84z M44.38,12.95v-1.23
			l-0.86,1.23H44.38z"/>
	</g>
</g>
</svg>
