<?xml version="1.0" encoding="utf-8"?>
<!-- Generator: Adobe Illustrator 23.0.3, SVG Export Plug-In . SVG Version: 6.00 Build 0)  -->
<svg version="1.0" id="Layer_1" xmlns="http://www.w3.org/2000/svg" xmlns:xlink="http://www.w3.org/1999/xlink" x="0px" y="0px"
	 width="56px" height="56px" viewBox="0 0 56 56" style="enable-background:new 0 0 56 56;" xml:space="preserve">
<style type="text/css">
	.st0{fill:#FFFFFF;stroke:#D8792C;stroke-width:1.06;stroke-miterlimit:10;}
	.st1{fill:none;stroke:#000200;stroke-width:0.7174;stroke-miterlimit:10;}
	.st2{fill:#FFFFFF;}
	.st3{fill:none;stroke:#D8792C;stroke-width:1.905;stroke-linecap:round;stroke-miterlimit:10;}
	.st4{clip-path:url(#SVGID_1_);}
	.st5{fill:#D8792C;}
	.st6{fill:#000200;}
	.st7{fill:none;stroke:#D8792C;stroke-width:1.0583;stroke-miterlimit:10;}
	.st8{clip-path:url(#SVGID_3_);}
	.st9{fill:none;stroke:#FFFFFF;stroke-width:0.2117;stroke-miterlimit:10;}
	.st10{fill:none;stroke:#A6A7AA;stroke-width:1.4817;stroke-miterlimit:10;}
	.st11{fill:none;stroke:#FFFFFF;stroke-width:1.195;}
	.st12{fill:#A6A7AA;}
	.st13{fill:none;stroke:#252223;stroke-width:0.8467;stroke-miterlimit:10;}
</style>
<g>
	<path class="st0" d="M45.52,54.93H9.48c-4.68,0-8.48-3.8-8.48-8.48V10.41c0-4.68,3.8-8.48,8.48-8.48h36.04
		c4.68,0,8.48,3.8,8.48,8.48v36.04C54,51.13,50.2,54.93,45.52,54.93z"/>
	<line class="st1" x1="54" y1="46.92" x2="1" y2="46.92"/>
	<g>
		<path class="st2" d="M43.25,24.96c-0.04,0.14-0.1,0.27-0.15,0.4c-0.05,0.13-0.1,0.27-0.21,0.33l-0.57,0.5l-1.13,1l0.1-0.27
			l0.15,0.89c0.02,0.15,0.08,0.29,0.01,0.46c-0.05,0.16-0.08,0.32-0.15,0.49c-0.11-0.13-0.2-0.27-0.3-0.41
			c-0.13-0.13-0.11-0.29-0.15-0.44l-0.15-0.89l-0.03-0.16l0.12-0.11l1.13-1l0.57-0.5c0.07-0.11,0.22-0.13,0.35-0.17
			C42.98,25.03,43.11,24.99,43.25,24.96z"/>
	</g>
	<path class="st3" d="M35.24,43.88L9.01,40.05c-0.09-0.01-0.18-0.07-0.24-0.14l-0.28-0.38c-0.07-0.09-0.09-0.21-0.05-0.32l0.7-2.14
		c0.01-0.04,0.02-0.07,0.02-0.11l0.01-21.54c0-0.14-0.08-0.26-0.2-0.32l0,0C8.79,15,8.72,14.76,8.83,14.59l1.05-1.66
		c0.09-0.15,0.28-0.21,0.44-0.14l30.93,13.55c0.17,0.07,0.25,0.26,0.2,0.44c-0.74,2.25-5.29,16.2-5.32,16.51
		c-0.03,0.27-0.51,0.49-0.71,0.57C35.36,43.88,35.3,43.89,35.24,43.88z"/>
	<g>
		<defs>
			<path id="SVGID_6_" d="M45.52,54.93H9.48c-4.68,0-8.48-3.8-8.48-8.48V10.41c0-4.68,3.8-8.48,8.48-8.48h36.04
				c4.68,0,8.48,3.8,8.48,8.48v36.04C54,51.13,50.2,54.93,45.52,54.93z"/>
		</defs>
		<clipPath id="SVGID_1_">
			<use xlink:href="#SVGID_6_"  style="overflow:visible;"/>
		</clipPath>
		<g class="st4">
			<g>
				<path class="st5" d="M50.08,31.94c0,0,14.62,6.47,26.48,6.27v6.87l-26.49-0.55L50.08,31.94z"/>
				<path class="st6" d="M44.64,28.13l-11.65-6.27l0.23-1.01c0.12-0.53-0.17-1.07-0.69-1.25c-3.83-1.35-18.71-6.54-22.48-6.93
					l-1.27,1.91c-0.12,0.18-0.05,0.41,0.14,0.5l30.95,14.23L44.64,28.13z"/>
				<path class="st7" d="M28.7,16.27c0,0-5.94-2.93-11.64-1.88"/>
				<path class="st5" d="M43.61,24.65l-7.47-3.66c0,0-3.74-4.2-7.31-5.65c-0.15-0.06-0.97,2.65-1.13,2.58
					c-3.58-1.55-10.18-4.68-17.65-5.25l31.51,13.8l1.26-0.47L43.61,24.65z"/>
				<g>
					<path class="st6" d="M9.17,15.19v21.7c0,0.09-0.02,0.17-0.04,0.25l-0.7,1.93C8.27,39.52,8.56,40,9.02,40.07l26.31,3.83
						l4.55-14.58L9.17,15.19z"/>
				</g>
				<g>
					<defs>
						<path id="SVGID_2_" d="M10.26,16.23v20.13c0,0.08-0.01,0.16-0.04,0.23l-0.65,1.79c-0.15,0.41,0.12,0.85,0.55,0.92l24.41,3.55
							l4.22-13.52L10.26,16.23z"/>
					</defs>
					<clipPath id="SVGID_3_">
						<use xlink:href="#SVGID_2_"  style="overflow:visible;"/>
					</clipPath>
					<g class="st8">
						<line class="st9" x1="10.2" y1="14.43" x2="10.2" y2="45.05"/>
						<line class="st9" x1="12.11" y1="14.43" x2="12.11" y2="45.05"/>
						<line class="st9" x1="14.01" y1="14.43" x2="14.01" y2="45.05"/>
						<line class="st9" x1="15.92" y1="14.43" x2="15.92" y2="45.05"/>
						<line class="st9" x1="17.82" y1="14.43" x2="17.82" y2="45.05"/>
						<line class="st9" x1="19.73" y1="14.43" x2="19.73" y2="45.05"/>
						<line class="st9" x1="21.63" y1="14.43" x2="21.63" y2="45.05"/>
						<line class="st9" x1="23.54" y1="14.43" x2="23.54" y2="45.05"/>
						<line class="st9" x1="25.44" y1="14.43" x2="25.44" y2="45.05"/>
						<line class="st9" x1="27.35" y1="14.43" x2="27.35" y2="45.05"/>
						<line class="st9" x1="29.25" y1="14.43" x2="29.25" y2="45.05"/>
						<line class="st9" x1="31.16" y1="14.43" x2="31.16" y2="45.05"/>
						<line class="st9" x1="33.06" y1="14.43" x2="33.06" y2="45.05"/>
						<line class="st9" x1="34.97" y1="14.43" x2="34.97" y2="45.05"/>
						<line class="st9" x1="36.87" y1="14.43" x2="36.87" y2="45.05"/>
						<line class="st9" x1="38.78" y1="14.43" x2="38.78" y2="45.05"/>
						<line class="st9" x1="40.68" y1="14.43" x2="40.68" y2="45.05"/>
					</g>
					<g class="st8">
						<line class="st9" x1="5.11" y1="40.5" x2="35.07" y2="46.83"/>
						<line class="st9" x1="5.51" y1="38.64" x2="35.47" y2="44.97"/>
						<line class="st9" x1="5.9" y1="36.77" x2="35.86" y2="43.1"/>
						<line class="st9" x1="6.29" y1="34.91" x2="36.25" y2="41.24"/>
						<line class="st9" x1="6.69" y1="33.04" x2="36.65" y2="39.37"/>
						<line class="st9" x1="7.08" y1="31.18" x2="37.04" y2="37.51"/>
						<line class="st9" x1="7.48" y1="29.32" x2="37.44" y2="35.65"/>
						<line class="st9" x1="7.87" y1="27.45" x2="37.83" y2="33.78"/>
						<line class="st9" x1="8.26" y1="25.59" x2="38.22" y2="31.92"/>
						<line class="st9" x1="8.66" y1="23.72" x2="38.62" y2="30.06"/>
						<line class="st9" x1="9.05" y1="21.86" x2="39.01" y2="28.19"/>
						<line class="st9" x1="9.45" y1="20" x2="39.4" y2="26.33"/>
						<line class="st9" x1="9.84" y1="18.13" x2="39.8" y2="24.46"/>
						<line class="st9" x1="10.23" y1="16.27" x2="40.19" y2="22.6"/>
						<line class="st9" x1="10.63" y1="14.4" x2="40.59" y2="20.74"/>
						<line class="st9" x1="11.02" y1="12.54" x2="40.98" y2="18.87"/>
						<line class="st9" x1="11.41" y1="10.68" x2="41.37" y2="17.01"/>
					</g>
					<use xlink:href="#SVGID_2_"  style="overflow:visible;fill:none;stroke:#FFFFFF;stroke-width:0.2117;stroke-miterlimit:10;"/>
				</g>
				<path class="st10" d="M44.46,24.46L0.53-12.28c-1.24-1.04-1.34-2.92-0.22-4.09l3.97-4.11"/>
				<path class="st5" d="M50.07,33.09l1.09-2.92c0.25-0.66,0.07-1.41-0.44-1.9l-5.42-5.11l-3.75,3.32l-0.16,2.84L50.07,33.09z"/>
				<g>
					<g>
						<circle class="st11" cx="42.7" cy="37.74" r="7.37"/>
						<path class="st11" d="M42.7,28.86c4.9,0,8.86,3.97,8.86,8.86c0,4.89-3.97,8.86-8.86,8.86c-4.89,0-8.86-3.97-8.86-8.86
							C33.84,32.83,37.81,28.86,42.7,28.86z M42.7,30.35c-1.02,0-1.99,0.21-2.88,0.58l4.43,3.61l5.65,1.62
							C49.19,32.84,46.24,30.35,42.7,30.35z M49.95,39.06l-5.72,1.84l-4.3,3.65c0.86,0.35,1.79,0.54,2.77,0.54
							C46.31,45.09,49.32,42.49,49.95,39.06z M37.35,42.79l1.13-5.07l-1.25-4.94c-1.18,1.31-1.9,3.04-1.9,4.94
							C35.33,39.68,36.1,41.47,37.35,42.79z"/>
					</g>
					<g>
						<circle class="st2" cx="42.7" cy="37.74" r="7.37"/>
						<path class="st12" d="M42.7,28.86c4.9,0,8.86,3.97,8.86,8.86c0,4.89-3.97,8.86-8.86,8.86c-4.89,0-8.86-3.97-8.86-8.86
							C33.84,32.83,37.81,28.86,42.7,28.86z M42.7,30.35c-1.02,0-1.99,0.21-2.88,0.58l4.43,3.61l5.65,1.62
							C49.19,32.84,46.24,30.35,42.7,30.35z M49.95,39.06l-5.72,1.84l-4.3,3.65c0.86,0.35,1.79,0.54,2.77,0.54
							C46.31,45.09,49.32,42.49,49.95,39.06z M37.35,42.79l1.13-5.07l-1.25-4.94c-1.18,1.31-1.9,3.04-1.9,4.94
							C35.33,39.68,36.1,41.47,37.35,42.79z"/>
					</g>
				</g>
				<path class="st5" d="M79.54,27.16l-0.26-2.43c0,0-13.03-8.41-23.06-2.6v1.59l3.31,3.62L79.54,27.16z"/>
				<path class="st5" d="M53.06,31.26h5.64c0.61,0,1.1-0.49,1.1-1.1v-5.64c0-0.61-0.49-1.1-1.1-1.1h-5.64c-0.61,0-1.1,0.49-1.1,1.1
					v5.64C51.96,30.77,52.45,31.26,53.06,31.26z"/>
				
					<rect x="59.05" y="27.04" transform="matrix(-1 -1.224647e-16 1.224647e-16 -1 134.8713 65.8525)" class="st5" width="16.77" height="11.76"/>
				
					<rect x="52.78" y="22.26" transform="matrix(-1 -1.224647e-16 1.224647e-16 -1 108.9914 45.6788)" class="st5" width="3.44" height="1.17"/>
				
					<rect x="53.24" y="21.25" transform="matrix(-1 -1.224647e-16 1.224647e-16 -1 108.9914 43.6622)" class="st5" width="2.5" height="1.17"/>
				<path class="st5" d="M52.67,21.48h3.88v0c0-0.97-0.79-1.76-1.76-1.76h-0.37C53.45,19.72,52.67,20.51,52.67,21.48L52.67,21.48z"
					/>
			</g>
		</g>
		<use xlink:href="#SVGID_6_"  style="overflow:visible;fill:none;stroke:#D8792C;stroke-width:1.0583;stroke-miterlimit:10;"/>
	</g>
	<circle class="st13" cx="42.71" cy="37.67" r="8.51"/>
	<g>
		<path class="st2" d="M38.68,27.68L12.98,15.54l25.96,11.61c0.15,0.07,0.22,0.24,0.15,0.39C39.01,27.69,38.84,27.75,38.68,27.68
			C38.69,27.69,38.68,27.69,38.68,27.68z"/>
	</g>
</g>
</svg>
