<?xml version="1.0" encoding="utf-8"?>
<!-- Generator: Adobe Illustrator 23.0.3, SVG Export Plug-In . SVG Version: 6.00 Build 0)  -->
<svg version="1.0" id="Layer_1" xmlns="http://www.w3.org/2000/svg" xmlns:xlink="http://www.w3.org/1999/xlink" x="0px" y="0px"
	 width="112px" height="112px" viewBox="0 0 112 112" style="enable-background:new 0 0 112 112;" xml:space="preserve">
<style type="text/css">
	.st0{fill:#FFFFFF;stroke:#D8792C;stroke-width:1.64;stroke-miterlimit:10;}
	.st1{fill:none;stroke:#000200;stroke-width:1.1099;stroke-miterlimit:10;}
	.st2{fill:#FFFFFF;}
	.st3{fill:none;stroke:#D8792C;stroke-width:2.9474;stroke-linecap:round;stroke-miterlimit:10;}
	.st4{clip-path:url(#SVGID_1_);}
	.st5{fill:#D8792C;}
	.st6{fill:#000200;}
	.st7{fill:none;stroke:#D8792C;stroke-width:1.6374;stroke-miterlimit:10;}
	.st8{clip-path:url(#SVGID_3_);}
	.st9{fill:none;stroke:#FFFFFF;stroke-width:0.3275;stroke-miterlimit:10;}
	.st10{fill:none;stroke:#A6A7AA;stroke-width:2.2924;stroke-miterlimit:10;}
	.st11{fill:none;stroke:#FFFFFF;stroke-width:1.8489;}
	.st12{fill:#A6A7AA;}
	.st13{fill:none;stroke:#252223;stroke-width:1.31;stroke-miterlimit:10;}
</style>
<g>
	<path class="st0" d="M84.38,96.43H28.62c-7.25,0-13.12-5.87-13.12-13.12V27.55c0-7.25,5.87-13.12,13.12-13.12h55.76
		c7.25,0,13.12,5.87,13.12,13.12v55.76C97.5,90.55,91.62,96.43,84.38,96.43z"/>
	<line class="st1" x1="97.5" y1="84.03" x2="15.5" y2="84.03"/>
	<g>
		<path class="st2" d="M80.88,50.07c-0.07,0.22-0.15,0.42-0.23,0.62c-0.09,0.19-0.16,0.41-0.34,0.5l-0.87,0.77l-1.75,1.55l0.15-0.42
			l0.23,1.38c0.03,0.23,0.13,0.45,0.01,0.71c-0.07,0.25-0.13,0.5-0.23,0.75c-0.18-0.21-0.31-0.42-0.46-0.63
			c-0.2-0.2-0.18-0.44-0.23-0.67l-0.23-1.38l-0.04-0.25l0.19-0.17l1.75-1.55l0.87-0.77c0.11-0.17,0.33-0.21,0.54-0.27
			C80.44,50.16,80.65,50.11,80.88,50.07z"/>
	</g>
	<path class="st3" d="M68.48,79.34L27.9,73.41c-0.15-0.02-0.28-0.1-0.37-0.22l-0.43-0.59c-0.11-0.14-0.13-0.33-0.08-0.5l1.09-3.31
		c0.02-0.06,0.03-0.11,0.03-0.17l0.02-33.32c0-0.21-0.12-0.4-0.31-0.49l0,0c-0.29-0.15-0.39-0.51-0.22-0.79l1.62-2.56
		c0.15-0.23,0.44-0.32,0.69-0.21L77.78,52.2c0.26,0.11,0.39,0.4,0.3,0.67c-1.14,3.49-8.18,25.06-8.23,25.55
		c-0.04,0.41-0.78,0.76-1.1,0.88C68.67,79.34,68.57,79.35,68.48,79.34z"/>
	<g>
		<defs>
			<path id="SVGID_6_" d="M84.38,96.43H28.62c-7.25,0-13.12-5.87-13.12-13.12V27.55c0-7.25,5.87-13.12,13.12-13.12h55.76
				c7.25,0,13.12,5.87,13.12,13.12v55.76C97.5,90.55,91.62,96.43,84.38,96.43z"/>
		</defs>
		<clipPath id="SVGID_1_">
			<use xlink:href="#SVGID_6_"  style="overflow:visible;"/>
		</clipPath>
		<g class="st4">
			<g>
				<path class="st5" d="M91.44,60.87c0,0,22.63,10.01,40.96,9.71v10.63l-40.98-0.86L91.44,60.87z"/>
				<path class="st6" d="M83.02,54.97L65,45.27l0.36-1.56c0.19-0.82-0.27-1.66-1.06-1.94c-5.92-2.09-28.95-10.11-34.77-10.71
					L27.55,34c-0.18,0.27-0.08,0.64,0.22,0.77L75.66,56.8L83.02,54.97z"/>
				<path class="st7" d="M58.36,36.62c0,0-9.19-4.54-18-2.91"/>
				<path class="st5" d="M81.43,49.58l-11.56-5.66c0,0-5.79-6.5-11.31-8.74c-0.23-0.09-1.51,4.1-1.75,4
					c-5.55-2.4-15.75-7.24-27.31-8.13L78.24,52.4l1.95-0.72L81.43,49.58z"/>
				<g>
					<path class="st6" d="M28.15,34.95v33.57c0,0.13-0.02,0.27-0.07,0.39L27,71.91c-0.25,0.68,0.19,1.42,0.91,1.53l40.71,5.92
						l7.04-22.56L28.15,34.95z"/>
				</g>
				<g>
					<defs>
						<path id="SVGID_2_" d="M29.82,36.56V67.7c0,0.12-0.02,0.25-0.06,0.36l-1.01,2.78c-0.23,0.63,0.18,1.32,0.85,1.42l37.76,5.49
							l6.53-20.92L29.82,36.56z"/>
					</defs>
					<clipPath id="SVGID_3_">
						<use xlink:href="#SVGID_2_"  style="overflow:visible;"/>
					</clipPath>
					<g class="st8">
						<line class="st9" x1="29.74" y1="33.76" x2="29.74" y2="81.14"/>
						<line class="st9" x1="32.69" y1="33.76" x2="32.69" y2="81.14"/>
						<line class="st9" x1="35.63" y1="33.76" x2="35.63" y2="81.14"/>
						<line class="st9" x1="38.58" y1="33.76" x2="38.58" y2="81.14"/>
						<line class="st9" x1="41.53" y1="33.76" x2="41.53" y2="81.14"/>
						<line class="st9" x1="44.48" y1="33.76" x2="44.48" y2="81.14"/>
						<line class="st9" x1="47.42" y1="33.76" x2="47.42" y2="81.14"/>
						<line class="st9" x1="50.37" y1="33.76" x2="50.37" y2="81.14"/>
						<line class="st9" x1="53.32" y1="33.76" x2="53.32" y2="81.14"/>
						<line class="st9" x1="56.27" y1="33.76" x2="56.27" y2="81.14"/>
						<line class="st9" x1="59.21" y1="33.76" x2="59.21" y2="81.14"/>
						<line class="st9" x1="62.16" y1="33.76" x2="62.16" y2="81.14"/>
						<line class="st9" x1="65.11" y1="33.76" x2="65.11" y2="81.14"/>
						<line class="st9" x1="68.05" y1="33.76" x2="68.05" y2="81.14"/>
						<line class="st9" x1="71" y1="33.76" x2="71" y2="81.14"/>
						<line class="st9" x1="73.95" y1="33.76" x2="73.95" y2="81.14"/>
						<line class="st9" x1="76.9" y1="33.76" x2="76.9" y2="81.14"/>
					</g>
					<g class="st8">
						<line class="st9" x1="21.86" y1="74.1" x2="68.22" y2="83.9"/>
						<line class="st9" x1="22.47" y1="71.22" x2="68.83" y2="81.02"/>
						<line class="st9" x1="23.08" y1="68.34" x2="69.44" y2="78.13"/>
						<line class="st9" x1="23.69" y1="65.45" x2="70.05" y2="75.25"/>
						<line class="st9" x1="24.3" y1="62.57" x2="70.65" y2="72.36"/>
						<line class="st9" x1="24.91" y1="59.68" x2="71.26" y2="69.48"/>
						<line class="st9" x1="25.52" y1="56.8" x2="71.87" y2="66.6"/>
						<line class="st9" x1="26.13" y1="53.92" x2="72.48" y2="63.71"/>
						<line class="st9" x1="26.74" y1="51.03" x2="73.09" y2="60.83"/>
						<line class="st9" x1="27.35" y1="48.15" x2="73.7" y2="57.95"/>
						<line class="st9" x1="27.96" y1="45.27" x2="74.31" y2="55.06"/>
						<line class="st9" x1="28.57" y1="42.38" x2="74.92" y2="52.18"/>
						<line class="st9" x1="29.18" y1="39.5" x2="75.53" y2="49.29"/>
						<line class="st9" x1="29.79" y1="36.62" x2="76.14" y2="46.41"/>
						<line class="st9" x1="30.4" y1="33.73" x2="76.75" y2="43.53"/>
						<line class="st9" x1="31.01" y1="30.85" x2="77.36" y2="40.64"/>
						<line class="st9" x1="31.61" y1="27.96" x2="77.97" y2="37.76"/>
					</g>
					<use xlink:href="#SVGID_2_"  style="overflow:visible;fill:none;stroke:#FFFFFF;stroke-width:0.3275;stroke-miterlimit:10;"/>
				</g>
				<path class="st10" d="M82.74,49.29L14.77-7.55c-1.93-1.61-2.08-4.52-0.34-6.32l6.14-6.36"/>
				<path class="st5" d="M91.42,62.64l1.68-4.53c0.38-1.03,0.11-2.18-0.69-2.94l-8.38-7.91l-5.8,5.13L78,56.8L91.42,62.64z"/>
				<g>
					<g>
						<circle class="st11" cx="80.02" cy="69.84" r="11.4"/>
						<path class="st11" d="M80.02,56.09c7.57,0,13.71,6.14,13.71,13.71c0,7.57-6.14,13.71-13.71,13.71
							c-7.57,0-13.71-6.14-13.71-13.71C66.31,62.23,72.45,56.09,80.02,56.09z M80.02,58.4c-1.58,0-3.08,0.32-4.45,0.9l6.85,5.59
							l8.75,2.5C90.06,62.26,85.49,58.4,80.02,58.4z M91.23,71.87l-8.85,2.85l-6.65,5.65c1.32,0.54,2.77,0.84,4.29,0.84
							C85.61,81.21,90.26,77.18,91.23,71.87z M71.75,77.65l1.74-7.84l-1.93-7.65c-1.83,2.02-2.95,4.7-2.95,7.65
							C68.62,72.84,69.81,75.6,71.75,77.65z"/>
					</g>
					<g>
						<circle class="st2" cx="80.02" cy="69.84" r="11.4"/>
						<path class="st12" d="M80.02,56.09c7.57,0,13.71,6.14,13.71,13.71c0,7.57-6.14,13.71-13.71,13.71
							c-7.57,0-13.71-6.14-13.71-13.71C66.31,62.23,72.45,56.09,80.02,56.09z M80.02,58.4c-1.58,0-3.08,0.32-4.45,0.9l6.85,5.59
							l8.75,2.5C90.06,62.26,85.49,58.4,80.02,58.4z M91.23,71.87l-8.85,2.85l-6.65,5.65c1.32,0.54,2.77,0.84,4.29,0.84
							C85.61,81.21,90.26,77.18,91.23,71.87z M71.75,77.65l1.74-7.84l-1.93-7.65c-1.83,2.02-2.95,4.7-2.95,7.65
							C68.62,72.84,69.81,75.6,71.75,77.65z"/>
					</g>
				</g>
				<path class="st5" d="M137.01,53.46l-0.4-3.76c0,0-20.16-13.01-35.68-4.02v2.46l5.11,5.6L137.01,53.46z"/>
				<path class="st5" d="M96.04,59.82h8.72c0.94,0,1.7-0.76,1.7-1.7v-8.72c0-0.94-0.76-1.7-1.7-1.7h-8.72c-0.94,0-1.7,0.76-1.7,1.7
					v8.72C94.34,59.05,95.1,59.82,96.04,59.82z"/>
				
					<rect x="105.32" y="53.29" transform="matrix(-1 -1.224647e-16 1.224647e-16 -1 236.578 124.7746)" class="st5" width="25.94" height="18.2"/>
				
					<rect x="95.61" y="45.88" transform="matrix(-1 -1.224647e-16 1.224647e-16 -1 196.5374 93.5624)" class="st5" width="5.32" height="1.8"/>
				
					<rect x="96.33" y="44.32" transform="matrix(-1 -1.224647e-16 1.224647e-16 -1 196.5374 90.4424)" class="st5" width="3.87" height="1.8"/>
				<path class="st5" d="M95.44,44.68h6.01v0c0-1.5-1.22-2.72-2.72-2.72h-0.58C96.65,41.96,95.44,43.18,95.44,44.68L95.44,44.68z"/>
			</g>
		</g>
		<use xlink:href="#SVGID_6_"  style="overflow:visible;fill:none;stroke:#D8792C;stroke-width:1.6374;stroke-miterlimit:10;"/>
	</g>
	<circle class="st13" cx="80.03" cy="69.72" r="13.17"/>
	<g>
		<path class="st2" d="M73.8,54.28l-39.77-18.8l40.16,17.96c0.23,0.1,0.34,0.38,0.23,0.61C74.32,54.28,74.04,54.39,73.8,54.28
			C73.81,54.28,73.8,54.28,73.8,54.28z"/>
	</g>
</g>
</svg>
