<?xml version="1.0" encoding="utf-8"?>
<!-- Generator: Adobe Illustrator 23.0.3, SVG Export Plug-In . SVG Version: 6.00 Build 0)  -->
<svg version="1.0" id="Layer_1" xmlns="http://www.w3.org/2000/svg" xmlns:xlink="http://www.w3.org/1999/xlink" x="0px" y="0px"
	 width="56px" height="56px" viewBox="0 0 56 56" style="enable-background:new 0 0 56 56;" xml:space="preserve">
<style type="text/css">
	.st0{fill:#FFFFFF;stroke:#D8792C;stroke-width:1.06;stroke-miterlimit:10;}
	.st1{fill:none;}
	.st2{fill:#D8792C;}
	.st3{fill:none;stroke:#252223;stroke-width:0.8467;stroke-miterlimit:10;}
	.st4{fill:#252223;}
	.st5{fill:#FFFFFF;}
</style>
<g>
	<path class="st0" d="M45.74,55.16H9.7c-4.68,0-8.48-3.8-8.48-8.48V10.64c0-4.68,3.8-8.48,8.48-8.48h36.04
		c4.68,0,8.48,3.8,8.48,8.48v36.04C54.22,51.36,50.43,55.16,45.74,55.16z"/>
	<path class="st1" d="M9.7,49.86c-1.75,0-3.18-1.43-3.18-3.18V10.64c0-1.75,1.43-3.18,3.18-3.18h36.04c1.75,0,3.18,1.43,3.18,3.18
		v36.04c0,1.75-1.43,3.18-3.18,3.18H9.7z"/>
	<g>
		<g>
			<path class="st2" d="M46.3,40.86L31.78,29.24c0.08-0.6,0.03-1.22-0.18-1.83c-0.72-2.04-2.95-3.11-4.98-2.39
				c-0.02,0.01-0.05,0.02-0.07,0.03l-6.52-5.22l0,0l0,0l-0.38-0.31c-0.03-0.02-0.06-0.05-0.08-0.08l-3.29-2.72l3.06,1.62l1.41-3.81
				c-0.02-0.22-0.13-0.43-0.3-0.57l-4.14-3.35c-0.3-0.24-0.73-0.24-1.03,0.01l-5.72,4.76c-0.4,0.33-0.39,0.94,0.01,1.27
				c2.82,2.25,8.83,7.04,14.48,11.55c-0.08,0.59-0.02,1.2,0.19,1.8c0.72,2.04,2.95,3.11,4.98,2.39c0.02-0.01,0.04-0.01,0.05-0.02
				c2.94,2.34,5.37,4.28,6.59,5.26l0,0l0,0c0.11,0.09,0.22,0.17,0.31,0.25c0.04,0.03,0.09,0.08,0.15,0.16l3.16,2.78l-2.99-1.5
				L34.9,43c0,0.24,0.12,0.47,0.31,0.62l4.11,3.28c0.3,0.24,0.72,0.24,1.02,0l5.97-4.77C46.71,41.81,46.71,41.19,46.3,40.86z"/>
		</g>
		<circle class="st2" cx="27.93" cy="28.45" r="6.34"/>
		<g>
			<path class="st2" d="M48.88,35.56c0.78-2.48,1.15-5.09,0.98-7.68c-0.11-2.58-0.65-5.16-1.68-7.53
				c-2.02-4.76-5.75-8.73-10.33-11.02c-2.28-1.16-4.77-1.91-7.32-2.16c-1.27-0.11-2.55-0.18-3.82-0.1c-1.27,0.1-2.54,0.27-3.77,0.59
				c-4.95,1.21-9.39,4.25-12.32,8.36L9.6,15.27c3.19-4.3,7.94-7.38,13.13-8.54c1.29-0.3,2.62-0.45,3.94-0.53
				c1.32-0.06,2.65,0.03,3.96,0.18c2.63,0.32,5.19,1.15,7.51,2.39c4.67,2.46,8.39,6.6,10.34,11.47c0.99,2.43,1.48,5.04,1.54,7.64
				C50.14,30.49,49.71,33.1,48.88,35.56z"/>
		</g>
		<g>
			<path class="st2" d="M6.4,23.84c-1.03,4.83-0.37,9.99,1.84,14.36c1.09,2.19,2.55,4.2,4.29,5.91c1.76,1.7,3.79,3.09,6,4.12
				c4.39,2.08,9.49,2.6,14.19,1.47c4.71-1.11,8.97-3.86,11.93-7.64l0.99,0.8c-3.22,3.93-7.77,6.73-12.71,7.78
				c-4.93,1.08-10.2,0.41-14.68-1.83c-2.24-1.11-4.3-2.58-6.06-4.36c-1.74-1.79-3.17-3.87-4.23-6.11
				C5.81,33.85,5.27,28.64,6.4,23.84z"/>
		</g>
		<path class="st2" d="M46.44,42c0,0-0.69,1.34-5.32,4.78l1.32-3.44l2.7-1.64L46.44,42z"/>
		<path class="st2" d="M9.37,15.57c0,0,1.58-2.22,4.11-4.06l-1.08,2.62l-2.76,1.55L9.37,15.57z"/>
	</g>
	<g>
		<g>
			<line class="st3" x1="14.62" y1="41.76" x2="40.82" y2="15.56"/>
			<g>
				<polygon class="st4" points="16.57,42.03 14.99,41.39 14.36,39.81 12.84,43.54 				"/>
			</g>
			<g>
				<polygon class="st4" points="41.09,17.51 40.45,15.93 38.87,15.29 42.61,13.77 				"/>
			</g>
		</g>
	</g>
	<circle class="st5" cx="27.93" cy="28.66" r="3.16"/>
</g>
</svg>
