<?xml version="1.0" encoding="utf-8"?>
<!-- Generator: Adobe Illustrator 23.0.3, SVG Export Plug-In . SVG Version: 6.00 Build 0)  -->
<svg version="1.0" id="Layer_1" xmlns="http://www.w3.org/2000/svg" xmlns:xlink="http://www.w3.org/1999/xlink" x="0px" y="0px"
	 width="112px" height="112px" viewBox="0 0 112 112" style="enable-background:new 0 0 112 112;" xml:space="preserve">
<style type="text/css">
	.st0{fill:#FFFFFF;stroke:#D8792C;stroke-width:1.64;stroke-miterlimit:10;}
	.st1{fill:none;}
	.st2{fill:#D8792C;}
	.st3{fill:none;stroke:#252223;stroke-width:1.31;stroke-miterlimit:10;}
	.st4{fill:#252223;}
	.st5{fill:#FFFFFF;}
</style>
<g>
	<path class="st0" d="M83.6,97.66H27.84c-7.25,0-13.12-5.87-13.12-13.12V28.78c0-7.25,5.87-13.12,13.12-13.12H83.6
		c7.25,0,13.12,5.87,13.12,13.12v55.76C96.72,91.78,90.85,97.66,83.6,97.66z"/>
	<path class="st1" d="M27.84,89.46c-2.71,0-4.92-2.21-4.92-4.92V28.78c0-2.71,2.21-4.92,4.92-4.92H83.6c2.71,0,4.92,2.21,4.92,4.92
		v55.76c0,2.71-2.21,4.92-4.92,4.92H27.84z"/>
	<g>
		<g>
			<path class="st2" d="M84.47,75.54L62,57.55c0.13-0.93,0.05-1.89-0.29-2.84c-1.11-3.15-4.56-4.81-7.71-3.7
				c-0.04,0.01-0.07,0.03-0.11,0.04l-10.08-8.08l0,0l0,0l-0.59-0.47c-0.05-0.04-0.09-0.08-0.13-0.12L38,38.18l4.73,2.51l2.19-5.9
				c-0.03-0.35-0.19-0.67-0.47-0.89l-6.41-5.18c-0.47-0.38-1.14-0.37-1.6,0.01l-8.84,7.37c-0.62,0.51-0.61,1.46,0.02,1.96
				c4.36,3.48,13.65,10.9,22.4,17.87c-0.12,0.91-0.03,1.86,0.29,2.79c1.11,3.15,4.56,4.81,7.71,3.7c0.03-0.01,0.05-0.02,0.08-0.03
				c4.54,3.63,8.3,6.63,10.2,8.14l0,0l0,0c0.18,0.14,0.34,0.27,0.48,0.38c0.06,0.05,0.15,0.13,0.23,0.24l4.88,4.31l-4.63-2.32
				l-2.44,5.69c0.01,0.38,0.18,0.73,0.47,0.96l6.35,5.08c0.46,0.37,1.12,0.37,1.58,0l9.24-7.38C85.1,77.01,85.1,76.05,84.47,75.54z"
				/>
		</g>
		<circle class="st2" cx="56.04" cy="56.34" r="9.8"/>
		<g>
			<path class="st2" d="M88.46,67.34c1.2-3.83,1.78-7.88,1.52-11.88c-0.17-4-1.01-7.98-2.6-11.65c-3.12-7.36-8.9-13.5-15.99-17.06
				c-3.53-1.79-7.39-2.96-11.32-3.35c-0.49-0.09-0.98-0.11-1.47-0.12l-1.48-0.06c-0.99-0.07-1.97-0.01-2.96,0.03
				c-1.96,0.16-3.92,0.42-5.83,0.91c-7.65,1.87-14.53,6.57-19.07,12.94l-1.59-1.16C32.63,29.3,39.97,24.52,48,22.74
				c2-0.47,4.05-0.7,6.1-0.82c1.03-0.02,2.05-0.07,3.07,0.03l1.53,0.09c0.51,0.03,1.02,0.06,1.53,0.16
				c4.07,0.49,8.02,1.78,11.62,3.69c7.22,3.81,12.98,10.21,15.99,17.74c1.54,3.75,2.3,7.8,2.39,11.83
				C90.41,59.49,89.74,63.54,88.46,67.34z"/>
		</g>
		<g>
			<path class="st2" d="M22.73,49.2c-1.59,7.47-0.57,15.45,2.85,22.22c1.69,3.39,3.94,6.49,6.63,9.15c2.72,2.63,5.87,4.79,9.28,6.38
				c6.8,3.22,14.69,4.03,21.96,2.27c7.28-1.71,13.88-5.98,18.46-11.83l1.53,1.23c-4.97,6.09-12.02,10.41-19.66,12.03
				c-7.63,1.67-15.78,0.64-22.71-2.83c-3.47-1.72-6.65-4-9.37-6.74c-2.69-2.77-4.91-5.98-6.55-9.46
				C21.82,64.69,20.98,56.63,22.73,49.2z"/>
		</g>
		<path class="st2" d="M84.67,77.3c0,0-1.06,2.08-8.23,7.4l2.05-5.32l4.17-2.54L84.67,77.3z"/>
		<path class="st2" d="M27.33,36.42c0,0,2.45-3.44,6.36-6.28l-1.68,4.05l-4.28,2.39L27.33,36.42z"/>
	</g>
	<g>
		<g>
			<line class="st3" x1="35.46" y1="76.92" x2="75.99" y2="36.39"/>
			<g>
				<polygon class="st4" points="38.47,77.34 36.03,76.35 35.04,73.91 32.69,79.69 				"/>
			</g>
			<g>
				<polygon class="st4" points="76.4,39.41 75.42,36.96 72.97,35.98 78.75,33.63 				"/>
			</g>
		</g>
	</g>
	<circle class="st5" cx="56.04" cy="56.66" r="4.89"/>
</g>
</svg>
