<svg width="22" height="17" viewBox="0 0 22 17" fill="none" xmlns="http://www.w3.org/2000/svg">
<mask id="mask0" mask-type="alpha" maskUnits="userSpaceOnUse" x="3" y="0" width="16" height="17">
<path d="M17.4179 13.6551C16.7334 12.6452 16.3715 11.4699 16.3715 10.2561V6.80971C16.3715 5.39532 15.8105 4.0665 14.7917 3.06806C13.9273 2.22086 12.8221 1.69893 11.6282 1.56315V0.259644H10.3392V1.56797C7.68973 1.89311 5.62933 4.14557 5.62933 6.86017V10.2562C5.62933 11.4699 5.26749 12.6453 4.58292 13.6551L3.35083 15.4727H9.17773C9.44377 16.2105 10.1602 16.7405 11.0004 16.7405C11.8407 16.7405 12.5571 16.2105 12.8231 15.4727H18.6501L17.4179 13.6551ZM5.7567 14.2049C6.51728 13.0213 6.9184 11.66 6.9184 10.2561V6.86013C6.9184 4.6263 8.74307 2.80276 10.986 2.79516C10.9908 2.79516 10.9956 2.79516 11.0005 2.79516C12.0882 2.79516 13.1111 3.21068 13.8819 3.96605C14.656 4.72485 15.0824 5.73474 15.0824 6.80971V10.2562C15.0824 11.66 15.4835 13.0213 16.2441 14.2049H5.7567Z" fill="white"/>
</mask>
<g mask="url(#mask0)">
<path d="M17.4179 13.6551C16.7334 12.6452 16.3715 11.4699 16.3715 10.2561V6.80971C16.3715 5.39532 15.8105 4.0665 14.7917 3.06806C13.9273 2.22086 12.8221 1.69893 11.6282 1.56315V0.259644H10.3392V1.56797C7.68973 1.89311 5.62933 4.14557 5.62933 6.86017V10.2562C5.62933 11.4699 5.26749 12.6453 4.58292 13.6551L3.35083 15.4727H9.17773C9.44377 16.2105 10.1602 16.7405 11.0004 16.7405C11.8407 16.7405 12.5571 16.2105 12.8231 15.4727H18.6501L17.4179 13.6551ZM5.7567 14.2049C6.51728 13.0213 6.9184 11.66 6.9184 10.2561V6.86013C6.9184 4.6263 8.74307 2.80276 10.986 2.79516C10.9908 2.79516 10.9956 2.79516 11.0005 2.79516C12.0882 2.79516 13.1111 3.21068 13.8819 3.96605C14.656 4.72485 15.0824 5.73474 15.0824 6.80971V10.2562C15.0824 11.66 15.4835 13.0213 16.2441 14.2049H5.7567Z" fill="#333333" stroke="white" stroke-width="0.2"/>
</g>
<mask id="mask1" mask-type="alpha" maskUnits="userSpaceOnUse" x="19" y="4" width="3" height="9">
<path d="M20.1746 4.16846L19.2631 5.06489C20.1964 5.98279 20.7103 7.20317 20.7103 8.50127C20.7103 9.77086 20.2157 10.972 19.3174 11.8834L20.243 12.7658C21.3756 11.6166 21.9995 10.1021 21.9995 8.50127C21.9995 6.86455 21.3513 5.32579 20.1746 4.16846Z" fill="white"/>
</mask>
<g mask="url(#mask1)">
<path d="M20.1746 4.16846L19.2631 5.06489C20.1964 5.98279 20.7103 7.20317 20.7103 8.50127C20.7103 9.77086 20.2157 10.972 19.3174 11.8834L20.243 12.7658C21.3756 11.6166 21.9995 10.1021 21.9995 8.50127C21.9995 6.86455 21.3513 5.32579 20.1746 4.16846Z" fill="#333333" stroke="white" stroke-width="0.2"/>
</g>
<mask id="mask2" mask-type="alpha" maskUnits="userSpaceOnUse" x="17" y="5" width="3" height="7">
<path d="M18.3523 5.96143L17.4408 6.8579C17.8872 7.29684 18.1329 7.88046 18.1329 8.50135C18.1329 9.1125 17.8937 9.68965 17.4592 10.1264L18.3807 11.0129C19.0522 10.3378 19.4221 9.44585 19.4221 8.50135C19.4221 7.54185 19.0421 6.63985 18.3523 5.96143Z" fill="white"/>
</mask>
<g mask="url(#mask2)">
<path d="M18.3523 5.96143L17.4408 6.8579C17.8872 7.29684 18.1329 7.88046 18.1329 8.50135C18.1329 9.1125 17.8937 9.68965 17.4592 10.1264L18.3807 11.0129C19.0522 10.3378 19.4221 9.44585 19.4221 8.50135C19.4221 7.54185 19.0421 6.63985 18.3523 5.96143Z" fill="#333333" stroke="white" stroke-width="0.2"/>
</g>
<mask id="mask3" mask-type="alpha" maskUnits="userSpaceOnUse" x="0" y="4" width="3" height="9">
<path d="M2.73638 5.06489L1.82488 4.16846C0.648098 5.32579 0 6.86455 0 8.50127C0 10.1021 0.62382 11.6166 1.75648 12.7658L2.68207 11.8834C1.78381 10.972 1.28907 9.77086 1.28907 8.50127C1.28907 7.20317 1.80306 5.98279 2.73638 5.06489Z" fill="white"/>
</mask>
<g mask="url(#mask3)">
<path d="M2.73638 5.06489L1.82488 4.16846C0.648098 5.32579 0 6.86455 0 8.50127C0 10.1021 0.62382 11.6166 1.75648 12.7658L2.68207 11.8834C1.78381 10.972 1.28907 9.77086 1.28907 8.50127C1.28907 7.20317 1.80306 5.98279 2.73638 5.06489Z" fill="#333333" stroke="white" stroke-width="0.2"/>
</g>
<mask id="mask4" mask-type="alpha" maskUnits="userSpaceOnUse" x="2" y="5" width="3" height="7">
<path d="M4.55937 6.85497L3.64787 5.9585C2.95806 6.63691 2.57812 7.53896 2.57812 8.49842C2.57812 9.443 2.94791 10.335 3.61943 11.0101L4.54089 10.1235C4.10644 9.68672 3.86719 9.10965 3.86719 8.49842C3.86719 7.87761 4.11301 7.29395 4.55937 6.85497Z" fill="white"/>
</mask>
<g mask="url(#mask4)">
<path d="M4.55937 6.85497L3.64787 5.9585C2.95806 6.63691 2.57812 7.53896 2.57812 8.49842C2.57812 9.443 2.94791 10.335 3.61943 11.0101L4.54089 10.1235C4.10644 9.68672 3.86719 9.10965 3.86719 8.49842C3.86719 7.87761 4.11301 7.29395 4.55937 6.85497Z" fill="#333333" stroke="white" stroke-width="0.2"/>
</g>
</svg>
