<svg width="41" height="41" viewBox="0 0 41 41" fill="none" xmlns="http://www.w3.org/2000/svg">
<path d="M33.8907 20.1425V27.4417H30.4062V25.7589H32.1452H32.208V25.6961V20.4227V20.4125L32.2048 20.4029L30.6538 15.7433L30.6395 15.7003H30.5942H24.014H23.9511V15.7631V25.6961V25.7589H24.014H24.8553V27.4417H22.275V14.0175H31.8491L33.8907 20.1425Z" fill="#323232" stroke="white" stroke-width="0.125641"/>
<path d="M27.6308 30.1527C25.6723 30.1527 24.0769 28.5572 24.0769 26.5987C24.0769 24.6402 25.6723 23.0448 27.6308 23.0448C29.5893 23.0448 31.1848 24.6402 31.1848 26.5987C31.1783 28.5575 29.5891 30.1527 27.6308 30.1527ZM27.6308 24.7275C26.5995 24.7275 25.7596 25.5674 25.7596 26.5987C25.7596 27.63 26.5995 28.47 27.6308 28.47C28.6621 28.47 29.5021 27.63 29.5021 26.5987C29.5021 25.5674 28.6621 24.7275 27.6308 24.7275Z" fill="#323232" stroke="white" stroke-width="0.125641"/>
<path d="M8.65641 25.7591H10.402V27.4419H6.91743V21.2447H8.59359V25.6963V25.7591H8.65641Z" fill="#323232" stroke="white" stroke-width="0.125641"/>
<path d="M22.2124 12.0826H5.1086V10.3999H23.9514V27.4408H15.9458V25.7581H22.2124H22.2752V25.6952V12.1454V12.0826H22.2124Z" fill="#323232" stroke="white" stroke-width="0.125641"/>
<path d="M13.1767 30.1527C11.2182 30.1527 9.62276 28.5572 9.62276 26.5987C9.62276 24.6402 11.2182 23.0448 13.1767 23.0448C15.1352 23.0448 16.7307 24.6402 16.7307 26.5987C16.7241 28.5575 15.135 30.1527 13.1767 30.1527ZM13.1767 24.7275C12.1454 24.7275 11.3055 25.5674 11.3055 26.5987C11.3055 27.63 12.1454 28.47 13.1767 28.47C14.208 28.47 15.048 27.63 15.048 26.5987C15.048 25.5674 14.208 24.7275 13.1767 24.7275Z" fill="#323232" stroke="white" stroke-width="0.125641"/>
<path d="M6.01302 15.7003V14.0175H14.0186V15.7003H6.01302Z" fill="#323232" stroke="white" stroke-width="0.125641"/>
<path d="M6.91707 19.3095V17.6268H12.21V19.3095H6.91707Z" fill="#323232" stroke="white" stroke-width="0.125641"/>
<rect x="0.628205" y="0.628205" width="39.7436" height="39.7436" rx="3.14103" stroke="#D4D5D6" stroke-width="1.25641"/>
</svg>
