<svg width="21" height="14" viewBox="0 0 21 14" fill="none" xmlns="http://www.w3.org/2000/svg">
<mask id="path-1-inside-1" fill="white">
<path d="M20.3588 12.0907H17.8162V10.8171H19.0852V7.10313L17.9929 3.82147H13.3586V10.8171H13.9954V12.0907H12.0896V2.54785H18.9086L20.3588 6.8986V12.0907Z"/>
</mask>
<path d="M20.3588 12.0907H17.8162V10.8171H19.0852V7.10313L17.9929 3.82147H13.3586V10.8171H13.9954V12.0907H12.0896V2.54785H18.9086L20.3588 6.8986V12.0907Z" fill="#333333" stroke="white" stroke-width="0.2" mask="url(#path-1-inside-1)"/>
<mask id="path-2-inside-2" fill="white">
<path d="M15.9064 14C14.5026 14 13.3591 12.8565 13.3591 11.4528C13.3591 10.049 14.5026 8.90552 15.9064 8.90552C17.3101 8.90552 18.4536 10.049 18.4536 11.4528C18.449 12.8565 17.3101 14 15.9064 14ZM15.9064 10.1791C15.2045 10.1791 14.6327 10.7509 14.6327 11.4528C14.6327 12.1546 15.2045 12.7264 15.9064 12.7264C16.6083 12.7264 17.18 12.1546 17.18 11.4528C17.18 10.7509 16.6083 10.1791 15.9064 10.1791Z"/>
</mask>
<path d="M15.9064 14C14.5026 14 13.3591 12.8565 13.3591 11.4528C13.3591 10.049 14.5026 8.90552 15.9064 8.90552C17.3101 8.90552 18.4536 10.049 18.4536 11.4528C18.449 12.8565 17.3101 14 15.9064 14ZM15.9064 10.1791C15.2045 10.1791 14.6327 10.7509 14.6327 11.4528C14.6327 12.1546 15.2045 12.7264 15.9064 12.7264C16.6083 12.7264 17.18 12.1546 17.18 11.4528C17.18 10.7509 16.6083 10.1791 15.9064 10.1791Z" fill="#333333" stroke="white" stroke-width="0.2" mask="url(#path-2-inside-2)"/>
<mask id="path-3-inside-3" fill="white">
<path d="M3.81676 12.0907H1.27417V7.6377H2.54314V10.8171H3.81676V12.0907Z"/>
</mask>
<path d="M3.81676 12.0907H1.27417V7.6377H2.54314V10.8171H3.81676V12.0907Z" fill="#333333" stroke="white" stroke-width="0.2" mask="url(#path-3-inside-3)"/>
<mask id="path-4-inside-4" fill="white">
<path d="M13.359 12.0901H7.63241V10.8165H12.0901V1.27362H0V0H13.359V12.0901Z"/>
</mask>
<path d="M13.359 12.0901H7.63241V10.8165H12.0901V1.27362H0V0H13.359V12.0901Z" fill="#333333" stroke="white" stroke-width="0.2" mask="url(#path-4-inside-4)"/>
<mask id="path-5-inside-5" fill="white">
<path d="M5.72643 14C4.32266 14 3.1792 12.8565 3.1792 11.4528C3.1792 10.049 4.32266 8.90552 5.72643 8.90552C7.1302 8.90552 8.27366 10.049 8.27366 11.4528C8.26902 12.8565 7.1302 14 5.72643 14ZM5.72643 10.1791C5.02455 10.1791 4.45282 10.7509 4.45282 11.4528C4.45282 12.1546 5.02455 12.7264 5.72643 12.7264C6.42832 12.7264 7.00005 12.1546 7.00005 11.4528C7.00005 10.7509 6.42832 10.1791 5.72643 10.1791Z"/>
</mask>
<path d="M5.72643 14C4.32266 14 3.1792 12.8565 3.1792 11.4528C3.1792 10.049 4.32266 8.90552 5.72643 8.90552C7.1302 8.90552 8.27366 10.049 8.27366 11.4528C8.26902 12.8565 7.1302 14 5.72643 14ZM5.72643 10.1791C5.02455 10.1791 4.45282 10.7509 4.45282 11.4528C4.45282 12.1546 5.02455 12.7264 5.72643 12.7264C6.42832 12.7264 7.00005 12.1546 7.00005 11.4528C7.00005 10.7509 6.42832 10.1791 5.72643 10.1791Z" fill="#333333" stroke="white" stroke-width="0.2" mask="url(#path-5-inside-5)"/>
<mask id="path-6-inside-6" fill="white">
<path d="M6.36359 2.54785H0.636963V3.82147H6.36359V2.54785Z"/>
</mask>
<path d="M6.36359 2.54785H0.636963V3.82147H6.36359V2.54785Z" fill="#333333" stroke="white" stroke-width="0.2" mask="url(#path-6-inside-6)"/>
<mask id="path-7-inside-7" fill="white">
<path d="M5.08988 5.08972H1.27368V6.36334H5.08988V5.08972Z"/>
</mask>
<path d="M5.08988 5.08972H1.27368V6.36334H5.08988V5.08972Z" fill="#333333" stroke="white" stroke-width="0.2" mask="url(#path-7-inside-7)"/>
</svg>
