<svg width="61" height="60" viewBox="0 0 61 60" fill="none" xmlns="http://www.w3.org/2000/svg">
<path d="M50.3201 58.8856H11.109C5.98333 58.8856 1.88281 54.7851 1.88281 49.6595V10.4483C1.88281 5.32268 5.98333 1.22217 11.109 1.22217H50.3201C55.4458 1.22217 59.5463 5.32268 59.5463 10.4483V49.6595C59.5463 54.7851 55.4458 58.8856 50.3201 58.8856Z" fill="white" stroke="#EC6923" stroke-width="1.8" stroke-miterlimit="10"/>
<path d="M39.9407 39.4722C42.055 37.4219 43.5287 34.731 44.1694 31.7837C44.2975 31.0149 44.4256 30.3101 44.4897 29.5413C44.4897 28.7724 44.5538 28.0036 44.4897 27.2347C44.4897 26.4659 44.2975 25.697 44.1694 24.9282C44.1053 24.5438 43.9771 24.1593 43.849 23.7749C43.7849 23.5827 43.7209 23.3905 43.6568 23.1983L43.4646 22.6217C42.952 21.148 42.1191 19.7385 41.094 18.4571C40.8377 18.1367 40.6455 17.8164 40.3251 17.496L39.4922 16.599C39.1719 16.3427 38.8515 16.0865 38.5952 15.7661C38.4671 15.638 38.2749 15.5098 38.1467 15.3817L37.6342 15.0613C37.3138 14.8691 36.9935 14.5488 36.609 14.3566L35.5198 13.7159C35.1354 13.5236 34.751 13.3955 34.3666 13.2033C34.1744 13.1392 33.9821 13.0111 33.7899 12.947L33.2133 12.7548C31.6115 12.1782 29.9457 11.9219 28.2158 11.8578H26.9344L25.653 11.986C25.2045 11.986 24.8201 12.1141 24.3716 12.1782C23.9231 12.2422 23.5387 12.3063 23.0902 12.4344C21.4243 12.8829 19.8226 13.5877 18.2849 14.4847C16.7472 15.3817 15.4017 16.599 14.1844 17.8804C12.967 19.2259 12.006 20.7636 11.173 22.4294C9.63535 25.7611 8.99465 29.6053 9.50721 33.3214C10.0198 37.1016 11.6856 40.7536 14.3125 43.7009C11.4293 41.074 9.25093 37.5501 8.2258 33.5777C7.20067 29.6694 7.39288 25.3767 8.73836 21.4043C9.44314 19.4181 10.3401 17.496 11.6215 15.8302C12.9029 14.1003 14.3125 12.5626 16.0424 11.2171C17.7723 9.9357 19.6304 8.78243 21.6806 8.01358C22.1932 7.7573 22.7057 7.69323 23.2183 7.50102C23.7309 7.30881 24.2434 7.18066 24.8201 7.05252L26.4218 6.73217L28.0877 6.53996C30.2661 6.41182 32.5726 6.47589 34.751 6.98845L35.5839 7.18066C35.8402 7.24473 36.0965 7.37288 36.4168 7.43695C36.9294 7.62916 37.506 7.7573 38.0186 7.94951L39.5563 8.59022C40.0688 8.78243 40.5814 9.10278 41.094 9.35906L41.8628 9.74348C42.1191 9.87162 42.3113 10.0638 42.5676 10.192C43.0161 10.5123 43.5286 10.8327 43.9771 11.153L45.3226 12.2422C45.7711 12.6267 46.1555 13.0111 46.54 13.4596C48.1417 15.1254 49.5513 16.9835 50.6405 19.0978L51.0249 19.8666C51.153 20.1229 51.2812 20.3792 51.3453 20.6995C51.5375 21.2121 51.7937 21.7887 51.986 22.3654C52.3704 23.5186 52.6907 24.6078 52.8829 25.7611C53.1392 26.9144 53.2033 28.1317 53.3314 29.285C53.3955 30.5023 53.3314 31.6556 53.2674 32.8729C52.8189 37.6782 50.8968 42.3554 47.8214 46.1996L39.9407 39.4722Z" fill="#EC6923"/>
<path d="M6.49585 39.4082L11.7496 35.4358L17.4519 41.5225L13.031 43.7009L6.49585 39.4082Z" fill="white"/>
<path d="M44.4897 28.2599C44.4897 28.2599 45.3226 34.0262 39.9407 39.4082L47.8213 46.3918C47.8213 46.3918 54.2284 39.4722 53.2673 28.324H44.4897V28.2599Z" fill="#E51E25"/>
<path d="M11.9419 11.2812L20.3351 19.6104" stroke="white" stroke-width="1.7822" stroke-miterlimit="10"/>
<path d="M28.6646 4.42566C28.7286 4.81008 28.6646 16.7913 28.6646 16.7913" stroke="white" stroke-width="2.6734" stroke-miterlimit="10"/>
<path d="M46.8604 9.10291L37.3779 19.9949" stroke="white" stroke-width="3.5645" stroke-miterlimit="10"/>
<path d="M56.2148 27.1067H39.9409" stroke="white" stroke-width="3.5645" stroke-miterlimit="10"/>
<path d="M14.1844 27.1067H5.08643" stroke="white" stroke-width="1.7822" stroke-miterlimit="10"/>
<path d="M22.7698 52.6708H18.7333V47.417H14.8891V52.6708H10.7886V39.4082H14.8891V43.8931H18.7333V39.4082H22.7698V52.6708Z" fill="#010101"/>
<path d="M30.7146 39.4082C33.5978 39.4082 36.4809 40.2411 36.4809 44.1494C36.4809 47.2248 34.3666 48.6344 31.4834 48.6344H28.9206V52.7349H24.9482V39.4082H30.7146ZM28.9847 45.4949H30.9709C31.9319 45.4949 32.6367 45.1746 32.6367 44.0854C32.6367 43.1243 32.0601 42.6758 30.9068 42.6758H29.0488V45.4949H28.9847Z" fill="#010101"/>
<path d="M23.6668 36.3969C22.3854 36.3969 21.168 35.8203 20.3351 34.8592C18.7974 33.0012 19.0537 30.2462 20.8477 28.7085C21.168 28.4522 21.6165 28.1959 22.001 28.0037L49.9998 17.1758C50.0638 17.1758 50.1279 17.1117 50.192 17.1117C50.3842 17.1117 50.5764 17.2398 50.6405 17.368C50.7686 17.6243 50.7045 17.8805 50.4483 18.0728L26.3577 35.3718C25.717 36.0125 24.6919 36.3969 23.6668 36.3969Z" fill="#EC6923"/>
<path d="M50.256 17.6242L26.1655 34.9233C25.4607 35.564 24.5637 35.8203 23.6667 35.8203C22.5775 35.8203 21.4883 35.3718 20.7195 34.4748C19.374 32.873 19.5662 30.4383 21.168 29.0929C21.4883 28.8366 21.8087 28.6444 22.1931 28.4521L50.256 17.6242ZM50.256 16.535C50.1278 16.535 49.9997 16.535 49.8715 16.5991L21.8727 27.4911C21.3602 27.6833 20.9117 27.9396 20.5272 28.2599C18.477 29.9898 18.2207 33.1293 19.9506 35.1796C20.9117 36.2688 22.2572 36.9095 23.7308 36.9095C24.884 36.9095 25.9732 36.525 26.8702 35.7562L50.8967 18.4571C51.3452 18.1368 51.4733 17.5602 51.217 17.0476C51.0248 16.7913 50.6404 16.535 50.256 16.535Z" fill="white"/>
</svg>
