<svg width="19" height="16" viewBox="0 0 19 16" fill="none" xmlns="http://www.w3.org/2000/svg">
<path d="M17.9362 6.9582H17.4842V4.29343C17.4842 3.20383 16.5802 2.32067 15.4735 2.32067H15.0566L15.0605 1.33047C15.0605 0.596416 14.4526 0 13.7045 0H1.64828C0.748152 0 0.0116899 0.711113 0 1.59427C0 1.60191 0 1.60956 0 1.61721V14.6695C0 15.4036 0.607875 16 1.35603 16H15.4775C16.5879 16 17.4881 15.113 17.4881 14.0273V11.3587H17.9401C18.5246 11.3587 19 10.8923 19 10.3187V7.99807C18.9961 7.4246 18.5207 6.9582 17.9362 6.9582ZM1.64828 0.91756H13.7045C13.9344 0.91756 14.1253 1.10107 14.1253 1.32664L14.1214 2.32067H1.64828C1.25472 2.32067 0.935194 2.00717 0.935194 1.62103C0.935194 1.23489 1.25472 0.91756 1.64828 0.91756ZM16.549 14.0234C16.549 14.6045 16.0659 15.0786 15.4735 15.0786H1.35213C1.12223 15.0786 0.931298 14.8951 0.931298 14.6657V3.07766C1.14951 3.18089 1.3911 3.23823 1.64828 3.23823H15.4735C16.0659 3.23823 16.549 3.71231 16.549 4.29343V6.9582H13.3577C12.7732 6.9582 12.2978 7.4246 12.2978 7.99807V10.3187C12.2978 10.8923 12.7732 11.3587 13.3577 11.3587H16.549V14.0234ZM18.0609 10.3187C18.0609 10.3876 18.0064 10.4411 17.9362 10.4411H13.3615C13.2914 10.4411 13.2369 10.3876 13.2369 10.3187V7.99807C13.2369 7.93307 13.2914 7.87573 13.3615 7.87573H17.9362C18.0024 7.87573 18.0609 7.92927 18.0609 7.99807V10.3187Z" fill="#333333"/>
</svg>
