<svg width="23" height="15" viewBox="0 0 23 15" fill="none" xmlns="http://www.w3.org/2000/svg">
<mask id="path-1-outside-1" maskUnits="userSpaceOnUse" x="8.57178" y="2.78662" width="8" height="9" fill="black">
<rect fill="white" x="8.57178" y="2.78662" width="8" height="9"/>
<path d="M9.91569 10.0149C10.672 9.54845 11.4256 9.08342 12.1793 8.61829C12.9189 8.16181 13.6586 7.70514 14.4007 7.24692C13.5784 6.73574 12.7605 6.22772 11.9436 5.72023C11.2677 5.30042 10.5925 4.88091 9.91569 4.46032V10.0149V10.0149ZM12.3364 8.98132C11.4996 9.49779 10.6628 10.0141 9.82232 10.5324L9.57178 10.6869V10.3509V4.12347V3.78662L9.82299 3.94276C10.5839 4.41572 11.3427 4.88705 12.1021 5.35879C13.0157 5.9263 13.9304 6.4945 14.8512 7.06701L15.1432 7.24854L14.8506 7.42923C14.0101 7.94818 13.1733 8.46485 12.3364 8.98131V8.98132Z"/>
</mask>
<path d="M9.91569 10.0149C10.672 9.54845 11.4256 9.08342 12.1793 8.61829C12.9189 8.16181 13.6586 7.70514 14.4007 7.24692C13.5784 6.73574 12.7605 6.22772 11.9436 5.72023C11.2677 5.30042 10.5925 4.88091 9.91569 4.46032V10.0149V10.0149ZM12.3364 8.98132C11.4996 9.49779 10.6628 10.0141 9.82232 10.5324L9.57178 10.6869V10.3509V4.12347V3.78662L9.82299 3.94276C10.5839 4.41572 11.3427 4.88705 12.1021 5.35879C13.0157 5.9263 13.9304 6.4945 14.8512 7.06701L15.1432 7.24854L14.8506 7.42923C14.0101 7.94818 13.1733 8.46485 12.3364 8.98131V8.98132Z" fill="#333333"/>
<path d="M9.91569 10.0149C10.672 9.54845 11.4256 9.08342 12.1793 8.61829C12.9189 8.16181 13.6586 7.70514 14.4007 7.24692C13.5784 6.73574 12.7605 6.22772 11.9436 5.72023C11.2677 5.30042 10.5925 4.88091 9.91569 4.46032V10.0149V10.0149ZM12.3364 8.98132C11.4996 9.49779 10.6628 10.0141 9.82232 10.5324L9.57178 10.6869V10.3509V4.12347V3.78662L9.82299 3.94276C10.5839 4.41572 11.3427 4.88705 12.1021 5.35879C13.0157 5.9263 13.9304 6.4945 14.8512 7.06701L15.1432 7.24854L14.8506 7.42923C14.0101 7.94818 13.1733 8.46485 12.3364 8.98131V8.98132Z" stroke="#333333" stroke-width="0.6" mask="url(#path-1-outside-1)"/>
<mask id="path-2-outside-2" maskUnits="userSpaceOnUse" x="0" y="-0.232178" width="23" height="15" fill="black">
<rect fill="white" y="-0.232178" width="23" height="15"/>
<path d="M21.6347 11.5365C21.4977 12.0545 21.1877 12.5049 20.7665 12.8401C20.3429 13.1772 19.8066 13.3983 19.22 13.4552C17.9424 13.5804 16.6539 13.6434 15.3613 13.6749C14.0769 13.7063 12.7871 13.7063 11.4995 13.7057C10.2124 13.7063 8.92261 13.7063 7.63806 13.6749C6.34521 13.6434 5.0564 13.5804 3.77866 13.4552C3.19193 13.3983 2.65554 13.1771 2.23206 12.8399C1.81105 12.5047 1.50155 12.0543 1.36542 11.5365C1.18263 10.8427 1.09133 10.1188 1.04578 9.39084C1.00002 8.659 1 7.93779 1 7.23766C1 6.53661 1.00117 5.81446 1.04804 5.08305C1.09473 4.35474 1.18715 3.6309 1.36984 2.93714C1.50517 2.41958 1.81451 1.96934 2.23555 1.6341C2.65928 1.29669 3.1962 1.0754 3.7831 1.01851C5.06067 0.893313 6.34948 0.830298 7.64233 0.798703C8.9269 0.767325 10.2167 0.767326 11.5036 0.767976C12.7906 0.767325 14.0805 0.767325 15.3649 0.798703C16.6576 0.830297 17.9461 0.893313 19.2229 1.01851C19.8104 1.07537 20.3475 1.29656 20.7717 1.63382C21.1932 1.96902 21.503 2.41935 21.6391 2.93714C21.9992 4.30956 21.9992 5.7974 21.9991 7.20218H22V7.23767H21.9991C21.9992 7.9447 21.9988 8.67297 21.9537 9.39086C21.908 10.1188 21.8167 10.8426 21.6347 11.5365L21.6347 11.5365ZM20.4663 12.5511C20.8224 12.2678 21.0843 11.8871 21.2001 11.4494C21.3758 10.7794 21.4642 10.0772 21.5086 9.36943C21.5537 8.65159 21.5541 7.93411 21.5541 7.23766H21.5532V7.20216H21.5541C21.5541 5.82029 21.5541 4.35671 21.2046 3.02427C21.0895 2.58664 20.8276 2.20602 20.4714 1.92277C20.1157 1.63991 19.6657 1.45445 19.174 1.40685C17.9037 1.28228 16.6286 1.21975 15.3527 1.18858C14.0686 1.15721 12.7846 1.15721 11.5036 1.15785C10.2228 1.15721 8.93885 1.15721 7.65453 1.18858C6.37854 1.21975 5.10311 1.28229 3.83198 1.40685C3.34095 1.45445 2.89122 1.64001 2.53577 1.92305C2.18018 2.20618 1.91884 2.58669 1.80442 3.02427C1.62795 3.69439 1.5385 4.39656 1.49311 5.10445C1.44794 5.80925 1.44682 6.53367 1.44682 7.23765C1.44682 7.94099 1.44682 8.66553 1.49085 9.36943C1.53513 10.0772 1.6235 10.7794 1.8 11.4494C1.91508 11.8871 2.1766 12.2677 2.53227 12.5509C2.88748 12.8338 3.33671 13.0192 3.82754 13.0668C5.09882 13.1914 6.37425 13.2539 7.65026 13.2851C8.93456 13.3164 10.2185 13.3164 11.4995 13.3158C12.7811 13.3164 14.065 13.3164 15.3491 13.2851C16.6249 13.2539 17.9 13.1914 19.1711 13.0668C19.6618 13.0192 20.111 12.8339 20.4663 12.5511H20.4663Z"/>
</mask>
<path d="M21.6347 11.5365C21.4977 12.0545 21.1877 12.5049 20.7665 12.8401C20.3429 13.1772 19.8066 13.3983 19.22 13.4552C17.9424 13.5804 16.6539 13.6434 15.3613 13.6749C14.0769 13.7063 12.7871 13.7063 11.4995 13.7057C10.2124 13.7063 8.92261 13.7063 7.63806 13.6749C6.34521 13.6434 5.0564 13.5804 3.77866 13.4552C3.19193 13.3983 2.65554 13.1771 2.23206 12.8399C1.81105 12.5047 1.50155 12.0543 1.36542 11.5365C1.18263 10.8427 1.09133 10.1188 1.04578 9.39084C1.00002 8.659 1 7.93779 1 7.23766C1 6.53661 1.00117 5.81446 1.04804 5.08305C1.09473 4.35474 1.18715 3.6309 1.36984 2.93714C1.50517 2.41958 1.81451 1.96934 2.23555 1.6341C2.65928 1.29669 3.1962 1.0754 3.7831 1.01851C5.06067 0.893313 6.34948 0.830298 7.64233 0.798703C8.9269 0.767325 10.2167 0.767326 11.5036 0.767976C12.7906 0.767325 14.0805 0.767325 15.3649 0.798703C16.6576 0.830297 17.9461 0.893313 19.2229 1.01851C19.8104 1.07537 20.3475 1.29656 20.7717 1.63382C21.1932 1.96902 21.503 2.41935 21.6391 2.93714C21.9992 4.30956 21.9992 5.7974 21.9991 7.20218H22V7.23767H21.9991C21.9992 7.9447 21.9988 8.67297 21.9537 9.39086C21.908 10.1188 21.8167 10.8426 21.6347 11.5365L21.6347 11.5365ZM20.4663 12.5511C20.8224 12.2678 21.0843 11.8871 21.2001 11.4494C21.3758 10.7794 21.4642 10.0772 21.5086 9.36943C21.5537 8.65159 21.5541 7.93411 21.5541 7.23766H21.5532V7.20216H21.5541C21.5541 5.82029 21.5541 4.35671 21.2046 3.02427C21.0895 2.58664 20.8276 2.20602 20.4714 1.92277C20.1157 1.63991 19.6657 1.45445 19.174 1.40685C17.9037 1.28228 16.6286 1.21975 15.3527 1.18858C14.0686 1.15721 12.7846 1.15721 11.5036 1.15785C10.2228 1.15721 8.93885 1.15721 7.65453 1.18858C6.37854 1.21975 5.10311 1.28229 3.83198 1.40685C3.34095 1.45445 2.89122 1.64001 2.53577 1.92305C2.18018 2.20618 1.91884 2.58669 1.80442 3.02427C1.62795 3.69439 1.5385 4.39656 1.49311 5.10445C1.44794 5.80925 1.44682 6.53367 1.44682 7.23765C1.44682 7.94099 1.44682 8.66553 1.49085 9.36943C1.53513 10.0772 1.6235 10.7794 1.8 11.4494C1.91508 11.8871 2.1766 12.2677 2.53227 12.5509C2.88748 12.8338 3.33671 13.0192 3.82754 13.0668C5.09882 13.1914 6.37425 13.2539 7.65026 13.2851C8.93456 13.3164 10.2185 13.3164 11.4995 13.3158C12.7811 13.3164 14.065 13.3164 15.3491 13.2851C16.6249 13.2539 17.9 13.1914 19.1711 13.0668C19.6618 13.0192 20.111 12.8339 20.4663 12.5511H20.4663Z" fill="#333333"/>
<path d="M21.6347 11.5365C21.4977 12.0545 21.1877 12.5049 20.7665 12.8401C20.3429 13.1772 19.8066 13.3983 19.22 13.4552C17.9424 13.5804 16.6539 13.6434 15.3613 13.6749C14.0769 13.7063 12.7871 13.7063 11.4995 13.7057C10.2124 13.7063 8.92261 13.7063 7.63806 13.6749C6.34521 13.6434 5.0564 13.5804 3.77866 13.4552C3.19193 13.3983 2.65554 13.1771 2.23206 12.8399C1.81105 12.5047 1.50155 12.0543 1.36542 11.5365C1.18263 10.8427 1.09133 10.1188 1.04578 9.39084C1.00002 8.659 1 7.93779 1 7.23766C1 6.53661 1.00117 5.81446 1.04804 5.08305C1.09473 4.35474 1.18715 3.6309 1.36984 2.93714C1.50517 2.41958 1.81451 1.96934 2.23555 1.6341C2.65928 1.29669 3.1962 1.0754 3.7831 1.01851C5.06067 0.893313 6.34948 0.830298 7.64233 0.798703C8.9269 0.767325 10.2167 0.767326 11.5036 0.767976C12.7906 0.767325 14.0805 0.767325 15.3649 0.798703C16.6576 0.830297 17.9461 0.893313 19.2229 1.01851C19.8104 1.07537 20.3475 1.29656 20.7717 1.63382C21.1932 1.96902 21.503 2.41935 21.6391 2.93714C21.9992 4.30956 21.9992 5.7974 21.9991 7.20218H22V7.23767H21.9991C21.9992 7.9447 21.9988 8.67297 21.9537 9.39086C21.908 10.1188 21.8167 10.8426 21.6347 11.5365L21.6347 11.5365ZM20.4663 12.5511C20.8224 12.2678 21.0843 11.8871 21.2001 11.4494C21.3758 10.7794 21.4642 10.0772 21.5086 9.36943C21.5537 8.65159 21.5541 7.93411 21.5541 7.23766H21.5532V7.20216H21.5541C21.5541 5.82029 21.5541 4.35671 21.2046 3.02427C21.0895 2.58664 20.8276 2.20602 20.4714 1.92277C20.1157 1.63991 19.6657 1.45445 19.174 1.40685C17.9037 1.28228 16.6286 1.21975 15.3527 1.18858C14.0686 1.15721 12.7846 1.15721 11.5036 1.15785C10.2228 1.15721 8.93885 1.15721 7.65453 1.18858C6.37854 1.21975 5.10311 1.28229 3.83198 1.40685C3.34095 1.45445 2.89122 1.64001 2.53577 1.92305C2.18018 2.20618 1.91884 2.58669 1.80442 3.02427C1.62795 3.69439 1.5385 4.39656 1.49311 5.10445C1.44794 5.80925 1.44682 6.53367 1.44682 7.23765C1.44682 7.94099 1.44682 8.66553 1.49085 9.36943C1.53513 10.0772 1.6235 10.7794 1.8 11.4494C1.91508 11.8871 2.1766 12.2677 2.53227 12.5509C2.88748 12.8338 3.33671 13.0192 3.82754 13.0668C5.09882 13.1914 6.37425 13.2539 7.65026 13.2851C8.93456 13.3164 10.2185 13.3164 11.4995 13.3158C12.7811 13.3164 14.065 13.3164 15.3491 13.2851C16.6249 13.2539 17.9 13.1914 19.1711 13.0668C19.6618 13.0192 20.111 12.8339 20.4663 12.5511H20.4663Z" stroke="#333333" stroke-width="0.6" mask="url(#path-2-outside-2)"/>
</svg>
