<svg width="19" height="19" viewBox="0 0 19 19" fill="none" xmlns="http://www.w3.org/2000/svg">
<mask id="path-1-inside-1" fill="white">
<path d="M6.43627 9.19505C5.89064 9.19505 5.35726 9.03325 4.90358 8.73011C4.4499 8.42698 4.0963 7.99611 3.88749 7.49201C3.67869 6.98791 3.62405 6.43321 3.7305 5.89806C3.83695 5.36291 4.0997 4.87134 4.48552 4.48552C4.87134 4.0997 5.36291 3.83695 5.89806 3.7305C6.43321 3.62405 6.98791 3.67869 7.49201 3.88749C7.99611 4.0963 8.42698 4.4499 8.73012 4.90358C9.03325 5.35725 9.19505 5.89064 9.19505 6.43627C9.1943 7.16772 8.90341 7.86899 8.3862 8.3862C7.86899 8.90341 7.16772 9.1943 6.43627 9.19505ZM6.43627 5.0954C6.17107 5.0954 5.91183 5.17404 5.69132 5.32138C5.47082 5.46872 5.29896 5.67813 5.19747 5.92314C5.09598 6.16816 5.06943 6.43776 5.12117 6.69786C5.1729 6.95797 5.30061 7.19689 5.48813 7.38441C5.67566 7.57193 5.91458 7.69964 6.17468 7.75138C6.43479 7.80312 6.70439 7.77656 6.9494 7.67508C7.19441 7.57359 7.40383 7.40173 7.55117 7.18122C7.6985 6.96072 7.77714 6.70147 7.77714 6.43627C7.77677 6.08077 7.63538 5.73993 7.384 5.48855C7.13262 5.23717 6.79178 5.09578 6.43627 5.0954Z"/>
</mask>
<path d="M6.43627 9.19505C5.89064 9.19505 5.35726 9.03325 4.90358 8.73011C4.4499 8.42698 4.0963 7.99611 3.88749 7.49201C3.67869 6.98791 3.62405 6.43321 3.7305 5.89806C3.83695 5.36291 4.0997 4.87134 4.48552 4.48552C4.87134 4.0997 5.36291 3.83695 5.89806 3.7305C6.43321 3.62405 6.98791 3.67869 7.49201 3.88749C7.99611 4.0963 8.42698 4.4499 8.73012 4.90358C9.03325 5.35725 9.19505 5.89064 9.19505 6.43627C9.1943 7.16772 8.90341 7.86899 8.3862 8.3862C7.86899 8.90341 7.16772 9.1943 6.43627 9.19505ZM6.43627 5.0954C6.17107 5.0954 5.91183 5.17404 5.69132 5.32138C5.47082 5.46872 5.29896 5.67813 5.19747 5.92314C5.09598 6.16816 5.06943 6.43776 5.12117 6.69786C5.1729 6.95797 5.30061 7.19689 5.48813 7.38441C5.67566 7.57193 5.91458 7.69964 6.17468 7.75138C6.43479 7.80312 6.70439 7.77656 6.9494 7.67508C7.19441 7.57359 7.40383 7.40173 7.55117 7.18122C7.6985 6.96072 7.77714 6.70147 7.77714 6.43627C7.77677 6.08077 7.63538 5.73993 7.384 5.48855C7.13262 5.23717 6.79178 5.09578 6.43627 5.0954Z" fill="#333333" stroke="white" stroke-width="0.4" mask="url(#path-1-inside-1)"/>
<mask id="path-2-inside-2" fill="white">
<path d="M12.5635 15.3224C12.0178 15.3224 11.4845 15.1606 11.0308 14.8574C10.5771 14.5543 10.2235 14.1234 10.0147 13.6193C9.80588 13.1152 9.75125 12.5605 9.8577 12.0254C9.96415 11.4902 10.2269 10.9987 10.6127 10.6128C10.9985 10.227 11.4901 9.96427 12.0253 9.85782C12.5604 9.75137 13.1151 9.80601 13.6192 10.0148C14.1233 10.2236 14.5542 10.5772 14.8573 11.0309C15.1605 11.4846 15.3223 12.018 15.3223 12.5636C15.3213 13.295 15.0303 13.9961 14.5131 14.5132C13.996 15.0304 13.2948 15.3214 12.5635 15.3224ZM12.5635 11.2227C12.2983 11.2227 12.039 11.3014 11.8185 11.4487C11.598 11.596 11.4262 11.8054 11.3247 12.0505C11.2232 12.2955 11.1966 12.5651 11.2484 12.8252C11.3001 13.0853 11.4278 13.3242 11.6153 13.5117C11.8029 13.6993 12.0418 13.827 12.3019 13.8787C12.562 13.9304 12.8316 13.9039 13.0766 13.8024C13.3216 13.7009 13.531 13.529 13.6784 13.3085C13.8257 13.088 13.9043 12.8288 13.9043 12.5636C13.904 12.2081 13.7626 11.8672 13.5112 11.6159C13.2598 11.3645 12.919 11.2231 12.5635 11.2227Z"/>
</mask>
<path d="M12.5635 15.3224C12.0178 15.3224 11.4845 15.1606 11.0308 14.8574C10.5771 14.5543 10.2235 14.1234 10.0147 13.6193C9.80588 13.1152 9.75125 12.5605 9.8577 12.0254C9.96415 11.4902 10.2269 10.9987 10.6127 10.6128C10.9985 10.227 11.4901 9.96427 12.0253 9.85782C12.5604 9.75137 13.1151 9.80601 13.6192 10.0148C14.1233 10.2236 14.5542 10.5772 14.8573 11.0309C15.1605 11.4846 15.3223 12.018 15.3223 12.5636C15.3213 13.295 15.0303 13.9961 14.5131 14.5132C13.996 15.0304 13.2948 15.3214 12.5635 15.3224ZM12.5635 11.2227C12.2983 11.2227 12.039 11.3014 11.8185 11.4487C11.598 11.596 11.4262 11.8054 11.3247 12.0505C11.2232 12.2955 11.1966 12.5651 11.2484 12.8252C11.3001 13.0853 11.4278 13.3242 11.6153 13.5117C11.8029 13.6993 12.0418 13.827 12.3019 13.8787C12.562 13.9304 12.8316 13.9039 13.0766 13.8024C13.3216 13.7009 13.531 13.529 13.6784 13.3085C13.8257 13.088 13.9043 12.8288 13.9043 12.5636C13.904 12.2081 13.7626 11.8672 13.5112 11.6159C13.2598 11.3645 12.919 11.2231 12.5635 11.2227Z" fill="#333333" stroke="white" stroke-width="0.4" mask="url(#path-2-inside-2)"/>
<mask id="path-3-inside-3" fill="white">
<path d="M6.71537 14.3318C6.58677 14.3317 6.46062 14.2966 6.35044 14.2302C6.24026 14.1639 6.15019 14.0689 6.08988 13.9553C6.02957 13.8417 6.00129 13.7139 6.00807 13.5855C6.01484 13.457 6.05642 13.3329 6.12835 13.2263L11.6965 4.98019C11.8017 4.82432 11.9646 4.71663 12.1492 4.68082C12.3338 4.64501 12.5251 4.68401 12.681 4.78925C12.8369 4.89448 12.9445 5.05732 12.9804 5.24195C13.0162 5.42658 12.9772 5.61788 12.8719 5.77375L7.30333 14.0198C7.23834 14.116 7.15074 14.1947 7.04823 14.2491C6.94571 14.3035 6.83142 14.3319 6.71537 14.3318Z"/>
</mask>
<path d="M6.71537 14.3318C6.58677 14.3317 6.46062 14.2966 6.35044 14.2302C6.24026 14.1639 6.15019 14.0689 6.08988 13.9553C6.02957 13.8417 6.00129 13.7139 6.00807 13.5855C6.01484 13.457 6.05642 13.3329 6.12835 13.2263L11.6965 4.98019C11.8017 4.82432 11.9646 4.71663 12.1492 4.68082C12.3338 4.64501 12.5251 4.68401 12.681 4.78925C12.8369 4.89448 12.9445 5.05732 12.9804 5.24195C13.0162 5.42658 12.9772 5.61788 12.8719 5.77375L7.30333 14.0198C7.23834 14.116 7.15074 14.1947 7.04823 14.2491C6.94571 14.3035 6.83142 14.3319 6.71537 14.3318Z" fill="#333333" stroke="white" stroke-width="0.4" mask="url(#path-3-inside-3)"/>
<mask id="path-4-inside-4" fill="white">
<path d="M9.5 19C4.26177 19 0 14.7382 0 9.5C0 4.26177 4.26177 0 9.5 0C14.7382 0 19 4.26177 19 9.5C19 14.7382 14.7382 19 9.5 19ZM9.5 1.41791C5.04351 1.41791 1.41791 5.04351 1.41791 9.5C1.41791 13.9565 5.04351 17.5821 9.5 17.5821C13.9565 17.5821 17.5821 13.9565 17.5821 9.5C17.5821 5.04351 13.9565 1.41791 9.5 1.41791Z"/>
</mask>
<path d="M9.5 19C4.26177 19 0 14.7382 0 9.5C0 4.26177 4.26177 0 9.5 0C14.7382 0 19 4.26177 19 9.5C19 14.7382 14.7382 19 9.5 19ZM9.5 1.41791C5.04351 1.41791 1.41791 5.04351 1.41791 9.5C1.41791 13.9565 5.04351 17.5821 9.5 17.5821C13.9565 17.5821 17.5821 13.9565 17.5821 9.5C17.5821 5.04351 13.9565 1.41791 9.5 1.41791Z" fill="#333333" stroke="white" stroke-width="0.4" mask="url(#path-4-inside-4)"/>
</svg>
