<svg width="22" height="23" viewBox="0 0 22 23" fill="none" xmlns="http://www.w3.org/2000/svg">
<path d="M17.0555 13.5V14H18.0116L17.4662 13.2148L17.0555 13.5ZM14.9728 13.5L14.5486 13.7646L14.6954 14H14.9728V13.5ZM13.674 11.4173L14.0983 11.1527L13.6717 10.4688L13.2485 11.1547L13.674 11.4173ZM12.3888 13.5V14H12.6678L12.8143 13.7626L12.3888 13.5ZM10.3517 13.5L9.9322 13.228L9.43162 14H10.3517V13.5ZM12.562 10.0911L12.9815 10.3632L13.1566 10.0932L12.9834 9.82202L12.562 10.0911ZM10.4839 6.83724V6.33724H9.57129L10.0625 7.10636L10.4839 6.83724ZM12.48 6.83724L12.9117 6.58507L12.767 6.33724H12.48V6.83724ZM13.6831 8.89714L13.2514 9.14931L13.6915 9.90286L14.119 9.14208L13.6831 8.89714ZM14.8407 6.83724V6.33724H14.5481L14.4048 6.59229L14.8407 6.83724ZM16.896 6.83724L17.3207 7.10116L17.7954 6.33724H16.896V6.83724ZM14.786 10.2324L14.3613 9.9685L14.1878 10.2477L14.3753 10.5177L14.786 10.2324ZM17.0555 13H14.9728V14H17.0555V13ZM15.3971 13.2354L14.0983 11.1527L13.2497 11.6819L14.5486 13.7646L15.3971 13.2354ZM13.2485 11.1547L11.9633 13.2374L12.8143 13.7626L14.0995 11.6799L13.2485 11.1547ZM12.3888 13H10.3517V14H12.3888V13ZM10.7713 13.772L12.9815 10.3632L12.1425 9.81912L9.9322 13.228L10.7713 13.772ZM12.9834 9.82202L10.9053 6.56811L10.0625 7.10636L12.1406 10.3603L12.9834 9.82202ZM10.4839 7.33724H12.48V6.33724H10.4839V7.33724ZM12.0482 7.08941L13.2514 9.14931L14.1149 8.64496L12.9117 6.58507L12.0482 7.08941ZM14.119 9.14208L15.2765 7.08219L14.4048 6.59229L13.2472 8.65219L14.119 9.14208ZM14.8407 7.33724H16.896V6.33724H14.8407V7.33724ZM16.4713 6.57332L14.3613 9.9685L15.2106 10.4963L17.3207 7.10116L16.4713 6.57332ZM14.3753 10.5177L16.6448 13.7852L17.4662 13.2148L15.1966 9.94719L14.3753 10.5177Z" fill="#333333"/>
<path d="M16.8866 13.5H16.3866V14H16.8866V13.5ZM16.8866 6.83724V6.33724H16.3866V6.83724H16.8866ZM18.6867 6.83724H19.1867V6.33724H18.6867V6.83724ZM18.6867 12.0462H18.1867V12.5462H18.6867V12.0462ZM21.2524 12.0462H21.7524V11.5462H21.2524V12.0462ZM21.2524 13.5V14H21.7524V13.5H21.2524ZM17.3866 13.5V6.83724H16.3866V13.5H17.3866ZM16.8866 7.33724H18.6867V6.33724H16.8866V7.33724ZM18.1867 6.83724V12.0462H19.1867V6.83724H18.1867ZM18.6867 12.5462H21.2524V11.5462H18.6867V12.5462ZM20.7524 12.0462V13.5H21.7524V12.0462H20.7524ZM21.2524 13H16.8866V14H21.2524V13Z" fill="#333333"/>
<path d="M12.7635 17H9.11882L6.84587 13.3553L4.59684 17H1.0319L4.8999 11.0345L1.26318 5.34017H4.75635L6.86182 8.94499L8.88753 5.34017H12.4844L8.79183 11.2817L12.7635 17Z" fill="white"/>
<path d="M12.7635 17V17.5H13.7196L13.1742 16.7148L12.7635 17ZM9.11882 17L8.69456 17.2646L8.84137 17.5H9.11882V17ZM6.84587 13.3553L7.27013 13.0907L6.84362 12.4068L6.42036 13.0927L6.84587 13.3553ZM4.59684 17V17.5H4.87584L5.02235 17.2626L4.59684 17ZM1.0319 17L0.612372 16.728L0.111797 17.5H1.0319V17ZM4.8999 11.0345L5.31943 11.3065L5.49448 11.0366L5.3213 10.7654L4.8999 11.0345ZM1.26318 5.34017V4.84017H0.350585L0.841791 5.60929L1.26318 5.34017ZM4.75635 5.34017L5.1881 5.088L5.04335 4.84017H4.75635V5.34017ZM6.86182 8.94499L6.43007 9.19716L6.87019 9.95071L7.29771 9.18993L6.86182 8.94499ZM8.88753 5.34017V4.84017H8.59497L8.45164 5.09522L8.88753 5.34017ZM12.4844 5.34017L12.909 5.60409L13.3838 4.84017H12.4844V5.34017ZM8.79183 11.2817L8.36716 11.0178L8.19366 11.297L8.38117 11.567L8.79183 11.2817ZM12.7635 16.5H9.11882V17.5H12.7635V16.5ZM9.54308 16.7354L7.27013 13.0907L6.42161 13.6199L8.69456 17.2646L9.54308 16.7354ZM6.42036 13.0927L4.17133 16.7374L5.02235 17.2626L7.27138 13.6179L6.42036 13.0927ZM4.59684 16.5H1.0319V17.5H4.59684V16.5ZM1.45143 17.272L5.31943 11.3065L4.48037 10.7625L0.612372 16.728L1.45143 17.272ZM5.3213 10.7654L1.68458 5.07104L0.841791 5.60929L4.47851 11.3036L5.3213 10.7654ZM1.26318 5.84017H4.75635V4.84017H1.26318V5.84017ZM4.3246 5.59234L6.43007 9.19716L7.29357 8.69281L5.1881 5.088L4.3246 5.59234ZM7.29771 9.18993L9.32342 5.58512L8.45164 5.09522L6.42593 8.70004L7.29771 9.18993ZM8.88753 5.84017H12.4844V4.84017H8.88753V5.84017ZM12.0597 5.07625L8.36716 11.0178L9.2165 11.5457L12.909 5.60409L12.0597 5.07625ZM8.38117 11.567L12.3528 17.2852L13.1742 16.7148L9.20249 10.9965L8.38117 11.567Z" fill="#333333"/>
</svg>
