<svg width="22" height="23" viewBox="0 0 22 23" fill="none" xmlns="http://www.w3.org/2000/svg">
<mask id="path-1-outside-1" maskUnits="userSpaceOnUse" x="-0.680908" y="-0.178711" width="23" height="23" fill="black">
<rect fill="white" x="-0.680908" y="-0.178711" width="23" height="23"/>
<path d="M21.0491 0.925677C20.9111 0.786493 20.6879 0.786493 20.5498 0.925677L19.2405 2.24526H11.0196L0.684201 12.7503C0.448681 12.9874 0.319092 13.3031 0.319092 13.6384C0.319092 13.9738 0.448681 14.2895 0.684201 14.5266L7.91083 21.8119C8.15341 22.0564 8.47156 22.1785 8.79041 22.1785C9.11032 22.1785 9.43094 22.0554 9.676 21.8083L19.7398 11.3887V2.7486L21.0488 1.42902C21.1868 1.28983 21.1868 1.06486 21.0491 0.925677ZM8.41012 21.3085L1.18349 14.0232C1.08144 13.9204 1.0253 13.7837 1.0253 13.6384C1.0253 13.4932 1.08144 13.3565 1.18455 13.2526L4.30952 10.0762L12.2703 18.102L9.17318 21.3085C8.96308 21.5203 8.62057 21.5203 8.41012 21.3085ZM19.034 11.0997L12.7632 17.5918L4.80704 9.57077L11.3137 2.9572H18.5347L16.8281 4.6776C16.5488 4.49107 16.2151 4.38108 15.856 4.38108C14.8825 4.38108 14.0905 5.17952 14.0905 6.16093C14.0905 7.14234 14.8825 7.94078 15.856 7.94078C16.8295 7.94078 17.6215 7.14234 17.6215 6.16093C17.6215 5.79891 17.5124 5.46252 17.3274 5.18094L19.034 3.46054V11.0997ZM16.9153 6.16093C16.9153 6.74971 16.4401 7.22884 15.856 7.22884C15.272 7.22884 14.7967 6.74971 14.7967 6.16093C14.7967 5.57216 15.272 5.09302 15.856 5.09302C16.0192 5.09302 16.1717 5.1336 16.3098 5.20017L15.6064 5.90926C15.4683 6.04844 15.4683 6.27342 15.6064 6.4126C15.6752 6.48202 15.7656 6.5169 15.856 6.5169C15.9464 6.5169 16.0368 6.48202 16.1057 6.4126L16.8091 5.70351C16.8751 5.84269 16.9153 5.99647 16.9153 6.16093Z"/>
</mask>
<path d="M21.0491 0.925677C20.9111 0.786493 20.6879 0.786493 20.5498 0.925677L19.2405 2.24526H11.0196L0.684201 12.7503C0.448681 12.9874 0.319092 13.3031 0.319092 13.6384C0.319092 13.9738 0.448681 14.2895 0.684201 14.5266L7.91083 21.8119C8.15341 22.0564 8.47156 22.1785 8.79041 22.1785C9.11032 22.1785 9.43094 22.0554 9.676 21.8083L19.7398 11.3887V2.7486L21.0488 1.42902C21.1868 1.28983 21.1868 1.06486 21.0491 0.925677ZM8.41012 21.3085L1.18349 14.0232C1.08144 13.9204 1.0253 13.7837 1.0253 13.6384C1.0253 13.4932 1.08144 13.3565 1.18455 13.2526L4.30952 10.0762L12.2703 18.102L9.17318 21.3085C8.96308 21.5203 8.62057 21.5203 8.41012 21.3085ZM19.034 11.0997L12.7632 17.5918L4.80704 9.57077L11.3137 2.9572H18.5347L16.8281 4.6776C16.5488 4.49107 16.2151 4.38108 15.856 4.38108C14.8825 4.38108 14.0905 5.17952 14.0905 6.16093C14.0905 7.14234 14.8825 7.94078 15.856 7.94078C16.8295 7.94078 17.6215 7.14234 17.6215 6.16093C17.6215 5.79891 17.5124 5.46252 17.3274 5.18094L19.034 3.46054V11.0997ZM16.9153 6.16093C16.9153 6.74971 16.4401 7.22884 15.856 7.22884C15.272 7.22884 14.7967 6.74971 14.7967 6.16093C14.7967 5.57216 15.272 5.09302 15.856 5.09302C16.0192 5.09302 16.1717 5.1336 16.3098 5.20017L15.6064 5.90926C15.4683 6.04844 15.4683 6.27342 15.6064 6.4126C15.6752 6.48202 15.7656 6.5169 15.856 6.5169C15.9464 6.5169 16.0368 6.48202 16.1057 6.4126L16.8091 5.70351C16.8751 5.84269 16.9153 5.99647 16.9153 6.16093Z" fill="#333333"/>
<path d="M21.0491 0.925677C20.9111 0.786493 20.6879 0.786493 20.5498 0.925677L19.2405 2.24526H11.0196L0.684201 12.7503C0.448681 12.9874 0.319092 13.3031 0.319092 13.6384C0.319092 13.9738 0.448681 14.2895 0.684201 14.5266L7.91083 21.8119C8.15341 22.0564 8.47156 22.1785 8.79041 22.1785C9.11032 22.1785 9.43094 22.0554 9.676 21.8083L19.7398 11.3887V2.7486L21.0488 1.42902C21.1868 1.28983 21.1868 1.06486 21.0491 0.925677ZM8.41012 21.3085L1.18349 14.0232C1.08144 13.9204 1.0253 13.7837 1.0253 13.6384C1.0253 13.4932 1.08144 13.3565 1.18455 13.2526L4.30952 10.0762L12.2703 18.102L9.17318 21.3085C8.96308 21.5203 8.62057 21.5203 8.41012 21.3085ZM19.034 11.0997L12.7632 17.5918L4.80704 9.57077L11.3137 2.9572H18.5347L16.8281 4.6776C16.5488 4.49107 16.2151 4.38108 15.856 4.38108C14.8825 4.38108 14.0905 5.17952 14.0905 6.16093C14.0905 7.14234 14.8825 7.94078 15.856 7.94078C16.8295 7.94078 17.6215 7.14234 17.6215 6.16093C17.6215 5.79891 17.5124 5.46252 17.3274 5.18094L19.034 3.46054V11.0997ZM16.9153 6.16093C16.9153 6.74971 16.4401 7.22884 15.856 7.22884C15.272 7.22884 14.7967 6.74971 14.7967 6.16093C14.7967 5.57216 15.272 5.09302 15.856 5.09302C16.0192 5.09302 16.1717 5.1336 16.3098 5.20017L15.6064 5.90926C15.4683 6.04844 15.4683 6.27342 15.6064 6.4126C15.6752 6.48202 15.7656 6.5169 15.856 6.5169C15.9464 6.5169 16.0368 6.48202 16.1057 6.4126L16.8091 5.70351C16.8751 5.84269 16.9153 5.99647 16.9153 6.16093Z" stroke="#333333" stroke-width="0.4" mask="url(#path-1-outside-1)"/>
</svg>
