<svg width="43" height="36" viewBox="0 0 43 36" fill="none" xmlns="http://www.w3.org/2000/svg">
<path d="M30.5676 4.50122H38.8711C40.9678 4.50122 42.6757 6.18343 42.6757 8.24857V31.6217C42.6757 33.6868 40.9678 35.3553 38.8711 35.3553H4.86567C2.76897 35.3553 1.07495 33.6868 1.07495 31.6217V8.24857C1.07495 6.18343 2.76897 4.50122 4.86567 4.50122H13.3774" stroke="#333333" stroke-miterlimit="10" stroke-linecap="round" stroke-linejoin="round"/>
<path d="M14.5124 2.11755H9.64255C8.473 2.11755 7.5249 3.06566 7.5249 4.2352V4.2352" stroke="#333333" stroke-linecap="round" stroke-linejoin="round"/>
<path d="M13.5708 4.5013L14.6331 1.95764C14.9649 1.16314 15.7509 0.644531 16.6231 0.644531H27.5234C28.398 0.644531 29.1856 1.16595 29.5159 1.9636L30.5666 4.5013" stroke="#333333" stroke-miterlimit="10" stroke-linecap="round" stroke-linejoin="round"/>
<path d="M21.8764 28.9388C26.926 28.9388 31.0196 24.9068 31.0196 19.9331C31.0196 14.9595 26.926 10.9275 21.8764 10.9275C16.8267 10.9275 12.7332 14.9595 12.7332 19.9331C12.7332 24.9068 16.8267 28.9388 21.8764 28.9388Z" stroke="#333333" stroke-miterlimit="10" stroke-linecap="round" stroke-linejoin="round"/>
<path d="M21.8764 26.9467C25.8091 26.9467 28.9971 23.8067 28.9971 19.9332C28.9971 16.0597 25.8091 12.9197 21.8764 12.9197C17.9438 12.9197 14.7557 16.0597 14.7557 19.9332C14.7557 23.8067 17.9438 26.9467 21.8764 26.9467Z" stroke="#333333" stroke-miterlimit="10" stroke-linecap="round" stroke-linejoin="round"/>
<path d="M34.7775 11.599C35.4945 11.599 36.0757 11.0266 36.0757 10.3204C36.0757 9.61422 35.4945 9.04175 34.7775 9.04175C34.0606 9.04175 33.4794 9.61422 33.4794 10.3204C33.4794 11.0266 34.0606 11.599 34.7775 11.599Z" stroke="#333333" stroke-miterlimit="10" stroke-linecap="round" stroke-linejoin="round"/>
</svg>
