<svg width="41" height="42" viewBox="0 0 41 42" fill="none" xmlns="http://www.w3.org/2000/svg">
<g clip-path="url(#clip0)">
<path d="M34.2926 21.3748L33.5535 21.8015L29.7128 15.1493C29.4771 14.7411 28.9551 14.6012 28.5469 14.8369L26.3295 16.1171L23.3423 10.9432C23.1066 10.535 22.5846 10.3951 22.1764 10.6308L14.7851 14.8981C14.3769 15.1338 14.237 15.6558 14.4727 16.064L17.8866 21.9771L20.25 26.0706C19.669 26.0694 19.0804 26.2155 18.5421 26.5263L11.003 13.4682C10.8898 13.2721 10.7033 13.1291 10.4847 13.0706L5.82119 11.821C5.36596 11.699 4.89793 11.9692 4.7759 12.4245C4.65388 12.8797 4.9241 13.3478 5.3794 13.4698L9.70142 14.6278L17.2934 27.7775C16.7062 28.7992 16.6621 30.0978 17.2925 31.1898C18.2337 32.82 20.3258 33.3806 21.956 32.4394C23.0479 31.809 23.659 30.6622 23.6614 29.4838C23.7939 29.4073 34.8518 23.023 35.1462 22.853C35.5543 22.6174 35.6942 22.0954 35.4586 21.6871C35.2229 21.2789 34.7008 21.1391 34.2926 21.3748ZM21.1025 30.9611C20.2874 31.4317 19.2414 31.1514 18.7708 30.3363C18.3001 29.5212 18.5804 28.4752 19.3955 28.0046C20.2107 27.534 21.2567 27.8142 21.7273 28.6294C22.1979 29.4445 21.9176 30.4905 21.1025 30.9611ZM16.3777 15.9497L22.2908 12.5358L24.8513 16.9706L18.9382 20.3845L16.3777 15.9497ZM32.0752 22.655L23.2056 27.7759L19.7917 21.8628C19.9097 21.7946 28.5454 16.8088 28.6613 16.7419L32.0752 22.655L32.0752 22.655Z" fill="#323232"/>
</g>
<rect x="0.56746" y="1.44051" width="39.7222" height="39.7222" rx="2.8373" stroke="#D4D5D6" stroke-width="1.13492"/>
<defs>
<clipPath id="clip0">
<rect width="31.7778" height="28.373" fill="white" transform="translate(4.53967 5.41272)"/>
</clipPath>
</defs>
</svg>
