<svg width="43" height="42" viewBox="0 0 43 42" fill="none" xmlns="http://www.w3.org/2000/svg">
<mask id="path-1-inside-1" fill="white">
<path d="M21.0039 0C32.6209 0 42.0038 9.38302 42.0038 21C42.0038 32.617 32.6209 42 21.0039 42C9.38686 42 0.0039079 32.617 0.0039079 21C-0.219496 9.38302 9.16346 0 21.0039 0Z"/>
</mask>
<path d="M21.0039 0C32.6209 0 42.0038 9.38302 42.0038 21C42.0038 32.617 32.6209 42 21.0039 42C9.38686 42 0.0039079 32.617 0.0039079 21C-0.219496 9.38302 9.16346 0 21.0039 0Z" stroke="#F76600" stroke-width="2" mask="url(#path-1-inside-1)"/>
<path d="M26.4959 11.9473C26.3633 11.8154 26.1643 11.7762 25.9915 11.848C25.8187 11.9198 25.706 12.0886 25.706 12.2757V14.7472C23.2042 14.8467 21.9515 15.8838 21.7601 16.0563C20.4979 17.0921 19.6361 18.5356 19.3231 20.1379C19.1666 20.9121 19.1385 21.7067 19.2404 22.49L19.2408 22.4927C19.2417 22.4996 19.2428 22.5066 19.2439 22.5135L19.3423 23.0793C19.3754 23.2698 19.5236 23.4198 19.7137 23.4552C19.9041 23.4907 20.0962 23.404 20.1957 23.2381L20.4906 22.7465C21.3967 21.2399 22.5259 20.2412 23.8473 19.7782C24.4433 19.5674 25.0747 19.4749 25.706 19.5057V22.0655C25.706 22.253 25.8191 22.4221 25.9924 22.4936C26.1659 22.5652 26.3653 22.5251 26.4975 22.3921L31.3923 17.4726C31.5727 17.2913 31.5719 16.998 31.3906 16.8176L26.4959 11.9473ZM26.6325 20.943V19.089C26.6325 18.8618 26.4675 18.668 26.243 18.6318C25.8467 18.5679 24.7899 18.4664 23.541 18.9041C22.2086 19.3709 21.0559 20.2895 20.1065 21.6392C20.1038 21.1958 20.1458 20.753 20.2319 20.3179C20.5134 18.8945 21.2285 17.6989 22.3569 16.7648C22.3669 16.7566 22.3763 16.7481 22.3855 16.7391C22.4179 16.7091 23.5943 15.647 26.1655 15.6662H26.169C26.4248 15.6662 26.6323 15.4586 26.6325 15.2028V13.3901L30.4091 17.1476L26.6325 20.943Z" fill="#F76600"/>
<path d="M29.83 25.4509C29.5744 25.4509 29.3669 25.6583 29.3669 25.9141V27.8716C29.3661 28.6387 28.7445 29.2602 27.9773 29.2611H12.8149C12.0478 29.2602 11.4263 28.6387 11.4254 27.8716V16.8366C11.4263 16.0695 12.0478 15.448 12.8149 15.4471H16.0183C16.2742 15.4471 16.4815 15.2397 16.4815 14.9839C16.4815 14.728 16.2742 14.5207 16.0183 14.5207H12.8149C11.5365 14.5221 10.5005 15.5581 10.499 16.8366V27.8716C10.5005 29.15 11.5365 30.186 12.8149 30.1875H27.9773C29.2558 30.186 30.2918 29.15 30.2932 27.8716V25.9141C30.2932 25.6583 30.0859 25.4509 29.83 25.4509Z" fill="#F76600"/>
</svg>
