<svg width="52" height="32" viewBox="0 0 52 32" fill="none" xmlns="http://www.w3.org/2000/svg">
<path d="M22.0506 22.8712C23.9211 21.7176 25.7852 20.5674 27.6492 19.417C29.4785 18.288 31.308 17.1585 33.1436 16.0251C31.1096 14.7608 29.0868 13.5043 27.0662 12.2491C25.3947 11.2108 23.7245 10.1732 22.0506 9.13296V22.8712V22.8712ZM28.0379 20.3149C25.9681 21.5923 23.8983 22.8694 21.8196 24.1512L21.2 24.5333V23.7023V8.29983V7.46667L21.8213 7.85286C23.7033 9.02264 25.5799 10.1884 27.4583 11.3552C29.7179 12.7588 31.9802 14.1642 34.2578 15.5802L34.9799 16.0292L34.2561 16.4761C32.1774 17.7596 30.1076 19.0375 28.0379 20.3149V20.3149Z" fill="#333333"/>
<path d="M51.0365 26.6346C50.6976 27.9156 49.931 29.0296 48.8892 29.8587C47.8413 30.6925 46.515 31.2393 45.0641 31.38C41.9041 31.6897 38.7174 31.8455 35.5202 31.9236C32.3436 32.0012 29.1534 32.0012 25.9687 31.9996C22.7854 32.0012 19.5953 32.0012 16.4181 31.9236C13.2205 31.8455 10.0328 31.6897 6.87255 31.38C5.42137 31.2393 4.09471 30.6923 3.0473 29.8583C2.006 29.0291 1.24051 27.9152 0.903799 26.6346C0.451695 24.9184 0.225888 23.1282 0.11323 21.3276C4.04866e-05 19.5175 0 17.7337 0 16.0021C0 14.2681 0.00289571 12.482 0.118818 10.673C0.234291 8.87163 0.462872 7.08134 0.914731 5.36544C1.24944 4.08534 2.01456 2.97176 3.05594 2.14259C4.10396 1.30806 5.43193 0.760732 6.88353 0.620023C10.0434 0.31038 13.231 0.154522 16.4287 0.0763783C19.6059 -0.00122905 22.796 -0.00122865 25.9789 0.000379191C29.1622 -0.00122869 32.3525 -0.0012291 35.5293 0.0763783C38.7266 0.154522 41.9133 0.31038 45.0714 0.620023C46.5243 0.76066 47.8529 1.30774 48.9019 2.14191C49.9444 2.97097 50.7107 4.08477 51.0475 5.36544C51.9379 8.7599 51.9379 12.4398 51.9378 15.9143H51.94V16.0021H51.9378C51.938 17.7508 51.9371 19.5521 51.8255 21.3276C51.7124 23.1282 51.4866 24.9184 51.0365 26.6346L51.0365 26.6346ZM48.1467 29.144C49.0273 28.4433 49.6752 27.5017 49.9616 26.4191C50.3962 24.7621 50.6148 23.0253 50.7247 21.2747C50.8362 19.4992 50.8372 17.7246 50.837 16.0021H50.8349V15.9143H50.837C50.8371 12.4964 50.8371 8.87651 49.9726 5.58094C49.688 4.49855 49.0404 3.55715 48.1594 2.85657C47.2796 2.15696 46.1666 1.69825 44.9505 1.58052C41.8084 1.27242 38.6548 1.11777 35.4991 1.04066C32.323 0.963093 29.1472 0.963093 25.9789 0.964665C22.811 0.963093 19.6354 0.963093 16.4589 1.04066C13.3029 1.11777 10.1484 1.27245 7.00443 1.58052C5.78995 1.69826 4.67763 2.15722 3.79847 2.85725C2.91898 3.55754 2.27259 4.49866 1.98961 5.58094C1.55313 7.23839 1.33189 8.97508 1.21964 10.7259C1.10791 12.4691 1.10514 14.2609 1.10514 16.0021C1.10514 17.7416 1.10514 19.5337 1.21405 21.2746C1.32357 23.0252 1.54211 24.7619 1.97868 26.4191C2.2633 27.5017 2.91013 28.4431 3.78982 29.1436C4.66837 29.8432 5.77946 30.3018 6.99346 30.4195C10.1377 30.7276 13.2923 30.8822 16.4483 30.9593C19.6248 31.0369 22.8004 31.0369 25.9687 31.0353C29.1385 31.0369 32.314 31.0369 35.4901 30.9593C38.6456 30.8822 41.7992 30.7276 44.9432 30.4195C46.157 30.3018 47.2678 29.8433 48.1467 29.144H48.1467Z" fill="#333333"/>
</svg>
