<svg width="31" height="41" viewBox="0 0 31 41" fill="none" xmlns="http://www.w3.org/2000/svg">
<path d="M15.5402 19.3896C12.5154 19.3896 10.0635 21.8416 10.0635 24.8664C10.0635 27.8911 12.5154 30.3431 15.5402 30.3431C18.565 30.3431 21.0173 27.8911 21.0173 24.8664C21.014 21.8427 18.5639 19.3929 15.5402 19.3896Z" fill="#323232"/>
<path d="M11.0697 30.6641V40.9985L14.9376 37.6886C15.2838 37.3926 15.794 37.3926 16.1402 37.6886L20.0084 40.9985V30.6641C17.3765 32.7004 13.7013 32.7004 11.0693 30.6641H11.0697Z" fill="#323232"/>
<path d="M20.2227 6.23743V0H2.69792C1.67666 0.00108415 0.84874 0.829007 0.847656 1.85027V33.7002C0.84874 34.7214 1.67666 35.549 2.69792 35.5504H9.22265V28.5664C7.41683 25.4885 8.09117 21.5571 10.8196 19.2569C13.548 16.9567 17.5366 16.9567 20.265 19.2569C22.9934 21.5571 23.6678 25.4885 21.8619 28.5664V35.5504H28.3867C29.4079 35.549 30.2358 34.7214 30.2369 33.7002V9.01283H22.9981C21.4659 9.01102 20.2245 7.76932 20.2227 6.23743Z" fill="#323232"/>
<path d="M22.9945 7.16398H28.7195L22.0693 1.14844V6.23884C22.0701 6.74947 22.4838 7.16325 22.9945 7.16398Z" fill="#323232"/>
</svg>
