<svg width="37" height="34" viewBox="0 0 37 34" fill="none" xmlns="http://www.w3.org/2000/svg">
<path d="M1.84375 18.0625H35.1562V33.4375H1.84375V18.0625Z" fill="#FF7D00"/>
<path d="M8.89062 5.89062V14.2188H11.4531V5.89062C11.4531 5.55082 11.3181 5.22493 11.0779 4.98464C10.8376 4.74436 10.5117 4.60938 10.1719 4.60938C9.83207 4.60938 9.50618 4.74436 9.26589 4.98464C9.02561 5.22493 8.89062 5.55082 8.89062 5.89062Z" fill="#FF7D00"/>
<path d="M17.8594 0.125H2.48438C2.31447 0.125 2.15153 0.192494 2.03138 0.312635C1.91124 0.432775 1.84375 0.595721 1.84375 0.765625V9.73438C1.84375 9.90428 1.91124 10.0672 2.03138 10.1874C2.15153 10.3075 2.31447 10.375 2.48438 10.375H7.60938V5.89062C7.60938 5.21101 7.87935 4.55923 8.35991 4.07866C8.84048 3.5981 9.49226 3.32812 10.1719 3.32812C10.8515 3.32812 11.5033 3.5981 11.9838 4.07866C12.4644 4.55923 12.7344 5.21101 12.7344 5.89062V10.375H17.8594C18.0293 10.375 18.1922 10.3075 18.3124 10.1874C18.4325 10.0672 18.5 9.90428 18.5 9.73438V0.765625C18.5 0.595721 18.4325 0.432775 18.3124 0.312635C18.1922 0.192494 18.0293 0.125 17.8594 0.125Z" fill="#FF7D00"/>
<path d="M0.5625 15.5H36.4375V16.7812H0.5625V15.5Z" fill="#FF7D00"/>
<path d="M22.3438 14.2188H32.5938V12.2969C32.5927 11.4477 32.2549 10.6335 31.6545 10.033C31.054 9.43256 30.2398 9.09477 29.3906 9.09375C29.3906 9.60346 29.1881 10.0923 28.8277 10.4527C28.4673 10.8131 27.9785 11.0156 27.4688 11.0156C26.959 11.0156 26.4702 10.8131 26.1098 10.4527C25.7494 10.0923 25.5469 9.60346 25.5469 9.09375C24.6977 9.09477 23.8835 9.43256 23.283 10.033C22.6826 10.6335 22.3448 11.4477 22.3438 12.2969V14.2188Z" fill="#FF7D00"/>
<path d="M29.3906 0.125H23.625C23.625 0.464809 23.76 0.790699 24.0003 1.03098C24.2405 1.27126 24.5664 1.40625 24.9062 1.40625H30.0312V0.765625C30.0312 0.595721 29.9638 0.432775 29.8436 0.312635C29.7235 0.192494 29.5605 0.125 29.3906 0.125Z" fill="#FF7D00"/>
<path d="M29.3906 2.6875H25.5469V4.60938C25.5469 5.11909 25.7494 5.60792 26.1098 5.96835C26.4702 6.32877 26.959 6.53125 27.4688 6.53125C27.9785 6.53125 28.4673 6.32877 28.8277 5.96835C29.1881 5.60792 29.3906 5.11909 29.3906 4.60938V2.6875Z" fill="#FF7D00"/>
<path d="M27.4688 9.73435C27.6387 9.73435 27.8016 9.66686 27.9217 9.54672C28.0419 9.42658 28.1094 9.26363 28.1094 9.09373V7.74841C27.6867 7.8347 27.2508 7.8347 26.8281 7.74841V9.09373C26.8281 9.26363 26.8956 9.42658 27.0158 9.54672C27.1359 9.66686 27.2988 9.73435 27.4688 9.73435Z" fill="#FF7D00"/>
</svg>
