<svg width="23" height="23" viewBox="0 0 23 23" fill="none" xmlns="http://www.w3.org/2000/svg">
<path d="M23 11.5C23 5.15905 17.8409 0 11.5 0C5.15905 0 0 5.15905 0 11.5C0 17.8409 5.15905 23 11.5 23C17.8409 23 23 17.8409 23 11.5ZM1.14906 11.5C1.14906 5.79221 5.79221 1.14906 11.5 1.14906C17.2078 1.14906 21.8509 5.79221 21.8509 11.5C21.8509 17.2078 17.2078 21.8509 11.5 21.8509C5.79221 21.8509 1.14906 17.2078 1.14906 11.5Z" fill="#FF7D00"/>
<path d="M11.9087 16.9044L15.1402 13.673C15.3653 13.4478 15.3653 13.0867 15.1402 12.8616C14.9151 12.6365 14.5539 12.6365 14.3288 12.8616L12.0776 15.1128V6.50656C12.0776 6.18764 11.8196 5.92969 11.5007 5.92969C11.1818 5.92969 10.9238 6.18764 10.9238 6.50656V15.1081L8.6726 12.8569C8.44748 12.6318 8.08635 12.6318 7.86122 12.8569C7.6361 13.082 7.6361 13.4431 7.86122 13.6683L11.0927 16.8997C11.2052 17.0123 11.3506 17.0686 11.5007 17.0686C11.6508 17.0686 11.7962 17.017 11.9087 16.9044Z" fill="#FF7D00"/>
</svg>
