<svg width="38" height="46" viewBox="0 0 38 46" fill="none" xmlns="http://www.w3.org/2000/svg">
<path d="M37.1185 10.2111C37.0685 10.2111 37.0685 10.161 37.0184 10.111C36.9684 10.0609 36.9684 10.0109 36.9183 9.96083L28.309 0.300326C28.2589 0.250272 28.1588 0.200218 28.1087 0.150163C28.0587 0.150163 28.0587 0.100109 28.0086 0.100109C27.9085 0.0500544 27.7584 0 27.6082 0H6.48525C3.38188 0 0.829102 2.55277 0.829102 5.65615V40.3439C0.829102 43.4472 3.38188 46 6.48525 46H31.5124C34.6158 46 37.1686 43.4472 37.1686 40.3439V10.5615C37.1686 10.4614 37.1185 10.3112 37.1185 10.2111ZM28.5592 3.4037L34.1153 9.6605H28.5592V3.4037ZM35.2665 40.2938C35.2665 42.3961 33.6147 44.0979 31.5124 44.0979H6.48525C4.38296 44.0979 2.73117 42.3961 2.73117 40.3439V5.60609C2.73117 3.50381 4.43302 1.85201 6.48525 1.85201H26.6572V10.5615C26.6572 11.062 27.0576 11.5125 27.6082 11.5125H35.2665V40.2938Z" fill="#323232"/>
<path d="M7.58873 11.5114H15.9478C16.4484 11.5114 16.8989 11.111 16.8989 10.5604C16.8989 10.0098 16.4984 9.60938 15.9478 9.60938H7.58873C7.08818 9.60938 6.6377 10.0098 6.6377 10.5604C6.6377 11.111 7.08818 11.5114 7.58873 11.5114Z" fill="#323232"/>
<path d="M15.9478 34.4873H7.58873C7.08818 34.4873 6.6377 34.8877 6.6377 35.4383C6.6377 35.9389 7.03813 36.3894 7.58873 36.3894H15.9478C16.4484 36.3894 16.8989 35.9889 16.8989 35.4383C16.8989 34.9378 16.4484 34.4873 15.9478 34.4873Z" fill="#323232"/>
<path d="M6.6377 16.8681C6.6377 17.3687 7.03813 17.8192 7.58873 17.8192H29.913C30.4135 17.8192 30.864 17.4187 30.864 16.8681C30.864 16.3676 30.4636 15.9171 29.913 15.9171H7.58873C7.08818 15.9171 6.6377 16.3175 6.6377 16.8681Z" fill="#323232"/>
<path d="M29.913 20.6211H7.58873C7.08818 20.6211 6.6377 21.0215 6.6377 21.5721C6.6377 22.0727 7.03813 22.5232 7.58873 22.5232H29.913C30.4135 22.5232 30.864 22.1227 30.864 21.5721C30.864 21.0215 30.4636 20.6211 29.913 20.6211Z" fill="#323232"/>
<path d="M29.913 25.2775H7.58873C7.08818 25.2775 6.6377 25.6779 6.6377 26.2285C6.6377 26.729 7.03813 27.1795 7.58873 27.1795H29.913C30.4135 27.1795 30.864 26.7791 30.864 26.2285C30.864 25.6779 30.4636 25.2775 29.913 25.2775Z" fill="#323232"/>
<path d="M29.913 29.9336H7.58873C7.08818 29.9336 6.6377 30.334 6.6377 30.8846C6.6377 31.3852 7.03813 31.8357 7.58873 31.8357H29.913C30.4135 31.8357 30.864 31.4352 30.864 30.8846C30.864 30.3841 30.4636 29.9336 29.913 29.9336Z" fill="#323232"/>
</svg>
