<svg width="31" height="41" viewBox="0 0 31 41" fill="none" xmlns="http://www.w3.org/2000/svg">
<path d="M21.9062 2.5625H19.1234C18.5955 1.07112 17.1707 0 15.5 0C13.8292 0 12.4045 1.07112 11.8741 2.5625H9.09375C8.3865 2.5625 7.8125 3.1365 7.8125 3.84375V8.96875C7.8125 9.676 8.3865 10.25 9.09375 10.25H21.9062C22.6135 10.25 23.1875 9.676 23.1875 8.96875V3.84375C23.1875 3.1365 22.6135 2.5625 21.9062 2.5625Z" fill="#FF7D00"/>
<path d="M28.3125 5.125H25.75V8.96875C25.75 11.0879 24.0254 12.8125 21.9062 12.8125H9.09375C6.97456 12.8125 5.25 11.0879 5.25 8.96875V5.125H2.6875C1.27556 5.125 0.125 6.27556 0.125 7.6875V38.4375C0.125 39.8751 1.24994 41 2.6875 41H28.3125C29.7501 41 30.875 39.8751 30.875 38.4375V7.6875C30.875 6.24994 29.7501 5.125 28.3125 5.125ZM15.1259 27.8134L10.0009 32.9384C9.74975 33.1869 9.42175 33.3125 9.09375 33.3125C8.76575 33.3125 8.43775 33.1869 8.18662 32.9384L5.62412 30.3759C5.12444 29.8762 5.12444 29.0639 5.62412 28.5642C6.12381 28.0645 6.93613 28.0645 7.43581 28.5642L9.09375 30.2196L13.3116 26.0017C13.8113 25.502 14.6236 25.502 15.1233 26.0017C15.623 26.5014 15.6256 27.3111 15.1259 27.8134ZM15.1259 17.5634L10.0009 22.6884C9.74975 22.9369 9.42175 23.0625 9.09375 23.0625C8.76575 23.0625 8.43775 22.9369 8.18662 22.6884L5.62412 20.1259C5.12444 19.6262 5.12444 18.8139 5.62412 18.3142C6.12381 17.8145 6.93613 17.8145 7.43581 18.3142L9.09375 19.9696L13.3116 15.7517C13.8113 15.252 14.6236 15.252 15.1233 15.7517C15.623 16.2514 15.6256 17.0611 15.1259 17.5634ZM24.4688 30.75H19.3438C18.6365 30.75 18.0625 30.176 18.0625 29.4688C18.0625 28.7615 18.6365 28.1875 19.3438 28.1875H24.4688C25.176 28.1875 25.75 28.7615 25.75 29.4688C25.75 30.176 25.176 30.75 24.4688 30.75ZM24.4688 20.5H19.3438C18.6365 20.5 18.0625 19.926 18.0625 19.2188C18.0625 18.5115 18.6365 17.9375 19.3438 17.9375H24.4688C25.176 17.9375 25.75 18.5115 25.75 19.2188C25.75 19.926 25.176 20.5 24.4688 20.5Z" fill="#FF7D00"/>
</svg>
