<svg width="40" height="36" viewBox="0 0 40 36" fill="none" xmlns="http://www.w3.org/2000/svg">
<path d="M39.6807 4.01128C39.6787 2.15282 38.1729 0.647251 36.3144 0.64502H3.67192C1.81347 0.647251 0.307577 2.15282 0.305664 4.01128V7.35012H39.6807V4.01128ZM4.0264 6.23313C2.79975 6.23313 1.80454 5.23824 1.80454 4.01128C1.80454 2.784 2.79975 1.7891 4.02703 1.7891C5.25368 1.7891 6.24889 2.784 6.24889 4.01128C6.2473 5.23792 5.25336 6.23218 4.0264 6.23313ZM9.17141 6.23313C7.94413 6.23313 6.94956 5.23824 6.94956 4.01096C6.95019 2.78368 7.94509 1.7891 9.17205 1.7891C10.3993 1.78942 11.3939 2.784 11.3939 4.01128C11.3926 5.23824 10.3981 6.23218 9.17141 6.23313ZM14.3161 6.23313C13.0888 6.23313 12.0939 5.23856 12.0939 4.01128C12.0939 2.784 13.0888 1.7891 14.3161 1.7891C15.5434 1.7891 16.538 2.784 16.538 4.01128C16.537 5.23792 15.5428 6.23218 14.3161 6.23313Z" fill="#323232"/>
<path d="M9.172 3.21777C8.73336 3.21777 8.37793 3.57321 8.37793 4.01152C8.37793 4.44983 8.73336 4.80527 9.172 4.80527C9.61063 4.80527 9.96574 4.44983 9.96574 4.01152C9.96543 3.57321 9.61063 3.21841 9.172 3.21777Z" fill="#323232"/>
<path d="M3.67192 35.0527H36.3144C38.1729 35.0508 39.6787 33.5446 39.6807 31.6865V8.77808H0.305664V31.6865C0.307577 33.5446 1.81347 35.0508 3.67192 35.0527ZM23.4436 13.8259H34.6644C35.0588 13.8259 35.3785 14.1459 35.3785 14.5399C35.3785 14.9346 35.0588 15.254 34.6644 15.254H23.4436C23.0489 15.254 22.7295 14.9346 22.7295 14.5399C22.7295 14.1459 23.0489 13.8259 23.4436 13.8259ZM23.4436 18.9884H34.6644C35.0588 18.9884 35.3785 19.3085 35.3785 19.7025C35.3785 20.0971 35.0588 20.4165 34.6644 20.4165H23.4436C23.0489 20.4165 22.7295 20.0971 22.7295 19.7025C22.7295 19.3085 23.0489 18.9884 23.4436 18.9884ZM23.4436 24.151H34.6644C35.0588 24.151 35.3785 24.471 35.3785 24.865C35.3785 25.2597 35.0588 25.5791 34.6644 25.5791H23.4436C23.0489 25.5791 22.7295 25.2597 22.7295 24.865C22.7295 24.471 23.0489 24.151 23.4436 24.151ZM23.4436 29.3135H34.6644C35.0588 29.3135 35.3785 29.6336 35.3785 30.0276C35.3785 30.4222 35.0588 30.7416 34.6644 30.7416H23.4436C23.0489 30.7416 22.7295 30.4222 22.7295 30.0276C22.7295 29.6336 23.0489 29.3135 23.4436 29.3135ZM4.38597 14.5399C4.38597 14.1459 4.70539 13.8259 5.10003 13.8259H18.055C18.4497 13.8259 18.7691 14.1459 18.7691 14.5399V30.0276C18.7691 30.4222 18.4497 30.7416 18.055 30.7416H5.10003C4.70539 30.7416 4.38597 30.4222 4.38597 30.0276V14.5399Z" fill="#323232"/>
<path d="M14.3165 3.21777C13.8782 3.21745 13.5225 3.57289 13.5225 4.01152C13.5225 4.44984 13.8779 4.80527 14.3165 4.80527C14.7548 4.80527 15.1103 4.44984 15.1103 4.01152C15.11 3.57321 14.7548 3.21841 14.3165 3.21777Z" fill="#323232"/>
<path d="M4.02617 3.21777C3.58817 3.21777 3.23242 3.57321 3.23242 4.01152C3.23242 4.44983 3.58817 4.80527 4.02617 4.80527C4.46512 4.80527 4.82055 4.44983 4.82055 4.01152C4.81992 3.57321 4.4648 3.21841 4.02617 3.21777Z" fill="#323232"/>
<path d="M5.81348 15.2539H17.3404V29.3134H5.81348V15.2539Z" fill="#323232"/>
</svg>
