<svg width="40" height="36" viewBox="0 0 40 36" fill="none" xmlns="http://www.w3.org/2000/svg">
<path d="M39.6807 4.01115C39.6787 2.1527 38.1729 0.647129 36.3144 0.644897H3.67192C1.81347 0.647129 0.307577 2.1527 0.305664 4.01115V7.35H39.6807V4.01115ZM4.0264 6.23301C2.79975 6.23301 1.80454 5.23812 1.80454 4.01115C1.80454 2.78387 2.79975 1.78898 4.02703 1.78898C5.25368 1.78898 6.24889 2.78387 6.24889 4.01115C6.2473 5.2378 5.25336 6.23205 4.0264 6.23301ZM9.17141 6.23301C7.94413 6.23301 6.94956 5.23812 6.94956 4.01084C6.95019 2.78355 7.94509 1.78898 9.17205 1.78898C10.3993 1.7893 11.3939 2.78387 11.3939 4.01115C11.3926 5.23812 10.3981 6.23205 9.17141 6.23301ZM14.3161 6.23301C13.0888 6.23301 12.0939 5.23843 12.0939 4.01115C12.0939 2.78387 13.0888 1.78898 14.3161 1.78898C15.5434 1.78898 16.538 2.78387 16.538 4.01115C16.537 5.2378 15.5428 6.23205 14.3161 6.23301Z" fill="#FF7D00"/>
<path d="M9.172 3.21771C8.73336 3.21771 8.37793 3.57315 8.37793 4.01146C8.37793 4.44977 8.73336 4.80521 9.172 4.80521C9.61063 4.80521 9.96574 4.44977 9.96574 4.01146C9.96543 3.57315 9.61063 3.21835 9.172 3.21771Z" fill="#FF7D00"/>
<path d="M3.67192 35.0526H36.3144C38.1729 35.0507 39.6787 33.5445 39.6807 31.6863V8.77795H0.305664V31.6863C0.307577 33.5445 1.81347 35.0507 3.67192 35.0526ZM23.4436 13.8257H34.6644C35.0588 13.8257 35.3785 14.1458 35.3785 14.5398C35.3785 14.9344 35.0588 15.2539 34.6644 15.2539H23.4436C23.0489 15.2539 22.7295 14.9344 22.7295 14.5398C22.7295 14.1458 23.0489 13.8257 23.4436 13.8257ZM23.4436 18.9883H34.6644C35.0588 18.9883 35.3785 19.3083 35.3785 19.7023C35.3785 20.097 35.0588 20.4164 34.6644 20.4164H23.4436C23.0489 20.4164 22.7295 20.097 22.7295 19.7023C22.7295 19.3083 23.0489 18.9883 23.4436 18.9883ZM23.4436 24.1508H34.6644C35.0588 24.1508 35.3785 24.4709 35.3785 24.8649C35.3785 25.2595 35.0588 25.579 34.6644 25.579H23.4436C23.0489 25.579 22.7295 25.2595 22.7295 24.8649C22.7295 24.4709 23.0489 24.1508 23.4436 24.1508ZM23.4436 29.3134H34.6644C35.0588 29.3134 35.3785 29.6334 35.3785 30.0274C35.3785 30.4221 35.0588 30.7415 34.6644 30.7415H23.4436C23.0489 30.7415 22.7295 30.4221 22.7295 30.0274C22.7295 29.6334 23.0489 29.3134 23.4436 29.3134ZM4.38597 14.5398C4.38597 14.1458 4.70539 13.8257 5.10003 13.8257H18.055C18.4497 13.8257 18.7691 14.1458 18.7691 14.5398V30.0274C18.7691 30.4221 18.4497 30.7415 18.055 30.7415H5.10003C4.70539 30.7415 4.38597 30.4221 4.38597 30.0274V14.5398Z" fill="#FF7D00"/>
<path d="M14.3165 3.21771C13.8782 3.21739 13.5225 3.57283 13.5225 4.01146C13.5225 4.44977 13.8779 4.80521 14.3165 4.80521C14.7548 4.80521 15.1103 4.44977 15.1103 4.01146C15.11 3.57315 14.7548 3.21835 14.3165 3.21771Z" fill="#FF7D00"/>
<path d="M4.02617 3.21771C3.58817 3.21771 3.23242 3.57315 3.23242 4.01146C3.23242 4.44977 3.58817 4.80521 4.02617 4.80521C4.46512 4.80521 4.82055 4.44977 4.82055 4.01146C4.81992 3.57315 4.4648 3.21835 4.02617 3.21771Z" fill="#FF7D00"/>
<path d="M5.81348 15.2538H17.3404V29.3134H5.81348V15.2538Z" fill="#FF7D00"/>
</svg>
