<svg width="33" height="33" viewBox="0 0 33 33" fill="none" xmlns="http://www.w3.org/2000/svg">
<path d="M24.653 18.084C24.288 17.7068 23.6965 17.7071 23.3316 18.0844L21.3506 20.1334L20.5336 19.2883L19.2119 20.6554L20.029 21.5005L18.0443 23.5533C17.6793 23.9309 17.6793 24.543 18.0443 24.9206L24.4287 31.5244C26.2553 33.4137 29.2173 33.4146 31.0445 31.5214C32.8652 29.635 32.8634 26.5673 31.0404 24.6829L24.653 18.084ZM28.3363 28.7262C27.9714 29.1038 27.3795 29.1038 27.0145 28.7262L23.338 24.9235C22.973 24.5459 22.973 23.9338 23.338 23.5562C23.703 23.1786 24.2949 23.1786 24.6599 23.5562L28.3363 27.3589C28.7014 27.7365 28.7014 28.3486 28.3363 28.7262Z" fill="#323232"/>
<path d="M24.38 12.5774C28.9711 13.9564 32.4551 11.5586 32.4551 6.43287C32.4551 5.5587 32.3152 4.70063 32.0394 3.88233C31.8127 3.20996 30.9826 3.01357 30.4958 3.51708L27.8157 6.28921H26.8301L26.3982 5.84248C26.4067 5.50862 26.4241 5.23056 26.4325 4.86821L29.1472 2.06018C29.6302 1.56054 29.4475 0.710338 28.8068 0.468381C27.9839 0.157588 27.1189 0 26.2358 0C21.2197 0 18.9173 3.69909 20.3213 8.4547L8.72473 20.4496C4.12207 18.9957 0.550781 21.3833 0.550781 26.5671C0.550781 27.4805 0.703148 28.3753 1.00356 29.2265C1.2374 29.8891 2.05944 30.0783 2.54251 29.5786L5.25264 26.7754H6.23819L6.6311 27.1818V28.2013L3.95101 30.9735C3.46419 31.4769 3.65414 32.3355 4.30415 32.57C5.09531 32.8553 5.92495 33 6.77006 33C11.7154 33 14.0467 29.4073 12.7106 24.6476L24.38 12.5774Z" fill="#323232"/>
<path d="M3.70962 7.45669C3.88474 7.6378 4.12276 7.73964 4.37013 7.73964H6.72493L12.5456 13.7602L13.8673 12.3932L8.0778 6.40482V4.03358C8.0778 3.77771 7.97931 3.53149 7.80426 3.35038L4.89601 0.342354C4.53146 -0.0353418 3.93952 -0.0353418 3.57433 0.342354L0.863689 3.14606C0.498562 3.52376 0.498562 4.13606 0.863689 4.51312L3.70962 7.45669Z" fill="#323232"/>
</svg>
