<svg width="28" height="28" viewBox="0 0 28 28" fill="none" xmlns="http://www.w3.org/2000/svg">
<mask id="path-1-outside-1" maskUnits="userSpaceOnUse" x="-0.125" y="-1" width="28" height="30" fill="black">
<rect fill="white" x="-0.125" y="-1" width="28" height="30"/>
<path d="M26.8897 6.17813L14.1766 0.0407695C14.0639 -0.0135898 13.9326 -0.0135898 13.82 0.0407695L1.10682 6.17813C0.96507 6.24654 0.875 6.3901 0.875 6.54749V21.4525C0.875 21.6099 0.96507 21.7535 1.10682 21.8219L13.8199 27.9592C13.8762 27.9864 13.9373 28 13.9983 28C14.0592 28 14.1202 27.9864 14.1766 27.9592L26.8897 21.8219C27.0314 21.7535 27.1215 21.6099 27.1215 21.4525V6.54754C27.1215 6.39004 27.0314 6.2466 26.8897 6.17813ZM13.9983 0.865621L25.7679 6.54749L22.3561 8.19457C22.3345 8.1781 22.3117 8.1629 22.2867 8.15082L10.597 2.50761L13.9983 0.865621ZM9.67066 2.97136L21.4232 8.64497L19.0162 9.80703L7.26846 4.13571L9.67066 2.97136ZM21.6982 9.42307V13.7185L19.4498 14.804V10.5085L21.6982 9.42307ZM26.3012 21.1951L14.4084 26.9363V12.9423L17.2452 11.5728C17.4492 11.4743 17.5347 11.2291 17.4362 11.0251C17.3377 10.8212 17.0926 10.7355 16.8885 10.8341L13.9983 12.2294L12.861 11.6803C12.6569 11.5817 12.4118 11.6674 12.3133 11.8714C12.2148 12.0754 12.3003 12.3206 12.5043 12.4191L13.5881 12.9423V26.9363L1.69531 21.195V7.20095L10.7516 11.5729C10.809 11.6007 10.8698 11.6138 10.9296 11.6138C11.082 11.6138 11.2285 11.5284 11.2992 11.3819C11.3977 11.1779 11.3122 10.9327 11.1082 10.8342L2.22857 6.54749L6.30306 4.58049L18.6238 10.5285C18.6256 10.531 18.6277 10.5332 18.6295 10.5357V15.4575C18.6295 15.5986 18.7021 15.7298 18.8216 15.8049C18.888 15.8466 18.9638 15.8677 19.0397 15.8677C19.1005 15.8677 19.1615 15.8541 19.218 15.8269L22.2867 14.3454C22.4284 14.277 22.5185 14.1335 22.5185 13.9761V9.02713L26.3012 7.201V21.1951Z"/>
</mask>
<path d="M26.8897 6.17813L14.1766 0.0407695C14.0639 -0.0135898 13.9326 -0.0135898 13.82 0.0407695L1.10682 6.17813C0.96507 6.24654 0.875 6.3901 0.875 6.54749V21.4525C0.875 21.6099 0.96507 21.7535 1.10682 21.8219L13.8199 27.9592C13.8762 27.9864 13.9373 28 13.9983 28C14.0592 28 14.1202 27.9864 14.1766 27.9592L26.8897 21.8219C27.0314 21.7535 27.1215 21.6099 27.1215 21.4525V6.54754C27.1215 6.39004 27.0314 6.2466 26.8897 6.17813ZM13.9983 0.865621L25.7679 6.54749L22.3561 8.19457C22.3345 8.1781 22.3117 8.1629 22.2867 8.15082L10.597 2.50761L13.9983 0.865621ZM9.67066 2.97136L21.4232 8.64497L19.0162 9.80703L7.26846 4.13571L9.67066 2.97136ZM21.6982 9.42307V13.7185L19.4498 14.804V10.5085L21.6982 9.42307ZM26.3012 21.1951L14.4084 26.9363V12.9423L17.2452 11.5728C17.4492 11.4743 17.5347 11.2291 17.4362 11.0251C17.3377 10.8212 17.0926 10.7355 16.8885 10.8341L13.9983 12.2294L12.861 11.6803C12.6569 11.5817 12.4118 11.6674 12.3133 11.8714C12.2148 12.0754 12.3003 12.3206 12.5043 12.4191L13.5881 12.9423V26.9363L1.69531 21.195V7.20095L10.7516 11.5729C10.809 11.6007 10.8698 11.6138 10.9296 11.6138C11.082 11.6138 11.2285 11.5284 11.2992 11.3819C11.3977 11.1779 11.3122 10.9327 11.1082 10.8342L2.22857 6.54749L6.30306 4.58049L18.6238 10.5285C18.6256 10.531 18.6277 10.5332 18.6295 10.5357V15.4575C18.6295 15.5986 18.7021 15.7298 18.8216 15.8049C18.888 15.8466 18.9638 15.8677 19.0397 15.8677C19.1005 15.8677 19.1615 15.8541 19.218 15.8269L22.2867 14.3454C22.4284 14.277 22.5185 14.1335 22.5185 13.9761V9.02713L26.3012 7.201V21.1951Z" fill="#FF8D20"/>
<path d="M26.8897 6.17813L14.1766 0.0407695C14.0639 -0.0135898 13.9326 -0.0135898 13.82 0.0407695L1.10682 6.17813C0.96507 6.24654 0.875 6.3901 0.875 6.54749V21.4525C0.875 21.6099 0.96507 21.7535 1.10682 21.8219L13.8199 27.9592C13.8762 27.9864 13.9373 28 13.9983 28C14.0592 28 14.1202 27.9864 14.1766 27.9592L26.8897 21.8219C27.0314 21.7535 27.1215 21.6099 27.1215 21.4525V6.54754C27.1215 6.39004 27.0314 6.2466 26.8897 6.17813ZM13.9983 0.865621L25.7679 6.54749L22.3561 8.19457C22.3345 8.1781 22.3117 8.1629 22.2867 8.15082L10.597 2.50761L13.9983 0.865621ZM9.67066 2.97136L21.4232 8.64497L19.0162 9.80703L7.26846 4.13571L9.67066 2.97136ZM21.6982 9.42307V13.7185L19.4498 14.804V10.5085L21.6982 9.42307ZM26.3012 21.1951L14.4084 26.9363V12.9423L17.2452 11.5728C17.4492 11.4743 17.5347 11.2291 17.4362 11.0251C17.3377 10.8212 17.0926 10.7355 16.8885 10.8341L13.9983 12.2294L12.861 11.6803C12.6569 11.5817 12.4118 11.6674 12.3133 11.8714C12.2148 12.0754 12.3003 12.3206 12.5043 12.4191L13.5881 12.9423V26.9363L1.69531 21.195V7.20095L10.7516 11.5729C10.809 11.6007 10.8698 11.6138 10.9296 11.6138C11.082 11.6138 11.2285 11.5284 11.2992 11.3819C11.3977 11.1779 11.3122 10.9327 11.1082 10.8342L2.22857 6.54749L6.30306 4.58049L18.6238 10.5285C18.6256 10.531 18.6277 10.5332 18.6295 10.5357V15.4575C18.6295 15.5986 18.7021 15.7298 18.8216 15.8049C18.888 15.8466 18.9638 15.8677 19.0397 15.8677C19.1005 15.8677 19.1615 15.8541 19.218 15.8269L22.2867 14.3454C22.4284 14.277 22.5185 14.1335 22.5185 13.9761V9.02713L26.3012 7.201V21.1951Z" stroke="#FF8D20" stroke-width="0.6" mask="url(#path-1-outside-1)"/>
<mask id="path-2-outside-2" maskUnits="userSpaceOnUse" x="1.62891" y="17.6628" width="4" height="4" fill="black">
<rect fill="white" x="1.62891" y="17.6628" width="4" height="4"/>
<path d="M5.08316 19.6044L3.21749 18.7038C3.0134 18.6052 2.76829 18.6908 2.6698 18.8948C2.57131 19.0988 2.65684 19.344 2.86082 19.4425L4.72649 20.3432C4.78396 20.3709 4.84472 20.3841 4.90449 20.3841C5.05696 20.3841 5.20342 20.2986 5.27413 20.1521C5.37267 19.9481 5.28714 19.703 5.08316 19.6044Z"/>
</mask>
<path d="M5.08316 19.6044L3.21749 18.7038C3.0134 18.6052 2.76829 18.6908 2.6698 18.8948C2.57131 19.0988 2.65684 19.344 2.86082 19.4425L4.72649 20.3432C4.78396 20.3709 4.84472 20.3841 4.90449 20.3841C5.05696 20.3841 5.20342 20.2986 5.27413 20.1521C5.37267 19.9481 5.28714 19.703 5.08316 19.6044Z" fill="#FF8D20"/>
<path d="M5.08316 19.6044L3.21749 18.7038C3.0134 18.6052 2.76829 18.6908 2.6698 18.8948C2.57131 19.0988 2.65684 19.344 2.86082 19.4425L4.72649 20.3432C4.78396 20.3709 4.84472 20.3841 4.90449 20.3841C5.05696 20.3841 5.20342 20.2986 5.27413 20.1521C5.37267 19.9481 5.28714 19.703 5.08316 19.6044Z" stroke="#FF8D20" stroke-width="0.6" mask="url(#path-2-outside-2)"/>
<mask id="path-3-outside-3" maskUnits="userSpaceOnUse" x="1.62891" y="15.7173" width="6" height="4" fill="black">
<rect fill="white" x="1.62891" y="15.7173" width="6" height="4"/>
<path d="M6.79758 18.4865L3.21746 16.7582C3.01342 16.6597 2.76826 16.7452 2.66976 16.9493C2.57133 17.1532 2.65686 17.3985 2.86084 17.497L6.44096 19.2253C6.49844 19.253 6.55919 19.2662 6.61897 19.2662C6.77144 19.2662 6.91789 19.1808 6.9886 19.0343C7.08709 18.8302 7.00156 18.585 6.79758 18.4865Z"/>
</mask>
<path d="M6.79758 18.4865L3.21746 16.7582C3.01342 16.6597 2.76826 16.7452 2.66976 16.9493C2.57133 17.1532 2.65686 17.3985 2.86084 17.497L6.44096 19.2253C6.49844 19.253 6.55919 19.2662 6.61897 19.2662C6.77144 19.2662 6.91789 19.1808 6.9886 19.0343C7.08709 18.8302 7.00156 18.585 6.79758 18.4865Z" fill="#FF8D20"/>
<path d="M6.79758 18.4865L3.21746 16.7582C3.01342 16.6597 2.76826 16.7452 2.66976 16.9493C2.57133 17.1532 2.65686 17.3985 2.86084 17.497L6.44096 19.2253C6.49844 19.253 6.55919 19.2662 6.61897 19.2662C6.77144 19.2662 6.91789 19.1808 6.9886 19.0343C7.08709 18.8302 7.00156 18.585 6.79758 18.4865Z" stroke="#FF8D20" stroke-width="0.6" mask="url(#path-3-outside-3)"/>
</svg>
