<svg width="28" height="28" viewBox="0 0 28 28" fill="none" xmlns="http://www.w3.org/2000/svg">
<path d="M14.2456 27.9653C14.2465 27.965 14.2474 27.9648 14.2482 27.9645C14.2429 27.9402 14.2426 27.9144 14.2454 27.8967C14.2404 27.9101 14.236 27.9261 14.2349 27.9398C14.237 27.9481 14.2408 27.9567 14.2456 27.9653ZM14.4043 27.8631C14.4097 27.8716 14.414 27.8815 14.4171 27.8921C14.4051 27.8742 14.3893 27.8576 14.3755 27.8471C14.3858 27.8516 14.3961 27.857 14.4043 27.8631ZM14.3338 27.8345C14.3343 27.8345 14.335 27.8346 14.3357 27.8347C14.3346 27.8346 14.3335 27.8346 14.3325 27.8346C14.3329 27.8345 14.3334 27.8345 14.3338 27.8345ZM14.3054 27.8384L14.3031 27.8393L14.303 27.8391L14.2967 27.8417C14.1047 27.9203 13.8948 27.9186 13.7079 27.8418L1.33503 22.7589C1.04393 22.6393 0.853906 22.3558 0.853906 22.0411V5.9589C0.853906 5.64423 1.04398 5.36065 1.33502 5.2411L1.33503 5.2411L13.7079 0.158203C13.8969 0.0806003 14.1087 0.0805989 14.2977 0.158199C14.2977 0.158201 14.2977 0.158202 14.2977 0.158203L26.6705 5.24109C26.9616 5.3607 27.1517 5.64424 27.1517 5.9589V22.0411C27.1517 22.3558 26.9616 22.6394 26.6706 22.7589L26.7085 22.8514L26.6705 22.7589L15.6756 27.2758L14.43 27.7874L14.3054 27.8384ZM14.2643 27.8635C14.262 27.8659 14.2594 27.8689 14.2568 27.872C14.2574 27.8711 14.2579 27.8703 14.2584 27.8696C14.2601 27.8678 14.2622 27.8656 14.2643 27.8635ZM13.9648 10.2609L14.0028 10.2765L14.0408 10.2609L24.198 6.08824L24.4232 5.99575L24.198 5.90325L19.3342 3.90514L19.295 3.88905L19.2562 3.90598L9.40387 8.20392L9.18742 8.29835L9.40585 8.38808L13.9648 10.2609ZM2.54391 7.24698L2.40591 7.19029V7.33948V21.4539V21.5209L2.46791 21.5464L13.0888 25.9096L13.2268 25.9662V25.8171V11.7026V11.6356L13.1648 11.6101L8.22922 9.58257L8.09122 9.52588V9.67507V13.514C8.09122 13.9426 7.74376 14.29 7.31522 14.29C6.88668 14.29 6.53922 13.9426 6.53922 13.514V8.95532V8.88829L6.47722 8.86282L2.54391 7.24698ZM14.0408 1.73052L14.0028 1.71491L13.9648 1.73052L3.80754 5.90319L3.58238 5.99569L3.80754 6.08819L7.14921 7.461L7.18838 7.47709L7.2272 7.46015L17.0795 3.16221L17.296 3.06779L17.0776 2.97805L14.0408 1.73052ZM14.8408 11.6101L14.7788 11.6356V11.7026V25.8171V25.9662L14.9168 25.9096L25.5377 21.5464L25.5997 21.5209V21.4539V7.33948V7.19029L25.4617 7.24698L14.8408 11.6101Z" fill="#FF8D20" stroke="white" stroke-width="0.2"/>
</svg>
