<svg width="26" height="26" viewBox="0 0 26 26" fill="none" xmlns="http://www.w3.org/2000/svg">
<mask id="path-1-inside-1" fill="white">
<path d="M25.259 3.55441C24.8765 3.17127 24.2559 3.17061 23.8734 3.55279L12.1179 15.2773L7.87656 10.6707C7.51007 10.2729 6.89044 10.2471 6.49196 10.6136C6.09378 10.9801 6.06829 11.6 6.43478 11.9982L11.367 17.3546C11.5476 17.5509 11.8004 17.6649 12.0669 17.6705C12.0741 17.6708 12.081 17.6708 12.0878 17.6708C12.3469 17.6708 12.5961 17.5679 12.7796 17.385L25.2571 4.94028C25.6405 4.55815 25.6412 3.93756 25.259 3.55441Z"/>
</mask>
<path d="M25.259 3.55441C24.8765 3.17127 24.2559 3.17061 23.8734 3.55279L12.1179 15.2773L7.87656 10.6707C7.51007 10.2729 6.89044 10.2471 6.49196 10.6136C6.09378 10.9801 6.06829 11.6 6.43478 11.9982L11.367 17.3546C11.5476 17.5509 11.8004 17.6649 12.0669 17.6705C12.0741 17.6708 12.081 17.6708 12.0878 17.6708C12.3469 17.6708 12.5961 17.5679 12.7796 17.385L25.2571 4.94028C25.6405 4.55815 25.6412 3.93756 25.259 3.55441Z" fill="#FF8D20" stroke="white" stroke-width="0.4" mask="url(#path-1-inside-1)"/>
<mask id="path-2-inside-2" fill="white">
<path d="M25.0201 12.0201C24.4788 12.0201 24.0402 12.4587 24.0402 13C24.0402 19.0878 19.0878 24.0402 13 24.0402C6.91255 24.0402 1.9598 19.0878 1.9598 13C1.9598 6.91255 6.91255 1.9598 13 1.9598C13.5412 1.9598 13.9799 1.52115 13.9799 0.979926C13.9799 0.438648 13.5412 0 13 0C5.83172 0 0 5.83172 0 13C0 20.168 5.83172 26 13 26C20.168 26 26 20.168 26 13C26 12.4588 25.5614 12.0201 25.0201 12.0201Z"/>
</mask>
<path d="M25.0201 12.0201C24.4788 12.0201 24.0402 12.4587 24.0402 13C24.0402 19.0878 19.0878 24.0402 13 24.0402C6.91255 24.0402 1.9598 19.0878 1.9598 13C1.9598 6.91255 6.91255 1.9598 13 1.9598C13.5412 1.9598 13.9799 1.52115 13.9799 0.979926C13.9799 0.438648 13.5412 0 13 0C5.83172 0 0 5.83172 0 13C0 20.168 5.83172 26 13 26C20.168 26 26 20.168 26 13C26 12.4588 25.5614 12.0201 25.0201 12.0201Z" fill="#FF8D20" stroke="white" stroke-width="0.4" mask="url(#path-2-inside-2)"/>
</svg>
