<svg width="23" height="27" viewBox="0 0 23 27" fill="none" xmlns="http://www.w3.org/2000/svg">
<path d="M19.4074 3.5375H16.9648V2.44474C16.9648 2.09119 16.5791 1.93051 16.2255 1.93051H14.3293C13.8793 0.64489 12.7544 0.00208104 11.4688 0.00208104C10.1973 -0.045719 9.04084 0.733908 8.6083 1.93051H6.74416C6.39061 1.93051 6.03706 2.09119 6.03706 2.44474V3.5375H3.59434C2.14681 3.55294 0.962571 4.69485 0.894531 6.14085V24.5573C0.894531 25.9715 2.18015 26.9999 3.59434 26.9999H19.4074C20.8216 26.9999 22.1072 25.9715 22.1072 24.5573V6.14091C22.0392 4.69485 20.8549 3.55294 19.4074 3.5375ZM7.32262 3.21613H9.09036C9.39894 3.17848 9.6468 2.94372 9.70106 2.6376C9.89139 1.8087 10.6186 1.21369 11.4688 1.1913C12.3111 1.21683 13.0274 1.81368 13.2044 2.6376C13.262 2.9543 13.5262 3.19207 13.8472 3.21613H15.6792V5.78736H7.32262V3.21613ZM20.8216 24.5573C20.8216 25.2644 20.1145 25.7144 19.4074 25.7144H3.59434C2.88724 25.7144 2.18015 25.2644 2.18015 24.5573V6.14091C2.24573 5.4049 2.8555 4.83665 3.59434 4.82318H6.037V6.46234C6.07096 6.82247 6.38286 7.09186 6.7441 7.07304H16.2255C16.5934 7.09316 16.915 6.82746 16.9647 6.46234V4.82312H19.4074C20.1461 4.83665 20.756 5.40484 20.8215 6.14085V24.5573H20.8216Z" fill="#FF8D20"/>
<path d="M9.0247 14.3689C8.78361 14.1147 8.38337 14.1004 8.12474 14.3367L6.06774 16.2973L5.19996 15.3973C4.95887 15.1432 4.55863 15.1289 4.30001 15.3652C4.05104 15.6261 4.05104 16.0364 4.30001 16.2973L5.61774 17.6472C5.73179 17.7749 5.89654 17.8455 6.06768 17.84C6.23723 17.8376 6.39896 17.7683 6.51763 17.6472L9.02458 15.2688C9.27311 15.0408 9.28972 14.6545 9.06167 14.406C9.04998 14.393 9.03762 14.3807 9.0247 14.3689Z" fill="#FF8D20"/>
<path d="M18.2499 15.751H10.8577C10.5026 15.751 10.2148 16.0388 10.2148 16.3938C10.2148 16.7488 10.5026 17.0366 10.8577 17.0366H18.2499C18.6049 17.0366 18.8927 16.7488 18.8927 16.3938C18.8927 16.0388 18.6049 15.751 18.2499 15.751Z" fill="#FF8D20"/>
<path d="M9.0247 9.22628C8.78361 8.97215 8.38337 8.95781 8.12474 9.19417L6.06774 11.1547L5.19996 10.2547C4.95887 10.0006 4.55863 9.98628 4.30001 10.2226C4.05104 10.4835 4.05104 10.8939 4.30001 11.1547L5.61774 12.5046C5.73179 12.6323 5.89654 12.7029 6.06768 12.6975C6.23723 12.6951 6.39896 12.6257 6.51763 12.5046L9.02458 10.1262C9.27311 9.89825 9.28972 9.51191 9.06167 9.26344C9.04998 9.25046 9.03762 9.23809 9.0247 9.22628Z" fill="#FF8D20"/>
<path d="M18.2499 10.6084H10.8577C10.5026 10.6084 10.2148 10.8962 10.2148 11.2512C10.2148 11.6062 10.5026 11.894 10.8577 11.894H18.2499C18.6049 11.894 18.8927 11.6062 18.8927 11.2512C18.8927 10.8962 18.6049 10.6084 18.2499 10.6084Z" fill="#FF8D20"/>
<path d="M9.0247 19.5114C8.78361 19.2573 8.38337 19.243 8.12474 19.4793L6.06774 21.4398L5.19996 20.5399C4.95887 20.2857 4.55863 20.2715 4.30001 20.5078C4.05104 20.7686 4.05104 21.179 4.30001 21.4398L5.61774 22.7897C5.73179 22.9175 5.89654 22.9881 6.06768 22.9826C6.23723 22.9802 6.39896 22.9109 6.51763 22.7897L9.02458 20.4114C9.27311 20.1834 9.28972 19.797 9.06167 19.5486C9.04998 19.5357 9.03762 19.5233 9.0247 19.5114Z" fill="#FF8D20"/>
<path d="M18.2499 20.8933H10.8577C10.5026 20.8933 10.2148 21.1811 10.2148 21.5361C10.2148 21.8911 10.5026 22.1789 10.8577 22.1789H18.2499C18.6049 22.1789 18.8927 21.8911 18.8927 21.5361C18.8927 21.1811 18.6049 20.8933 18.2499 20.8933Z" fill="#FF8D20"/>
</svg>
