<svg width="26" height="26" viewBox="0 0 26 26" fill="none" xmlns="http://www.w3.org/2000/svg">
<path d="M12.9333 0.9C6.29806 0.9 0.9 6.29806 0.9 12.9333C0.9 19.5686 6.29806 24.9667 12.9333 24.9667C19.5686 24.9667 24.9667 19.5686 24.9667 12.9333C24.9667 6.29806 19.5686 0.9 12.9333 0.9ZM12.9333 23.9711C6.84727 23.9711 1.89556 19.0194 1.89556 12.9333C1.89556 6.84727 6.84727 1.89556 12.9333 1.89556C19.0194 1.89556 23.9711 6.84727 23.9711 12.9333C23.9711 19.0194 19.0194 23.9711 12.9333 23.9711Z" fill="#FF8D20" stroke="#FF8D20" stroke-width="0.2"/>
<path d="M12.9341 3.28684C12.6594 3.28684 12.4363 3.50935 12.4363 3.78462V12.8335H6.56965C6.29492 12.8335 6.07187 13.056 6.07187 13.3313C6.07187 13.6066 6.29492 13.8291 6.56965 13.8291H12.9341C13.2088 13.8291 13.4319 13.6066 13.4319 13.3313V3.78462C13.4319 3.50935 13.2088 3.28684 12.9341 3.28684Z" fill="#FF8D20" stroke="#FF8D20" stroke-width="0.2"/>
</svg>
