<svg width="27" height="18" viewBox="0 0 27 18" fill="none" xmlns="http://www.w3.org/2000/svg">
<mask id="path-1-inside-1" fill="white">
<path d="M26.201 15.1404H23.0284V13.5512H24.6118V8.91697L23.2488 4.82217H17.4662V13.5512H18.2608V15.1404H15.8828V3.23297H24.3914L26.201 8.66178V15.1404Z"/>
</mask>
<path d="M26.201 15.1404H23.0284V13.5512H24.6118V8.91697L23.2488 4.82217H17.4662V13.5512H18.2608V15.1404H15.8828V3.23297H24.3914L26.201 8.66178V15.1404Z" fill="#FF8D20" stroke="white" stroke-width="0.4" mask="url(#path-1-inside-1)"/>
<mask id="path-2-inside-2" fill="white">
<path d="M20.6472 17.5229C18.8956 17.5229 17.4688 16.0961 17.4688 14.3445C17.4688 12.5929 18.8956 11.1661 20.6472 11.1661C22.3988 11.1661 23.8256 12.5929 23.8256 14.3445C23.8198 16.0961 22.3988 17.5229 20.6472 17.5229ZM20.6472 12.7553C19.7714 12.7553 19.058 13.4687 19.058 14.3445C19.058 15.2203 19.7714 15.9337 20.6472 15.9337C21.523 15.9337 22.2364 15.2203 22.2364 14.3445C22.2364 13.4687 21.523 12.7553 20.6472 12.7553Z"/>
</mask>
<path d="M20.6472 17.5229C18.8956 17.5229 17.4688 16.0961 17.4688 14.3445C17.4688 12.5929 18.8956 11.1661 20.6472 11.1661C22.3988 11.1661 23.8256 12.5929 23.8256 14.3445C23.8198 16.0961 22.3988 17.5229 20.6472 17.5229ZM20.6472 12.7553C19.7714 12.7553 19.058 13.4687 19.058 14.3445C19.058 15.2203 19.7714 15.9337 20.6472 15.9337C21.523 15.9337 22.2364 15.2203 22.2364 14.3445C22.2364 13.4687 21.523 12.7553 20.6472 12.7553Z" fill="#FF8D20" stroke="white" stroke-width="0.4" mask="url(#path-2-inside-2)"/>
<mask id="path-3-inside-3" fill="white">
<path d="M5.56322 15.1405H2.39062V9.58411H3.97402V13.5513H5.56322V15.1405Z"/>
</mask>
<path d="M5.56322 15.1405H2.39062V9.58411H3.97402V13.5513H5.56322V15.1405Z" fill="#FF8D20" stroke="white" stroke-width="0.4" mask="url(#path-3-inside-3)"/>
<mask id="path-4-inside-4" fill="white">
<path d="M17.47 15.1396H10.3244V13.5504H15.8866V1.64297H0.800781V0.053772H17.47V15.1396Z"/>
</mask>
<path d="M17.47 15.1396H10.3244V13.5504H15.8866V1.64297H0.800781V0.053772H17.47V15.1396Z" fill="#FF8D20" stroke="white" stroke-width="0.4" mask="url(#path-4-inside-4)"/>
<mask id="path-5-inside-5" fill="white">
<path d="M7.94793 17.5229C6.19633 17.5229 4.76953 16.0961 4.76953 14.3445C4.76953 12.5929 6.19633 11.1661 7.94793 11.1661C9.69953 11.1661 11.1263 12.5929 11.1263 14.3445C11.1205 16.0961 9.69953 17.5229 7.94793 17.5229ZM7.94793 12.7553C7.07213 12.7553 6.35873 13.4687 6.35873 14.3445C6.35873 15.2203 7.07213 15.9337 7.94793 15.9337C8.82373 15.9337 9.53713 15.2203 9.53713 14.3445C9.53713 13.4687 8.82373 12.7553 7.94793 12.7553Z"/>
</mask>
<path d="M7.94793 17.5229C6.19633 17.5229 4.76953 16.0961 4.76953 14.3445C4.76953 12.5929 6.19633 11.1661 7.94793 11.1661C9.69953 11.1661 11.1263 12.5929 11.1263 14.3445C11.1205 16.0961 9.69953 17.5229 7.94793 17.5229ZM7.94793 12.7553C7.07213 12.7553 6.35873 13.4687 6.35873 14.3445C6.35873 15.2203 7.07213 15.9337 7.94793 15.9337C8.82373 15.9337 9.53713 15.2203 9.53713 14.3445C9.53713 13.4687 8.82373 12.7553 7.94793 12.7553Z" fill="#FF8D20" stroke="white" stroke-width="0.4" mask="url(#path-5-inside-5)"/>
<mask id="path-6-inside-6" fill="white">
<path d="M8.74326 3.23297H1.59766V4.82217H8.74326V3.23297Z"/>
</mask>
<path d="M8.74326 3.23297H1.59766V4.82217H8.74326V3.23297Z" fill="#FF8D20" stroke="white" stroke-width="0.4" mask="url(#path-6-inside-6)"/>
<mask id="path-7-inside-7" fill="white">
<path d="M7.15242 6.40479H2.39062V7.99398H7.15242V6.40479Z"/>
</mask>
<path d="M7.15242 6.40479H2.39062V7.99398H7.15242V6.40479Z" fill="#FF8D20" stroke="white" stroke-width="0.4" mask="url(#path-7-inside-7)"/>
</svg>
