<svg width="29" height="32" viewBox="0 0 29 32" fill="none" xmlns="http://www.w3.org/2000/svg">
<mask id="path-1-outside-1" maskUnits="userSpaceOnUse" x="0" y="0" width="29" height="32" fill="black">
<rect fill="white" width="29" height="32"/>
<path d="M4 14.04V12.7845C3.69104 12.5733 3.4384 12.2898 3.26411 11.9587C3.08981 11.6275 2.99914 11.2587 3 10.8845V7C2.86739 7 2.74022 6.94732 2.64645 6.85355C2.55268 6.75979 2.5 6.63261 2.5 6.5V5.5C2.5 4.30653 2.97411 3.16193 3.81802 2.31802C4.66193 1.47411 5.80653 1 7 1C8.19347 1 9.33807 1.47411 10.182 2.31802C11.0259 3.16193 11.5 4.30653 11.5 5.5V6H14C14.1326 6 14.2598 6.05268 14.3536 6.14645C14.4473 6.24021 14.5 6.36739 14.5 6.5C14.5 6.63261 14.4473 6.75979 14.3536 6.85355C14.2598 6.94732 14.1326 7 14 7H11V9.5C10.999 10.3414 10.6953 11.1543 10.1445 11.7904C9.59377 12.4264 8.83259 12.8432 8 12.9645V14H8.5C9.42793 14.0011 10.3176 14.3701 10.9737 15.0263C11.6299 15.6824 11.9989 16.5721 12 17.5V21H13V10.5C13 10.3674 13.0527 10.2402 13.1464 10.1464C13.2402 10.0527 13.3674 10 13.5 10H27.5C27.6326 10 27.7598 10.0527 27.8536 10.1464C27.9473 10.2402 28 10.3674 28 10.5V22.5C28 22.6326 27.9473 22.7598 27.8536 22.8536C27.7598 22.9473 27.6326 23 27.5 23H22.95C22.834 23.5643 22.5269 24.0713 22.0806 24.4356C21.6343 24.8 21.0761 24.9993 20.5 25H19V26.5C19 26.6326 18.9473 26.7598 18.8536 26.8536C18.7598 26.9473 18.6326 27 18.5 27H15.5C15.3674 27 15.2402 26.9473 15.1464 26.8536C15.0527 26.7598 15 26.6326 15 26.5V26H12V30.5C12 30.6326 11.9473 30.7598 11.8536 30.8536C11.7598 30.9473 11.6326 31 11.5 31H1.5C1.36739 31 1.24022 30.9473 1.14645 30.8536C1.05268 30.7598 1 30.6326 1 30.5V17.5C1.00161 16.6592 1.30555 15.8471 1.85632 15.2119C2.40709 14.5767 3.16796 14.1607 4 14.04ZM10.5 5.5C10.5 4.57174 10.1313 3.6815 9.47487 3.02513C8.8185 2.36875 7.92826 2 7 2C6.07174 2 5.1815 2.36875 4.52513 3.02513C3.86875 3.6815 3.5 4.57174 3.5 5.5V6H10.5V5.5ZM6.5 12H7.5C8.1628 11.9992 8.79822 11.7356 9.26689 11.2669C9.73556 10.7982 9.99921 10.1628 10 9.5V7H4V10.882C3.99901 11.1253 4.06628 11.3639 4.19418 11.5708C4.32208 11.7777 4.50547 11.9446 4.7235 12.0525C4.80662 12.094 4.87652 12.1579 4.92536 12.2369C4.9742 12.316 5.00004 12.4071 5 12.5V14H7V13H6.5C6.36739 13 6.24022 12.9473 6.14645 12.8536C6.05268 12.7598 6 12.6326 6 12.5C6 12.3674 6.05268 12.2402 6.14645 12.1464C6.24022 12.0527 6.36739 12 6.5 12ZM19.5 11V14.5655L20.2225 14.084C20.3047 14.0292 20.4012 13.9999 20.5 13.9999C20.5988 13.9999 20.6953 14.0292 20.7775 14.084L21.5 14.5655V11H19.5ZM27 11H22.5V15.5C22.5 15.5905 22.4755 15.6793 22.4289 15.757C22.3824 15.8347 22.3157 15.8982 22.2359 15.9409C22.1561 15.9836 22.0662 16.0039 21.9757 15.9995C21.8853 15.9951 21.7978 15.9662 21.7225 15.916L20.5 15.1L19.2775 15.915C19.2023 15.9652 19.1148 15.994 19.0245 15.9985C18.9342 16.0029 18.8443 15.9828 18.7646 15.9402C18.6848 15.8976 18.618 15.8342 18.5714 15.7566C18.5249 15.6791 18.5002 15.5904 18.5 15.5V11H14V21H15V20.5C15 20.3674 15.0527 20.2402 15.1464 20.1464C15.2402 20.0527 15.3674 20 15.5 20H18.5C18.6326 20 18.7598 20.0527 18.8536 20.1464C18.9473 20.2402 19 20.3674 19 20.5V22H27V11ZM20.5 24C20.8101 23.9996 21.1126 23.9033 21.3658 23.7243C21.619 23.5452 21.8107 23.2923 21.9145 23H19V24H20.5ZM16 26H18V21H16V26ZM15 22H9.5C9.10217 22 8.72065 21.842 8.43934 21.5607C8.15804 21.2794 8 20.8978 8 20.5V18.5C8 18.1022 7.84196 17.7206 7.56066 17.4393C7.27935 17.158 6.89783 17 6.5 17C6.10217 17 5.72065 17.158 5.43934 17.4393C5.15804 17.7206 5 18.1022 5 18.5V21.5C5.00106 22.4279 5.37015 23.3176 6.02629 23.9737C6.68244 24.6299 7.57207 24.9989 8.5 25H15V22ZM8.5 26C7.30693 25.9987 6.16311 25.5241 5.31948 24.6805C4.47585 23.8369 4.00132 22.6931 4 21.5V18.5C4 17.837 4.26339 17.2011 4.73223 16.7322C5.20107 16.2634 5.83696 16 6.5 16C7.16304 16 7.79893 16.2634 8.26777 16.7322C8.73661 17.2011 9 17.837 9 18.5V20.5C9 20.6326 9.05268 20.7598 9.14645 20.8536C9.24022 20.9473 9.36739 21 9.5 21H11V17.5C10.9992 16.8372 10.7356 16.2018 10.2669 15.7331C9.79822 15.2644 9.1628 15.0008 8.5 15H4.5C3.8372 15.0008 3.20178 15.2644 2.73311 15.7331C2.26444 16.2018 2.00079 16.8372 2 17.5V28H11V26H8.5ZM2 30H11V29H2V30Z"/>
</mask>
<path d="M4 14.04V12.7845C3.69104 12.5733 3.4384 12.2898 3.26411 11.9587C3.08981 11.6275 2.99914 11.2587 3 10.8845V7C2.86739 7 2.74022 6.94732 2.64645 6.85355C2.55268 6.75979 2.5 6.63261 2.5 6.5V5.5C2.5 4.30653 2.97411 3.16193 3.81802 2.31802C4.66193 1.47411 5.80653 1 7 1C8.19347 1 9.33807 1.47411 10.182 2.31802C11.0259 3.16193 11.5 4.30653 11.5 5.5V6H14C14.1326 6 14.2598 6.05268 14.3536 6.14645C14.4473 6.24021 14.5 6.36739 14.5 6.5C14.5 6.63261 14.4473 6.75979 14.3536 6.85355C14.2598 6.94732 14.1326 7 14 7H11V9.5C10.999 10.3414 10.6953 11.1543 10.1445 11.7904C9.59377 12.4264 8.83259 12.8432 8 12.9645V14H8.5C9.42793 14.0011 10.3176 14.3701 10.9737 15.0263C11.6299 15.6824 11.9989 16.5721 12 17.5V21H13V10.5C13 10.3674 13.0527 10.2402 13.1464 10.1464C13.2402 10.0527 13.3674 10 13.5 10H27.5C27.6326 10 27.7598 10.0527 27.8536 10.1464C27.9473 10.2402 28 10.3674 28 10.5V22.5C28 22.6326 27.9473 22.7598 27.8536 22.8536C27.7598 22.9473 27.6326 23 27.5 23H22.95C22.834 23.5643 22.5269 24.0713 22.0806 24.4356C21.6343 24.8 21.0761 24.9993 20.5 25H19V26.5C19 26.6326 18.9473 26.7598 18.8536 26.8536C18.7598 26.9473 18.6326 27 18.5 27H15.5C15.3674 27 15.2402 26.9473 15.1464 26.8536C15.0527 26.7598 15 26.6326 15 26.5V26H12V30.5C12 30.6326 11.9473 30.7598 11.8536 30.8536C11.7598 30.9473 11.6326 31 11.5 31H1.5C1.36739 31 1.24022 30.9473 1.14645 30.8536C1.05268 30.7598 1 30.6326 1 30.5V17.5C1.00161 16.6592 1.30555 15.8471 1.85632 15.2119C2.40709 14.5767 3.16796 14.1607 4 14.04ZM10.5 5.5C10.5 4.57174 10.1313 3.6815 9.47487 3.02513C8.8185 2.36875 7.92826 2 7 2C6.07174 2 5.1815 2.36875 4.52513 3.02513C3.86875 3.6815 3.5 4.57174 3.5 5.5V6H10.5V5.5ZM6.5 12H7.5C8.1628 11.9992 8.79822 11.7356 9.26689 11.2669C9.73556 10.7982 9.99921 10.1628 10 9.5V7H4V10.882C3.99901 11.1253 4.06628 11.3639 4.19418 11.5708C4.32208 11.7777 4.50547 11.9446 4.7235 12.0525C4.80662 12.094 4.87652 12.1579 4.92536 12.2369C4.9742 12.316 5.00004 12.4071 5 12.5V14H7V13H6.5C6.36739 13 6.24022 12.9473 6.14645 12.8536C6.05268 12.7598 6 12.6326 6 12.5C6 12.3674 6.05268 12.2402 6.14645 12.1464C6.24022 12.0527 6.36739 12 6.5 12ZM19.5 11V14.5655L20.2225 14.084C20.3047 14.0292 20.4012 13.9999 20.5 13.9999C20.5988 13.9999 20.6953 14.0292 20.7775 14.084L21.5 14.5655V11H19.5ZM27 11H22.5V15.5C22.5 15.5905 22.4755 15.6793 22.4289 15.757C22.3824 15.8347 22.3157 15.8982 22.2359 15.9409C22.1561 15.9836 22.0662 16.0039 21.9757 15.9995C21.8853 15.9951 21.7978 15.9662 21.7225 15.916L20.5 15.1L19.2775 15.915C19.2023 15.9652 19.1148 15.994 19.0245 15.9985C18.9342 16.0029 18.8443 15.9828 18.7646 15.9402C18.6848 15.8976 18.618 15.8342 18.5714 15.7566C18.5249 15.6791 18.5002 15.5904 18.5 15.5V11H14V21H15V20.5C15 20.3674 15.0527 20.2402 15.1464 20.1464C15.2402 20.0527 15.3674 20 15.5 20H18.5C18.6326 20 18.7598 20.0527 18.8536 20.1464C18.9473 20.2402 19 20.3674 19 20.5V22H27V11ZM20.5 24C20.8101 23.9996 21.1126 23.9033 21.3658 23.7243C21.619 23.5452 21.8107 23.2923 21.9145 23H19V24H20.5ZM16 26H18V21H16V26ZM15 22H9.5C9.10217 22 8.72065 21.842 8.43934 21.5607C8.15804 21.2794 8 20.8978 8 20.5V18.5C8 18.1022 7.84196 17.7206 7.56066 17.4393C7.27935 17.158 6.89783 17 6.5 17C6.10217 17 5.72065 17.158 5.43934 17.4393C5.15804 17.7206 5 18.1022 5 18.5V21.5C5.00106 22.4279 5.37015 23.3176 6.02629 23.9737C6.68244 24.6299 7.57207 24.9989 8.5 25H15V22ZM8.5 26C7.30693 25.9987 6.16311 25.5241 5.31948 24.6805C4.47585 23.8369 4.00132 22.6931 4 21.5V18.5C4 17.837 4.26339 17.2011 4.73223 16.7322C5.20107 16.2634 5.83696 16 6.5 16C7.16304 16 7.79893 16.2634 8.26777 16.7322C8.73661 17.2011 9 17.837 9 18.5V20.5C9 20.6326 9.05268 20.7598 9.14645 20.8536C9.24022 20.9473 9.36739 21 9.5 21H11V17.5C10.9992 16.8372 10.7356 16.2018 10.2669 15.7331C9.79822 15.2644 9.1628 15.0008 8.5 15H4.5C3.8372 15.0008 3.20178 15.2644 2.73311 15.7331C2.26444 16.2018 2.00079 16.8372 2 17.5V28H11V26H8.5ZM2 30H11V29H2V30Z" fill="#FF8D20"/>
<path d="M4 14.04V12.7845C3.69104 12.5733 3.4384 12.2898 3.26411 11.9587C3.08981 11.6275 2.99914 11.2587 3 10.8845V7C2.86739 7 2.74022 6.94732 2.64645 6.85355C2.55268 6.75979 2.5 6.63261 2.5 6.5V5.5C2.5 4.30653 2.97411 3.16193 3.81802 2.31802C4.66193 1.47411 5.80653 1 7 1C8.19347 1 9.33807 1.47411 10.182 2.31802C11.0259 3.16193 11.5 4.30653 11.5 5.5V6H14C14.1326 6 14.2598 6.05268 14.3536 6.14645C14.4473 6.24021 14.5 6.36739 14.5 6.5C14.5 6.63261 14.4473 6.75979 14.3536 6.85355C14.2598 6.94732 14.1326 7 14 7H11V9.5C10.999 10.3414 10.6953 11.1543 10.1445 11.7904C9.59377 12.4264 8.83259 12.8432 8 12.9645V14H8.5C9.42793 14.0011 10.3176 14.3701 10.9737 15.0263C11.6299 15.6824 11.9989 16.5721 12 17.5V21H13V10.5C13 10.3674 13.0527 10.2402 13.1464 10.1464C13.2402 10.0527 13.3674 10 13.5 10H27.5C27.6326 10 27.7598 10.0527 27.8536 10.1464C27.9473 10.2402 28 10.3674 28 10.5V22.5C28 22.6326 27.9473 22.7598 27.8536 22.8536C27.7598 22.9473 27.6326 23 27.5 23H22.95C22.834 23.5643 22.5269 24.0713 22.0806 24.4356C21.6343 24.8 21.0761 24.9993 20.5 25H19V26.5C19 26.6326 18.9473 26.7598 18.8536 26.8536C18.7598 26.9473 18.6326 27 18.5 27H15.5C15.3674 27 15.2402 26.9473 15.1464 26.8536C15.0527 26.7598 15 26.6326 15 26.5V26H12V30.5C12 30.6326 11.9473 30.7598 11.8536 30.8536C11.7598 30.9473 11.6326 31 11.5 31H1.5C1.36739 31 1.24022 30.9473 1.14645 30.8536C1.05268 30.7598 1 30.6326 1 30.5V17.5C1.00161 16.6592 1.30555 15.8471 1.85632 15.2119C2.40709 14.5767 3.16796 14.1607 4 14.04ZM10.5 5.5C10.5 4.57174 10.1313 3.6815 9.47487 3.02513C8.8185 2.36875 7.92826 2 7 2C6.07174 2 5.1815 2.36875 4.52513 3.02513C3.86875 3.6815 3.5 4.57174 3.5 5.5V6H10.5V5.5ZM6.5 12H7.5C8.1628 11.9992 8.79822 11.7356 9.26689 11.2669C9.73556 10.7982 9.99921 10.1628 10 9.5V7H4V10.882C3.99901 11.1253 4.06628 11.3639 4.19418 11.5708C4.32208 11.7777 4.50547 11.9446 4.7235 12.0525C4.80662 12.094 4.87652 12.1579 4.92536 12.2369C4.9742 12.316 5.00004 12.4071 5 12.5V14H7V13H6.5C6.36739 13 6.24022 12.9473 6.14645 12.8536C6.05268 12.7598 6 12.6326 6 12.5C6 12.3674 6.05268 12.2402 6.14645 12.1464C6.24022 12.0527 6.36739 12 6.5 12ZM19.5 11V14.5655L20.2225 14.084C20.3047 14.0292 20.4012 13.9999 20.5 13.9999C20.5988 13.9999 20.6953 14.0292 20.7775 14.084L21.5 14.5655V11H19.5ZM27 11H22.5V15.5C22.5 15.5905 22.4755 15.6793 22.4289 15.757C22.3824 15.8347 22.3157 15.8982 22.2359 15.9409C22.1561 15.9836 22.0662 16.0039 21.9757 15.9995C21.8853 15.9951 21.7978 15.9662 21.7225 15.916L20.5 15.1L19.2775 15.915C19.2023 15.9652 19.1148 15.994 19.0245 15.9985C18.9342 16.0029 18.8443 15.9828 18.7646 15.9402C18.6848 15.8976 18.618 15.8342 18.5714 15.7566C18.5249 15.6791 18.5002 15.5904 18.5 15.5V11H14V21H15V20.5C15 20.3674 15.0527 20.2402 15.1464 20.1464C15.2402 20.0527 15.3674 20 15.5 20H18.5C18.6326 20 18.7598 20.0527 18.8536 20.1464C18.9473 20.2402 19 20.3674 19 20.5V22H27V11ZM20.5 24C20.8101 23.9996 21.1126 23.9033 21.3658 23.7243C21.619 23.5452 21.8107 23.2923 21.9145 23H19V24H20.5ZM16 26H18V21H16V26ZM15 22H9.5C9.10217 22 8.72065 21.842 8.43934 21.5607C8.15804 21.2794 8 20.8978 8 20.5V18.5C8 18.1022 7.84196 17.7206 7.56066 17.4393C7.27935 17.158 6.89783 17 6.5 17C6.10217 17 5.72065 17.158 5.43934 17.4393C5.15804 17.7206 5 18.1022 5 18.5V21.5C5.00106 22.4279 5.37015 23.3176 6.02629 23.9737C6.68244 24.6299 7.57207 24.9989 8.5 25H15V22ZM8.5 26C7.30693 25.9987 6.16311 25.5241 5.31948 24.6805C4.47585 23.8369 4.00132 22.6931 4 21.5V18.5C4 17.837 4.26339 17.2011 4.73223 16.7322C5.20107 16.2634 5.83696 16 6.5 16C7.16304 16 7.79893 16.2634 8.26777 16.7322C8.73661 17.2011 9 17.837 9 18.5V20.5C9 20.6326 9.05268 20.7598 9.14645 20.8536C9.24022 20.9473 9.36739 21 9.5 21H11V17.5C10.9992 16.8372 10.7356 16.2018 10.2669 15.7331C9.79822 15.2644 9.1628 15.0008 8.5 15H4.5C3.8372 15.0008 3.20178 15.2644 2.73311 15.7331C2.26444 16.2018 2.00079 16.8372 2 17.5V28H11V26H8.5ZM2 30H11V29H2V30Z" stroke="#FF8D20" stroke-width="0.4" mask="url(#path-1-outside-1)"/>
</svg>
