<svg width="34" height="34" viewBox="0 0 34 34" fill="none" xmlns="http://www.w3.org/2000/svg">
<path d="M31.7388 17.4403C31.602 17.1603 31.602 16.8393 31.7388 16.5595L33.0069 13.9654C33.7129 12.521 33.1535 10.7994 31.7334 10.0459L29.1827 8.69254C28.9075 8.54658 28.7189 8.2868 28.665 7.98007L28.1662 5.13598C27.8884 3.55246 26.4236 2.48837 24.8321 2.71356L21.9731 3.11797C21.6645 3.16153 21.3594 3.06232 21.1355 2.84577L19.0603 0.838188C17.9047 -0.279688 16.0945 -0.279755 14.9391 0.838188L12.8637 2.84597C12.6398 3.06259 12.3347 3.1616 12.0262 3.11817L9.1672 2.71376C7.57512 2.48844 6.11087 3.55266 5.83309 5.13617L5.33425 7.98014C5.2804 8.28693 5.09174 8.54665 4.81662 8.69267L2.26597 10.046C0.845812 10.7995 0.286409 12.5212 0.992436 13.9656L2.26046 16.5596C2.39725 16.8395 2.39725 17.1605 2.26046 17.4404L0.99237 20.0345C0.286343 21.4789 0.845746 23.2004 2.2659 23.9539L4.81655 25.3073C5.09174 25.4532 5.2804 25.713 5.33425 26.0198L5.83309 28.8639C6.08597 30.3054 7.32204 31.3164 8.74266 31.3162C8.88258 31.3162 9.02456 31.3064 9.16726 31.2862L12.0262 30.8818C12.3346 30.838 12.6399 30.9374 12.8638 31.154L14.9391 33.1616C15.5169 33.7206 16.2581 34 16.9996 34C17.7409 33.9999 18.4826 33.7204 19.0602 33.1616L21.1355 31.154C21.3594 30.9374 21.6646 30.8385 21.9731 30.8818L24.8321 31.2862C26.4244 31.5115 27.8884 30.4473 28.1662 28.8638L28.6651 26.0198C28.7189 25.713 28.9076 25.4533 29.1827 25.3073L31.7334 23.9539C33.1535 23.2005 33.7129 21.4788 33.0069 20.0344L31.7388 17.4403ZM13.0776 8.1755C15.06 8.1755 16.6728 9.7883 16.6728 11.7707C16.6728 13.753 15.06 15.3658 13.0776 15.3658C11.0953 15.3658 9.48249 13.753 9.48249 11.7707C9.48249 9.7883 11.0953 8.1755 13.0776 8.1755ZM11.222 24.164C11.0305 24.3555 10.7796 24.4512 10.5287 24.4512C10.2778 24.4512 10.0268 24.3556 9.83544 24.164C9.45254 23.7811 9.45254 23.1603 9.83544 22.7774L22.7772 9.83565C23.16 9.45275 23.7809 9.45275 24.1638 9.83565C24.5467 10.2185 24.5467 10.8394 24.1638 11.2223L11.222 24.164ZM20.9215 25.8243C18.9392 25.8243 17.3264 24.2115 17.3264 22.2292C17.3264 20.2468 18.9392 18.634 20.9215 18.634C22.9038 18.634 24.5166 20.2468 24.5166 22.2292C24.5166 24.2115 22.9038 25.8243 20.9215 25.8243Z" fill="#FF8D20"/>
<path d="M20.9193 20.5952C20.0183 20.5952 19.2852 21.3283 19.2852 22.2293C19.2852 23.1304 20.0182 23.8634 20.9193 23.8634C21.8204 23.8634 22.5535 23.1304 22.5535 22.2293C22.5535 21.3283 21.8204 20.5952 20.9193 20.5952Z" fill="#FF8D20"/>
<path d="M13.0794 10.1367C12.1784 10.1367 11.4453 10.8698 11.4453 11.7708C11.4453 12.6719 12.1784 13.405 13.0794 13.405C13.9805 13.405 14.7136 12.672 14.7136 11.7708C14.7135 10.8698 13.9805 10.1367 13.0794 10.1367Z" fill="#FF8D20"/>
</svg>
