<svg width="22" height="28" viewBox="0 0 22 28" fill="none" xmlns="http://www.w3.org/2000/svg">
<mask id="path-1-outside-1" maskUnits="userSpaceOnUse" x="-0.742188" y="1.79871" width="20" height="27" fill="black">
<rect fill="white" x="-0.742188" y="1.79871" width="20" height="27"/>
<path d="M0.257812 3.265V27.5195C0.257812 27.7771 0.466654 27.9859 0.724296 27.9859H18.4487C18.7062 27.9859 18.915 27.7771 18.915 27.5195V7.92945C18.915 7.91908 18.91 7.91024 18.9091 7.90005C18.9068 7.85913 18.8987 7.81879 18.8853 7.78017C18.8801 7.76518 18.8764 7.75077 18.8699 7.73617C18.8472 7.68545 18.8157 7.63915 18.7765 7.59957L14.1123 2.93531C14.0727 2.89592 14.0262 2.86441 13.9751 2.84193C13.9611 2.83598 13.9468 2.83098 13.9322 2.82656C13.8932 2.81312 13.8527 2.80505 13.8114 2.80236C13.8035 2.8037 13.7943 2.79871 13.7845 2.79871H0.724296C0.466654 2.79871 0.257812 3.00736 0.257812 3.265ZM17.3227 7.46297H14.2508V4.39105L17.3227 7.46297ZM1.19059 3.73148H13.318V7.92945C13.318 8.1869 13.5268 8.39574 13.7843 8.39574H17.9823V27.0532H1.19059V3.73148Z"/>
</mask>
<path d="M0.257812 3.265V27.5195C0.257812 27.7771 0.466654 27.9859 0.724296 27.9859H18.4487C18.7062 27.9859 18.915 27.7771 18.915 27.5195V7.92945C18.915 7.91908 18.91 7.91024 18.9091 7.90005C18.9068 7.85913 18.8987 7.81879 18.8853 7.78017C18.8801 7.76518 18.8764 7.75077 18.8699 7.73617C18.8472 7.68545 18.8157 7.63915 18.7765 7.59957L14.1123 2.93531C14.0727 2.89592 14.0262 2.86441 13.9751 2.84193C13.9611 2.83598 13.9468 2.83098 13.9322 2.82656C13.8932 2.81312 13.8527 2.80505 13.8114 2.80236C13.8035 2.8037 13.7943 2.79871 13.7845 2.79871H0.724296C0.466654 2.79871 0.257812 3.00736 0.257812 3.265ZM17.3227 7.46297H14.2508V4.39105L17.3227 7.46297ZM1.19059 3.73148H13.318V7.92945C13.318 8.1869 13.5268 8.39574 13.7843 8.39574H17.9823V27.0532H1.19059V3.73148Z" fill="#FF8D20"/>
<path d="M0.257812 3.265V27.5195C0.257812 27.7771 0.466654 27.9859 0.724296 27.9859H18.4487C18.7062 27.9859 18.915 27.7771 18.915 27.5195V7.92945C18.915 7.91908 18.91 7.91024 18.9091 7.90005C18.9068 7.85913 18.8987 7.81879 18.8853 7.78017C18.8801 7.76518 18.8764 7.75077 18.8699 7.73617C18.8472 7.68545 18.8157 7.63915 18.7765 7.59957L14.1123 2.93531C14.0727 2.89592 14.0262 2.86441 13.9751 2.84193C13.9611 2.83598 13.9468 2.83098 13.9322 2.82656C13.8932 2.81312 13.8527 2.80505 13.8114 2.80236C13.8035 2.8037 13.7943 2.79871 13.7845 2.79871H0.724296C0.466654 2.79871 0.257812 3.00736 0.257812 3.265ZM17.3227 7.46297H14.2508V4.39105L17.3227 7.46297ZM1.19059 3.73148H13.318V7.92945C13.318 8.1869 13.5268 8.39574 13.7843 8.39574H17.9823V27.0532H1.19059V3.73148Z" stroke="#FF8D20" stroke-width="0.4" mask="url(#path-1-outside-1)"/>
<mask id="path-2-outside-2" maskUnits="userSpaceOnUse" x="2.05859" y="-1" width="20" height="27" fill="black">
<rect fill="white" x="2.05859" y="-1" width="20" height="27"/>
<path d="M19.8503 24.2544V25.1872H21.2495C21.5072 25.1872 21.716 24.9786 21.716 24.7209V0.466483C21.716 0.208842 21.5072 0 21.2495 0H3.52508C3.26744 0 3.05859 0.208842 3.05859 0.466483V1.86574H3.99156V0.932775H20.783V24.2544H19.8503Z"/>
</mask>
<path d="M19.8503 24.2544V25.1872H21.2495C21.5072 25.1872 21.716 24.9786 21.716 24.7209V0.466483C21.716 0.208842 21.5072 0 21.2495 0H3.52508C3.26744 0 3.05859 0.208842 3.05859 0.466483V1.86574H3.99156V0.932775H20.783V24.2544H19.8503Z" fill="#FF8D20"/>
<path d="M19.8503 24.2544V25.1872H21.2495C21.5072 25.1872 21.716 24.9786 21.716 24.7209V0.466483C21.716 0.208842 21.5072 0 21.2495 0H3.52508C3.26744 0 3.05859 0.208842 3.05859 0.466483V1.86574H3.99156V0.932775H20.783V24.2544H19.8503Z" stroke="#FF8D20" stroke-width="0.4" mask="url(#path-2-outside-2)"/>
<mask id="path-3-outside-3" maskUnits="userSpaceOnUse" x="2.99219" y="8.32861" width="13" height="3" fill="black">
<rect fill="white" x="2.99219" y="8.32861" width="13" height="3"/>
<path d="M3.99219 9.32861H15.1864V10.2614H3.99219V9.32861Z"/>
</mask>
<path d="M3.99219 9.32861H15.1864V10.2614H3.99219V9.32861Z" fill="#FF8D20"/>
<path d="M3.99219 9.32861H15.1864V10.2614H3.99219V9.32861Z" stroke="#FF8D20" stroke-width="0.4" mask="url(#path-3-outside-3)"/>
<mask id="path-4-outside-4" maskUnits="userSpaceOnUse" x="2.99219" y="5.53003" width="5" height="3" fill="black">
<rect fill="white" x="2.99219" y="5.53003" width="5" height="3"/>
<path d="M3.99219 6.53003H7.72367V7.46299H3.99219V6.53003Z"/>
</mask>
<path d="M3.99219 6.53003H7.72367V7.46299H3.99219V6.53003Z" fill="#FF8D20"/>
<path d="M3.99219 6.53003H7.72367V7.46299H3.99219V6.53003Z" stroke="#FF8D20" stroke-width="0.4" mask="url(#path-4-outside-4)"/>
<mask id="path-5-outside-5" maskUnits="userSpaceOnUse" x="2.99219" y="11.1272" width="9" height="3" fill="black">
<rect fill="white" x="2.99219" y="11.1272" width="9" height="3"/>
<path d="M3.99219 12.1272H11.4552V13.0602H3.99219V12.1272Z"/>
</mask>
<path d="M3.99219 12.1272H11.4552V13.0602H3.99219V12.1272Z" fill="#FF8D20"/>
<path d="M3.99219 12.1272H11.4552V13.0602H3.99219V12.1272Z" stroke="#FF8D20" stroke-width="0.4" mask="url(#path-5-outside-5)"/>
<mask id="path-6-outside-6" maskUnits="userSpaceOnUse" x="11.3867" y="11.1272" width="4" height="3" fill="black">
<rect fill="white" x="11.3867" y="11.1272" width="4" height="3"/>
<path d="M12.3867 12.1272H15.1852V13.0602H12.3867V12.1272Z"/>
</mask>
<path d="M12.3867 12.1272H15.1852V13.0602H12.3867V12.1272Z" fill="#FF8D20"/>
<path d="M12.3867 12.1272H15.1852V13.0602H12.3867V12.1272Z" stroke="#FF8D20" stroke-width="0.4" mask="url(#path-6-outside-6)"/>
<mask id="path-7-outside-7" maskUnits="userSpaceOnUse" x="2.99219" y="13.9258" width="13" height="3" fill="black">
<rect fill="white" x="2.99219" y="13.9258" width="13" height="3"/>
<path d="M3.99219 14.9258H15.1864V15.8588H3.99219V14.9258Z"/>
</mask>
<path d="M3.99219 14.9258H15.1864V15.8588H3.99219V14.9258Z" fill="#FF8D20"/>
<path d="M3.99219 14.9258H15.1864V15.8588H3.99219V14.9258Z" stroke="#FF8D20" stroke-width="0.4" mask="url(#path-7-outside-7)"/>
<mask id="path-8-outside-8" maskUnits="userSpaceOnUse" x="2.99219" y="19.5229" width="13" height="3" fill="black">
<rect fill="white" x="2.99219" y="19.5229" width="13" height="3"/>
<path d="M3.99219 20.5229H15.1864V21.4559H3.99219V20.5229Z"/>
</mask>
<path d="M3.99219 20.5229H15.1864V21.4559H3.99219V20.5229Z" fill="#FF8D20"/>
<path d="M3.99219 20.5229H15.1864V21.4559H3.99219V20.5229Z" stroke="#FF8D20" stroke-width="0.4" mask="url(#path-8-outside-8)"/>
<mask id="path-9-outside-9" maskUnits="userSpaceOnUse" x="7.1875" y="16.7244" width="9" height="3" fill="black">
<rect fill="white" x="7.1875" y="16.7244" width="9" height="3"/>
<path d="M8.1875 17.7244H15.184V18.6571H8.1875V17.7244Z"/>
</mask>
<path d="M8.1875 17.7244H15.184V18.6571H8.1875V17.7244Z" fill="#FF8D20"/>
<path d="M8.1875 17.7244H15.184V18.6571H8.1875V17.7244Z" stroke="#FF8D20" stroke-width="0.4" mask="url(#path-9-outside-9)"/>
<mask id="path-10-outside-10" maskUnits="userSpaceOnUse" x="2.99219" y="16.7244" width="5" height="3" fill="black">
<rect fill="white" x="2.99219" y="16.7244" width="5" height="3"/>
<path d="M3.99219 17.7244H7.25719V18.6571H3.99219V17.7244Z"/>
</mask>
<path d="M3.99219 17.7244H7.25719V18.6571H3.99219V17.7244Z" fill="#FF8D20"/>
<path d="M3.99219 17.7244H7.25719V18.6571H3.99219V17.7244Z" stroke="#FF8D20" stroke-width="0.4" mask="url(#path-10-outside-10)"/>
<mask id="path-11-outside-11" maskUnits="userSpaceOnUse" x="2.99219" y="22.3218" width="4" height="3" fill="black">
<rect fill="white" x="2.99219" y="22.3218" width="4" height="3"/>
<path d="M3.99219 23.3218H5.85793V24.2546H3.99219V23.3218Z"/>
</mask>
<path d="M3.99219 23.3218H5.85793V24.2546H3.99219V23.3218Z" fill="#FF8D20"/>
<path d="M3.99219 23.3218H5.85793V24.2546H3.99219V23.3218Z" stroke="#FF8D20" stroke-width="0.4" mask="url(#path-11-outside-11)"/>
<mask id="path-12-outside-12" maskUnits="userSpaceOnUse" x="5.78906" y="22.3218" width="10" height="3" fill="black">
<rect fill="white" x="5.78906" y="22.3218" width="10" height="3"/>
<path d="M6.78906 23.3218H15.1848V24.2546H6.78906V23.3218Z"/>
</mask>
<path d="M6.78906 23.3218H15.1848V24.2546H6.78906V23.3218Z" fill="#FF8D20"/>
<path d="M6.78906 23.3218H15.1848V24.2546H6.78906V23.3218Z" stroke="#FF8D20" stroke-width="0.4" mask="url(#path-12-outside-12)"/>
</svg>
