<svg width="38" height="24" viewBox="0 0 38 24" fill="none" xmlns="http://www.w3.org/2000/svg">
<path d="M3.06123 12.789C3.10324 12.789 3.14592 12.7842 3.1886 12.7743C3.48797 12.7042 3.67383 12.4047 3.60376 12.1053C3.55143 11.8818 3.44261 11.4168 3.59552 11.2168C3.70449 11.0743 3.99398 10.9878 4.41055 10.9732C6.06473 10.9151 6.572 10.1507 7.0625 9.4115C7.32535 9.01542 7.5971 8.6059 8.09198 8.22236C8.57929 7.84476 8.78816 7.83771 8.82201 7.83964C8.85274 7.8723 9.07038 8.15125 8.98999 9.37817C8.94775 10.0217 9.07201 10.4946 9.36982 10.8237C9.78646 11.2841 10.3934 11.3048 10.881 11.3215C11.1004 11.329 11.3076 11.3362 11.4579 11.378C11.9314 11.5099 12.3468 11.4682 12.6805 11.4347C12.8862 11.4141 13.0989 11.3928 13.144 11.4422C13.3664 11.6847 13.6204 11.8025 13.899 11.7962C14.4243 11.7818 14.7802 11.3478 15.3191 10.691C15.3684 10.6309 15.4195 10.5686 15.4726 10.5042C15.5018 10.4689 15.5229 10.4502 15.5348 10.441C15.6117 10.4582 15.7824 10.562 15.898 10.6323C16.3096 10.8824 16.9316 11.2605 17.7063 10.9286C18.559 10.5632 18.7795 10.2924 19.1971 9.7145C19.3483 9.5054 19.5364 9.24508 19.8227 8.90378C20.327 8.30253 21.0566 8.12772 21.3578 8.26697C21.4054 8.28902 21.5505 8.35612 21.4819 8.75777C21.3838 9.33185 21.4945 9.76394 21.8107 10.0418C22.3587 10.5234 23.213 10.261 23.8368 10.0695C23.9794 10.0257 24.1412 9.97601 24.2118 9.96539C24.2659 9.96057 24.4282 10.0001 24.5359 10.0267C25.0756 10.16 26.1987 10.437 26.756 8.84447C27.1321 7.76987 27.4074 7.72941 28.2249 7.60939C28.3117 7.59662 28.4016 7.58341 28.4948 7.56849C30.3078 7.2784 30.6465 6.09134 30.9186 5.13744C30.9959 4.86658 31.0688 4.61079 31.1704 4.37659C31.3361 3.9941 31.6422 3.79776 32.0298 3.54925C32.5276 3.22999 33.1472 2.83272 33.4081 1.9451C33.5334 1.51947 33.8919 1.27548 34.0846 1.21269C34.0789 1.32128 34.0429 1.51487 33.9239 1.80703C33.5051 2.83487 33.419 3.40235 33.6166 3.83117C33.7977 4.22383 34.16 4.34393 34.3765 4.41564C34.46 4.44333 34.5389 4.46945 34.5771 4.49573C34.5771 4.49573 34.5805 4.4987 34.5867 4.5056C34.791 4.73534 35.1429 4.75583 35.3727 4.5514C35.6024 4.34705 35.6229 3.99514 35.4185 3.76547C35.3551 3.69429 35.2866 3.63298 35.2145 3.58295C35.0411 3.46292 34.8667 3.40517 34.7267 3.35878C34.6964 3.34875 34.6598 3.33658 34.6294 3.32545C34.6311 3.21566 34.6728 2.91979 34.9549 2.22717C35.2802 1.42877 35.2793 0.824621 34.9523 0.431582C34.7103 0.140682 34.3283 0.0242917 33.9044 0.111881C33.313 0.234135 32.5857 0.795301 32.3399 1.63096C32.1961 2.11983 31.8743 2.32633 31.4287 2.61204C30.9697 2.90643 30.4494 3.24009 30.1487 3.93397C30.0181 4.23519 29.9316 4.53864 29.8479 4.83206C29.5972 5.7107 29.4317 6.29117 28.3189 6.46916C28.2306 6.48334 28.1453 6.49581 28.0631 6.50784C27.1584 6.64071 26.3037 6.76615 25.705 8.47674C25.4822 9.11362 25.3246 9.07473 24.8026 8.94579C24.5613 8.88626 24.3118 8.82473 24.048 8.86414C23.8938 8.8873 23.7158 8.94186 23.5099 9.0051C23.3002 9.06946 22.7665 9.23306 22.5638 9.20129C22.5586 9.16002 22.5563 9.08022 22.5793 8.94512C22.7121 8.16766 22.4302 7.53642 21.8254 7.25643C20.9877 6.86859 19.7331 7.27788 18.9696 8.18822C18.6576 8.56033 18.4564 8.83861 18.2948 9.06226C17.954 9.53368 17.8731 9.64569 17.2678 9.90512C17.0425 10.0017 16.8627 9.91566 16.4764 9.6808C16.0944 9.44854 15.2996 8.96531 14.6143 9.79496C14.5603 9.86036 14.5083 9.92368 14.4583 9.98469C14.2692 10.2152 14.0435 10.4905 13.8994 10.6231C13.4879 10.2346 12.981 10.2855 12.5695 10.3267C12.2912 10.3546 12.0285 10.381 11.7566 10.3053C11.4784 10.2278 11.1941 10.2181 10.919 10.2086C10.6269 10.1987 10.2957 10.1873 10.1954 10.0764C10.1575 10.0345 10.0722 9.88961 10.101 9.45092C10.1607 8.5408 10.1471 7.28145 9.34347 6.85434C8.57016 6.44348 7.69686 7.11985 7.40997 7.34216C6.77049 7.83779 6.41805 8.36897 6.1348 8.79578C5.69551 9.45775 5.45361 9.82235 4.3715 9.86029C3.59396 9.8876 3.0354 10.1164 2.71109 10.5403C2.23855 11.1582 2.42843 11.9692 2.51966 12.359C2.57971 12.6158 2.80848 12.789 3.06123 12.789ZM36.8962 9.30335C36.7395 9.10932 36.5859 8.93436 36.4373 8.76512C35.763 7.99693 35.5614 7.70833 35.7567 7.22889C35.8012 7.12007 35.8404 7.00339 35.8733 6.88225C35.9538 6.58556 35.7786 6.27966 35.4819 6.19905C35.1855 6.11866 34.8793 6.29362 34.7988 6.59038C34.7777 6.66795 34.7532 6.74129 34.7258 6.80854C34.2542 7.96583 34.9387 8.7456 35.6005 9.49961C35.7417 9.66039 35.8877 9.82666 36.03 10.0029C36.5197 10.6092 36.8454 11.6006 36.8885 12.0731C35.7368 11.7737 35.0939 11.2397 34.9761 10.4837L34.9453 10.2829C34.8096 9.39087 34.6692 8.46843 33.8872 8.27299C33.3959 8.15029 32.7622 8.31337 32.3459 8.66981C31.9801 8.98313 31.8027 9.42048 31.8464 9.90111C31.86 10.0509 31.8801 10.208 31.9014 10.3744C31.9758 10.955 32.0883 11.8324 31.7644 12.0539C30.9634 12.602 30.8775 13.4543 30.7864 14.3567C30.7667 14.552 30.7464 14.7539 30.7185 14.9629C30.6391 15.5586 30.853 15.8747 31.0464 16.035C31.5337 16.4388 32.2324 16.2079 32.7937 16.0222C32.9187 15.9809 33.0366 15.9419 33.1235 15.9201C33.3251 15.8697 33.6097 16.2258 34.0178 17.0417C34.1371 17.2804 34.2696 17.4852 34.3865 17.6658C34.7727 18.2624 35.0776 18.7335 34.7348 20.3421C34.5853 21.0435 34.3682 21.273 34.2986 21.3105C34.2456 21.2759 34.1492 21.1175 34.2077 20.9274C34.4549 20.1241 34.449 19.501 34.19 19.0751C34.0213 18.7978 33.7589 18.6198 33.4313 18.5604C33.1005 18.5004 32.8922 18.5461 32.6627 18.7292C32.6046 18.7755 32.4504 18.8985 31.6728 19.0313C30.8001 19.1803 30.6313 19.0418 30.223 18.7073C30.0376 18.5553 29.8068 18.3661 29.4867 18.1815C28.9443 17.8687 28.5509 17.9535 28.3161 18.0797C27.6289 18.4496 27.5321 19.502 27.4309 21.1885C27.4166 21.4259 27.3657 21.5914 27.2875 21.6546C27.1104 21.7979 26.5462 21.712 26.0929 21.643C25.5548 21.561 24.9449 21.4682 24.3881 21.5955C23.6306 21.7687 23.0835 21.5716 22.6438 21.4132C22.3825 21.3191 22.1568 21.2379 21.9157 21.2379C21.3341 21.2379 21.1733 21.8027 21.1046 22.044C21.0807 22.128 21.0373 22.2806 21.0009 22.3293C20.9734 22.3335 20.8715 22.3401 20.6495 22.262C19.523 21.8662 18.85 22.2883 18.4047 22.5676C18.1648 22.7181 18.0216 22.8033 17.8686 22.8033C17.3672 22.8033 16.1666 22.676 15.8479 21.4965C15.5282 20.3139 14.6069 20.224 14.112 20.1756C14.0577 20.1703 13.9923 20.1639 13.9376 20.1564C13.7388 18.9976 12.5335 18.9415 11.0218 18.8712C10.0235 18.8247 9.56355 19.0936 9.43395 19.7995C9.42942 19.8238 9.42385 19.8545 9.41881 19.8758C9.39951 19.8856 9.36158 19.9015 9.29544 19.918C8.59317 20.0935 7.871 19.2059 7.78385 18.9366C7.63555 18.4782 7.11869 17.7568 5.32371 18.0774C4.32437 18.2558 4.25964 19.2325 4.2249 19.7572C4.21978 19.8344 4.21318 19.9343 4.20375 20.017C3.52723 20.0759 3.21451 20.7834 3.00303 21.2897C2.85368 20.7784 2.55432 20.0923 1.64369 19.5889C1.40868 19.459 1.12565 19.2449 1.11207 18.9622C1.10479 18.809 1.17464 18.6778 1.22831 18.6133C1.63864 18.6237 2.85227 18.5863 3.35792 17.8203C3.57006 17.4989 3.72787 16.9432 3.27471 16.1204C3.04831 15.7094 2.972 15.2864 3.04141 14.8271C3.08736 14.5231 2.87811 14.2394 2.57414 14.1934C2.27032 14.1478 1.98648 14.3567 1.94053 14.6607C1.83468 15.3611 1.95545 16.033 2.2995 16.6576C2.43956 16.9119 2.48789 17.1172 2.4288 17.2068C2.27203 17.4443 1.53413 17.5318 1.20077 17.4986C0.678572 17.4466 0.229491 17.9544 0.0721268 18.459C-0.0235535 18.7658 -0.231838 19.8245 1.10516 20.5635C1.7678 20.9297 1.88389 21.3897 1.9962 21.8347C2.08542 22.1881 2.22022 22.7221 2.79245 22.8367C3.50548 22.9793 3.81101 22.2456 4.0132 21.7601C4.09241 21.5702 4.23567 21.2264 4.33743 21.1298C4.63591 21.148 4.83848 21.0343 4.95694 20.9335C5.2811 20.6578 5.3102 20.2185 5.33588 19.8308C5.37195 19.2865 5.41953 19.1912 5.51945 19.1734C6.32586 19.0294 6.68661 19.1621 6.72454 19.2794C6.97135 20.0421 8.19812 21.3398 9.56548 20.9981C10.3835 20.7937 10.4818 20.2578 10.529 20.0003L10.5296 19.997C10.5996 19.9847 10.7334 19.9723 10.97 19.9832C11.6752 20.0161 12.2857 20.0518 12.6155 20.1577C12.8302 20.2266 12.8352 20.277 12.8474 20.3989C12.9254 21.1783 13.6537 21.2494 14.0037 21.2836C14.4664 21.3287 14.6587 21.364 14.773 21.7868C15.3071 23.763 17.2774 23.9165 17.8686 23.9165C18.3494 23.9165 18.7081 23.6915 18.9964 23.5107C19.396 23.26 19.6599 23.0944 20.2803 23.3124C20.7805 23.488 21.185 23.4899 21.5171 23.318C21.9287 23.1049 22.0732 22.6993 22.1548 22.4208C22.1934 22.4343 22.2317 22.4481 22.2665 22.4607C22.7818 22.6463 23.5605 22.9266 24.6361 22.6809C24.9869 22.6008 25.4639 22.6734 25.9253 22.7436C26.6644 22.8561 27.4285 22.9723 27.9875 22.5204C28.3214 22.2505 28.5081 21.8247 28.5422 21.2551C28.5814 20.6014 28.6523 19.4199 28.8309 19.0961C28.8554 19.1062 28.8882 19.1218 28.9302 19.146C29.1714 19.2851 29.3472 19.4291 29.5172 19.5685C30.1031 20.0486 30.5824 20.3469 31.8602 20.1289C32.6885 19.9875 33.0357 19.8269 33.2508 19.6788C33.2851 19.7705 33.3125 20.0503 33.1434 20.6C32.9829 21.1218 33.1172 21.7006 33.4857 22.0745C33.79 22.3831 34.2061 22.4989 34.5995 22.3841C35.0074 22.265 35.5507 21.8543 35.8235 20.5743C36.2623 18.5154 35.7838 17.776 35.321 17.061C35.21 16.8895 35.1051 16.7274 35.0134 16.544C34.6405 15.798 34.0159 14.5497 32.8532 14.8401C32.7261 14.8719 32.589 14.9172 32.4438 14.9652C32.2877 15.0169 32.0003 15.1119 31.8184 15.1389C31.8194 15.1298 31.8205 15.1203 31.8219 15.1101C31.8521 14.8835 31.8733 14.6725 31.894 14.4685C31.9784 13.6312 32.0348 13.2178 32.3929 12.9728C33.2789 12.3666 33.1209 11.1334 33.0055 10.2328C32.9855 10.0769 32.9667 9.92962 32.9548 9.80024C32.9438 9.67902 32.9782 9.59381 33.0698 9.51535C33.2295 9.37862 33.4759 9.33646 33.5882 9.34833C33.6993 9.49894 33.786 10.0683 33.8441 10.4503L33.8755 10.655C34.0158 11.5559 34.6552 12.7323 36.9044 13.2212C37.293 13.3059 37.6423 13.1661 37.8388 12.8478C38.3549 12.0119 37.5217 10.0778 36.8962 9.30335Z" fill="white"/>
</svg>
