<svg width="38" height="26" viewBox="0 0 38 26" fill="none" xmlns="http://www.w3.org/2000/svg">
<mask id="path-1-outside-1" maskUnits="userSpaceOnUse" x="-1" y="0.083374" width="40" height="26" fill="black">
<rect fill="white" x="-1" y="0.083374" width="40" height="26"/>
<path d="M3.06123 13.789C3.10324 13.789 3.14592 13.7842 3.1886 13.7743C3.48797 13.7042 3.67383 13.4047 3.60376 13.1053C3.55143 12.8818 3.44261 12.4168 3.59552 12.2168C3.70449 12.0743 3.99398 11.9878 4.41055 11.9732C6.06473 11.9151 6.572 11.1507 7.0625 10.4115C7.32535 10.0154 7.5971 9.6059 8.09198 9.22236C8.57928 8.84476 8.78816 8.83771 8.82201 8.83964C8.85274 8.8723 9.07038 9.15125 8.98999 10.3782C8.94775 11.0217 9.07201 11.4946 9.36982 11.8237C9.78646 12.2841 10.3934 12.3048 10.881 12.3215C11.1004 12.329 11.3076 12.3362 11.4579 12.378C11.9314 12.5099 12.3468 12.4682 12.6805 12.4347C12.8862 12.4141 13.0989 12.3928 13.144 12.4422C13.3664 12.6847 13.6204 12.8025 13.899 12.7962C14.4243 12.7818 14.7802 12.3478 15.3191 11.691C15.3684 11.6309 15.4195 11.5686 15.4726 11.5042C15.5018 11.4689 15.5229 11.4502 15.5348 11.441C15.6117 11.4582 15.7824 11.562 15.898 11.6323C16.3096 11.8824 16.9316 12.2605 17.7063 11.9286C18.559 11.5632 18.7795 11.2924 19.1971 10.7145C19.3483 10.5054 19.5364 10.2451 19.8227 9.90378C20.327 9.30253 21.0566 9.12772 21.3578 9.26697C21.4054 9.28902 21.5505 9.35612 21.4819 9.75777C21.3838 10.3319 21.4945 10.7639 21.8107 11.0418C22.3587 11.5234 23.213 11.261 23.8368 11.0695C23.9794 11.0257 24.1412 10.976 24.2118 10.9654C24.2659 10.9606 24.4282 11.0001 24.5359 11.0267C25.0756 11.16 26.1987 11.437 26.756 9.84447C27.1321 8.76987 27.4074 8.72941 28.2249 8.60939C28.3117 8.59662 28.4016 8.58341 28.4948 8.56849C30.3078 8.2784 30.6465 7.09134 30.9186 6.13744C30.9959 5.86658 31.0688 5.61079 31.1704 5.3766C31.3361 4.9941 31.6422 4.79776 32.0298 4.54925C32.5276 4.22999 33.1472 3.83272 33.4081 2.9451C33.5334 2.51947 33.8919 2.27548 34.0846 2.21269C34.0789 2.32128 34.0429 2.51487 33.9239 2.80703C33.5051 3.83487 33.419 4.40235 33.6166 4.83117C33.7977 5.22383 34.16 5.34393 34.3765 5.41564C34.46 5.44333 34.5389 5.46945 34.5771 5.49573C34.5771 5.49573 34.5805 5.4987 34.5867 5.5056C34.791 5.73534 35.1429 5.75583 35.3727 5.5514C35.6024 5.34705 35.6229 4.99514 35.4185 4.76547C35.3551 4.69429 35.2866 4.63298 35.2145 4.58295C35.0411 4.46292 34.8667 4.40517 34.7267 4.35878C34.6964 4.34875 34.6598 4.33658 34.6294 4.32545C34.6311 4.21566 34.6728 3.91979 34.9549 3.22717C35.2803 2.42877 35.2793 1.82462 34.9523 1.43158C34.7103 1.14068 34.3283 1.02429 33.9044 1.11188C33.313 1.23414 32.5857 1.7953 32.3399 2.63096C32.1961 3.11983 31.8743 3.32633 31.4287 3.61204C30.9697 3.90643 30.4494 4.24009 30.1487 4.93397C30.0181 5.23519 29.9316 5.53864 29.8479 5.83206C29.5972 6.7107 29.4317 7.29117 28.3189 7.46916C28.2306 7.48334 28.1453 7.49581 28.0631 7.50784C27.1584 7.64071 26.3037 7.76615 25.705 9.47674C25.4822 10.1136 25.3246 10.0747 24.8026 9.94579C24.5613 9.88626 24.3118 9.82473 24.048 9.86414C23.8938 9.8873 23.7158 9.94186 23.5099 10.0051C23.3002 10.0695 22.7665 10.2331 22.5638 10.2013C22.5586 10.16 22.5563 10.0802 22.5793 9.94512C22.7121 9.16766 22.4302 8.53642 21.8254 8.25643C20.9877 7.86859 19.7331 8.27788 18.9696 9.18822C18.6576 9.56033 18.4564 9.83861 18.2948 10.0623C17.954 10.5337 17.8731 10.6457 17.2678 10.9051C17.0425 11.0017 16.8627 10.9157 16.4764 10.6808C16.0944 10.4485 15.2996 9.96531 14.6143 10.795C14.5603 10.8604 14.5083 10.9237 14.4583 10.9847C14.2692 11.2152 14.0435 11.4905 13.8994 11.6231C13.4879 11.2346 12.981 11.2855 12.5695 11.3267C12.2912 11.3546 12.0285 11.381 11.7566 11.3053C11.4784 11.2278 11.1941 11.2181 10.919 11.2086C10.6269 11.1987 10.2957 11.1873 10.1954 11.0764C10.1575 11.0345 10.0722 10.8896 10.101 10.4509C10.1607 9.5408 10.1471 8.28145 9.34347 7.85434C8.57016 7.44348 7.69686 8.11985 7.40997 8.34216C6.77049 8.83779 6.41805 9.36897 6.1348 9.79578C5.69552 10.4577 5.45361 10.8224 4.3715 10.8603C3.59396 10.8876 3.0354 11.1164 2.71109 11.5403C2.23855 12.1582 2.42843 12.9692 2.51966 13.359C2.57971 13.6158 2.80848 13.789 3.06123 13.789ZM36.8962 10.3034C36.7395 10.1093 36.5858 9.93436 36.4373 9.76512C35.763 8.99693 35.5614 8.70833 35.7567 8.22889C35.8012 8.12007 35.8404 8.00339 35.8733 7.88225C35.9538 7.58556 35.7786 7.27966 35.4819 7.19905C35.1855 7.11866 34.8793 7.29362 34.7988 7.59038C34.7777 7.66795 34.7532 7.74129 34.7258 7.80854C34.2542 8.96583 34.9387 9.7456 35.6005 10.4996C35.7417 10.6604 35.8877 10.8267 36.03 11.0029C36.5197 11.6092 36.8454 12.6006 36.8885 13.0731C35.7368 12.7737 35.0939 12.2397 34.9761 11.4837L34.9453 11.2829C34.8096 10.3909 34.6692 9.46843 33.8872 9.27299C33.3959 9.15029 32.7622 9.31337 32.3459 9.66981C31.9801 9.98313 31.8027 10.4205 31.8464 10.9011C31.86 11.0509 31.8801 11.208 31.9014 11.3744C31.9758 11.955 32.0883 12.8324 31.7644 13.0539C30.9634 13.602 30.8775 14.4543 30.7864 15.3567C30.7667 15.552 30.7464 15.7539 30.7185 15.9629C30.6391 16.5586 30.853 16.8747 31.0464 17.035C31.5337 17.4388 32.2324 17.2079 32.7938 17.0222C32.9187 16.9809 33.0365 16.9419 33.1235 16.9201C33.3251 16.8697 33.6097 17.2258 34.0178 18.0417C34.1371 18.2804 34.2696 18.4852 34.3865 18.6658C34.7727 19.2624 35.0776 19.7335 34.7348 21.3421C34.5853 22.0435 34.3682 22.273 34.2986 22.3105C34.2456 22.2759 34.1492 22.1175 34.2077 21.9274C34.4549 21.1241 34.449 20.501 34.19 20.0751C34.0213 19.7978 33.7589 19.6198 33.4313 19.5604C33.1005 19.5004 32.8922 19.5461 32.6627 19.7292C32.6046 19.7755 32.4504 19.8985 31.6728 20.0313C30.8001 20.1803 30.6313 20.0418 30.223 19.7073C30.0376 19.5553 29.8068 19.3661 29.4867 19.1815C28.9443 18.8687 28.5509 18.9535 28.3161 19.0797C27.6289 19.4496 27.5321 20.502 27.4309 22.1885C27.4166 22.4259 27.3657 22.5914 27.2875 22.6546C27.1104 22.7979 26.5462 22.712 26.0929 22.643C25.5548 22.561 24.9449 22.4682 24.3881 22.5955C23.6306 22.7687 23.0835 22.5716 22.6438 22.4132C22.3825 22.3191 22.1568 22.2379 21.9157 22.2379C21.3341 22.2379 21.1733 22.8027 21.1046 23.044C21.0807 23.128 21.0373 23.2806 21.0009 23.3293C20.9734 23.3335 20.8715 23.3401 20.6495 23.262C19.523 22.8662 18.85 23.2883 18.4047 23.5676C18.1648 23.7181 18.0216 23.8033 17.8686 23.8033C17.3673 23.8033 16.1666 23.676 15.8479 22.4965C15.5282 21.3139 14.6069 21.224 14.112 21.1756C14.0577 21.1703 13.9923 21.1639 13.9376 21.1564C13.7388 19.9976 12.5335 19.9415 11.0218 19.8712C10.0235 19.8247 9.56355 20.0936 9.43395 20.7995C9.42942 20.8238 9.42385 20.8545 9.41881 20.8758C9.39951 20.8856 9.36158 20.9015 9.29544 20.918C8.59317 21.0935 7.871 20.2059 7.78385 19.9366C7.63555 19.4782 7.11869 18.7568 5.32371 19.0774C4.32437 19.2558 4.25964 20.2325 4.2249 20.7572C4.21978 20.8344 4.21318 20.9343 4.20375 21.017C3.52723 21.0759 3.21451 21.7834 3.00303 22.2897C2.85368 21.7784 2.55432 21.0923 1.64369 20.5889C1.40868 20.459 1.12565 20.2449 1.11207 19.9622C1.10479 19.809 1.17464 19.6778 1.22831 19.6133C1.63864 19.6237 2.85227 19.5863 3.35792 18.8203C3.57006 18.4989 3.72787 17.9432 3.27471 17.1204C3.04831 16.7094 2.972 16.2864 3.04141 15.8271C3.08736 15.5231 2.87811 15.2394 2.57414 15.1934C2.27032 15.1478 1.98647 15.3567 1.94053 15.6607C1.83468 16.3611 1.95545 17.033 2.2995 17.6576C2.43956 17.9119 2.48789 18.1172 2.4288 18.2068C2.27203 18.4443 1.53413 18.5318 1.20077 18.4986C0.678572 18.4466 0.229491 18.9544 0.0721268 19.459C-0.0235535 19.7658 -0.231838 20.8245 1.10516 21.5635C1.7678 21.9297 1.88389 22.3897 1.9962 22.8347C2.08542 23.1881 2.22022 23.7221 2.79245 23.8367C3.50548 23.9792 3.81101 23.2456 4.01321 22.7601C4.09241 22.5702 4.23567 22.2264 4.33743 22.1298C4.63591 22.148 4.83848 22.0343 4.95694 21.9335C5.2811 21.6578 5.3102 21.2185 5.33588 20.8308C5.37195 20.2865 5.41953 20.1912 5.51945 20.1734C6.32586 20.0294 6.68661 20.1621 6.72454 20.2794C6.97135 21.0421 8.19812 22.3398 9.56548 21.9981C10.3835 21.7937 10.4818 21.2578 10.529 21.0003L10.5296 20.997C10.5996 20.9847 10.7334 20.9723 10.97 20.9832C11.6752 21.0161 12.2857 21.0518 12.6155 21.1577C12.8302 21.2266 12.8352 21.277 12.8474 21.3989C12.9254 22.1783 13.6537 22.2494 14.0037 22.2836C14.4664 22.3287 14.6587 22.364 14.773 22.7868C15.3071 24.763 17.2774 24.9165 17.8686 24.9165C18.3494 24.9165 18.7081 24.6915 18.9964 24.5107C19.396 24.26 19.6599 24.0944 20.2803 24.3124C20.7805 24.488 21.185 24.4899 21.5171 24.318C21.9287 24.1049 22.0732 23.6993 22.1548 23.4208C22.1934 23.4343 22.2317 23.4481 22.2665 23.4607C22.7818 23.6463 23.5605 23.9265 24.6361 23.6809C24.9869 23.6008 25.4639 23.6734 25.9253 23.7436C26.6644 23.8561 27.4285 23.9723 27.9875 23.5204C28.3214 23.2505 28.5081 22.8247 28.5422 22.2551C28.5814 21.6014 28.6523 20.4199 28.8309 20.0961C28.8554 20.1062 28.8882 20.1218 28.9302 20.146C29.1714 20.2851 29.3472 20.4291 29.5172 20.5685C30.1031 21.0486 30.5824 21.3469 31.8602 21.1289C32.6885 20.9875 33.0357 20.8269 33.2509 20.6788C33.2851 20.7705 33.3125 21.0503 33.1434 21.6C32.9829 22.1218 33.1172 22.7006 33.4857 23.0745C33.79 23.3831 34.2061 23.4989 34.5995 23.3841C35.0074 23.265 35.5507 22.8543 35.8235 21.5743C36.2623 19.5154 35.7838 18.776 35.321 18.061C35.21 17.8895 35.1051 17.7274 35.0134 17.544C34.6405 16.798 34.0159 15.5497 32.8532 15.8401C32.7261 15.8719 32.589 15.9172 32.4438 15.9652C32.2877 16.0169 32.0003 16.1119 31.8184 16.1389C31.8194 16.1298 31.8205 16.1203 31.8219 16.1101C31.8521 15.8835 31.8733 15.6725 31.894 15.4685C31.9784 14.6312 32.0348 14.2178 32.3929 13.9728C33.2789 13.3666 33.1209 12.1334 33.0055 11.2328C32.9855 11.0769 32.9667 10.9296 32.9548 10.8002C32.9438 10.679 32.9782 10.5938 33.0698 10.5153C33.2295 10.3786 33.4759 10.3365 33.5882 10.3483C33.6993 10.4989 33.786 11.0683 33.8441 11.4503L33.8755 11.655C34.0158 12.5559 34.6552 13.7323 36.9044 14.2212C37.293 14.3059 37.6423 14.1661 37.8388 13.8478C38.3549 13.0119 37.5217 11.0778 36.8962 10.3034Z"/>
</mask>
<path d="M3.06123 13.789C3.10324 13.789 3.14592 13.7842 3.1886 13.7743C3.48797 13.7042 3.67383 13.4047 3.60376 13.1053C3.55143 12.8818 3.44261 12.4168 3.59552 12.2168C3.70449 12.0743 3.99398 11.9878 4.41055 11.9732C6.06473 11.9151 6.572 11.1507 7.0625 10.4115C7.32535 10.0154 7.5971 9.6059 8.09198 9.22236C8.57928 8.84476 8.78816 8.83771 8.82201 8.83964C8.85274 8.8723 9.07038 9.15125 8.98999 10.3782C8.94775 11.0217 9.07201 11.4946 9.36982 11.8237C9.78646 12.2841 10.3934 12.3048 10.881 12.3215C11.1004 12.329 11.3076 12.3362 11.4579 12.378C11.9314 12.5099 12.3468 12.4682 12.6805 12.4347C12.8862 12.4141 13.0989 12.3928 13.144 12.4422C13.3664 12.6847 13.6204 12.8025 13.899 12.7962C14.4243 12.7818 14.7802 12.3478 15.3191 11.691C15.3684 11.6309 15.4195 11.5686 15.4726 11.5042C15.5018 11.4689 15.5229 11.4502 15.5348 11.441C15.6117 11.4582 15.7824 11.562 15.898 11.6323C16.3096 11.8824 16.9316 12.2605 17.7063 11.9286C18.559 11.5632 18.7795 11.2924 19.1971 10.7145C19.3483 10.5054 19.5364 10.2451 19.8227 9.90378C20.327 9.30253 21.0566 9.12772 21.3578 9.26697C21.4054 9.28902 21.5505 9.35612 21.4819 9.75777C21.3838 10.3319 21.4945 10.7639 21.8107 11.0418C22.3587 11.5234 23.213 11.261 23.8368 11.0695C23.9794 11.0257 24.1412 10.976 24.2118 10.9654C24.2659 10.9606 24.4282 11.0001 24.5359 11.0267C25.0756 11.16 26.1987 11.437 26.756 9.84447C27.1321 8.76987 27.4074 8.72941 28.2249 8.60939C28.3117 8.59662 28.4016 8.58341 28.4948 8.56849C30.3078 8.2784 30.6465 7.09134 30.9186 6.13744C30.9959 5.86658 31.0688 5.61079 31.1704 5.3766C31.3361 4.9941 31.6422 4.79776 32.0298 4.54925C32.5276 4.22999 33.1472 3.83272 33.4081 2.9451C33.5334 2.51947 33.8919 2.27548 34.0846 2.21269C34.0789 2.32128 34.0429 2.51487 33.9239 2.80703C33.5051 3.83487 33.419 4.40235 33.6166 4.83117C33.7977 5.22383 34.16 5.34393 34.3765 5.41564C34.46 5.44333 34.5389 5.46945 34.5771 5.49573C34.5771 5.49573 34.5805 5.4987 34.5867 5.5056C34.791 5.73534 35.1429 5.75583 35.3727 5.5514C35.6024 5.34705 35.6229 4.99514 35.4185 4.76547C35.3551 4.69429 35.2866 4.63298 35.2145 4.58295C35.0411 4.46292 34.8667 4.40517 34.7267 4.35878C34.6964 4.34875 34.6598 4.33658 34.6294 4.32545C34.6311 4.21566 34.6728 3.91979 34.9549 3.22717C35.2803 2.42877 35.2793 1.82462 34.9523 1.43158C34.7103 1.14068 34.3283 1.02429 33.9044 1.11188C33.313 1.23414 32.5857 1.7953 32.3399 2.63096C32.1961 3.11983 31.8743 3.32633 31.4287 3.61204C30.9697 3.90643 30.4494 4.24009 30.1487 4.93397C30.0181 5.23519 29.9316 5.53864 29.8479 5.83206C29.5972 6.7107 29.4317 7.29117 28.3189 7.46916C28.2306 7.48334 28.1453 7.49581 28.0631 7.50784C27.1584 7.64071 26.3037 7.76615 25.705 9.47674C25.4822 10.1136 25.3246 10.0747 24.8026 9.94579C24.5613 9.88626 24.3118 9.82473 24.048 9.86414C23.8938 9.8873 23.7158 9.94186 23.5099 10.0051C23.3002 10.0695 22.7665 10.2331 22.5638 10.2013C22.5586 10.16 22.5563 10.0802 22.5793 9.94512C22.7121 9.16766 22.4302 8.53642 21.8254 8.25643C20.9877 7.86859 19.7331 8.27788 18.9696 9.18822C18.6576 9.56033 18.4564 9.83861 18.2948 10.0623C17.954 10.5337 17.8731 10.6457 17.2678 10.9051C17.0425 11.0017 16.8627 10.9157 16.4764 10.6808C16.0944 10.4485 15.2996 9.96531 14.6143 10.795C14.5603 10.8604 14.5083 10.9237 14.4583 10.9847C14.2692 11.2152 14.0435 11.4905 13.8994 11.6231C13.4879 11.2346 12.981 11.2855 12.5695 11.3267C12.2912 11.3546 12.0285 11.381 11.7566 11.3053C11.4784 11.2278 11.1941 11.2181 10.919 11.2086C10.6269 11.1987 10.2957 11.1873 10.1954 11.0764C10.1575 11.0345 10.0722 10.8896 10.101 10.4509C10.1607 9.5408 10.1471 8.28145 9.34347 7.85434C8.57016 7.44348 7.69686 8.11985 7.40997 8.34216C6.77049 8.83779 6.41805 9.36897 6.1348 9.79578C5.69552 10.4577 5.45361 10.8224 4.3715 10.8603C3.59396 10.8876 3.0354 11.1164 2.71109 11.5403C2.23855 12.1582 2.42843 12.9692 2.51966 13.359C2.57971 13.6158 2.80848 13.789 3.06123 13.789ZM36.8962 10.3034C36.7395 10.1093 36.5858 9.93436 36.4373 9.76512C35.763 8.99693 35.5614 8.70833 35.7567 8.22889C35.8012 8.12007 35.8404 8.00339 35.8733 7.88225C35.9538 7.58556 35.7786 7.27966 35.4819 7.19905C35.1855 7.11866 34.8793 7.29362 34.7988 7.59038C34.7777 7.66795 34.7532 7.74129 34.7258 7.80854C34.2542 8.96583 34.9387 9.7456 35.6005 10.4996C35.7417 10.6604 35.8877 10.8267 36.03 11.0029C36.5197 11.6092 36.8454 12.6006 36.8885 13.0731C35.7368 12.7737 35.0939 12.2397 34.9761 11.4837L34.9453 11.2829C34.8096 10.3909 34.6692 9.46843 33.8872 9.27299C33.3959 9.15029 32.7622 9.31337 32.3459 9.66981C31.9801 9.98313 31.8027 10.4205 31.8464 10.9011C31.86 11.0509 31.8801 11.208 31.9014 11.3744C31.9758 11.955 32.0883 12.8324 31.7644 13.0539C30.9634 13.602 30.8775 14.4543 30.7864 15.3567C30.7667 15.552 30.7464 15.7539 30.7185 15.9629C30.6391 16.5586 30.853 16.8747 31.0464 17.035C31.5337 17.4388 32.2324 17.2079 32.7938 17.0222C32.9187 16.9809 33.0365 16.9419 33.1235 16.9201C33.3251 16.8697 33.6097 17.2258 34.0178 18.0417C34.1371 18.2804 34.2696 18.4852 34.3865 18.6658C34.7727 19.2624 35.0776 19.7335 34.7348 21.3421C34.5853 22.0435 34.3682 22.273 34.2986 22.3105C34.2456 22.2759 34.1492 22.1175 34.2077 21.9274C34.4549 21.1241 34.449 20.501 34.19 20.0751C34.0213 19.7978 33.7589 19.6198 33.4313 19.5604C33.1005 19.5004 32.8922 19.5461 32.6627 19.7292C32.6046 19.7755 32.4504 19.8985 31.6728 20.0313C30.8001 20.1803 30.6313 20.0418 30.223 19.7073C30.0376 19.5553 29.8068 19.3661 29.4867 19.1815C28.9443 18.8687 28.5509 18.9535 28.3161 19.0797C27.6289 19.4496 27.5321 20.502 27.4309 22.1885C27.4166 22.4259 27.3657 22.5914 27.2875 22.6546C27.1104 22.7979 26.5462 22.712 26.0929 22.643C25.5548 22.561 24.9449 22.4682 24.3881 22.5955C23.6306 22.7687 23.0835 22.5716 22.6438 22.4132C22.3825 22.3191 22.1568 22.2379 21.9157 22.2379C21.3341 22.2379 21.1733 22.8027 21.1046 23.044C21.0807 23.128 21.0373 23.2806 21.0009 23.3293C20.9734 23.3335 20.8715 23.3401 20.6495 23.262C19.523 22.8662 18.85 23.2883 18.4047 23.5676C18.1648 23.7181 18.0216 23.8033 17.8686 23.8033C17.3673 23.8033 16.1666 23.676 15.8479 22.4965C15.5282 21.3139 14.6069 21.224 14.112 21.1756C14.0577 21.1703 13.9923 21.1639 13.9376 21.1564C13.7388 19.9976 12.5335 19.9415 11.0218 19.8712C10.0235 19.8247 9.56355 20.0936 9.43395 20.7995C9.42942 20.8238 9.42385 20.8545 9.41881 20.8758C9.39951 20.8856 9.36158 20.9015 9.29544 20.918C8.59317 21.0935 7.871 20.2059 7.78385 19.9366C7.63555 19.4782 7.11869 18.7568 5.32371 19.0774C4.32437 19.2558 4.25964 20.2325 4.2249 20.7572C4.21978 20.8344 4.21318 20.9343 4.20375 21.017C3.52723 21.0759 3.21451 21.7834 3.00303 22.2897C2.85368 21.7784 2.55432 21.0923 1.64369 20.5889C1.40868 20.459 1.12565 20.2449 1.11207 19.9622C1.10479 19.809 1.17464 19.6778 1.22831 19.6133C1.63864 19.6237 2.85227 19.5863 3.35792 18.8203C3.57006 18.4989 3.72787 17.9432 3.27471 17.1204C3.04831 16.7094 2.972 16.2864 3.04141 15.8271C3.08736 15.5231 2.87811 15.2394 2.57414 15.1934C2.27032 15.1478 1.98647 15.3567 1.94053 15.6607C1.83468 16.3611 1.95545 17.033 2.2995 17.6576C2.43956 17.9119 2.48789 18.1172 2.4288 18.2068C2.27203 18.4443 1.53413 18.5318 1.20077 18.4986C0.678572 18.4466 0.229491 18.9544 0.0721268 19.459C-0.0235535 19.7658 -0.231838 20.8245 1.10516 21.5635C1.7678 21.9297 1.88389 22.3897 1.9962 22.8347C2.08542 23.1881 2.22022 23.7221 2.79245 23.8367C3.50548 23.9792 3.81101 23.2456 4.01321 22.7601C4.09241 22.5702 4.23567 22.2264 4.33743 22.1298C4.63591 22.148 4.83848 22.0343 4.95694 21.9335C5.2811 21.6578 5.3102 21.2185 5.33588 20.8308C5.37195 20.2865 5.41953 20.1912 5.51945 20.1734C6.32586 20.0294 6.68661 20.1621 6.72454 20.2794C6.97135 21.0421 8.19812 22.3398 9.56548 21.9981C10.3835 21.7937 10.4818 21.2578 10.529 21.0003L10.5296 20.997C10.5996 20.9847 10.7334 20.9723 10.97 20.9832C11.6752 21.0161 12.2857 21.0518 12.6155 21.1577C12.8302 21.2266 12.8352 21.277 12.8474 21.3989C12.9254 22.1783 13.6537 22.2494 14.0037 22.2836C14.4664 22.3287 14.6587 22.364 14.773 22.7868C15.3071 24.763 17.2774 24.9165 17.8686 24.9165C18.3494 24.9165 18.7081 24.6915 18.9964 24.5107C19.396 24.26 19.6599 24.0944 20.2803 24.3124C20.7805 24.488 21.185 24.4899 21.5171 24.318C21.9287 24.1049 22.0732 23.6993 22.1548 23.4208C22.1934 23.4343 22.2317 23.4481 22.2665 23.4607C22.7818 23.6463 23.5605 23.9265 24.6361 23.6809C24.9869 23.6008 25.4639 23.6734 25.9253 23.7436C26.6644 23.8561 27.4285 23.9723 27.9875 23.5204C28.3214 23.2505 28.5081 22.8247 28.5422 22.2551C28.5814 21.6014 28.6523 20.4199 28.8309 20.0961C28.8554 20.1062 28.8882 20.1218 28.9302 20.146C29.1714 20.2851 29.3472 20.4291 29.5172 20.5685C30.1031 21.0486 30.5824 21.3469 31.8602 21.1289C32.6885 20.9875 33.0357 20.8269 33.2509 20.6788C33.2851 20.7705 33.3125 21.0503 33.1434 21.6C32.9829 22.1218 33.1172 22.7006 33.4857 23.0745C33.79 23.3831 34.2061 23.4989 34.5995 23.3841C35.0074 23.265 35.5507 22.8543 35.8235 21.5743C36.2623 19.5154 35.7838 18.776 35.321 18.061C35.21 17.8895 35.1051 17.7274 35.0134 17.544C34.6405 16.798 34.0159 15.5497 32.8532 15.8401C32.7261 15.8719 32.589 15.9172 32.4438 15.9652C32.2877 16.0169 32.0003 16.1119 31.8184 16.1389C31.8194 16.1298 31.8205 16.1203 31.8219 16.1101C31.8521 15.8835 31.8733 15.6725 31.894 15.4685C31.9784 14.6312 32.0348 14.2178 32.3929 13.9728C33.2789 13.3666 33.1209 12.1334 33.0055 11.2328C32.9855 11.0769 32.9667 10.9296 32.9548 10.8002C32.9438 10.679 32.9782 10.5938 33.0698 10.5153C33.2295 10.3786 33.4759 10.3365 33.5882 10.3483C33.6993 10.4989 33.786 11.0683 33.8441 11.4503L33.8755 11.655C34.0158 12.5559 34.6552 13.7323 36.9044 14.2212C37.293 14.3059 37.6423 14.1661 37.8388 13.8478C38.3549 13.0119 37.5217 11.0778 36.8962 10.3034Z" fill="#323232"/>
<path d="M3.06123 13.789C3.10324 13.789 3.14592 13.7842 3.1886 13.7743C3.48797 13.7042 3.67383 13.4047 3.60376 13.1053C3.55143 12.8818 3.44261 12.4168 3.59552 12.2168C3.70449 12.0743 3.99398 11.9878 4.41055 11.9732C6.06473 11.9151 6.572 11.1507 7.0625 10.4115C7.32535 10.0154 7.5971 9.6059 8.09198 9.22236C8.57928 8.84476 8.78816 8.83771 8.82201 8.83964C8.85274 8.8723 9.07038 9.15125 8.98999 10.3782C8.94775 11.0217 9.07201 11.4946 9.36982 11.8237C9.78646 12.2841 10.3934 12.3048 10.881 12.3215C11.1004 12.329 11.3076 12.3362 11.4579 12.378C11.9314 12.5099 12.3468 12.4682 12.6805 12.4347C12.8862 12.4141 13.0989 12.3928 13.144 12.4422C13.3664 12.6847 13.6204 12.8025 13.899 12.7962C14.4243 12.7818 14.7802 12.3478 15.3191 11.691C15.3684 11.6309 15.4195 11.5686 15.4726 11.5042C15.5018 11.4689 15.5229 11.4502 15.5348 11.441C15.6117 11.4582 15.7824 11.562 15.898 11.6323C16.3096 11.8824 16.9316 12.2605 17.7063 11.9286C18.559 11.5632 18.7795 11.2924 19.1971 10.7145C19.3483 10.5054 19.5364 10.2451 19.8227 9.90378C20.327 9.30253 21.0566 9.12772 21.3578 9.26697C21.4054 9.28902 21.5505 9.35612 21.4819 9.75777C21.3838 10.3319 21.4945 10.7639 21.8107 11.0418C22.3587 11.5234 23.213 11.261 23.8368 11.0695C23.9794 11.0257 24.1412 10.976 24.2118 10.9654C24.2659 10.9606 24.4282 11.0001 24.5359 11.0267C25.0756 11.16 26.1987 11.437 26.756 9.84447C27.1321 8.76987 27.4074 8.72941 28.2249 8.60939C28.3117 8.59662 28.4016 8.58341 28.4948 8.56849C30.3078 8.2784 30.6465 7.09134 30.9186 6.13744C30.9959 5.86658 31.0688 5.61079 31.1704 5.3766C31.3361 4.9941 31.6422 4.79776 32.0298 4.54925C32.5276 4.22999 33.1472 3.83272 33.4081 2.9451C33.5334 2.51947 33.8919 2.27548 34.0846 2.21269C34.0789 2.32128 34.0429 2.51487 33.9239 2.80703C33.5051 3.83487 33.419 4.40235 33.6166 4.83117C33.7977 5.22383 34.16 5.34393 34.3765 5.41564C34.46 5.44333 34.5389 5.46945 34.5771 5.49573C34.5771 5.49573 34.5805 5.4987 34.5867 5.5056C34.791 5.73534 35.1429 5.75583 35.3727 5.5514C35.6024 5.34705 35.6229 4.99514 35.4185 4.76547C35.3551 4.69429 35.2866 4.63298 35.2145 4.58295C35.0411 4.46292 34.8667 4.40517 34.7267 4.35878C34.6964 4.34875 34.6598 4.33658 34.6294 4.32545C34.6311 4.21566 34.6728 3.91979 34.9549 3.22717C35.2803 2.42877 35.2793 1.82462 34.9523 1.43158C34.7103 1.14068 34.3283 1.02429 33.9044 1.11188C33.313 1.23414 32.5857 1.7953 32.3399 2.63096C32.1961 3.11983 31.8743 3.32633 31.4287 3.61204C30.9697 3.90643 30.4494 4.24009 30.1487 4.93397C30.0181 5.23519 29.9316 5.53864 29.8479 5.83206C29.5972 6.7107 29.4317 7.29117 28.3189 7.46916C28.2306 7.48334 28.1453 7.49581 28.0631 7.50784C27.1584 7.64071 26.3037 7.76615 25.705 9.47674C25.4822 10.1136 25.3246 10.0747 24.8026 9.94579C24.5613 9.88626 24.3118 9.82473 24.048 9.86414C23.8938 9.8873 23.7158 9.94186 23.5099 10.0051C23.3002 10.0695 22.7665 10.2331 22.5638 10.2013C22.5586 10.16 22.5563 10.0802 22.5793 9.94512C22.7121 9.16766 22.4302 8.53642 21.8254 8.25643C20.9877 7.86859 19.7331 8.27788 18.9696 9.18822C18.6576 9.56033 18.4564 9.83861 18.2948 10.0623C17.954 10.5337 17.8731 10.6457 17.2678 10.9051C17.0425 11.0017 16.8627 10.9157 16.4764 10.6808C16.0944 10.4485 15.2996 9.96531 14.6143 10.795C14.5603 10.8604 14.5083 10.9237 14.4583 10.9847C14.2692 11.2152 14.0435 11.4905 13.8994 11.6231C13.4879 11.2346 12.981 11.2855 12.5695 11.3267C12.2912 11.3546 12.0285 11.381 11.7566 11.3053C11.4784 11.2278 11.1941 11.2181 10.919 11.2086C10.6269 11.1987 10.2957 11.1873 10.1954 11.0764C10.1575 11.0345 10.0722 10.8896 10.101 10.4509C10.1607 9.5408 10.1471 8.28145 9.34347 7.85434C8.57016 7.44348 7.69686 8.11985 7.40997 8.34216C6.77049 8.83779 6.41805 9.36897 6.1348 9.79578C5.69552 10.4577 5.45361 10.8224 4.3715 10.8603C3.59396 10.8876 3.0354 11.1164 2.71109 11.5403C2.23855 12.1582 2.42843 12.9692 2.51966 13.359C2.57971 13.6158 2.80848 13.789 3.06123 13.789ZM36.8962 10.3034C36.7395 10.1093 36.5858 9.93436 36.4373 9.76512C35.763 8.99693 35.5614 8.70833 35.7567 8.22889C35.8012 8.12007 35.8404 8.00339 35.8733 7.88225C35.9538 7.58556 35.7786 7.27966 35.4819 7.19905C35.1855 7.11866 34.8793 7.29362 34.7988 7.59038C34.7777 7.66795 34.7532 7.74129 34.7258 7.80854C34.2542 8.96583 34.9387 9.7456 35.6005 10.4996C35.7417 10.6604 35.8877 10.8267 36.03 11.0029C36.5197 11.6092 36.8454 12.6006 36.8885 13.0731C35.7368 12.7737 35.0939 12.2397 34.9761 11.4837L34.9453 11.2829C34.8096 10.3909 34.6692 9.46843 33.8872 9.27299C33.3959 9.15029 32.7622 9.31337 32.3459 9.66981C31.9801 9.98313 31.8027 10.4205 31.8464 10.9011C31.86 11.0509 31.8801 11.208 31.9014 11.3744C31.9758 11.955 32.0883 12.8324 31.7644 13.0539C30.9634 13.602 30.8775 14.4543 30.7864 15.3567C30.7667 15.552 30.7464 15.7539 30.7185 15.9629C30.6391 16.5586 30.853 16.8747 31.0464 17.035C31.5337 17.4388 32.2324 17.2079 32.7938 17.0222C32.9187 16.9809 33.0365 16.9419 33.1235 16.9201C33.3251 16.8697 33.6097 17.2258 34.0178 18.0417C34.1371 18.2804 34.2696 18.4852 34.3865 18.6658C34.7727 19.2624 35.0776 19.7335 34.7348 21.3421C34.5853 22.0435 34.3682 22.273 34.2986 22.3105C34.2456 22.2759 34.1492 22.1175 34.2077 21.9274C34.4549 21.1241 34.449 20.501 34.19 20.0751C34.0213 19.7978 33.7589 19.6198 33.4313 19.5604C33.1005 19.5004 32.8922 19.5461 32.6627 19.7292C32.6046 19.7755 32.4504 19.8985 31.6728 20.0313C30.8001 20.1803 30.6313 20.0418 30.223 19.7073C30.0376 19.5553 29.8068 19.3661 29.4867 19.1815C28.9443 18.8687 28.5509 18.9535 28.3161 19.0797C27.6289 19.4496 27.5321 20.502 27.4309 22.1885C27.4166 22.4259 27.3657 22.5914 27.2875 22.6546C27.1104 22.7979 26.5462 22.712 26.0929 22.643C25.5548 22.561 24.9449 22.4682 24.3881 22.5955C23.6306 22.7687 23.0835 22.5716 22.6438 22.4132C22.3825 22.3191 22.1568 22.2379 21.9157 22.2379C21.3341 22.2379 21.1733 22.8027 21.1046 23.044C21.0807 23.128 21.0373 23.2806 21.0009 23.3293C20.9734 23.3335 20.8715 23.3401 20.6495 23.262C19.523 22.8662 18.85 23.2883 18.4047 23.5676C18.1648 23.7181 18.0216 23.8033 17.8686 23.8033C17.3673 23.8033 16.1666 23.676 15.8479 22.4965C15.5282 21.3139 14.6069 21.224 14.112 21.1756C14.0577 21.1703 13.9923 21.1639 13.9376 21.1564C13.7388 19.9976 12.5335 19.9415 11.0218 19.8712C10.0235 19.8247 9.56355 20.0936 9.43395 20.7995C9.42942 20.8238 9.42385 20.8545 9.41881 20.8758C9.39951 20.8856 9.36158 20.9015 9.29544 20.918C8.59317 21.0935 7.871 20.2059 7.78385 19.9366C7.63555 19.4782 7.11869 18.7568 5.32371 19.0774C4.32437 19.2558 4.25964 20.2325 4.2249 20.7572C4.21978 20.8344 4.21318 20.9343 4.20375 21.017C3.52723 21.0759 3.21451 21.7834 3.00303 22.2897C2.85368 21.7784 2.55432 21.0923 1.64369 20.5889C1.40868 20.459 1.12565 20.2449 1.11207 19.9622C1.10479 19.809 1.17464 19.6778 1.22831 19.6133C1.63864 19.6237 2.85227 19.5863 3.35792 18.8203C3.57006 18.4989 3.72787 17.9432 3.27471 17.1204C3.04831 16.7094 2.972 16.2864 3.04141 15.8271C3.08736 15.5231 2.87811 15.2394 2.57414 15.1934C2.27032 15.1478 1.98647 15.3567 1.94053 15.6607C1.83468 16.3611 1.95545 17.033 2.2995 17.6576C2.43956 17.9119 2.48789 18.1172 2.4288 18.2068C2.27203 18.4443 1.53413 18.5318 1.20077 18.4986C0.678572 18.4466 0.229491 18.9544 0.0721268 19.459C-0.0235535 19.7658 -0.231838 20.8245 1.10516 21.5635C1.7678 21.9297 1.88389 22.3897 1.9962 22.8347C2.08542 23.1881 2.22022 23.7221 2.79245 23.8367C3.50548 23.9792 3.81101 23.2456 4.01321 22.7601C4.09241 22.5702 4.23567 22.2264 4.33743 22.1298C4.63591 22.148 4.83848 22.0343 4.95694 21.9335C5.2811 21.6578 5.3102 21.2185 5.33588 20.8308C5.37195 20.2865 5.41953 20.1912 5.51945 20.1734C6.32586 20.0294 6.68661 20.1621 6.72454 20.2794C6.97135 21.0421 8.19812 22.3398 9.56548 21.9981C10.3835 21.7937 10.4818 21.2578 10.529 21.0003L10.5296 20.997C10.5996 20.9847 10.7334 20.9723 10.97 20.9832C11.6752 21.0161 12.2857 21.0518 12.6155 21.1577C12.8302 21.2266 12.8352 21.277 12.8474 21.3989C12.9254 22.1783 13.6537 22.2494 14.0037 22.2836C14.4664 22.3287 14.6587 22.364 14.773 22.7868C15.3071 24.763 17.2774 24.9165 17.8686 24.9165C18.3494 24.9165 18.7081 24.6915 18.9964 24.5107C19.396 24.26 19.6599 24.0944 20.2803 24.3124C20.7805 24.488 21.185 24.4899 21.5171 24.318C21.9287 24.1049 22.0732 23.6993 22.1548 23.4208C22.1934 23.4343 22.2317 23.4481 22.2665 23.4607C22.7818 23.6463 23.5605 23.9265 24.6361 23.6809C24.9869 23.6008 25.4639 23.6734 25.9253 23.7436C26.6644 23.8561 27.4285 23.9723 27.9875 23.5204C28.3214 23.2505 28.5081 22.8247 28.5422 22.2551C28.5814 21.6014 28.6523 20.4199 28.8309 20.0961C28.8554 20.1062 28.8882 20.1218 28.9302 20.146C29.1714 20.2851 29.3472 20.4291 29.5172 20.5685C30.1031 21.0486 30.5824 21.3469 31.8602 21.1289C32.6885 20.9875 33.0357 20.8269 33.2509 20.6788C33.2851 20.7705 33.3125 21.0503 33.1434 21.6C32.9829 22.1218 33.1172 22.7006 33.4857 23.0745C33.79 23.3831 34.2061 23.4989 34.5995 23.3841C35.0074 23.265 35.5507 22.8543 35.8235 21.5743C36.2623 19.5154 35.7838 18.776 35.321 18.061C35.21 17.8895 35.1051 17.7274 35.0134 17.544C34.6405 16.798 34.0159 15.5497 32.8532 15.8401C32.7261 15.8719 32.589 15.9172 32.4438 15.9652C32.2877 16.0169 32.0003 16.1119 31.8184 16.1389C31.8194 16.1298 31.8205 16.1203 31.8219 16.1101C31.8521 15.8835 31.8733 15.6725 31.894 15.4685C31.9784 14.6312 32.0348 14.2178 32.3929 13.9728C33.2789 13.3666 33.1209 12.1334 33.0055 11.2328C32.9855 11.0769 32.9667 10.9296 32.9548 10.8002C32.9438 10.679 32.9782 10.5938 33.0698 10.5153C33.2295 10.3786 33.4759 10.3365 33.5882 10.3483C33.6993 10.4989 33.786 11.0683 33.8441 11.4503L33.8755 11.655C34.0158 12.5559 34.6552 13.7323 36.9044 14.2212C37.293 14.3059 37.6423 14.1661 37.8388 13.8478C38.3549 13.0119 37.5217 11.0778 36.8962 10.3034Z" stroke="#323232" stroke-width="0.4" mask="url(#path-1-outside-1)"/>
</svg>
