<svg width="26" height="28" viewBox="0 0 26 28" fill="none" xmlns="http://www.w3.org/2000/svg">
<mask id="path-1-outside-1" maskUnits="userSpaceOnUse" x="16.375" y="-1" width="3" height="5" fill="black">
<rect fill="white" x="16.375" y="-1" width="3" height="5"/>
<path d="M17.9219 0C17.6199 0 17.375 0.244891 17.375 0.546875V3.0625C17.375 3.36448 17.6199 3.60938 17.9219 3.60938C18.2239 3.60938 18.4688 3.36448 18.4688 3.0625V0.546875C18.4688 0.244891 18.2239 0 17.9219 0Z"/>
</mask>
<path d="M17.9219 0C17.6199 0 17.375 0.244891 17.375 0.546875V3.0625C17.375 3.36448 17.6199 3.60938 17.9219 3.60938C18.2239 3.60938 18.4688 3.36448 18.4688 3.0625V0.546875C18.4688 0.244891 18.2239 0 17.9219 0Z" fill="#FF8D20"/>
<path d="M17.9219 0C17.6199 0 17.375 0.244891 17.375 0.546875V3.0625C17.375 3.36448 17.6199 3.60938 17.9219 3.60938C18.2239 3.60938 18.4688 3.36448 18.4688 3.0625V0.546875C18.4688 0.244891 18.2239 0 17.9219 0Z" stroke="#FF8D20" stroke-width="0.4" mask="url(#path-1-outside-1)"/>
<mask id="path-2-outside-2" maskUnits="userSpaceOnUse" x="3.79688" y="16.0625" width="3" height="3" fill="black">
<rect fill="white" x="3.79688" y="16.0625" width="3" height="3"/>
<path d="M5.34375 17.0625C5.04188 17.0625 4.79688 17.3075 4.79688 17.6094C4.79688 17.9112 5.04188 18.1562 5.34375 18.1562C5.64562 18.1562 5.89062 17.9112 5.89062 17.6094C5.89062 17.3075 5.64562 17.0625 5.34375 17.0625Z"/>
</mask>
<path d="M5.34375 17.0625C5.04188 17.0625 4.79688 17.3075 4.79688 17.6094C4.79688 17.9112 5.04188 18.1562 5.34375 18.1562C5.64562 18.1562 5.89062 17.9112 5.89062 17.6094C5.89062 17.3075 5.64562 17.0625 5.34375 17.0625Z" fill="#FF8D20"/>
<path d="M5.34375 17.0625C5.04188 17.0625 4.79688 17.3075 4.79688 17.6094C4.79688 17.9112 5.04188 18.1562 5.34375 18.1562C5.64562 18.1562 5.89062 17.9112 5.89062 17.6094C5.89062 17.3075 5.64562 17.0625 5.34375 17.0625Z" stroke="#FF8D20" stroke-width="0.4" mask="url(#path-2-outside-2)"/>
<mask id="path-3-outside-3" maskUnits="userSpaceOnUse" x="-0.578125" y="4.79688" width="27" height="24" fill="black">
<rect fill="white" x="-0.578125" y="4.79688" width="27" height="24"/>
<path d="M25.5781 15.9688C25.5781 14.7626 24.5968 13.7812 23.3906 13.7812H19.3081C19.9401 12.1623 20.1959 10.2568 20.1466 8.56056C20.1372 8.23687 20.1248 8.04967 20.108 7.93182C20.0797 6.75019 19.1095 5.79688 17.9219 5.79688C16.7157 5.79688 15.7344 6.77819 15.7344 7.98438V8.53125C15.7344 11.99 11.293 13.9333 7.94119 14.7667C7.68777 14.1873 7.10928 13.7812 6.4375 13.7812H0.96875C0.666766 13.7812 0.421875 14.0261 0.421875 14.3281V27.4531C0.421875 27.7551 0.666766 28 0.96875 28H6.4375C7.1048 28 7.67995 27.5993 7.93599 27.0261C8.21353 27.0973 8.47116 27.1645 8.709 27.2267C10.6184 27.7254 11.6702 28 14.2283 28H20.1094C21.3156 28 22.2969 27.0187 22.2969 25.8125C22.2969 25.3627 22.1603 24.9444 21.9266 24.5964C22.7715 24.3009 23.3906 23.4937 23.3906 22.5312C23.3906 22.0831 23.2574 21.6634 23.0244 21.3138C23.8655 21.0178 24.4844 20.2125 24.4844 19.25C24.4844 18.8003 24.3478 18.3819 24.1141 18.0339C24.959 17.7384 25.5781 16.9312 25.5781 15.9688ZM6.98438 26.3594C6.98438 26.6609 6.73905 26.9062 6.4375 26.9062H1.51562V14.875H6.4375C6.73905 14.875 6.98438 15.1203 6.98438 15.4219V26.3594ZM23.3906 17.0625C22.2176 17.0625 21.938 17.0625 20.6562 17.0625C20.3543 17.0625 20.1094 17.3074 20.1094 17.6094C20.1094 17.9114 20.3543 18.1562 20.6562 18.1562H22.2969C22.9 18.1562 23.3906 18.6469 23.3906 19.25C23.3906 19.8541 22.901 20.3438 22.2969 20.3438H19.5625C19.2605 20.3438 19.0156 20.5886 19.0156 20.8906C19.0156 21.1926 19.2605 21.4375 19.5625 21.4375H21.2031C21.7991 21.4375 22.2969 21.9136 22.2969 22.5312C22.2969 23.1353 21.8072 23.625 21.2031 23.625C20.0301 23.625 19.7505 23.625 18.4688 23.625C18.1668 23.625 17.9219 23.8699 17.9219 24.1719C17.9219 24.4739 18.1668 24.7188 18.4688 24.7188H20.1094C20.7125 24.7188 21.2031 25.2094 21.2031 25.8125C21.2031 26.4156 20.7125 26.9062 20.1094 26.9062H14.2283C11.8107 26.9062 10.8665 26.6597 8.98539 26.1684C8.70982 26.0964 8.40756 26.0175 8.07812 25.9335V15.8607C12.0357 14.918 16.8281 12.617 16.8281 8.53125V7.98438C16.8281 7.38128 17.3188 6.89062 17.9219 6.89062C18.5239 6.89062 19.0145 7.38052 19.0156 7.98268V7.98438C19.0156 8.22205 19.3123 11.1389 18.1228 13.7812H16.2812C15.9793 13.7812 15.7344 14.0261 15.7344 14.3281C15.7344 14.6301 15.9793 14.875 16.2812 14.875C16.6631 14.875 22.7673 14.875 23.3906 14.875C23.9937 14.875 24.4844 15.3657 24.4844 15.9688C24.4844 16.5728 23.9947 17.0625 23.3906 17.0625Z"/>
</mask>
<path d="M25.5781 15.9688C25.5781 14.7626 24.5968 13.7812 23.3906 13.7812H19.3081C19.9401 12.1623 20.1959 10.2568 20.1466 8.56056C20.1372 8.23687 20.1248 8.04967 20.108 7.93182C20.0797 6.75019 19.1095 5.79688 17.9219 5.79688C16.7157 5.79688 15.7344 6.77819 15.7344 7.98438V8.53125C15.7344 11.99 11.293 13.9333 7.94119 14.7667C7.68777 14.1873 7.10928 13.7812 6.4375 13.7812H0.96875C0.666766 13.7812 0.421875 14.0261 0.421875 14.3281V27.4531C0.421875 27.7551 0.666766 28 0.96875 28H6.4375C7.1048 28 7.67995 27.5993 7.93599 27.0261C8.21353 27.0973 8.47116 27.1645 8.709 27.2267C10.6184 27.7254 11.6702 28 14.2283 28H20.1094C21.3156 28 22.2969 27.0187 22.2969 25.8125C22.2969 25.3627 22.1603 24.9444 21.9266 24.5964C22.7715 24.3009 23.3906 23.4937 23.3906 22.5312C23.3906 22.0831 23.2574 21.6634 23.0244 21.3138C23.8655 21.0178 24.4844 20.2125 24.4844 19.25C24.4844 18.8003 24.3478 18.3819 24.1141 18.0339C24.959 17.7384 25.5781 16.9312 25.5781 15.9688ZM6.98438 26.3594C6.98438 26.6609 6.73905 26.9062 6.4375 26.9062H1.51562V14.875H6.4375C6.73905 14.875 6.98438 15.1203 6.98438 15.4219V26.3594ZM23.3906 17.0625C22.2176 17.0625 21.938 17.0625 20.6562 17.0625C20.3543 17.0625 20.1094 17.3074 20.1094 17.6094C20.1094 17.9114 20.3543 18.1562 20.6562 18.1562H22.2969C22.9 18.1562 23.3906 18.6469 23.3906 19.25C23.3906 19.8541 22.901 20.3438 22.2969 20.3438H19.5625C19.2605 20.3438 19.0156 20.5886 19.0156 20.8906C19.0156 21.1926 19.2605 21.4375 19.5625 21.4375H21.2031C21.7991 21.4375 22.2969 21.9136 22.2969 22.5312C22.2969 23.1353 21.8072 23.625 21.2031 23.625C20.0301 23.625 19.7505 23.625 18.4688 23.625C18.1668 23.625 17.9219 23.8699 17.9219 24.1719C17.9219 24.4739 18.1668 24.7188 18.4688 24.7188H20.1094C20.7125 24.7188 21.2031 25.2094 21.2031 25.8125C21.2031 26.4156 20.7125 26.9062 20.1094 26.9062H14.2283C11.8107 26.9062 10.8665 26.6597 8.98539 26.1684C8.70982 26.0964 8.40756 26.0175 8.07812 25.9335V15.8607C12.0357 14.918 16.8281 12.617 16.8281 8.53125V7.98438C16.8281 7.38128 17.3188 6.89062 17.9219 6.89062C18.5239 6.89062 19.0145 7.38052 19.0156 7.98268V7.98438C19.0156 8.22205 19.3123 11.1389 18.1228 13.7812H16.2812C15.9793 13.7812 15.7344 14.0261 15.7344 14.3281C15.7344 14.6301 15.9793 14.875 16.2812 14.875C16.6631 14.875 22.7673 14.875 23.3906 14.875C23.9937 14.875 24.4844 15.3657 24.4844 15.9688C24.4844 16.5728 23.9947 17.0625 23.3906 17.0625Z" fill="#FF8D20"/>
<path d="M25.5781 15.9688C25.5781 14.7626 24.5968 13.7812 23.3906 13.7812H19.3081C19.9401 12.1623 20.1959 10.2568 20.1466 8.56056C20.1372 8.23687 20.1248 8.04967 20.108 7.93182C20.0797 6.75019 19.1095 5.79688 17.9219 5.79688C16.7157 5.79688 15.7344 6.77819 15.7344 7.98438V8.53125C15.7344 11.99 11.293 13.9333 7.94119 14.7667C7.68777 14.1873 7.10928 13.7812 6.4375 13.7812H0.96875C0.666766 13.7812 0.421875 14.0261 0.421875 14.3281V27.4531C0.421875 27.7551 0.666766 28 0.96875 28H6.4375C7.1048 28 7.67995 27.5993 7.93599 27.0261C8.21353 27.0973 8.47116 27.1645 8.709 27.2267C10.6184 27.7254 11.6702 28 14.2283 28H20.1094C21.3156 28 22.2969 27.0187 22.2969 25.8125C22.2969 25.3627 22.1603 24.9444 21.9266 24.5964C22.7715 24.3009 23.3906 23.4937 23.3906 22.5312C23.3906 22.0831 23.2574 21.6634 23.0244 21.3138C23.8655 21.0178 24.4844 20.2125 24.4844 19.25C24.4844 18.8003 24.3478 18.3819 24.1141 18.0339C24.959 17.7384 25.5781 16.9312 25.5781 15.9688ZM6.98438 26.3594C6.98438 26.6609 6.73905 26.9062 6.4375 26.9062H1.51562V14.875H6.4375C6.73905 14.875 6.98438 15.1203 6.98438 15.4219V26.3594ZM23.3906 17.0625C22.2176 17.0625 21.938 17.0625 20.6562 17.0625C20.3543 17.0625 20.1094 17.3074 20.1094 17.6094C20.1094 17.9114 20.3543 18.1562 20.6562 18.1562H22.2969C22.9 18.1562 23.3906 18.6469 23.3906 19.25C23.3906 19.8541 22.901 20.3438 22.2969 20.3438H19.5625C19.2605 20.3438 19.0156 20.5886 19.0156 20.8906C19.0156 21.1926 19.2605 21.4375 19.5625 21.4375H21.2031C21.7991 21.4375 22.2969 21.9136 22.2969 22.5312C22.2969 23.1353 21.8072 23.625 21.2031 23.625C20.0301 23.625 19.7505 23.625 18.4688 23.625C18.1668 23.625 17.9219 23.8699 17.9219 24.1719C17.9219 24.4739 18.1668 24.7188 18.4688 24.7188H20.1094C20.7125 24.7188 21.2031 25.2094 21.2031 25.8125C21.2031 26.4156 20.7125 26.9062 20.1094 26.9062H14.2283C11.8107 26.9062 10.8665 26.6597 8.98539 26.1684C8.70982 26.0964 8.40756 26.0175 8.07812 25.9335V15.8607C12.0357 14.918 16.8281 12.617 16.8281 8.53125V7.98438C16.8281 7.38128 17.3188 6.89062 17.9219 6.89062C18.5239 6.89062 19.0145 7.38052 19.0156 7.98268V7.98438C19.0156 8.22205 19.3123 11.1389 18.1228 13.7812H16.2812C15.9793 13.7812 15.7344 14.0261 15.7344 14.3281C15.7344 14.6301 15.9793 14.875 16.2812 14.875C16.6631 14.875 22.7673 14.875 23.3906 14.875C23.9937 14.875 24.4844 15.3657 24.4844 15.9688C24.4844 16.5728 23.9947 17.0625 23.3906 17.0625Z" stroke="#FF8D20" stroke-width="0.4" mask="url(#path-3-outside-3)"/>
<mask id="path-4-outside-4" maskUnits="userSpaceOnUse" x="3.79688" y="18.25" width="3" height="7" fill="black">
<rect fill="white" x="3.79688" y="18.25" width="3" height="7"/>
<path d="M5.34375 19.25C5.04177 19.25 4.79688 19.4949 4.79688 19.7969V24.1719C4.79688 24.4739 5.04177 24.7188 5.34375 24.7188C5.64573 24.7188 5.89062 24.4739 5.89062 24.1719V19.7969C5.89062 19.4949 5.64573 19.25 5.34375 19.25Z"/>
</mask>
<path d="M5.34375 19.25C5.04177 19.25 4.79688 19.4949 4.79688 19.7969V24.1719C4.79688 24.4739 5.04177 24.7188 5.34375 24.7188C5.64573 24.7188 5.89062 24.4739 5.89062 24.1719V19.7969C5.89062 19.4949 5.64573 19.25 5.34375 19.25Z" fill="#FF8D20"/>
<path d="M5.34375 19.25C5.04177 19.25 4.79688 19.4949 4.79688 19.7969V24.1719C4.79688 24.4739 5.04177 24.7188 5.34375 24.7188C5.64573 24.7188 5.89062 24.4739 5.89062 24.1719V19.7969C5.89062 19.4949 5.64573 19.25 5.34375 19.25Z" stroke="#FF8D20" stroke-width="0.4" mask="url(#path-4-outside-4)"/>
<mask id="path-5-outside-5" maskUnits="userSpaceOnUse" x="9.8125" y="5.89062" width="5" height="3" fill="black">
<rect fill="white" x="9.8125" y="5.89062" width="5" height="3"/>
<path d="M13.5469 6.89062H11.3594C11.0574 6.89062 10.8125 7.13552 10.8125 7.4375C10.8125 7.73948 11.0574 7.98438 11.3594 7.98438H13.5469C13.8489 7.98438 14.0938 7.73948 14.0938 7.4375C14.0938 7.13552 13.8489 6.89062 13.5469 6.89062Z"/>
</mask>
<path d="M13.5469 6.89062H11.3594C11.0574 6.89062 10.8125 7.13552 10.8125 7.4375C10.8125 7.73948 11.0574 7.98438 11.3594 7.98438H13.5469C13.8489 7.98438 14.0938 7.73948 14.0938 7.4375C14.0938 7.13552 13.8489 6.89062 13.5469 6.89062Z" fill="#FF8D20"/>
<path d="M13.5469 6.89062H11.3594C11.0574 6.89062 10.8125 7.13552 10.8125 7.4375C10.8125 7.73948 11.0574 7.98438 11.3594 7.98438H13.5469C13.8489 7.98438 14.0938 7.73948 14.0938 7.4375C14.0938 7.13552 13.8489 6.89062 13.5469 6.89062Z" stroke="#FF8D20" stroke-width="0.4" mask="url(#path-5-outside-5)"/>
<mask id="path-6-outside-6" maskUnits="userSpaceOnUse" x="20.75" y="5.89062" width="5" height="3" fill="black">
<rect fill="white" x="20.75" y="5.89062" width="5" height="3"/>
<path d="M24.4844 6.89062H22.2969C21.9949 6.89062 21.75 7.13552 21.75 7.4375C21.75 7.73948 21.9949 7.98438 22.2969 7.98438H24.4844C24.7864 7.98438 25.0312 7.73948 25.0312 7.4375C25.0312 7.13552 24.7864 6.89062 24.4844 6.89062Z"/>
</mask>
<path d="M24.4844 6.89062H22.2969C21.9949 6.89062 21.75 7.13552 21.75 7.4375C21.75 7.73948 21.9949 7.98438 22.2969 7.98438H24.4844C24.7864 7.98438 25.0312 7.73948 25.0312 7.4375C25.0312 7.13552 24.7864 6.89062 24.4844 6.89062Z" fill="#FF8D20"/>
<path d="M24.4844 6.89062H22.2969C21.9949 6.89062 21.75 7.13552 21.75 7.4375C21.75 7.73948 21.9949 7.98438 22.2969 7.98438H24.4844C24.7864 7.98438 25.0312 7.73948 25.0312 7.4375C25.0312 7.13552 24.7864 6.89062 24.4844 6.89062Z" stroke="#FF8D20" stroke-width="0.4" mask="url(#path-6-outside-6)"/>
<mask id="path-7-outside-7" maskUnits="userSpaceOnUse" x="19.4688" y="1.25049" width="4" height="4" fill="black">
<rect fill="white" x="19.4688" y="1.25049" width="4" height="4"/>
<path d="M22.9489 2.41061C22.7353 2.19711 22.3891 2.19711 22.1754 2.41061L20.6289 3.95712C20.4154 4.17067 20.4154 4.51696 20.6289 4.73057C20.8426 4.94412 21.1887 4.94407 21.4024 4.73057L22.9489 3.18406C23.1624 2.9705 23.1624 2.62422 22.9489 2.41061Z"/>
</mask>
<path d="M22.9489 2.41061C22.7353 2.19711 22.3891 2.19711 22.1754 2.41061L20.6289 3.95712C20.4154 4.17067 20.4154 4.51696 20.6289 4.73057C20.8426 4.94412 21.1887 4.94407 21.4024 4.73057L22.9489 3.18406C23.1624 2.9705 23.1624 2.62422 22.9489 2.41061Z" fill="#FF8D20"/>
<path d="M22.9489 2.41061C22.7353 2.19711 22.3891 2.19711 22.1754 2.41061L20.6289 3.95712C20.4154 4.17067 20.4154 4.51696 20.6289 4.73057C20.8426 4.94412 21.1887 4.94407 21.4024 4.73057L22.9489 3.18406C23.1624 2.9705 23.1624 2.62422 22.9489 2.41061Z" stroke="#FF8D20" stroke-width="0.4" mask="url(#path-7-outside-7)"/>
<mask id="path-8-outside-8" maskUnits="userSpaceOnUse" x="11.7344" y="1.25049" width="4" height="4" fill="black">
<rect fill="white" x="11.7344" y="1.25049" width="4" height="4"/>
<path d="M15.2145 3.95712L13.668 2.41061C13.4544 2.19711 13.1082 2.19711 12.8945 2.41061C12.681 2.62417 12.681 2.97045 12.8945 3.18406L14.441 4.73057C14.6548 4.94412 15.0009 4.94407 15.2145 4.73057C15.428 4.51701 15.428 4.17073 15.2145 3.95712Z"/>
</mask>
<path d="M15.2145 3.95712L13.668 2.41061C13.4544 2.19711 13.1082 2.19711 12.8945 2.41061C12.681 2.62417 12.681 2.97045 12.8945 3.18406L14.441 4.73057C14.6548 4.94412 15.0009 4.94407 15.2145 4.73057C15.428 4.51701 15.428 4.17073 15.2145 3.95712Z" fill="#FF8D20"/>
<path d="M15.2145 3.95712L13.668 2.41061C13.4544 2.19711 13.1082 2.19711 12.8945 2.41061C12.681 2.62417 12.681 2.97045 12.8945 3.18406L14.441 4.73057C14.6548 4.94412 15.0009 4.94407 15.2145 4.73057C15.428 4.51701 15.428 4.17073 15.2145 3.95712Z" stroke="#FF8D20" stroke-width="0.4" mask="url(#path-8-outside-8)"/>
</svg>
