<svg width="26" height="26" viewBox="0 0 26 26" fill="none" xmlns="http://www.w3.org/2000/svg">
<path d="M25.9998 24.8548C25.9996 23.9372 25.4539 23.112 24.6095 22.7528L18.1325 19.9971V18.3822C18.8182 17.5213 19.2518 16.4959 19.397 15.395H20.7211C21.9811 15.395 23.0063 14.3698 23.0063 13.1098V9.83379C23.0063 8.68168 22.149 7.72655 21.0389 7.57122C20.8743 2.61506 18.1033 0 13 0C7.89668 0 5.12573 2.61506 4.96109 7.57122C3.85104 7.72655 2.99371 8.68168 2.99371 9.83379V13.1098C2.99371 14.3698 4.01886 15.395 5.27887 15.395H6.60295C6.74815 16.4961 7.18178 17.5215 7.86752 18.3822V19.9971L1.39073 22.7528C0.546097 23.112 0.000396729 23.9372 0 24.855V25.2381C0 25.4402 0.0801391 25.634 0.22316 25.7768C0.365982 25.9197 0.559784 26 0.761719 26H25.2383C25.4404 26 25.6342 25.9197 25.777 25.7768C25.9199 25.6338 26 25.44 26 25.2381L25.9998 24.8548ZM16.6098 20.5315C16.6104 20.5497 16.6531 22.3985 15.5611 23.5357C14.9614 24.16 14.0997 24.4764 13 24.4764C11.9042 24.4764 11.0447 24.1621 10.4455 23.5424C9.34038 22.3993 9.38977 20.5475 9.39017 20.5315C9.39076 20.5211 9.39096 20.511 9.39096 20.5007V19.7465C10.434 20.4065 11.6781 20.761 13 20.761C14.3219 20.761 15.566 20.4065 16.609 19.7465V20.5007C16.609 20.511 16.6092 20.5211 16.6098 20.5315ZM17.9282 14.2256L16.4791 15.1918C16.0189 15.4987 15.4831 15.661 14.9297 15.661H13.6413C13.2208 15.661 12.8796 16.002 12.8796 16.4227C12.8796 16.8434 13.2208 17.1844 13.6413 17.1844H14.9297C15.7848 17.1844 16.613 16.9337 17.3243 16.4592L17.6159 16.2648C16.9286 18.0384 15.1707 19.2375 13 19.2375C10.1906 19.2375 8.07184 17.2291 8.07184 14.5656V8.39028C8.37216 6.99418 8.80717 6.10689 9.33165 5.82243C9.85394 5.53877 10.6129 5.83374 11.3468 6.11879C11.9187 6.34076 12.4589 6.55063 13 6.55063C13.5461 6.55063 14.0797 6.33858 14.6448 6.11423C15.3796 5.82223 16.0737 5.54651 16.5878 5.8147C16.9625 6.01009 17.4967 6.61847 17.9282 8.4V14.2256ZM21.4828 9.83379V13.1098C21.4828 13.5297 21.1411 13.8715 20.7211 13.8715H19.4516V9.07206H20.7211C21.1411 9.07206 21.4828 9.41384 21.4828 9.83379ZM7.84253 3.38948C8.89743 2.15128 10.6325 1.52345 13 1.52345C15.3675 1.52345 17.1026 2.15128 18.1575 3.38948C18.988 4.36444 19.4431 5.76233 19.5135 7.54861H19.2798C18.8198 5.91487 18.1815 4.9276 17.2922 4.46382C16.1593 3.87309 15.0076 4.33052 14.0823 4.69829C13.6752 4.85996 13.2543 5.02718 12.9998 5.02718C12.7441 5.02718 12.3141 4.86016 11.8983 4.69869C10.9402 4.32636 9.74762 3.86317 8.60484 4.48326C7.74315 4.95101 7.11929 5.95692 6.7061 7.54861H6.48651C6.55673 5.76233 7.01198 4.36444 7.84253 3.38948ZM4.51715 13.1098V9.83379C4.51715 9.41384 4.85893 9.07206 5.27887 9.07206H6.5484V13.8715H5.27887C4.85893 13.8715 4.51715 13.5297 4.51715 13.1098ZM1.98701 24.1546L7.9548 21.6155C8.0885 22.4421 8.42056 23.5668 9.23465 24.4766H1.62421C1.70494 24.3355 1.8307 24.2211 1.98701 24.1546ZM16.7654 24.4766C17.5794 23.5668 17.9115 22.4421 18.0452 21.6155L24.013 24.1546C24.1693 24.2211 24.2949 24.3355 24.3758 24.4766H16.7654Z" fill="#FF8D20"/>
</svg>
