<svg width="18" height="28" viewBox="0 0 18 28" fill="none" xmlns="http://www.w3.org/2000/svg">
<mask id="path-1-outside-1" maskUnits="userSpaceOnUse" x="-0.398438" y="-1" width="19" height="30" fill="black">
<rect fill="white" x="-0.398438" y="-1" width="19" height="30"/>
<path d="M16.0016 0H2.00156C1.22839 0 0.601562 0.626773 0.601562 1.4V26.6C0.601562 27.3732 1.22834 28 2.00156 28H16.0016C16.7747 28 17.4016 27.3732 17.4016 26.6V1.4C17.4016 0.626773 16.7747 0 16.0016 0ZM16.4682 3.73335H5.73491C5.47717 3.73335 5.26826 3.94226 5.26826 4.2C5.26826 4.45774 5.47717 4.66665 5.73491 4.66665H16.4683V22.8666H15.0683C14.8105 22.8666 14.6016 23.0756 14.6016 23.3333C14.6016 23.591 14.8105 23.7999 15.0683 23.7999H16.4683V26.5999C16.4683 26.8577 16.2594 27.0666 16.0016 27.0666H2.00156C1.74382 27.0666 1.53491 26.8577 1.53491 26.5999V23.7999H12.2683C12.526 23.7999 12.7349 23.591 12.7349 23.3333C12.7349 23.0756 12.526 22.8666 12.2683 22.8666H1.53491V4.66665H2.93491C3.19266 4.66665 3.40156 4.45774 3.40156 4.2C3.40156 3.94226 3.19266 3.73335 2.93491 3.73335H1.53491V1.4C1.53491 1.14226 1.74382 0.933352 2.00156 0.933352H16.0016C16.2593 0.933352 16.4682 1.14226 16.4682 1.4V3.73335Z"/>
</mask>
<path d="M16.0016 0H2.00156C1.22839 0 0.601562 0.626773 0.601562 1.4V26.6C0.601562 27.3732 1.22834 28 2.00156 28H16.0016C16.7747 28 17.4016 27.3732 17.4016 26.6V1.4C17.4016 0.626773 16.7747 0 16.0016 0ZM16.4682 3.73335H5.73491C5.47717 3.73335 5.26826 3.94226 5.26826 4.2C5.26826 4.45774 5.47717 4.66665 5.73491 4.66665H16.4683V22.8666H15.0683C14.8105 22.8666 14.6016 23.0756 14.6016 23.3333C14.6016 23.591 14.8105 23.7999 15.0683 23.7999H16.4683V26.5999C16.4683 26.8577 16.2594 27.0666 16.0016 27.0666H2.00156C1.74382 27.0666 1.53491 26.8577 1.53491 26.5999V23.7999H12.2683C12.526 23.7999 12.7349 23.591 12.7349 23.3333C12.7349 23.0756 12.526 22.8666 12.2683 22.8666H1.53491V4.66665H2.93491C3.19266 4.66665 3.40156 4.45774 3.40156 4.2C3.40156 3.94226 3.19266 3.73335 2.93491 3.73335H1.53491V1.4C1.53491 1.14226 1.74382 0.933352 2.00156 0.933352H16.0016C16.2593 0.933352 16.4682 1.14226 16.4682 1.4V3.73335Z" fill="#FF8D20"/>
<path d="M16.0016 0H2.00156C1.22839 0 0.601562 0.626773 0.601562 1.4V26.6C0.601562 27.3732 1.22834 28 2.00156 28H16.0016C16.7747 28 17.4016 27.3732 17.4016 26.6V1.4C17.4016 0.626773 16.7747 0 16.0016 0ZM16.4682 3.73335H5.73491C5.47717 3.73335 5.26826 3.94226 5.26826 4.2C5.26826 4.45774 5.47717 4.66665 5.73491 4.66665H16.4683V22.8666H15.0683C14.8105 22.8666 14.6016 23.0756 14.6016 23.3333C14.6016 23.591 14.8105 23.7999 15.0683 23.7999H16.4683V26.5999C16.4683 26.8577 16.2594 27.0666 16.0016 27.0666H2.00156C1.74382 27.0666 1.53491 26.8577 1.53491 26.5999V23.7999H12.2683C12.526 23.7999 12.7349 23.591 12.7349 23.3333C12.7349 23.0756 12.526 22.8666 12.2683 22.8666H1.53491V4.66665H2.93491C3.19266 4.66665 3.40156 4.45774 3.40156 4.2C3.40156 3.94226 3.19266 3.73335 2.93491 3.73335H1.53491V1.4C1.53491 1.14226 1.74382 0.933352 2.00156 0.933352H16.0016C16.2593 0.933352 16.4682 1.14226 16.4682 1.4V3.73335Z" stroke="#FF8D20" stroke-width="0.6" mask="url(#path-1-outside-1)"/>
<mask id="path-2-outside-2" maskUnits="userSpaceOnUse" x="7.07031" y="24.2" width="4" height="3" fill="black">
<rect fill="white" x="7.07031" y="24.2" width="4" height="3"/>
<path d="M9.47032 25.2H8.53696C8.27922 25.2 8.07031 25.4089 8.07031 25.6666C8.07031 25.9243 8.27922 26.1333 8.53696 26.1333H9.47032C9.72806 26.1333 9.93697 25.9243 9.93697 25.6666C9.93697 25.4089 9.72806 25.2 9.47032 25.2Z"/>
</mask>
<path d="M9.47032 25.2H8.53696C8.27922 25.2 8.07031 25.4089 8.07031 25.6666C8.07031 25.9243 8.27922 26.1333 8.53696 26.1333H9.47032C9.72806 26.1333 9.93697 25.9243 9.93697 25.6666C9.93697 25.4089 9.72806 25.2 9.47032 25.2Z" fill="#FF8D20"/>
<path d="M9.47032 25.2H8.53696C8.27922 25.2 8.07031 25.4089 8.07031 25.6666C8.07031 25.9243 8.27922 26.1333 8.53696 26.1333H9.47032C9.72806 26.1333 9.93697 25.9243 9.93697 25.6666C9.93697 25.4089 9.72806 25.2 9.47032 25.2Z" stroke="#FF8D20" stroke-width="0.6" mask="url(#path-2-outside-2)"/>
<mask id="path-3-outside-3" maskUnits="userSpaceOnUse" x="1.46875" y="6.46655" width="15" height="15" fill="black">
<rect fill="white" x="1.46875" y="6.46655" width="15" height="15"/>
<path d="M4.46822 7.60903L3.40515 8.24603C3.01414 8.47648 2.72763 8.84951 2.60573 9.28668C2.20531 10.7469 2.49001 13.2496 6.12208 16.8812C8.99766 19.7563 11.1654 20.5333 12.6685 20.5333C13.0224 20.5348 13.375 20.4888 13.7166 20.3966C14.1535 20.2745 14.5261 19.988 14.7564 19.5972L15.3957 18.5346C15.6704 18.0788 15.5376 17.4874 15.0942 17.193L12.549 15.4985C12.1138 15.2117 11.5315 15.3065 11.2097 15.7164L10.47 16.6675C10.4523 16.692 10.4193 16.6997 10.3925 16.6857L10.2525 16.6077C9.44331 16.1658 8.71351 15.5918 8.09324 14.9095C7.41101 14.2893 6.83701 13.5595 6.39503 12.7503L6.3171 12.6075C6.30288 12.5809 6.31065 12.5479 6.33531 12.5305L7.28682 11.7903C7.69676 11.4687 7.79115 10.8862 7.50382 10.4515L5.80982 7.90998C5.51483 7.4675 4.9241 7.33499 4.46822 7.60903ZM5.03287 8.42803L5.95408 9.81031L6.72687 10.9667C6.74497 10.9945 6.73912 11.0314 6.71336 11.0522L5.76186 11.7918C5.37172 12.0908 5.26076 12.6311 5.50144 13.0597L5.57515 13.1951C6.05821 14.0837 6.68608 14.8856 7.43294 15.5676C8.11501 16.3145 8.91683 16.9423 9.80545 17.4254L9.94031 17.4991C10.3691 17.7397 10.9094 17.6287 11.2087 17.2387L11.9484 16.2876C11.9688 16.2617 12.0056 16.2557 12.0333 16.2736L14.5738 17.9671C14.6021 17.9858 14.6106 18.0236 14.593 18.0525L13.956 19.1147C13.849 19.2994 13.6748 19.4355 13.4697 19.4945C12.4682 19.7699 10.2712 19.7101 6.78189 16.2204C3.29217 12.7311 3.23147 10.5327 3.50589 9.53261C3.56501 9.32753 3.70112 9.1533 3.88575 9.04633L4.94789 8.40933C4.95768 8.40315 4.969 8.39992 4.98054 8.39998C5.00165 8.40009 5.02122 8.41059 5.03287 8.42803Z"/>
</mask>
<path d="M4.46822 7.60903L3.40515 8.24603C3.01414 8.47648 2.72763 8.84951 2.60573 9.28668C2.20531 10.7469 2.49001 13.2496 6.12208 16.8812C8.99766 19.7563 11.1654 20.5333 12.6685 20.5333C13.0224 20.5348 13.375 20.4888 13.7166 20.3966C14.1535 20.2745 14.5261 19.988 14.7564 19.5972L15.3957 18.5346C15.6704 18.0788 15.5376 17.4874 15.0942 17.193L12.549 15.4985C12.1138 15.2117 11.5315 15.3065 11.2097 15.7164L10.47 16.6675C10.4523 16.692 10.4193 16.6997 10.3925 16.6857L10.2525 16.6077C9.44331 16.1658 8.71351 15.5918 8.09324 14.9095C7.41101 14.2893 6.83701 13.5595 6.39503 12.7503L6.3171 12.6075C6.30288 12.5809 6.31065 12.5479 6.33531 12.5305L7.28682 11.7903C7.69676 11.4687 7.79115 10.8862 7.50382 10.4515L5.80982 7.90998C5.51483 7.4675 4.9241 7.33499 4.46822 7.60903ZM5.03287 8.42803L5.95408 9.81031L6.72687 10.9667C6.74497 10.9945 6.73912 11.0314 6.71336 11.0522L5.76186 11.7918C5.37172 12.0908 5.26076 12.6311 5.50144 13.0597L5.57515 13.1951C6.05821 14.0837 6.68608 14.8856 7.43294 15.5676C8.11501 16.3145 8.91683 16.9423 9.80545 17.4254L9.94031 17.4991C10.3691 17.7397 10.9094 17.6287 11.2087 17.2387L11.9484 16.2876C11.9688 16.2617 12.0056 16.2557 12.0333 16.2736L14.5738 17.9671C14.6021 17.9858 14.6106 18.0236 14.593 18.0525L13.956 19.1147C13.849 19.2994 13.6748 19.4355 13.4697 19.4945C12.4682 19.7699 10.2712 19.7101 6.78189 16.2204C3.29217 12.7311 3.23147 10.5327 3.50589 9.53261C3.56501 9.32753 3.70112 9.1533 3.88575 9.04633L4.94789 8.40933C4.95768 8.40315 4.969 8.39992 4.98054 8.39998C5.00165 8.40009 5.02122 8.41059 5.03287 8.42803Z" fill="#FF8D20"/>
<path d="M4.46822 7.60903L3.40515 8.24603C3.01414 8.47648 2.72763 8.84951 2.60573 9.28668C2.20531 10.7469 2.49001 13.2496 6.12208 16.8812C8.99766 19.7563 11.1654 20.5333 12.6685 20.5333C13.0224 20.5348 13.375 20.4888 13.7166 20.3966C14.1535 20.2745 14.5261 19.988 14.7564 19.5972L15.3957 18.5346C15.6704 18.0788 15.5376 17.4874 15.0942 17.193L12.549 15.4985C12.1138 15.2117 11.5315 15.3065 11.2097 15.7164L10.47 16.6675C10.4523 16.692 10.4193 16.6997 10.3925 16.6857L10.2525 16.6077C9.44331 16.1658 8.71351 15.5918 8.09324 14.9095C7.41101 14.2893 6.83701 13.5595 6.39503 12.7503L6.3171 12.6075C6.30288 12.5809 6.31065 12.5479 6.33531 12.5305L7.28682 11.7903C7.69676 11.4687 7.79115 10.8862 7.50382 10.4515L5.80982 7.90998C5.51483 7.4675 4.9241 7.33499 4.46822 7.60903ZM5.03287 8.42803L5.95408 9.81031L6.72687 10.9667C6.74497 10.9945 6.73912 11.0314 6.71336 11.0522L5.76186 11.7918C5.37172 12.0908 5.26076 12.6311 5.50144 13.0597L5.57515 13.1951C6.05821 14.0837 6.68608 14.8856 7.43294 15.5676C8.11501 16.3145 8.91683 16.9423 9.80545 17.4254L9.94031 17.4991C10.3691 17.7397 10.9094 17.6287 11.2087 17.2387L11.9484 16.2876C11.9688 16.2617 12.0056 16.2557 12.0333 16.2736L14.5738 17.9671C14.6021 17.9858 14.6106 18.0236 14.593 18.0525L13.956 19.1147C13.849 19.2994 13.6748 19.4355 13.4697 19.4945C12.4682 19.7699 10.2712 19.7101 6.78189 16.2204C3.29217 12.7311 3.23147 10.5327 3.50589 9.53261C3.56501 9.32753 3.70112 9.1533 3.88575 9.04633L4.94789 8.40933C4.95768 8.40315 4.969 8.39992 4.98054 8.39998C5.00165 8.40009 5.02122 8.41059 5.03287 8.42803Z" stroke="#FF8D20" stroke-width="0.6" mask="url(#path-3-outside-3)"/>
</svg>
