<svg width="24" height="26" viewBox="0 0 24 26" fill="none" xmlns="http://www.w3.org/2000/svg">
<path d="M17.5859 20.1094C17.3056 20.1094 17.0781 20.3369 17.0781 20.6172C17.0781 20.8975 17.3056 21.125 17.5859 21.125C17.8662 21.125 18.0938 20.8975 18.0938 20.6172C18.0938 20.3369 17.8662 20.1094 17.5859 20.1094Z" fill="#FF8D20"/>
<path d="M18.8363 18.4673L16.4226 17.6629L15.5562 15.9299C16.3368 15.1354 16.8788 14.0841 17.0615 12.9876L17.1696 12.3398H18.0938C18.9338 12.3398 19.6172 11.6564 19.6172 10.8164V7.61719C19.6172 3.41707 16.2001 0 12 0C7.78912 0 4.38281 3.40727 4.38281 7.61719V10.8164C4.38281 11.4784 4.80739 12.0429 5.39844 12.2525V12.8477C5.39844 13.6877 6.08185 14.3711 6.92188 14.3711H7.36784C7.58797 14.8493 7.87291 15.2922 8.21964 15.6901C8.29155 15.7728 8.36655 15.8529 8.44338 15.9308L7.57736 17.6629L5.16368 18.4673C2.35725 19.4031 0.320312 22.3575 0.320312 25.4922C0.320312 25.7727 0.54766 26 0.828125 26H23.1719C23.4523 26 23.6797 25.7727 23.6797 25.4922C23.6797 22.3575 21.6428 19.4031 18.8363 18.4673ZM18.6016 10.8164C18.6016 11.0964 18.3738 11.3242 18.0938 11.3242H17.3187C17.4478 10.3243 17.5338 9.26032 17.5684 8.21234C17.5694 8.18279 17.5702 8.15405 17.5712 8.125H18.6016V10.8164ZM5.90625 11.3242C5.62624 11.3242 5.39844 11.0964 5.39844 10.8164V8.125H6.4292C6.43087 8.17797 6.43265 8.23118 6.43463 8.28476C6.43468 8.28659 6.43478 8.28836 6.43483 8.29019C6.43483 8.29034 6.43483 8.2905 6.43483 8.29065C6.47038 9.30993 6.55528 10.3463 6.68143 11.3242H5.90625V11.3242ZM6.92188 13.3555C6.64187 13.3555 6.41406 13.1277 6.41406 12.8477V12.3398H6.83037L6.93843 12.9878C6.95905 13.1109 6.98439 13.2336 7.01369 13.3555H6.92188ZM6.41493 7.10938H5.41773C5.67494 3.70596 8.51524 1.01562 12 1.01562C15.4693 1.01562 18.3221 3.70561 18.5822 7.10938H17.5851C17.5486 4.30488 15.2648 2.03125 12.4545 2.03125H11.5456C8.73537 2.03125 6.45144 4.30488 6.41493 7.10938ZM11.5455 3.04688H12.4545C14.7299 3.04688 16.5716 4.90806 16.5703 7.18098C16.5703 7.34079 16.569 7.47993 16.5664 7.60652C16.5664 7.60815 16.5663 7.60982 16.5663 7.6115L15.9311 7.52075C14.2056 7.27436 12.5763 6.45973 11.3434 5.22686C11.2482 5.13165 11.119 5.07812 10.9844 5.07812C9.62059 5.07812 8.31511 5.69948 7.45213 6.74923C7.6648 4.68147 9.41285 3.04688 11.5455 3.04688ZM8.06648 13.3555C7.81227 12.5098 7.5214 10.0215 7.45711 8.427L8.14057 7.51568C8.76828 6.679 9.74486 6.15916 10.7837 6.09949C12.1506 7.4003 13.9189 8.25932 15.7875 8.52612L16.5351 8.63297C16.4852 9.69353 16.383 10.7578 16.2367 11.7366C16.2367 11.7369 16.2366 11.7373 16.2366 11.7376C16.1901 12.0523 16.1534 12.2548 16.0598 12.8205C15.7908 14.4336 14.5872 15.8922 12.9983 16.2895C12.3444 16.4528 11.6555 16.4527 11.0019 16.2895C10.0098 16.0415 9.10014 15.355 8.51305 14.3711H9.54828C9.75791 14.9621 10.3223 15.3867 10.9844 15.3867H12C12.8417 15.3867 13.5234 14.705 13.5234 13.8633C13.5234 13.0233 12.84 12.3398 12 12.3398H10.9844C10.3076 12.3398 9.75151 12.777 9.54742 13.3555H8.06648ZM10.9417 17.3172C11.29 17.3906 11.6451 17.4281 12 17.4281C12.2778 17.4281 12.5557 17.4049 12.8304 17.3598L11.9331 18.3087L10.9417 17.3172ZM11.235 19.047L9.6243 20.7503C9.18088 19.9015 8.79987 19.0182 8.48736 18.1139L9.09221 16.9042L11.235 19.047ZM14.8217 16.7321L15.5125 18.1138C15.1995 19.0197 14.8184 19.9033 14.3754 20.751L12.6515 19.0271L14.8217 16.7321ZM10.4766 13.8633C10.4766 13.5829 10.704 13.3555 10.9844 13.3555H12C12.28 13.3555 12.5078 13.5833 12.5078 13.8633C12.5078 14.1437 12.2804 14.3711 12 14.3711H10.9844C10.7044 14.3711 10.4766 14.1433 10.4766 13.8633ZM1.35625 24.9844C1.5575 22.4687 3.2317 20.1821 5.48487 19.4308L7.62245 18.7184C8.01408 19.8013 8.49924 20.8539 9.06784 21.8537C9.0688 21.8554 9.06972 21.8571 9.07068 21.8588C9.07068 21.8588 9.07073 21.8588 9.07073 21.8589C9.48618 22.5896 9.95377 23.3036 10.4607 23.9815L11.0854 24.9844H1.35625ZM12 24.5317L11.3113 23.4261C11.3036 23.4137 11.2954 23.4016 11.2866 23.3899C10.8754 22.8414 10.4918 22.2677 10.1424 21.6805L11.9534 19.7654L13.8617 21.6736C13.51 22.2651 13.1251 22.8412 12.7135 23.3898C12.6886 23.423 12.7239 23.3708 12 24.5317ZM12.9146 24.9844L13.5392 23.9815C14.0484 23.3011 14.5194 22.5813 14.939 21.842C14.9415 21.8376 14.9439 21.833 14.9464 21.8285C14.9467 21.828 14.947 21.8275 14.9473 21.8269C15.5087 20.8367 15.9888 19.7933 16.3775 18.7184L18.5151 19.4308C20.7683 20.1821 22.4425 22.4687 22.6438 24.9844H12.9146Z" fill="#FF8D20"/>
<path d="M21.1183 22.9294C20.779 22.2502 20.2819 21.6467 19.6808 21.1843C19.4584 21.0132 19.1396 21.0548 18.9686 21.2771C18.7976 21.4994 18.8392 21.8182 19.0615 21.9892C19.5416 22.3586 19.9386 22.8406 20.2097 23.3833C20.3353 23.6346 20.6405 23.7358 20.8909 23.6107C21.1418 23.4854 21.2436 23.1804 21.1183 22.9294Z" fill="#FF8D20"/>
</svg>
