<svg width="22" height="22" viewBox="0 0 22 22" fill="none" xmlns="http://www.w3.org/2000/svg">
<g clip-path="url(#clip0)">
<path d="M20.3693 16.2324L17.6343 13.4974C16.8784 12.7415 15.6551 12.7415 14.8992 13.4974L13.656 14.7406C13.0834 15.3132 12.1567 15.3133 11.584 14.7406C11.5837 14.7404 11.5835 14.7401 11.5832 14.7398L7.25969 10.4308C6.68709 9.85822 6.68701 8.93147 7.25969 8.35879L8.50286 7.11557C9.25873 6.35975 9.25877 5.13639 8.50286 4.38049L5.76778 1.6454C5.01192 0.889542 3.7886 0.889499 3.03274 1.6454C3.02917 1.64897 2.12107 2.55707 2.12107 2.55707C-0.538946 5.01247 -0.840973 9.62361 2.03866 12.5032L9.51198 19.962C12.1161 22.5662 16.5189 22.8179 19.4576 19.8793C19.4576 19.8793 19.4577 19.8791 19.4578 19.8791L20.3693 18.9675C21.1234 18.2134 21.1234 16.9865 20.3693 16.2324ZM3.94453 2.55716C4.19586 2.30583 4.60483 2.30579 4.8562 2.55716L7.59128 5.29224C7.84321 5.54417 7.84321 5.95194 7.59128 6.20391L7.13543 6.65976L3.48868 3.01301L3.94453 2.55716ZM10.4232 19.05L2.94994 11.5911C0.859212 9.50042 0.741005 6.17314 2.59441 3.94212L6.22806 7.57577C5.27605 8.65493 5.30956 10.304 6.3488 11.3433L10.6723 15.6523C11.7055 16.6855 13.3547 16.7288 14.439 15.7723L18.0729 19.4062C15.8509 21.256 12.5301 21.1568 10.4232 19.05ZM19.4577 18.0558L19.0019 18.5117L15.3551 14.8649L15.8109 14.4091C16.0629 14.1572 16.4706 14.1572 16.7226 14.4091L19.4577 17.1442C19.7091 17.3955 19.7091 17.8045 19.4577 18.0558Z" fill="#FF8D20"/>
<path d="M20.0684 0.000244141H12.3324C11.266 0.000244141 10.3984 0.867824 10.3984 1.93422V7.09149C10.3984 8.15789 11.266 9.02547 12.3324 9.02547H12.9771V10.9594C12.9771 11.5321 13.6729 11.82 14.0775 11.4153L16.4674 9.02547H20.0683C21.1347 9.02547 22.0023 8.15789 22.0023 7.09149V1.93426C22.0023 0.867867 21.1348 0.000244141 20.0684 0.000244141ZM20.713 7.09154C20.713 7.44701 20.4238 7.73619 20.0684 7.73619H16.2004C16.0294 7.73619 15.8655 7.80408 15.7446 7.925L14.2664 9.40316V8.38085C14.2664 8.02481 13.9778 7.73619 13.6218 7.73619H12.3325C11.977 7.73619 11.6878 7.44701 11.6878 7.09154V1.93426C11.6878 1.57878 11.977 1.2896 12.3325 1.2896H20.0684C20.4239 1.2896 20.7131 1.57878 20.7131 1.93426V7.09154H20.713Z" fill="#FF8D20"/>
<path d="M18.7785 2.57886H13.6212C13.2652 2.57886 12.9766 2.86748 12.9766 3.22352C12.9766 3.57955 13.2652 3.86817 13.6212 3.86817H18.7785C19.1345 3.86817 19.4232 3.57955 19.4232 3.22352C19.4232 2.86748 19.1345 2.57886 18.7785 2.57886Z" fill="#FF8D20"/>
<path d="M16.1999 5.15771H13.6212C13.2652 5.15771 12.9766 5.44634 12.9766 5.80237C12.9766 6.15841 13.2652 6.44703 13.6212 6.44703H16.1999C16.5559 6.44703 16.8445 6.15841 16.8445 5.80237C16.8445 5.44634 16.5559 5.15771 16.1999 5.15771Z" fill="#FF8D20"/>
</g>
<defs>
<clipPath id="clip0">
<rect width="22" height="22" fill="white"/>
</clipPath>
</defs>
</svg>
