<svg width="24" height="26" viewBox="0 0 24 26" fill="none" xmlns="http://www.w3.org/2000/svg">
<mask id="path-1-inside-1" fill="white">
<path d="M8.95312 2.03125H15.0469C15.6078 2.03125 16.0625 1.57655 16.0625 1.01562C16.0625 0.454695 15.6078 0 15.0469 0H8.95312C8.3922 0 7.9375 0.454695 7.9375 1.01562C7.9375 1.57655 8.3922 2.03125 8.95312 2.03125Z"/>
</mask>
<path d="M8.95312 2.03125H15.0469C15.6078 2.03125 16.0625 1.57655 16.0625 1.01562C16.0625 0.454695 15.6078 0 15.0469 0H8.95312C8.3922 0 7.9375 0.454695 7.9375 1.01562C7.9375 1.57655 8.3922 2.03125 8.95312 2.03125Z" fill="#FF8D20" stroke="white" stroke-width="0.4" mask="url(#path-1-inside-1)"/>
<mask id="path-2-inside-2" fill="white">
<path d="M12 3.65625C5.8248 3.65625 0.828125 8.65379 0.828125 14.8281C0.828125 21.0032 5.82551 26 12 26C18.1753 26 23.1719 21.0025 23.1719 14.8281C23.1719 8.65292 18.1743 3.65625 12 3.65625ZM12 23.9688C6.95986 23.9688 2.85938 19.8683 2.85938 14.8281C2.85938 9.78798 6.95986 5.6875 12 5.6875C17.0401 5.6875 21.1406 9.78798 21.1406 14.8281C21.1406 19.8683 17.0401 23.9688 12 23.9688Z"/>
</mask>
<path d="M12 3.65625C5.8248 3.65625 0.828125 8.65379 0.828125 14.8281C0.828125 21.0032 5.82551 26 12 26C18.1753 26 23.1719 21.0025 23.1719 14.8281C23.1719 8.65292 18.1743 3.65625 12 3.65625ZM12 23.9688C6.95986 23.9688 2.85938 19.8683 2.85938 14.8281C2.85938 9.78798 6.95986 5.6875 12 5.6875C17.0401 5.6875 21.1406 9.78798 21.1406 14.8281C21.1406 19.8683 17.0401 23.9688 12 23.9688Z" fill="#FF8D20" stroke="white" stroke-width="0.4" mask="url(#path-2-inside-2)"/>
<mask id="path-3-inside-3" fill="white">
<path d="M12 8.73438C11.4391 8.73438 10.9844 9.18907 10.9844 9.75V14.8281C10.9844 15.3891 11.4391 15.8438 12 15.8438C12.5609 15.8438 13.0156 15.3891 13.0156 14.8281V9.75C13.0156 9.18907 12.5609 8.73438 12 8.73438Z"/>
</mask>
<path d="M12 8.73438C11.4391 8.73438 10.9844 9.18907 10.9844 9.75V14.8281C10.9844 15.3891 11.4391 15.8438 12 15.8438C12.5609 15.8438 13.0156 15.3891 13.0156 14.8281V9.75C13.0156 9.18907 12.5609 8.73438 12 8.73438Z" fill="#FF8D20" stroke="white" stroke-width="0.4" mask="url(#path-3-inside-3)"/>
</svg>
