<svg width="46" height="33" viewBox="0 0 46 33" fill="none" xmlns="http://www.w3.org/2000/svg">
<mask id="path-1-inside-1" fill="white">
<path d="M45.775 27.7343H40.0862V24.8847H42.9254V16.5751L40.4814 9.23266H30.1126V24.8847H31.5374V27.7343H27.2734V6.38306H42.5302L45.775 16.1175V27.7343Z"/>
</mask>
<path d="M45.775 27.7343H40.0862V24.8847H42.9254V16.5751L40.4814 9.23266H30.1126V24.8847H31.5374V27.7343H27.2734V6.38306H42.5302L45.775 16.1175V27.7343Z" fill="#F76600" stroke="white" stroke-width="0.2" mask="url(#path-1-inside-1)"/>
<mask id="path-2-inside-2" fill="white">
<path d="M35.8125 32.0062C32.6717 32.0062 30.1133 29.4478 30.1133 26.307C30.1133 23.1662 32.6717 20.6078 35.8125 20.6078C38.9533 20.6078 41.5117 23.1662 41.5117 26.307C41.5013 29.4478 38.9533 32.0062 35.8125 32.0062ZM35.8125 23.4574C34.2421 23.4574 32.9629 24.7366 32.9629 26.307C32.9629 27.8774 34.2421 29.1566 35.8125 29.1566C37.3829 29.1566 38.6621 27.8774 38.6621 26.307C38.6621 24.7366 37.3829 23.4574 35.8125 23.4574Z"/>
</mask>
<path d="M35.8125 32.0062C32.6717 32.0062 30.1133 29.4478 30.1133 26.307C30.1133 23.1662 32.6717 20.6078 35.8125 20.6078C38.9533 20.6078 41.5117 23.1662 41.5117 26.307C41.5013 29.4478 38.9533 32.0062 35.8125 32.0062ZM35.8125 23.4574C34.2421 23.4574 32.9629 24.7366 32.9629 26.307C32.9629 27.8774 34.2421 29.1566 35.8125 29.1566C37.3829 29.1566 38.6621 27.8774 38.6621 26.307C38.6621 24.7366 37.3829 23.4574 35.8125 23.4574Z" fill="#F76600" stroke="white" stroke-width="0.2" mask="url(#path-2-inside-2)"/>
<mask id="path-3-inside-3" fill="white">
<path d="M8.76302 27.7342H3.07422V17.771H5.91342V24.8846H8.76302V27.7342Z"/>
</mask>
<path d="M8.76302 27.7342H3.07422V17.771H5.91342V24.8846H8.76302V27.7342Z" fill="#F76600" stroke="white" stroke-width="0.2" mask="url(#path-3-inside-3)"/>
<mask id="path-4-inside-4" fill="white">
<path d="M30.1123 27.7328H17.2995V24.8832H27.2731V3.53197H0.222656V0.682373H30.1123V27.7328Z"/>
</mask>
<path d="M30.1123 27.7328H17.2995V24.8832H27.2731V3.53197H0.222656V0.682373H30.1123V27.7328Z" fill="#F76600" stroke="white" stroke-width="0.2" mask="url(#path-4-inside-4)"/>
<mask id="path-5-inside-5" fill="white">
<path d="M13.0351 32.0062C9.89434 32.0062 7.33594 29.4478 7.33594 26.307C7.33594 23.1662 9.89434 20.6078 13.0351 20.6078C16.1759 20.6078 18.7343 23.1662 18.7343 26.307C18.7239 29.4478 16.1759 32.0062 13.0351 32.0062ZM13.0351 23.4574C11.4647 23.4574 10.1855 24.7366 10.1855 26.307C10.1855 27.8774 11.4647 29.1566 13.0351 29.1566C14.6055 29.1566 15.8847 27.8774 15.8847 26.307C15.8847 24.7366 14.6055 23.4574 13.0351 23.4574Z"/>
</mask>
<path d="M13.0351 32.0062C9.89434 32.0062 7.33594 29.4478 7.33594 26.307C7.33594 23.1662 9.89434 20.6078 13.0351 20.6078C16.1759 20.6078 18.7343 23.1662 18.7343 26.307C18.7239 29.4478 16.1759 32.0062 13.0351 32.0062ZM13.0351 23.4574C11.4647 23.4574 10.1855 24.7366 10.1855 26.307C10.1855 27.8774 11.4647 29.1566 13.0351 29.1566C14.6055 29.1566 15.8847 27.8774 15.8847 26.307C15.8847 24.7366 14.6055 23.4574 13.0351 23.4574Z" fill="#F76600" stroke="white" stroke-width="0.2" mask="url(#path-5-inside-5)"/>
<mask id="path-6-inside-6" fill="white">
<path d="M14.4612 6.38297H1.64844V9.23256H14.4612V6.38297Z"/>
</mask>
<path d="M14.4612 6.38297H1.64844V9.23256H14.4612V6.38297Z" fill="#F76600" stroke="white" stroke-width="0.2" mask="url(#path-6-inside-6)"/>
<mask id="path-7-inside-7" fill="white">
<path d="M11.6087 12.0703H3.07031V14.9199H11.6087V12.0703Z"/>
</mask>
<path d="M11.6087 12.0703H3.07031V14.9199H11.6087V12.0703Z" fill="#F76600" stroke="white" stroke-width="0.2" mask="url(#path-7-inside-7)"/>
</svg>
