<svg width="30" height="30" viewBox="0 0 30 30" fill="none" xmlns="http://www.w3.org/2000/svg">
<g clip-path="url(#clip0)">
<mask id="path-1-outside-1" maskUnits="userSpaceOnUse" x="-1" y="-0.296875" width="32" height="30" fill="black">
<rect fill="white" x="-1" y="-0.296875" width="32" height="30"/>
<path d="M28.1145 2.53598C24.0974 -1.42459 17.4184 1.48564 17.338 6.95111C17.3067 9.14425 18.3879 11.1671 20.2302 12.3607C20.6145 12.6098 20.4973 12.5157 22.7895 16.5648C22.8305 16.6372 22.8786 16.7015 22.9314 16.7587L19.5872 19.9804C18.3737 18.7756 16.3591 18.999 15.4395 20.4487L10.9758 17.7921C10.9692 16.3211 9.76982 15.1256 8.29697 15.1256C5.95894 15.1256 4.75594 17.9221 6.3327 19.6232L3.41217 24.036C1.71043 23.5492 0 24.8325 0 26.6125C0 28.0893 1.20117 29.2911 2.67815 29.2911C5.25444 29.2911 6.33865 25.989 4.26796 24.4583L7.08984 20.1951C8.48076 20.9031 10.2088 20.2617 10.7899 18.7834L15.0787 21.3361C14.7324 22.9944 16.0062 24.5594 17.7013 24.5594C19.6504 24.5594 20.9496 22.53 20.1363 20.7653C24.2267 16.8246 23.9754 17.0727 24.0159 17.0169C24.2297 16.94 24.4215 16.7896 24.5485 16.5648C26.8396 12.5175 26.7233 12.6098 27.109 12.36C28.9194 11.1861 30 9.19873 30 7.04403C30 5.33658 29.3305 3.73532 28.1145 2.53598ZM4.41055 26.6125C4.41055 27.5676 3.63327 28.3449 2.67815 28.3449C1.72302 28.3449 0.946426 27.5676 0.946426 26.6125C0.946426 25.6572 1.72302 24.8801 2.67815 24.8801C3.63327 24.8801 4.41055 25.6572 4.41055 26.6125ZM6.87927 18.798C6.0791 17.6635 6.89163 16.0721 8.29697 16.0721C9.2569 16.0721 10.0294 16.8546 10.0294 17.8045C10.0294 19.4842 7.85339 20.1844 6.87927 18.798ZM17.7013 23.6132C16.5566 23.6132 15.8862 22.5357 15.97 21.866C15.9803 20.3466 17.8182 19.5813 18.9054 20.6376C20.015 21.708 19.2613 23.6132 17.7013 23.6132ZM26.6263 11.6155C26.3212 11.8135 26.0669 12.082 25.8911 12.3925C23.6119 16.4188 23.7735 16.1904 23.6691 16.1904C23.5645 16.1904 23.7298 16.4252 21.4469 12.3925C21.2711 12.082 21.0175 11.8135 20.7122 11.6159C19.1279 10.5892 18.1979 8.85037 18.2252 6.96416C18.2936 2.21394 24.0795 -0.195497 27.4917 3.16769C29.9709 5.61307 29.5475 9.72149 26.6263 11.6155Z"/>
</mask>
<path d="M28.1145 2.53598C24.0974 -1.42459 17.4184 1.48564 17.338 6.95111C17.3067 9.14425 18.3879 11.1671 20.2302 12.3607C20.6145 12.6098 20.4973 12.5157 22.7895 16.5648C22.8305 16.6372 22.8786 16.7015 22.9314 16.7587L19.5872 19.9804C18.3737 18.7756 16.3591 18.999 15.4395 20.4487L10.9758 17.7921C10.9692 16.3211 9.76982 15.1256 8.29697 15.1256C5.95894 15.1256 4.75594 17.9221 6.3327 19.6232L3.41217 24.036C1.71043 23.5492 0 24.8325 0 26.6125C0 28.0893 1.20117 29.2911 2.67815 29.2911C5.25444 29.2911 6.33865 25.989 4.26796 24.4583L7.08984 20.1951C8.48076 20.9031 10.2088 20.2617 10.7899 18.7834L15.0787 21.3361C14.7324 22.9944 16.0062 24.5594 17.7013 24.5594C19.6504 24.5594 20.9496 22.53 20.1363 20.7653C24.2267 16.8246 23.9754 17.0727 24.0159 17.0169C24.2297 16.94 24.4215 16.7896 24.5485 16.5648C26.8396 12.5175 26.7233 12.6098 27.109 12.36C28.9194 11.1861 30 9.19873 30 7.04403C30 5.33658 29.3305 3.73532 28.1145 2.53598ZM4.41055 26.6125C4.41055 27.5676 3.63327 28.3449 2.67815 28.3449C1.72302 28.3449 0.946426 27.5676 0.946426 26.6125C0.946426 25.6572 1.72302 24.8801 2.67815 24.8801C3.63327 24.8801 4.41055 25.6572 4.41055 26.6125ZM6.87927 18.798C6.0791 17.6635 6.89163 16.0721 8.29697 16.0721C9.2569 16.0721 10.0294 16.8546 10.0294 17.8045C10.0294 19.4842 7.85339 20.1844 6.87927 18.798ZM17.7013 23.6132C16.5566 23.6132 15.8862 22.5357 15.97 21.866C15.9803 20.3466 17.8182 19.5813 18.9054 20.6376C20.015 21.708 19.2613 23.6132 17.7013 23.6132ZM26.6263 11.6155C26.3212 11.8135 26.0669 12.082 25.8911 12.3925C23.6119 16.4188 23.7735 16.1904 23.6691 16.1904C23.5645 16.1904 23.7298 16.4252 21.4469 12.3925C21.2711 12.082 21.0175 11.8135 20.7122 11.6159C19.1279 10.5892 18.1979 8.85037 18.2252 6.96416C18.2936 2.21394 24.0795 -0.195497 27.4917 3.16769C29.9709 5.61307 29.5475 9.72149 26.6263 11.6155Z" fill="#FF8D20"/>
<path d="M28.1145 2.53598C24.0974 -1.42459 17.4184 1.48564 17.338 6.95111C17.3067 9.14425 18.3879 11.1671 20.2302 12.3607C20.6145 12.6098 20.4973 12.5157 22.7895 16.5648C22.8305 16.6372 22.8786 16.7015 22.9314 16.7587L19.5872 19.9804C18.3737 18.7756 16.3591 18.999 15.4395 20.4487L10.9758 17.7921C10.9692 16.3211 9.76982 15.1256 8.29697 15.1256C5.95894 15.1256 4.75594 17.9221 6.3327 19.6232L3.41217 24.036C1.71043 23.5492 0 24.8325 0 26.6125C0 28.0893 1.20117 29.2911 2.67815 29.2911C5.25444 29.2911 6.33865 25.989 4.26796 24.4583L7.08984 20.1951C8.48076 20.9031 10.2088 20.2617 10.7899 18.7834L15.0787 21.3361C14.7324 22.9944 16.0062 24.5594 17.7013 24.5594C19.6504 24.5594 20.9496 22.53 20.1363 20.7653C24.2267 16.8246 23.9754 17.0727 24.0159 17.0169C24.2297 16.94 24.4215 16.7896 24.5485 16.5648C26.8396 12.5175 26.7233 12.6098 27.109 12.36C28.9194 11.1861 30 9.19873 30 7.04403C30 5.33658 29.3305 3.73532 28.1145 2.53598ZM4.41055 26.6125C4.41055 27.5676 3.63327 28.3449 2.67815 28.3449C1.72302 28.3449 0.946426 27.5676 0.946426 26.6125C0.946426 25.6572 1.72302 24.8801 2.67815 24.8801C3.63327 24.8801 4.41055 25.6572 4.41055 26.6125ZM6.87927 18.798C6.0791 17.6635 6.89163 16.0721 8.29697 16.0721C9.2569 16.0721 10.0294 16.8546 10.0294 17.8045C10.0294 19.4842 7.85339 20.1844 6.87927 18.798ZM17.7013 23.6132C16.5566 23.6132 15.8862 22.5357 15.97 21.866C15.9803 20.3466 17.8182 19.5813 18.9054 20.6376C20.015 21.708 19.2613 23.6132 17.7013 23.6132ZM26.6263 11.6155C26.3212 11.8135 26.0669 12.082 25.8911 12.3925C23.6119 16.4188 23.7735 16.1904 23.6691 16.1904C23.5645 16.1904 23.7298 16.4252 21.4469 12.3925C21.2711 12.082 21.0175 11.8135 20.7122 11.6159C19.1279 10.5892 18.1979 8.85037 18.2252 6.96416C18.2936 2.21394 24.0795 -0.195497 27.4917 3.16769C29.9709 5.61307 29.5475 9.72149 26.6263 11.6155Z" stroke="#FF8D20" stroke-width="0.4" mask="url(#path-1-outside-1)"/>
<mask id="path-2-outside-2" maskUnits="userSpaceOnUse" x="18.2656" y="1.63037" width="11" height="11" fill="black">
<rect fill="white" x="18.2656" y="1.63037" width="11" height="11"/>
<path d="M27.2156 4.42083C25.7287 2.40621 22.9607 2.08464 21.0538 3.49203C19.139 4.90515 18.6556 7.66271 20.1248 9.65376C21.6874 11.7711 24.6715 12.022 26.5806 10.3457C26.777 10.1733 26.7965 9.8744 26.6241 9.67802C26.4518 9.48164 26.1529 9.46218 25.9563 9.63453C24.452 10.9545 22.1108 10.7512 20.8863 9.09185C19.7332 7.52905 20.1122 5.36314 21.6157 4.25329C23.1184 3.14436 25.2902 3.40597 26.4541 4.98274C27.205 6.00035 27.3151 7.28941 26.8592 8.38003C26.7585 8.62104 26.8722 8.89822 27.1133 8.99916C27.3543 9.09963 27.6317 8.98611 27.7324 8.74487C28.2968 7.39469 28.1931 5.74537 27.2156 4.42083Z"/>
</mask>
<path d="M27.2156 4.42083C25.7287 2.40621 22.9607 2.08464 21.0538 3.49203C19.139 4.90515 18.6556 7.66271 20.1248 9.65376C21.6874 11.7711 24.6715 12.022 26.5806 10.3457C26.777 10.1733 26.7965 9.8744 26.6241 9.67802C26.4518 9.48164 26.1529 9.46218 25.9563 9.63453C24.452 10.9545 22.1108 10.7512 20.8863 9.09185C19.7332 7.52905 20.1122 5.36314 21.6157 4.25329C23.1184 3.14436 25.2902 3.40597 26.4541 4.98274C27.205 6.00035 27.3151 7.28941 26.8592 8.38003C26.7585 8.62104 26.8722 8.89822 27.1133 8.99916C27.3543 9.09963 27.6317 8.98611 27.7324 8.74487C28.2968 7.39469 28.1931 5.74537 27.2156 4.42083Z" fill="#FF8D20"/>
<path d="M27.2156 4.42083C25.7287 2.40621 22.9607 2.08464 21.0538 3.49203C19.139 4.90515 18.6556 7.66271 20.1248 9.65376C21.6874 11.7711 24.6715 12.022 26.5806 10.3457C26.777 10.1733 26.7965 9.8744 26.6241 9.67802C26.4518 9.48164 26.1529 9.46218 25.9563 9.63453C24.452 10.9545 22.1108 10.7512 20.8863 9.09185C19.7332 7.52905 20.1122 5.36314 21.6157 4.25329C23.1184 3.14436 25.2902 3.40597 26.4541 4.98274C27.205 6.00035 27.3151 7.28941 26.8592 8.38003C26.7585 8.62104 26.8722 8.89822 27.1133 8.99916C27.3543 9.09963 27.6317 8.98611 27.7324 8.74487C28.2968 7.39469 28.1931 5.74537 27.2156 4.42083Z" stroke="#FF8D20" stroke-width="0.4" mask="url(#path-2-outside-2)"/>
</g>
<defs>
<clipPath id="clip0">
<rect width="30" height="30" fill="white"/>
</clipPath>
</defs>
</svg>
