<svg width="26" height="30" viewBox="0 0 26 30" fill="none" xmlns="http://www.w3.org/2000/svg">
<mask id="path-1-outside-1" maskUnits="userSpaceOnUse" x="13.793" y="1.28577" width="6" height="4" fill="black">
<rect fill="white" x="13.793" y="1.28577" width="6" height="4"/>
<path d="M17.389 2.36549C17.2878 2.29453 17.1615 2.26936 17.0411 2.29636C16.9205 2.32337 16.817 2.39982 16.7557 2.50693C16.7527 2.5122 16.7491 2.51701 16.7459 2.52181C16.6049 2.72323 16.3263 2.77221 16.1249 2.63145C15.926 2.49229 15.652 2.54035 15.5129 2.73925L14.8725 3.65409C14.7333 3.85299 14.7816 4.12696 14.9803 4.26612C15.0572 4.31991 15.1451 4.34577 15.232 4.34577C15.3705 4.34577 15.5069 4.28031 15.5923 4.15832L16.0237 3.54194C16.4289 3.65478 16.869 3.5678 17.2009 3.30642L17.8491 3.76029C18.048 3.89945 18.3217 3.85116 18.4611 3.65249C18.6003 3.45359 18.552 3.17962 18.3531 3.04046L17.389 2.36549Z"/>
</mask>
<path d="M17.389 2.36549C17.2878 2.29453 17.1615 2.26936 17.0411 2.29636C16.9205 2.32337 16.817 2.39982 16.7557 2.50693C16.7527 2.5122 16.7491 2.51701 16.7459 2.52181C16.6049 2.72323 16.3263 2.77221 16.1249 2.63145C15.926 2.49229 15.652 2.54035 15.5129 2.73925L14.8725 3.65409C14.7333 3.85299 14.7816 4.12696 14.9803 4.26612C15.0572 4.31991 15.1451 4.34577 15.232 4.34577C15.3705 4.34577 15.5069 4.28031 15.5923 4.15832L16.0237 3.54194C16.4289 3.65478 16.869 3.5678 17.2009 3.30642L17.8491 3.76029C18.048 3.89945 18.3217 3.85116 18.4611 3.65249C18.6003 3.45359 18.552 3.17962 18.3531 3.04046L17.389 2.36549Z" fill="#FF8D20"/>
<path d="M17.389 2.36549C17.2878 2.29453 17.1615 2.26936 17.0411 2.29636C16.9205 2.32337 16.817 2.39982 16.7557 2.50693C16.7527 2.5122 16.7491 2.51701 16.7459 2.52181C16.6049 2.72323 16.3263 2.77221 16.1249 2.63145C15.926 2.49229 15.652 2.54035 15.5129 2.73925L14.8725 3.65409C14.7333 3.85299 14.7816 4.12696 14.9803 4.26612C15.0572 4.31991 15.1451 4.34577 15.232 4.34577C15.3705 4.34577 15.5069 4.28031 15.5923 4.15832L16.0237 3.54194C16.4289 3.65478 16.869 3.5678 17.2009 3.30642L17.8491 3.76029C18.048 3.89945 18.3217 3.85116 18.4611 3.65249C18.6003 3.45359 18.552 3.17962 18.3531 3.04046L17.389 2.36549Z" stroke="#FF8D20" stroke-width="0.6" mask="url(#path-1-outside-1)"/>
<mask id="path-2-outside-2" maskUnits="userSpaceOnUse" x="20.2344" y="4.46094" width="4" height="6" fill="black">
<rect fill="white" x="20.2344" y="4.46094" width="4" height="6"/>
<path d="M22.2512 7.90087L21.8198 8.51702C21.6806 8.71592 21.7289 8.98989 21.9276 9.12905C22.0045 9.18284 22.0924 9.20847 22.1794 9.20847C22.3178 9.20847 22.4543 9.14324 22.5396 9.02102L23.1803 8.10641C23.3194 7.90751 23.2711 7.63354 23.0725 7.49438C22.871 7.35339 22.8218 7.07484 22.9631 6.87319C22.9665 6.86839 22.9697 6.86358 22.9736 6.85923C23.0532 6.7647 23.0896 6.64134 23.0736 6.51888C23.0578 6.39643 22.9912 6.28611 22.89 6.21539L21.926 5.54041C21.7271 5.40125 21.4531 5.44955 21.314 5.64845C21.1746 5.84712 21.2231 6.12132 21.4218 6.26048L22.07 6.71412C21.9377 7.11558 22.0066 7.55869 22.2512 7.90087Z"/>
</mask>
<path d="M22.2512 7.90087L21.8198 8.51702C21.6806 8.71592 21.7289 8.98989 21.9276 9.12905C22.0045 9.18284 22.0924 9.20847 22.1794 9.20847C22.3178 9.20847 22.4543 9.14324 22.5396 9.02102L23.1803 8.10641C23.3194 7.90751 23.2711 7.63354 23.0725 7.49438C22.871 7.35339 22.8218 7.07484 22.9631 6.87319C22.9665 6.86839 22.9697 6.86358 22.9736 6.85923C23.0532 6.7647 23.0896 6.64134 23.0736 6.51888C23.0578 6.39643 22.9912 6.28611 22.89 6.21539L21.926 5.54041C21.7271 5.40125 21.4531 5.44955 21.314 5.64845C21.1746 5.84712 21.2231 6.12132 21.4218 6.26048L22.07 6.71412C21.9377 7.11558 22.0066 7.55869 22.2512 7.90087Z" fill="#FF8D20"/>
<path d="M22.2512 7.90087L21.8198 8.51702C21.6806 8.71592 21.7289 8.98989 21.9276 9.12905C22.0045 9.18284 22.0924 9.20847 22.1794 9.20847C22.3178 9.20847 22.4543 9.14324 22.5396 9.02102L23.1803 8.10641C23.3194 7.90751 23.2711 7.63354 23.0725 7.49438C22.871 7.35339 22.8218 7.07484 22.9631 6.87319C22.9665 6.86839 22.9697 6.86358 22.9736 6.85923C23.0532 6.7647 23.0896 6.64134 23.0736 6.51888C23.0578 6.39643 22.9912 6.28611 22.89 6.21539L21.926 5.54041C21.7271 5.40125 21.4531 5.44955 21.314 5.64845C21.1746 5.84712 21.2231 6.12132 21.4218 6.26048L22.07 6.71412C21.9377 7.11558 22.0066 7.55869 22.2512 7.90087Z" stroke="#FF8D20" stroke-width="0.6" mask="url(#path-2-outside-2)"/>
<mask id="path-3-outside-3" maskUnits="userSpaceOnUse" x="17.2891" y="15.8949" width="5" height="5" fill="black">
<rect fill="white" x="17.2891" y="15.8949" width="5" height="5"/>
<path d="M19.9185 17.7738C20.1272 17.7738 20.3211 17.8573 20.4644 18.0093C20.631 18.1856 20.9091 18.1936 21.0855 18.0269C21.2622 17.8603 21.27 17.5822 21.1034 17.4058C20.7969 17.0812 20.365 16.8949 19.9185 16.8949C19.0199 16.8949 18.2891 17.6259 18.2891 18.5245C18.2891 19.4229 19.0199 20.1539 19.9185 20.1539C20.3538 20.1539 20.7631 19.9846 21.0707 19.6767C21.2423 19.5051 21.2423 19.2267 21.0707 19.0553C20.8992 18.8837 20.6209 18.8837 20.4493 19.0553C20.3076 19.197 20.119 19.275 19.9185 19.275C19.5047 19.275 19.168 18.9384 19.168 18.5245C19.168 18.1105 19.5047 17.7738 19.9185 17.7738Z"/>
</mask>
<path d="M19.9185 17.7738C20.1272 17.7738 20.3211 17.8573 20.4644 18.0093C20.631 18.1856 20.9091 18.1936 21.0855 18.0269C21.2622 17.8603 21.27 17.5822 21.1034 17.4058C20.7969 17.0812 20.365 16.8949 19.9185 16.8949C19.0199 16.8949 18.2891 17.6259 18.2891 18.5245C18.2891 19.4229 19.0199 20.1539 19.9185 20.1539C20.3538 20.1539 20.7631 19.9846 21.0707 19.6767C21.2423 19.5051 21.2423 19.2267 21.0707 19.0553C20.8992 18.8837 20.6209 18.8837 20.4493 19.0553C20.3076 19.197 20.119 19.275 19.9185 19.275C19.5047 19.275 19.168 18.9384 19.168 18.5245C19.168 18.1105 19.5047 17.7738 19.9185 17.7738Z" fill="#FF8D20"/>
<path d="M19.9185 17.7738C20.1272 17.7738 20.3211 17.8573 20.4644 18.0093C20.631 18.1856 20.9091 18.1936 21.0855 18.0269C21.2622 17.8603 21.27 17.5822 21.1034 17.4058C20.7969 17.0812 20.365 16.8949 19.9185 16.8949C19.0199 16.8949 18.2891 17.6259 18.2891 18.5245C18.2891 19.4229 19.0199 20.1539 19.9185 20.1539C20.3538 20.1539 20.7631 19.9846 21.0707 19.6767C21.2423 19.5051 21.2423 19.2267 21.0707 19.0553C20.8992 18.8837 20.6209 18.8837 20.4493 19.0553C20.3076 19.197 20.119 19.275 19.9185 19.275C19.5047 19.275 19.168 18.9384 19.168 18.5245C19.168 18.1105 19.5047 17.7738 19.9185 17.7738Z" stroke="#FF8D20" stroke-width="0.6" mask="url(#path-3-outside-3)"/>
<mask id="path-4-outside-4" maskUnits="userSpaceOnUse" x="-0.597656" y="-1" width="27" height="29" fill="black">
<rect fill="white" x="-0.597656" y="-1" width="27" height="29"/>
<path d="M23.8305 15.4289V11.9092C23.8305 10.7142 22.8582 9.74192 21.6632 9.74192H19.3311C19.4675 8.56364 19.0828 7.52726 18.2711 6.95894C17.5836 6.47761 16.6928 6.39132 15.7626 6.71587C14.8835 7.0228 14.0657 7.66779 13.4605 8.53205C13.1925 8.91451 12.9792 9.32009 12.8244 9.74192H9.96342L16.113 0.959494L24.6464 6.93445L23.3464 8.79137C23.2072 8.99027 23.2555 9.26424 23.4542 9.4034C23.6531 9.54256 23.927 9.49427 24.0662 9.29537L25.4834 7.27137C25.697 6.96718 25.6231 6.54581 25.3184 6.33204L16.4499 0.122473C16.3025 0.0190183 16.1236 -0.0208072 15.9462 0.0103207C15.7688 0.0416776 15.6143 0.139868 15.5106 0.287497L13.4765 3.19269V1.44083C13.4765 1.0689 13.174 0.766317 12.802 0.766317H2.26155C1.88962 0.766317 1.58704 1.0689 1.58704 1.44083V3.84661C1.58704 4.08945 1.78387 4.28606 2.02649 4.28606C2.26933 4.28606 2.46594 4.08945 2.46594 3.84661V1.64545H3.73921V9.74169H2.56963C2.53506 9.74169 2.5005 9.74261 2.46594 9.74421V5.60442C2.46594 5.36181 2.26933 5.16497 2.02649 5.16497C1.78387 5.16497 1.58704 5.36181 1.58704 5.60442V9.97767C0.884598 10.3366 0.402344 11.0676 0.402344 11.9092V25.1397C0.402344 26.3347 1.37463 27.307 2.56963 27.307H5.85088C6.09372 27.307 6.29033 27.1104 6.29033 26.8675C6.29033 26.6249 6.09372 26.4281 5.85088 26.4281H2.56963C1.85918 26.4281 1.28125 25.8502 1.28125 25.1397V11.9092C1.28125 11.3462 1.64426 10.8664 2.14825 10.6916C2.15947 10.6883 2.17068 10.6847 2.18144 10.6806C2.30412 10.6417 2.43459 10.6206 2.56985 10.6206H21.6632C22.3736 10.6206 22.9518 11.1988 22.9518 11.9092V15.3681H19.8056C18.0652 15.3681 16.6491 16.7839 16.6491 18.5246C16.6491 20.265 18.0652 21.6809 19.8056 21.6809H22.9518V25.1397C22.9518 25.8502 22.3736 26.4281 21.6632 26.4281H18.3053C18.0624 26.4281 17.8658 26.6249 17.8658 26.8675C17.8658 27.1104 18.0624 27.307 18.3053 27.307H21.6632C22.8582 27.307 23.8307 26.3347 23.8307 25.1397V21.62C24.825 21.384 25.5668 20.4886 25.5668 19.4234V17.6258C25.5665 16.5603 24.8247 15.6649 23.8305 15.4289ZM14.1803 9.03651C15.1826 7.60508 16.7917 6.99625 17.7672 7.67901C18.3291 8.07246 18.5765 8.84447 18.4449 9.74169H13.7743C13.8858 9.49908 14.0213 9.2631 14.1803 9.03651ZM12.5976 4.44788L8.89066 9.74192H6.7252V1.64522H12.5976V4.44788ZM4.61812 1.64522H5.8463V9.74169H4.61812V1.64522ZM24.6876 19.4232C24.6876 20.1835 24.0692 20.8019 23.3088 20.8019H19.8056C18.5497 20.8019 17.528 19.7802 17.528 18.5243C17.528 17.2687 18.5497 16.247 19.8056 16.247H23.3088C24.0692 16.247 24.6876 16.8654 24.6876 17.6258V19.4232Z"/>
</mask>
<path d="M23.8305 15.4289V11.9092C23.8305 10.7142 22.8582 9.74192 21.6632 9.74192H19.3311C19.4675 8.56364 19.0828 7.52726 18.2711 6.95894C17.5836 6.47761 16.6928 6.39132 15.7626 6.71587C14.8835 7.0228 14.0657 7.66779 13.4605 8.53205C13.1925 8.91451 12.9792 9.32009 12.8244 9.74192H9.96342L16.113 0.959494L24.6464 6.93445L23.3464 8.79137C23.2072 8.99027 23.2555 9.26424 23.4542 9.4034C23.6531 9.54256 23.927 9.49427 24.0662 9.29537L25.4834 7.27137C25.697 6.96718 25.6231 6.54581 25.3184 6.33204L16.4499 0.122473C16.3025 0.0190183 16.1236 -0.0208072 15.9462 0.0103207C15.7688 0.0416776 15.6143 0.139868 15.5106 0.287497L13.4765 3.19269V1.44083C13.4765 1.0689 13.174 0.766317 12.802 0.766317H2.26155C1.88962 0.766317 1.58704 1.0689 1.58704 1.44083V3.84661C1.58704 4.08945 1.78387 4.28606 2.02649 4.28606C2.26933 4.28606 2.46594 4.08945 2.46594 3.84661V1.64545H3.73921V9.74169H2.56963C2.53506 9.74169 2.5005 9.74261 2.46594 9.74421V5.60442C2.46594 5.36181 2.26933 5.16497 2.02649 5.16497C1.78387 5.16497 1.58704 5.36181 1.58704 5.60442V9.97767C0.884598 10.3366 0.402344 11.0676 0.402344 11.9092V25.1397C0.402344 26.3347 1.37463 27.307 2.56963 27.307H5.85088C6.09372 27.307 6.29033 27.1104 6.29033 26.8675C6.29033 26.6249 6.09372 26.4281 5.85088 26.4281H2.56963C1.85918 26.4281 1.28125 25.8502 1.28125 25.1397V11.9092C1.28125 11.3462 1.64426 10.8664 2.14825 10.6916C2.15947 10.6883 2.17068 10.6847 2.18144 10.6806C2.30412 10.6417 2.43459 10.6206 2.56985 10.6206H21.6632C22.3736 10.6206 22.9518 11.1988 22.9518 11.9092V15.3681H19.8056C18.0652 15.3681 16.6491 16.7839 16.6491 18.5246C16.6491 20.265 18.0652 21.6809 19.8056 21.6809H22.9518V25.1397C22.9518 25.8502 22.3736 26.4281 21.6632 26.4281H18.3053C18.0624 26.4281 17.8658 26.6249 17.8658 26.8675C17.8658 27.1104 18.0624 27.307 18.3053 27.307H21.6632C22.8582 27.307 23.8307 26.3347 23.8307 25.1397V21.62C24.825 21.384 25.5668 20.4886 25.5668 19.4234V17.6258C25.5665 16.5603 24.8247 15.6649 23.8305 15.4289ZM14.1803 9.03651C15.1826 7.60508 16.7917 6.99625 17.7672 7.67901C18.3291 8.07246 18.5765 8.84447 18.4449 9.74169H13.7743C13.8858 9.49908 14.0213 9.2631 14.1803 9.03651ZM12.5976 4.44788L8.89066 9.74192H6.7252V1.64522H12.5976V4.44788ZM4.61812 1.64522H5.8463V9.74169H4.61812V1.64522ZM24.6876 19.4232C24.6876 20.1835 24.0692 20.8019 23.3088 20.8019H19.8056C18.5497 20.8019 17.528 19.7802 17.528 18.5243C17.528 17.2687 18.5497 16.247 19.8056 16.247H23.3088C24.0692 16.247 24.6876 16.8654 24.6876 17.6258V19.4232Z" fill="#FF8D20"/>
<path d="M23.8305 15.4289V11.9092C23.8305 10.7142 22.8582 9.74192 21.6632 9.74192H19.3311C19.4675 8.56364 19.0828 7.52726 18.2711 6.95894C17.5836 6.47761 16.6928 6.39132 15.7626 6.71587C14.8835 7.0228 14.0657 7.66779 13.4605 8.53205C13.1925 8.91451 12.9792 9.32009 12.8244 9.74192H9.96342L16.113 0.959494L24.6464 6.93445L23.3464 8.79137C23.2072 8.99027 23.2555 9.26424 23.4542 9.4034C23.6531 9.54256 23.927 9.49427 24.0662 9.29537L25.4834 7.27137C25.697 6.96718 25.6231 6.54581 25.3184 6.33204L16.4499 0.122473C16.3025 0.0190183 16.1236 -0.0208072 15.9462 0.0103207C15.7688 0.0416776 15.6143 0.139868 15.5106 0.287497L13.4765 3.19269V1.44083C13.4765 1.0689 13.174 0.766317 12.802 0.766317H2.26155C1.88962 0.766317 1.58704 1.0689 1.58704 1.44083V3.84661C1.58704 4.08945 1.78387 4.28606 2.02649 4.28606C2.26933 4.28606 2.46594 4.08945 2.46594 3.84661V1.64545H3.73921V9.74169H2.56963C2.53506 9.74169 2.5005 9.74261 2.46594 9.74421V5.60442C2.46594 5.36181 2.26933 5.16497 2.02649 5.16497C1.78387 5.16497 1.58704 5.36181 1.58704 5.60442V9.97767C0.884598 10.3366 0.402344 11.0676 0.402344 11.9092V25.1397C0.402344 26.3347 1.37463 27.307 2.56963 27.307H5.85088C6.09372 27.307 6.29033 27.1104 6.29033 26.8675C6.29033 26.6249 6.09372 26.4281 5.85088 26.4281H2.56963C1.85918 26.4281 1.28125 25.8502 1.28125 25.1397V11.9092C1.28125 11.3462 1.64426 10.8664 2.14825 10.6916C2.15947 10.6883 2.17068 10.6847 2.18144 10.6806C2.30412 10.6417 2.43459 10.6206 2.56985 10.6206H21.6632C22.3736 10.6206 22.9518 11.1988 22.9518 11.9092V15.3681H19.8056C18.0652 15.3681 16.6491 16.7839 16.6491 18.5246C16.6491 20.265 18.0652 21.6809 19.8056 21.6809H22.9518V25.1397C22.9518 25.8502 22.3736 26.4281 21.6632 26.4281H18.3053C18.0624 26.4281 17.8658 26.6249 17.8658 26.8675C17.8658 27.1104 18.0624 27.307 18.3053 27.307H21.6632C22.8582 27.307 23.8307 26.3347 23.8307 25.1397V21.62C24.825 21.384 25.5668 20.4886 25.5668 19.4234V17.6258C25.5665 16.5603 24.8247 15.6649 23.8305 15.4289ZM14.1803 9.03651C15.1826 7.60508 16.7917 6.99625 17.7672 7.67901C18.3291 8.07246 18.5765 8.84447 18.4449 9.74169H13.7743C13.8858 9.49908 14.0213 9.2631 14.1803 9.03651ZM12.5976 4.44788L8.89066 9.74192H6.7252V1.64522H12.5976V4.44788ZM4.61812 1.64522H5.8463V9.74169H4.61812V1.64522ZM24.6876 19.4232C24.6876 20.1835 24.0692 20.8019 23.3088 20.8019H19.8056C18.5497 20.8019 17.528 19.7802 17.528 18.5243C17.528 17.2687 18.5497 16.247 19.8056 16.247H23.3088C24.0692 16.247 24.6876 16.8654 24.6876 17.6258V19.4232Z" stroke="#FF8D20" stroke-width="0.6" mask="url(#path-4-outside-4)"/>
<mask id="path-5-outside-5" maskUnits="userSpaceOnUse" x="5.80859" y="18.3816" width="12" height="12" fill="black">
<rect fill="white" x="5.80859" y="18.3816" width="12" height="12"/>
<path d="M12.1177 19.3816C9.19034 19.3816 6.80859 21.7633 6.80859 24.691C6.80859 27.6184 9.19034 30.0001 12.1177 30.0001C15.0454 30.0001 17.4271 27.6184 17.4271 24.691C17.4271 21.7633 15.0454 19.3816 12.1177 19.3816ZM12.1177 29.1212C9.67488 29.1212 7.6875 27.1338 7.6875 24.691C7.6875 22.2479 9.67488 20.2605 12.1177 20.2605C14.5608 20.2605 16.5482 22.2479 16.5482 24.691C16.5482 27.1338 14.5608 29.1212 12.1177 29.1212Z"/>
</mask>
<path d="M12.1177 19.3816C9.19034 19.3816 6.80859 21.7633 6.80859 24.691C6.80859 27.6184 9.19034 30.0001 12.1177 30.0001C15.0454 30.0001 17.4271 27.6184 17.4271 24.691C17.4271 21.7633 15.0454 19.3816 12.1177 19.3816ZM12.1177 29.1212C9.67488 29.1212 7.6875 27.1338 7.6875 24.691C7.6875 22.2479 9.67488 20.2605 12.1177 20.2605C14.5608 20.2605 16.5482 22.2479 16.5482 24.691C16.5482 27.1338 14.5608 29.1212 12.1177 29.1212Z" fill="#FF8D20"/>
<path d="M12.1177 19.3816C9.19034 19.3816 6.80859 21.7633 6.80859 24.691C6.80859 27.6184 9.19034 30.0001 12.1177 30.0001C15.0454 30.0001 17.4271 27.6184 17.4271 24.691C17.4271 21.7633 15.0454 19.3816 12.1177 19.3816ZM12.1177 29.1212C9.67488 29.1212 7.6875 27.1338 7.6875 24.691C7.6875 22.2479 9.67488 20.2605 12.1177 20.2605C14.5608 20.2605 16.5482 22.2479 16.5482 24.691C16.5482 27.1338 14.5608 29.1212 12.1177 29.1212Z" stroke="#FF8D20" stroke-width="0.6" mask="url(#path-5-outside-5)"/>
<mask id="path-6-outside-6" maskUnits="userSpaceOnUse" x="9.46094" y="20.7605" width="5" height="8" fill="black">
<rect fill="white" x="9.46094" y="20.7605" width="5" height="8"/>
<path d="M12.49 24.2514H11.7404C11.5195 24.2514 11.3398 24.0717 11.3398 23.8509C11.3398 23.63 11.5195 23.4503 11.7404 23.4503H13.1748C13.4174 23.4503 13.6142 23.2535 13.6142 23.0109C13.6142 22.7683 13.4174 22.5714 13.1748 22.5714H12.6353V22.2C12.6353 21.9573 12.4385 21.7605 12.1959 21.7605C11.9532 21.7605 11.7564 21.9573 11.7564 22.2V22.5714H11.7404C11.035 22.5714 10.4609 23.1455 10.4609 23.8509C10.4609 24.5563 11.035 25.1303 11.7404 25.1303H12.49C12.7108 25.1303 12.8903 25.3098 12.8903 25.5306C12.8903 25.7515 12.7108 25.9312 12.49 25.9312H11.0556C10.8127 25.9312 10.6161 26.128 10.6161 26.3706C10.6161 26.6133 10.8127 26.8101 11.0556 26.8101H11.7564V27.1816C11.7564 27.4242 11.9532 27.621 12.1959 27.621C12.4387 27.621 12.6353 27.4242 12.6353 27.1816V26.8018C13.2725 26.7293 13.7694 26.1871 13.7694 25.5306C13.7692 24.8252 13.1954 24.2514 12.49 24.2514Z"/>
</mask>
<path d="M12.49 24.2514H11.7404C11.5195 24.2514 11.3398 24.0717 11.3398 23.8509C11.3398 23.63 11.5195 23.4503 11.7404 23.4503H13.1748C13.4174 23.4503 13.6142 23.2535 13.6142 23.0109C13.6142 22.7683 13.4174 22.5714 13.1748 22.5714H12.6353V22.2C12.6353 21.9573 12.4385 21.7605 12.1959 21.7605C11.9532 21.7605 11.7564 21.9573 11.7564 22.2V22.5714H11.7404C11.035 22.5714 10.4609 23.1455 10.4609 23.8509C10.4609 24.5563 11.035 25.1303 11.7404 25.1303H12.49C12.7108 25.1303 12.8903 25.3098 12.8903 25.5306C12.8903 25.7515 12.7108 25.9312 12.49 25.9312H11.0556C10.8127 25.9312 10.6161 26.128 10.6161 26.3706C10.6161 26.6133 10.8127 26.8101 11.0556 26.8101H11.7564V27.1816C11.7564 27.4242 11.9532 27.621 12.1959 27.621C12.4387 27.621 12.6353 27.4242 12.6353 27.1816V26.8018C13.2725 26.7293 13.7694 26.1871 13.7694 25.5306C13.7692 24.8252 13.1954 24.2514 12.49 24.2514Z" fill="#FF8D20"/>
<path d="M12.49 24.2514H11.7404C11.5195 24.2514 11.3398 24.0717 11.3398 23.8509C11.3398 23.63 11.5195 23.4503 11.7404 23.4503H13.1748C13.4174 23.4503 13.6142 23.2535 13.6142 23.0109C13.6142 22.7683 13.4174 22.5714 13.1748 22.5714H12.6353V22.2C12.6353 21.9573 12.4385 21.7605 12.1959 21.7605C11.9532 21.7605 11.7564 21.9573 11.7564 22.2V22.5714H11.7404C11.035 22.5714 10.4609 23.1455 10.4609 23.8509C10.4609 24.5563 11.035 25.1303 11.7404 25.1303H12.49C12.7108 25.1303 12.8903 25.3098 12.8903 25.5306C12.8903 25.7515 12.7108 25.9312 12.49 25.9312H11.0556C10.8127 25.9312 10.6161 26.128 10.6161 26.3706C10.6161 26.6133 10.8127 26.8101 11.0556 26.8101H11.7564V27.1816C11.7564 27.4242 11.9532 27.621 12.1959 27.621C12.4387 27.621 12.6353 27.4242 12.6353 27.1816V26.8018C13.2725 26.7293 13.7694 26.1871 13.7694 25.5306C13.7692 24.8252 13.1954 24.2514 12.49 24.2514Z" stroke="#FF8D20" stroke-width="0.6" mask="url(#path-6-outside-6)"/>
</svg>
