<svg width="27" height="27" viewBox="0 0 27 27" fill="none" xmlns="http://www.w3.org/2000/svg">
<path d="M26.5661 21.7625H26.1323V1.37135C26.1323 1.25629 26.0866 1.14594 26.0052 1.06457C25.9239 0.98321 25.8135 0.9375 25.6984 0.9375H2.27031C2.15525 0.9375 2.04489 0.98321 1.96353 1.06457C1.88217 1.14594 1.83646 1.25629 1.83646 1.37135V21.7625H1.4026C1.28754 21.7625 1.17719 21.8082 1.09582 21.8896C1.01446 21.9709 0.96875 22.0813 0.96875 22.1964V23.9318C0.96875 24.0468 1.01446 24.1572 1.09582 24.2386C1.17719 24.3199 1.28754 24.3656 1.4026 24.3656H2.70417V25.6672C2.70417 25.7823 2.74988 25.8926 2.83124 25.974C2.9126 26.0553 3.02296 26.101 3.13802 26.101H5.74115C5.85621 26.101 5.96656 26.0553 6.04793 25.974C6.12929 25.8926 6.175 25.7823 6.175 25.6672V24.3656H12.249V25.6672C12.249 25.7823 12.2947 25.8926 12.376 25.974C12.4574 26.0553 12.5677 26.101 12.6828 26.101H15.2859C15.401 26.101 15.5114 26.0553 15.5927 25.974C15.6741 25.8926 15.7198 25.7823 15.7198 25.6672V24.3656H21.7938V25.6672C21.7938 25.7823 21.8395 25.8926 21.9208 25.974C22.0022 26.0553 22.1125 26.101 22.2276 26.101H24.8307C24.9458 26.101 25.0561 26.0553 25.1375 25.974C25.2189 25.8926 25.2646 25.7823 25.2646 25.6672V24.3656H26.5661C26.6812 24.3656 26.7916 24.3199 26.8729 24.2386C26.9543 24.1572 27 24.0468 27 23.9318V22.1964C27 22.0813 26.9543 21.9709 26.8729 21.8896C26.7916 21.8082 26.6812 21.7625 26.5661 21.7625ZM18.3229 21.7625V15.6885H20.0583V17.8578C20.0583 17.9729 20.104 18.0832 20.1854 18.1646C20.2668 18.246 20.3771 18.2917 20.4922 18.2917H23.0953C23.2104 18.2917 23.3207 18.246 23.4021 18.1646C23.4835 18.0832 23.5292 17.9729 23.5292 17.8578V15.6885H25.2646V21.7625H18.3229ZM5.30729 15.6885H7.04271V17.424H5.30729V15.6885ZM2.70417 14.8208V8.74687H4.43958V10.9161C4.43958 11.0312 4.48529 11.1416 4.56666 11.2229C4.64802 11.3043 4.75837 11.35 4.87344 11.35H7.47656C7.59163 11.35 7.70198 11.3043 7.78334 11.2229C7.86471 11.1416 7.91042 11.0312 7.91042 10.9161V8.74687H9.64583V14.8208H2.70417ZM5.30729 8.74687H7.04271V10.4823H5.30729V8.74687ZM10.5135 8.74687H12.249V10.9161C12.249 11.0312 12.2947 11.1416 12.376 11.2229C12.4574 11.3043 12.5677 11.35 12.6828 11.35H15.2859C15.401 11.35 15.5114 11.3043 15.5927 11.2229C15.6741 11.1416 15.7198 11.0312 15.7198 10.9161V8.74687H17.4552V14.8208H10.5135V8.74687ZM13.1167 1.80521H14.8521V3.54063H13.1167V1.80521ZM12.6828 4.40833H15.2859C15.401 4.40833 15.5114 4.36262 15.5927 4.28126C15.6741 4.1999 15.7198 4.08954 15.7198 3.97448V1.80521H17.4552V7.87917H10.5135V1.80521H12.249V3.97448C12.249 4.08954 12.2947 4.1999 12.376 4.28126C12.4574 4.36262 12.5677 4.40833 12.6828 4.40833ZM13.1167 8.74687H14.8521V10.4823H13.1167V8.74687ZM20.926 8.74687H22.6615V10.4823H20.926V8.74687ZM20.4922 11.35H23.0953C23.2104 11.35 23.3207 11.3043 23.4021 11.2229C23.4835 11.1416 23.5292 11.0312 23.5292 10.9161V8.74687H25.2646V14.8208H18.3229V8.74687H20.0583V10.9161C20.0583 11.0312 20.104 11.1416 20.1854 11.2229C20.2668 11.3043 20.3771 11.35 20.4922 11.35ZM20.926 15.6885H22.6615V17.424H20.926V15.6885ZM13.1167 15.6885H14.8521V17.424H13.1167V15.6885ZM12.249 15.6885V17.8578C12.249 17.9729 12.2947 18.0832 12.376 18.1646C12.4574 18.246 12.5677 18.2917 12.6828 18.2917H15.2859C15.401 18.2917 15.5114 18.246 15.5927 18.1646C15.6741 18.0832 15.7198 17.9729 15.7198 17.8578V15.6885H17.4552V21.7625H10.5135V15.6885H12.249ZM25.2646 7.87917H18.3229V1.80521H20.0583V3.97448C20.0583 4.08954 20.104 4.1999 20.1854 4.28126C20.2668 4.36262 20.3771 4.40833 20.4922 4.40833H23.0953C23.2104 4.40833 23.3207 4.36262 23.4021 4.28126C23.4835 4.1999 23.5292 4.08954 23.5292 3.97448V1.80521H25.2646V7.87917ZM20.926 1.80521H22.6615V3.54063H20.926V1.80521ZM5.30729 1.80521H7.04271V3.54063H5.30729V1.80521ZM4.43958 1.80521V3.97448C4.43958 4.08954 4.48529 4.1999 4.56666 4.28126C4.64802 4.36262 4.75837 4.40833 4.87344 4.40833H7.47656C7.59163 4.40833 7.70198 4.36262 7.78334 4.28126C7.86471 4.1999 7.91042 4.08954 7.91042 3.97448V1.80521H9.64583V7.87917H2.70417V1.80521H4.43958ZM2.70417 15.6885H4.43958V17.8578C4.43958 17.9729 4.48529 18.0832 4.56666 18.1646C4.64802 18.246 4.75837 18.2917 4.87344 18.2917H7.47656C7.59163 18.2917 7.70198 18.246 7.78334 18.1646C7.86471 18.0832 7.91042 17.9729 7.91042 17.8578V15.6885H9.64583V21.7625H2.70417V15.6885ZM5.30729 25.2333H3.57188V24.3656H5.30729V25.2333ZM14.8521 25.2333H13.1167V24.3656H14.8521V25.2333ZM24.3969 25.2333H22.6615V24.3656H24.3969V25.2333ZM26.1323 23.4979H1.83646V22.6302H26.1323V23.4979Z" fill="#FF8D20"/>
<path d="M23.5273 20.0271H24.3951V20.8948H23.5273V20.0271Z" fill="#FF8D20"/>
<path d="M15.7188 20.0271H16.5865V20.8948H15.7188V20.0271Z" fill="#FF8D20"/>
<path d="M23.5273 13.0854H24.3951V13.9532H23.5273V13.0854Z" fill="#FF8D20"/>
<path d="M15.7188 13.0854H16.5865V13.9532H15.7188V13.0854Z" fill="#FF8D20"/>
<path d="M7.91016 20.0271H8.77786V20.8948H7.91016V20.0271Z" fill="#FF8D20"/>
<path d="M7.91016 13.0854H8.77786V13.9532H7.91016V13.0854Z" fill="#FF8D20"/>
<path d="M23.5273 6.1438H24.3951V7.01151H23.5273V6.1438Z" fill="#FF8D20"/>
<path d="M15.7188 6.1438H16.5865V7.01151H15.7188V6.1438Z" fill="#FF8D20"/>
<path d="M7.91016 6.1438H8.77786V7.01151H7.91016V6.1438Z" fill="#FF8D20"/>
</svg>
