<svg width="22" height="26" viewBox="0 0 22 26" fill="none" xmlns="http://www.w3.org/2000/svg">
<path d="M16.0781 21.7852C15.7978 21.7852 15.5703 22.0127 15.5703 22.293C15.5703 22.5733 15.7978 22.8008 16.0781 22.8008C16.3584 22.8008 16.5859 22.5733 16.5859 22.293C16.5859 22.0127 16.3584 21.7852 16.0781 21.7852Z" fill="#FF8D20"/>
<path d="M5.92188 21.7852C5.64156 21.7852 5.41406 22.0127 5.41406 22.293C5.41406 22.5733 5.64156 22.8008 5.92188 22.8008C6.20219 22.8008 6.42969 22.5733 6.42969 22.293C6.42969 22.0127 6.20219 21.7852 5.92188 21.7852Z" fill="#FF8D20"/>
<path d="M20.732 19.1552C20.1603 18.2704 19.3748 17.5673 18.4546 17.1133C18.377 17.0412 18.2772 16.9929 18.1663 16.9806C17.5007 16.698 16.7991 16.5547 16.0781 16.5547H14.5547V15.2149C15.4363 14.4585 16.0701 13.4566 16.3774 12.3398H16.5859C17.706 12.3398 18.6172 11.4286 18.6172 10.3086C18.6172 9.77783 18.4123 9.29419 18.0778 8.93191C18.1097 8.9048 18.1409 8.87656 18.1709 8.84665C18.4587 8.55882 18.6172 8.17629 18.6172 7.76953C18.6172 7.1011 18.1842 6.5322 17.5841 6.32755C17.4047 3.99242 15.7659 1.99692 13.5094 1.3715C13.3757 0.673156 12.7994 0 12.0156 0H9.98438C9.20062 0 8.6243 0.673156 8.49059 1.3715C6.23433 1.99687 4.59562 3.99202 4.41591 6.32684C4.19745 6.40093 3.99711 6.52448 3.82913 6.69241C3.5413 6.98024 3.38281 7.36277 3.38281 7.76953C3.38281 8.23484 3.59274 8.65186 3.92262 8.93151C3.58787 9.29378 3.38281 9.77763 3.38281 10.3086C3.38281 11.4286 4.29403 12.3398 5.41406 12.3398H5.62115C5.8777 13.272 6.36413 14.1279 7.04272 14.8348C7.17023 14.9677 7.30541 15.0944 7.44531 15.2145V16.5547H5.92188C5.20088 16.5547 4.49929 16.698 3.83375 16.9805C3.72284 16.9929 3.62301 17.0412 3.54546 17.1132C2.62516 17.5673 1.83967 18.2704 1.26803 19.1551C0.658246 20.099 0.335938 21.1841 0.335938 22.293V25.4922C0.335938 25.7726 0.563285 26 0.84375 26H21.1562C21.4367 26 21.6641 25.7726 21.6641 25.4922V22.293C21.6641 21.1841 21.3418 20.099 20.732 19.1552ZM3.38281 24.9844H1.35156V22.293C1.35156 20.7484 2.14284 19.2679 3.38281 18.389V24.9844ZM16.5859 11.3242H16.5628C16.5779 11.1553 16.5859 10.9857 16.5859 10.8164V9.29297C17.146 9.29297 17.6016 9.74858 17.6016 10.3086C17.6016 10.8686 17.146 11.3242 16.5859 11.3242ZM8.46094 2.44456V4.72266C8.46094 5.00312 8.68828 5.23047 8.96875 5.23047C9.24922 5.23047 9.47656 5.00312 9.47656 4.72266V1.78054C9.47656 1.77922 9.47656 1.7779 9.47656 1.77658V1.67578C9.47656 1.36114 9.74235 1.01562 9.98438 1.01562H12.0156C12.2576 1.01562 12.5234 1.36114 12.5234 1.67578V1.77658C12.5234 1.7779 12.5234 1.77922 12.5234 1.78054V4.72266C12.5234 5.00312 12.7508 5.23047 13.0312 5.23047C13.3117 5.23047 13.5391 5.00312 13.5391 4.72266V2.44456C15.1788 3.02484 16.3625 4.50866 16.5576 6.24609H5.44245C5.6375 4.50866 6.82121 3.02484 8.46094 2.44456ZM5.41406 11.3242C4.85405 11.3242 4.39844 10.8686 4.39844 10.3086C4.39844 9.74858 4.85405 9.29297 5.41406 9.29297V10.8164C5.41406 10.9857 5.42209 11.1553 5.43722 11.3242H5.41406ZM5.41406 8.27734H4.90625C4.62624 8.27734 4.39844 8.04954 4.39844 7.76953C4.39844 7.63405 4.4513 7.50654 4.54728 7.41061C4.6433 7.31458 4.77077 7.26172 4.90625 7.26172H17.0938C17.3738 7.26172 17.6016 7.48952 17.6016 7.76953C17.6016 7.90502 17.5487 8.03253 17.4527 8.12845C17.3567 8.22448 17.2292 8.27734 17.0938 8.27734H16.5859H16.0781H5.92188H5.41406ZM6.52196 11.7398C6.52094 11.7342 6.51998 11.7287 6.51876 11.7233C6.4598 11.4253 6.42969 11.1202 6.42969 10.8164V9.29297H15.5703V10.8164C15.5703 11.12 15.5402 11.4248 15.4812 11.7231C15.48 11.7286 15.4791 11.7341 15.478 11.7397C15.2511 12.8724 14.623 13.8864 13.7085 14.5956C12.9139 15.2128 11.9774 15.5391 11 15.5391C10.0226 15.5391 9.08605 15.2128 8.29077 14.5951C8.10872 14.4542 7.93545 14.2984 7.77559 14.1317C7.13499 13.4643 6.70172 12.6375 6.52196 11.7398ZM10.4922 24.9844H6.42969V23.8164C6.42969 23.5359 6.20234 23.3086 5.92188 23.3086C5.64141 23.3086 5.41406 23.5359 5.41406 23.8164V24.9844H4.39844V17.8483C4.72801 17.724 5.06753 17.6412 5.41406 17.6004V20.7695C5.41406 21.05 5.64141 21.2773 5.92188 21.2773C6.20234 21.2773 6.42969 21.05 6.42969 20.7695V17.5703H7.73553L10.4922 20.4648V24.9844ZM8.46094 16.8594V15.9135C9.24454 16.3348 10.1076 16.5547 11 16.5547C11.8924 16.5547 12.7556 16.3347 13.5391 15.9136V16.8594L11 19.5254L8.46094 16.8594ZM17.6016 24.9844H16.5859V23.8164C16.5859 23.5359 16.3586 23.3086 16.0781 23.3086C15.7977 23.3086 15.5703 23.5359 15.5703 23.8164V24.9844H11.5078V20.4648L14.2645 17.5703H15.5703V20.7695C15.5703 21.05 15.7977 21.2773 16.0781 21.2773C16.3586 21.2773 16.5859 21.05 16.5859 20.7695V17.6004C16.9325 17.6412 17.2719 17.7241 17.6016 17.8483V24.9844ZM20.6484 24.9844H18.6172V18.389C19.8572 19.2678 20.6484 20.7483 20.6484 22.293V24.9844Z" fill="#FF8D20"/>
</svg>
