<svg width="15" height="14" viewBox="0 0 15 14" fill="none" xmlns="http://www.w3.org/2000/svg">
<path d="M7.83798 9.22417L7.77222 9.22956C7.70099 9.21502 7.63923 9.19995 7.57297 9.18541L15 1.40052L13.9505 0.0955895C13.905 0.0435689 13.8426 0.0125823 13.7764 0.00911483C13.7103 0.00564732 13.6455 0.0299676 13.5955 0.0769859C13.5456 0.124004 13.5144 0.190076 13.5085 0.261373C13.5026 0.332671 13.5225 0.403668 13.5639 0.459505L14.2962 1.36714L13.8369 1.84842L13.9569 1.37683C13.9644 1.34679 13.9621 1.31489 13.9504 1.28647C13.9387 1.25804 13.9183 1.23483 13.8927 1.22071L12.5263 0.480501C12.4968 0.464837 12.4628 0.462405 12.4317 0.473735C12.4005 0.485066 12.3748 0.509241 12.3601 0.54099C12.3453 0.57274 12.3428 0.609492 12.3531 0.643236C12.3633 0.67698 12.3855 0.704981 12.4147 0.721137L13.6879 1.41182L13.4837 2.21933L6.96477 9.04868C6.44024 8.92217 5.99542 8.7962 5.64474 8.69606C5.30021 8.5816 4.94749 8.49823 4.59021 8.44681C4.48311 8.42959 2.83931 8.5604 2.32026 8.61424C2.13349 8.63515 1.95836 8.72222 1.82214 8.86187L0.856773 9.83895C0.553572 10.1581 0.351498 10.5726 0.279447 11.0233L0 12.2502L0.82041 12.5791C0.922052 12.9867 1.14503 13.3468 1.45492 13.6037C1.76481 13.8607 2.14436 14.0002 2.53495 14.0008C2.67201 14.0005 2.80864 13.9841 2.94242 13.9519C3.24882 13.8761 3.53056 13.7122 3.75785 13.4776C4.26394 13.5228 4.94736 13.5637 5.79318 13.5637C6.4632 13.5863 7.13306 13.5139 7.78567 13.3484L7.89725 13.3128C8.06768 13.5278 8.27907 13.7005 8.51695 13.8191C8.75483 13.9376 9.0136 13.9993 9.27556 13.9998C9.4165 13.9996 9.557 13.9827 9.69448 13.9492C9.99607 13.8739 10.2748 13.7165 10.5041 13.4918C10.7335 13.2671 10.9057 12.9828 11.0045 12.6658L14.3998 12.4402V7.47673L10.1856 7.65923L7.83798 9.22417ZM2.17132 9.2667C2.22647 9.21013 2.29742 9.17491 2.37306 9.16657C2.95636 9.10143 4.46518 8.99969 4.55534 8.99861C4.8796 9.04997 5.19981 9.12771 5.51323 9.23117C5.79467 9.31192 6.1339 9.40829 6.52592 9.50895L6.31471 9.73021C6.2679 9.78187 6.24161 9.85124 6.24145 9.92355C6.2413 9.99585 6.26728 10.0654 6.31387 10.1173C6.36046 10.1692 6.42396 10.1993 6.49084 10.2013C6.55772 10.2034 6.62268 10.1771 6.67187 10.128L7.12417 9.65377C7.31096 9.69629 7.50423 9.73882 7.71095 9.78028L7.73138 9.78404L7.70647 10.8559C5.71398 11.2682 4.98622 10.7347 4.34214 10.2605C4.27241 10.2066 4.20367 10.1582 4.13492 10.1097C3.69754 9.78124 3.17273 9.61638 2.64055 9.64031L1.60346 9.84057L2.17132 9.2667ZM2.82586 13.3844C2.73034 13.4074 2.63281 13.4192 2.53495 13.4194C2.23174 13.4169 1.93981 13.2949 1.71392 13.0763C1.48802 12.8577 1.34369 12.5575 1.30799 12.2321C1.2723 11.9067 1.34768 11.5783 1.52002 11.3087C1.69235 11.0391 1.94979 10.8467 2.24405 10.7676C2.33956 10.7446 2.4371 10.7329 2.53495 10.7326C2.83748 10.7361 3.12847 10.8586 3.35356 11.0771C3.57864 11.2956 3.72243 11.5952 3.75807 11.9198C3.7937 12.2445 3.71874 12.5722 3.54719 12.8415C3.37563 13.1108 3.11922 13.3034 2.82586 13.3834V13.3844ZM5.79318 13.0076C5.13117 13.0076 4.57427 12.9812 4.12247 12.9489C4.18908 12.8117 4.23929 12.6659 4.27191 12.515C4.333 12.2325 4.33423 11.9387 4.27552 11.6556C4.2168 11.3725 4.09965 11.1074 3.93282 10.8801C3.76599 10.6528 3.5538 10.4692 3.31209 10.343C3.07037 10.2168 2.8054 10.1512 2.53694 10.1512C2.3999 10.1514 2.26328 10.1676 2.12948 10.1996C1.80576 10.2798 1.50951 10.457 1.27471 10.7109C1.03991 10.9647 0.876072 11.285 0.801979 11.6348C0.782492 11.7442 0.771661 11.8551 0.769601 11.9665L0.608209 11.9019L0.778567 11.152C0.82945 10.8109 0.977042 10.4952 1.20098 10.2486L1.26324 10.1862L2.67941 9.91271C3.14928 9.90169 3.61037 10.0513 3.99694 10.3401C4.06419 10.3875 4.13144 10.437 4.20018 10.4877C4.83113 11.0222 5.61433 11.3033 6.41583 11.2828C6.82527 11.2772 7.23346 11.2329 7.63574 11.1503C7.57363 11.284 7.52631 11.4251 7.49477 11.5708C7.41919 11.9425 7.44391 12.3298 7.566 12.6868L7.51619 12.8483C6.94841 12.9651 6.37108 13.019 5.79318 13.0092V13.0076ZM10.5174 12.346C10.4639 12.5943 10.3471 12.8215 10.1803 13.0018C10.0135 13.1821 9.80323 13.3083 9.57344 13.3661C9.47531 13.3898 9.3751 13.4019 9.27456 13.4022C9.03441 13.4017 8.79923 13.3283 8.59585 13.1903C8.39248 13.0522 8.22911 12.8552 8.1244 12.6216L8.13486 12.5866H8.11294C7.99686 12.3081 7.96851 11.996 8.03224 11.6984C8.08564 11.4501 8.20233 11.2229 8.36907 11.0426C8.53582 10.8623 8.74596 10.7361 8.97569 10.6782C9.07386 10.6549 9.17404 10.6428 9.27456 10.6422C9.46756 10.6424 9.658 10.6899 9.8316 10.781C10.0052 10.8721 10.1575 11.0045 10.277 11.1683C10.3965 11.332 10.4802 11.5229 10.5217 11.7266C10.5633 11.9303 10.5616 12.1415 10.5169 12.3444L10.5174 12.346ZM13.9006 8.03929V11.9363L11.0912 12.1231C11.1043 11.8564 11.0671 11.5896 10.9817 11.3389C10.8964 11.0882 10.7647 10.8589 10.5948 10.665C10.4249 10.471 10.2202 10.3165 9.99319 10.2108C9.76622 10.105 9.52172 10.0503 9.27456 10.05C9.13382 10.0502 8.99352 10.067 8.85614 10.1C8.62523 10.1569 8.40723 10.2632 8.21506 10.4128L8.23398 9.59347L10.3356 8.1938L13.9006 8.03929Z" fill="#FF7D00"/>
<path d="M9.39409 11.3773C9.26569 11.3496 9.13243 11.3672 9.014 11.4275C8.89557 11.4879 8.79825 11.5878 8.73642 11.7126C8.6746 11.8373 8.65154 11.9803 8.67067 12.1203C8.68979 12.2603 8.75008 12.3899 8.84262 12.49C8.93517 12.5902 9.05506 12.6554 9.18458 12.6763C9.3141 12.6971 9.44638 12.6723 9.56188 12.6056C9.67737 12.5389 9.76995 12.4339 9.82594 12.3059C9.88193 12.178 9.89835 12.034 9.87278 11.8952C9.84913 11.7675 9.79106 11.6502 9.70589 11.5581C9.62071 11.4659 9.51223 11.403 9.39409 11.3773Z" fill="#FF7D00"/>
<path d="M2.65103 11.4462C2.52611 11.4193 2.39648 11.4365 2.2813 11.4953C2.16611 11.5541 2.07148 11.6514 2.01137 11.7727C1.95126 11.8941 1.92886 12.0332 1.94748 12.1693C1.9661 12.3055 2.02476 12.4316 2.11479 12.529C2.20481 12.6264 2.32144 12.69 2.44743 12.7102C2.57343 12.7305 2.70212 12.7065 2.81449 12.6416C2.92687 12.5768 3.01697 12.4746 3.07149 12.3502C3.12601 12.2258 3.14207 12.0857 3.11728 11.9507C3.09436 11.8262 3.03785 11.7119 2.95487 11.6221C2.87189 11.5323 2.76616 11.4711 2.65103 11.4462Z" fill="#FF7D00"/>
</svg>
