<svg width="17" height="9" viewBox="0 0 17 9" fill="none" xmlns="http://www.w3.org/2000/svg">
<path d="M15.6837 2.60038H15.0321V1.21451C15.0317 0.892844 14.9076 0.584425 14.687 0.356791C14.4663 0.129157 14.1671 0.000861724 13.8547 0H1.17923C0.866584 0.000344941 0.566836 0.128412 0.345759 0.356102C0.124683 0.583792 0.000334922 0.892506 0 1.21451L0 7.78419C0.000167147 8.10636 0.124421 8.41531 0.345498 8.64325C0.566574 8.87118 0.866417 8.99948 1.17923 9H13.8547C14.1677 8.99965 14.4677 8.87143 14.6889 8.64348C14.9101 8.41552 15.0344 8.10648 15.0346 7.78419V6.36705H15.6862C15.7701 6.36705 15.8506 6.33272 15.9099 6.27163C15.9692 6.21053 16.0025 6.12767 16.0025 6.04127V2.92616C16.0025 2.88315 15.9943 2.84058 15.9782 2.80088C15.9622 2.76118 15.9386 2.72515 15.909 2.69487C15.8793 2.66458 15.8442 2.64064 15.8055 2.62442C15.7668 2.60821 15.7254 2.60003 15.6837 2.60038ZM14.3994 7.78419C14.3994 7.93372 14.3418 8.07715 14.2392 8.18294C14.1366 8.28874 13.9974 8.34827 13.8522 8.34844H1.17923C1.03415 8.34809 0.895124 8.2885 0.792654 8.18271C0.690183 8.07693 0.632636 7.93361 0.632636 7.78419V1.21451C0.63297 1.06531 0.690665 0.922323 0.7931 0.816824C0.895535 0.711325 1.03437 0.651904 1.17923 0.65156H13.8547C13.9997 0.651732 14.1387 0.711077 14.2413 0.816594C14.3438 0.922112 14.4016 1.0652 14.402 1.21451V7.78419H14.3994ZM15.3674 5.71549H15.0321V3.25194H15.3674V5.71549Z" fill="#FF7D00"/>
<path d="M10.2892 1.60815H8.01614V7.39206H10.2892V1.60815Z" fill="#FF7D00"/>
<path d="M7.07982 1.60815H4.80676V7.39206H7.07982V1.60815Z" fill="#FF7D00"/>
<path d="M3.84389 1.60815H1.57083V7.39206H3.84389V1.60815Z" fill="#FF7D00"/>
</svg>
