<svg xmlns="http://www.w3.org/2000/svg" viewBox="0 0 36.9 26.42"><defs><style>.cls-1{fill:#fff;stroke-width:0.82px;}.cls-1,.cls-3{stroke:#49937a;stroke-miterlimit:10;}.cls-2,.cls-3{fill:none;}.cls-3{stroke-width:0.55px;}.cls-4{fill:#49937a;}</style></defs><g id="Слой_2" data-name="Слой 2"><g id="Слой_1-2" data-name="Слой 1"><path class="cls-1" d="M.61,12.41S7.9,10.53,12.21,7.7A81.49,81.49,0,0,0,21.14.56a42.51,42.51,0,0,1,4.94,5.36,27.44,27.44,0,0,1,2.92,5,31.71,31.71,0,0,1-9.72,6.59c-8.54,3.74-13.66,4-13.66,4Z"/><path class="cls-1" d="M4.77,12.53s7.49-.67,12.2-2.77A81,81,0,0,0,27,4.17a43.59,43.59,0,0,1,4,6.1A27.53,27.53,0,0,1,33,15.63a31.59,31.59,0,0,1-10.66,4.92c-9,2.3-14.13,1.7-14.13,1.7Z"/><path class="cls-1" d="M9.27,13.17s7.49.71,12.5-.49A81.42,81.42,0,0,0,32.6,9a43,43,0,0,1,2.82,6.73,27.84,27.84,0,0,1,1.06,5.65A31.64,31.64,0,0,1,25.1,24.27c-9.3.61-14.2-.91-14.2-.91Z"/><path class="cls-2" d="M9.17,15.17s7.49.71,12.5-.49A80.5,80.5,0,0,0,32.5,11a43,43,0,0,1,2.82,6.73,27.72,27.72,0,0,1,1.06,5.65A31.88,31.88,0,0,1,25,26.28c-9.3.61-14.2-.91-14.2-.91Z"/><line class="cls-3" x1="14.54" y1="15.1" x2="15.63" y2="22.64"/><path class="cls-3" d="M29,11.51a30.4,30.4,0,0,1,3.22,9.89"/><path class="cls-4" d="M16.73,17.13l-.43.06-.24-1.6a1.55,1.55,0,0,1-.5.41l-.06-.39a1.07,1.07,0,0,0,.33-.26.76.76,0,0,0,.22-.4l.34,0Z"/><path class="cls-4" d="M17.38,14.8a.64.64,0,0,1,.54.15,1.47,1.47,0,0,1,.35.87,1.51,1.51,0,0,1-.08.94.6.6,0,0,1-.47.3.62.62,0,0,1-.56-.17,1.48,1.48,0,0,1-.33-.85,1.58,1.58,0,0,1,.08-.94A.62.62,0,0,1,17.38,14.8Zm.05.35a.24.24,0,0,0-.13.07.38.38,0,0,0-.06.19,2,2,0,0,0,0,.56,2.49,2.49,0,0,0,.12.53.34.34,0,0,0,.12.18.21.21,0,0,0,.15,0,.24.24,0,0,0,.13-.07.38.38,0,0,0,.07-.19,2.58,2.58,0,0,0,0-.56,2.49,2.49,0,0,0-.12-.53.46.46,0,0,0-.13-.18A.21.21,0,0,0,17.43,15.15Z"/><path class="cls-4" d="M19,14.61a.59.59,0,0,1,.53.16,1.44,1.44,0,0,1,.36.87,1.55,1.55,0,0,1-.08.93.66.66,0,0,1-.47.31.67.67,0,0,1-.56-.17,1.48,1.48,0,0,1-.33-.86,1.44,1.44,0,0,1,.08-.94A.6.6,0,0,1,19,14.61Zm0,.35a.21.21,0,0,0-.13.07.33.33,0,0,0-.07.19,2.63,2.63,0,0,0,0,.57,2.66,2.66,0,0,0,.12.53.46.46,0,0,0,.13.18.22.22,0,0,0,.14,0,.16.16,0,0,0,.13-.07.3.3,0,0,0,.07-.19,2.58,2.58,0,0,0,0-.56,2.66,2.66,0,0,0-.12-.53A.38.38,0,0,0,19.2,15,.32.32,0,0,0,19.06,15Z"/><path class="cls-4" d="M20.63,14.37a.6.6,0,0,1,.54.16,1.47,1.47,0,0,1,.35.87,1.4,1.4,0,0,1-.08.93.64.64,0,0,1-.47.31.68.68,0,0,1-.56-.17,1.63,1.63,0,0,1-.33-.86,1.58,1.58,0,0,1,.08-.94A.65.65,0,0,1,20.63,14.37Zm.06.35a.23.23,0,0,0-.13.07.33.33,0,0,0-.07.19,2.63,2.63,0,0,0,0,.57,2.66,2.66,0,0,0,.12.53.38.38,0,0,0,.13.18.22.22,0,0,0,.14,0,.17.17,0,0,0,.13-.07.3.3,0,0,0,.07-.19,2.58,2.58,0,0,0,0-.56,2.66,2.66,0,0,0-.12-.53.46.46,0,0,0-.13-.18A.32.32,0,0,0,20.69,14.72Z"/><path class="cls-3" d="M24.1,7.17c.92,1.3,2,3.07,2,3.07"/><path class="cls-3" d="M18.36,4.28A12.45,12.45,0,0,1,20.9,6.6"/></g></g></svg>