<svg xmlns="http://www.w3.org/2000/svg" viewBox="0 0 53.75 69.55"><defs><style>.cls-1{fill:#48484a;}.cls-2{fill:#fff;}.cls-3{fill:none;}.cls-4{fill:#59595c;}</style></defs><g id="Слой_2" data-name="Слой 2"><g id="Слой_1-2" data-name="Слой 1"><path class="cls-1" d="M3.1,69.46A13.25,13.25,0,0,1,0,69.08L6.15,48.64h.27c-.11,1.53,0,17.31,0,20.48A9.55,9.55,0,0,1,3.1,69.46Z"/><path class="cls-2" d="M3.13,69.53a9.19,9.19,0,0,1-2.44-.29l5.46-20.6h.27c-.11,1.53-.6,18-.79,20.7A7.74,7.74,0,0,1,3.13,69.53Z"/><path class="cls-3" d="M3.24,68.75c1.28,0,2.14-.1,2.12.25s-1,.36-2.26.39-2.08-.14-2-.3S2,68.78,3.24,68.75Z"/><polygon class="cls-1" points="5.44 61.66 4.67 69.42 4.85 69.4 5.44 61.66"/><polygon class="cls-1" points="5.09 60.66 4.02 69.45 4.2 69.45 5.09 60.66"/><polygon class="cls-1" points="4.91 59.34 3.38 69.47 3.56 69.47 4.91 59.34"/><polygon class="cls-1" points="4.46 59.44 2.74 69.46 2.91 69.46 4.46 59.44"/><polygon class="cls-1" points="3.76 61.23 2.11 69.42 2.28 69.43 3.76 61.23"/><polygon class="cls-1" points="3.15 62.19 1.48 69.35 1.65 69.37 3.15 62.19"/><path class="cls-1" d="M13.42,6.5a23.23,23.23,0,0,1,3-1.54c.52-.2,1-.42,1.56-.61a3.41,3.41,0,0,1,.84-.19.85.85,0,0,1,.8.27.87.87,0,0,0-.77-.06,4.25,4.25,0,0,0-.74.3c-.49.24-1,.47-1.51.7A24,24,0,0,1,13.42,6.5Z"/><path class="cls-1" d="M13,8.13c-.06-.54-.08-1.09-.12-1.64l0-.83a1.44,1.44,0,0,1,0-.45,1,1,0,0,1,.28-.45,7.09,7.09,0,0,1,1.4-.93L16,3l1.45-.77A1.54,1.54,0,0,1,18.36,2a1.19,1.19,0,0,1,.87.5,2.38,2.38,0,0,1,.38.79l.27.78c.16.53.35,1,.49,1.57-.28-.48-.52-1-.78-1.44l-.36-.72a2.24,2.24,0,0,0-.39-.65.76.76,0,0,0-1.13,0l-1.42.79-1.43.75a8.92,8.92,0,0,0-1.37.78c-.17.13-.21.27-.23.57l-.07.81C13.12,7.05,13.08,7.59,13,8.13Z"/><path class="cls-1" d="M13.42,8.38c1.15-.35,2.3-.64,3.42-1s2.22-.82,3.35-1.23A14.85,14.85,0,0,1,17,7.67,15.79,15.79,0,0,1,13.42,8.38Z"/><path class="cls-1" d="M11.84,2.86a1,1,0,0,0,.83.22,2.8,2.8,0,0,0,.74-.48c.52-.39,1.05-.74,1.59-1.09A11.31,11.31,0,0,1,16.72.59,10.06,10.06,0,0,1,18.58,0C18,.37,17.5.71,17,1s-1.06.67-1.61,1-1.1.66-1.67,1l-.43.22a1.35,1.35,0,0,1-.54.15A1,1,0,0,1,11.84,2.86Z"/><path class="cls-1" d="M18.75.18a13.55,13.55,0,0,1,2,3A19.6,19.6,0,0,1,22,6.61l.06.24L21.8,7a21.15,21.15,0,0,1-2.68,1.26,22.21,22.21,0,0,1-2.83.82l.11-.13c-.14.6-.26,1.21-.42,1.81,0-.62.07-1.24.1-1.86V8.78l.11,0c.91-.33,1.83-.67,2.71-1s1.73-.84,2.58-1.29l-.16.35a33.59,33.59,0,0,0-1-3.37A26.18,26.18,0,0,0,18.75.18Z"/><path class="cls-1" d="M10.76,17.52c.18-2.13.45-4.25.74-6.36C11.63,10.1,11.8,9,12,8s.34-2.11.52-3.16v0L11.75,3.5l.86,1.3,0,0v0C12.5,5.91,12.39,7,12.25,8s-.27,2.12-.44,3.17C11.5,13.32,11.17,15.43,10.76,17.52Z"/><path class="cls-1" d="M11.55,3.16c-.29.26-.63.51-.89.76s-.2.69-.29,1.08c-.12.77-.24,1.55-.33,2.33a20.25,20.25,0,0,0-.16,2.32A14.62,14.62,0,0,0,10,12V12l-.37,3.59C9.54,16.82,9.35,18,9.2,19.2L9.06,19c.84.17,1.68.33,2.52.53-.86-.05-1.71-.13-2.56-.2H8.86v-.17c.08-1.2.12-2.4.23-3.6L9.39,12v.09a15.24,15.24,0,0,1-.11-2.42,13.56,13.56,0,0,1,.27-2.39c.15-.78.32-1.56.51-2.33l.16-.57a1,1,0,0,1,.3-.56A11.42,11.42,0,0,1,11.55,3.16Z"/><path class="cls-1" d="M11.63,19.17a56.29,56.29,0,0,1,1-7.45l0-.21.19,0a18.31,18.31,0,0,1,3-.46A17.6,17.6,0,0,1,13,12.07l.23-.24A56.25,56.25,0,0,1,11.63,19.17Z"/><path class="cls-1" d="M10.07,17.43c.1-1.39.29-2.75.47-4.12s.4-2.74.69-4.09c-.1,1.38-.29,2.75-.47,4.12S10.35,16.07,10.07,17.43Z"/><path class="cls-1" d="M9,19.47c-.06,1-.16,2-.27,3v0c0,.91-.07,1.82-.12,2.72L8.43,25q1.07.13,2.13.3l-.23.17c.21-.89.39-1.77.63-2.65h0c.18-1,.36-2,.59-3.05-.06,1-.16,2.07-.27,3.1h0c-.16.89-.36,1.78-.54,2.67l0,.19-.2,0c-.71-.08-1.42-.19-2.13-.3l-.19,0v-.19c.07-.91.13-1.81.23-2.72h0C8.59,21.45,8.78,20.46,9,19.47Z"/><path class="cls-1" d="M8.16,39.76q.36-3.54.76-7.07c.13-1.18.22-2.36.43-3.53a32.33,32.33,0,0,1,.78-3.48s0,0,0,0,0,0,0,0a32.39,32.39,0,0,1-.2,3.56c-.12,1.18-.36,2.34-.56,3.51-.38,2.34-.78,4.67-1.2,7l0,0A0,0,0,0,1,8.16,39.76Z"/><path class="cls-1" d="M8.68,25.47Q8.32,29,7.92,32.54c-.13,1.18-.22,2.36-.43,3.53a32.33,32.33,0,0,1-.78,3.48H6.65A30.1,30.1,0,0,1,6.85,36c.12-1.18.36-2.34.56-3.51q.57-3.51,1.2-7Z"/><path class="cls-1" d="M8.86,22.5a4.65,4.65,0,0,1,1,0,4.2,4.2,0,0,1,1,.25,3.71,3.71,0,0,1-1,0A4.25,4.25,0,0,1,8.86,22.5Z"/><path class="cls-1" d="M8.14,40l-1.26-.09c-.23,0-.36,0-.39.15l-.07.62-.33,2.49c-.1.84-.25,1.66-.4,2.5l-.22,1.26c0,.2-.08.44-.11.6s0,.13,0,.05,0,0,.09,0l1.24.19.63.1c.09,0,.27,0,.11,0s0,0,0-.07c.08-.78.13-1.68.24-2.5.21-1.68.48-3.33.8-5,0,1.69-.2,3.37-.31,5.05C8.1,46.2,8,47,8,47.88a.66.66,0,0,1-.26.49.56.56,0,0,1-.35.06l-.16,0-.62-.09-1.25-.16a.71.71,0,0,1-.5-.23.63.63,0,0,1-.09-.55c0-.25.09-.42.13-.64l.24-1.22.49-2.47.51-2.48L6.25,40a.46.46,0,0,1,.3-.29.69.69,0,0,1,.36,0Z"/><path class="cls-1" d="M5.91,44.62a3.61,3.61,0,0,1,1.66.24A3.92,3.92,0,0,1,5.91,44.62Z"/><path class="cls-1" d="M38.14,30.38c.85-1.06,1.75-2.06,2.68-3l.32-.34.12.46c.3,1.23.59,2.47.83,3.72l0,.18-.15.08c-1,.55-2,1.09-3.11,1.56.93-.71,1.89-1.35,2.86-2l-.11.27c-.33-1.23-.61-2.47-.87-3.71l.44.12C40.21,28.63,39.2,29.53,38.14,30.38Z"/><path class="cls-1" d="M43.86,32.8c.18.64.33,1.29.48,1.94s.3,1.3.43,2c.28,1.3.52,2.61.76,3.92v.08c.07,3.28,0,6.56-.1,9.83v.11l0,.09a49,49,0,0,0-1.77,5c-.25.85-.48,1.7-.68,2.57s-.36,1.74-.52,2.62a26.17,26.17,0,0,1,.51-5.36,31.25,31.25,0,0,1,1.48-5.22l0,.2c0-3.28,0-6.56.14-9.83v.08c-.15-1.33-.29-2.65-.4-4-.06-.66-.1-1.33-.14-2S43.88,33.47,43.86,32.8Z"/><path class="cls-1" d="M22.87,32.8c0,.67-.06,1.33-.1,2s-.08,1.33-.15,2c-.1,1.33-.24,2.65-.39,4v-.08c.15,3.27.18,6.55.14,9.83l0-.2a30.54,30.54,0,0,1,1.45,5.14,25.55,25.55,0,0,1,.5,5.29c-.16-.87-.3-1.73-.51-2.59s-.43-1.69-.68-2.53a45,45,0,0,0-1.75-4.89l0-.09v-.12c-.12-3.27-.16-6.55-.1-9.83v-.08c.23-1.31.48-2.62.75-3.92.13-.66.29-1.31.44-2S22.7,33.44,22.87,32.8Z"/><path class="cls-1" d="M45.39,50.89a11.33,11.33,0,0,1,1.19,3.76,13.09,13.09,0,0,1-.14,4c-.34,2.58-.77,5.14-1.23,7.7l0,.21-.16.13Q43.27,68,41.5,69.28l-.11.08H41.3c-1.13.08-2.25.15-3.38.18h-.1l0-.06c-.26-.38-.52-.76-.77-1.15.34.31.68.63,1,1l-.13,0c1.1-.25,2.21-.47,3.32-.68l-.2.09c1.08-1,2.19-1.94,3.3-2.88l-.2.33c.38-2.56.79-5.11,1.3-7.65.11-.63.28-1.28.37-1.89a12.87,12.87,0,0,0,.12-1.87A16.53,16.53,0,0,0,45.39,50.89Z"/><path class="cls-1" d="M46.52,53c.42.71.8,1.44,1.19,2.17v.1c.12,1.68.19,3.37.2,5.06s0,3.38-.06,5.07v.11l0,.08c-.44.69-.88,1.39-1.34,2.08l-.09.13h-.12c-.8-.08-1.6-.13-2.41-.24.81-.12,1.61-.17,2.41-.25l-.22.13c.35-.75.72-1.49,1.09-2.23l0,.2C47,63.71,47,62,47,60.33s.07-3.38.2-5.06l0,.09C47,54.58,46.73,53.8,46.52,53Z"/><path class="cls-1" d="M43,47.3a32.47,32.47,0,0,1-1.62,4.85,33.74,33.74,0,0,1-2.27,4.59,32.1,32.1,0,0,1,1.62-4.85A33.74,33.74,0,0,1,43,47.3Z"/><polyline class="cls-3" points="37.18 53.96 37.31 50.58 40.68 46.15"/><path class="cls-1" d="M35.13,45.63a2.46,2.46,0,0,1-1.54.8A2.68,2.68,0,0,1,31.85,46a2.68,2.68,0,1,1,3.58-3.89,2.49,2.49,0,0,1,.49,1.67,2.54,2.54,0,0,0-2.06-2.32A2.38,2.38,0,0,0,32,45.74,2.53,2.53,0,0,0,35.13,45.63Z"/><path class="cls-1" d="M32.81,45.79c0-.61,0-1.21,0-1.81s.06-1.2.09-1.8V42h.92l0,.19c0,.6.13,1.2.15,1.8s.07,1.21.05,1.82c-.15-.59-.27-1.19-.37-1.78s-.18-1.19-.27-1.79l.22.19a4.34,4.34,0,0,1-.51,0l.22-.2c-.07.6-.1,1.2-.2,1.79A15.92,15.92,0,0,1,32.81,45.79Z"/><path class="cls-1" d="M22.92,32.39c.6.28,1.19.59,1.78.89h0q2.52.65,5,1.43l-.13,0c2.57-.07,5.13-.07,7.7,0l-.13,0q2.47-.78,5-1.43h0c.59-.3,1.18-.61,1.78-.89-.53.4-1.07.78-1.62,1.17h0l0,0c-1.6.67-3.22,1.28-4.85,1.87l0,0h-.07c-2.57.07-5.13.07-7.7,0h-.07l0,0c-1.63-.59-3.25-1.2-4.85-1.88h0C24,33.17,23.45,32.79,22.92,32.39Z"/><path class="cls-1" d="M28.64,30.38c-1.06-.85-2.07-1.75-3.05-2.68l.44-.12c-.26,1.24-.54,2.48-.87,3.71L25.05,31c1,.63,1.93,1.27,2.86,2-1.07-.47-2.09-1-3.11-1.56l-.15-.08,0-.18c.24-1.25.52-2.49.83-3.72l.12-.46.32.34C26.89,28.32,27.79,29.32,28.64,30.38Z"/><path class="cls-1" d="M30.34,29.83a11.48,11.48,0,0,1,1.53-.21c.5-.05,1-.06,1.52-.07s1,0,1.52.07a11.48,11.48,0,0,1,1.53.21,11.51,11.51,0,0,1-1.53.22c-.5.05-1,.06-1.52.06s-1,0-1.52-.06A11.51,11.51,0,0,1,30.34,29.83Z"/><path class="cls-1" d="M27.84,2.23c1.85-.18,3.7-.19,5.55-.22s3.7,0,5.55.22c-1.85.19-3.7.2-5.55.23S29.69,2.42,27.84,2.23Z"/><path class="cls-1" d="M39.24,4.63c-.08-.93-.14-1.86-.19-2.8V1.66l.2,0,1.82-.1.18,0,.1.19,2.07,4.13c.69,1.37,1.34,2.77,2,4.16l.07.13,0,.18c-.33,2.79-.68,5.57-1.06,8.36-.21,1.38-.39,2.78-.62,4.16L43.11,27v-.1c.11.85.18,1.7.27,2.55s.18,1.7.24,2.56c-.21-.83-.4-1.67-.59-2.5s-.39-1.67-.55-2.5v-.09l.37-4.2c.12-1.4.29-2.8.43-4.2.32-2.79.67-5.57,1-8.36l.05.31c-.61-1.41-1.24-2.81-1.82-4.24L40.79,2l.27.17L39.24,2l.19-.2C39.38,2.77,39.32,3.7,39.24,4.63Z"/><path class="cls-1" d="M27.11,6c-.45,1.64-.94,3.28-1.41,4.92v-.09c.41,2.13.76,4.27,1.15,6.4s.73,4.27,1.08,6.41l-.09-.19,2.21,2.66-.33-.15,3.66,0v.89h0v-.89l3.66,0-.33.15,2.21-2.66-.09.19c.35-2.14.69-4.27,1.08-6.41s.74-4.27,1.15-6.4v.09c-.47-1.64-1-3.27-1.4-4.92.61,1.6,1.17,3.2,1.75,4.81v.08c-.26,2.15-.58,4.3-.87,6.44s-.6,4.3-.92,6.44l0,.1-.07.09-2.17,2.69-.13.16h-.2l-3.66,0v-.89h0v.89l-3.66,0h-.2l-.13-.16-2.17-2.69-.07-.09,0-.1c-.32-2.14-.64-4.29-.92-6.44s-.61-4.29-.87-6.44v-.08C25.94,9.18,26.5,7.57,27.11,6Z"/><path class="cls-1" d="M23.11,32c.07-.86.15-1.71.24-2.56s.17-1.7.28-2.55V27L23,22.83c-.24-1.38-.41-2.78-.62-4.16-.39-2.79-.74-5.57-1.06-8.36l0-.17.06-.14c.67-1.39,1.32-2.79,2-4.16L25.4,1.71l.09-.19h.18l1.87.11h.2v.18c-.05.94-.11,1.87-.19,2.8-.08-.93-.14-1.86-.19-2.8l.19.2-1.87.11L25.94,2,24.18,6.23C23.6,7.65,23,9.06,22.36,10.47l0-.31c.38,2.79.73,5.57,1.05,8.36.14,1.4.32,2.8.43,4.2l.38,4.2V27c-.17.83-.37,1.66-.56,2.5S23.33,31.18,23.11,32Z"/><path class="cls-1" d="M21.39,50.89a16.53,16.53,0,0,0-.5,3.81A12.86,12.86,0,0,0,21,56.57c.08.61.22,1.26.32,1.89.48,2.54.92,5.1,1.33,7.65l-.19-.33q1.66,1.41,3.3,2.89l-.2-.09c1.11.21,2.21.43,3.32.68l-.12,0,.95-1L29,69.47l0,.06h-.09c-1.13,0-2.25-.09-3.38-.17H25.4l-.11-.08c-1.19-.85-2.36-1.73-3.52-2.62l-.15-.12-.05-.22c-.5-2.55-1-5.1-1.27-7.69a15,15,0,0,1-.1-4A11.1,11.1,0,0,1,21.39,50.89Z"/><path class="cls-1" d="M20.26,53c-.22.8-.48,1.58-.73,2.36l0-.09c.12,1.68.19,3.37.2,5.06s0,3.38-.06,5.07l-.05-.2c.37.74.74,1.48,1.08,2.23l-.21-.13c.8.08,1.6.13,2.41.25-.81.11-1.61.16-2.41.24h-.12l-.09-.13c-.46-.69-.9-1.39-1.34-2.08l0-.08V65.4c-.06-1.69-.09-3.38-.06-5.07s.07-3.38.2-5.06v-.1C19.46,54.44,19.84,53.71,20.26,53Z"/><path class="cls-1" d="M23.83,47.3a33.74,33.74,0,0,1,2.27,4.59,34.5,34.5,0,0,1,1.62,4.85,32.61,32.61,0,0,1-2.27-4.59A32.47,32.47,0,0,1,23.83,47.3Z"/><polyline class="cls-3" points="29.6 53.96 29.47 50.58 26.1 46.15"/><path class="cls-1" d="M30.52,50.51c-.8-1-1.57-2.06-2.36-3.09s-1.53-2.09-2.3-3.13l-.05-.07v-.1l-.08-2.72v-.2l.17-.11,3.33-2.2.1-.07h.13l3.93,0,3.93,0h.13l.1.07,3.33,2.2.17.11v.2L41,44.12v.1l0,.07c-.77,1-1.51,2.1-2.3,3.13s-1.56,2.07-2.36,3.09c.67-1.11,1.37-2.2,2.06-3.3S39.73,45,40.43,44l0,.17L40.3,41.4l.17.31L37.1,39.58l.22.07-3.93,0-3.93,0,.22-.07-3.37,2.13.17-.31-.08,2.72,0-.17c.7,1.09,1.43,2.16,2.11,3.26S29.85,49.4,30.52,50.51Z"/><path class="cls-1" d="M33.39,65.94a10.31,10.31,0,0,1-3.47-.53l-.06,0,0-.06-.55-1.22a8.88,8.88,0,0,1-.49-1.24L28,60.33l-.06-.17.15-.13,2.74-2.45.09-.08H31c1.58,0,3.16,0,4.74,0h.13l.09.08L38.72,60l.15.13-.06.17L38,62.87a8.88,8.88,0,0,1-.49,1.24L37,65.33l0,.07h-.06a10.31,10.31,0,0,1-3.47.53,11.28,11.28,0,0,0,3.35-.83l-.09.09c.29-.84.69-1.63.9-2.48l.69-2.55.09.31-2.79-2.41.22.09c-1.58,0-3.16,0-4.74,0l.22-.08-2.79,2.41.09-.31.69,2.55c.21.85.61,1.64.9,2.48L30,65.11A11.28,11.28,0,0,0,33.39,65.94Z"/><path class="cls-1" d="M30.53,51.27c.1,1.71.14,3.41.22,5.11v.09l-.07.07-3.5,3.39.1-.28a30.72,30.72,0,0,0,1.11,4.24,18.52,18.52,0,0,0,1.94,3.88L30,67.59c2.28,0,4.55,0,6.83,0l-.35.18a18.76,18.76,0,0,0,1.94-3.88,29.33,29.33,0,0,0,1.1-4.24l.1.28-3.49-3.39L36,56.47v-.09c.08-1.7.12-3.4.22-5.11.1,1.71.14,3.41.22,5.11l-.07-.16,3.64,3.24.12.11,0,.17a23.88,23.88,0,0,1-1,4.41,19.32,19.32,0,0,1-.87,2.1,17.24,17.24,0,0,1-1.11,2l-.12.17h-.23c-2.28,0-4.55,0-6.83,0h-.23l-.12-.18a16.34,16.34,0,0,1-1.11-2,19.32,19.32,0,0,1-.87-2.1,23.88,23.88,0,0,1-1-4.41l0-.17.12-.11,3.64-3.24-.07.16C30.39,54.68,30.43,53,30.53,51.27Z"/><path class="cls-1" d="M27.75,4.05c.94-.09,1.88-.13,2.82-.17s1.88,0,2.82,0v.44h0V3.83c.94,0,1.88,0,2.82,0S38.09,4,39,4.05c-.93.09-1.87.14-2.81.17s-1.88,0-2.82,0V3.83h0v.44c-.94,0-1.88,0-2.82,0S28.69,4.14,27.75,4.05Z"/><path class="cls-1" d="M37.18,38.26c0-1.33,0-2.67,0-4l-.07-4v0L38.51,27v0l0,0c1-1,2-2.05,3-3.05l0,.08c.72-4.56,1.36-9.13,2.15-13.67-.55,4.58-1.24,9.14-1.87,13.71v.05l0,0c-1,1-2,2-3,3l0,0L37.27,30.3v-.05l0,4C37.31,35.59,37.22,36.93,37.18,38.26Z"/><path class="cls-1" d="M29.63,38.26c0-1.33-.12-2.67-.12-4l0-4v.05L28,27.15l0,0c-1-1-2-2-3-3l0,0v-.05c-.63-4.57-1.32-9.13-1.87-13.71C24,14.9,24.59,19.47,25.31,24l0-.08c1,1,2,2,3,3.05l0,0v0l1.46,3.17v.05l-.08,4C29.62,35.59,29.64,36.93,29.63,38.26Z"/><path class="cls-1" d="M28.73,41.75c.3,1.51.53,3,.74,4.55l-.09-.16c.65.52,1.26,1.08,1.88,1.62l-.21-.08,2.34,0v.69h0v-.69h2.34l-.22.09c.63-.54,1.24-1.09,1.88-1.62l-.08.17c.21-1.52.44-3,.73-4.55,0,1.54-.1,3.07-.21,4.61v.09l-.08.08c-.59.58-1.2,1.14-1.8,1.71l-.09.08h-.13l-2.34,0v-.69h0v.69l-2.34,0h-.13l-.08-.08c-.61-.57-1.23-1.12-1.81-1.7L29,46.45v-.09C28.84,44.82,28.75,43.29,28.73,41.75Z"/><path class="cls-1" d="M37,61.54a.94.94,0,0,1-1.26.28,1.08,1.08,0,0,1,.79-2,1,1,0,0,1,.73,1.07.92.92,0,0,0-.79-.75.78.78,0,0,0-.56,1.4A.91.91,0,0,0,37,61.54Z"/><path class="cls-1" d="M31.08,61.55a1,1,0,0,1-1.26.27,1.08,1.08,0,0,1,.8-2,1,1,0,0,1,.72,1.07.91.91,0,0,0-.78-.75.77.77,0,0,0-.82.48.79.79,0,0,0,.25.92A.93.93,0,0,0,31.08,61.55Z"/><path class="cls-1" d="M34.51,59.66a20.26,20.26,0,0,1,.18,2.05v.17h-.18q-1.12,0-2.25,0h-.19v-.17a17.73,17.73,0,0,1,.18-2.05,20.26,20.26,0,0,1,.18,2.05l-.18-.18q1.13,0,2.25,0l-.19.18A17.75,17.75,0,0,1,34.51,59.66Z"/><path class="cls-1" d="M45.22,15.53l.82-.07h.05l0,0c.26.76.54,1.52.77,2.29s.5,1.52.72,2.29l0,0v0c0,1.36,0,2.72,0,4.08v.34H45.42v-.33c0-1.27.06-2.53.12-3.8v.05c-.22-1.06-.39-2.14-.55-3.21.34,1,.67,2.07,1,3.11v.05c.06,1.27.11,2.53.12,3.8l-.33-.34h1.56l-.35.35c0-1.36,0-2.72.05-4.08v.08c-.21-.78-.37-1.56-.55-2.34s-.35-1.57-.51-2.36l.07,0Z"/><path class="cls-1" d="M50.17,21.54a12.44,12.44,0,0,1,3.12-.45l.44,0v.47c0,.7,0,1.41,0,2.11v.46h-.44a37,37,0,0,1-5.44-.45,37,37,0,0,1,5.44-.45l-.46.45c0-.7,0-1.41,0-2.11l.45.45A12.44,12.44,0,0,1,50.17,21.54Z"/><polygon class="cls-4" points="38.73 22.02 37.93 22.55 37.93 8.46 38.73 8.99 38.73 22.02"/><polygon class="cls-4" points="28.03 8.99 28.83 8.46 28.83 22.55 28.03 22.02 28.03 8.99"/><path class="cls-1" d="M36.52,9.92a10,10,0,0,1,.63,2.22,15.78,15.78,0,0,1,.15,2.28c.08,1.52.13,3,.16,4.57h-.09c-.29-1.5-.55-3-.78-4.51a15.65,15.65,0,0,1-.33-2.25,9.51,9.51,0,0,1,.17-2.31Z"/><path class="cls-1" d="M36.53,21.34A11.24,11.24,0,0,1,35.9,19a18,18,0,0,1-.15-2.44c-.08-1.62-.13-3.25-.16-4.89h.09c.29,1.61.55,3.22.79,4.83a20,20,0,0,1,.32,2.43,10.81,10.81,0,0,1-.17,2.46Z"/><path class="cls-1" d="M34.45,9.92a9.46,9.46,0,0,1,.63,2.22,15.78,15.78,0,0,1,.15,2.28c.08,1.52.13,3,.16,4.57H35.3c-.29-1.5-.55-3-.78-4.51a17.19,17.19,0,0,1-.33-2.25,9.51,9.51,0,0,1,.17-2.31Z"/><path class="cls-1" d="M34.47,21.34A10.7,10.7,0,0,1,33.83,19a19.73,19.73,0,0,1-.15-2.44c-.07-1.62-.13-3.25-.15-4.89h.08c.29,1.61.55,3.22.79,4.83a20,20,0,0,1,.32,2.43,11.39,11.39,0,0,1-.16,2.46Z"/><path class="cls-1" d="M32.38,9.92A10,10,0,0,1,33,12.14a17.34,17.34,0,0,1,.14,2.28c.08,1.52.13,3,.16,4.57h-.09c-.28-1.5-.54-3-.78-4.51a17.19,17.19,0,0,1-.33-2.25,10,10,0,0,1,.17-2.31Z"/><path class="cls-1" d="M32.4,21.34A10.7,10.7,0,0,1,31.76,19a18,18,0,0,1-.14-2.44c-.08-1.62-.14-3.25-.16-4.89h.09q.42,2.42.78,4.83a18.16,18.16,0,0,1,.32,2.43,11.39,11.39,0,0,1-.16,2.46Z"/><path class="cls-1" d="M30.31,9.92A9.49,9.49,0,0,1,31,12.14a17.34,17.34,0,0,1,.14,2.28c.08,1.52.13,3,.16,4.57h-.09c-.28-1.5-.54-3-.78-4.51a15.63,15.63,0,0,1-.32-2.25,10,10,0,0,1,.16-2.31Z"/><path class="cls-1" d="M30.33,21.34A11.27,11.27,0,0,1,29.69,19a19.74,19.74,0,0,1-.14-2.44c-.08-1.62-.13-3.25-.16-4.89h.09q.42,2.42.78,4.83a18.16,18.16,0,0,1,.32,2.43,10.79,10.79,0,0,1-.16,2.46Z"/></g></g></svg>