<svg xmlns="http://www.w3.org/2000/svg" viewBox="0 0 84.6 65.62"><defs><style>.cls-1{fill:#48484a;}.cls-2{fill:#231f20;}.cls-3,.cls-4,.cls-5,.cls-6,.cls-8,.cls-9{fill:none;}.cls-3,.cls-5,.cls-6,.cls-8,.cls-9{stroke:#48484a;stroke-miterlimit:10;}.cls-3{stroke-width:0.5px;}.cls-5{stroke-width:0.54px;}.cls-6{stroke-width:0.54px;}.cls-7{fill:#323232;}.cls-8{stroke-linecap:round;stroke-width:1.92px;}.cls-9{stroke-width:0.48px;}</style></defs><g id="Слой_2" data-name="Слой 2"><g id="Слой_1-2" data-name="Слой 1"><path class="cls-1" d="M45.09,50.91l.58,1-.58,1H43.93l-.58-1,.58-1h1.16m.31-.54H43.62l-.89,1.54.89,1.54H45.4l.89-1.54-.89-1.54Z"/><path class="cls-2" d="M42.53,52.59l.4.7-.88,1.52a3.74,3.74,0,0,1-1.3-2.22h1.78m.14-.24H40.48a4,4,0,0,0,1.65,2.82l1.08-1.88-.54-.94Z"/><path class="cls-2" d="M44.91,54l.88,1.53a3.76,3.76,0,0,1-1.28.23,3.81,3.81,0,0,1-1.29-.23L44.1,54h.81m.14-.24H44L42.88,55.6a3.87,3.87,0,0,0,3.26,0l-1.09-1.88Z"/><path class="cls-2" d="M46.49,52.59h1.77A3.74,3.74,0,0,1,47,54.81l-.88-1.52.41-.7m-.14-.24-.55.94,1.09,1.88a4,4,0,0,0,1.65-2.82Z"/><path class="cls-2" d="M47,49a3.76,3.76,0,0,1,1.3,2.23H46.49l-.41-.7L47,49m-.07-.35L45.8,50.54l.55.94h2.19a4,4,0,0,0-1.65-2.82Z"/><path class="cls-2" d="M44.51,48.1a3.54,3.54,0,0,1,1.28.24l-.88,1.52H44.1l-.88-1.52a3.6,3.6,0,0,1,1.29-.24m0-.24a3.87,3.87,0,0,0-1.63.36L44,50.1h1.09l1.09-1.88a3.9,3.9,0,0,0-1.63-.36Z"/><path class="cls-2" d="M42.05,49l.88,1.53-.4.7H40.75A3.76,3.76,0,0,1,42.05,49m.08-.35a4,4,0,0,0-1.65,2.82h2.19l.54-.94-1.08-1.88Z"/><path class="cls-1" d="M44.51,46.32a5.6,5.6,0,1,1-5.6,5.59,5.6,5.6,0,0,1,5.6-5.59m0-1a6.56,6.56,0,1,0,6.55,6.55,6.56,6.56,0,0,0-6.55-6.55Z"/><circle class="cls-3" cx="44.51" cy="51.91" r="4.63" transform="translate(-16.24 83.3) rotate(-76.72)"/><path class="cls-1" d="M0,23.85c2.38.14,4.75.37,7.12.61.6.06,1.19.12,1.78.2a12,12,0,0,1,1.83.35A20.4,20.4,0,0,1,14,26.68a35.77,35.77,0,0,1,10.59,9.81,23.83,23.83,0,0,1,4.56,13.69,13.82,13.82,0,0,1-1.78,7.07,11.29,11.29,0,0,1-5.43,4.64,11.47,11.47,0,0,0,4.79-5A12.66,12.66,0,0,0,28,50.21a24.44,24.44,0,0,0-4.61-12.9,39.87,39.87,0,0,0-10-9.76,19,19,0,0,0-3-1.76,10.14,10.14,0,0,0-1.66-.39L7,25.07Z"/><path class="cls-1" d="M6,62.41a4.93,4.93,0,0,1-4.13-2.68,6.62,6.62,0,0,1-.68-2.53c-.09-.87-.08-1.66-.12-2.5C.92,51.4.89,48.09.87,44.78c0-6.61.15-13.22.72-19.83.57,6.61.7,13.22.72,19.83,0,3.31-.05,6.62-.16,9.92,0,1.67-.27,3.29.32,4.74A4.75,4.75,0,0,0,6,62.41Z"/><path class="cls-1" d="M20.56,62.11c-.43.64-.9,1.23-1.37,1.82l-.06.07L19,64a47,47,0,0,1-5.16.29,46.93,46.93,0,0,1-5.16-.26H8.47L8.4,64c-.47-.59-.93-1.19-1.35-1.84.65.42,1.25.88,1.84,1.35l-.24-.1a46.91,46.91,0,0,1,5.16-.25A44.62,44.62,0,0,1,19,63.4l-.22.09C19.34,63,19.93,62.54,20.56,62.11Z"/><path class="cls-1" d="M7.05,58.29c.42-.64.88-1.25,1.35-1.84l.07-.08.18,0a46.91,46.91,0,0,1,5.16-.25,44.62,44.62,0,0,1,5.16.29h.16l.06.08c.47.59.94,1.18,1.37,1.81-.63-.43-1.22-.9-1.81-1.37L19,57a47,47,0,0,1-5.16.29A46.93,46.93,0,0,1,8.65,57l.24-.1A18.9,18.9,0,0,1,7.05,58.29Z"/><path class="cls-1" d="M6,31.65a33.58,33.58,0,0,1,8.58,3.07,25.17,25.17,0,0,1,7.33,5.53,15.52,15.52,0,0,1,3.84,8.33,13.72,13.72,0,0,1-1.83,8.87,13.37,13.37,0,0,0,1.19-4.32A15.79,15.79,0,0,0,25,48.68a15.11,15.11,0,0,0-3.76-7.88,26.74,26.74,0,0,0-7-5.52A45.21,45.21,0,0,0,6,31.65Z"/><path class="cls-1" d="M8.66,47.87a7.94,7.94,0,0,0,3.83-2.7,6.46,6.46,0,0,0,1.06-4.41,7.47,7.47,0,0,0-1.84-4.22,12.77,12.77,0,0,0-3.75-3,10.78,10.78,0,0,1,4.09,2.65,7.72,7.72,0,0,1,2.1,4.47A7.52,7.52,0,0,1,14,43.2a5.29,5.29,0,0,1-1.09,2.26A7.07,7.07,0,0,1,8.66,47.87Z"/><line class="cls-4" x1="24.89" y1="58.38" x2="28.56" y2="58.38"/><path class="cls-1" d="M21.25,0c1.13,1.59,2.26,3.18,3.33,4.81S26.75,8,27.8,9.68l.24.38-.39.23c-1.9,1.14-3.82,2.24-5.74,3.34l-.2.11-.2-.08-1.88-.74-.24-.1-.05-.24C19,11,18.76,9.51,18.49,8L17.7,3.35V3.29l0,0,.65-2.18,0-.06.05,0,2.08-1c-.64.42-1.29.82-2,1.22l.07-.09-.45,2.23v-.1l1.06,4.56c.35,1.52.68,3,1,4.57L20,12.05l1.89.73-.41,0q2.88-1.67,5.77-3.27l-.15.6c-1-1.66-2-3.35-3-5S22.17,1.72,21.25,0Z"/><path class="cls-1" d="M27.43,11a38.36,38.36,0,0,1,3,5.77,43.45,43.45,0,0,1,2.05,6.18,55.85,55.85,0,0,1,1.17,6.38A41.29,41.29,0,0,1,34,35.76c-1-4.21-1.89-8.38-2.92-12.51S28.69,15.1,27.43,11Z"/><path class="cls-1" d="M21,13.89c-.24.12-.26.42-.27.65a3.64,3.64,0,0,0,.05.74,15,15,0,0,0,.33,1.48c.24,1,.47,2,.69,3,.44,2,.82,4,1.17,6,.16,1,.32,2,.46,3,.06.51.12,1,.17,1.53a7.49,7.49,0,0,0,.24,1.43,18.59,18.59,0,0,0,2.79,5.32A14.05,14.05,0,0,1,23.12,32c-.1-.25-.16-.51-.24-.77s-.1-.56-.13-.8c-.07-.49-.15-1-.23-1.49l-.51-3c-.33-2-.67-4-1-6-.15-1-.28-2-.41-3-.05-.51-.12-1-.12-1.55a3.42,3.42,0,0,1,.06-.78C20.64,14.28,20.72,14,21,13.89Z"/><path class="cls-1" d="M34.28,38a15.3,15.3,0,0,1-4.07.48A15,15,0,0,1,26.13,38a15.36,15.36,0,0,1,4.08-.47A15.71,15.71,0,0,1,34.28,38Z"/><path class="cls-4" d="M25.91,38s1,3,1.63,4.85,1.57,1.95,2.3,1.95h3"/><path class="cls-1" d="M52.89,46.91c1,.08,2,.22,3,.39s2,.36,3,.58c2,.43,4,1,5.89,1.55l.71.22-.25.66-.62,1.57a1.74,1.74,0,0,1-.34.59,1.5,1.5,0,0,1-.57.36,3.94,3.94,0,0,1-1,.18,31.32,31.32,0,0,1-3.5.12c1.11-.4,2.22-.72,3.32-1a3.94,3.94,0,0,0,.72-.26c.19-.13.12-.08.18-.3l.49-1.7.46.88c-2-.48-3.93-1-5.87-1.62-1-.31-1.92-.64-2.88-1S53.82,47.36,52.89,46.91Z"/><path class="cls-1" d="M35.45,48.59c-.25-2.61-.38-5.21-.43-7.82S35,35.55,35,33v-.19l.11-.11.8-.78.14-.13h.14l1.53.14c.51.08,1,.13,1.53.24-.51.11-1,.16-1.53.24l-1.53.14.27-.12c-.23.29-.47.57-.72.85l.12-.29q.09,3.9,0,7.82C35.82,43.38,35.69,46,35.45,48.59Z"/><path class="cls-1" d="M51.44,46.43Q54,41,56.65,35.7c.87-1.79,1.69-3.6,2.67-5.33s2-3.45,3.13-5.09l.09,0c-.69,1.89-1.51,3.7-2.37,5.49s-1.88,3.51-2.84,5.24q-2.86,5.24-5.81,10.42Z"/><path class="cls-1" d="M53.56,45.86c.8-1.83,1.68-3.6,2.56-5.38S58,37,58.91,35.22l5.65-10.48,0,0L59.25,35.4c-.89,1.77-1.76,3.55-2.7,5.3s-1.91,3.48-2.95,5.18Z"/><path class="cls-1" d="M67.89,11.47c1.63.47,3.24,1,4.86,1.52l.34.11-.17.36c-.62,1.25-1.27,2.48-2,3.7a38.54,38.54,0,0,1-2.2,3.6,10.52,10.52,0,0,1-3.35,2.86,17.45,17.45,0,0,1-4,1.6l-.68.18-.17-.69a31.46,31.46,0,0,1-.94-6,19.69,19.69,0,0,1,0-3.07,9.13,9.13,0,0,1,.78-3.09,5.17,5.17,0,0,1,2.37-2.19,9.63,9.63,0,0,1,3-.87,19.7,19.7,0,0,1,6,.15,22.57,22.57,0,0,0-5.87.52C64,10.58,62.13,11.44,61.4,13a8.69,8.69,0,0,0-.52,2.69,19.81,19.81,0,0,0,0,2.88,33.37,33.37,0,0,0,1,5.72l-.85-.51a16.26,16.26,0,0,0,3.69-1.42,9.61,9.61,0,0,0,3-2.4c.81-1.05,1.58-2.21,2.33-3.36l2.24-3.5.17.47C71,12.9,69.41,12.23,67.89,11.47Z"/><path class="cls-1" d="M73,9.56c.52-1,1.07-2,1.63-3a8.93,8.93,0,0,1,.87-1.46,5.49,5.49,0,0,1,1.31-1.17l.08.05a5.55,5.55,0,0,1-.59,1.66,8.45,8.45,0,0,1-1,1.35c-.71.9-1.44,1.77-2.19,2.64Z"/><path class="cls-1" d="M73.87,11,74,12.79l-.17-.17a8.69,8.69,0,0,1,2.38.14,7.89,7.89,0,0,1,2.25.89,10.15,10.15,0,0,1,2,1.26,11.45,11.45,0,0,1,1.69,1.65l-.06.08a14.25,14.25,0,0,1-2.13-1A16.32,16.32,0,0,1,78,14.4a6.45,6.45,0,0,0-1.95-1A10.33,10.33,0,0,0,73.82,13l-.19,0v-.16L73.77,11Z"/><path class="cls-4" d="M69.5,4.31s.62-2.11-.64-2.14-1.71.92-1.47,1.5,1.31,1.24,1.83,5.38"/><path class="cls-1" d="M52.48,42.57c-1.82.11-3.64.17-5.45.25S43.4,43,41.58,43h-.17l-.13-.13-1.4-1.33-.13-.12v-.21c-.09-3.31-.16-6.62-.19-9.92l0-9.92v-.3l.21-.2,1.36-1.36.21-.21h.29l6.58,0c2.2,0,4.39,0,6.58.12H55l.15.15L56.45,21l.15.16v.19c-.07,2.25-.09,4.49-.19,6.73s-.17,4.49-.31,6.74c-.14-2.25-.2-4.49-.3-6.74s-.13-4.48-.19-6.73l.14.35L54.36,20.4l.38.16c-2.19.06-4.38.08-6.58.11l-6.58,0,.5-.21-1.35,1.37.21-.51,0,9.92c0,3.3-.1,6.61-.19,9.92l-.14-.34,1.32,1.39-.3-.12c1.82,0,3.63.09,5.45.17S50.66,42.46,52.48,42.57Z"/><path class="cls-1" d="M51.9,38c-.12-1.06-.17-2.12-.25-3.18l-.13-3.19c-.08-2.13-.1-4.25-.1-6.38v-.79a.64.64,0,0,0-.15-.43.65.65,0,0,0-.4-.21c-.16,0-.5,0-.74,0-.52,0-1.15-.09-1.37.06a.65.65,0,0,0-.34.37.67.67,0,0,0-.06.27l0,.4,0,.8a1.83,1.83,0,0,1-.19.9,1.35,1.35,0,0,1-.75.6,1.51,1.51,0,0,1-.47,0l-.39,0c-1.07-.06-2.13-.1-3.19-.18,1.06-.08,2.12-.12,3.19-.17a2.09,2.09,0,0,0,.71-.1.9.9,0,0,0,.43-.43,1.21,1.21,0,0,0,.06-.65l0-.8,0-.4a1.49,1.49,0,0,1,.06-.5,1.46,1.46,0,0,1,.64-.84,1.88,1.88,0,0,1,1-.22h.8c.29,0,.48,0,.85,0a1.57,1.57,0,0,1,1.38,1.55v.79c0,2.13,0,4.25-.1,6.38l-.13,3.19C52.06,35.88,52,36.94,51.9,38Z"/><path class="cls-1" d="M34.25,55.84a3.49,3.49,0,1,1-3.49,3.49,3.5,3.5,0,0,1,3.49-3.49m0-1a4.49,4.49,0,1,0,4.49,4.48,4.49,4.49,0,0,0-4.49-4.48Z"/><path class="cls-1" d="M56.1,55.84a3.49,3.49,0,1,1-3.49,3.49,3.49,3.49,0,0,1,3.49-3.49m0-1a4.49,4.49,0,1,0,4.48,4.48,4.48,4.48,0,0,0-4.48-4.48Z"/><path class="cls-5" d="M36.27,59.33a2,2,0,1,1-2-2A2,2,0,0,1,36.27,59.33Z"/><path class="cls-6" d="M58.12,59.33a2,2,0,1,1-2-2A2,2,0,0,1,58.12,59.33Z"/><path class="cls-7" d="M36.05,65.62H34.23V63.8a4.11,4.11,0,0,1-1.09-.16l-.61,1.72-.21-.08a6.16,6.16,0,0,1-1.71-.92A6.45,6.45,0,0,1,29.25,63a7.26,7.26,0,0,1-.91-1.69l-.07-.22L30,60.47a4.22,4.22,0,0,1-.19-.91L28,59.63V59.4a5.9,5.9,0,0,1,1.15-3.72l.07-.09.24-.28.08-.09.24-.26.73-.73,1.29,1.28.8-.81-1.29-1.28L35,49.7,36.27,51l.8-.8-1.28-1.29,3.76-3.77,1.22,1.39.06,0,0,0,.27-.18,0,0,.42-.24-.76-1.65.21-.1a8.2,8.2,0,0,1,1.78-.56,8,8,0,0,1,1.84-.15,9.57,9.57,0,0,1,1.81.24l.22.05-.42,1.77a8.77,8.77,0,0,1,.94.33L48,44.3l.21.1a7.89,7.89,0,0,1,.81.44,6.49,6.49,0,0,1,.78.54l.79.69.42.38,1.37,1.22-1.18,1.38.85.76,1.18-1.38,3.94,3.5-1.2,1.37.85.75L58,52.69l2.83,2.51.12.13c.11.13.22.25.32.38a6.94,6.94,0,0,1,.53.84l.11.21-1.63.83a4.06,4.06,0,0,1,.25.86l1.81-.21,0,.22a5.68,5.68,0,0,1-.1,2,6.24,6.24,0,0,1-.68,1.8,6.49,6.49,0,0,1-1.16,1.54l-.17.16L59,62.61a5.06,5.06,0,0,1-.76.55l.84,1.62-.21.1a6.49,6.49,0,0,1-1.81.63l-.12,0-.38,0-.11,0-.38,0H53.44l-.06-1.82H52.25l0,1.82H47l0-1.82H45.86l0,1.82H40.63l0-1.82H39.47l0,1.82Zm-1.37-.46H39l0-1.82h2.05l0,1.82h4.35l0-1.82h2.06l0,1.82h4.35l0-1.82h2l.05,1.82h2.18l.32,0h.13l.32,0,.13,0a6.4,6.4,0,0,0,1.48-.48L57.6,63l.21-.11a4.32,4.32,0,0,0,1-.73L59,62l1.27,1.3A5.8,5.8,0,0,0,61.18,62a5.74,5.74,0,0,0,.63-1.67,5.44,5.44,0,0,0,.12-1.59l-1.8.21,0-.22a3.29,3.29,0,0,0-.34-1.14l-.1-.2,1.61-.83a4.69,4.69,0,0,0-.38-.57,4.39,4.39,0,0,0-.3-.36l-.09-.11-.25-.21-2.22-2-1.2,1.37L55.3,53.34,56.49,52l-3.24-2.89-1.18,1.38L50.53,49.1l1.18-1.39-1-.91-.43-.39-.77-.68a8.71,8.71,0,0,0-.73-.5l-.56-.32-.78,1.64-.21-.1A6.3,6.3,0,0,0,45.92,46l-.22,0,.42-1.76a7.77,7.77,0,0,0-1.5-.18,7.63,7.63,0,0,0-1.73.14,7.34,7.34,0,0,0-1.47.44l.76,1.65-.22.09a5.86,5.86,0,0,0-.57.31l-.27.18,0,0-.1.07-.28.23-1.18-1.35-3.1,3.1,1.29,1.28-1.45,1.46L35,50.35l-3.06,3.07,1.29,1.28-1.45,1.46-1.29-1.28-.4.4-.23.25-.08.08-.22.27-.07.08a5.5,5.5,0,0,0-.82,1.62,5.26,5.26,0,0,0-.24,1.58l1.81-.08v.23a4.15,4.15,0,0,0,.25,1.22l.08.21-1.7.62a5.65,5.65,0,0,0,.76,1.36A6.12,6.12,0,0,0,30.88,64a5.6,5.6,0,0,0,1.37.77l.6-1.71.21.07a3.51,3.51,0,0,0,1.19.21v.23h.43Z"/><path class="cls-1" d="M12,60.46a.87.87,0,1,1-.87-.87A.86.86,0,0,1,12,60.46Z"/><path class="cls-1" d="M17.4,60.46a.87.87,0,1,1-.87-.87A.86.86,0,0,1,17.4,60.46Z"/><path class="cls-1" d="M62.46,22.09a13.17,13.17,0,0,1,.86-2.5,23.35,23.35,0,0,1,1.29-2.28q1.31-2.26,2.69-4.5l.07,0c-.69,1.6-1.41,3.2-2.15,4.78A22.23,22.23,0,0,1,64.09,20a13.39,13.39,0,0,1-1.55,2.14Z"/><path class="cls-1" d="M70.74,11.64a6.07,6.07,0,0,1,3-1.52,17.32,17.32,0,0,1,3.33-.33,26,26,0,0,1,3.3,0,22.89,22.89,0,0,1,3.29.39,0,0,0,0,1,0,.06s0,0,0,0a24.42,24.42,0,0,1-3.29.4,24.23,24.23,0,0,1-3.3,0,21.92,21.92,0,0,0-3.24,0,6.25,6.25,0,0,0-3,1h0a0,0,0,0,1-.07,0A0,0,0,0,1,70.74,11.64Z"/><line class="cls-8" x1="83.64" y1="10.24" x2="79.04" y2="10.24"/><path class="cls-9" d="M45.82,23.85a1.53,1.53,0,1,1-1.53-1.53A1.53,1.53,0,0,1,45.82,23.85Z"/><path class="cls-1" d="M45.67,28.61c.68-.08,1.36-.12,2-.17.35,0,.65,0,1,0a.78.78,0,0,1,.7.7l0,.26c.1.67.16,1.35.24,2l.11,1a1.31,1.31,0,0,1-.41,1.2,1.54,1.54,0,0,1-1.18.32l-1,0c-.69,0-1.31,0-2.07,0a1.22,1.22,0,0,1-.94-.81,1.13,1.13,0,0,1,0-.6l.07-.51c.11-.67.24-1.34.38-2,0,.69,0,1.37,0,2a2.39,2.39,0,0,0,0,.91.68.68,0,0,0,.57.41l2,0h1c.39,0,.56,0,.74-.16a.64.64,0,0,0,.21-.65l-.08-1c0-.68-.12-1.35-.15-2l0-.26a.24.24,0,0,0,0-.15.3.3,0,0,0-.22-.17l-1,0C47,28.72,46.35,28.69,45.67,28.61Z"/><path class="cls-1" d="M49.49,38.52c-1,.07-2.08.15-3.12.19a23.23,23.23,0,0,1-3.12.08l.3-.31a14,14,0,0,1-.27,1.93h-.07a14,14,0,0,1-.27-1.93l0-.27.33,0a21.68,21.68,0,0,1,3.12.08c1,0,2.08.12,3.12.19Z"/><path class="cls-1" d="M38,62.23c1.22-.12,2.44-.18,3.67-.22s2.44-.07,3.66-.07,2.44,0,3.66.06,2.44.11,3.67.23c-1.23.12-2.45.18-3.67.23s-2.44.06-3.66.07-2.44,0-3.66-.07S39.17,62.35,38,62.23Z"/><path class="cls-1" d="M35.31,54.84a4,4,0,0,1,.47-.71,4,4,0,0,1,.58-.59,4.09,4.09,0,0,1,1.43-.85,3.94,3.94,0,0,1-1,1.3,4.51,4.51,0,0,1-.66.49A3.27,3.27,0,0,1,35.31,54.84Z"/><path class="cls-1" d="M51.23,51.64a6.9,6.9,0,0,1,1.06.63,9.91,9.91,0,0,1,1,.75,8.51,8.51,0,0,1,1.61,1.82,8.5,8.5,0,0,1-2-1.37,9.86,9.86,0,0,1-.86-.85A7.32,7.32,0,0,1,51.23,51.64Z"/></g></g></svg>