<svg xmlns="http://www.w3.org/2000/svg" viewBox="0 0 65.36 45.38"><defs><style>.cls-1{fill:#48484a;}.cls-2{fill:none;}</style></defs><g id="Слой_2" data-name="Слой 2"><g id="Слой_1-2" data-name="Слой 1"><path class="cls-1" d="M7.08,10.63a8.55,8.55,0,0,0-.55-1.88,1,1,0,0,0-.22-.31s0,0,0,0,0,0-.09,0l-1,.25c-.65.17-1.3.3-2,.45l-.49.1-.11,0h0l-.09.06a1.75,1.75,0,0,0-.4.62,1.35,1.35,0,0,0-.12.68.58.58,0,0,0,.31.44,5.22,5.22,0,0,0,1.72.41A39.75,39.75,0,0,1,8,12.32a38.87,38.87,0,0,1-4,0c-.33,0-.67,0-1,0A2.84,2.84,0,0,1,1.79,12,1.68,1.68,0,0,1,1,10.84a2.34,2.34,0,0,1,.16-1.27,2.69,2.69,0,0,1,.72-1,1.61,1.61,0,0,1,.32-.21l.23-.08.13,0L3,8.16c.66-.1,1.31-.21,2-.28l1-.11a1.09,1.09,0,0,1,.41,0A.66.66,0,0,1,6.77,8,1.55,1.55,0,0,1,7,8.57,6.23,6.23,0,0,1,7.08,10.63Z"/><path class="cls-1" d="M19.36,24.8c-1.82-1.95-3.36-4.07-5-6.1-.81-1-1.64-2-2.5-3A27.9,27.9,0,0,0,9,13.05a11.47,11.47,0,0,1,3.43,2.07A22.24,22.24,0,0,1,15.23,18,33.59,33.59,0,0,1,19.36,24.8Z"/><path class="cls-1" d="M58.28,10.63a6.23,6.23,0,0,1,0-2.06A1.55,1.55,0,0,1,58.59,8,.66.66,0,0,1,59,7.77a1.09,1.09,0,0,1,.41,0l1,.11c.66.07,1.31.18,2,.28l.49.07.13,0,.23.08a1.61,1.61,0,0,1,.32.21,2.69,2.69,0,0,1,.72,1,2.34,2.34,0,0,1,.16,1.27A1.68,1.68,0,0,1,63.57,12a2.84,2.84,0,0,1-1.16.31c-.33,0-.67,0-1,0a38.87,38.87,0,0,1-4,0,39.75,39.75,0,0,1,3.93-.81A5.16,5.16,0,0,0,63,11.1a.58.58,0,0,0,.31-.44,1.35,1.35,0,0,0-.12-.68,1.75,1.75,0,0,0-.4-.62l-.09-.06h0l-.11,0-.49-.1c-.66-.15-1.31-.28-2-.45l-1-.25c-.12,0-.08,0-.09,0s0,0,0,0a1,1,0,0,0-.22.31A8.55,8.55,0,0,0,58.28,10.63Z"/><path class="cls-1" d="M46,24.8A33.59,33.59,0,0,1,50.13,18a22.24,22.24,0,0,1,2.76-2.9,11.47,11.47,0,0,1,3.43-2.07,27.9,27.9,0,0,0-2.84,2.69c-.86,1-1.69,1.94-2.5,3C49.36,20.73,47.82,22.85,46,24.8Z"/><path class="cls-1" d="M62,18.77c-1.42.37-2.83.73-4.23,1.12l-2.11.62-2.11.55a6,6,0,0,0-3.47,2c-1,1.11-2,2.19-3,3.25l-.16.16-.24,0a126.13,126.13,0,0,1-14,.95,128.57,128.57,0,0,1-14-.94l-.24,0-.16-.17c-1-1.06-2-2.13-3-3.24a6,6,0,0,0-3.44-2l-2.11-.55-2.1-.61c-1.39-.39-2.81-.73-4.23-1.07,1.46.1,2.91.29,4.36.51s2.85.51,4.3.8a11.2,11.2,0,0,1,2.19.66,5.26,5.26,0,0,1,1.05.6,6.31,6.31,0,0,1,.87.82c1,1,2,2.06,3.07,3.05l-.41-.19c2.3.21,4.61.36,6.92.48s4.63.21,6.93.21,4.62-.07,6.93-.2,4.63-.27,6.92-.49l-.41.2c1.05-1,2.09-2,3.08-3.07a6.43,6.43,0,0,1,.88-.82,5.8,5.8,0,0,1,1.05-.6,12.36,12.36,0,0,1,2.19-.65c1.46-.29,2.86-.57,4.32-.81S60.54,18.9,62,18.77Z"/><path class="cls-1" d="M16,24c-.35.22-.72.39-1.09.58s-.74.35-1.11.5l-.06,0h-.08q-4.23-.24-8.45-.64l-.14,0-.11-.09c-.61-.5-1.19-1-1.78-1.55L3,22.68v-.16c0-.54.08-1.07.14-1.61s.13-1.08.24-1.62c.11.54.17,1.08.24,1.62s.11,1.07.14,1.61l-.14-.29c.64.47,1.27.94,1.88,1.43l-.25-.1c2.82.23,5.62.51,8.43.85h-.14c.39-.09.8-.16,1.2-.23S15.57,24.06,16,24Z"/><path class="cls-1" d="M49.42,24c.42,0,.82.11,1.23.16s.8.14,1.19.23H51.7q4.21-.51,8.43-.85l-.25.1c.61-.49,1.25-1,1.88-1.43l-.14.29c0-.54.08-1.07.14-1.61s.13-1.08.24-1.62c.11.54.17,1.08.24,1.62s.11,1.07.14,1.61v.16l-.15.14c-.58.53-1.17,1.05-1.78,1.55l-.1.09-.15,0q-4.22.4-8.44.64h-.09l0,0c-.38-.15-.75-.32-1.12-.5S49.77,24.25,49.42,24Z"/><path class="cls-1" d="M17.79,28a3,3,0,0,0,0,2.58l1,2.57a11.46,11.46,0,0,0,1,2.43,2.46,2.46,0,0,0,.86.81,1.55,1.55,0,0,0,.51.18,1.13,1.13,0,0,0,.26,0h.34c3.65-.11,7.3-.13,11-.14s7.3,0,11,.13H44a1.14,1.14,0,0,0,.26,0,1.54,1.54,0,0,0,.51-.17,2.55,2.55,0,0,0,.86-.81,11.46,11.46,0,0,0,1-2.43l1-2.57a3,3,0,0,0,0-2.58,3,3,0,0,1,.33,2.68l-.73,2.64-.38,1.32A5.57,5.57,0,0,1,46.22,36a3.3,3.3,0,0,1-1.06,1.11,2.85,2.85,0,0,1-.76.32,3,3,0,0,1-.42,0h-.35c-3.65.11-7.3.12-11,.14s-7.3,0-10.95-.14h-.35a3,3,0,0,1-.42-.06,2.53,2.53,0,0,1-.76-.31A3.4,3.4,0,0,1,19.14,36a5.57,5.57,0,0,1-.57-1.34l-.38-1.32-.72-2.64A3,3,0,0,1,17.79,28Z"/><path class="cls-1" d="M62.54,17.77a3.83,3.83,0,0,0-1-1.61A7.38,7.38,0,0,0,59.93,15l-3.36-2-.06,0,0-.08c-.95-2.39-1.9-4.8-3-7.11-.29-.58-.57-1.15-.89-1.69a3.71,3.71,0,0,0-1.12-1.33,4.1,4.1,0,0,0-1.66-.52L47.88,2a105.51,105.51,0,0,0-15.4-.9V0h.4V1.09A104.14,104.14,0,0,0,17.48,2l-1.91.29a4.26,4.26,0,0,0-1.66.52,3.8,3.8,0,0,0-1.12,1.33c-.32.54-.6,1.11-.88,1.69-1.12,2.31-2.07,4.72-3,7.11l0,.08-.07,0L5.43,15a7.24,7.24,0,0,0-1.57,1.12,3.83,3.83,0,0,0-1,1.61,3.92,3.92,0,0,1,1-1.71A7,7,0,0,1,5.3,14.83l3.27-2.15-.1.12c.82-2.47,1.74-4.89,2.78-7.27.27-.6.55-1.19.87-1.77a4.36,4.36,0,0,1,1.32-1.64,5,5,0,0,1,2-.72q1-.18,1.92-.33A106.43,106.43,0,0,1,32.88,0V1.09h-.4V0A106.43,106.43,0,0,1,48,1.07l1.92.33a5.17,5.17,0,0,1,2,.72,4.36,4.36,0,0,1,1.32,1.64c.32.58.6,1.17.87,1.77q1.56,3.57,2.77,7.27l-.09-.12,3.27,2.15a6.77,6.77,0,0,1,1.53,1.24A3.84,3.84,0,0,1,62.54,17.77Z"/><path class="cls-1" d="M12.4,6.91c-.61,2-1.3,4-2,6l-.29-.48c3.73.17,7.5.19,11.25.22l11.27,0,11.27,0c3.75,0,7.52,0,11.24-.22l-.28.49c-.74-2-1.51-4-2.21-6,1,1.9,1.91,3.83,2.86,5.74l.21.42-.49.07c-3.77.54-7.53.76-11.3.93s-7.53.22-11.3.23-7.54-.07-11.3-.24-7.53-.39-11.3-.92l-.47-.07.19-.41C10.66,10.75,11.49,8.82,12.4,6.91Z"/><path class="cls-1" d="M2.88,17.54A49.37,49.37,0,0,1,.5,27.47l0-.09.37,7.18L1,36.35a3.56,3.56,0,0,0,.29,1.5,1.69,1.69,0,0,0,1.23.51l1.76.22q3.57.41,7.14.71c1.19.11,2.38.21,3.54.26a6.59,6.59,0,0,0,1.62-.11,3.35,3.35,0,0,0,.72-.22,1.85,1.85,0,0,0,.49-.28L18,38.7h.35q14.36-.11,28.7,0h.35l.21.24a2,2,0,0,0,.49.28,4,4,0,0,0,.72.22,7.12,7.12,0,0,0,1.62.11c1.16,0,2.35-.16,3.54-.26,2.38-.21,4.76-.44,7.14-.71l1.76-.23a1.65,1.65,0,0,0,1.23-.5,3.6,3.6,0,0,0,.29-1.5l.09-1.79.37-7.18,0,.09a46.61,46.61,0,0,1-2.32-9.7,47.17,47.17,0,0,0,1.17,4.83c.46,1.59,1,3.17,1.61,4.69l0,0v.06c0,2.4,0,4.79,0,7.19l0,1.81a4.1,4.1,0,0,1-.37,2,2.6,2.6,0,0,1-1.9,1c-.61.11-1.2.2-1.79.29-2.38.35-4.76.68-7.15,1-1.2.13-2.39.26-3.62.33a8.14,8.14,0,0,1-2-.1,6.39,6.39,0,0,1-1-.29,3.15,3.15,0,0,1-1-.64l.55.24q-14.36.11-28.7,0l.55-.24a3.15,3.15,0,0,1-1,.64,6.39,6.39,0,0,1-1,.29,8.14,8.14,0,0,1-2,.1c-1.23-.07-2.42-.2-3.62-.33q-3.59-.44-7.15-1c-.59-.1-1.18-.18-1.79-.3a2.52,2.52,0,0,1-1.89-1,4.12,4.12,0,0,1-.38-2l0-1.81c0-2.4,0-4.79,0-7.19v-.06l0,0c.62-1.56,1.16-3.18,1.64-4.8A46.35,46.35,0,0,0,2.88,17.54Z"/><path class="cls-1" d="M1.5,31.2q3.92.87,7.81,1.82l1.95.45a4,4,0,0,1,2,1.07,5.58,5.58,0,0,1,1.66,3.81l-.1,0a9,9,0,0,0-2.29-3,3.52,3.52,0,0,0-.72-.49,3.33,3.33,0,0,0-.79-.35l-1.9-.65Q5.26,32.63,1.47,31.3Z"/><path class="cls-1" d="M63.89,31.3q-3.78,1.33-7.61,2.56l-1.9.65a3.33,3.33,0,0,0-.79.35,3.52,3.52,0,0,0-.72.49,9,9,0,0,0-2.29,3l-.1,0a5.58,5.58,0,0,1,1.66-3.81,4,4,0,0,1,2-1.07L56.05,33q3.9-.95,7.81-1.82Z"/><path class="cls-2" d="M63.55,32.85c-.12.88.08,3.29-2.95,3.94C59,37.13,52.41,38,52.41,38"/><path class="cls-1" d="M12.84,41.76A11.89,11.89,0,0,1,13,42.94a1.86,1.86,0,0,1-.17,1.29,1.89,1.89,0,0,1-1.07.87,2.17,2.17,0,0,1-.68.12l-.6,0c-1.57.09-3.15.11-4.73.13l-2.37,0a9.09,9.09,0,0,1-1.28-.09,2,2,0,0,1-1.24-.81A2,2,0,0,1,.5,43.07l.1-1.18c.09-.79.14-1.58.27-2.37.13.79.19,1.58.28,2.37l.09,1.18a1.2,1.2,0,0,0,.3.83,1.3,1.3,0,0,0,.75.39,10.31,10.31,0,0,0,1.08,0l2.37,0c1.58,0,3.16,0,4.73.13a6.71,6.71,0,0,0,1.08,0,1.38,1.38,0,0,0,.82-.47,1.56,1.56,0,0,0,.33-1C12.73,42.55,12.78,42.15,12.84,41.76Z"/><path class="cls-1" d="M52.42,41.76c.06.39.11.79.15,1.18a1.5,1.5,0,0,0,.33,1,1.38,1.38,0,0,0,.81.47,6.7,6.7,0,0,0,1.08,0c1.58-.09,3.16-.11,4.74-.13l2.36,0a10.53,10.53,0,0,0,1.09,0,1.25,1.25,0,0,0,.74-.39,1.15,1.15,0,0,0,.3-.83l.1-1.18c.09-.79.15-1.58.27-2.37.13.79.19,1.58.28,2.37l.1,1.18a2,2,0,0,1-.35,1.38,2,2,0,0,1-1.25.81,9,9,0,0,1-1.28.09l-2.36,0c-1.58,0-3.16,0-4.74-.13l-.59,0a2.12,2.12,0,0,1-.68-.12,2,2,0,0,1-1.08-.87,2,2,0,0,1-.17-1.29C52.31,42.55,52.36,42.15,52.42,41.76Z"/><path class="cls-1" d="M14.1,28a31.48,31.48,0,0,1-3.22,0c-1.06,0-2.13-.16-3.19-.26q-3.2-.27-6.39-.6v-.05c2.14.06,4.27.13,6.41.22,1.07,0,2.14,0,3.2.14s2.13.23,3.18.45Z"/><path class="cls-1" d="M51.1,27.49A32.06,32.06,0,0,1,54.32,27c1.08-.11,2.16-.13,3.24-.18,2.16-.1,4.33-.19,6.49-.26v.05c-2.16.23-4.31.45-6.47.65-1.07.11-2.15.24-3.23.29s-2.17.06-3.26,0Z"/><path class="cls-1" d="M16,44.81c5.56-.43,11.11-.53,16.67-.55s11.12.12,16.68.55c-5.56.43-11.12.53-16.68.55S21.59,45.24,16,44.81Z"/><path class="cls-1" d="M27.65,24.39a22.53,22.53,0,0,1,5.15-.53,21.9,21.9,0,0,1,5.14.53,21.39,21.39,0,0,1-5.14.54A22,22,0,0,1,27.65,24.39Z"/><path class="cls-1" d="M21.84,28.41c3.66-.13,7.31-.14,11-.16s7.3,0,11,.16c-3.65.12-7.3.13-11,.15S25.5,28.53,21.84,28.41Z"/><path class="cls-1" d="M17.39,2.84A71.31,71.31,0,0,1,25.1,2c2.59-.17,5.17-.22,7.76-.24S38,1.82,40.62,2a73.9,73.9,0,0,1,7.71.86c-2.58-.19-5.15-.3-7.73-.38s-5.16-.13-7.74-.11-5.16,0-7.74.1S20,2.63,17.39,2.84Z"/></g></g></svg>