<svg xmlns="http://www.w3.org/2000/svg" viewBox="0 0 16 10.99"><defs><style>.cls-1{fill:#323232;stroke:#fff;stroke-width:0.03px;}</style></defs><g id="Слой_2" data-name="Слой 2"><g id="Слой_1-2" data-name="Слой 1"><path class="cls-1" d="M16,5.42V9.47H14V8.53h1V5.58h0L14.18,3V3h-3.7V8.53H11v.94H9.53V2h5.32Z"/><path class="cls-1" d="M12.51,11a2,2,0,1,1,2-2A2,2,0,0,1,12.51,11Zm0-3a1,1,0,1,0,1,1A1,1,0,0,0,12.51,8Z"/><path class="cls-1" d="M2,8.53H3v.94H1V6H2v2.5Z"/><path class="cls-1" d="M9.5,1H0V0H10.47V9.47H6V8.53H9.53V1Z"/><path class="cls-1" d="M4.49,11a2,2,0,1,1,2-2A2,2,0,0,1,4.49,11Zm0-3a1,1,0,1,0,1,1A1,1,0,0,0,4.49,8Z"/><path class="cls-1" d="M.52,3V2H5V3Z"/><path class="cls-1" d="M1,5V4H4V5Z"/></g></g></svg>