<svg xmlns="http://www.w3.org/2000/svg" viewBox="0 0 22.88 22.88"><defs><style>.cls-1{fill:#323232;stroke:#fff;stroke-width:0.16px;}.cls-2{fill:none;stroke:#939598;stroke-miterlimit:10;stroke-width:0.29px;}</style></defs><g id="Слой_2" data-name="Слой 2"><g id="Слой_1-2" data-name="Слой 1"><path class="cls-1" d="M19.16,12V15.9H17.31V15h1V12.19h0l-.82-2.46v0H13.91V15h.47v.89H13V8.8h5.07Z"/><path class="cls-1" d="M15.85,17.34a1.89,1.89,0,1,1,1.88-1.88A1.89,1.89,0,0,1,15.85,17.34Zm0-2.87a1,1,0,1,0,1,1A1,1,0,0,0,15.85,14.47Z"/><path class="cls-1" d="M5.82,15h.93v.89H4.9V12.62h.89V15Z"/><path class="cls-1" d="M13,7.79h-9v-.9h10v9H9.67V15H13V7.79Z"/><path class="cls-1" d="M8.21,17.34a1.89,1.89,0,1,1,1.88-1.88A1.88,1.88,0,0,1,8.21,17.34Zm0-2.87a1,1,0,1,0,1,1A1,1,0,0,0,8.21,14.47Z"/><path class="cls-1" d="M4.42,9.7V8.8H8.66v.9Z"/><path class="cls-1" d="M4.9,11.61v-.9H7.7v.9Z"/><rect class="cls-2" x="0.15" y="0.15" width="22.58" height="22.58" rx="4"/></g></g></svg>