<svg xmlns="http://www.w3.org/2000/svg" viewBox="0 0 42.85 42.85"><defs><style>.cls-1{fill:#475993;}</style></defs><g id="Слой_2" data-name="Слой 2"><g id="Слой_1-2" data-name="Слой 1"><path class="cls-1" d="M8.87,0A8.87,8.87,0,0,0,0,8.87V34a8.87,8.87,0,0,0,8.87,8.86H21.21l0-15.31h-4a.94.94,0,0,1-.94-.93l0-4.94a.94.94,0,0,1,.94-.94h4V16c0-5.54,3.38-8.55,8.32-8.55h4a.94.94,0,0,1,.94.94v4.16a.94.94,0,0,1-.94.94H31.1c-2.69,0-3.21,1.27-3.21,3.15v4.13h5.9a.93.93,0,0,1,.93,1.05l-.58,4.93a1,1,0,0,1-.93.83H27.92l0,15.31H34A8.86,8.86,0,0,0,42.85,34V8.87A8.87,8.87,0,0,0,34,0Z"/></g></g></svg>