<svg width="18" height="13" viewBox="0 0 18 13" fill="none" xmlns="http://www.w3.org/2000/svg">
<path d="M1.63801 10.9219C1.53054 10.9004 1.41911 10.9146 1.32017 10.9624C1.22122 11.0103 1.14 11.0893 1.08847 11.1877C1.03693 11.2861 1.01782 11.3988 1.03395 11.5092C1.05008 11.6195 1.1006 11.7216 1.17805 11.8005C1.2555 11.8794 1.35579 11.9308 1.46413 11.9473C1.57247 11.9637 1.68313 11.9442 1.77979 11.8918C1.87644 11.8393 1.95398 11.7565 2.00097 11.6558C2.04796 11.555 2.06191 11.4415 2.04077 11.3321C2.0209 11.2308 1.97205 11.1379 1.90038 11.0649C1.8287 10.9919 1.73741 10.9421 1.63801 10.9219Z" fill="#FF7D00"/>
<path d="M10.4787 9.92832C10.4043 9.91134 10.3283 9.90277 10.252 9.90277C10.0087 9.90238 9.77363 9.9932 9.59175 10.1579C9.40987 10.3226 9.29384 10.5497 9.26577 10.7959C9.2377 11.0422 9.29956 11.2903 9.43955 11.4931C9.57954 11.6958 9.78788 11.8391 10.0249 11.8955C10.0994 11.9126 10.1756 11.9214 10.252 11.9215C10.4952 11.9213 10.7297 11.8301 10.9112 11.6653C11.0926 11.5005 11.2083 11.2736 11.2363 11.0277C11.2643 10.7817 11.2026 10.5339 11.0629 10.3312C10.9233 10.1285 10.7154 9.98515 10.4787 9.92832ZM10.6646 11.2469C10.6154 11.3098 10.5528 11.3607 10.4817 11.3956C10.4105 11.4305 10.3324 11.4485 10.2534 11.4484C10.2109 11.4482 10.1686 11.4432 10.1271 11.4337C10.0331 11.4115 9.94708 11.3629 9.87885 11.2934C9.81061 11.2239 9.76287 11.1363 9.74105 11.0406C9.7221 10.9606 9.72137 10.8772 9.73892 10.7968C9.75648 10.7165 9.79184 10.6412 9.84232 10.5769C9.89159 10.5141 9.95414 10.4634 10.0253 10.4286C10.0965 10.3938 10.1745 10.3757 10.2534 10.3759C10.2959 10.376 10.3383 10.3807 10.3798 10.3901C10.4738 10.4123 10.5598 10.461 10.628 10.5305C10.6962 10.6 10.744 10.6875 10.7658 10.7832C10.7846 10.8634 10.7851 10.9468 10.7673 11.0272C10.7495 11.1075 10.7139 11.1827 10.6632 11.2469H10.6646Z" fill="#FF7D00"/>
<path d="M15.6554 6.50226L13.7716 7.06999C12.142 6.68204 11.3416 7.48916 11.0596 7.88657L9.51966 8.35021L9.48946 8.35873L17.0025 1.39793L16.1315 0.104455C16.0958 0.0551414 16.0427 0.0218629 15.9834 0.0116263C15.9241 0.0013896 15.8632 0.0149934 15.8135 0.0495735C15.7638 0.0841535 15.7293 0.137012 15.7171 0.197019C15.7049 0.257026 15.7161 0.3195 15.7483 0.371287L16.3889 1.32649L15.9215 1.75938L16.0516 1.27634C16.0588 1.25001 16.0568 1.22194 16.0459 1.19697C16.0349 1.17201 16.0158 1.15172 15.9917 1.13961L14.7193 0.48767C14.7057 0.480569 14.6908 0.47629 14.6755 0.475079C14.6602 0.473868 14.6448 0.47575 14.6303 0.480615C14.6157 0.485481 14.6022 0.493234 14.5906 0.503428C14.579 0.513622 14.5695 0.526055 14.5626 0.54001C14.5558 0.553965 14.5517 0.569166 14.5506 0.584738C14.5495 0.600309 14.5515 0.615942 14.5564 0.630736C14.5613 0.645529 14.569 0.659191 14.5791 0.670932C14.5892 0.682674 14.6015 0.692264 14.6152 0.699149L15.8026 1.30567L15.601 2.05507L8.47815 8.65348L7.88632 8.82616L5.99934 9.05183V8.51769H7.91187V7.43949C7.91199 7.25749 7.85602 7.08005 7.75184 6.93218C7.64765 6.78432 7.50052 6.67349 7.33119 6.61534C6.82379 6.46279 6.29589 6.39301 5.76707 6.40859C4.70415 6.46876 3.66831 6.77264 2.73684 7.29755C2.61394 7.3629 2.51105 7.46142 2.43944 7.58233C2.36783 7.70324 2.33026 7.84188 2.33083 7.98309V8.28114H2.18729V9.50601H2.50875V9.84759H2.77308L2.4479 10.1788C2.18563 9.97988 1.86763 9.87192 1.54064 9.87078C1.42235 9.87092 1.30443 9.88425 1.18898 9.91052C0.821263 9.99809 0.498012 10.2203 0.28078 10.5349C0.0635482 10.8495 -0.0324912 11.2345 0.0109498 11.6165C0.0543907 11.9986 0.234278 12.351 0.516357 12.6067C0.798436 12.8624 1.163 13.0035 1.54064 13.0032C1.65909 13.0031 1.77716 12.9897 1.89277 12.9635C2.20449 12.8899 2.48524 12.7174 2.69457 12.471C3.09268 12.5131 4.20852 12.6172 5.52364 12.6172C6.93261 12.6172 8.47025 12.4979 8.88369 12.4639C9.25921 12.8103 9.74787 13.0021 10.2546 13.0018C10.371 13.0017 10.4872 12.992 10.602 12.9729C11.0515 12.8941 11.4618 12.6636 11.7671 12.3186L15.582 11.6918C15.6729 11.6773 15.7562 11.6315 15.8179 11.5618C15.8796 11.4922 15.9158 11.4031 15.9206 11.3095L16.1733 6.92096C16.1771 6.85503 16.1652 6.78914 16.1388 6.72886C16.1123 6.66857 16.0719 6.61567 16.0211 6.57461C15.9703 6.53355 15.9106 6.50554 15.8469 6.49295C15.7833 6.48036 15.7176 6.48355 15.6554 6.50226ZM13.2764 7.21855L11.468 7.76073C11.7095 7.53775 11.9974 7.37319 12.3102 7.27931C12.6229 7.18544 12.9524 7.16466 13.2741 7.21855H13.2764ZM7.2996 9.38442L7.74556 9.33238L7.65265 9.41754C7.60713 9.45983 7.57996 9.5188 7.57713 9.58148C7.5743 9.64417 7.59603 9.70543 7.63755 9.75179C7.67907 9.79815 7.73698 9.82582 7.79853 9.8287C7.86008 9.83159 7.92023 9.80945 7.96575 9.76717L8.71832 9.06981L9.00308 8.98465L8.33693 9.91383L7.1895 10.0184L7.2996 9.38442ZM7.05896 9.41234L6.90938 10.2814L8.34668 10.1504C8.33414 10.1826 8.31788 10.2124 8.30719 10.245L2.88039 10.6845C2.84798 10.6249 2.81167 10.5675 2.77168 10.5128L3.43784 9.83435L3.46896 9.83056L5.99794 9.53771L7.05896 9.41234ZM5.53479 9.10718L3.31613 9.37212H2.9733V8.51769H5.53665L5.53479 9.10718ZM2.79398 7.98309C2.79358 7.92828 2.80802 7.87441 2.83572 7.82742C2.86342 7.78043 2.90331 7.74213 2.951 7.71673C3.81787 7.23186 4.77873 6.9468 5.76567 6.88169C6.24398 6.86519 6.72181 6.92652 7.18114 7.06337C7.25873 7.09011 7.32607 7.14108 7.37361 7.20902C7.42114 7.27696 7.44645 7.35843 7.44593 7.44185V8.04459H2.79538L2.79398 7.98309ZM1.78964 12.5003C1.70697 12.519 1.62254 12.5285 1.53785 12.5287C1.27485 12.5288 1.02096 12.4306 0.824314 12.2527C0.627666 12.0749 0.50193 11.8297 0.470945 11.5637C0.43996 11.2978 0.505879 11.0294 0.656206 10.8097C0.806532 10.5899 1.03082 10.4339 1.28654 10.3713C1.36919 10.3524 1.45361 10.3428 1.53832 10.3425C1.8011 10.3429 2.05462 10.4413 2.25094 10.6192C2.44726 10.7971 2.57276 11.0421 2.60371 11.3079C2.63467 11.5736 2.56892 11.8417 2.41891 12.0614C2.2689 12.2812 2.04503 12.4373 1.78964 12.5003ZM2.96586 12.0229C2.99574 11.9487 3.01951 11.8722 3.03694 11.794C3.09985 11.5008 3.07954 11.1954 2.97841 10.9135L8.2482 10.4877C8.24309 10.5123 8.23426 10.535 8.23054 10.5606C8.14655 11.0658 8.24772 11.5849 8.51485 12.0191C7.8826 12.0665 6.65667 12.145 5.52132 12.145C4.4236 12.144 3.46804 12.0702 2.96586 12.0229ZM10.5245 12.506C10.4345 12.521 10.3434 12.5286 10.2522 12.5287C9.85531 12.5285 9.47288 12.3767 9.18045 12.1033C8.88801 11.83 8.70682 11.4549 8.67264 11.0522C8.63845 10.6494 8.75376 10.2483 8.9958 9.92786C9.23783 9.60746 9.58901 9.3911 9.98002 9.3215C10.07 9.30629 10.161 9.29854 10.2522 9.29832C10.6496 9.29787 11.0327 9.44934 11.3257 9.72276C11.6187 9.99618 11.8003 10.3716 11.8345 10.7748C11.8687 11.1781 11.7531 11.5797 11.5105 11.9002C11.2679 12.2208 10.916 12.437 10.5245 12.506ZM15.4575 11.2324L12.1127 11.7817C12.1887 11.6184 12.2426 11.4454 12.273 11.2674C12.3234 10.9676 12.3089 10.6601 12.2305 10.3666C12.1521 10.0731 12.0118 9.80052 11.8193 9.56795C11.6267 9.33539 11.3867 9.14843 11.1159 9.02014C10.8451 8.89186 10.55 8.82533 10.2513 8.82521C10.1349 8.82526 10.0187 8.83507 9.90383 8.85455C9.64717 8.90028 9.40177 8.99671 9.18147 9.13841L9.36728 8.87725L15.6995 6.98483L15.4575 11.2324Z" fill="#FF7D00"/>
</svg>
