<svg width="10" height="16" viewBox="0 0 10 16" fill="none" xmlns="http://www.w3.org/2000/svg">
<path d="M0.482369 8.85168L1.3157 8.51921C1.35956 8.51921 1.40342 8.47765 1.44728 8.47765H1.84202C1.44728 7.77116 1.66658 6.69064 1.84202 6.15038C1.84202 6.10882 1.88588 6.06726 1.92974 6.0257L3.24553 5.0283L3.55254 3.73999H2.89465C2.80693 3.73999 2.71921 3.69843 2.67535 3.61531C2.63149 3.53219 2.63149 3.44908 2.67535 3.36596L3.24553 2.49323C3.28939 2.41012 3.37711 2.36856 3.46483 2.36856L5.83325 2.24388V1.70362L5.30693 1.57895C5.21921 1.53739 5.13149 1.49583 5.13149 1.37116V0.415312C5.13149 0.290636 5.21921 0.20752 5.35079 0.20752H6.9736C7.06132 0.20752 7.14904 0.290636 7.14904 0.415312V1.41271C7.14904 1.49583 7.10518 1.57895 7.01746 1.62051L6.49114 1.70362V2.20232L8.46482 2.327C8.55254 2.327 8.68412 2.36856 8.72798 2.45168L8.77184 2.57635C8.8157 2.65947 8.8157 2.74258 8.77184 2.8257C8.77184 2.90882 8.68412 2.95038 8.5964 2.99194L7.36833 3.28284L7.49991 8.47765H8.5964C8.64026 8.47765 8.68412 8.47765 8.72798 8.51921L9.64904 8.89323C9.82447 8.97635 9.91219 9.14258 9.82447 9.30882C9.78061 9.43349 9.64904 9.51661 9.51746 9.51661C9.4736 9.51661 9.42974 9.51661 9.38588 9.47505L9.035 9.39194L8.68412 13.1738C9.21044 13.3815 9.56132 13.8802 9.56132 14.4621C9.56132 15.1686 8.90342 15.7919 8.11395 15.7919C7.63149 15.7919 7.23675 15.5841 6.9736 15.2517L2.63149 15.4179V15.7919H1.71044C1.57886 15.7919 1.44728 15.6673 1.44728 15.5426V15.2101C1.44728 15.0854 1.57886 14.9608 1.7543 14.9608C1.535 14.9192 1.49114 14.5867 1.49114 14.5452L1.09641 9.39194L0.745527 9.47505C0.570088 9.55817 0.39465 9.47505 0.306931 9.30882C0.219212 9.10103 0.306931 8.93479 0.482369 8.85168ZM6.66658 7.35557V7.97895H6.9736L6.92974 5.77635H6.71044L6.66658 7.35557ZM6.49114 8.26986C6.44728 8.26986 6.40342 8.26986 6.35956 8.2283C6.3157 8.18674 6.3157 8.14518 6.3157 8.10362V7.48025H2.14904C2.14904 7.81271 2.1929 8.14518 2.36833 8.35297C2.41219 8.39453 2.41219 8.43609 2.41219 8.43609H6.92974V8.2283L6.49114 8.26986ZM2.32447 6.39973C2.23676 6.60752 2.1929 6.89843 2.14904 7.18934H6.3157V5.61012C6.3157 5.527 6.40342 5.44388 6.49114 5.44388H6.88588L6.84202 3.44908L5.57009 3.73999H5.52623L4.12272 3.78155L3.77184 5.27765C3.77184 5.31921 3.72798 5.40232 3.68412 5.44388L2.32447 6.39973ZM6.7543 1.24648V0.623104H5.57009V1.24648L6.18412 1.41271L6.7543 1.24648ZM7.41219 2.74258H3.68412L3.37711 3.24129L5.48237 3.19973L7.41219 2.74258ZM8.50868 9.2257H7.45605C7.49991 9.26726 7.49991 9.35038 7.54377 9.39194L8.11395 13.0491C8.11395 13.0491 8.11395 13.0491 8.15781 13.0491L8.50868 9.2257ZM8.11395 15.3764C8.68412 15.3764 9.12272 14.9608 9.12272 14.4205C9.12272 13.8802 8.68412 13.4647 8.11395 13.4647C7.54377 13.4647 7.10518 13.8802 7.10518 14.4205C7.10518 14.9608 7.58763 15.3764 8.11395 15.3764ZM6.71044 14.753C6.66658 14.6699 6.66658 14.5452 6.66658 14.4621C6.66658 13.8802 7.06132 13.3815 7.58763 13.1738L7.14904 10.3478L3.42097 14.8776L6.71044 14.753ZM2.01746 14.4621V14.5036C2.06132 14.7114 2.28061 14.8361 2.54377 14.8361L6.9736 9.47505C6.92974 9.39193 6.79816 9.26726 6.66658 9.2257H1.57886L2.01746 14.4621Z" fill="#FF7D00"/>
<path d="M8.11398 14.8777C7.84753 14.8777 7.63152 14.673 7.63152 14.4205C7.63152 14.168 7.84753 13.9634 8.11398 13.9634C8.38043 13.9634 8.59644 14.168 8.59644 14.4205C8.59644 14.673 8.38043 14.8777 8.11398 14.8777Z" fill="#FF7D00"/>
</svg>
