<svg width="15" height="13" viewBox="0 0 15 13" fill="none" xmlns="http://www.w3.org/2000/svg">
<path d="M14.7848 -0.000214384L13.0995 0.0314107C13.0692 0.0317551 13.0393 0.0385983 13.0119 0.0514759C12.9844 0.0643535 12.9601 0.0829643 12.9405 0.106046L9.96251 3.60082L8.6063 4.08996C8.4815 4.08383 8.35642 4.08665 8.23204 4.09839C8.23204 4.09333 8.23204 4.08869 8.23204 4.08363L8.14746 3.34698C8.13644 3.26169 8.09241 3.18408 8.02476 3.13074C7.95712 3.07739 7.87123 3.05255 7.78546 3.06151L6.15183 3.25084C6.06586 3.26099 5.98741 3.30465 5.93361 3.37228C5.87981 3.4399 5.85503 3.52601 5.86468 3.61179L5.96956 4.50783C5.96956 4.51542 5.97506 4.52174 5.97633 4.52891C4.54906 4.8283 3.54131 5.0619 3.49902 5.07455C3.26671 5.18353 3.07587 5.36435 2.95488 5.59014C2.83389 5.81592 2.7892 6.07461 2.82747 6.32775C2.87541 6.5868 2.99381 6.82775 3.16974 7.02429C3.34566 7.22082 3.57236 7.36539 3.82507 7.44221C3.83365 7.44482 3.84242 7.4468 3.85129 7.44811L5.32423 7.67244C5.33471 7.67414 5.34532 7.67498 5.35594 7.67497C5.38352 7.67491 5.41081 7.66946 5.43629 7.65895C6.2472 7.34836 7.11625 7.2177 7.98295 7.27607C8.33332 7.34734 8.69651 7.32247 9.03381 7.2041C9.37111 7.08573 9.66987 6.8783 9.89823 6.60394C10.0212 6.44331 10.1083 6.25834 10.1538 6.0614C10.1992 5.86447 10.2019 5.66012 10.1617 5.46206C10.1301 5.2415 10.0544 5.02951 9.93907 4.83871C9.8237 4.64791 9.67103 4.48218 9.49014 4.35139C9.44108 4.32275 9.39039 4.29698 9.33832 4.27423L10.1596 3.97906C10.1941 3.96644 10.2247 3.94508 10.2484 3.91707L12.7714 0.958235C12.7802 0.958235 12.7891 0.964982 12.798 0.966668C12.8898 0.957392 12.982 0.956127 13.0742 0.950645L13.6091 0.92408L14.0933 1.06492C14.1763 1.09256 14.2611 1.11467 14.3471 1.13112C14.4397 1.12437 14.5306 1.12353 14.6253 1.11004C14.5526 1.04763 14.4765 0.998294 14.402 0.941368C14.3211 0.909562 14.2382 0.882943 14.1538 0.861673L13.6501 0.71662L13.6328 0.71156H13.615L13.0623 0.738968C13.0255 0.738968 12.9887 0.738968 12.9524 0.743185L13.2023 0.450126L14.7924 0.421453C14.8202 0.420959 14.8476 0.415002 14.8731 0.403921C14.8986 0.39284 14.9216 0.376854 14.9409 0.356878C14.9602 0.336902 14.9754 0.313329 14.9855 0.287508C14.9956 0.261687 15.0006 0.234126 15 0.206403C15.0013 0.178233 14.9966 0.15011 14.9861 0.123913C14.9756 0.0977167 14.9597 0.074049 14.9393 0.0544917C14.9189 0.0349343 14.8946 0.0199377 14.868 0.0105037C14.8413 0.00106977 14.8129 -0.00258432 14.7848 -0.000214384ZM7.73894 3.49203L7.8028 4.04779L6.37681 4.35645L6.29603 3.66112L7.73894 3.49203ZM9.74684 5.54049C9.7755 5.67916 9.77422 5.82233 9.74309 5.96047C9.71195 6.09861 9.65167 6.22855 9.56626 6.34166C9.38136 6.55784 9.14104 6.71989 8.87096 6.81049C8.60089 6.9011 8.31121 6.91686 8.03285 6.85609C7.11472 6.78586 6.19237 6.91891 5.33184 7.24571L3.93291 7.03446C3.76015 6.97922 3.60539 6.87881 3.48475 6.74369C3.36411 6.60858 3.28201 6.44368 3.24698 6.26618C3.22295 6.10671 3.24989 5.94374 3.32398 5.80039C3.39806 5.65704 3.51553 5.54059 3.65972 5.46754C3.89062 5.41399 5.75981 4.98642 7.97872 4.55379C8.1902 4.4932 8.41161 4.47489 8.63021 4.49993C8.84881 4.52497 9.06029 4.59286 9.25247 4.69969C9.52179 4.90406 9.69918 5.20628 9.74599 5.54049H9.74684Z" fill="#FF7D00"/>
<path d="M8.43545 11.9955C8.43545 11.9896 8.43545 11.9832 8.43545 11.9778L7.74275 10.6466L8.63082 10.1878L9.02707 10.1549L9.19623 9.48276L8.37666 9.58733V9.59829C8.35834 9.59552 8.33961 9.59726 8.32211 9.60335L7.33212 10.1153L6.98662 10.294L6.52862 9.41149L6.49479 9.01175L5.83889 8.88525L5.93953 9.70919H5.94165C5.94165 9.71214 5.94165 9.71509 5.94165 9.71762L6.63308 11.0467L5.745 11.5055L5.35679 11.538L5.12927 12.1679L6.05245 12.103L6.04864 12.0908H6.05202L7.03314 11.5848C7.03652 11.5848 7.0399 11.5848 7.04244 11.5822L7.38794 11.4039L7.84636 12.2847L7.87934 12.679L8.56823 12.8531L8.44137 11.995L8.43545 11.9955Z" fill="#FF7D00"/>
<path d="M6.3248 11.0623L6.04526 10.5246L5.66762 10.4053L5.3864 10.1683L5.02609 10.4597L5.53779 10.8139L6.3248 11.0623Z" fill="#FF7D00"/>
<path d="M7.62858 9.3326L7.86667 9.05219L7.57403 8.69293L7.21922 9.20315L6.97479 9.97269L7.51356 9.69397L7.62858 9.3326Z" fill="#FF7D00"/>
<path d="M8.05191 10.6287L8.33186 11.1663L8.70824 11.2853L8.98946 11.5222L9.34935 11.2309L8.83807 10.8771L8.05191 10.6287Z" fill="#FF7D00"/>
<path d="M6.74645 12.3606L6.50836 12.6411L6.801 12.9999L7.15581 12.4901L7.40828 11.6957L6.86909 11.9748L6.74645 12.3606Z" fill="#FF7D00"/>
<path d="M2.78266 4.31981C2.78947 4.36545 2.80551 4.40923 2.82978 4.44851C2.85406 4.4878 2.88608 4.52176 2.9239 4.54835L2.93786 4.55678L3.02244 4.76256L3.07361 4.83508C3.10746 4.86919 3.14778 4.89626 3.1922 4.91471C3.23663 4.93317 3.28429 4.94265 3.33242 4.94261C3.36785 4.94231 3.40316 4.93821 3.43772 4.93038L5.37964 4.5007C5.44437 4.48969 5.50508 4.46199 5.55575 4.42034C5.60642 4.3787 5.64528 4.32456 5.66847 4.2633L5.68624 4.22114L5.67524 3.95211L5.6837 3.93862C5.70664 3.89858 5.7212 3.85433 5.72651 3.80852C5.73182 3.76272 5.72775 3.71632 5.71457 3.67212C5.69453 3.58582 5.64335 3.50988 5.57079 3.45876L5.46295 3.17371L5.4325 3.1189C5.37946 3.04407 5.30512 2.98683 5.2191 2.95458C5.13307 2.92233 5.03933 2.91656 4.94998 2.938L4.4848 3.04089L4.37231 2.90216L3.64789 3.06239L3.60561 3.2357L3.16453 3.331C3.07417 3.34911 2.99141 3.39404 2.92711 3.45988C2.86282 3.52572 2.81998 3.60941 2.80422 3.69995L2.79746 3.73032L2.82325 4.06385C2.7779 4.14104 2.76341 4.23243 2.78266 4.31981ZM3.2563 3.74423L3.95365 3.5899L3.99593 3.41702L4.20992 3.36937L4.32283 3.5081L5.04175 3.34913C5.04817 3.3461 5.05538 3.34516 5.06236 3.34645C5.06934 3.34774 5.07574 3.35118 5.08065 3.3563L5.24516 3.79272L5.25827 4.0959L3.38316 4.52347L3.26137 4.2321L3.22416 3.76616C3.23092 3.74971 3.23938 3.74803 3.2563 3.74423Z" fill="#FF7D00"/>
<path d="M11.249 6.68999H10.4578V7.75091H8.17414L8.15258 7.74247C8.1207 7.73075 8.0866 7.72629 8.05277 7.7294L3.99766 8.16034C3.96941 8.15645 3.94066 8.15817 3.91308 8.1654C3.86233 8.17974 3.40561 8.28263 3.04615 7.65013C2.58773 6.8439 2.02783 5.98918 2.0219 5.98032C1.99044 5.93529 1.9426 5.90427 1.88856 5.89385C1.83452 5.88343 1.77853 5.89443 1.7325 5.92452C1.68646 5.95461 1.65401 6.00141 1.64203 6.05498C1.63006 6.10855 1.6395 6.16466 1.66837 6.2114C1.67386 6.21983 2.22658 7.06359 2.67866 7.8559C2.77686 8.0328 2.90705 8.19006 3.06264 8.31973C3.05065 8.33035 3.04 8.34239 3.03093 8.35558L2.55686 9.27059C2.4101 9.21384 2.25658 9.17628 2.10014 9.15885C2.03101 9.15181 1.96157 9.14829 1.89208 9.14831C1.41057 9.1467 0.946693 9.3289 0.595648 9.65752C0.244602 9.98615 0.0330049 10.4363 0.00427588 10.9155C-0.0244531 11.3948 0.131865 11.8669 0.441153 12.2348C0.750441 12.6028 1.18924 12.8388 1.66752 12.8944C1.73663 12.9018 1.80608 12.9055 1.87558 12.9054C2.17874 12.9065 2.4777 12.8347 2.74712 12.6961C3.01654 12.5575 3.24849 12.3562 3.4233 12.1092C3.59812 11.8622 3.71066 11.5769 3.75138 11.2774C3.7921 10.9778 3.7598 10.6729 3.65723 10.3884C3.5225 10.0103 3.2679 9.68631 2.93197 9.4654L3.35486 8.65327L3.91646 8.5934H3.93169L4.92802 8.48756C4.48692 8.63293 4.06295 8.82564 3.66357 9.06229C3.64025 9.07732 3.62012 9.09679 3.60434 9.11958C3.58856 9.14237 3.57744 9.16804 3.57161 9.19511C3.56578 9.22219 3.56535 9.25014 3.57036 9.27738C3.57536 9.30462 3.5857 9.33062 3.60077 9.35387C3.63122 9.40084 3.67914 9.43383 3.73398 9.44557C3.76114 9.45139 3.78917 9.45181 3.81649 9.44682C3.84381 9.44183 3.86988 9.43152 3.8932 9.41649C5.73364 8.41944 7.88997 8.17233 9.90927 8.72706C9.96361 8.74104 10.0213 8.73293 10.0696 8.7045C10.118 8.67607 10.153 8.62966 10.167 8.57548C10.181 8.52129 10.1729 8.46378 10.1444 8.41558C10.1159 8.36738 10.0693 8.33245 10.015 8.31847C9.79044 8.26112 9.57054 8.2139 9.35486 8.17426H10.459V11.8993L11.252 11.2668V8.17257H11.529V7.75091H11.249V6.68999ZM3.25633 10.5272C3.33669 10.7481 3.36235 10.9851 3.33113 11.2181C3.2999 11.451 3.21272 11.673 3.07699 11.8651C2.94125 12.0573 2.76099 12.2139 2.55153 12.3217C2.34206 12.4294 2.10959 12.4852 1.87389 12.4841C1.81976 12.4841 1.76479 12.4812 1.70896 12.4757C1.43996 12.4451 1.1849 12.3401 0.972653 12.1725C0.760403 12.0049 0.59943 11.7814 0.507949 11.5274C0.427688 11.3064 0.402167 11.0693 0.433556 10.8363C0.464945 10.6034 0.552316 10.3814 0.688233 10.1894C0.824149 9.99735 1.00459 9.8409 1.21419 9.73335C1.42379 9.62579 1.65635 9.57032 1.89208 9.57166C1.94621 9.57166 2.00118 9.57462 2.057 9.5801C2.16052 9.59229 2.26235 9.61591 2.36064 9.65052L1.83414 10.6629C1.81229 10.6651 1.79065 10.6691 1.76944 10.6747C1.69572 10.6974 1.63081 10.7422 1.58358 10.803C1.53635 10.8639 1.50911 10.9377 1.50556 11.0146C1.50202 11.0914 1.52235 11.1675 1.56378 11.2324C1.60521 11.2973 1.66571 11.3478 1.73704 11.3771C1.80836 11.4065 1.88702 11.4131 1.96228 11.3962C2.03754 11.3793 2.10572 11.3396 2.15752 11.2826C2.20932 11.2256 2.2422 11.154 2.25169 11.0777C2.26117 11.0013 2.24679 10.9239 2.21051 10.8561L2.73617 9.84406C2.97552 10.0132 3.15708 10.2515 3.25633 10.5267V10.5272ZM10.6675 6.90082H11.0375V7.75091H10.6675V6.90082ZM11.0375 11.166L10.6675 11.4612V8.17215H11.0375V11.166Z" fill="#FF7D00"/>
</svg>
