<svg xmlns="http://www.w3.org/2000/svg" viewBox="0 0 27.72 17.14"><defs><style>.cls-1{fill:#eb2c38;}.cls-2{fill:#f9a13a;}.cls-3{fill:#f36f3a;}.cls-4{fill:#fff;}</style></defs><g id="Слой_2" data-name="Слой 2"><g id="Слой_1-2" data-name="Слой 1"><path class="cls-1" d="M10.58,8.57a8.54,8.54,0,0,1,3.28-6.74A8.57,8.57,0,1,0,8.57,17.14a8.5,8.5,0,0,0,5.29-1.83A8.54,8.54,0,0,1,10.58,8.57Z"/><path class="cls-2" d="M19.15,0a8.5,8.5,0,0,0-5.29,1.83,8.56,8.56,0,0,1,0,13.48A8.57,8.57,0,1,0,19.15,0Z"/><ellipse class="cls-3" cx="13.86" cy="8.57" rx="3.28" ry="6.74"/><path class="cls-4" d="M6.12,10V8.75a.75.75,0,0,0-.81-.81.83.83,0,0,0-.72.36.73.73,0,0,0-.68-.36.69.69,0,0,0-.6.29V8H2.86v2h.45V8.9c0-.37.19-.54.49-.54s.45.19.45.54V10h.44V8.9a.48.48,0,0,1,.5-.54c.29,0,.44.19.44.54V10Zm6.64-2H12V7.36h-.44V8h-.41v.4h.41v.94c0,.47.19.75.7.75a1.25,1.25,0,0,0,.55-.15l-.12-.38a.75.75,0,0,1-.39.1c-.21,0-.3-.13-.3-.34V8.38h.73V8Zm3.8,0a.61.61,0,0,0-.54.29V8h-.44v2H16V8.87c0-.34.15-.53.43-.53a1.35,1.35,0,0,1,.28,0L16.86,8a1.56,1.56,0,0,0-.3,0Zm-5.74.21A1.47,1.47,0,0,0,10,7.94c-.52,0-.86.25-.86.66s.26.53.71.59l.21,0c.23,0,.36.1.36.21s-.17.25-.47.25a1.14,1.14,0,0,1-.68-.21l-.21.34a1.49,1.49,0,0,0,.87.26c.6,0,.94-.28.94-.66s-.28-.56-.7-.62l-.22,0c-.19,0-.34-.07-.34-.19s.15-.24.39-.24a1.64,1.64,0,0,1,.64.17l.19-.36Zm11.9-.21a.6.6,0,0,0-.53.29V8h-.45v2h.45V8.87c0-.34.15-.53.43-.53a1.26,1.26,0,0,1,.27,0L23,8a1.46,1.46,0,0,0-.3,0ZM17,9a1,1,0,0,0,1.09,1.07,1.09,1.09,0,0,0,.73-.24l-.22-.36a.84.84,0,0,1-.53.19A.6.6,0,0,1,17.45,9a.63.63,0,0,1,.62-.66.84.84,0,0,1,.53.19l.22-.36a1.08,1.08,0,0,0-.73-.23A1,1,0,0,0,17,9Zm4.14,0V8H20.7v.25a.78.78,0,0,0-.64-.29,1.07,1.07,0,0,0,0,2.13.74.74,0,0,0,.64-.3V10h.44ZM19.5,9a.62.62,0,1,1,1.24,0A.62.62,0,1,1,19.5,9ZM14.15,7.94a1,1,0,0,0-1,1.06,1,1,0,0,0,1.05,1.07A1.32,1.32,0,0,0,15,9.79l-.21-.32a1,1,0,0,1-.6.21.57.57,0,0,1-.62-.49h1.51V9a.93.93,0,0,0-.93-1.08Zm0,.38a.5.5,0,0,1,.51.49H13.59a.54.54,0,0,1,.56-.49ZM25.26,9V7.17h-.45V8.23a.77.77,0,0,0-.64-.29,1,1,0,0,0-1,1.06,1,1,0,0,0,1,1.07.72.72,0,0,0,.64-.3V10h.45ZM23.62,9a.61.61,0,0,1,.62-.66.62.62,0,0,1,.62.66.63.63,0,0,1-.62.66A.63.63,0,0,1,23.62,9Zm-15,0V8H8.19v.25a.77.77,0,0,0-.64-.29A1,1,0,0,0,6.53,9a1,1,0,0,0,1,1.07.71.71,0,0,0,.64-.3V10h.45ZM7,9A.62.62,0,1,1,8.21,9,.62.62,0,1,1,7,9Z"/></g></g></svg>