<svg xmlns="http://www.w3.org/2000/svg" xmlns:xlink="http://www.w3.org/1999/xlink" viewBox="0 0 41.91 11.82"><defs><style>.cls-1{fill:#20aa4d;}.cls-2{fill:url(#linear-gradient);}</style><linearGradient id="linear-gradient" x1="29.55" y1="2.42" x2="41.91" y2="2.42" gradientUnits="userSpaceOnUse"><stop offset="0.01" stop-color="#00a7e3"/><stop offset="0.34" stop-color="#009edc"/><stop offset="0.87" stop-color="#0085c9"/><stop offset="1" stop-color="#007ec4"/></linearGradient></defs><g id="Слой_2" data-name="Слой 2"><g id="Слой_1-2" data-name="Слой 1"><path class="cls-1" d="M23.33,1.25,20.69,7h-.27V0H16.66V11.82h3.19a2.15,2.15,0,0,0,1.95-1.25l2.65-5.73h.27v7h3.76V0H25.29a2.17,2.17,0,0,0-2,1.25"/><path class="cls-1" d="M9.22,1.55,7.66,7H7.39L5.82,1.55A2.14,2.14,0,0,0,3.76,0H0V11.82H3.76v-7H4l2.15,7H8.87l2.14-7h.27v7H15V0H11.29A2.15,2.15,0,0,0,9.22,1.55"/><path class="cls-1" d="M30.09,5.37v6.45h3.75V8.06h4a4,4,0,0,0,3.8-2.69Z"/><path class="cls-2" d="M37.88,0H29.55a5.92,5.92,0,0,0,5.81,4.84h6.47A4.28,4.28,0,0,0,41.91,4a4,4,0,0,0-4-4"/></g></g></svg>