<svg width="16" height="16" viewBox="0 0 16 16" fill="none" xmlns="http://www.w3.org/2000/svg">
<path d="M14.3218 0.987671C14.1551 1.06547 14.0108 1.18206 13.9016 1.3271C13.7876 1.46836 13.7116 1.63501 13.6806 1.81199C13.8474 1.73435 13.9917 1.61772 14.1007 1.47256C14.2142 1.33097 14.2901 1.16446 14.3218 0.987671Z" fill="#FF7D00"/>
<path d="M14.6546 1.25153C14.488 1.32947 14.3437 1.44604 14.2344 1.59095C14.1203 1.73217 14.0443 1.89885 14.0134 2.07584C14.1804 1.99862 14.3249 1.88192 14.4335 1.73642C14.5471 1.59487 14.623 1.42834 14.6546 1.25153Z" fill="#FF7D00"/>
<path d="M14.5538 1.84254C14.4399 1.98385 14.3639 2.15049 14.3328 2.32743C14.4998 2.25021 14.6443 2.1335 14.7529 1.98801C14.8664 1.84641 14.9423 1.6799 14.974 1.50311C14.8074 1.58104 14.6631 1.69761 14.5538 1.84254Z" fill="#FF7D00"/>
<path d="M15.5649 0.856806C15.0908 0.416038 14.6427 4.93555e-07 14.0978 4.93555e-07C14.0645 -3.24717e-05 14.0311 0.00158594 13.998 0.00484942C13.9008 0.0138282 13.8112 0.0596439 13.7485 0.132376L11.3776 2.86523L11.2329 2.81238L10.6341 3.55378L10.7594 3.57463L10.3706 4.02267C10.3374 4.06111 10.3127 4.10581 10.2981 4.15398C10.2834 4.20214 10.2792 4.25272 10.2857 4.30253C10.2922 4.35235 10.3092 4.40033 10.3356 4.44346C10.3621 4.48659 10.3975 4.52393 10.4395 4.55314L10.6486 4.69861L10.681 4.72382L7.9943 7.64918L6.37649 7.45086C6.0669 7.40982 5.78127 7.26652 5.56758 7.045C5.59545 6.96622 5.59404 6.88044 5.56359 6.80256L4.95229 5.29939C4.9397 5.27499 4.9243 5.25205 4.90638 5.23102C4.9344 5.21011 4.95603 5.18218 4.96895 5.15023C4.98187 5.11829 4.9856 5.08352 4.97974 5.04967C4.93932 4.93572 4.70328 4.91099 4.45278 4.99488C4.20227 5.07876 4.0321 5.23732 4.07302 5.3537C4.09099 5.40558 4.15287 5.43613 4.23471 5.45068C4.23499 5.49085 4.24225 5.53068 4.25616 5.56851L4.86796 7.07167C4.89554 7.13975 4.94366 7.19812 5.006 7.23914C5.06834 7.28016 5.14198 7.3019 5.21727 7.30151C5.22768 7.30009 5.23801 7.29814 5.24821 7.29569C5.53141 7.59412 5.91409 7.78563 6.32858 7.83635L7.67294 8.00121L3.91484 12.0898C3.39059 12.0417 2.86275 12.1331 2.38784 12.3541C2.37511 12.3611 2.36351 12.37 2.35341 12.3803C2.04949 12.7327 1.86771 13.1693 1.83393 13.6279C1.83125 13.6562 1.83652 13.6847 1.84917 13.7103C1.86183 13.7359 1.88139 13.7577 1.90579 13.7734L2.19323 13.9547C2.13484 13.9591 2.07945 13.9547 2.02057 13.9635C1.71809 14.0029 1.43285 14.1233 1.19669 14.3111L0.231587 14.5536C0.210568 14.5589 0.191328 14.5694 0.175756 14.5841C0.160184 14.5988 0.148814 14.6172 0.142762 14.6375L0.00503316 15.1015C-0.000544125 15.1201 -0.00141494 15.1397 0.00249482 15.1587C0.00640459 15.1777 0.0149792 15.1955 0.027489 15.2106C0.0394173 15.2251 0.0546212 15.2368 0.0719263 15.2447C0.0892314 15.2526 0.108175 15.2565 0.127292 15.2562H0.131784L1.21515 15.199C1.2775 15.2388 1.34451 15.2714 1.41476 15.2959C1.58026 15.3503 1.75405 15.377 1.92875 15.375C1.93873 15.375 1.94871 15.375 1.95869 15.375L2.43275 15.9568C2.44947 15.9769 2.47224 15.9913 2.49785 15.9981C2.52345 16.0049 2.5506 16.0037 2.57547 15.9947L3.36841 15.6969C3.38406 15.6911 3.39835 15.6823 3.41042 15.671C3.42249 15.6597 3.4321 15.6462 3.43866 15.6312C3.44523 15.6162 3.44862 15.6001 3.44864 15.5838C3.44866 15.5676 3.44531 15.5514 3.43877 15.5364L3.1693 14.9158C3.23739 14.8408 3.28539 14.7507 3.30903 14.6535L4.08151 14.8547C4.08151 14.8547 6.13397 14.9071 6.28218 14.9124C6.51585 15.0673 6.72802 15.2508 6.91343 15.4584C6.92858 15.4738 6.94678 15.486 6.96694 15.4943C6.9871 15.5027 7.00879 15.5069 7.0307 15.5069C7.04962 15.507 7.06841 15.5037 7.08609 15.4972C7.11566 15.4865 7.14135 15.4676 7.15997 15.4429C7.1786 15.4181 7.18935 15.3886 7.19089 15.358C7.19089 15.3357 7.27472 13.1372 5.40041 12.4215C5.11346 12.3109 4.81684 12.2257 4.51416 12.1669L8.27276 8.07589L10.4245 8.33967C10.7997 8.38517 11.1796 8.30678 11.5034 8.1171C11.5407 8.13354 11.5804 8.14402 11.6212 8.14814C11.687 8.14821 11.7516 8.13145 11.8087 8.09953C11.8657 8.06761 11.9131 8.02166 11.946 7.9663L12.7749 6.56641C12.7963 6.52823 12.8106 6.48671 12.8173 6.44374C12.9136 6.44374 12.987 6.41998 13.0144 6.36567C13.0698 6.25705 12.9221 6.07473 12.6841 5.96272C12.446 5.85071 12.2095 5.84392 12.1541 5.95254C12.145 5.98257 12.144 6.01437 12.1513 6.04486C12.1586 6.07536 12.1738 6.10352 12.1955 6.12662C12.1689 6.14859 12.1457 6.17424 12.1267 6.20275L11.2978 7.60118C11.262 7.66479 11.2471 7.7376 11.2554 7.80968C11.0173 7.93742 10.7437 7.98835 10.4739 7.95515L8.59562 7.72482L11.0717 5.02931L11.4275 5.30763C11.4372 5.31533 11.4474 5.32246 11.458 5.32897C11.6232 5.42726 11.8132 5.47944 12.0069 5.47977C12.1552 5.4785 12.3015 5.44623 12.4358 5.38515C12.5701 5.32407 12.6894 5.23562 12.7854 5.1258C13.0798 4.8111 13.6721 4.1371 13.8782 3.90193L14.5374 3.70797C14.6118 3.68612 14.6773 3.64241 14.7251 3.58287L15.8573 2.16359C16.0185 1.95363 16.1682 1.41637 15.5649 0.856806ZM3.35793 14.3213L3.17429 14.2049C3.10651 14.1436 3.02813 14.0943 2.94275 14.0595L2.88886 14.0255L3.21122 13.6226L3.53159 14.0231C3.46799 14.1193 3.41002 14.2188 3.35793 14.3213ZM2.56899 12.6145C2.90297 12.4767 3.26205 12.4054 3.62491 12.405L3.068 13.0116C3.068 13.0116 3.06501 13.0169 3.06301 13.0194L3.05702 13.0247V13.0281C2.86696 13.0349 2.67774 13.0563 2.49114 13.0921C2.6608 13.0858 2.83097 13.0892 3.00014 13.0974L2.46968 13.7588L2.16578 13.5649C2.20977 13.2186 2.34906 12.8903 2.56899 12.6145ZM0.362829 14.7723L0.975622 14.619C0.948694 14.6903 0.940128 14.7669 0.950671 14.8421C0.959027 14.8862 0.973813 14.929 0.994585 14.9691L0.293465 15.006L0.362829 14.7723ZM1.51057 15.0297C1.35188 14.9749 1.25208 14.8901 1.23611 14.797C1.23305 14.7649 1.23659 14.7326 1.24653 14.7019C1.25646 14.6711 1.2726 14.6426 1.294 14.6181C1.49604 14.4073 1.7697 14.2747 2.06448 14.2447C2.06947 14.2447 2.07496 14.2447 2.07995 14.2447L1.92026 14.4449C1.89855 14.4699 1.88225 14.4989 1.87234 14.5301C1.86244 14.5613 1.85914 14.5942 1.86264 14.6267C1.86614 14.6592 1.87636 14.6907 1.8927 14.7193C1.90904 14.7478 1.93115 14.7729 1.95772 14.7929C1.98428 14.813 2.01473 14.8276 2.04726 14.8359C2.07979 14.8443 2.11371 14.8461 2.14699 14.8414C2.18026 14.8366 2.21221 14.8254 2.24091 14.8084C2.26961 14.7913 2.29447 14.7688 2.31399 14.7422L2.68875 14.2733L3.01311 14.4784C3.02024 14.4912 3.02561 14.5049 3.02908 14.5191C3.04455 14.6122 2.97918 14.7228 2.84345 14.8232C2.65297 14.9549 2.4327 15.0402 2.20121 15.0719C1.97162 15.1116 1.73561 15.0978 1.51257 15.0317L1.51057 15.0297ZM2.56899 15.7338L2.2551 15.3459C2.51025 15.3082 2.75382 15.2166 2.9687 15.0777L3.15683 15.5107L2.56899 15.7338ZM4.12792 14.5468L3.4752 14.3732C3.57571 14.1527 3.70142 13.9438 3.84996 13.7506L4.21425 13.3675C4.40201 13.4449 4.58069 13.5416 4.7472 13.656C4.86053 13.7384 4.96532 13.8313 5.06008 13.9334C4.95315 14.0021 4.85292 14.0801 4.76067 14.1666C4.64415 14.2815 4.54533 14.4122 4.46725 14.5545C4.29658 14.5468 4.17183 14.5468 4.1374 14.5468H4.12792ZM5.11248 13.9955C5.14875 14.0337 5.18289 14.0739 5.21478 14.1157C5.30789 14.2567 5.37447 14.4127 5.41139 14.5764C5.13443 14.5691 4.84351 14.5618 4.60697 14.5565C4.66916 14.4411 4.74558 14.3334 4.83453 14.236C4.91929 14.1471 5.01234 14.0661 5.11248 13.994V13.9955ZM6.31012 14.6016C6.24375 14.5982 5.861 14.588 5.43235 14.5768C5.41769 14.3459 5.3366 14.1237 5.19831 13.9353C5.23524 13.9106 5.27017 13.883 5.30809 13.8602C5.4852 13.7552 5.67279 13.668 5.86799 13.5998C6.0125 13.5523 6.1596 13.5127 6.30862 13.481C6.61789 13.9182 6.80513 14.426 6.85205 14.9546C6.60404 14.7238 6.4229 14.6054 6.31162 14.6001L6.31012 14.6016ZM6.29964 13.4674C6.15036 13.4932 6.0026 13.5267 5.85701 13.5678C5.655 13.6267 5.45958 13.7052 5.27366 13.802C5.23174 13.8248 5.19282 13.8505 5.1519 13.8762C5.0577 13.7557 4.94591 13.6492 4.82005 13.56C4.66176 13.4435 4.48971 13.3459 4.30756 13.2691L4.33052 13.2444L4.30856 13.2366C4.53213 13.0171 4.77306 12.8149 5.02914 12.6319C5.11348 12.6596 5.19332 12.6804 5.28115 12.7124C5.68836 12.8636 6.04238 13.1251 6.30114 13.466L6.29964 13.4674ZM5.01667 12.6276C4.74466 12.8021 4.48781 12.998 4.24868 13.2133L3.72271 13.0271L4.26016 12.4419C4.51774 12.4823 4.77132 12.5439 5.01816 12.6261L5.01667 12.6276ZM15.5604 1.93957L14.4281 3.35837L13.6636 3.58287C13.6636 3.58287 12.8597 4.50417 12.5074 4.87899C12.4466 4.95082 12.3705 5.00902 12.2844 5.04961C12.1982 5.0902 12.1041 5.11222 12.0084 5.11416C11.8875 5.11345 11.7689 5.08184 11.6646 5.02252L10.8676 4.40234L10.6586 4.25687L14.0329 0.366579C14.0549 0.366579 14.0763 0.36367 14.0978 0.36367C14.4711 0.36367 14.8154 0.663818 15.3064 1.11962C15.8254 1.60015 15.5604 1.93957 15.5604 1.93957Z" fill="#FF7D00"/>
<path d="M12.4994 2.65336C12.4746 2.64153 12.4464 2.63806 12.4193 2.6435C12.3922 2.64894 12.3677 2.66299 12.3497 2.68342L11.0892 4.1187C11.0778 4.13157 11.0693 4.14663 11.0643 4.1629C11.0593 4.17917 11.0579 4.19629 11.0601 4.21313C11.0624 4.22997 11.0683 4.24616 11.0774 4.26063C11.0866 4.27511 11.0987 4.28755 11.1132 4.29715L11.7205 4.70494C11.8052 4.75682 11.9033 4.78439 12.0034 4.78446C12.0956 4.78234 12.1858 4.7578 12.2658 4.71308C12.3457 4.66835 12.4128 4.60487 12.461 4.52844C12.7399 4.14586 13.5319 3.33657 13.5399 3.32833C13.5537 3.31458 13.564 3.29782 13.5699 3.27944C13.5757 3.26107 13.577 3.2416 13.5736 3.22265C13.5702 3.20369 13.5622 3.1858 13.5502 3.17045C13.5383 3.1551 13.5228 3.14274 13.5049 3.13437L12.4994 2.65336ZM12.2569 4.3883C12.2397 4.42247 12.2154 4.45281 12.1856 4.4774C12.1557 4.502 12.1209 4.52031 12.0834 4.5312C12.0459 4.54209 12.0065 4.54531 11.9676 4.54066C11.9288 4.53601 11.8914 4.5236 11.8577 4.50419L11.3662 4.17398L11.4979 4.02415L11.6526 4.04597L12.2075 3.5538L11.936 3.5252L12.4755 2.91278L13.242 3.28081C12.8945 3.63351 12.5657 4.00315 12.2569 4.3883Z" fill="#FF7D00"/>
</svg>
