<svg width="9" height="16" viewBox="0 0 9 16" fill="none" xmlns="http://www.w3.org/2000/svg">
<path d="M8.14524 12.735V10.2678C8.14524 10.2001 8.11715 10.1351 8.06715 10.0872C8.01716 10.0393 7.94935 10.0123 7.87864 10.0123H7.32677V7.36986C7.32689 7.32762 7.31608 7.28601 7.29531 7.24875L7.15881 7.00602C7.136 6.96541 7.10215 6.93147 7.06084 6.90781C7.01954 6.88415 6.97232 6.87164 6.9242 6.87162H5.56345C5.57838 6.78679 5.59278 6.70554 5.60664 6.6345C5.81993 5.53173 6.4907 3.21068 6.67306 2.58826L7.28838 2.23054C7.34592 2.19722 7.3882 2.14428 7.40675 2.08235L7.92609 0.324954C7.93868 0.282224 7.93944 0.237086 7.92829 0.19399C7.91713 0.150894 7.89445 0.111328 7.86248 0.0791923C7.83051 0.0470563 7.79035 0.0234596 7.74597 0.0107283C7.70158 -0.00200298 7.6545 -0.00342942 7.60937 0.00658961L6.60534 0.229905C6.57041 0.237709 6.53749 0.252185 6.50854 0.272469C6.47959 0.292752 6.4552 0.318425 6.43685 0.34795C6.39632 0.412339 5.45521 1.927 5.18914 2.437C5.07397 2.63975 4.97366 2.84995 4.88895 3.06606C4.87223 3.11448 4.87101 3.16659 4.88546 3.21567C4.8999 3.26476 4.92934 3.30858 4.96999 3.3415C5.00827 3.37146 5.05473 3.39027 5.10383 3.39567C4.43945 5.29155 4.02622 6.94112 3.99902 7.05712C3.25881 9.39902 2.67466 11.7836 2.25011 14.1966C2.24682 14.2233 2.24808 14.2504 2.25384 14.2768C2.39194 14.937 2.5631 15.6448 2.5631 15.6448C2.57685 15.7006 2.60978 15.7503 2.65659 15.786C2.70339 15.8217 2.76136 15.8412 2.82117 15.8415H4.78497C4.8267 15.8425 4.86805 15.8337 4.90548 15.816L5.7778 15.4041C5.95334 15.5929 6.16905 15.7434 6.41041 15.8455C6.65177 15.9476 6.91317 15.9989 7.17698 15.9961C7.44079 15.9932 7.70089 15.9361 7.93976 15.8287C8.17862 15.7214 8.39069 15.5662 8.56168 15.3736C8.73268 15.1811 8.85861 14.9556 8.93101 14.7125C9.0034 14.4693 9.02057 14.2141 8.98136 13.9641C8.94215 13.714 8.84746 13.475 8.70369 13.263C8.55992 13.0509 8.3704 12.8709 8.14791 12.735H8.14524ZM7.61203 10.5234V12.5163C7.52439 12.4956 7.43529 12.4811 7.34543 12.4729V10.5234H7.61203ZM5.34431 6.58851C5.32778 6.67283 5.31071 6.76941 5.29098 6.87264H4.59408C4.76044 6.24102 5.18061 4.73096 5.76714 3.11563L6.3382 2.78347C6.0908 3.63993 5.53573 5.59611 5.34431 6.58749V6.58851ZM3.4045 13.9262L2.89209 14.7142C2.85636 14.5538 2.81904 14.3851 2.78545 14.216C2.84356 13.7586 2.96034 13.1495 3.10537 12.4785C3.24815 12.4027 3.38581 12.3184 3.51754 12.2261C3.76443 12.0528 3.98049 11.8425 4.15739 11.6031C3.86893 11.7005 3.59883 11.842 3.35758 12.0222C3.29359 12.0702 3.23441 12.1244 3.17255 12.1755C3.20881 12.0166 3.24614 11.8551 3.28453 11.6921C3.4013 11.6256 3.51434 11.5551 3.62311 11.479C3.87 11.3057 4.08607 11.0953 4.26296 10.856C3.9745 10.9534 3.7044 11.0949 3.46315 11.2751C3.42956 11.3006 3.39917 11.3297 3.36611 11.3558C3.40503 11.1943 3.44449 11.0334 3.48501 10.8714C3.56553 10.8203 3.64497 10.7743 3.72496 10.7181C3.97211 10.5453 4.18822 10.335 4.3648 10.0956C4.08067 10.1903 3.81436 10.3283 3.57619 10.5044C3.89612 9.23968 4.2395 8.03316 4.45065 7.37753H5.21047C4.98226 8.85948 4.70126 11.1999 4.6602 11.5428L3.29786 12.9328L3.4045 13.9262ZM6.83728 0.703108L7.28944 0.600905L6.92153 1.84472L5.73621 2.5346C6.01508 2.03329 6.6432 1.01585 6.83728 0.703108ZM3.03392 15.3305C3.01686 15.2595 2.99606 15.1695 2.97367 15.0709L3.6791 13.987L3.57512 13.0274L4.91507 11.6609L4.91987 11.619C4.92361 11.5873 5.23446 8.96577 5.47974 7.38264H6.76637L6.79516 7.43374L6.7909 11.7774C6.42326 11.7891 6.06546 11.8942 5.7542 12.0821C5.44294 12.2699 5.1894 12.5337 5.01958 12.8464C4.80307 13.6484 4.72206 14.4784 4.77964 15.305L4.72312 15.3305H3.03392ZM5.04411 15.1772C4.99558 14.4291 5.06879 13.6783 5.26112 12.9517C5.40892 12.6824 5.62822 12.4552 5.89691 12.2931C6.16559 12.131 6.47414 12.0396 6.79143 12.0283V12.4846C6.37112 12.5637 5.99248 12.7802 5.72019 13.0971C5.44789 13.414 5.29883 13.8116 5.29845 14.2221C5.29946 14.4813 5.36047 14.7369 5.47707 14.9708L5.04411 15.1772ZM7.14974 15.5523C6.87555 15.5523 6.60752 15.4744 6.37954 15.3284C6.15155 15.1824 5.97386 14.9749 5.86893 14.7321C5.76401 14.4893 5.73655 14.2222 5.79004 13.9644C5.84354 13.7067 5.97557 13.47 6.16945 13.2841C6.36334 13.0983 6.61036 12.9718 6.87928 12.9205C7.14821 12.8693 7.42695 12.8956 7.68027 12.9961C7.93359 13.0967 8.15011 13.267 8.30244 13.4855C8.45477 13.704 8.53608 13.9609 8.53608 14.2236C8.53643 14.3983 8.50083 14.5714 8.43132 14.7329C8.36181 14.8944 8.25974 15.0411 8.13098 15.1648C8.00221 15.2884 7.84926 15.3865 7.68089 15.4535C7.51252 15.5204 7.33203 15.5548 7.14974 15.5548V15.5523Z" fill="#FF7D00"/>
<path d="M7.14979 13.7279C7.04697 13.7279 6.94646 13.7571 6.86096 13.8119C6.77547 13.8666 6.70884 13.9444 6.66949 14.0355C6.63014 14.1265 6.61984 14.2267 6.6399 14.3234C6.65996 14.42 6.70948 14.5088 6.78218 14.5785C6.85489 14.6481 6.94752 14.6956 7.04837 14.7148C7.14921 14.734 7.25374 14.7242 7.34874 14.6865C7.44373 14.6488 7.52493 14.5849 7.58205 14.503C7.63918 14.421 7.66967 14.3247 7.66967 14.2262C7.66974 14.1607 7.65634 14.0959 7.63024 14.0354C7.60414 13.9749 7.56584 13.92 7.51756 13.8737C7.46927 13.8274 7.41193 13.7907 7.34882 13.7657C7.28572 13.7407 7.21808 13.7278 7.14979 13.7279Z" fill="#FF7D00"/>
<path d="M6.43526 13.3069L6.19019 13.5418L6.42018 13.7622L6.66525 13.5274L6.43526 13.3069Z" fill="#FF7D00"/>
<path d="M6.42016 14.6898L6.19019 14.9102L6.43527 15.1451L6.66525 14.9246L6.42016 14.6898Z" fill="#FF7D00"/>
<path d="M7.8788 14.6897L7.63373 14.9246L7.86372 15.145L8.10879 14.9102L7.8788 14.6897Z" fill="#FF7D00"/>
<path d="M7.86366 13.3069L7.63367 13.5273L7.87874 13.7622L8.10873 13.5417L7.86366 13.3069Z" fill="#FF7D00"/>
<path d="M7.32254 13.0917H6.97595V13.4039H7.32254V13.0917Z" fill="#FF7D00"/>
<path d="M6.29129 14.0601H5.96603V14.3923H6.29129V14.0601Z" fill="#FF7D00"/>
<path d="M7.32254 15.0479H6.97595V15.3601H7.32254V15.0479Z" fill="#FF7D00"/>
<path d="M8.33243 14.0601H8.00717V14.3923H8.33243V14.0601Z" fill="#FF7D00"/>
<path d="M2.38397 5.40589L2.69749 5.21374C3.17732 4.92908 3.6319 4.60707 4.05664 4.25098C4.09405 4.21732 4.12052 4.17402 4.13289 4.12629L4.56852 2.45986C4.58211 2.40855 4.57874 2.35447 4.55887 2.30508C4.539 2.25569 4.50362 2.21343 4.45761 2.18414C4.41159 2.15486 4.35723 2.13999 4.30202 2.1416C4.24681 2.1432 4.19349 2.1612 4.14942 2.19311L2.24427 3.56264C2.18967 3.60186 2.15284 3.65966 2.14136 3.72412L0.289531 14.1678L0.103442 14.1397L0 15.6932L0.540672 15.7755L0.9843 14.2726L0.816873 14.2475L2.38397 5.40589ZM2.60152 4.17944C2.82362 3.97891 3.08153 3.81828 3.36294 3.70521C3.3752 3.56622 3.31335 3.51103 3.22217 3.49723L3.86842 3.03271L3.63594 3.92546C3.27823 4.2156 2.90078 4.4826 2.50607 4.7247L2.60152 4.17944Z" fill="#FF7D00"/>
</svg>
