<svg width="16" height="13" viewBox="0 0 16 13" fill="none" xmlns="http://www.w3.org/2000/svg">
<path fill-rule="evenodd" clip-rule="evenodd" d="M5.5 11.8912V11.4224C5.5 11.3336 5.55333 11.253 5.638 11.213L6.5 10.8092V10.7192H5.25C5.15467 10.7192 5.06867 10.6692 5.026 10.5899L4.862 10.2836L1.26533 9.77608L1.12467 9.76295C0.732667 9.6917 0.5 9.38606 0.5 9.07855V4.39085C0.5 4.02271 0.726 3.74958 1.22733 3.68957L7.5 3.23706V2.71453L4.70867 2.27827C4.67933 2.27389 4.652 2.26451 4.626 2.25139L3.66867 1.74199C3.616 1.71387 3.576 1.66824 3.556 1.61449C3.49267 1.44198 3.47333 1.26072 3.50267 1.07509C3.52067 0.96071 3.626 0.875082 3.75 0.875082H8.25L8.286 0.878208C8.858 0.956961 9.23067 1.28072 9.42133 1.77199L9.486 1.97388L9.98667 3.37956L9.988 3.40019C9.99267 3.39081 10 3.42144 10 3.45331V4.15647H10.5V3.45331C10.5 3.32456 10.612 3.21893 10.75 3.21893H12.25C12.3873 3.21893 12.5 3.32456 12.5 3.45331V4.15647H13.25C13.316 4.15647 13.3793 4.18147 13.4267 4.22522L14.4267 5.16276C14.4733 5.20714 14.5 5.26651 14.5 5.32839V6.03155H15.25C15.3873 6.03155 15.5 6.13718 15.5 6.26593V7.67224C15.5 7.80162 15.3873 7.90662 15.25 7.90662H14.5V9.54732C14.5 9.60982 14.4733 9.6692 14.4267 9.71357L13.4267 10.6511C13.3793 10.6949 13.316 10.7192 13.25 10.7192H11.5V10.8092L12.3613 11.213C12.446 11.253 12.5 11.3336 12.5 11.4224V11.8912C12.5 12.0205 12.3873 12.1255 12.25 12.1255H5.75C5.612 12.1255 5.5 12.0205 5.5 11.8912ZM12 11.6568V11.5674L11.138 11.1636C11.0533 11.1236 11 11.043 11 10.9536V10.7192H7V10.9536C7 11.043 6.946 11.1236 6.86133 11.1636L6 11.5674V11.6568H12ZM6.43733 9.95733L6.43667 9.95233L6.08467 6.42656L6.06267 6.34093C5.996 6.14718 5.83 6.03155 5.632 6.03155H2.476C2.13667 6.03155 2 6.21843 2 6.55532V7.78037C2 8.23164 2.22467 8.37539 2.49533 8.37539H4.25C4.34467 8.37539 4.43067 8.42602 4.47333 8.5054L5.404 10.2505H6.178C6.43133 10.2505 6.464 10.1211 6.43733 9.95733ZM7.5 10.2505V5.09401H3.25C3.112 5.09401 3 4.989 3 4.85962C3 4.73087 3.112 4.62524 3.25 4.62524H7.5V3.70707L1.27867 4.15522L1.13133 4.18772C1.01667 4.23022 1 4.30085 1 4.39085V9.07855C1 9.17543 1.08533 9.30981 1.30267 9.30981L1.33933 9.31293L4.58933 9.7717L4.09533 8.84416H2.49533C1.91533 8.84416 1.5 8.4604 1.5 7.78037V6.55532C1.5 6.0103 1.81667 5.56278 2.476 5.56278H5.632C6.13933 5.56278 6.502 5.91404 6.58067 6.36531L6.93333 9.90608L6.94333 10.0461C6.94133 10.1167 6.93067 10.1855 6.91 10.2505H7.5ZM9.5 10.2505V3.6877H8V10.2505H9.5ZM13.146 10.2505L14 9.45044V5.4259L13.146 4.62524H10V6.03155H12.75C12.8873 6.03155 13 6.13718 13 6.26593C13 6.39531 12.8873 6.50032 12.75 6.50032H10V8.37539H12.75C12.8873 8.37539 13 8.48102 13 8.60978C13 8.73916 12.8873 8.84416 12.75 8.84416H10V10.2505H13.146ZM3 7.20347C3 7.07471 3.112 6.96909 3.25 6.96909H4.25C4.38733 6.96909 4.5 7.07471 4.5 7.20347C4.5 7.33285 4.38733 7.43785 4.25 7.43785H3.25C3.112 7.43785 3 7.33285 3 7.20347ZM15 7.43785V6.50032H14.5V7.43785H15ZM12 4.15647V3.6877H11V4.15647H12ZM9.40267 3.21893L9.01267 2.12138L9.00667 2.10263C8.9 1.69449 8.68867 1.46198 8.36067 1.37198L8.22533 1.34385H4.00067L4.01 1.38448L4.83467 1.82325L7.79067 2.28514C7.91133 2.30389 8 2.4014 8 2.51578V3.21893H9.40267Z" fill="#FF7D00"/>
</svg>
