<svg xmlns="http://www.w3.org/2000/svg" viewBox="0 0 20.34 24.02"><defs><style>.cls-1{fill:#323232;}.cls-2{fill:#e9eaed;}</style></defs><title>Ресурс 6</title><g id="Слой_2" data-name="Слой 2"><g id="Layer_10_copy" data-name="Layer 10 copy"><path class="cls-1" d="M15.28,16.07a6.94,6.94,0,0,1-1.36,5.12,7.23,7.23,0,0,1-4.69,2.74,8.26,8.26,0,0,1-5.3-1A7.85,7.85,0,0,1,.49,18.89,9.06,9.06,0,0,1,.3,13.61a22.87,22.87,0,0,1,1.81-4.9A48.83,48.83,0,0,1,7.72,0l.09.07A48.89,48.89,0,0,0,2.49,8.89,22.22,22.22,0,0,0,.87,13.73a8.36,8.36,0,0,0,.27,4.91,7.1,7.1,0,0,0,3.19,3.6A6.73,6.73,0,0,0,9,22.92a8.24,8.24,0,0,0,4.05-2.42,8.69,8.69,0,0,0,2.07-4.43Z"/><path class="cls-1" d="M7.8,0c1,1.11,2,2.26,2.85,3.47a12.46,12.46,0,0,1,1.27,1.86,8.28,8.28,0,0,1,.77,2.14l-.08,0A12.15,12.15,0,0,1,11.2,5.77c-.44-.6-.73-1.28-1.11-1.92C9.33,2.57,8.54,1.32,7.73.06Z"/><path class="cls-2" d="M14.5,1.43C15,2.16,19.76,8,19.76,12.75a5.26,5.26,0,1,1-10.52,0C9.24,8,14.5,1.43,14.5,1.43"/><path class="cls-1" d="M14.55,1.39a30,30,0,0,1,3.22,4.18A18.15,18.15,0,0,1,20,10.44a8.46,8.46,0,0,1,.32,2.77,5.55,5.55,0,0,1-.94,2.72,5.8,5.8,0,0,1-2.12,1.91,5.78,5.78,0,0,1-5.48-.08,6,6,0,0,1-2-1.93,5.63,5.63,0,0,1-.84-2.63,8.05,8.05,0,0,1,.33-2.69A20.7,20.7,0,0,1,11.45,5.7a35.75,35.75,0,0,1,3-4.31l.08.07a38.93,38.93,0,0,0-2.8,4.4,20,20,0,0,0-1.93,4.79,7.89,7.89,0,0,0-.23,2.5A4.91,4.91,0,0,0,12.19,17a5.06,5.06,0,0,0,2.31.54,5,5,0,0,0,2.27-.64,5,5,0,0,0,1.66-1.62,5.86,5.86,0,0,0,.49-4.61A20.16,20.16,0,0,0,17.1,6c-.79-1.54-1.71-3-2.65-4.5Z"/><path class="cls-1" d="M12,7.5a22,22,0,0,0-.88,3.58,5.54,5.54,0,0,0,.31,3.42c.62.9,1.26.06,1-.38s-.56-.31-.74-1.6A24.66,24.66,0,0,1,12,7.5Z"/><path class="cls-1" d="M4.24,8.64A31.19,31.19,0,0,0,3,13.7c-.22,2-.26,3.82.45,4.84.87,1.27,1.78.09,1.46-.53s-.79-.44-1-2.27A34.59,34.59,0,0,1,4.24,8.64Z"/></g></g></svg>