<svg xmlns="http://www.w3.org/2000/svg" viewBox="0 0 19.93 21.62"><defs><style>.cls-1{fill:#323232;}</style></defs><g id="Слой_2" data-name="Слой 2"><g id="Слой_1-2" data-name="Слой 1"><path class="cls-1" d="M15,21.62a7.34,7.34,0,0,1-3.27-.7A29.31,29.31,0,0,1,9,19.45c-3.9-2.39-6.38-6.51-7.51-8.76l-.06-.11A10.09,10.09,0,0,1,.06,4.82,6.12,6.12,0,0,1,2.48.66L2.59.58A2.4,2.4,0,0,1,4.45,0l1,.16H5.5C6,.26,6.58.49,6.87,1.62c.09.34.22.86.35,1.4.25,1,.58,2.28.63,2.44A1.47,1.47,0,0,1,7.7,6.85,11.32,11.32,0,0,1,6.14,8.46l-.09.08-.16.15a.85.85,0,0,1,0,.09,14.49,14.49,0,0,0,2.16,3.65,12.14,12.14,0,0,0,3.17,2.7l.33.21a.68.68,0,0,0,.27.14.38.38,0,0,0,.1-.07c.34-.3,1.41-1.25,1.78-1.66a1.35,1.35,0,0,1,1.86-.21c.53.28,3.18,2.11,3.2,2.12l.25.17a2,2,0,0,1,.82.8,4.3,4.3,0,0,1-.64,2.81c-.74,1.4-3.15,2.18-4.19,2.18ZM4.15,1.18a1.29,1.29,0,0,0-.81.31l-.12.1a4.92,4.92,0,0,0-2,3.4,9.13,9.13,0,0,0,1.21,5s.05.09.08.16C3.6,12.3,6,16.21,9.6,18.45a27.85,27.85,0,0,0,2.61,1.41,6.14,6.14,0,0,0,2.82.58,4.55,4.55,0,0,0,3.14-1.55,5,5,0,0,0,.59-1.81c-.08-.07-.25-.18-.38-.27l-.26-.18c-.65-.45-2.72-1.85-3.08-2a1.2,1.2,0,0,0-.32-.14l-.11.1c-.44.5-1.61,1.52-1.89,1.77a1.35,1.35,0,0,1-1.81,0l-.28-.17a13.36,13.36,0,0,1-3.45-3,15.22,15.22,0,0,1-2.35-4,1.27,1.27,0,0,1,.43-1.56l.07-.07A11.8,11.8,0,0,0,6.72,6.18c0-.07.08-.14,0-.35s-.3-1.12-.65-2.52l-.36-1.4c-.13-.51-.22-.53-.38-.55l-.14,0c-.3-.06-.65-.11-.92-.15Z"/></g></g></svg>