<svg width="17" height="17" viewBox="0 0 17 17" fill="none" xmlns="http://www.w3.org/2000/svg">
<path d="M16.2034 12.1053L13.1679 10.0816C12.4609 9.61036 11.5117 9.70428 10.9109 10.3051L10.1123 11.1038C9.64346 11.0358 8.52926 10.7569 7.38616 9.61389C6.24307 8.4708 5.96423 7.35665 5.89626 6.88781L6.69493 6.08914C7.29573 5.4883 7.3897 4.5391 6.9184 3.83213L4.89471 0.79664C4.59627 0.348991 4.11806 0.061846 3.58268 0.00882123C3.0471 -0.0442035 2.52202 0.143609 2.14167 0.524004L0.876462 1.78917C0.273593 2.39207 -0.0440399 3.21539 0.00493059 4.04804C0.100328 5.66983 0.802768 8.93284 4.43497 12.565C8.06718 16.1972 11.3302 16.8997 12.952 16.9951C13.7836 17.044 14.6073 16.7271 15.2109 16.1235L16.476 14.8583C16.8564 14.4779 17.0442 13.9527 16.9912 13.4173C16.9382 12.882 16.651 12.4037 16.2034 12.1053ZM15.6328 14.0152L14.3677 15.2803C14.0054 15.6425 13.5151 15.8335 13.022 15.8047C11.5693 15.7192 8.63145 15.0751 5.27816 11.7218C1.92488 8.36857 1.28083 5.43074 1.19533 3.97801C1.16635 3.48508 1.35746 2.99458 1.71965 2.63235L2.98482 1.36723C3.25169 1.1004 3.69445 1.14599 3.9025 1.4581L5.92619 4.49359C6.08332 4.72926 6.05199 5.04566 5.8517 5.24595L4.85655 6.24106C4.74474 6.35287 4.68189 6.50451 4.68189 6.66267C4.68189 6.74161 4.70304 8.6172 6.54293 10.457C8.38278 12.2969 10.2584 12.3181 10.3373 12.3181C10.4955 12.3181 10.6471 12.2552 10.7589 12.1434L11.754 11.1483C11.9543 10.948 12.2707 10.9167 12.5064 11.0738L15.5419 13.0974C15.8553 13.3064 15.8986 13.7494 15.6328 14.0152Z" fill="white"/>
</svg>
