<svg width="12" height="13" viewBox="0 0 12 13" fill="none" xmlns="http://www.w3.org/2000/svg">
<path d="M10.3 9.104C10.1 8.904 8.80003 8.10403 8.60003 8.00403C8.40003 7.90403 8.20003 7.80403 8.00003 8.00403C7.80003 8.20403 7.20003 8.80405 7.00003 8.90405C6.80003 9.10405 6.70003 9.10405 6.40003 8.90405C6.20003 8.70405 5.30003 8.30396 4.50003 7.30396C3.80003 6.50396 3.40003 5.50396 3.30003 5.30396C3.20003 5.00396 3.40003 4.90396 3.50003 4.80396C3.80003 4.50396 4.20003 4.20403 4.30003 4.00403C4.40003 3.80403 4.40003 3.70403 4.30003 3.50403C4.30003 3.40403 3.90003 2.00405 3.80003 1.40405C3.70003 0.904053 3.40003 0.904053 3.30003 0.904053C3.10003 0.904053 3.00003 0.803955 2.80003 0.803955C2.60003 0.803955 2.30003 0.804028 2.00003 1.00403C1.70003 1.20403 0.900029 1.804 0.800029 3.104C0.600029 4.404 1.40003 5.80403 1.50003 6.00403C1.60003 6.20403 3.00003 9.104 5.40003 10.604C6.00003 11.004 6.50003 11.2041 6.80003 11.4041C7.40003 11.7041 8.00003 11.704 8.50003 11.704C9.00003 11.704 10.2 11.304 10.5 10.704C10.8 10.104 10.9 9.60403 10.8 9.50403C10.7 9.40403 10.6 9.304 10.3 9.104Z" stroke="#333333" stroke-miterlimit="10"/>
</svg>
