<svg xmlns="http://www.w3.org/2000/svg" viewBox="0 0 25.71 25.71"><defs><style>.cls-1,.cls-2{fill:none;stroke-miterlimit:10;}.cls-1{stroke:#939598;stroke-width:0.3px;}.cls-2{stroke:#333;stroke-width:0.59px;}</style></defs><g id="Слой_2" data-name="Слой 2"><g id="Слой_1-2" data-name="Слой 1"><rect class="cls-1" x="0.15" y="0.15" width="25.42" height="25.42" rx="4.26"/><path class="cls-2" d="M18,15.55c-.25-.17-1.45-1-1.68-1.12s-.4-.19-.61.05-.81.76-1,.91-.33.16-.58,0a7.42,7.42,0,0,1-1.93-1.61,8.11,8.11,0,0,1-1.2-2c-.12-.28,0-.39.19-.52A6.2,6.2,0,0,0,12,10.4a.48.48,0,0,0,0-.46c0-.14-.38-1.51-.53-2.07s-.37-.51-.53-.54l-.5-.08a1,1,0,0,0-.75.23A3,3,0,0,0,8.45,9.54a5.17,5.17,0,0,0,.69,2.88A11.85,11.85,0,0,0,13.07,17a12.9,12.9,0,0,0,1.42.77,3.57,3.57,0,0,0,1.64.35,2.79,2.79,0,0,0,2-1,2.23,2.23,0,0,0,.34-1.23C18.38,15.81,18.21,15.72,18,15.55Z"/></g></g></svg>