<svg xmlns="http://www.w3.org/2000/svg" viewBox="0 0 22.88 22.88"><defs><style>.cls-1{fill:#323232;stroke:#fff;stroke-width:0.16px;}.cls-2{fill:none;stroke:#939598;stroke-miterlimit:10;stroke-width:0.29px;}</style></defs><g id="Слой_2" data-name="Слой 2"><g id="Слой_1-2" data-name="Слой 1"><path class="cls-1" d="M18.39,12l-.36.22-1.9-3.3a.44.44,0,0,0-.58-.16l-1.1.64L13,6.81a.42.42,0,0,0-.58-.16L8.73,8.77a.41.41,0,0,0-.15.57l1.69,2.93,1.17,2a1.65,1.65,0,0,0-.85.23L6.86,8.06a.43.43,0,0,0-.26-.2L4.29,7.24a.42.42,0,0,0-.52.3.43.43,0,0,0,.3.52l2.14.57L10,15.15a1.65,1.65,0,0,0,0,1.69A1.69,1.69,0,0,0,13.13,16l5.69-3.28a.42.42,0,0,0,.15-.58A.43.43,0,0,0,18.39,12Zm-6.53,4.75A.84.84,0,0,1,11,15.26a.84.84,0,1,1,.84,1.46ZM9.52,9.29l2.93-1.7,1.27,2.2-2.93,1.69Zm7.78,3.32-4.39,2.54-1.7-2.93L15.6,9.68l1.7,2.93Z"/><rect class="cls-2" x="0.15" y="0.15" width="22.58" height="22.58" rx="4"/></g></g></svg>