<svg width="28" height="27" viewBox="0 0 28 27" fill="none" xmlns="http://www.w3.org/2000/svg">
<path d="M22.4 26.2039H5.2C2.9 26.2039 1 24.3038 1 22.0038V4.80383C1 2.50383 2.9 0.60376 5.2 0.60376H22.4C24.7 0.60376 26.6 2.50383 26.6 4.80383V22.0038C26.6 24.3038 24.7 26.2039 22.4 26.2039Z" stroke="#939598" stroke-miterlimit="10"/>
<path d="M18 12.2039C18 16.1039 14 19.2039 14 19.2039C14 19.2039 10 15.9039 10 12.2039C10 10.0039 11.8 8.20386 14 8.20386C16.2 8.20386 18 10.0039 18 12.2039Z" stroke="#333333" stroke-miterlimit="10"/>
<path d="M15.4 12.2039C15.4 13.0039 14.8 13.6038 14 13.6038C13.2 13.6038 12.6 13.0039 12.6 12.2039C12.6 11.4039 13.2 10.8039 14 10.8039C14.8 10.7039 15.4 11.4039 15.4 12.2039Z" fill="#323232"/>
</svg>
