<svg xmlns="http://www.w3.org/2000/svg" viewBox="0 0 13.48 13.48"><defs><style>.cls-1{fill:#323232;stroke:#333;stroke-miterlimit:10;stroke-width:0.3px;}</style></defs><g id="Слой_2" data-name="Слой 2"><g id="Слой_1-2" data-name="Слой 1"><path class="cls-1" d="M.15,6.5c0-.1,0-.2,0-.3,0-.28.09-.56.12-.84,0,0,0-.05.07-.06l1.16-.11.32,0a.08.08,0,0,0,.08-.07l.25-.6a.08.08,0,0,0,0-.1L1.24,3.27a.28.28,0,0,1-.06-.08c.14-.19.27-.39.42-.57A6.5,6.5,0,0,1,3.15,1.21s.06,0,.1,0l1.14.93a.08.08,0,0,0,.11,0l.59-.25s.07,0,.07-.09c0-.34.07-.68.1-1,0-.15,0-.3,0-.45s0-.06.06-.07A6.48,6.48,0,0,1,7.22.17c.3,0,.59.08.89.12.05,0,.06,0,.07.08,0,.49.09,1,.14,1.45a.1.1,0,0,0,.08.11L9,2.17c.06,0,.09,0,.13,0l1.13-.93,0,0a6.71,6.71,0,0,1,2,2l-.49.6-.49.59a.08.08,0,0,0,0,.1c.09.2.17.4.25.61,0,0,0,.06.08.06l1.46.14c.06,0,.08,0,.09.09a6.19,6.19,0,0,1,.1,2c0,.24-.07.47-.1.7,0,.06,0,.07-.09.08l-1.47.14a.07.07,0,0,0-.07.06l-.25.6s0,.08,0,.11l.94,1.13,0,.06a6.71,6.71,0,0,1-2,2l-.53-.44-.66-.54a.1.1,0,0,0-.1,0l-.61.26a.07.07,0,0,0-.06.08c-.05.48-.1,1-.14,1.45,0,.06,0,.08-.09.1A7.63,7.63,0,0,1,7,13.32H6.47a7,7,0,0,1-1.11-.14.07.07,0,0,1-.06-.06c0-.2,0-.39,0-.59l-.09-.9s0-.06-.06-.08l-.61-.25a.08.08,0,0,0-.1,0l-.88.73-.31.25a6.71,6.71,0,0,1-2-2c.33-.4.65-.8,1-1.19a.08.08,0,0,0,0-.1l-.24-.58a.12.12,0,0,0-.12-.1L.36,8.18S.3,8.16.3,8.12c0-.28-.09-.56-.13-.84,0-.1,0-.2,0-.3Zm5.56,6.31.44,0a6.19,6.19,0,0,0,1.49,0c.13,0,.13,0,.14-.16s0-.05,0-.08l.12-1.28s0-.06.06-.07A5.28,5.28,0,0,0,9,10.79a.09.09,0,0,1,.11,0l1.1.91a.07.07,0,0,0,.11,0,6.26,6.26,0,0,0,1.36-1.36s0-.07,0-.11l-.9-1.1s0-.07,0-.11a4.83,4.83,0,0,0,.4-1,.21.21,0,0,1,.21-.17l1.32-.12a.09.09,0,0,0,.09-.09,6.12,6.12,0,0,0,0-1.91s0-.07-.07-.08l-1.43-.13a.09.09,0,0,1-.08-.07,5.78,5.78,0,0,0-.44-1.06s0-.07,0-.11c.3-.37.6-.74.91-1.1a.08.08,0,0,0,0-.11,6.45,6.45,0,0,0-1.35-1.36s-.08,0-.12,0l-1.1.9s-.07,0-.11,0a5.53,5.53,0,0,0-1-.41c-.11,0-.16-.07-.17-.19,0-.45-.08-.89-.12-1.33,0-.06,0-.09-.09-.1a6.46,6.46,0,0,0-1.81,0c-.16,0-.16,0-.18.18,0,.45-.09.89-.13,1.33a.08.08,0,0,1-.07.09,5.78,5.78,0,0,0-1.06.44.09.09,0,0,1-.11,0l-1.1-.91s-.06,0-.11,0A6.05,6.05,0,0,0,1.76,3.12s0,.07,0,.1l.92,1.11a.09.09,0,0,1,0,.11A5.16,5.16,0,0,0,2.25,5.5s0,.06-.08.06L.73,5.7a.05.05,0,0,0-.06.06c0,.21-.06.41-.07.61A5.91,5.91,0,0,0,.66,7.7s0,.07.07.07l1.44.14A.07.07,0,0,1,2.24,8,5.91,5.91,0,0,0,2.69,9a.08.08,0,0,1,0,.1l-.91,1.1s0,.07,0,.12a6.05,6.05,0,0,0,1.36,1.36s.06,0,.1,0l1.11-.91s0,0,.08,0a5.57,5.57,0,0,0,1.1.46.15.15,0,0,1,.05.06l.09,1C5.68,12.47,5.7,12.63,5.71,12.81Z"/><path class="cls-1" d="M6.74,10A3.26,3.26,0,1,1,10,6.74,3.26,3.26,0,0,1,6.74,10Zm0-.44A2.83,2.83,0,1,0,3.92,6.73,2.83,2.83,0,0,0,6.74,9.56Z"/></g></g></svg>