<svg width="17" height="15" viewBox="0 0 17 15" fill="none" xmlns="http://www.w3.org/2000/svg">
<path d="M10.1448 11.2252C9.98844 11.2565 9.84349 11.33 9.72541 11.4377C9.60733 11.5454 9.52054 11.6833 9.47431 11.8367C9.42807 11.9901 9.42412 12.1533 9.46288 12.3087C9.50164 12.4642 9.58166 12.6062 9.69439 12.7196C9.80712 12.8329 9.94834 12.9134 10.103 12.9523C10.2576 12.9913 10.4199 12.9873 10.5725 12.9409C10.725 12.8944 10.8622 12.8071 10.9693 12.6884C11.0764 12.5697 11.1495 12.4239 11.1807 12.2667C11.2086 12.1239 11.2011 11.9764 11.159 11.8371C11.1168 11.6979 11.0412 11.5712 10.9388 11.4683C10.8365 11.3654 10.7105 11.2894 10.572 11.247C10.4335 11.2046 10.2868 11.1971 10.1448 11.2252Z" fill="#FF7D00"/>
<path d="M10.3627 6.54486C10.2897 6.54486 10.2184 6.56661 10.1578 6.60735C10.0971 6.64809 10.0499 6.706 10.022 6.77376C9.99406 6.84151 9.98675 6.91606 10.001 6.98799C10.0152 7.05992 10.0503 7.12598 10.1019 7.17784C10.1535 7.2297 10.2192 7.26501 10.2907 7.27932C10.3623 7.29363 10.4364 7.28628 10.5038 7.25822C10.5712 7.23015 10.6288 7.18263 10.6693 7.12165C10.7098 7.06068 10.7314 6.98899 10.7314 6.91565C10.7313 6.81736 10.6924 6.72313 10.6233 6.65363C10.5541 6.58412 10.4604 6.54501 10.3627 6.54486Z" fill="#FF7D00"/>
<path d="M15.8349 1.7547L15.1523 1.70452H15.129L15.1062 1.71065L14.4047 1.89577C14.341 1.9125 14.2766 1.92867 14.2129 1.94595L14.2999 1.71567L17 0.843618L16.8303 0.313917L13.8763 1.26738L11.6692 7.08628V4.86711C11.6692 4.73402 11.6166 4.60638 11.523 4.51227C11.4294 4.41816 11.3025 4.36529 11.1701 4.36529H9.99338V4.09152H9.34235V4.36585H8.14787C8.0155 4.36585 7.88856 4.41872 7.79496 4.51283C7.70136 4.60694 7.64878 4.73458 7.64878 4.86767V7.78492L7.24729 4.02572C7.2078 3.86157 7.12213 3.71233 7.00052 3.59583L3.30395 0L2.6496 2.41097L4.33817 4.2705C4.36542 4.30034 4.38607 4.33564 4.39878 4.37408C4.41149 4.41252 4.41597 4.45323 4.41193 4.49353L4.0975 7.89477C3.71306 7.2282 3.15383 6.68068 2.48088 6.31203C1.80794 5.94338 1.04718 5.76778 0.281707 5.8044L0 5.80161L0.0465814 14.4196L3.75812 14.3855C4.15016 14.3439 4.51295 14.1577 4.77645 13.8629C5.03996 13.5681 5.18549 13.1856 5.18496 12.7892H7.54841C7.53433 12.847 7.53548 12.9076 7.55174 12.9648C7.57489 13.0376 7.62006 13.1014 7.68094 13.1472C7.66699 13.2217 7.67689 13.2988 7.70923 13.3674C7.74296 13.4358 7.79703 13.4919 7.86394 13.528C7.86168 13.6036 7.8828 13.678 7.92439 13.741C7.96797 13.8031 8.02955 13.8502 8.10073 13.8759C8.10965 13.951 8.14163 14.0213 8.19223 14.0772C8.24426 14.1324 8.31209 14.17 8.38632 14.1848C8.40608 14.2577 8.44795 14.3226 8.5061 14.3705C8.56594 14.4171 8.63846 14.4443 8.71405 14.4486C8.74399 14.5183 8.79502 14.5768 8.8599 14.6158C8.91486 14.6476 8.97729 14.664 9.04068 14.6632H9.07672C9.11721 14.7272 9.17652 14.7769 9.24641 14.8054L9.29521 14.8249L9.3734 14.8294C9.40557 14.8292 9.43761 14.8251 9.46878 14.8171C9.5185 14.8747 9.5851 14.9149 9.65899 14.932C9.69412 14.9398 9.73002 14.9438 9.76602 14.9437C9.8413 14.9419 9.91596 14.9295 9.98783 14.9069C10.0115 14.8999 10.0356 14.8943 10.0599 14.8902C10.0633 14.8902 10.0987 14.9091 10.1226 14.9208C10.2174 14.9791 10.3273 15.0077 10.4383 15.0029C10.5493 14.9981 10.6564 14.9602 10.7459 14.8941C10.7671 14.8807 10.7891 14.8687 10.8119 14.8584C10.8291 14.8584 10.8546 14.8662 10.8801 14.8706C10.9362 14.8818 10.9932 14.8881 11.0503 14.8896C11.103 14.89 11.1554 14.8821 11.2056 14.8662C11.3098 14.8272 11.4024 14.7621 11.4746 14.6772C11.4921 14.6587 11.5106 14.6412 11.53 14.6247L11.5982 14.6186C11.7085 14.6146 11.8161 14.5827 11.911 14.5261C12.0004 14.4603 12.0721 14.3731 12.1195 14.2724C12.1308 14.2495 12.1438 14.2275 12.1583 14.2066L12.2215 14.1826C12.329 14.1538 12.4256 14.0935 12.4988 14.0093C12.572 13.925 12.6185 13.8207 12.6324 13.7098C12.6374 13.6846 12.644 13.6598 12.6524 13.6356L12.7079 13.5955C12.804 13.539 12.8811 13.455 12.9293 13.3541C12.9775 13.2533 12.9947 13.1402 12.9785 13.0295C12.9765 13.0037 12.9765 12.9778 12.9785 12.952L13.0195 12.8996C13.0975 12.8197 13.1499 12.7181 13.1696 12.6079C13.1894 12.4977 13.1758 12.3841 13.1304 12.2818C13.1219 12.2572 13.1148 12.232 13.1093 12.2065C13.1093 12.2032 13.1254 12.1686 13.1349 12.1458C13.1826 12.0444 13.2043 11.9326 13.1981 11.8207C13.1828 11.7123 13.1411 11.6094 13.0766 11.5213L13.0594 11.4945C13.0989 11.41 13.1071 11.3141 13.0827 11.2241C13.0598 11.1512 13.0146 11.0874 12.9535 11.0417C12.9675 10.9672 12.9576 10.8901 12.9252 10.8215C12.8917 10.753 12.8375 10.6968 12.7705 10.6609C12.7729 10.5853 12.7517 10.5109 12.7101 10.4479C12.6665 10.3858 12.6049 10.3387 12.5337 10.313C12.5256 10.2374 12.4934 10.1665 12.442 10.1108C12.3905 10.0552 12.3225 10.0177 12.2481 10.0041C12.2286 9.93109 12.1867 9.86613 12.1284 9.81841C12.0686 9.77199 11.9963 9.74478 11.921 9.74035C11.8907 9.6708 11.8397 9.61238 11.7751 9.57308C11.7199 9.54136 11.6573 9.525 11.5938 9.52569H11.5577C11.5177 9.463 11.4597 9.414 11.3914 9.38518L14.0937 2.25987C14.1047 2.25987 14.1158 2.26377 14.1264 2.26377C14.2417 2.22586 14.3598 2.19909 14.4763 2.16675L15.155 1.98442L15.8144 2.03293C15.928 2.04568 16.0423 2.05089 16.1565 2.04855C16.2736 2.01398 16.39 1.98833 16.5076 1.94428C16.3967 1.8835 16.2858 1.84113 16.1748 1.78983C16.0624 1.7709 15.9488 1.75916 15.8349 1.7547ZM11.8067 11.7276C11.8611 11.9543 11.8637 12.1904 11.8143 12.4183C11.7648 12.6461 11.6647 12.8597 11.5213 13.0431C11.3779 13.2264 11.1951 13.3746 10.9866 13.4767C10.778 13.5788 10.5492 13.6319 10.3172 13.6323C10.1947 13.6319 10.0725 13.6181 9.9529 13.591C9.67886 13.5268 9.42817 13.3868 9.22922 13.1868C9.03026 12.9867 8.89099 12.7346 8.82718 12.4591C8.77277 12.2324 8.7702 11.9962 8.81966 11.7683C8.86913 11.5404 8.96934 11.3267 9.11277 11.1434C9.25619 10.9601 9.43909 10.8118 9.64771 10.7098C9.85633 10.6078 10.0852 10.5547 10.3172 10.5544C10.4396 10.5548 10.5616 10.5686 10.681 10.5957C10.9551 10.6597 11.2059 10.7997 11.4048 10.9998C11.6038 11.1998 11.743 11.452 11.8067 11.7276ZM8.2072 6.17798H11.1174V8.17021H8.2072V6.17798ZM11.1174 4.92343V5.6204H8.2072V4.92343H11.1174ZM7.13583 8.17021H4.62931L4.96203 4.5426C4.96203 4.52531 4.96203 4.50803 4.96203 4.49074L6.71715 4.26771L7.13583 8.17021ZM3.26514 2.26154L3.59231 1.05606L6.61789 3.99729L4.9282 4.21418C4.89216 4.09568 4.83063 3.98661 4.74798 3.89469L3.26514 2.26154ZM3.46865 13.8341L1.54384 13.8497V13.1176H3.46865V13.8341ZM3.74592 13.828V12.8388H1.26657V13.8519L0.597795 13.8575L0.557868 6.37146C4.22283 6.59449 4.49067 10.5054 4.60601 12.1987C4.616 12.3459 4.62487 12.4775 4.6343 12.5835C4.66057 12.7242 4.65821 12.8688 4.62735 13.0086C4.59649 13.1483 4.53777 13.2804 4.45474 13.3967C4.3717 13.513 4.26609 13.6112 4.14426 13.6853C4.02243 13.7594 3.88692 13.808 3.74592 13.828ZM4.50232 8.72779H11.0459L10.8479 9.24968C10.78 9.25308 10.7126 9.26431 10.6472 9.28314C10.6235 9.29016 10.5994 9.29574 10.5751 9.29987C10.5718 9.29987 10.5363 9.28091 10.5124 9.26976C10.4221 9.21965 10.3216 9.19121 10.2185 9.18668H10.2035C10.0922 9.19697 9.98518 9.23533 9.89245 9.29819C9.87124 9.31133 9.84919 9.32307 9.82646 9.33332C9.80982 9.33332 9.78432 9.32551 9.75881 9.32105C9.7025 9.30997 9.64537 9.30363 9.58801 9.3021C9.53553 9.30168 9.48332 9.30958 9.43329 9.32551C9.32899 9.36456 9.23625 9.42959 9.16378 9.51453C9.14639 9.53314 9.12787 9.55064 9.10833 9.56695L9.04068 9.57364C8.92931 9.57196 8.82003 9.60404 8.72705 9.6657C8.63408 9.72736 8.56172 9.81574 8.51941 9.91934C8.50792 9.94222 8.49476 9.96421 8.48004 9.98513L8.41737 10.0091C8.30958 10.0373 8.21272 10.0975 8.13943 10.1818C8.06614 10.2662 8.0198 10.3707 8.00646 10.4819C8.00111 10.507 7.99426 10.5318 7.98594 10.5561L7.92993 10.594C7.83686 10.6546 7.76055 10.7378 7.70812 10.836C7.66477 10.9381 7.64817 11.0496 7.65987 11.16C7.66128 11.1858 7.66128 11.2116 7.65987 11.2375C7.65987 11.2375 7.63381 11.2698 7.61828 11.2899C7.5407 11.37 7.48869 11.4717 7.46893 11.5817C7.44917 11.6918 7.46256 11.8053 7.50737 11.9077C7.51631 11.9322 7.52335 11.9573 7.52844 11.9829C7.52844 11.9829 7.51236 12.0209 7.50294 12.0437C7.47823 12.1041 7.45965 12.1669 7.44748 12.2311H5.16499C5.16499 12.2054 5.16166 12.187 5.16 12.1602C5.117 10.989 4.89518 9.8313 4.50232 8.72779Z" fill="#FF7D00"/>
<path d="M9.7405 6.52808H8.64307V6.80687H9.7405V6.52808Z" fill="#FF7D00"/>
<path d="M9.7405 7.05566H8.64307V7.33445H9.7405V7.05566Z" fill="#FF7D00"/>
<path d="M9.7405 7.58368H8.64307V7.86247H9.7405V7.58368Z" fill="#FF7D00"/>
</svg>
