<svg width="18" height="16" viewBox="0 0 18 16" fill="none" xmlns="http://www.w3.org/2000/svg">
<mask id="path-1-outside-1" maskUnits="userSpaceOnUse" x="0" y="-0.656738" width="18" height="17" fill="black">
<rect fill="white" y="-0.656738" width="18" height="17"/>
<path d="M4.58114 15.6764C4.40584 15.6764 4.23177 15.6217 4.0832 15.5143C3.80646 15.3137 3.67719 14.969 3.75251 14.6364L4.78183 10.1022L1.29102 7.04082C1.03442 6.81682 0.936393 6.46207 1.04174 6.13748C1.14709 5.81349 1.43372 5.58412 1.77308 5.55275L6.39186 5.13342L8.21795 0.859999C8.3526 0.546026 8.65925 0.343262 8.99996 0.343262C9.34066 0.343262 9.64731 0.546026 9.78196 0.859266L11.6081 5.13342L16.2261 5.55275C16.5662 5.58339 16.8528 5.81349 16.9582 6.13748C17.0635 6.46146 16.9661 6.81682 16.7095 7.04082L13.2187 10.1016L14.248 14.6356C14.3235 14.969 14.1941 15.3137 13.9174 15.5137C13.6414 15.7137 13.2734 15.729 12.9827 15.5543L8.99996 13.1743L5.01719 15.5557C4.88254 15.6356 4.73251 15.6764 4.58114 15.6764ZM8.99996 12.149C9.15133 12.149 9.30123 12.1896 9.436 12.2696L13.1948 14.5177L12.2233 10.2382C12.154 9.9336 12.2574 9.61559 12.4927 9.40953L15.7888 6.51884L11.428 6.12283C11.114 6.09414 10.844 5.89675 10.7213 5.60743L8.99996 1.57462L7.27652 5.60805C7.15518 5.89541 6.88515 6.0928 6.57191 6.12149L2.21047 6.51749L5.50646 9.40819C5.74255 9.61486 5.84582 9.93225 5.77587 10.2376L4.80515 14.517L8.56391 12.2696C8.69856 12.1896 8.84858 12.149 8.99996 12.149ZM6.35658 5.21607C6.35658 5.21607 6.35658 5.2168 6.35584 5.21741L6.35658 5.21607ZM11.642 5.21411L11.6427 5.21546C11.6427 5.21472 11.6427 5.21472 11.642 5.21411Z"/>
</mask>
<path d="M4.58114 15.6764C4.40584 15.6764 4.23177 15.6217 4.0832 15.5143C3.80646 15.3137 3.67719 14.969 3.75251 14.6364L4.78183 10.1022L1.29102 7.04082C1.03442 6.81682 0.936393 6.46207 1.04174 6.13748C1.14709 5.81349 1.43372 5.58412 1.77308 5.55275L6.39186 5.13342L8.21795 0.859999C8.3526 0.546026 8.65925 0.343262 8.99996 0.343262C9.34066 0.343262 9.64731 0.546026 9.78196 0.859266L11.6081 5.13342L16.2261 5.55275C16.5662 5.58339 16.8528 5.81349 16.9582 6.13748C17.0635 6.46146 16.9661 6.81682 16.7095 7.04082L13.2187 10.1016L14.248 14.6356C14.3235 14.969 14.1941 15.3137 13.9174 15.5137C13.6414 15.7137 13.2734 15.729 12.9827 15.5543L8.99996 13.1743L5.01719 15.5557C4.88254 15.6356 4.73251 15.6764 4.58114 15.6764ZM8.99996 12.149C9.15133 12.149 9.30123 12.1896 9.436 12.2696L13.1948 14.5177L12.2233 10.2382C12.154 9.9336 12.2574 9.61559 12.4927 9.40953L15.7888 6.51884L11.428 6.12283C11.114 6.09414 10.844 5.89675 10.7213 5.60743L8.99996 1.57462L7.27652 5.60805C7.15518 5.89541 6.88515 6.0928 6.57191 6.12149L2.21047 6.51749L5.50646 9.40819C5.74255 9.61486 5.84582 9.93225 5.77587 10.2376L4.80515 14.517L8.56391 12.2696C8.69856 12.1896 8.84858 12.149 8.99996 12.149ZM6.35658 5.21607C6.35658 5.21607 6.35658 5.2168 6.35584 5.21741L6.35658 5.21607ZM11.642 5.21411L11.6427 5.21546C11.6427 5.21472 11.6427 5.21472 11.642 5.21411Z" fill="#323232"/>
<path d="M4.58114 15.6764C4.40584 15.6764 4.23177 15.6217 4.0832 15.5143C3.80646 15.3137 3.67719 14.969 3.75251 14.6364L4.78183 10.1022L1.29102 7.04082C1.03442 6.81682 0.936393 6.46207 1.04174 6.13748C1.14709 5.81349 1.43372 5.58412 1.77308 5.55275L6.39186 5.13342L8.21795 0.859999C8.3526 0.546026 8.65925 0.343262 8.99996 0.343262C9.34066 0.343262 9.64731 0.546026 9.78196 0.859266L11.6081 5.13342L16.2261 5.55275C16.5662 5.58339 16.8528 5.81349 16.9582 6.13748C17.0635 6.46146 16.9661 6.81682 16.7095 7.04082L13.2187 10.1016L14.248 14.6356C14.3235 14.969 14.1941 15.3137 13.9174 15.5137C13.6414 15.7137 13.2734 15.729 12.9827 15.5543L8.99996 13.1743L5.01719 15.5557C4.88254 15.6356 4.73251 15.6764 4.58114 15.6764ZM8.99996 12.149C9.15133 12.149 9.30123 12.1896 9.436 12.2696L13.1948 14.5177L12.2233 10.2382C12.154 9.9336 12.2574 9.61559 12.4927 9.40953L15.7888 6.51884L11.428 6.12283C11.114 6.09414 10.844 5.89675 10.7213 5.60743L8.99996 1.57462L7.27652 5.60805C7.15518 5.89541 6.88515 6.0928 6.57191 6.12149L2.21047 6.51749L5.50646 9.40819C5.74255 9.61486 5.84582 9.93225 5.77587 10.2376L4.80515 14.517L8.56391 12.2696C8.69856 12.1896 8.84858 12.149 8.99996 12.149ZM6.35658 5.21607C6.35658 5.21607 6.35658 5.2168 6.35584 5.21741L6.35658 5.21607ZM11.642 5.21411L11.6427 5.21546C11.6427 5.21472 11.6427 5.21472 11.642 5.21411Z" stroke="#323232" stroke-width="0.6" mask="url(#path-1-outside-1)"/>
</svg>
