<svg width="20" height="7" viewBox="0 0 20 7" fill="none" xmlns="http://www.w3.org/2000/svg">
<path d="M1.60933 3.40861C1.54566 3.42096 1.4872 3.45126 1.44132 3.4957C1.39544 3.54014 1.3642 3.59672 1.35153 3.6583C1.33886 3.71989 1.34534 3.78372 1.37014 3.84176C1.39495 3.89979 1.43697 3.94942 1.4909 3.98438C1.54484 4.01935 1.60827 4.03809 1.67321 4.03824C1.73815 4.03839 1.80167 4.01993 1.85578 3.98521C1.90988 3.95049 1.95214 3.90105 1.97723 3.84313C2.00231 3.78521 2.0091 3.72141 1.99673 3.65977C1.98847 3.61862 1.97188 3.57945 1.94791 3.54453C1.92394 3.5096 1.89307 3.4796 1.85706 3.45626C1.82106 3.43292 1.78063 3.41669 1.73812 3.40851C1.6956 3.40034 1.65183 3.40037 1.60933 3.40861Z" fill="#FF7D00"/>
<path d="M11.9896 4.61936C12.2889 4.72242 12.6034 4.77858 12.9211 4.78574C13.2375 4.80203 13.5547 4.76893 13.8602 4.68771C13.5611 4.5839 13.2465 4.52771 12.9287 4.52134C12.6123 4.50558 12.2953 4.53867 11.9896 4.61936Z" fill="#FF7D00"/>
<path d="M11.9753 5.10947C12.2747 5.21228 12.5892 5.26844 12.9068 5.27584C13.2235 5.29198 13.5408 5.2587 13.8465 5.17729C13.5473 5.07398 13.2327 5.0178 12.915 5.01091C12.5984 4.99554 12.2812 5.0288 11.9753 5.10947Z" fill="#FF7D00"/>
<path d="M11.9611 5.59907C12.2604 5.70218 12.5749 5.75835 12.8926 5.76545C13.2092 5.78177 13.5266 5.74867 13.8323 5.66742C13.5332 5.56361 13.2186 5.50742 12.9008 5.50105C12.5842 5.4852 12.267 5.51829 11.9611 5.59907Z" fill="#FF7D00"/>
<path d="M10.1633 5.09309C10.0821 5.09511 10.0034 5.12035 9.93707 5.16564C9.87075 5.21092 9.81982 5.27421 9.7907 5.34749C9.76159 5.42077 9.7556 5.50075 9.7735 5.57733C9.7914 5.6539 9.83238 5.72362 9.89126 5.77766C9.95014 5.83171 10.0243 5.86765 10.1043 5.88095C10.1843 5.89425 10.2666 5.88431 10.3407 5.85237C10.4149 5.82044 10.4776 5.76796 10.5209 5.70156C10.5642 5.63516 10.5862 5.55783 10.5841 5.47936C10.5812 5.37418 10.5353 5.27442 10.4564 5.20198C10.3774 5.12955 10.272 5.09038 10.1633 5.09309Z" fill="#FF7D00"/>
<path d="M19.9874 5.63412C19.9472 5.47649 19.8544 5.33606 19.7233 5.23461C19.2814 4.97923 18.8176 4.76118 18.337 4.58288C18.3545 4.53981 18.3621 4.49359 18.3594 4.4474C18.3566 4.40121 18.3436 4.35615 18.3211 4.3153C17.9718 4.21308 17.6098 4.15764 17.2449 4.15051C16.7923 3.97672 16.4016 3.83259 16.1863 3.75205L16.1315 3.43944C16.0671 2.82277 15.7728 2.24984 15.3036 1.8276C15.1033 1.67739 14.8728 1.56919 14.6268 1.50989C14.3809 1.45059 14.1249 1.4415 13.8751 1.48319C13.7074 1.50438 13.531 1.52505 13.3518 1.54571C13.1062 1.02436 12.7255 0.573183 12.2466 0.235893C12.1308 0.170152 12.0013 0.129982 11.8676 0.118257C11.7338 0.106532 11.599 0.123542 11.4729 0.168071C11.3396 0.234416 11.2253 0.331396 11.1399 0.450486C11.0544 0.569576 11.0006 0.707131 10.983 0.851062C10.9224 1.16495 10.8826 1.48229 10.8641 1.8011C10.4647 1.83872 10.131 1.86893 9.91452 1.888L9.00603 0.211519C8.98084 0.165282 8.94649 0.124294 8.90492 0.0908959C8.86335 0.0574978 8.81539 0.0323436 8.76377 0.0168695C8.65952 -0.0143818 8.54671 -0.00430688 8.45014 0.0448779C8.35357 0.0940627 8.28116 0.178328 8.24885 0.279138C8.21653 0.379947 8.22695 0.489042 8.27781 0.582422L9.23507 2.34792C9.25967 2.38332 9.29023 2.41449 9.32548 2.44012L9.28548 2.60861C9.28322 2.61766 9.28175 2.62688 9.2811 2.63617L9.19617 3.3128L8.73206 3.2471C8.69537 3.12465 8.62427 3.01444 8.52666 2.92875C8.42904 2.84306 8.30875 2.78525 8.17918 2.76174C8.26421 2.89398 8.32224 3.04075 8.35014 3.19411L7.72274 3.10933C7.68023 2.99886 7.6089 2.90089 7.51567 2.82494C7.42245 2.749 7.31049 2.69765 7.19069 2.67591C7.26725 2.79458 7.3228 2.92477 7.35507 3.06111C7.16493 3.03621 6.97151 3.01131 6.79288 2.98852C6.74678 2.8854 6.67529 2.79475 6.58466 2.72447C6.49402 2.65419 6.38699 2.60641 6.27288 2.5853C6.34342 2.6966 6.39625 2.81752 6.42959 2.94402L5.86301 2.87513C5.81421 2.77758 5.74253 2.69239 5.65369 2.62634C5.56484 2.5603 5.46127 2.51522 5.35123 2.49469C5.41818 2.60009 5.46946 2.71406 5.50356 2.83327C5.30575 2.81049 5.12 2.78983 4.93479 2.76969C4.88528 2.67593 4.81436 2.5943 4.72741 2.53096C4.64045 2.46762 4.53973 2.42423 4.43288 2.40409C4.49764 2.50622 4.54778 2.61637 4.58192 2.73154C4.38137 2.71035 4.19178 2.69127 4.0126 2.67326C3.96279 2.58091 3.89209 2.50061 3.80576 2.43832C3.71944 2.37603 3.6197 2.33336 3.51397 2.31348C3.57877 2.41503 3.62891 2.52467 3.66301 2.63934C3.45644 2.61974 3.27069 2.60278 3.09699 2.58636C3.04757 2.49346 2.97694 2.41266 2.89046 2.35005C2.80398 2.28745 2.7039 2.24468 2.59781 2.22499C2.66419 2.32922 2.71509 2.44194 2.74904 2.55987C2.52932 2.54291 2.34137 2.52701 2.19178 2.51642C2.14342 2.41804 2.07179 2.33206 1.98269 2.26542C1.89359 2.19877 1.78952 2.15334 1.6789 2.1328C1.75026 2.24476 1.80348 2.36663 1.83671 2.49416L1.70904 2.48992C1.54301 2.47399 1.37537 2.4902 1.21589 2.53761C1.13686 2.47186 1.04395 2.42357 0.94363 2.39612C0.843314 2.36866 0.738012 2.3627 0.635069 2.37865C0.745327 2.46286 0.840962 2.56357 0.918356 2.67696C0.873154 2.70246 0.829603 2.73059 0.787945 2.76121C0.717352 2.81726 0.6534 2.8807 0.59726 2.95037C0.485811 2.9416 0.373783 2.95811 0.270095 2.99859C0.166407 3.03906 0.0739208 3.10238 0 3.18351C0.143053 3.17866 0.28596 3.19656 0.423014 3.2365C0.374551 3.34426 0.342794 3.45835 0.328767 3.57508C0.323592 3.63715 0.323592 3.69952 0.328767 3.76159C0.23898 3.82493 0.165656 3.90759 0.114589 4.00304C0.0635215 4.0985 0.03611 4.20413 0.0345206 4.31159C0.141706 4.22003 0.263449 4.14579 0.395069 4.0917C0.442341 4.22785 0.514131 4.35485 0.607123 4.46684C0.616986 4.47796 0.629041 4.48644 0.638904 4.49757C0.61941 4.61694 0.632915 4.73917 0.678048 4.85186C0.723182 4.96455 0.798337 5.0637 0.89589 5.13923C0.887301 5.00436 0.900613 4.86902 0.935343 4.73813C1.08767 4.83006 1.25936 4.88782 1.43781 4.90715L1.54411 4.92252C1.58145 5.04294 1.65232 5.15112 1.74895 5.23523C1.84559 5.31933 1.96429 5.37613 2.09206 5.39939C2.00831 5.26966 1.9505 5.12587 1.92164 4.9755C2.07178 4.99564 2.25699 5.01948 2.47452 5.04598C2.51591 5.15877 2.58719 5.25909 2.68123 5.33692C2.77526 5.41474 2.88877 5.46734 3.01041 5.48947C2.93111 5.3667 2.87456 5.23151 2.84329 5.08995C3.01425 5.11009 3.1989 5.13075 3.39945 5.15248C3.44271 5.26155 3.51411 5.35809 3.60685 5.43294C3.6996 5.50779 3.81061 5.55844 3.92932 5.58008C3.8523 5.46029 3.79673 5.32881 3.76493 5.19116C3.94082 5.20917 4.12548 5.22772 4.32 5.24414C4.36351 5.3524 4.43485 5.44814 4.52728 5.52231C4.6197 5.59648 4.73017 5.64664 4.84822 5.66803C4.77121 5.54825 4.71564 5.41677 4.68384 5.27911C4.86192 5.29554 5.04548 5.31197 5.23616 5.32839C5.27927 5.4381 5.35078 5.53527 5.44384 5.6106C5.5369 5.68593 5.64841 5.73691 5.76767 5.75864C5.68776 5.63593 5.63099 5.50048 5.6 5.35859C5.77808 5.3729 5.96 5.38774 6.14795 5.40204C6.18897 5.51571 6.26026 5.6169 6.35464 5.69541C6.44901 5.77393 6.56313 5.82699 6.68548 5.84925C6.6026 5.72068 6.54501 5.57841 6.51562 5.4296L7.05644 5.46722C7.09487 5.58658 7.16617 5.69359 7.2627 5.77676C7.35923 5.85993 7.47734 5.91612 7.60438 5.93932C7.51684 5.80276 7.45817 5.65076 7.43178 5.49212C7.60493 5.50325 7.78575 5.51384 7.96548 5.52444C7.9988 5.65143 8.06905 5.76652 8.1679 5.8561C8.26676 5.94569 8.39009 6.00601 8.52329 6.02993C8.42799 5.88357 8.3677 5.71847 8.34685 5.54669C8.53151 5.55676 8.72274 5.5663 8.91343 5.57584L8.90028 5.68181C8.88369 5.81586 8.89619 5.95177 8.93698 6.08089C8.97776 6.21 9.04593 6.32948 9.13714 6.43169C9.22835 6.5339 9.34059 6.61659 9.46671 6.67451C9.59282 6.73242 9.73003 6.76427 9.86959 6.76803L10.3244 6.78922C10.3347 6.83123 10.3557 6.8701 10.3854 6.9023C10.4152 6.93449 10.4528 6.959 10.4948 6.97361C10.5478 6.99066 10.6033 6.99908 10.6592 6.99852C10.7946 6.99805 10.9261 6.95406 11.0329 6.87347C11.0526 6.85863 11.069 6.83903 11.0877 6.82048C12.1337 6.86287 12.8482 6.87824 13.3342 6.87824C13.6663 6.89086 13.9988 6.87419 14.3277 6.82843C14.5063 6.812 15.6871 6.7924 16.4027 6.78392H16.4132L19.5364 6.7924C19.5655 6.79244 19.5944 6.78778 19.6219 6.77862C19.7143 6.74414 19.7957 6.68687 19.8581 6.6125C19.9205 6.53813 19.9617 6.44926 19.9775 6.35473C19.9995 6.11511 20.0028 5.87423 19.9874 5.63412ZM13.9458 2.00828C14.1218 1.97578 14.303 1.97951 14.4774 2.01922C14.6519 2.05894 14.8158 2.13374 14.9584 2.23877C15.3162 2.57791 15.5389 3.02819 15.5874 3.51044L15.7151 4.22628L14.7364 4.27026C14.7364 4.16429 14.7364 4.0652 14.7364 3.97725C14.7384 3.83071 14.6806 3.68932 14.5756 3.58363C14.4706 3.47794 14.3268 3.41644 14.1753 3.41241L13.1611 3.37956L13.2225 2.98481C13.3357 3.00088 13.4463 3.03135 13.5512 3.07542C13.5774 3.08628 13.6055 3.09187 13.634 3.09185C13.6813 3.09193 13.7271 3.07625 13.7638 3.04745C13.8005 3.01865 13.8259 2.97848 13.8355 2.93373C13.8452 2.88898 13.8386 2.84237 13.8168 2.80178C13.7951 2.76118 13.7595 2.72908 13.7162 2.71088C13.3556 2.56589 12.9577 2.53185 12.5764 2.61338C12.525 2.6277 12.4815 2.66083 12.4549 2.70574C12.4284 2.75065 12.421 2.80379 12.4343 2.85387C12.4477 2.90396 12.4807 2.94704 12.5264 2.97396C12.572 3.00089 12.6268 3.00953 12.6789 2.99806C12.767 2.9799 12.8568 2.96996 12.9469 2.96839L12.8838 3.37108L11.914 3.3377L11.3973 3.31492C11.3841 3.31492 11.3742 3.32499 11.3622 3.32816C11.3622 2.97051 11.3693 2.61444 11.3841 2.28487C12.1885 2.20698 13.1463 2.10842 13.9458 2.00828ZM14.2564 6.30599C14.2153 6.31129 14.2219 6.30599 14.1874 6.32453C13.2472 6.36768 12.3053 6.36025 11.366 6.30228C11.4451 5.92042 11.4636 5.52913 11.4208 5.14188C11.3852 4.68249 11.366 4.12879 11.3611 3.56925C11.3693 3.56925 11.3748 3.57932 11.3836 3.57985L12.8455 3.62966L12.8422 3.64767C12.7047 3.65933 12.6044 3.70437 12.5989 3.76689C12.5923 3.84849 12.7534 3.92585 12.9595 3.94386C13.1655 3.96188 13.3375 3.90677 13.343 3.82464C13.3485 3.76159 13.2532 3.70066 13.1151 3.66834L13.1195 3.63919L14.1649 3.67469C14.205 3.67511 14.2446 3.68318 14.2814 3.69844C14.3183 3.7137 14.3516 3.73586 14.3796 3.76363C14.4076 3.7914 14.4296 3.82424 14.4443 3.86027C14.4591 3.89629 14.4664 3.93478 14.4658 3.97354C14.4603 4.55638 14.4542 5.59968 14.4811 6.01032C14.4912 6.11088 14.4671 6.21187 14.4126 6.29804C14.3419 6.29963 14.2844 6.30493 14.2564 6.30493V6.30599ZM11.5167 0.961803C11.5534 0.795427 11.6148 0.686275 11.6899 0.653954C11.7789 0.632837 11.8728 0.643957 11.954 0.685216C12.2905 0.933801 12.5679 1.2495 12.7671 1.61088C12.3074 1.66016 11.8422 1.70732 11.4153 1.74918C11.4331 1.48491 11.4677 1.22195 11.5189 0.961803H11.5167ZM1.50959 4.38153C1.36984 4.36801 1.23739 4.31466 1.12904 4.22825C1.02068 4.14183 0.941313 4.02625 0.900988 3.89615C0.860662 3.76606 0.8612 3.62731 0.902533 3.49752C0.943866 3.36772 1.02413 3.25271 1.13315 3.16709C1.26183 3.06573 1.42308 3.01101 1.58904 3.01237C1.61589 3.01237 1.64384 3.01237 1.67069 3.01608C1.69753 3.01979 4.13315 3.12205 9.13151 3.83789L8.97973 5.05074C4.3589 4.82131 1.55397 4.38842 1.50959 4.38153ZM9.55288 6.08821C9.51063 6.042 9.47901 5.98764 9.46011 5.92872C9.44122 5.8698 9.43549 5.80767 9.44329 5.74645L9.82247 2.713L9.88767 2.438C9.89425 2.43164 9.90356 2.4274 9.90904 2.42104C10.109 2.40303 10.4345 2.37441 10.8334 2.33679C10.7952 3.28494 10.8091 4.23438 10.8751 5.18109C10.9265 5.5483 10.9027 5.92172 10.8049 6.28002C10.4992 6.26784 10.1912 6.25406 9.88767 6.23922C9.82398 6.23847 9.76118 6.22461 9.70346 6.19858C9.64573 6.17254 9.5944 6.13492 9.55288 6.08821ZM14.7227 6.28585C14.7505 6.19047 14.7609 6.09114 14.7534 5.99231C14.7342 5.69983 14.7321 5.07565 14.7348 4.53254L15.7616 4.48697L16.0778 6.26042C15.714 6.26572 15.1353 6.27472 14.7227 6.28585ZM19.4564 6.26201L16.6329 6.25459L16.371 4.7874C16.3781 4.72753 16.4082 4.68143 16.4915 4.7021C16.5085 4.70527 16.5693 4.71958 16.6608 4.74078L16.7156 4.83138C16.8996 4.92678 17.044 5.08034 17.1249 5.2664C17.2673 5.19129 17.3791 5.07175 17.4422 4.92729L18.251 5.12228C18.6397 5.26744 19.016 5.44195 19.3764 5.64419C19.4236 5.6834 19.4433 5.71572 19.4449 5.71201C19.4521 5.82805 19.4603 6.11259 19.4564 6.26201Z" fill="#FF7D00"/>
<path d="M13.326 3.9983C13.2067 4.04079 13.0791 4.05676 12.9525 4.04502C12.826 4.03328 12.7038 3.99413 12.5951 3.93048C12.6892 4.02311 12.8141 4.08069 12.9478 4.0931C13.0815 4.1055 13.2154 4.07194 13.326 3.9983Z" fill="#FF7D00"/>
</svg>
