<svg xmlns="http://www.w3.org/2000/svg" xmlns:xlink="http://www.w3.org/1999/xlink" viewBox="0 0 36.6 11.82"><defs><style>.cls-1{fill:url(#Blue_Gradient_01);}</style><linearGradient id="Blue_Gradient_01" y1="5.91" x2="36.6" y2="5.91" gradientUnits="userSpaceOnUse"><stop offset="0" stop-color="#241f5d"/><stop offset="1" stop-color="#034ea1"/></linearGradient></defs><g id="Слой_2" data-name="Слой 2"><g id="Слой_1-2" data-name="Слой 1"><path class="cls-1" d="M13.9.21,9.11,11.64H6L3.62,2.52a1.27,1.27,0,0,0-.7-1A13,13,0,0,0,0,.54L.07.21h5A1.39,1.39,0,0,1,6.47,1.37L7.71,8,10.79.21Zm12.25,7.7c0-3-4.17-3.18-4.15-4.53,0-.41.4-.85,1.26-1a5.54,5.54,0,0,1,2.92.51L26.7.51A8,8,0,0,0,23.93,0c-2.93,0-5,1.55-5,3.78,0,1.65,1.47,2.56,2.59,3.11s1.54.92,1.53,1.42c0,.77-.92,1.11-1.77,1.12a6.19,6.19,0,0,1-3-.72l-.54,2.5a8.83,8.83,0,0,0,3.29.61c3.11,0,5.14-1.53,5.15-3.91m7.72,3.73H36.6L34.22.21H31.69a1.35,1.35,0,0,0-1.26.84L26,11.64H29.1l.62-1.71h3.79Zm-3.3-4.05L32.13,3.3,33,7.59ZM18.12.21,15.68,11.64h-3L15.17.21Z"/></g></g></svg>