<svg xmlns="http://www.w3.org/2000/svg" viewBox="0 0 42.85 42.85"><defs><style>.cls-1{fill:#4c75a3;}.cls-2{fill:#fff;}</style></defs><g id="Слой_2" data-name="Слой 2"><g id="Слой_1-2" data-name="Слой 1"><rect class="cls-1" width="42.85" height="42.85" rx="8.87"/><g id="layer1"><g id="g3257"><path id="path2442" class="cls-2" d="M21.07,30h1.75a1.49,1.49,0,0,0,.8-.35,1.27,1.27,0,0,0,.24-.77s0-2.35,1.06-2.7,2.46,2.27,3.92,3.28a2.77,2.77,0,0,0,1.95.59L34.71,30s2-.13,1.07-1.74a13,13,0,0,0-2.91-3.37C30.42,22.61,30.75,23,33.7,19c1.81-2.4,2.53-3.87,2.3-4.5s-1.54-.44-1.54-.44l-4.41,0a1,1,0,0,0-.57.1,1.19,1.19,0,0,0-.39.47,25.7,25.7,0,0,1-1.63,3.44c-2,3.34-2.75,3.51-3.07,3.31-.74-.49-.56-1.94-.56-3,0-3.23.49-4.58-.95-4.92a7.2,7.2,0,0,0-2.06-.21,9.63,9.63,0,0,0-3.66.38c-.5.24-.89.79-.65.82a2,2,0,0,1,1.3.65,4.33,4.33,0,0,1,.44,2s.26,3.8-.61,4.28c-.59.32-1.41-.34-3.16-3.37a27.26,27.26,0,0,1-1.57-3.26,1.39,1.39,0,0,0-.37-.49,1.73,1.73,0,0,0-.68-.27l-4.19,0a1.43,1.43,0,0,0-.86.3c-.2.24,0,.74,0,.74s3.28,7.68,7,11.54A10.08,10.08,0,0,0,21.07,30"/></g></g></g></g></svg>