<svg width="16" height="16" viewBox="0 0 16 16" fill="none" xmlns="http://www.w3.org/2000/svg">
<path d="M12.8073 2.0388C12.4832 2.0314 12.1643 2.12371 11.8913 2.30398C11.6182 2.48424 11.4034 2.7443 11.2741 3.05102C11.1448 3.35774 11.1069 3.69722 11.1653 4.02623C11.2237 4.35524 11.3756 4.65888 11.6018 4.89845C11.828 5.13802 12.1182 5.30269 12.4354 5.37147C12.7527 5.44025 13.0825 5.41002 13.3831 5.28465C13.6836 5.15928 13.9411 4.94443 14.1229 4.66749C14.3046 4.39054 14.4024 4.06403 14.4037 3.72956C14.4069 3.28762 14.2411 2.86221 13.9422 2.54566C13.6433 2.22911 13.2355 2.04698 12.8073 2.0388ZM13.0362 4.30765C12.9617 4.3466 12.8801 4.36912 12.7967 4.3738C12.7132 4.37847 12.6298 4.36518 12.5516 4.33478C12.4734 4.30439 12.4022 4.25754 12.3425 4.19722C12.2828 4.1369 12.236 4.06443 12.2049 3.98441C12.1614 3.87245 12.1504 3.74985 12.1732 3.63155C12.1961 3.51325 12.2518 3.40438 12.3336 3.31819C12.4154 3.23201 12.5197 3.17225 12.6339 3.14619C12.748 3.12013 12.867 3.1289 12.9764 3.17143C13.0858 3.21397 13.1809 3.28842 13.2499 3.38573C13.319 3.48303 13.3592 3.59897 13.3655 3.71942C13.3719 3.83987 13.3441 3.95962 13.2856 4.06407C13.2271 4.16851 13.1405 4.25315 13.0362 4.30765Z" fill="#FF7D00"/>
<path d="M15.9284 3.4499L15.6212 3.33801L15.2778 3.2945C15.1759 2.65138 14.8451 2.07065 14.3501 1.6659C14.1196 1.48211 13.8611 1.33926 13.5851 1.24322C13.463 0.957405 13.2798 0.703808 13.0492 0.501427C12.8187 0.299046 12.5467 0.153128 12.2537 0.0746066C11.6513 -0.0932256 10.6875 -0.0621455 9.55494 1.05052C9.16847 1.49016 8.82916 1.97158 8.5429 2.48642C8.52164 2.52717 8.51482 2.5743 8.52362 2.61969C8.53242 2.66507 8.55628 2.70587 8.59109 2.73506H8.62121C8.82603 2.91532 8.93446 2.98991 9.04892 2.9837C9.07492 2.98186 9.10022 2.97424 9.1231 2.96136C9.14597 2.94849 9.16588 2.93066 9.18145 2.90911C9.19889 2.88892 9.21215 2.86529 9.22044 2.83964C9.22873 2.81399 9.23186 2.78686 9.22964 2.75992C9.28931 2.47466 9.41777 2.20955 9.60314 1.98914C9.65291 2.4113 9.74167 2.82759 9.8682 3.23234L9.33205 3.97826C9.30296 3.96017 9.26964 3.95061 9.23567 3.95061C9.2017 3.95061 9.16838 3.96017 9.13928 3.97826C9.10314 4.00934 8.2176 4.68067 8.0188 4.84228C7.95546 4.89592 7.90429 4.96323 7.8689 5.03949C7.83352 5.11574 7.81477 5.19908 7.81398 5.28362C7.8145 5.36669 7.83255 5.44865 7.86688 5.5238C7.90121 5.59894 7.951 5.66547 8.01278 5.71874C7.58506 6.27818 3.1935 12.0591 2.0429 13.4701C0.892294 14.8811 0.15133 15.1795 0.145306 15.1795C0.0958774 15.1952 0.053284 15.2282 0.0248238 15.2727C0.0073504 15.323 0.0073504 15.3779 0.0248238 15.4281L0.139282 15.8508C0.148985 15.8941 0.17287 15.9326 0.206898 15.9598C0.240926 15.9869 0.283009 16.0012 0.326029 16C0.909165 15.9854 1.48729 15.8849 2.0429 15.7016C2.8885 15.2944 3.63243 14.6926 4.2176 13.9425C4.88025 13.1158 9.07302 7.52138 9.50675 6.94329C9.59586 7.00474 9.70078 7.03722 9.80796 7.03653C9.84992 7.04266 9.8925 7.04266 9.93446 7.03653C10.0138 7.01693 10.0877 6.97869 10.1504 6.92478C10.2131 6.87087 10.2629 6.80275 10.2959 6.72573C10.3923 6.52682 10.7236 5.73739 10.826 5.48253C10.9297 5.54948 11.0283 5.62428 11.1212 5.70631L11.1995 5.76847C11.645 6.13866 12.1998 6.34045 12.7718 6.34034H12.9525L13.067 6.66979L13.2417 6.94951C13.2523 6.9649 13.2663 6.97746 13.2825 6.98612C13.2988 6.99479 13.3168 6.99931 13.3351 6.99931C13.3534 6.99931 13.3714 6.99479 13.3876 6.98612C13.4039 6.97746 13.4179 6.9649 13.4284 6.94951L13.9104 6.32791L13.8561 6.09792C14.2105 5.92404 14.5201 5.66635 14.7598 5.34578C15.0139 5.02379 15.1858 4.64127 15.2598 4.23312H15.4947L15.9766 3.61151C15.9839 3.59768 15.9885 3.58248 15.99 3.5668C15.9916 3.55112 15.99 3.53529 15.9855 3.52023C15.9811 3.50516 15.9737 3.49118 15.9639 3.47911C15.9541 3.46703 15.942 3.4571 15.9284 3.4499ZM10.3802 1.24322C10.5599 1.0418 10.7791 0.88218 11.0232 0.774998C11.2673 0.667816 11.5307 0.615527 11.7959 0.621615C11.9701 0.624461 12.1412 0.669887 12.2952 0.754167C12.4491 0.838447 12.5815 0.95918 12.6814 1.10646H12.4827C12.1525 1.14518 11.8331 1.25077 11.5426 1.41718C11.2521 1.58358 10.9963 1.80752 10.7899 2.07616L10.6152 2.29994C10.4586 2.0513 10.2417 1.52915 10.3802 1.24322ZM3.91639 13.6752C3.36991 14.3775 2.6729 14.9392 1.88025 15.3163C1.41844 15.4714 0.937895 15.5593 0.452535 15.5773V15.4841C1.20146 15.0451 1.8538 14.4503 2.3682 13.7374C3.50675 12.3201 7.91639 6.53304 8.3441 5.9736L9.22362 6.68844C8.76579 7.27896 4.57904 12.8671 3.91639 13.6752ZM9.94049 6.52682C9.93066 6.54887 9.91647 6.56856 9.89884 6.58462C9.8812 6.60067 9.8605 6.61275 9.83808 6.62006C9.79739 6.63637 9.75226 6.63637 9.71157 6.62006L8.25374 5.42037C8.23787 5.40417 8.2254 5.38477 8.21711 5.36339C8.20882 5.342 8.20488 5.31908 8.20555 5.29605C8.20601 5.27289 8.2117 5.25016 8.22215 5.22966C8.23261 5.20916 8.24755 5.19146 8.26579 5.17795C8.41639 5.05363 8.9947 4.61229 9.24772 4.41338L10.4525 5.39551C10.314 5.68766 10.0308 6.36521 9.94651 6.53925L9.94049 6.52682ZM13.4947 6.52682C13.4712 6.55 13.4399 6.56293 13.4074 6.56293C13.3748 6.56293 13.3435 6.55 13.32 6.52682C13.2928 6.50539 13.275 6.4737 13.2705 6.43873C13.266 6.40376 13.2751 6.36837 13.2959 6.34034C13.3167 6.31232 13.3474 6.29395 13.3813 6.28929C13.4152 6.28463 13.4495 6.29405 13.4766 6.31548C13.5013 6.32238 13.5234 6.33684 13.54 6.35696C13.5565 6.37707 13.5668 6.4019 13.5694 6.42815C13.572 6.4544 13.5668 6.48086 13.5546 6.50402C13.5423 6.52718 13.5235 6.54597 13.5007 6.5579L13.4947 6.52682ZM14.4586 5.09714C14.1045 5.55605 13.5884 5.85115 13.0236 5.91758C12.4588 5.98402 11.8916 5.81636 11.4465 5.45145L11.3742 5.38929C11.1688 5.1772 10.8984 5.04535 10.6092 5.01633L9.63928 4.2269L11.0851 2.3621C11.4382 1.90225 11.9539 1.60595 12.5187 1.53834C13.0836 1.47073 13.6513 1.63735 14.0971 2.00157C14.3199 2.1811 14.5051 2.40525 14.6418 2.66055C14.7785 2.91586 14.8637 3.19704 14.8923 3.48719C14.9261 3.77179 14.9051 4.06046 14.8307 4.33671C14.7563 4.61296 14.6298 4.87136 14.4586 5.09714ZM15.6272 3.81043C15.6027 3.83402 15.5704 3.84714 15.5369 3.84714C15.5033 3.84714 15.471 3.83402 15.4465 3.81043C15.4345 3.79827 15.4249 3.78377 15.4184 3.76776C15.4119 3.75174 15.4085 3.73455 15.4085 3.71719C15.4085 3.69982 15.4119 3.68263 15.4184 3.66662C15.4249 3.65061 15.4345 3.6361 15.4465 3.62395C15.4578 3.61072 15.4717 3.60012 15.4873 3.59287C15.5029 3.58561 15.5198 3.58186 15.5369 3.58186C15.554 3.58186 15.5709 3.58561 15.5864 3.59287C15.602 3.60012 15.6159 3.61072 15.6272 3.62395C15.6493 3.65004 15.6609 3.6838 15.6598 3.71841C15.6587 3.75302 15.6449 3.78591 15.6212 3.81043H15.6272Z" fill="#FF7D00"/>
</svg>
