<svg xmlns="http://www.w3.org/2000/svg" xmlns:xlink="http://www.w3.org/1999/xlink" viewBox="0 0 42.85 42.85"><defs><style>.cls-1{fill:url(#linear-gradient);}.cls-2{fill:#fff;}.cls-3{fill:#d22222;}.cls-4{fill:#961817;}</style><linearGradient id="linear-gradient" x1="21.43" y1="42.85" x2="21.43" gradientUnits="userSpaceOnUse"><stop offset="0" stop-color="#c0181d"/><stop offset="1" stop-color="#e52d27"/></linearGradient></defs><g id="Слой_2" data-name="Слой 2"><g id="Слой_1-2" data-name="Слой 1"><rect id="BG" class="cls-1" width="42.85" height="42.85" rx="8.87"/><g id="Tube"><g id="Tube-2" data-name="Tube"><path class="cls-2" d="M33.34,15.9a3.26,3.26,0,0,0-3-2.86c-.93-.13-5.41-.31-9-.31h0c-3.55,0-8,.18-9,.31a3.27,3.27,0,0,0-3,2.86,49.2,49.2,0,0,0-.37,5.39v.29A49.22,49.22,0,0,0,9.52,27a3.25,3.25,0,0,0,3,2.85c.93.14,5.4.32,9,.32h0c3.55,0,8-.18,9-.32a3.24,3.24,0,0,0,3-2.85,46.85,46.85,0,0,0,.37-5.4v-.29A46.82,46.82,0,0,0,33.34,15.9Z"/></g></g><polygon id="Play" class="cls-3" points="18.88 17.91 25.41 21.32 18.88 24.89 18.88 17.91"/><polygon id="Shadow" class="cls-4" points="18.88 17.91 25.41 21.32 24.66 21.73 18.88 17.91"/></g></g></svg>