<svg xmlns="http://www.w3.org/2000/svg" viewBox="0 0 26.56 26.56"><defs><style>.cls-1{fill:#323232;stroke:#fff;stroke-width:0.19px;}.cls-2{fill:none;stroke:#939598;stroke-miterlimit:10;stroke-width:0.34px;}</style></defs><g id="Слой_2" data-name="Слой 2"><g id="Слой_1-2" data-name="Слой 1"><path class="cls-1" d="M22.24,14v4.49H20.1v-1h1.1V14.16h0l-.95-2.86v0H16.15v6.15h.55v1H15.11V10.22H21Z"/><path class="cls-1" d="M18.4,20.13a2.19,2.19,0,1,1,2.19-2.19A2.19,2.19,0,0,1,18.4,20.13Zm0-3.33a1.15,1.15,0,0,0,0,2.29,1.15,1.15,0,0,0,0-2.29Z"/><path class="cls-1" d="M6.76,17.42H7.83v1H5.69V14.65h1v2.77Z"/><path class="cls-1" d="M15.07,9.05H4.58V8H16.15V18.47H11.22v-1h3.89V9.05Z"/><path class="cls-1" d="M9.53,20.13a2.19,2.19,0,1,1,2.19-2.19A2.19,2.19,0,0,1,9.53,20.13Zm0-3.33a1.15,1.15,0,1,0,1.14,1.14A1.15,1.15,0,0,0,9.53,16.8Z"/><path class="cls-1" d="M5.13,11.27v-1h4.92v1Z"/><path class="cls-1" d="M5.69,13.48v-1H8.94v1Z"/><rect class="cls-2" x="0.17" y="0.17" width="26.22" height="26.22" rx="4"/></g></g></svg>