<svg xmlns="http://www.w3.org/2000/svg" viewBox="0 0 14.85 11.99"><defs><style>.cls-1{fill:#f76600;}.cls-2{fill:#fff;}</style></defs><g id="Слой_2" data-name="Слой 2"><g id="Слой_1-2" data-name="Слой 1"><path class="cls-1" d="M7.21,10.64h0a4,4,0,0,0-2.1-.6,4.46,4.46,0,0,0-1.74.36h0a13.27,13.27,0,0,1-2.07.79l-.75.2V2.07C1.87,1.84,3.39.88,4.41.6A1.46,1.46,0,0,1,4.85.54,4.94,4.94,0,0,1,6.48.91c.32.12.58.24.73.3,0,.6,0,3.05,0,5.62C7.2,8.15,7.2,9.5,7.21,10.64Z"/><path class="cls-1" d="M14.31,11.39h0l-.75-.2a13.27,13.27,0,0,1-2.07-.79h0A4.46,4.46,0,0,0,9.74,10h0a3.93,3.93,0,0,0-2.09.6V6.83c0-2.57,0-5,0-5.62l.12-.05A6.33,6.33,0,0,1,10,.54a1.4,1.4,0,0,1,.43.06c1,.28,2.54,1.24,3.87,1.47Z"/><path class="cls-1" d="M14.53,12h-.07a14.85,14.85,0,0,1-3.21-1.09,4,4,0,0,0-1.51-.3,3.37,3.37,0,0,0-2.11.72l-.07,0,0,0H7.34l-.06,0,0,0h0a3.42,3.42,0,0,0-2.13-.73,4,4,0,0,0-1.52.3A14.32,14.32,0,0,1,.38,12H.32a.3.3,0,0,1-.2-.08A.3.3,0,0,1,0,11.66V1.88a.32.32,0,0,1,.29-.32A8.7,8.7,0,0,0,2.66.72,11.82,11.82,0,0,1,4.26.08,1.79,1.79,0,0,1,4.85,0,6.86,6.86,0,0,1,7.43.72,6.73,6.73,0,0,1,10,0a1.73,1.73,0,0,1,.58.08,11.82,11.82,0,0,1,1.6.64,8.7,8.7,0,0,0,2.37.84h0a.32.32,0,0,1,.29.32v9.78a.33.33,0,0,1-.11.25A.34.34,0,0,1,14.53,12ZM4.85.22a1.7,1.7,0,0,0-.53.07A10.84,10.84,0,0,0,2.76.92a9,9,0,0,1-2.45.86.1.1,0,0,0-.09.1v9.78a.09.09,0,0,0,0,.08.07.07,0,0,0,.06,0h0A14.42,14.42,0,0,0,3.5,10.7a4,4,0,0,1,1.61-.33,3.61,3.61,0,0,1,2.25.77l.08,0h0a3.63,3.63,0,0,1,2.26-.78,4.26,4.26,0,0,1,1.61.32,14.13,14.13,0,0,0,3.15,1.07.1.1,0,0,0,.1,0,.12.12,0,0,0,0-.08V1.88a.11.11,0,0,0-.1-.1A8.84,8.84,0,0,1,12.1.92,11.41,11.41,0,0,0,10.53.29,1.64,1.64,0,0,0,10,.22,6.65,6.65,0,0,0,7.47.94l0,0,0,0A6.54,6.54,0,0,0,4.85.22Z"/><path class="cls-2" d="M11.14,4.31a.86.86,0,1,0-.85-.85.85.85,0,0,0,.85.85m1,3.75h0V5H9.53c-.64.31,0,.65,0,.65h.84V8.14H9.6v.53h3.26V8.06Z"/></g></g></svg>