<svg xmlns="http://www.w3.org/2000/svg" viewBox="0 0 26.56 26.56"><defs><style>.cls-1{fill:#323232;stroke:#fff;stroke-width:0.19px;}.cls-2{fill:none;stroke:#939598;stroke-miterlimit:10;stroke-width:0.34px;}</style></defs><g id="Слой_2" data-name="Слой 2"><g id="Слой_1-2" data-name="Слой 1"><path class="cls-1" d="M21.36,13.9l-.43.25-2.2-3.83a.51.51,0,0,0-.68-.18l-1.27.74-1.72-3a.5.5,0,0,0-.67-.18l-4.25,2.46a.48.48,0,0,0-.18.67l2,3.4,1.36,2.35a2,2,0,0,0-1,.27L8,9.35a.49.49,0,0,0-.29-.22L5,8.41a.49.49,0,0,0-.6.34.5.5,0,0,0,.35.61L7.22,10l4.36,7.57a2,2,0,1,0,3.67,1l6.6-3.82a.48.48,0,0,0,.18-.67A.5.5,0,0,0,21.36,13.9Zm-7.59,5.52a1,1,0,1,1,.36-1.34A1,1,0,0,1,13.77,19.42Zm-2.72-8.64,3.41-2,1.47,2.55-3.4,2Zm9,3.86L15,17.59l-2-3.41,5.1-2.94,2,3.4Z"/><rect class="cls-2" x="0.17" y="0.17" width="26.22" height="26.22" rx="12.68"/></g></g></svg>