<svg xmlns="http://www.w3.org/2000/svg" viewBox="0 0 25.78 25.78"><defs><style>.cls-1{fill:none;stroke:#333;stroke-width:0.59px;}.cls-2{fill:#323232;}</style></defs><g id="Слой_2" data-name="Слой 2"><g id="Слой_1-2" data-name="Слой 1"><path class="cls-1" d="M12.89.29h0a12.6,12.6,0,0,1,12.6,12.6h0a12.6,12.6,0,0,1-12.6,12.6h0A12.6,12.6,0,0,1,.29,12.89h0A12.6,12.6,0,0,1,12.89.29Z"/><path class="cls-2" d="M16.65,7.18a.28.28,0,0,0-.31-.06.26.26,0,0,0-.17.26V8.89a3.8,3.8,0,0,0-2.41.8,4.22,4.22,0,0,0-1.49,2.49,4.35,4.35,0,0,0,0,1.44h0l.06.35a.3.3,0,0,0,.23.23.27.27,0,0,0,.29-.14l.18-.3A4,4,0,0,1,15,12a3.13,3.13,0,0,1,1.14-.17v1.57a.27.27,0,0,0,.17.26.29.29,0,0,0,.31-.06l3-3a.28.28,0,0,0,0-.4Zm.08,5.49V11.54a.28.28,0,0,0-.24-.28,3.43,3.43,0,0,0-1.65.17,4.26,4.26,0,0,0-2.09,1.67,3.18,3.18,0,0,1,.08-.81,3.65,3.65,0,0,1,1.29-2.17l0,0a3.55,3.55,0,0,1,2.31-.65h0a.29.29,0,0,0,.28-.28V8.06L19,10.35Z"/><path class="cls-2" d="M18.69,15.43a.28.28,0,0,0-.29.28V16.9a.85.85,0,0,1-.85.85H8.29a.86.86,0,0,1-.85-.85V10.16a.85.85,0,0,1,.85-.84h2a.29.29,0,0,0,0-.57h-2a1.41,1.41,0,0,0-1.41,1.41V16.9a1.42,1.42,0,0,0,1.41,1.42h9.26A1.42,1.42,0,0,0,19,16.9V15.71A.28.28,0,0,0,18.69,15.43Z"/></g></g></svg>